# MagicaVoxel @ Ephtracy

# material
mtllib Backhoe01.mtl
usemtl palette

# normals
vn -1 0 0
vn 1 0 0
vn 0 0 1
vn 0 0 -1
vn 0 -1 0
vn 0 1 0

# texcoords
vt 0.787109 0.5
vt 0.849609 0.5
vt 0.908203 0.5
vt 0.970703 0.5
vt 0.982422 0.5
vt 0.986328 0.5
vt 0.990234 0.5

# verts
v -5 0 10.5
v -5 0 5.5
v -5 0 3.5
v -5 0 0.5
v -5 0 -0.5
v -5 1 5.5
v -5 1 4.5
v -5 1 3.5
v -5 1 2.5
v -5 1 0.5
v -5 1 -0.5
v -5 1 -9.5
v -5 1 -10.5
v -5 2 10.5
v -5 2 9.5
v -5 2 4.5
v -5 2 3.5
v -5 2 2.5
v -5 2 1.5
v -5 2 -9.5
v -5 2 -10.5
v -5 3 9.5
v -5 3 7.5
v -5 3 3.5
v -5 3 2.5
v -5 3 1.5
v -5 3 -4.5
v -5 4 7.5
v -5 4 5.5
v -5 4 2.5
v -5 4 -4.5
v -4 0 1.5
v -4 0 0.5
v -4 0 -0.5
v -4 0 -10.5
v -4 1 0.5
v -4 1 -0.5
v -4 1 -1.5
v -4 1 -8.5
v -4 1 -9.5
v -4 1 -10.5
v -4 2 1.5
v -4 2 -1.5
v -4 2 -8.5
v -4 2 -9.5
v -4 2 -10.5
v -4 3 1.5
v -4 3 -4.5
v -4 4 1.5
v -4 4 -4.5
v -4 4 -10.5
v -4 5 1.5
v -4 5 -4.5
v -4 5 -5.5
v -4 5 -9.5
v -4 8 -4.5
v -4 8 -5.5
v -4 8 -9.5
v -4 8 -10.5
v -4 9 -4.5
v -4 9 -10.5
v -3 1 -1.5
v -3 1 -8.5
v -3 2 -1.5
v -3 2 -8.5
v -3 5 -5.5
v -3 5 -9.5
v -3 8 -5.5
v -3 8 -9.5
v 3 1 1.5
v 3 1 0.5
v 3 1 -9.5
v 3 1 -10.5
v 3 4 1.5
v 3 4 0.5
v 3 4 -9.5
v 3 4 -10.5
v 3 5 -4.5
v 3 5 -5.5
v 3 8 -4.5
v 3 8 -5.5
v 3 8 -9.5
v 3 8 -10.5
v 3 9 -4.5
v 3 9 -5.5
v 3 11 -4.5
v 3 11 -5.5
v 3 12 -4.5
v 3 12 -5.5
v 4 0 5.5
v 4 0 3.5
v 4 1 10.5
v 4 1 6.5
v 4 1 5.5
v 4 1 4.5
v 4 1 3.5
v 4 1 2.5
v 4 2 10.5
v 4 2 9.5
v 4 2 4.5
v 4 2 3.5
v 4 2 2.5
v 4 2 1.5
v 4 3 9.5
v 4 3 7.5
v 4 3 3.5
v 4 3 2.5
v 4 4 7.5
v 4 4 6.5
v 4 4 2.5
v 4 4 1.5
v -4 0 5.5
v -4 0 3.5
v -4 1 10.5
v -4 1 6.5
v -4 1 5.5
v -4 1 4.5
v -4 1 3.5
v -4 1 2.5
v -4 2 10.5
v -4 2 9.5
v -4 2 4.5
v -4 2 3.5
v -4 2 2.5
v -4 2 1.5
v -4 3 9.5
v -4 3 7.5
v -4 3 3.5
v -4 3 2.5
v -4 4 7.5
v -4 4 6.5
v -4 4 2.5
v -4 4 1.5
v -3 1 1.5
v -3 1 0.5
v -3 1 -9.5
v -3 1 -10.5
v -3 4 1.5
v -3 4 0.5
v -3 4 -9.5
v -3 4 -10.5
v -3 5 -4.5
v -3 5 -5.5
v -3 8 -4.5
v -3 8 -5.5
v -3 8 -9.5
v -3 8 -10.5
v 3 1 -1.5
v 3 1 -8.5
v 3 2 -1.5
v 3 2 -8.5
v 3 5 -5.5
v 3 5 -9.5
v 3 8 -5.5
v 3 8 -9.5
v 4 0 1.5
v 4 0 0.5
v 4 0 -0.5
v 4 0 -10.5
v 4 1 0.5
v 4 1 -0.5
v 4 1 -1.5
v 4 1 -8.5
v 4 1 -9.5
v 4 1 -10.5
v 4 2 1.5
v 4 2 -1.5
v 4 2 -8.5
v 4 2 -9.5
v 4 2 -10.5
v 4 3 1.5
v 4 3 -4.5
v 4 4 1.5
v 4 4 -4.5
v 4 4 -10.5
v 4 5 1.5
v 4 5 -4.5
v 4 5 -5.5
v 4 5 -9.5
v 4 8 -4.5
v 4 8 -5.5
v 4 8 -9.5
v 4 8 -10.5
v 4 9 -4.5
v 4 9 -5.5
v 4 9 -10.5
v 4 11 -4.5
v 4 11 -5.5
v 4 12 -4.5
v 4 12 -5.5
v 5 0 10.5
v 5 0 5.5
v 5 0 3.5
v 5 0 0.5
v 5 0 -0.5
v 5 1 5.5
v 5 1 4.5
v 5 1 3.5
v 5 1 2.5
v 5 1 0.5
v 5 1 -0.5
v 5 1 -9.5
v 5 1 -10.5
v 5 2 10.5
v 5 2 9.5
v 5 2 4.5
v 5 2 3.5
v 5 2 2.5
v 5 2 1.5
v 5 2 -9.5
v 5 2 -10.5
v 5 3 9.5
v 5 3 7.5
v 5 3 3.5
v 5 3 2.5
v 5 3 1.5
v 5 3 -4.5
v 5 4 7.5
v 5 4 5.5
v 5 4 2.5
v 5 4 -4.5
v -5 0 10.5
v -5 2 10.5
v -4 1 10.5
v -4 2 10.5
v 4 1 10.5
v 4 2 10.5
v 5 0 10.5
v 5 2 10.5
v -5 2 9.5
v -5 3 9.5
v -4 2 9.5
v -4 3 9.5
v 4 2 9.5
v 4 3 9.5
v 5 2 9.5
v 5 3 9.5
v -5 3 7.5
v -5 4 7.5
v -4 3 7.5
v -4 4 7.5
v 4 3 7.5
v 4 4 7.5
v 5 3 7.5
v 5 4 7.5
v -4 1 6.5
v -4 4 6.5
v 4 1 6.5
v 4 4 6.5
v -5 1 4.5
v -5 2 4.5
v -4 1 4.5
v -4 2 4.5
v 4 1 4.5
v 4 2 4.5
v 5 1 4.5
v 5 2 4.5
v -5 2 3.5
v -5 3 3.5
v -4 2 3.5
v -4 3 3.5
v 4 2 3.5
v 4 3 3.5
v 5 2 3.5
v 5 3 3.5
v -5 3 2.5
v -5 4 2.5
v -4 3 2.5
v -4 4 2.5
v 4 3 2.5
v 4 4 2.5
v 5 3 2.5
v 5 4 2.5
v -4 0 1.5
v -4 2 1.5
v -4 4 1.5
v -4 5 1.5
v -3 1 1.5
v -3 4 1.5
v 3 1 1.5
v 3 4 1.5
v 4 0 1.5
v 4 2 1.5
v 4 4 1.5
v 4 5 1.5
v -5 0 0.5
v -5 1 0.5
v -4 0 0.5
v -4 1 0.5
v -3 1 0.5
v -3 4 0.5
v 3 1 0.5
v 3 4 0.5
v 4 0 0.5
v 4 1 0.5
v 5 0 0.5
v 5 1 0.5
v -4 5 -4.5
v -4 8 -4.5
v -4 9 -4.5
v -3 5 -4.5
v -3 8 -4.5
v 3 5 -4.5
v 3 8 -4.5
v 3 9 -4.5
v 3 11 -4.5
v 3 12 -4.5
v 4 5 -4.5
v 4 8 -4.5
v 4 9 -4.5
v 4 11 -4.5
v 4 12 -4.5
v -3 5 -5.5
v -3 8 -5.5
v 3 5 -5.5
v 3 8 -5.5
v -4 1 -8.5
v -4 2 -8.5
v -3 1 -8.5
v -3 2 -8.5
v 3 1 -8.5
v 3 2 -8.5
v 4 1 -8.5
v 4 2 -8.5
v -5 1 -9.5
v -5 2 -9.5
v -4 1 -9.5
v -4 2 -9.5
v -4 5 -9.5
v -4 8 -9.5
v -3 5 -9.5
v -3 8 -9.5
v 3 5 -9.5
v 3 8 -9.5
v 4 1 -9.5
v 4 2 -9.5
v 4 5 -9.5
v 4 8 -9.5
v 5 1 -9.5
v 5 2 -9.5
v -5 1 5.5
v -5 4 5.5
v -4 0 5.5
v -4 1 5.5
v 4 0 5.5
v 4 1 5.5
v 5 1 5.5
v 5 4 5.5
v -5 0 3.5
v -5 1 3.5
v -4 0 3.5
v -4 1 3.5
v 4 0 3.5
v 4 1 3.5
v 5 0 3.5
v 5 1 3.5
v -5 1 2.5
v -5 2 2.5
v -4 1 2.5
v -4 2 2.5
v 4 1 2.5
v 4 2 2.5
v 5 1 2.5
v 5 2 2.5
v -5 2 1.5
v -5 3 1.5
v -4 2 1.5
v -4 3 1.5
v 4 2 1.5
v 4 3 1.5
v 5 2 1.5
v 5 3 1.5
v -5 0 -0.5
v -5 1 -0.5
v -4 0 -0.5
v -4 1 -0.5
v 4 0 -0.5
v 4 1 -0.5
v 5 0 -0.5
v 5 1 -0.5
v -4 1 -1.5
v -4 2 -1.5
v -3 1 -1.5
v -3 2 -1.5
v 3 1 -1.5
v 3 2 -1.5
v 4 1 -1.5
v 4 2 -1.5
v -5 3 -4.5
v -5 4 -4.5
v -4 3 -4.5
v -4 4 -4.5
v 4 3 -4.5
v 4 4 -4.5
v 5 3 -4.5
v 5 4 -4.5
v -4 5 -5.5
v -4 8 -5.5
v -3 5 -5.5
v -3 8 -5.5
v 3 5 -5.5
v 3 8 -5.5
v 3 9 -5.5
v 3 11 -5.5
v 3 12 -5.5
v 4 5 -5.5
v 4 8 -5.5
v 4 9 -5.5
v 4 11 -5.5
v 4 12 -5.5
v -3 1 -9.5
v -3 4 -9.5
v -3 8 -9.5
v 3 1 -9.5
v 3 4 -9.5
v 3 8 -9.5
v -5 1 -10.5
v -5 2 -10.5
v -4 0 -10.5
v -4 1 -10.5
v -4 2 -10.5
v -4 4 -10.5
v -4 8 -10.5
v -4 9 -10.5
v -3 1 -10.5
v -3 4 -10.5
v -3 8 -10.5
v 3 1 -10.5
v 3 4 -10.5
v 3 8 -10.5
v 4 0 -10.5
v 4 1 -10.5
v 4 2 -10.5
v 4 4 -10.5
v 4 8 -10.5
v 4 9 -10.5
v 5 1 -10.5
v 5 2 -10.5
v -5 0 10.5
v 5 0 10.5
v -5 0 5.5
v -4 0 5.5
v 4 0 5.5
v 5 0 5.5
v -5 0 3.5
v -4 0 3.5
v 4 0 3.5
v 5 0 3.5
v -4 0 1.5
v 4 0 1.5
v -5 0 0.5
v -4 0 0.5
v 4 0 0.5
v 5 0 0.5
v -5 0 -0.5
v -4 0 -0.5
v 4 0 -0.5
v 5 0 -0.5
v -4 0 -10.5
v 4 0 -10.5
v -5 1 3.5
v -4 1 3.5
v 4 1 3.5
v 5 1 3.5
v -5 1 2.5
v -4 1 2.5
v 4 1 2.5
v 5 1 2.5
v -5 1 -9.5
v -4 1 -9.5
v 4 1 -9.5
v 5 1 -9.5
v -5 1 -10.5
v -4 1 -10.5
v 4 1 -10.5
v 5 1 -10.5
v -5 2 2.5
v -4 2 2.5
v 4 2 2.5
v 5 2 2.5
v -5 2 1.5
v -4 2 1.5
v 4 2 1.5
v 5 2 1.5
v -4 2 -1.5
v -3 2 -1.5
v 3 2 -1.5
v 4 2 -1.5
v -4 2 -8.5
v -3 2 -8.5
v 3 2 -8.5
v 4 2 -8.5
v -5 3 1.5
v -4 3 1.5
v 4 3 1.5
v 5 3 1.5
v -5 3 -4.5
v -4 3 -4.5
v 4 3 -4.5
v 5 3 -4.5
v -3 4 1.5
v 3 4 1.5
v -3 4 0.5
v 3 4 0.5
v -3 8 -4.5
v 3 8 -4.5
v -4 8 -5.5
v -3 8 -5.5
v 3 8 -5.5
v 4 8 -5.5
v -4 8 -9.5
v -3 8 -9.5
v 3 8 -9.5
v 4 8 -9.5
v -3 8 -10.5
v 3 8 -10.5
v -4 1 10.5
v 4 1 10.5
v -4 1 6.5
v 4 1 6.5
v -5 1 5.5
v -4 1 5.5
v 4 1 5.5
v 5 1 5.5
v -5 1 4.5
v -4 1 4.5
v 4 1 4.5
v 5 1 4.5
v -3 1 1.5
v 3 1 1.5
v -5 1 0.5
v -4 1 0.5
v -3 1 0.5
v 3 1 0.5
v 4 1 0.5
v 5 1 0.5
v -5 1 -0.5
v -4 1 -0.5
v 4 1 -0.5
v 5 1 -0.5
v -4 1 -1.5
v -3 1 -1.5
v 3 1 -1.5
v 4 1 -1.5
v -4 1 -8.5
v -3 1 -8.5
v 3 1 -8.5
v 4 1 -8.5
v -3 1 -9.5
v 3 1 -9.5
v -3 1 -10.5
v 3 1 -10.5
v -5 2 10.5
v -4 2 10.5
v 4 2 10.5
v 5 2 10.5
v -5 2 9.5
v -4 2 9.5
v 4 2 9.5
v 5 2 9.5
v -5 2 4.5
v -4 2 4.5
v 4 2 4.5
v 5 2 4.5
v -5 2 3.5
v -4 2 3.5
v 4 2 3.5
v 5 2 3.5
v -5 2 -9.5
v -4 2 -9.5
v 4 2 -9.5
v 5 2 -9.5
v -5 2 -10.5
v -4 2 -10.5
v 4 2 -10.5
v 5 2 -10.5
v -5 3 9.5
v -4 3 9.5
v 4 3 9.5
v 5 3 9.5
v -5 3 7.5
v -4 3 7.5
v 4 3 7.5
v 5 3 7.5
v -5 3 3.5
v -4 3 3.5
v 4 3 3.5
v 5 3 3.5
v -5 3 2.5
v -4 3 2.5
v 4 3 2.5
v 5 3 2.5
v -5 4 7.5
v -4 4 7.5
v 4 4 7.5
v 5 4 7.5
v -4 4 6.5
v 4 4 6.5
v -5 4 5.5
v 5 4 5.5
v -5 4 2.5
v -4 4 2.5
v 4 4 2.5
v 5 4 2.5
v -4 4 1.5
v 4 4 1.5
v -5 4 -4.5
v -4 4 -4.5
v 4 4 -4.5
v 5 4 -4.5
v -4 5 1.5
v 4 5 1.5
v -3 5 0.5
v 3 5 0.5
v -3 5 -0.5
v 3 5 -0.5
v -3 5 -1.5
v 3 5 -1.5
v -3 5 -2.5
v 3 5 -2.5
v -2 5 -3.5
v 2 5 -3.5
v -4 5 -4.5
v -3 5 -4.5
v -2 5 -4.5
v 2 5 -4.5
v 3 5 -4.5
v 4 5 -4.5
v -4 5 -5.5
v -3 5 -5.5
v 3 5 -5.5
v 4 5 -5.5
v -4 5 -9.5
v -3 5 -9.5
v 3 5 -9.5
v 4 5 -9.5
v -4 9 -4.5
v 3 9 -4.5
v 3 9 -5.5
v 4 9 -5.5
v -4 9 -10.5
v 4 9 -10.5
v 3 12 -4.5
v 4 12 -4.5
v 3 12 -5.5
v 4 12 -5.5

# faces
f 6/1/1 2/1/1 1/1/1
f 6/6/1 3/6/1 2/6/1
f 7/6/1 3/6/1 6/6/1
f 8/6/1 3/6/1 7/6/1
f 10/5/1 5/5/1 4/5/1
f 11/5/1 5/5/1 10/5/1
f 14/1/1 6/1/1 1/1/1
f 15/1/1 6/1/1 14/1/1
f 16/6/1 9/6/1 8/6/1
f 16/6/1 8/6/1 7/6/1
f 17/6/1 9/6/1 16/6/1
f 18/6/1 9/6/1 17/6/1
f 20/5/1 13/5/1 12/5/1
f 21/5/1 13/5/1 20/5/1
f 22/1/1 6/1/1 15/1/1
f 23/1/1 6/1/1 22/1/1
f 24/6/1 19/6/1 18/6/1
f 24/6/1 18/6/1 17/6/1
f 25/6/1 19/6/1 24/6/1
f 26/6/1 19/6/1 25/6/1
f 28/1/1 6/1/1 23/1/1
f 29/1/1 6/1/1 28/1/1
f 30/6/1 27/6/1 26/6/1
f 30/6/1 26/6/1 25/6/1
f 31/6/1 27/6/1 30/6/1
f 36/3/1 33/3/1 32/3/1
f 37/3/1 35/3/1 34/3/1
f 38/3/1 35/3/1 37/3/1
f 39/3/1 35/3/1 38/3/1
f 40/3/1 35/3/1 39/3/1
f 41/3/1 35/3/1 40/3/1
f 42/3/1 36/3/1 32/3/1
f 42/3/1 37/3/1 36/3/1
f 42/3/1 38/3/1 37/3/1
f 43/3/1 38/3/1 42/3/1
f 44/3/1 40/3/1 39/3/1
f 45/3/1 40/3/1 44/3/1
f 47/3/1 43/3/1 42/3/1
f 47/3/1 46/3/1 45/3/1
f 47/3/1 45/3/1 44/3/1
f 47/3/1 44/3/1 43/3/1
f 48/3/1 46/3/1 47/3/1
f 50/3/1 46/3/1 48/3/1
f 51/3/1 46/3/1 50/3/1
f 52/3/1 50/3/1 49/3/1
f 53/6/1 51/6/1 50/6/1
f 53/3/1 50/3/1 52/3/1
f 54/6/1 51/6/1 53/6/1
f 55/6/1 51/6/1 54/6/1
f 56/6/1 54/6/1 53/6/1
f 57/6/1 54/6/1 56/6/1
f 58/6/1 51/6/1 55/6/1
f 59/6/1 51/6/1 58/6/1
f 60/3/1 57/3/1 56/3/1
f 60/3/1 58/3/1 57/3/1
f 60/3/1 59/3/1 58/3/1
f 61/3/1 59/3/1 60/3/1
f 64/3/1 63/3/1 62/3/1
f 65/3/1 63/3/1 64/3/1
f 68/2/1 67/2/1 66/2/1
f 69/2/1 67/2/1 68/2/1
f 74/3/1 71/3/1 70/3/1
f 75/3/1 71/3/1 74/3/1
f 76/3/1 73/3/1 72/3/1
f 77/3/1 73/3/1 76/3/1
f 80/6/1 79/6/1 78/6/1
f 81/6/1 79/6/1 80/6/1
f 82/6/1 77/6/1 76/6/1
f 83/6/1 77/6/1 82/6/1
f 86/6/1 85/6/1 84/6/1
f 87/6/1 85/6/1 86/6/1
f 88/7/1 87/7/1 86/7/1
f 89/7/1 87/7/1 88/7/1
f 94/6/1 91/6/1 90/6/1
f 95/6/1 91/6/1 94/6/1
f 96/6/1 91/6/1 95/6/1
f 98/1/1 93/1/1 92/1/1
f 99/1/1 93/1/1 98/1/1
f 100/6/1 97/6/1 96/6/1
f 100/6/1 96/6/1 95/6/1
f 101/6/1 97/6/1 100/6/1
f 102/6/1 97/6/1 101/6/1
f 104/1/1 93/1/1 99/1/1
f 105/1/1 93/1/1 104/1/1
f 106/6/1 103/6/1 102/6/1
f 106/6/1 102/6/1 101/6/1
f 107/6/1 103/6/1 106/6/1
f 108/1/1 93/1/1 105/1/1
f 109/1/1 93/1/1 108/1/1
f 110/6/1 103/6/1 107/6/1
f 111/6/1 103/6/1 110/6/1
f 112/6/2 113/6/2 116/6/2
f 116/6/2 113/6/2 117/6/2
f 117/6/2 113/6/2 118/6/2
f 114/1/2 115/1/2 120/1/2
f 120/1/2 115/1/2 121/1/2
f 118/6/2 119/6/2 122/6/2
f 117/6/2 118/6/2 122/6/2
f 122/6/2 119/6/2 123/6/2
f 123/6/2 119/6/2 124/6/2
f 121/1/2 115/1/2 126/1/2
f 126/1/2 115/1/2 127/1/2
f 124/6/2 125/6/2 128/6/2
f 123/6/2 124/6/2 128/6/2
f 128/6/2 125/6/2 129/6/2
f 127/1/2 115/1/2 130/1/2
f 130/1/2 115/1/2 131/1/2
f 129/6/2 125/6/2 132/6/2
f 132/6/2 125/6/2 133/6/2
f 134/3/2 135/3/2 138/3/2
f 138/3/2 135/3/2 139/3/2
f 136/3/2 137/3/2 140/3/2
f 140/3/2 137/3/2 141/3/2
f 142/6/2 143/6/2 144/6/2
f 144/6/2 143/6/2 145/6/2
f 140/6/2 141/6/2 146/6/2
f 146/6/2 141/6/2 147/6/2
f 148/3/2 149/3/2 150/3/2
f 150/3/2 149/3/2 151/3/2
f 152/2/2 153/2/2 154/2/2
f 154/2/2 153/2/2 155/2/2
f 156/3/2 157/3/2 160/3/2
f 158/3/2 159/3/2 161/3/2
f 161/3/2 159/3/2 162/3/2
f 162/3/2 159/3/2 163/3/2
f 163/3/2 159/3/2 164/3/2
f 164/3/2 159/3/2 165/3/2
f 156/3/2 160/3/2 166/3/2
f 160/3/2 161/3/2 166/3/2
f 161/3/2 162/3/2 166/3/2
f 166/3/2 162/3/2 167/3/2
f 163/3/2 164/3/2 168/3/2
f 168/3/2 164/3/2 169/3/2
f 166/3/2 167/3/2 171/3/2
f 169/3/2 170/3/2 171/3/2
f 168/3/2 169/3/2 171/3/2
f 167/3/2 168/3/2 171/3/2
f 171/3/2 170/3/2 172/3/2
f 172/3/2 170/3/2 174/3/2
f 174/3/2 170/3/2 175/3/2
f 173/3/2 174/3/2 176/3/2
f 174/6/2 175/6/2 177/6/2
f 176/3/2 174/3/2 177/3/2
f 177/6/2 175/6/2 178/6/2
f 178/6/2 175/6/2 179/6/2
f 177/6/2 178/6/2 180/6/2
f 180/6/2 178/6/2 181/6/2
f 179/6/2 175/6/2 182/6/2
f 182/6/2 175/6/2 183/6/2
f 180/3/2 181/3/2 184/3/2
f 181/3/2 182/3/2 184/3/2
f 182/3/2 183/3/2 184/3/2
f 184/3/2 183/3/2 185/3/2
f 185/3/2 183/3/2 186/3/2
f 184/6/2 185/6/2 187/6/2
f 187/6/2 185/6/2 188/6/2
f 187/7/2 188/7/2 189/7/2
f 189/7/2 188/7/2 190/7/2
f 191/1/2 192/1/2 196/1/2
f 192/6/2 193/6/2 196/6/2
f 196/6/2 193/6/2 197/6/2
f 197/6/2 193/6/2 198/6/2
f 194/5/2 195/5/2 200/5/2
f 200/5/2 195/5/2 201/5/2
f 191/1/2 196/1/2 204/1/2
f 204/1/2 196/1/2 205/1/2
f 198/6/2 199/6/2 206/6/2
f 197/6/2 198/6/2 206/6/2
f 206/6/2 199/6/2 207/6/2
f 207/6/2 199/6/2 208/6/2
f 202/5/2 203/5/2 210/5/2
f 210/5/2 203/5/2 211/5/2
f 205/1/2 196/1/2 212/1/2
f 212/1/2 196/1/2 213/1/2
f 208/6/2 209/6/2 214/6/2
f 207/6/2 208/6/2 214/6/2
f 214/6/2 209/6/2 215/6/2
f 215/6/2 209/6/2 216/6/2
f 213/1/2 196/1/2 218/1/2
f 218/1/2 196/1/2 219/1/2
f 216/6/2 217/6/2 220/6/2
f 215/6/2 216/6/2 220/6/2
f 220/6/2 217/6/2 221/6/2
f 224/1/3 223/1/3 222/1/3
f 225/1/3 223/1/3 224/1/3
f 226/1/3 224/1/3 222/1/3
f 228/1/3 226/1/3 222/1/3
f 228/1/3 227/1/3 226/1/3
f 229/1/3 227/1/3 228/1/3
f 232/1/3 231/1/3 230/1/3
f 233/1/3 231/1/3 232/1/3
f 236/1/3 235/1/3 234/1/3
f 237/1/3 235/1/3 236/1/3
f 240/1/3 239/1/3 238/1/3
f 241/1/3 239/1/3 240/1/3
f 244/1/3 243/1/3 242/1/3
f 245/1/3 243/1/3 244/1/3
f 248/1/3 247/1/3 246/1/3
f 249/1/3 247/1/3 248/1/3
f 252/6/3 251/6/3 250/6/3
f 253/6/3 251/6/3 252/6/3
f 256/6/3 255/6/3 254/6/3
f 257/6/3 255/6/3 256/6/3
f 260/6/3 259/6/3 258/6/3
f 261/6/3 259/6/3 260/6/3
f 264/6/3 263/6/3 262/6/3
f 265/6/3 263/6/3 264/6/3
f 268/6/3 267/6/3 266/6/3
f 269/6/3 267/6/3 268/6/3
f 272/6/3 271/6/3 270/6/3
f 273/6/3 271/6/3 272/6/3
f 278/3/3 275/3/3 274/3/3
f 278/3/3 277/3/3 276/3/3
f 278/3/3 276/3/3 275/3/3
f 279/3/3 277/3/3 278/3/3
f 280/3/3 278/3/3 274/3/3
f 281/3/3 277/3/3 279/3/3
f 282/3/3 280/3/3 274/3/3
f 282/3/3 281/3/3 280/3/3
f 283/3/3 281/3/3 282/3/3
f 284/3/3 277/3/3 281/3/3
f 284/3/3 281/3/3 283/3/3
f 285/3/3 277/3/3 284/3/3
f 288/5/3 287/5/3 286/5/3
f 289/5/3 287/5/3 288/5/3
f 292/7/3 291/7/3 290/7/3
f 293/7/3 291/7/3 292/7/3
f 296/5/3 295/5/3 294/5/3
f 297/5/3 295/5/3 296/5/3
f 301/6/3 299/6/3 298/6/3
f 302/3/3 300/3/3 299/3/3
f 302/6/3 299/6/3 301/6/3
f 304/3/3 300/3/3 302/3/3
f 305/3/3 300/3/3 304/3/3
f 308/6/3 304/6/3 303/6/3
f 309/3/3 305/3/3 304/3/3
f 309/6/3 304/6/3 308/6/3
f 310/6/3 306/6/3 305/6/3
f 310/3/3 305/3/3 309/3/3
f 311/7/3 307/7/3 306/7/3
f 311/6/3 306/6/3 310/6/3
f 312/7/3 307/7/3 311/7/3
f 315/2/3 314/2/3 313/2/3
f 316/2/3 314/2/3 315/2/3
f 319/3/3 318/3/3 317/3/3
f 320/3/3 318/3/3 319/3/3
f 323/3/3 322/3/3 321/3/3
f 324/3/3 322/3/3 323/3/3
f 327/5/3 326/5/3 325/5/3
f 328/5/3 326/5/3 327/5/3
f 331/6/3 330/6/3 329/6/3
f 332/6/3 330/6/3 331/6/3
f 337/6/3 334/6/3 333/6/3
f 338/6/3 334/6/3 337/6/3
f 339/5/3 336/5/3 335/5/3
f 340/5/3 336/5/3 339/5/3
f 341/1/4 342/1/4 344/1/4
f 343/1/4 344/1/4 345/1/4
f 344/1/4 342/1/4 346/1/4
f 345/1/4 344/1/4 346/1/4
f 346/1/4 342/1/4 347/1/4
f 347/1/4 342/1/4 348/1/4
f 349/6/4 350/6/4 351/6/4
f 351/6/4 350/6/4 352/6/4
f 353/6/4 354/6/4 355/6/4
f 355/6/4 354/6/4 356/6/4
f 357/6/4 358/6/4 359/6/4
f 359/6/4 358/6/4 360/6/4
f 361/6/4 362/6/4 363/6/4
f 363/6/4 362/6/4 364/6/4
f 365/6/4 366/6/4 367/6/4
f 367/6/4 366/6/4 368/6/4
f 369/6/4 370/6/4 371/6/4
f 371/6/4 370/6/4 372/6/4
f 373/5/4 374/5/4 375/5/4
f 375/5/4 374/5/4 376/5/4
f 377/5/4 378/5/4 379/5/4
f 379/5/4 378/5/4 380/5/4
f 381/3/4 382/3/4 383/3/4
f 383/3/4 382/3/4 384/3/4
f 385/3/4 386/3/4 387/3/4
f 387/3/4 386/3/4 388/3/4
f 389/6/4 390/6/4 391/6/4
f 391/6/4 390/6/4 392/6/4
f 393/6/4 394/6/4 395/6/4
f 395/6/4 394/6/4 396/6/4
f 397/6/4 398/6/4 399/6/4
f 399/6/4 398/6/4 400/6/4
f 401/6/4 402/6/4 406/6/4
f 406/6/4 402/6/4 407/6/4
f 403/6/4 404/6/4 408/6/4
f 404/7/4 405/7/4 409/7/4
f 408/6/4 404/6/4 409/6/4
f 409/7/4 405/7/4 410/7/4
f 411/2/4 412/2/4 414/2/4
f 412/2/4 413/2/4 414/2/4
f 414/2/4 413/2/4 415/2/4
f 415/2/4 413/2/4 416/2/4
f 417/5/4 418/5/4 420/5/4
f 420/5/4 418/5/4 421/5/4
f 419/3/4 420/3/4 425/3/4
f 420/3/4 421/3/4 425/3/4
f 421/3/4 422/3/4 425/3/4
f 422/6/4 423/6/4 426/6/4
f 425/3/4 422/3/4 426/3/4
f 423/3/4 424/3/4 427/3/4
f 426/6/4 423/6/4 427/6/4
f 419/3/4 425/3/4 428/3/4
f 427/3/4 424/3/4 430/3/4
f 428/3/4 429/3/4 431/3/4
f 419/3/4 428/3/4 431/3/4
f 431/3/4 429/3/4 432/3/4
f 432/3/4 429/3/4 433/3/4
f 429/6/4 430/6/4 434/6/4
f 433/3/4 429/3/4 434/3/4
f 430/3/4 424/3/4 435/3/4
f 434/6/4 430/6/4 435/6/4
f 435/3/4 424/3/4 436/3/4
f 432/5/4 433/5/4 437/5/4
f 437/5/4 433/5/4 438/5/4
f 441/1/5 440/1/5 439/1/5
f 442/1/5 440/1/5 441/1/5
f 443/1/5 440/1/5 442/1/5
f 444/1/5 440/1/5 443/1/5
f 445/6/5 442/6/5 441/6/5
f 446/6/5 442/6/5 445/6/5
f 447/6/5 444/6/5 443/6/5
f 448/6/5 444/6/5 447/6/5
f 452/3/5 450/3/5 449/3/5
f 453/3/5 450/3/5 452/3/5
f 455/5/5 452/5/5 451/5/5
f 456/3/5 453/3/5 452/3/5
f 456/5/5 452/5/5 455/5/5
f 457/5/5 454/5/5 453/5/5
f 457/3/5 453/3/5 456/3/5
f 458/5/5 454/5/5 457/5/5
f 459/3/5 457/3/5 456/3/5
f 460/3/5 457/3/5 459/3/5
f 465/6/5 462/6/5 461/6/5
f 466/6/5 462/6/5 465/6/5
f 467/6/5 464/6/5 463/6/5
f 468/6/5 464/6/5 467/6/5
f 473/5/5 470/5/5 469/5/5
f 474/5/5 470/5/5 473/5/5
f 475/5/5 472/5/5 471/5/5
f 476/5/5 472/5/5 475/5/5
f 481/6/5 478/6/5 477/6/5
f 482/6/5 478/6/5 481/6/5
f 483/6/5 480/6/5 479/6/5
f 484/6/5 480/6/5 483/6/5
f 489/3/5 486/3/5 485/3/5
f 490/3/5 486/3/5 489/3/5
f 491/3/5 488/3/5 487/3/5
f 492/3/5 488/3/5 491/3/5
f 497/6/5 494/6/5 493/6/5
f 498/6/5 494/6/5 497/6/5
f 499/6/5 496/6/5 495/6/5
f 500/6/5 496/6/5 499/6/5
f 503/3/5 502/3/5 501/3/5
f 504/3/5 502/3/5 503/3/5
f 508/3/5 506/3/5 505/3/5
f 509/3/5 506/3/5 508/3/5
f 511/3/5 508/3/5 507/3/5
f 512/3/5 508/3/5 511/3/5
f 513/3/5 510/3/5 509/3/5
f 514/3/5 510/3/5 513/3/5
f 515/3/5 513/3/5 512/3/5
f 516/3/5 513/3/5 515/3/5
f 517/1/6 518/1/6 519/1/6
f 519/1/6 518/1/6 520/1/6
f 521/6/6 522/6/6 525/6/6
f 525/6/6 522/6/6 526/6/6
f 523/6/6 524/6/6 527/6/6
f 527/6/6 524/6/6 528/6/6
f 529/3/6 530/3/6 533/3/6
f 533/3/6 530/3/6 534/3/6
f 531/5/6 532/5/6 537/5/6
f 537/5/6 532/5/6 538/5/6
f 535/5/6 536/5/6 539/5/6
f 539/5/6 536/5/6 540/5/6
f 541/3/6 542/3/6 545/3/6
f 545/3/6 542/3/6 546/3/6
f 543/3/6 544/3/6 547/3/6
f 547/3/6 544/3/6 548/3/6
f 549/3/6 550/3/6 551/3/6
f 551/3/6 550/3/6 552/3/6
f 553/1/6 554/1/6 557/1/6
f 557/1/6 554/1/6 558/1/6
f 555/1/6 556/1/6 559/1/6
f 559/1/6 556/1/6 560/1/6
f 561/6/6 562/6/6 565/6/6
f 565/6/6 562/6/6 566/6/6
f 563/6/6 564/6/6 567/6/6
f 567/6/6 564/6/6 568/6/6
f 569/5/6 570/5/6 573/5/6
f 573/5/6 570/5/6 574/5/6
f 571/5/6 572/5/6 575/5/6
f 575/5/6 572/5/6 576/5/6
f 577/1/6 578/1/6 581/1/6
f 581/1/6 578/1/6 582/1/6
f 579/1/6 580/1/6 583/1/6
f 583/1/6 580/1/6 584/1/6
f 585/6/6 586/6/6 589/6/6
f 589/6/6 586/6/6 590/6/6
f 587/6/6 588/6/6 591/6/6
f 591/6/6 588/6/6 592/6/6
f 593/1/6 594/1/6 597/1/6
f 595/1/6 596/1/6 598/1/6
f 593/1/6 597/1/6 599/1/6
f 597/1/6 598/1/6 599/1/6
f 598/1/6 596/1/6 600/1/6
f 599/1/6 598/1/6 600/1/6
f 601/6/6 602/6/6 605/6/6
f 603/6/6 604/6/6 606/6/6
f 601/6/6 605/6/6 607/6/6
f 607/6/6 605/6/6 608/6/6
f 606/6/6 604/6/6 609/6/6
f 609/6/6 604/6/6 610/6/6
f 611/3/6 612/3/6 613/3/6
f 613/3/6 612/3/6 614/3/6
f 611/3/6 613/3/6 615/3/6
f 613/4/6 614/4/6 615/4/6
f 614/3/6 612/3/6 616/3/6
f 615/4/6 614/4/6 616/4/6
f 611/3/6 615/3/6 617/3/6
f 615/3/6 616/3/6 617/3/6
f 616/3/6 612/3/6 618/3/6
f 617/3/6 616/3/6 618/3/6
f 611/3/6 617/3/6 619/3/6
f 617/4/6 618/4/6 619/4/6
f 618/3/6 612/3/6 620/3/6
f 619/4/6 618/4/6 620/4/6
f 619/3/6 620/3/6 621/3/6
f 621/3/6 620/3/6 622/3/6
f 611/3/6 619/3/6 623/3/6
f 619/3/6 621/3/6 623/3/6
f 623/3/6 621/3/6 624/3/6
f 621/4/6 622/4/6 625/4/6
f 624/3/6 621/3/6 625/3/6
f 622/3/6 620/3/6 626/3/6
f 625/4/6 622/4/6 626/4/6
f 620/3/6 612/3/6 627/3/6
f 626/3/6 620/3/6 627/3/6
f 627/3/6 612/3/6 628/3/6
f 624/3/6 625/3/6 630/3/6
f 626/3/6 627/3/6 630/3/6
f 625/3/6 626/3/6 630/3/6
f 630/3/6 627/3/6 631/3/6
f 629/6/6 630/6/6 633/6/6
f 633/6/6 630/6/6 634/6/6
f 631/6/6 632/6/6 635/6/6
f 635/6/6 632/6/6 636/6/6
f 637/3/6 638/3/6 639/3/6
f 637/3/6 639/3/6 641/3/6
f 639/3/6 640/3/6 641/3/6
f 641/3/6 640/3/6 642/3/6
f 643/7/6 644/7/6 645/7/6
f 645/7/6 644/7/6 646/7/6
