# MagicaVoxel @ Ephtracy

# material
mtllib Bus01.mtl
usemtl palette

# normals
vn -1 0 0
vn 1 0 0
vn 0 0 1
vn 0 0 -1
vn 0 -1 0
vn 0 1 0

# texcoords
vt 0.912109 0.5
vt 0.970703 0.5
vt 0.974609 0.5
vt 0.986328 0.5
vt 0.990234 0.5
vt 0.994141 0.5

# verts
v -5 0 13.5
v -5 0 12.5
v -5 0 8.5
v -5 0 7.5
v -5 0 2.5
v -5 0 -5.5
v -5 0 -10.5
v -5 0 -13.5
v -5 1 12.5
v -5 1 8.5
v -5 2 7.5
v -5 2 6.5
v -5 2 3.5
v -5 2 2.5
v -5 2 -5.5
v -5 2 -6.5
v -5 2 -9.5
v -5 2 -10.5
v -5 3 6.5
v -5 3 3.5
v -5 3 -6.5
v -5 3 -9.5
v -5 4 7.5
v -5 4 3.5
v -5 4 2.5
v -5 4 -2.5
v -5 4 -3.5
v -5 4 -8.5
v -5 4 -9.5
v -5 4 -12.5
v -5 8 12.5
v -5 8 8.5
v -5 8 7.5
v -5 8 3.5
v -5 8 2.5
v -5 8 -2.5
v -5 8 -3.5
v -5 8 -8.5
v -5 8 -9.5
v -5 8 -12.5
v -5 9 12.5
v -5 9 -12.5
v -5 10 12.5
v -5 10 -12.5
v -5 11 13.5
v -5 11 -13.5
v -4 0 7.5
v -4 0 2.5
v -4 0 -5.5
v -4 0 -10.5
v -4 1 12.5
v -4 1 8.5
v -4 2 7.5
v -4 2 6.5
v -4 2 3.5
v -4 2 2.5
v -4 2 -5.5
v -4 2 -6.5
v -4 2 -9.5
v -4 2 -10.5
v -4 3 6.5
v -4 3 3.5
v -4 3 -6.5
v -4 3 -9.5
v -4 4 7.5
v -4 4 3.5
v -4 4 2.5
v -4 4 -2.5
v -4 4 -3.5
v -4 4 -8.5
v -4 4 -9.5
v -4 4 -12.5
v -4 8 12.5
v -4 8 8.5
v -4 8 7.5
v -4 8 3.5
v -4 8 2.5
v -4 8 -2.5
v -4 8 -3.5
v -4 8 -8.5
v -4 8 -9.5
v -4 8 -12.5
v 4 4 13.5
v 4 4 12.5
v 4 4 -12.5
v 4 4 -13.5
v 4 8 13.5
v 4 8 12.5
v 4 8 -12.5
v 4 8 -13.5
v -4 4 13.5
v -4 4 12.5
v -4 4 -12.5
v -4 4 -13.5
v -4 8 13.5
v -4 8 12.5
v -4 8 -12.5
v -4 8 -13.5
v 4 0 7.5
v 4 0 2.5
v 4 0 -5.5
v 4 0 -10.5
v 4 1 12.5
v 4 1 8.5
v 4 2 7.5
v 4 2 6.5
v 4 2 3.5
v 4 2 2.5
v 4 2 -5.5
v 4 2 -6.5
v 4 2 -9.5
v 4 2 -10.5
v 4 3 6.5
v 4 3 3.5
v 4 3 -6.5
v 4 3 -9.5
v 4 4 7.5
v 4 4 3.5
v 4 4 2.5
v 4 4 -2.5
v 4 4 -3.5
v 4 4 -8.5
v 4 4 -9.5
v 4 4 -12.5
v 4 8 12.5
v 4 8 8.5
v 4 8 7.5
v 4 8 3.5
v 4 8 2.5
v 4 8 -2.5
v 4 8 -3.5
v 4 8 -8.5
v 4 8 -9.5
v 4 8 -12.5
v 5 0 13.5
v 5 0 12.5
v 5 0 8.5
v 5 0 7.5
v 5 0 2.5
v 5 0 -5.5
v 5 0 -10.5
v 5 0 -13.5
v 5 1 12.5
v 5 1 8.5
v 5 2 7.5
v 5 2 6.5
v 5 2 3.5
v 5 2 2.5
v 5 2 -5.5
v 5 2 -6.5
v 5 2 -9.5
v 5 2 -10.5
v 5 3 6.5
v 5 3 3.5
v 5 3 -6.5
v 5 3 -9.5
v 5 4 7.5
v 5 4 3.5
v 5 4 2.5
v 5 4 -2.5
v 5 4 -3.5
v 5 4 -8.5
v 5 4 -9.5
v 5 4 -12.5
v 5 8 12.5
v 5 8 8.5
v 5 8 7.5
v 5 8 3.5
v 5 8 2.5
v 5 8 -2.5
v 5 8 -3.5
v 5 8 -8.5
v 5 8 -9.5
v 5 8 -12.5
v 5 9 12.5
v 5 9 -12.5
v 5 10 12.5
v 5 10 -12.5
v 5 11 13.5
v 5 11 -13.5
v -5 0 13.5
v -5 11 13.5
v -4 1 13.5
v -4 3 13.5
v -4 4 13.5
v -4 8 13.5
v -4 9 13.5
v -4 10 13.5
v 4 1 13.5
v 4 3 13.5
v 4 4 13.5
v 4 8 13.5
v 4 9 13.5
v 4 10 13.5
v 5 0 13.5
v 5 11 13.5
v -4 4 12.5
v -4 8 12.5
v 4 4 12.5
v 4 8 12.5
v -5 1 8.5
v -5 8 8.5
v -4 1 8.5
v -4 8 8.5
v 4 1 8.5
v 4 8 8.5
v 5 1 8.5
v 5 8 8.5
v -5 2 3.5
v -5 3 3.5
v -5 4 3.5
v -5 8 3.5
v -4 2 3.5
v -4 3 3.5
v -4 4 3.5
v -4 8 3.5
v 4 2 3.5
v 4 3 3.5
v 4 4 3.5
v 4 8 3.5
v 5 2 3.5
v 5 3 3.5
v 5 4 3.5
v 5 8 3.5
v -5 0 2.5
v -5 2 2.5
v -4 0 2.5
v -4 2 2.5
v 4 0 2.5
v 4 2 2.5
v 5 0 2.5
v 5 2 2.5
v -5 4 -2.5
v -5 8 -2.5
v -4 4 -2.5
v -4 8 -2.5
v 4 4 -2.5
v 4 8 -2.5
v 5 4 -2.5
v 5 8 -2.5
v -5 4 -8.5
v -5 8 -8.5
v -4 4 -8.5
v -4 8 -8.5
v 4 4 -8.5
v 4 8 -8.5
v 5 4 -8.5
v 5 8 -8.5
v -5 2 -9.5
v -5 3 -9.5
v -4 2 -9.5
v -4 3 -9.5
v 4 2 -9.5
v 4 3 -9.5
v 5 2 -9.5
v 5 3 -9.5
v -5 0 -10.5
v -5 2 -10.5
v -4 0 -10.5
v -4 2 -10.5
v 4 0 -10.5
v 4 2 -10.5
v 5 0 -10.5
v 5 2 -10.5
v -5 4 -12.5
v -5 8 -12.5
v -4 4 -12.5
v -4 8 -12.5
v 4 4 -12.5
v 4 8 -12.5
v 5 4 -12.5
v 5 8 -12.5
v -5 1 12.5
v -5 8 12.5
v -4 1 12.5
v -4 8 12.5
v 4 1 12.5
v 4 8 12.5
v 5 1 12.5
v 5 8 12.5
v -5 0 7.5
v -5 2 7.5
v -5 4 7.5
v -5 8 7.5
v -4 0 7.5
v -4 2 7.5
v -4 4 7.5
v -4 8 7.5
v 4 0 7.5
v 4 2 7.5
v 4 4 7.5
v 4 8 7.5
v 5 0 7.5
v 5 2 7.5
v 5 4 7.5
v 5 8 7.5
v -5 2 6.5
v -5 3 6.5
v -4 2 6.5
v -4 3 6.5
v 4 2 6.5
v 4 3 6.5
v 5 2 6.5
v 5 3 6.5
v -5 4 2.5
v -5 8 2.5
v -4 4 2.5
v -4 8 2.5
v 4 4 2.5
v 4 8 2.5
v 5 4 2.5
v 5 8 2.5
v -5 4 -3.5
v -5 8 -3.5
v -4 4 -3.5
v -4 8 -3.5
v 4 4 -3.5
v 4 8 -3.5
v 5 4 -3.5
v 5 8 -3.5
v -5 0 -5.5
v -5 2 -5.5
v -4 0 -5.5
v -4 2 -5.5
v 4 0 -5.5
v 4 2 -5.5
v 5 0 -5.5
v 5 2 -5.5
v -5 2 -6.5
v -5 3 -6.5
v -4 2 -6.5
v -4 3 -6.5
v 4 2 -6.5
v 4 3 -6.5
v 5 2 -6.5
v 5 3 -6.5
v -5 4 -9.5
v -5 8 -9.5
v -4 4 -9.5
v -4 8 -9.5
v 4 4 -9.5
v 4 8 -9.5
v 5 4 -9.5
v 5 8 -9.5
v -4 4 -12.5
v -4 8 -12.5
v 4 4 -12.5
v 4 8 -12.5
v -5 0 -13.5
v -5 11 -13.5
v -4 1 -13.5
v -4 2 -13.5
v -4 3 -13.5
v -4 4 -13.5
v -4 8 -13.5
v -4 9 -13.5
v -4 10 -13.5
v -3 1 -13.5
v -3 2 -13.5
v -3 3 -13.5
v -2 1 -13.5
v -2 2 -13.5
v -2 3 -13.5
v -1 1 -13.5
v -1 2 -13.5
v -1 3 -13.5
v 0 1 -13.5
v 0 2 -13.5
v 0 3 -13.5
v 1 1 -13.5
v 1 2 -13.5
v 1 3 -13.5
v 2 1 -13.5
v 2 2 -13.5
v 2 3 -13.5
v 3 1 -13.5
v 3 2 -13.5
v 3 3 -13.5
v 4 1 -13.5
v 4 2 -13.5
v 4 3 -13.5
v 4 4 -13.5
v 4 8 -13.5
v 4 9 -13.5
v 4 10 -13.5
v 5 0 -13.5
v 5 11 -13.5
v -5 0 13.5
v 5 0 13.5
v -5 0 12.5
v -4 0 12.5
v 4 0 12.5
v 5 0 12.5
v -5 0 8.5
v -4 0 8.5
v 4 0 8.5
v 5 0 8.5
v -5 0 7.5
v -4 0 7.5
v 4 0 7.5
v 5 0 7.5
v -5 0 2.5
v -4 0 2.5
v 4 0 2.5
v 5 0 2.5
v -5 0 -5.5
v -4 0 -5.5
v 4 0 -5.5
v 5 0 -5.5
v -5 0 -10.5
v -4 0 -10.5
v 4 0 -10.5
v 5 0 -10.5
v -5 0 -13.5
v 5 0 -13.5
v -5 2 7.5
v -4 2 7.5
v 4 2 7.5
v 5 2 7.5
v -5 2 6.5
v -4 2 6.5
v 4 2 6.5
v 5 2 6.5
v -5 2 3.5
v -4 2 3.5
v 4 2 3.5
v 5 2 3.5
v -5 2 2.5
v -4 2 2.5
v 4 2 2.5
v 5 2 2.5
v -5 2 -5.5
v -4 2 -5.5
v 4 2 -5.5
v 5 2 -5.5
v -5 2 -6.5
v -4 2 -6.5
v 4 2 -6.5
v 5 2 -6.5
v -5 2 -9.5
v -4 2 -9.5
v 4 2 -9.5
v 5 2 -9.5
v -5 2 -10.5
v -4 2 -10.5
v 4 2 -10.5
v 5 2 -10.5
v -5 3 6.5
v -4 3 6.5
v 4 3 6.5
v 5 3 6.5
v -5 3 3.5
v -4 3 3.5
v 4 3 3.5
v 5 3 3.5
v -5 3 -6.5
v -4 3 -6.5
v 4 3 -6.5
v 5 3 -6.5
v -5 3 -9.5
v -4 3 -9.5
v 4 3 -9.5
v 5 3 -9.5
v -4 8 13.5
v 4 8 13.5
v -5 8 12.5
v -4 8 12.5
v 4 8 12.5
v 5 8 12.5
v -5 8 8.5
v -4 8 8.5
v 4 8 8.5
v 5 8 8.5
v -5 8 7.5
v -4 8 7.5
v 4 8 7.5
v 5 8 7.5
v -5 8 3.5
v -4 8 3.5
v 4 8 3.5
v 5 8 3.5
v -5 8 2.5
v -4 8 2.5
v 4 8 2.5
v 5 8 2.5
v -5 8 -2.5
v -4 8 -2.5
v 4 8 -2.5
v 5 8 -2.5
v -5 8 -3.5
v -4 8 -3.5
v 4 8 -3.5
v 5 8 -3.5
v -5 8 -8.5
v -4 8 -8.5
v 4 8 -8.5
v 5 8 -8.5
v -5 8 -9.5
v -4 8 -9.5
v 4 8 -9.5
v 5 8 -9.5
v -5 8 -12.5
v -4 8 -12.5
v 4 8 -12.5
v 5 8 -12.5
v -4 8 -13.5
v 4 8 -13.5
v -5 1 12.5
v -4 1 12.5
v 4 1 12.5
v 5 1 12.5
v -5 1 8.5
v -4 1 8.5
v 4 1 8.5
v 5 1 8.5
v -4 4 13.5
v 4 4 13.5
v -4 4 12.5
v 4 4 12.5
v -5 4 7.5
v -4 4 7.5
v 4 4 7.5
v 5 4 7.5
v -5 4 3.5
v -4 4 3.5
v 4 4 3.5
v 5 4 3.5
v -5 4 2.5
v -4 4 2.5
v 4 4 2.5
v 5 4 2.5
v -5 4 -2.5
v -4 4 -2.5
v 4 4 -2.5
v 5 4 -2.5
v -5 4 -3.5
v -4 4 -3.5
v 4 4 -3.5
v 5 4 -3.5
v -5 4 -8.5
v -4 4 -8.5
v 4 4 -8.5
v 5 4 -8.5
v -5 4 -9.5
v -4 4 -9.5
v 4 4 -9.5
v 5 4 -9.5
v -5 4 -12.5
v -4 4 -12.5
v 4 4 -12.5
v 5 4 -12.5
v -4 4 -13.5
v 4 4 -13.5
v -5 11 13.5
v 5 11 13.5
v -4 11 12.5
v 4 11 12.5
v -4 11 -12.5
v 4 11 -12.5
v -5 11 -13.5
v 5 11 -13.5

# faces
f 9/1/1 2/1/1 1/1/1
f 9/3/1 3/3/1 2/3/1
f 10/1/1 4/1/1 3/1/1
f 10/3/1 3/3/1 9/3/1
f 11/1/1 4/1/1 10/1/1
f 14/1/1 6/1/1 5/1/1
f 15/1/1 6/1/1 14/1/1
f 18/1/1 8/1/1 7/1/1
f 19/1/1 12/1/1 11/1/1
f 20/1/1 16/1/1 15/1/1
f 20/1/1 14/1/1 13/1/1
f 20/1/1 15/1/1 14/1/1
f 21/1/1 16/1/1 20/1/1
f 22/1/1 18/1/1 17/1/1
f 23/1/1 19/1/1 11/1/1
f 23/1/1 22/1/1 21/1/1
f 23/1/1 21/1/1 20/1/1
f 23/1/1 11/1/1 10/1/1
f 23/1/1 20/1/1 19/1/1
f 24/1/1 22/1/1 23/1/1
f 25/1/1 22/1/1 24/1/1
f 26/1/1 22/1/1 25/1/1
f 27/1/1 22/1/1 26/1/1
f 28/1/1 22/1/1 27/1/1
f 29/1/1 18/1/1 22/1/1
f 29/1/1 22/1/1 28/1/1
f 30/1/1 8/1/1 18/1/1
f 30/1/1 18/1/1 29/1/1
f 31/1/1 9/1/1 1/1/1
f 32/1/1 23/1/1 10/1/1
f 33/1/1 23/1/1 32/1/1
f 34/1/1 25/1/1 24/1/1
f 35/1/1 25/1/1 34/1/1
f 36/1/1 27/1/1 26/1/1
f 37/1/1 27/1/1 36/1/1
f 38/1/1 29/1/1 28/1/1
f 39/1/1 29/1/1 38/1/1
f 40/1/1 8/1/1 30/1/1
f 41/1/1 39/1/1 38/1/1
f 41/1/1 40/1/1 39/1/1
f 41/1/1 35/1/1 34/1/1
f 41/1/1 37/1/1 36/1/1
f 41/1/1 38/1/1 37/1/1
f 41/1/1 31/1/1 1/1/1
f 41/1/1 36/1/1 35/1/1
f 41/1/1 33/1/1 32/1/1
f 41/1/1 34/1/1 33/1/1
f 41/1/1 32/1/1 31/1/1
f 42/1/1 8/1/1 40/1/1
f 42/1/1 40/1/1 41/1/1
f 43/1/1 41/1/1 1/1/1
f 43/4/1 42/4/1 41/4/1
f 44/1/1 8/1/1 42/1/1
f 44/4/1 42/4/1 43/4/1
f 45/1/1 43/1/1 1/1/1
f 45/1/1 44/1/1 43/1/1
f 46/1/1 8/1/1 44/1/1
f 46/1/1 44/1/1 45/1/1
f 53/1/1 48/1/1 47/1/1
f 54/1/1 48/1/1 53/1/1
f 55/1/1 48/1/1 54/1/1
f 56/1/1 48/1/1 55/1/1
f 57/1/1 50/1/1 49/1/1
f 58/1/1 50/1/1 57/1/1
f 59/1/1 50/1/1 58/1/1
f 60/1/1 50/1/1 59/1/1
f 61/1/1 55/1/1 54/1/1
f 62/1/1 55/1/1 61/1/1
f 63/1/1 59/1/1 58/1/1
f 64/1/1 59/1/1 63/1/1
f 73/3/1 52/3/1 51/3/1
f 74/3/1 52/3/1 73/3/1
f 75/3/1 66/3/1 65/3/1
f 76/3/1 66/3/1 75/3/1
f 77/3/1 68/3/1 67/3/1
f 78/3/1 68/3/1 77/3/1
f 79/3/1 70/3/1 69/3/1
f 80/3/1 70/3/1 79/3/1
f 81/3/1 72/3/1 71/3/1
f 82/3/1 72/3/1 81/3/1
f 87/1/1 84/1/1 83/1/1
f 88/1/1 84/1/1 87/1/1
f 89/1/1 86/1/1 85/1/1
f 90/1/1 86/1/1 89/1/1
f 91/1/2 92/1/2 95/1/2
f 95/1/2 92/1/2 96/1/2
f 93/1/2 94/1/2 97/1/2
f 97/1/2 94/1/2 98/1/2
f 99/1/2 100/1/2 105/1/2
f 105/1/2 100/1/2 106/1/2
f 106/1/2 100/1/2 107/1/2
f 107/1/2 100/1/2 108/1/2
f 101/1/2 102/1/2 109/1/2
f 109/1/2 102/1/2 110/1/2
f 110/1/2 102/1/2 111/1/2
f 111/1/2 102/1/2 112/1/2
f 106/1/2 107/1/2 113/1/2
f 113/1/2 107/1/2 114/1/2
f 110/1/2 111/1/2 115/1/2
f 115/1/2 111/1/2 116/1/2
f 103/3/2 104/3/2 125/3/2
f 125/3/2 104/3/2 126/3/2
f 117/3/2 118/3/2 127/3/2
f 127/3/2 118/3/2 128/3/2
f 119/3/2 120/3/2 129/3/2
f 129/3/2 120/3/2 130/3/2
f 121/3/2 122/3/2 131/3/2
f 131/3/2 122/3/2 132/3/2
f 123/3/2 124/3/2 133/3/2
f 133/3/2 124/3/2 134/3/2
f 135/1/2 136/1/2 143/1/2
f 136/3/2 137/3/2 143/3/2
f 137/1/2 138/1/2 144/1/2
f 143/3/2 137/3/2 144/3/2
f 144/1/2 138/1/2 145/1/2
f 139/1/2 140/1/2 148/1/2
f 148/1/2 140/1/2 149/1/2
f 141/1/2 142/1/2 152/1/2
f 145/1/2 146/1/2 153/1/2
f 149/1/2 150/1/2 154/1/2
f 147/1/2 148/1/2 154/1/2
f 148/1/2 149/1/2 154/1/2
f 154/1/2 150/1/2 155/1/2
f 151/1/2 152/1/2 156/1/2
f 145/1/2 153/1/2 157/1/2
f 155/1/2 156/1/2 157/1/2
f 154/1/2 155/1/2 157/1/2
f 144/1/2 145/1/2 157/1/2
f 153/1/2 154/1/2 157/1/2
f 157/1/2 156/1/2 158/1/2
f 158/1/2 156/1/2 159/1/2
f 159/1/2 156/1/2 160/1/2
f 160/1/2 156/1/2 161/1/2
f 161/1/2 156/1/2 162/1/2
f 156/1/2 152/1/2 163/1/2
f 162/1/2 156/1/2 163/1/2
f 152/1/2 142/1/2 164/1/2
f 163/1/2 152/1/2 164/1/2
f 135/1/2 143/1/2 165/1/2
f 144/1/2 157/1/2 166/1/2
f 166/1/2 157/1/2 167/1/2
f 158/1/2 159/1/2 168/1/2
f 168/1/2 159/1/2 169/1/2
f 160/1/2 161/1/2 170/1/2
f 170/1/2 161/1/2 171/1/2
f 162/1/2 163/1/2 172/1/2
f 172/1/2 163/1/2 173/1/2
f 164/1/2 142/1/2 174/1/2
f 172/1/2 173/1/2 175/1/2
f 173/1/2 174/1/2 175/1/2
f 168/1/2 169/1/2 175/1/2
f 170/1/2 171/1/2 175/1/2
f 171/1/2 172/1/2 175/1/2
f 135/1/2 165/1/2 175/1/2
f 169/1/2 170/1/2 175/1/2
f 166/1/2 167/1/2 175/1/2
f 167/1/2 168/1/2 175/1/2
f 165/1/2 166/1/2 175/1/2
f 174/1/2 142/1/2 176/1/2
f 175/1/2 174/1/2 176/1/2
f 135/1/2 175/1/2 177/1/2
f 175/4/2 176/4/2 177/4/2
f 176/1/2 142/1/2 178/1/2
f 177/4/2 176/4/2 178/4/2
f 135/1/2 177/1/2 179/1/2
f 177/1/2 178/1/2 179/1/2
f 178/1/2 142/1/2 180/1/2
f 179/1/2 178/1/2 180/1/2
f 183/1/3 182/1/3 181/1/3
f 184/1/3 182/1/3 183/1/3
f 185/1/3 182/1/3 184/1/3
f 186/1/3 182/1/3 185/1/3
f 187/1/3 182/1/3 186/1/3
f 188/1/3 182/1/3 187/1/3
f 189/1/3 183/1/3 181/1/3
f 189/5/3 184/5/3 183/5/3
f 190/1/3 185/1/3 184/1/3
f 190/5/3 184/5/3 189/5/3
f 191/1/3 185/1/3 190/1/3
f 192/1/3 187/1/3 186/1/3
f 193/4/3 188/4/3 187/4/3
f 193/1/3 187/1/3 192/1/3
f 194/1/3 182/1/3 188/1/3
f 194/4/3 188/4/3 193/4/3
f 195/1/3 193/1/3 192/1/3
f 195/1/3 192/1/3 191/1/3
f 195/1/3 194/1/3 193/1/3
f 195/1/3 189/1/3 181/1/3
f 195/1/3 190/1/3 189/1/3
f 195/1/3 191/1/3 190/1/3
f 196/1/3 182/1/3 194/1/3
f 196/1/3 194/1/3 195/1/3
f 199/3/3 198/3/3 197/3/3
f 200/3/3 198/3/3 199/3/3
f 203/1/3 202/1/3 201/1/3
f 204/1/3 202/1/3 203/1/3
f 207/1/3 206/1/3 205/1/3
f 208/1/3 206/1/3 207/1/3
f 213/1/3 210/1/3 209/1/3
f 214/1/3 210/1/3 213/1/3
f 215/1/3 212/1/3 211/1/3
f 216/1/3 212/1/3 215/1/3
f 221/1/3 218/1/3 217/1/3
f 222/1/3 218/1/3 221/1/3
f 223/1/3 220/1/3 219/1/3
f 224/1/3 220/1/3 223/1/3
f 227/1/3 226/1/3 225/1/3
f 228/1/3 226/1/3 227/1/3
f 231/1/3 230/1/3 229/1/3
f 232/1/3 230/1/3 231/1/3
f 235/1/3 234/1/3 233/1/3
f 236/1/3 234/1/3 235/1/3
f 239/1/3 238/1/3 237/1/3
f 240/1/3 238/1/3 239/1/3
f 243/1/3 242/1/3 241/1/3
f 244/1/3 242/1/3 243/1/3
f 247/1/3 246/1/3 245/1/3
f 248/1/3 246/1/3 247/1/3
f 251/1/3 250/1/3 249/1/3
f 252/1/3 250/1/3 251/1/3
f 255/1/3 254/1/3 253/1/3
f 256/1/3 254/1/3 255/1/3
f 259/1/3 258/1/3 257/1/3
f 260/1/3 258/1/3 259/1/3
f 263/1/3 262/1/3 261/1/3
f 264/1/3 262/1/3 263/1/3
f 267/1/3 266/1/3 265/1/3
f 268/1/3 266/1/3 267/1/3
f 271/1/3 270/1/3 269/1/3
f 272/1/3 270/1/3 271/1/3
f 273/1/4 274/1/4 275/1/4
f 275/1/4 274/1/4 276/1/4
f 277/1/4 278/1/4 279/1/4
f 279/1/4 278/1/4 280/1/4
f 281/1/4 282/1/4 285/1/4
f 285/1/4 282/1/4 286/1/4
f 283/1/4 284/1/4 287/1/4
f 287/1/4 284/1/4 288/1/4
f 289/1/4 290/1/4 293/1/4
f 293/1/4 290/1/4 294/1/4
f 291/1/4 292/1/4 295/1/4
f 295/1/4 292/1/4 296/1/4
f 297/1/4 298/1/4 299/1/4
f 299/1/4 298/1/4 300/1/4
f 301/1/4 302/1/4 303/1/4
f 303/1/4 302/1/4 304/1/4
f 305/1/4 306/1/4 307/1/4
f 307/1/4 306/1/4 308/1/4
f 309/1/4 310/1/4 311/1/4
f 311/1/4 310/1/4 312/1/4
f 313/1/4 314/1/4 315/1/4
f 315/1/4 314/1/4 316/1/4
f 317/1/4 318/1/4 319/1/4
f 319/1/4 318/1/4 320/1/4
f 321/1/4 322/1/4 323/1/4
f 323/1/4 322/1/4 324/1/4
f 325/1/4 326/1/4 327/1/4
f 327/1/4 326/1/4 328/1/4
f 329/1/4 330/1/4 331/1/4
f 331/1/4 330/1/4 332/1/4
f 333/1/4 334/1/4 335/1/4
f 335/1/4 334/1/4 336/1/4
f 337/1/4 338/1/4 339/1/4
f 339/1/4 338/1/4 340/1/4
f 341/1/4 342/1/4 343/1/4
f 343/1/4 342/1/4 344/1/4
f 345/3/4 346/3/4 347/3/4
f 347/3/4 346/3/4 348/3/4
f 349/1/4 350/1/4 351/1/4
f 351/1/4 350/1/4 352/1/4
f 352/1/4 350/1/4 353/1/4
f 353/1/4 350/1/4 354/1/4
f 354/1/4 350/1/4 355/1/4
f 355/1/4 350/1/4 356/1/4
f 356/1/4 350/1/4 357/1/4
f 349/1/4 351/1/4 358/1/4
f 351/2/4 352/2/4 358/2/4
f 352/6/4 353/6/4 359/6/4
f 358/2/4 352/2/4 359/2/4
f 353/1/4 354/1/4 360/1/4
f 359/6/4 353/6/4 360/6/4
f 349/1/4 358/1/4 361/1/4
f 358/6/4 359/6/4 361/6/4
f 359/2/4 360/2/4 362/2/4
f 361/6/4 359/6/4 362/6/4
f 360/1/4 354/1/4 363/1/4
f 362/2/4 360/2/4 363/2/4
f 361/2/4 362/2/4 364/2/4
f 349/1/4 361/1/4 364/1/4
f 362/6/4 363/6/4 365/6/4
f 364/2/4 362/2/4 365/2/4
f 363/1/4 354/1/4 366/1/4
f 365/6/4 363/6/4 366/6/4
f 364/6/4 365/6/4 367/6/4
f 349/1/4 364/1/4 367/1/4
f 365/2/4 366/2/4 368/2/4
f 367/6/4 365/6/4 368/6/4
f 366/1/4 354/1/4 369/1/4
f 368/2/4 366/2/4 369/2/4
f 367/2/4 368/2/4 370/2/4
f 349/1/4 367/1/4 370/1/4
f 368/6/4 369/6/4 371/6/4
f 370/2/4 368/2/4 371/2/4
f 369/1/4 354/1/4 372/1/4
f 371/6/4 369/6/4 372/6/4
f 370/6/4 371/6/4 373/6/4
f 349/1/4 370/1/4 373/1/4
f 371/2/4 372/2/4 374/2/4
f 373/6/4 371/6/4 374/6/4
f 372/1/4 354/1/4 375/1/4
f 374/2/4 372/2/4 375/2/4
f 373/2/4 374/2/4 376/2/4
f 349/1/4 373/1/4 376/1/4
f 374/6/4 375/6/4 377/6/4
f 376/2/4 374/2/4 377/2/4
f 375/1/4 354/1/4 378/1/4
f 377/6/4 375/6/4 378/6/4
f 376/6/4 377/6/4 379/6/4
f 349/1/4 376/1/4 379/1/4
f 377/2/4 378/2/4 380/2/4
f 379/6/4 377/6/4 380/6/4
f 378/1/4 354/1/4 381/1/4
f 380/2/4 378/2/4 381/2/4
f 381/1/4 354/1/4 382/1/4
f 355/1/4 356/1/4 383/1/4
f 356/5/4 357/5/4 384/5/4
f 383/1/4 356/1/4 384/1/4
f 357/1/4 350/1/4 385/1/4
f 384/5/4 357/5/4 385/5/4
f 383/1/4 384/1/4 386/1/4
f 382/1/4 383/1/4 386/1/4
f 384/1/4 385/1/4 386/1/4
f 379/1/4 380/1/4 386/1/4
f 380/1/4 381/1/4 386/1/4
f 381/1/4 382/1/4 386/1/4
f 349/1/4 379/1/4 386/1/4
f 385/1/4 350/1/4 387/1/4
f 386/1/4 385/1/4 387/1/4
f 390/1/5 389/1/5 388/1/5
f 391/1/5 389/1/5 390/1/5
f 392/1/5 389/1/5 391/1/5
f 393/1/5 389/1/5 392/1/5
f 394/3/5 391/3/5 390/3/5
f 395/1/5 392/1/5 391/1/5
f 395/3/5 391/3/5 394/3/5
f 396/3/5 393/3/5 392/3/5
f 396/1/5 392/1/5 395/1/5
f 397/3/5 393/3/5 396/3/5
f 398/1/5 395/1/5 394/1/5
f 398/1/5 396/1/5 395/1/5
f 398/1/5 397/1/5 396/1/5
f 399/1/5 397/1/5 398/1/5
f 400/1/5 397/1/5 399/1/5
f 401/1/5 397/1/5 400/1/5
f 403/1/5 400/1/5 399/1/5
f 404/1/5 400/1/5 403/1/5
f 406/1/5 403/1/5 402/1/5
f 406/1/5 405/1/5 404/1/5
f 406/1/5 404/1/5 403/1/5
f 407/1/5 405/1/5 406/1/5
f 408/1/5 405/1/5 407/1/5
f 409/1/5 405/1/5 408/1/5
f 411/1/5 408/1/5 407/1/5
f 412/1/5 408/1/5 411/1/5
f 414/1/5 411/1/5 410/1/5
f 414/1/5 413/1/5 412/1/5
f 414/1/5 412/1/5 411/1/5
f 415/1/5 413/1/5 414/1/5
f 420/1/5 417/1/5 416/1/5
f 421/1/5 417/1/5 420/1/5
f 422/1/5 419/1/5 418/1/5
f 423/1/5 419/1/5 422/1/5
f 428/1/5 425/1/5 424/1/5
f 429/1/5 425/1/5 428/1/5
f 430/1/5 427/1/5 426/1/5
f 431/1/5 427/1/5 430/1/5
f 436/1/5 433/1/5 432/1/5
f 437/1/5 433/1/5 436/1/5
f 438/1/5 435/1/5 434/1/5
f 439/1/5 435/1/5 438/1/5
f 444/1/5 441/1/5 440/1/5
f 445/1/5 441/1/5 444/1/5
f 446/1/5 443/1/5 442/1/5
f 447/1/5 443/1/5 446/1/5
f 452/1/5 449/1/5 448/1/5
f 453/1/5 449/1/5 452/1/5
f 454/1/5 451/1/5 450/1/5
f 455/1/5 451/1/5 454/1/5
f 460/1/5 457/1/5 456/1/5
f 461/1/5 457/1/5 460/1/5
f 462/1/5 459/1/5 458/1/5
f 463/1/5 459/1/5 462/1/5
f 467/1/5 465/1/5 464/1/5
f 468/1/5 465/1/5 467/1/5
f 470/1/5 467/1/5 466/1/5
f 471/1/5 467/1/5 470/1/5
f 472/1/5 469/1/5 468/1/5
f 473/1/5 469/1/5 472/1/5
f 478/1/5 475/1/5 474/1/5
f 479/1/5 475/1/5 478/1/5
f 480/1/5 477/1/5 476/1/5
f 481/1/5 477/1/5 480/1/5
f 486/1/5 483/1/5 482/1/5
f 487/1/5 483/1/5 486/1/5
f 488/1/5 485/1/5 484/1/5
f 489/1/5 485/1/5 488/1/5
f 494/1/5 491/1/5 490/1/5
f 495/1/5 491/1/5 494/1/5
f 496/1/5 493/1/5 492/1/5
f 497/1/5 493/1/5 496/1/5
f 502/1/5 499/1/5 498/1/5
f 503/1/5 499/1/5 502/1/5
f 504/1/5 501/1/5 500/1/5
f 505/1/5 501/1/5 504/1/5
f 506/1/5 504/1/5 503/1/5
f 507/1/5 504/1/5 506/1/5
f 508/3/6 509/3/6 512/3/6
f 512/3/6 509/3/6 513/3/6
f 510/3/6 511/3/6 514/3/6
f 514/3/6 511/3/6 515/3/6
f 516/1/6 517/1/6 518/1/6
f 518/1/6 517/1/6 519/1/6
f 520/1/6 521/1/6 524/1/6
f 524/1/6 521/1/6 525/1/6
f 522/1/6 523/1/6 526/1/6
f 526/1/6 523/1/6 527/1/6
f 528/1/6 529/1/6 532/1/6
f 532/1/6 529/1/6 533/1/6
f 530/1/6 531/1/6 534/1/6
f 534/1/6 531/1/6 535/1/6
f 536/1/6 537/1/6 540/1/6
f 540/1/6 537/1/6 541/1/6
f 538/1/6 539/1/6 542/1/6
f 542/1/6 539/1/6 543/1/6
f 544/1/6 545/1/6 548/1/6
f 548/1/6 545/1/6 549/1/6
f 546/1/6 547/1/6 550/1/6
f 550/1/6 547/1/6 551/1/6
f 549/1/6 550/1/6 552/1/6
f 552/1/6 550/1/6 553/1/6
f 554/1/6 555/1/6 556/1/6
f 556/1/6 555/1/6 557/1/6
f 554/1/6 556/1/6 558/1/6
f 556/2/6 557/2/6 558/2/6
f 557/1/6 555/1/6 559/1/6
f 558/2/6 557/2/6 559/2/6
f 554/1/6 558/1/6 560/1/6
f 558/1/6 559/1/6 560/1/6
f 559/1/6 555/1/6 561/1/6
f 560/1/6 559/1/6 561/1/6
