# MagicaVoxel @ Ephtracy

# material
mtllib Car04.mtl
usemtl palette

# normals
vn -1 0 0
vn 1 0 0
vn 0 0 1
vn 0 0 -1
vn 0 -1 0
vn 0 1 0

# texcoords
vt 0.814453 0.5
vt 0.908203 0.5
vt 0.939453 0.5
vt 0.970703 0.5
vt 0.978516 0.5
vt 0.986328 0.5
vt 0.990234 0.5

# verts
v -7 5 8.5
v -7 5 7.5
v -7 7 8.5
v -7 7 7.5
v -5 0 14.5
v -5 0 10.5
v -5 0 5.5
v -5 0 -6.5
v -5 0 -11.5
v -5 0 -14.5
v -5 1 -13.5
v -5 1 -14.5
v -5 2 14.5
v -5 2 13.5
v -5 2 10.5
v -5 2 9.5
v -5 2 6.5
v -5 2 5.5
v -5 2 -6.5
v -5 2 -7.5
v -5 2 -10.5
v -5 2 -11.5
v -5 2 -13.5
v -5 2 -14.5
v -5 3 9.5
v -5 3 6.5
v -5 3 2.5
v -5 3 -0.5
v -5 3 -4.5
v -5 3 -7.5
v -5 3 -10.5
v -5 3 -13.5
v -5 3 -14.5
v -5 4 14.5
v -5 4 13.5
v -5 4 2.5
v -5 4 -0.5
v -5 4 -4.5
v -5 4 -7.5
v -5 4 -13.5
v -5 4 -14.5
v -5 5 14.5
v -5 5 11.5
v -5 5 9.5
v -5 5 8.5
v -5 5 7.5
v -5 5 5.5
v -5 5 4.5
v -5 5 -0.5
v -5 5 -1.5
v -5 5 -7.5
v -5 5 -8.5
v -5 5 -12.5
v -5 6 11.5
v -5 6 10.5
v -5 6 9.5
v -5 6 8.5
v -5 6 -11.5
v -5 6 -12.5
v -5 6 -13.5
v -5 6 -14.5
v -5 7 10.5
v -5 7 9.5
v -5 7 8.5
v -5 7 7.5
v -5 7 -10.5
v -5 7 -11.5
v -5 7 -12.5
v -5 7 -13.5
v -5 8 9.5
v -5 8 8.5
v -5 8 7.5
v -5 8 6.5
v -5 8 -9.5
v -5 8 -10.5
v -5 8 -11.5
v -5 8 -12.5
v -5 9 8.5
v -5 9 7.5
v -5 9 6.5
v -5 9 5.5
v -5 9 -8.5
v -5 9 -9.5
v -5 9 -10.5
v -5 9 -11.5
v -5 10 7.5
v -5 10 6.5
v -5 10 4.5
v -5 10 -0.5
v -5 10 -1.5
v -5 10 -7.5
v -5 10 -9.5
v -5 10 -10.5
v -5 11 6.5
v -5 11 -9.5
v -4 0 10.5
v -4 0 5.5
v -4 0 -6.5
v -4 0 -11.5
v -4 2 10.5
v -4 2 9.5
v -4 2 6.5
v -4 2 5.5
v -4 2 -6.5
v -4 2 -7.5
v -4 2 -10.5
v -4 2 -11.5
v -4 3 9.5
v -4 3 6.5
v -4 3 -7.5
v -4 3 -10.5
v 4 0 10.5
v 4 0 5.5
v 4 0 -6.5
v 4 0 -11.5
v 4 2 10.5
v 4 2 9.5
v 4 2 6.5
v 4 2 5.5
v 4 2 -6.5
v 4 2 -7.5
v 4 2 -10.5
v 4 2 -11.5
v 4 3 9.5
v 4 3 6.5
v 4 3 -7.5
v 4 3 -10.5
v 5 0 14.5
v 5 0 10.5
v 5 0 5.5
v 5 0 -6.5
v 5 0 -11.5
v 5 0 -14.5
v 5 1 -13.5
v 5 1 -14.5
v 5 2 14.5
v 5 2 13.5
v 5 2 10.5
v 5 2 9.5
v 5 2 6.5
v 5 2 5.5
v 5 2 -6.5
v 5 2 -7.5
v 5 2 -10.5
v 5 2 -11.5
v 5 2 -13.5
v 5 2 -14.5
v 5 3 9.5
v 5 3 6.5
v 5 3 2.5
v 5 3 -0.5
v 5 3 -4.5
v 5 3 -7.5
v 5 3 -10.5
v 5 3 -13.5
v 5 3 -14.5
v 5 4 14.5
v 5 4 13.5
v 5 4 2.5
v 5 4 -0.5
v 5 4 -4.5
v 5 4 -7.5
v 5 4 -13.5
v 5 4 -14.5
v 5 5 14.5
v 5 5 11.5
v 5 5 9.5
v 5 5 8.5
v 5 5 7.5
v 5 5 5.5
v 5 5 4.5
v 5 5 -0.5
v 5 5 -1.5
v 5 5 -7.5
v 5 5 -8.5
v 5 5 -12.5
v 5 6 11.5
v 5 6 10.5
v 5 6 9.5
v 5 6 8.5
v 5 6 -11.5
v 5 6 -12.5
v 5 6 -13.5
v 5 6 -14.5
v 5 7 10.5
v 5 7 9.5
v 5 7 8.5
v 5 7 7.5
v 5 7 -10.5
v 5 7 -11.5
v 5 7 -12.5
v 5 7 -13.5
v 5 8 9.5
v 5 8 8.5
v 5 8 7.5
v 5 8 6.5
v 5 8 -9.5
v 5 8 -10.5
v 5 8 -11.5
v 5 8 -12.5
v 5 9 8.5
v 5 9 7.5
v 5 9 6.5
v 5 9 5.5
v 5 9 -8.5
v 5 9 -9.5
v 5 9 -10.5
v 5 9 -11.5
v 5 10 7.5
v 5 10 6.5
v 5 10 4.5
v 5 10 -0.5
v 5 10 -1.5
v 5 10 -7.5
v 5 10 -9.5
v 5 10 -10.5
v 5 11 6.5
v 5 11 -9.5
v 7 5 8.5
v 7 5 7.5
v 7 7 8.5
v 7 7 7.5
v -5 0 14.5
v -5 2 14.5
v -5 4 14.5
v -5 5 14.5
v -4 1 14.5
v -4 2 14.5
v -4 4 14.5
v 4 1 14.5
v 4 2 14.5
v 4 4 14.5
v 5 0 14.5
v 5 2 14.5
v 5 4 14.5
v 5 5 14.5
v -5 5 11.5
v -5 6 11.5
v -4 5 11.5
v -4 6 11.5
v 4 5 11.5
v 4 6 11.5
v 5 5 11.5
v 5 6 11.5
v -5 6 10.5
v -5 7 10.5
v -4 6 10.5
v -4 7 10.5
v 4 6 10.5
v 4 7 10.5
v 5 6 10.5
v 5 7 10.5
v -5 7 9.5
v -5 8 9.5
v -4 7 9.5
v -4 8 9.5
v 4 7 9.5
v 4 8 9.5
v 5 7 9.5
v 5 8 9.5
v -7 5 8.5
v -7 7 8.5
v -5 5 8.5
v -5 6 8.5
v -5 7 8.5
v -5 8 8.5
v -5 9 8.5
v -4 8 8.5
v -4 9 8.5
v 4 8 8.5
v 4 9 8.5
v 5 5 8.5
v 5 6 8.5
v 5 7 8.5
v 5 8 8.5
v 5 9 8.5
v 7 5 8.5
v 7 7 8.5
v -5 9 7.5
v -5 10 7.5
v -4 9 7.5
v -4 10 7.5
v 4 9 7.5
v 4 10 7.5
v 5 9 7.5
v 5 10 7.5
v -5 2 6.5
v -5 3 6.5
v -5 10 6.5
v -5 11 6.5
v -4 2 6.5
v -4 3 6.5
v -4 10 6.5
v 4 2 6.5
v 4 3 6.5
v 4 10 6.5
v 5 2 6.5
v 5 3 6.5
v 5 10 6.5
v 5 11 6.5
v -5 0 5.5
v -5 2 5.5
v -4 0 5.5
v -4 2 5.5
v 4 0 5.5
v 4 2 5.5
v 5 0 5.5
v 5 2 5.5
v -5 2 -10.5
v -5 3 -10.5
v -4 2 -10.5
v -4 3 -10.5
v 4 2 -10.5
v 4 3 -10.5
v 5 2 -10.5
v 5 3 -10.5
v -5 0 -11.5
v -5 2 -11.5
v -4 0 -11.5
v -4 2 -11.5
v 4 0 -11.5
v 4 2 -11.5
v 5 0 -11.5
v 5 2 -11.5
v -5 0 10.5
v -5 2 10.5
v -4 0 10.5
v -4 2 10.5
v 4 0 10.5
v 4 2 10.5
v 5 0 10.5
v 5 2 10.5
v -5 2 9.5
v -5 3 9.5
v -4 2 9.5
v -4 3 9.5
v 4 2 9.5
v 4 3 9.5
v 5 2 9.5
v 5 3 9.5
v -7 5 7.5
v -7 7 7.5
v -5 5 7.5
v -5 7 7.5
v 5 5 7.5
v 5 7 7.5
v 7 5 7.5
v 7 7 7.5
v -5 0 -6.5
v -5 2 -6.5
v -4 0 -6.5
v -4 2 -6.5
v 4 0 -6.5
v 4 2 -6.5
v 5 0 -6.5
v 5 2 -6.5
v -5 2 -7.5
v -5 3 -7.5
v -4 2 -7.5
v -4 3 -7.5
v 4 2 -7.5
v 4 3 -7.5
v 5 2 -7.5
v 5 3 -7.5
v -5 10 -9.5
v -5 11 -9.5
v -4 10 -9.5
v 4 10 -9.5
v 5 10 -9.5
v 5 11 -9.5
v -5 9 -10.5
v -5 10 -10.5
v -4 9 -10.5
v -4 10 -10.5
v 4 9 -10.5
v 4 10 -10.5
v 5 9 -10.5
v 5 10 -10.5
v -5 8 -11.5
v -5 9 -11.5
v -4 8 -11.5
v -4 9 -11.5
v 4 8 -11.5
v 4 9 -11.5
v 5 8 -11.5
v 5 9 -11.5
v -5 7 -12.5
v -5 8 -12.5
v -4 7 -12.5
v -4 8 -12.5
v 4 7 -12.5
v 4 8 -12.5
v 5 7 -12.5
v 5 8 -12.5
v -5 6 -13.5
v -5 7 -13.5
v -4 6 -13.5
v -4 7 -13.5
v 4 6 -13.5
v 4 7 -13.5
v 5 6 -13.5
v 5 7 -13.5
v -5 0 -14.5
v -5 1 -14.5
v -5 2 -14.5
v -5 3 -14.5
v -5 4 -14.5
v -5 6 -14.5
v -4 1 -14.5
v -4 2 -14.5
v -4 3 -14.5
v -4 4 -14.5
v -4 5 -14.5
v -4 6 -14.5
v -2 2 -14.5
v -2 3 -14.5
v 2 2 -14.5
v 2 3 -14.5
v 4 1 -14.5
v 4 2 -14.5
v 4 3 -14.5
v 4 4 -14.5
v 4 5 -14.5
v 4 6 -14.5
v 5 0 -14.5
v 5 1 -14.5
v 5 2 -14.5
v 5 3 -14.5
v 5 4 -14.5
v 5 6 -14.5
v -5 0 14.5
v 5 0 14.5
v -5 0 10.5
v -4 0 10.5
v 4 0 10.5
v 5 0 10.5
v -5 0 5.5
v -4 0 5.5
v 4 0 5.5
v 5 0 5.5
v -5 0 -6.5
v -4 0 -6.5
v 4 0 -6.5
v 5 0 -6.5
v -5 0 -11.5
v -4 0 -11.5
v 4 0 -11.5
v 5 0 -11.5
v -5 0 -14.5
v 5 0 -14.5
v -5 2 10.5
v -4 2 10.5
v 4 2 10.5
v 5 2 10.5
v -5 2 9.5
v -4 2 9.5
v 4 2 9.5
v 5 2 9.5
v -5 2 6.5
v -4 2 6.5
v 4 2 6.5
v 5 2 6.5
v -5 2 5.5
v -4 2 5.5
v 4 2 5.5
v 5 2 5.5
v -5 2 -6.5
v -4 2 -6.5
v 4 2 -6.5
v 5 2 -6.5
v -5 2 -7.5
v -4 2 -7.5
v 4 2 -7.5
v 5 2 -7.5
v -5 2 -10.5
v -4 2 -10.5
v 4 2 -10.5
v 5 2 -10.5
v -5 2 -11.5
v -4 2 -11.5
v 4 2 -11.5
v 5 2 -11.5
v -5 3 9.5
v -4 3 9.5
v 4 3 9.5
v 5 3 9.5
v -5 3 6.5
v -4 3 6.5
v 4 3 6.5
v 5 3 6.5
v -5 3 -7.5
v -4 3 -7.5
v 4 3 -7.5
v 5 3 -7.5
v -5 3 -10.5
v -4 3 -10.5
v 4 3 -10.5
v 5 3 -10.5
v -7 5 8.5
v -5 5 8.5
v 5 5 8.5
v 7 5 8.5
v -7 5 7.5
v -5 5 7.5
v 5 5 7.5
v 7 5 7.5
v -5 5 14.5
v 5 5 14.5
v -5 5 11.5
v -4 5 11.5
v 4 5 11.5
v 5 5 11.5
v -5 6 11.5
v -4 6 11.5
v 4 6 11.5
v 5 6 11.5
v -5 6 10.5
v -4 6 10.5
v 4 6 10.5
v 5 6 10.5
v -5 6 -13.5
v -4 6 -13.5
v 4 6 -13.5
v 5 6 -13.5
v -5 6 -14.5
v -4 6 -14.5
v 4 6 -14.5
v 5 6 -14.5
v -5 7 10.5
v -4 7 10.5
v 4 7 10.5
v 5 7 10.5
v -5 7 9.5
v -4 7 9.5
v 4 7 9.5
v 5 7 9.5
v -7 7 8.5
v -5 7 8.5
v 5 7 8.5
v 7 7 8.5
v -7 7 7.5
v -5 7 7.5
v 5 7 7.5
v 7 7 7.5
v -5 7 -12.5
v -4 7 -12.5
v 4 7 -12.5
v 5 7 -12.5
v -5 7 -13.5
v -4 7 -13.5
v 4 7 -13.5
v 5 7 -13.5
v -5 8 9.5
v -4 8 9.5
v 4 8 9.5
v 5 8 9.5
v -5 8 8.5
v -4 8 8.5
v 4 8 8.5
v 5 8 8.5
v -5 8 -11.5
v -4 8 -11.5
v 4 8 -11.5
v 5 8 -11.5
v -5 8 -12.5
v -4 8 -12.5
v 4 8 -12.5
v 5 8 -12.5
v -5 9 8.5
v -4 9 8.5
v 4 9 8.5
v 5 9 8.5
v -5 9 7.5
v -4 9 7.5
v 4 9 7.5
v 5 9 7.5
v -5 9 -10.5
v -4 9 -10.5
v 4 9 -10.5
v 5 9 -10.5
v -5 9 -11.5
v -4 9 -11.5
v 4 9 -11.5
v 5 9 -11.5
v -5 10 7.5
v -4 10 7.5
v 4 10 7.5
v 5 10 7.5
v -5 10 6.5
v -4 10 6.5
v 4 10 6.5
v 5 10 6.5
v -5 10 -9.5
v -4 10 -9.5
v 4 10 -9.5
v 5 10 -9.5
v -5 10 -10.5
v -4 10 -10.5
v 4 10 -10.5
v 5 10 -10.5
v -5 11 6.5
v 5 11 6.5
v -5 11 -9.5
v 5 11 -9.5

# faces
f 3/3/1 2/3/1 1/3/1
f 4/3/1 2/3/1 3/3/1
f 11/3/1 10/3/1 9/3/1
f 12/3/1 10/3/1 11/3/1
f 13/3/1 6/3/1 5/3/1
f 14/3/1 6/3/1 13/3/1
f 15/3/1 6/3/1 14/3/1
f 18/3/1 8/3/1 7/3/1
f 19/3/1 8/3/1 18/3/1
f 22/3/1 11/3/1 9/3/1
f 23/2/1 12/2/1 11/2/1
f 23/3/1 11/3/1 22/3/1
f 24/2/1 12/2/1 23/2/1
f 25/3/1 16/3/1 15/3/1
f 25/3/1 15/3/1 14/3/1
f 26/3/1 20/3/1 19/3/1
f 26/3/1 18/3/1 17/3/1
f 26/3/1 19/3/1 18/3/1
f 27/3/1 20/3/1 26/3/1
f 28/3/1 20/3/1 27/3/1
f 29/3/1 20/3/1 28/3/1
f 30/3/1 20/3/1 29/3/1
f 31/3/1 22/3/1 21/3/1
f 31/3/1 23/3/1 22/3/1
f 32/4/1 24/4/1 23/4/1
f 32/3/1 23/3/1 31/3/1
f 33/4/1 24/4/1 32/4/1
f 34/2/1 14/2/1 13/2/1
f 35/3/1 25/3/1 14/3/1
f 35/2/1 14/2/1 34/2/1
f 35/3/1 26/3/1 25/3/1
f 35/3/1 27/3/1 26/3/1
f 36/6/1 28/6/1 27/6/1
f 36/3/1 27/3/1 35/3/1
f 37/3/1 29/3/1 28/3/1
f 37/6/1 28/6/1 36/6/1
f 38/6/1 30/6/1 29/6/1
f 38/3/1 29/3/1 37/3/1
f 39/3/1 31/3/1 30/3/1
f 39/6/1 30/6/1 38/6/1
f 39/3/1 32/3/1 31/3/1
f 40/1/1 33/1/1 32/1/1
f 40/3/1 32/3/1 39/3/1
f 41/1/1 33/1/1 40/1/1
f 42/3/1 37/3/1 36/3/1
f 42/3/1 38/3/1 37/3/1
f 42/3/1 41/3/1 40/3/1
f 42/3/1 40/3/1 39/3/1
f 42/3/1 35/3/1 34/3/1
f 42/3/1 36/3/1 35/3/1
f 42/3/1 39/3/1 38/3/1
f 43/3/1 41/3/1 42/3/1
f 44/3/1 41/3/1 43/3/1
f 45/3/1 41/3/1 44/3/1
f 46/3/1 41/3/1 45/3/1
f 47/3/1 41/3/1 46/3/1
f 48/3/1 41/3/1 47/3/1
f 49/3/1 41/3/1 48/3/1
f 50/3/1 41/3/1 49/3/1
f 51/3/1 41/3/1 50/3/1
f 52/3/1 41/3/1 51/3/1
f 53/3/1 41/3/1 52/3/1
f 54/3/1 44/3/1 43/3/1
f 55/3/1 44/3/1 54/3/1
f 56/5/1 45/5/1 44/5/1
f 56/3/1 44/3/1 55/3/1
f 57/5/1 45/5/1 56/5/1
f 58/5/1 53/5/1 52/5/1
f 59/3/1 41/3/1 53/3/1
f 59/5/1 53/5/1 58/5/1
f 60/3/1 41/3/1 59/3/1
f 61/3/1 41/3/1 60/3/1
f 62/3/1 57/3/1 56/3/1
f 62/3/1 56/3/1 55/3/1
f 63/3/1 57/3/1 62/3/1
f 64/3/1 57/3/1 63/3/1
f 65/5/1 47/5/1 46/5/1
f 66/5/1 58/5/1 52/5/1
f 67/3/1 60/3/1 59/3/1
f 67/5/1 58/5/1 66/5/1
f 67/3/1 59/3/1 58/3/1
f 68/3/1 60/3/1 67/3/1
f 69/3/1 60/3/1 68/3/1
f 70/3/1 65/3/1 64/3/1
f 70/3/1 64/3/1 63/3/1
f 71/3/1 65/3/1 70/3/1
f 72/5/1 47/5/1 65/5/1
f 72/3/1 65/3/1 71/3/1
f 73/5/1 47/5/1 72/5/1
f 74/5/1 66/5/1 52/5/1
f 75/3/1 68/3/1 67/3/1
f 75/5/1 66/5/1 74/5/1
f 75/3/1 67/3/1 66/3/1
f 76/3/1 68/3/1 75/3/1
f 77/3/1 68/3/1 76/3/1
f 78/3/1 73/3/1 72/3/1
f 78/3/1 72/3/1 71/3/1
f 79/3/1 73/3/1 78/3/1
f 80/5/1 47/5/1 73/5/1
f 80/3/1 73/3/1 79/3/1
f 81/3/1 48/3/1 47/3/1
f 81/5/1 47/5/1 80/5/1
f 82/3/1 52/3/1 51/3/1
f 82/5/1 74/5/1 52/5/1
f 83/3/1 76/3/1 75/3/1
f 83/5/1 74/5/1 82/5/1
f 83/3/1 75/3/1 74/3/1
f 84/3/1 76/3/1 83/3/1
f 85/3/1 76/3/1 84/3/1
f 86/3/1 81/3/1 80/3/1
f 86/3/1 80/3/1 79/3/1
f 87/3/1 81/3/1 86/3/1
f 88/3/1 48/3/1 81/3/1
f 88/3/1 81/3/1 87/3/1
f 88/5/1 49/5/1 48/5/1
f 89/3/1 50/3/1 49/3/1
f 89/5/1 49/5/1 88/5/1
f 90/5/1 51/5/1 50/5/1
f 90/3/1 50/3/1 89/3/1
f 91/3/1 84/3/1 83/3/1
f 91/5/1 51/5/1 90/5/1
f 91/3/1 83/3/1 82/3/1
f 91/3/1 82/3/1 51/3/1
f 92/3/1 84/3/1 91/3/1
f 93/3/1 84/3/1 92/3/1
f 94/3/1 90/3/1 89/3/1
f 94/3/1 92/3/1 91/3/1
f 94/3/1 91/3/1 90/3/1
f 94/3/1 88/3/1 87/3/1
f 94/3/1 89/3/1 88/3/1
f 95/3/1 92/3/1 94/3/1
f 100/3/1 97/3/1 96/3/1
f 101/3/1 97/3/1 100/3/1
f 102/3/1 97/3/1 101/3/1
f 103/3/1 97/3/1 102/3/1
f 104/3/1 99/3/1 98/3/1
f 105/3/1 99/3/1 104/3/1
f 106/3/1 99/3/1 105/3/1
f 107/3/1 99/3/1 106/3/1
f 108/3/1 102/3/1 101/3/1
f 109/3/1 102/3/1 108/3/1
f 110/3/1 106/3/1 105/3/1
f 111/3/1 106/3/1 110/3/1
f 112/3/2 113/3/2 116/3/2
f 116/3/2 113/3/2 117/3/2
f 117/3/2 113/3/2 118/3/2
f 118/3/2 113/3/2 119/3/2
f 114/3/2 115/3/2 120/3/2
f 120/3/2 115/3/2 121/3/2
f 121/3/2 115/3/2 122/3/2
f 122/3/2 115/3/2 123/3/2
f 117/3/2 118/3/2 124/3/2
f 124/3/2 118/3/2 125/3/2
f 121/3/2 122/3/2 126/3/2
f 126/3/2 122/3/2 127/3/2
f 132/3/2 133/3/2 134/3/2
f 134/3/2 133/3/2 135/3/2
f 128/3/2 129/3/2 136/3/2
f 136/3/2 129/3/2 137/3/2
f 137/3/2 129/3/2 138/3/2
f 130/3/2 131/3/2 141/3/2
f 141/3/2 131/3/2 142/3/2
f 132/3/2 134/3/2 145/3/2
f 134/2/2 135/2/2 146/2/2
f 145/3/2 134/3/2 146/3/2
f 146/2/2 135/2/2 147/2/2
f 138/3/2 139/3/2 148/3/2
f 137/3/2 138/3/2 148/3/2
f 142/3/2 143/3/2 149/3/2
f 140/3/2 141/3/2 149/3/2
f 141/3/2 142/3/2 149/3/2
f 149/3/2 143/3/2 150/3/2
f 150/3/2 143/3/2 151/3/2
f 151/3/2 143/3/2 152/3/2
f 152/3/2 143/3/2 153/3/2
f 144/3/2 145/3/2 154/3/2
f 145/3/2 146/3/2 154/3/2
f 146/4/2 147/4/2 155/4/2
f 154/3/2 146/3/2 155/3/2
f 155/4/2 147/4/2 156/4/2
f 136/2/2 137/2/2 157/2/2
f 137/3/2 148/3/2 158/3/2
f 157/2/2 137/2/2 158/2/2
f 148/3/2 149/3/2 158/3/2
f 149/3/2 150/3/2 158/3/2
f 150/6/2 151/6/2 159/6/2
f 158/3/2 150/3/2 159/3/2
f 151/3/2 152/3/2 160/3/2
f 159/6/2 151/6/2 160/6/2
f 152/6/2 153/6/2 161/6/2
f 160/3/2 152/3/2 161/3/2
f 153/3/2 154/3/2 162/3/2
f 161/6/2 153/6/2 162/6/2
f 154/3/2 155/3/2 162/3/2
f 155/1/2 156/1/2 163/1/2
f 162/3/2 155/3/2 163/3/2
f 163/1/2 156/1/2 164/1/2
f 159/3/2 160/3/2 165/3/2
f 160/3/2 161/3/2 165/3/2
f 163/3/2 164/3/2 165/3/2
f 162/3/2 163/3/2 165/3/2
f 157/3/2 158/3/2 165/3/2
f 158/3/2 159/3/2 165/3/2
f 161/3/2 162/3/2 165/3/2
f 165/3/2 164/3/2 166/3/2
f 166/3/2 164/3/2 167/3/2
f 167/3/2 164/3/2 168/3/2
f 168/3/2 164/3/2 169/3/2
f 169/3/2 164/3/2 170/3/2
f 170/3/2 164/3/2 171/3/2
f 171/3/2 164/3/2 172/3/2
f 172/3/2 164/3/2 173/3/2
f 173/3/2 164/3/2 174/3/2
f 174/3/2 164/3/2 175/3/2
f 175/3/2 164/3/2 176/3/2
f 166/3/2 167/3/2 177/3/2
f 177/3/2 167/3/2 178/3/2
f 167/5/2 168/5/2 179/5/2
f 178/3/2 167/3/2 179/3/2
f 179/5/2 168/5/2 180/5/2
f 175/5/2 176/5/2 181/5/2
f 176/3/2 164/3/2 182/3/2
f 181/5/2 176/5/2 182/5/2
f 182/3/2 164/3/2 183/3/2
f 183/3/2 164/3/2 184/3/2
f 179/3/2 180/3/2 185/3/2
f 178/3/2 179/3/2 185/3/2
f 185/3/2 180/3/2 186/3/2
f 186/3/2 180/3/2 187/3/2
f 169/5/2 170/5/2 188/5/2
f 175/5/2 181/5/2 189/5/2
f 182/3/2 183/3/2 190/3/2
f 189/5/2 181/5/2 190/5/2
f 181/3/2 182/3/2 190/3/2
f 190/3/2 183/3/2 191/3/2
f 191/3/2 183/3/2 192/3/2
f 187/3/2 188/3/2 193/3/2
f 186/3/2 187/3/2 193/3/2
f 193/3/2 188/3/2 194/3/2
f 188/5/2 170/5/2 195/5/2
f 194/3/2 188/3/2 195/3/2
f 195/5/2 170/5/2 196/5/2
f 175/5/2 189/5/2 197/5/2
f 190/3/2 191/3/2 198/3/2
f 197/5/2 189/5/2 198/5/2
f 189/3/2 190/3/2 198/3/2
f 198/3/2 191/3/2 199/3/2
f 199/3/2 191/3/2 200/3/2
f 195/3/2 196/3/2 201/3/2
f 194/3/2 195/3/2 201/3/2
f 201/3/2 196/3/2 202/3/2
f 196/5/2 170/5/2 203/5/2
f 202/3/2 196/3/2 203/3/2
f 170/3/2 171/3/2 204/3/2
f 203/5/2 170/5/2 204/5/2
f 174/3/2 175/3/2 205/3/2
f 175/5/2 197/5/2 205/5/2
f 198/3/2 199/3/2 206/3/2
f 205/5/2 197/5/2 206/5/2
f 197/3/2 198/3/2 206/3/2
f 206/3/2 199/3/2 207/3/2
f 207/3/2 199/3/2 208/3/2
f 203/3/2 204/3/2 209/3/2
f 202/3/2 203/3/2 209/3/2
f 209/3/2 204/3/2 210/3/2
f 204/3/2 171/3/2 211/3/2
f 210/3/2 204/3/2 211/3/2
f 171/5/2 172/5/2 211/5/2
f 172/3/2 173/3/2 212/3/2
f 211/5/2 172/5/2 212/5/2
f 173/5/2 174/5/2 213/5/2
f 212/3/2 173/3/2 213/3/2
f 206/3/2 207/3/2 214/3/2
f 213/5/2 174/5/2 214/5/2
f 205/3/2 206/3/2 214/3/2
f 174/3/2 205/3/2 214/3/2
f 214/3/2 207/3/2 215/3/2
f 215/3/2 207/3/2 216/3/2
f 212/3/2 213/3/2 217/3/2
f 214/3/2 215/3/2 217/3/2
f 213/3/2 214/3/2 217/3/2
f 210/3/2 211/3/2 217/3/2
f 211/3/2 212/3/2 217/3/2
f 217/3/2 215/3/2 218/3/2
f 219/3/2 220/3/2 221/3/2
f 221/3/2 220/3/2 222/3/2
f 227/3/3 224/3/3 223/3/3
f 228/2/3 225/2/3 224/2/3
f 228/3/3 224/3/3 227/3/3
f 229/3/3 226/3/3 225/3/3
f 229/2/3 225/2/3 228/2/3
f 230/6/3 228/6/3 227/6/3
f 230/3/3 227/3/3 223/3/3
f 230/6/3 229/6/3 228/6/3
f 231/6/3 229/6/3 230/6/3
f 232/3/3 226/3/3 229/3/3
f 232/6/3 229/6/3 231/6/3
f 233/3/3 231/3/3 230/3/3
f 233/3/3 230/3/3 223/3/3
f 234/2/3 232/2/3 231/2/3
f 234/3/3 231/3/3 233/3/3
f 235/3/3 226/3/3 232/3/3
f 235/2/3 232/2/3 234/2/3
f 236/3/3 226/3/3 235/3/3
f 239/3/3 238/3/3 237/3/3
f 240/3/3 238/3/3 239/3/3
f 241/5/3 240/5/3 239/5/3
f 242/5/3 240/5/3 241/5/3
f 243/3/3 242/3/3 241/3/3
f 244/3/3 242/3/3 243/3/3
f 247/3/3 246/3/3 245/3/3
f 248/3/3 246/3/3 247/3/3
f 249/5/3 248/5/3 247/5/3
f 250/5/3 248/5/3 249/5/3
f 251/3/3 250/3/3 249/3/3
f 252/3/3 250/3/3 251/3/3
f 255/3/3 254/3/3 253/3/3
f 256/3/3 254/3/3 255/3/3
f 257/5/3 256/5/3 255/5/3
f 258/5/3 256/5/3 257/5/3
f 259/3/3 258/3/3 257/3/3
f 260/3/3 258/3/3 259/3/3
f 263/3/3 262/3/3 261/3/3
f 264/3/3 262/3/3 263/3/3
f 265/3/3 262/3/3 264/3/3
f 268/3/3 267/3/3 266/3/3
f 269/3/3 267/3/3 268/3/3
f 270/5/3 269/5/3 268/5/3
f 271/5/3 269/5/3 270/5/3
f 275/3/3 271/3/3 270/3/3
f 276/3/3 271/3/3 275/3/3
f 277/3/3 274/3/3 273/3/3
f 277/3/3 273/3/3 272/3/3
f 278/3/3 274/3/3 277/3/3
f 281/3/3 280/3/3 279/3/3
f 282/3/3 280/3/3 281/3/3
f 283/5/3 282/5/3 281/5/3
f 284/5/3 282/5/3 283/5/3
f 285/3/3 284/3/3 283/3/3
f 286/3/3 284/3/3 285/3/3
f 291/3/3 288/3/3 287/3/3
f 292/3/3 288/3/3 291/3/3
f 293/3/3 290/3/3 289/3/3
f 296/3/3 290/3/3 293/3/3
f 297/3/3 295/3/3 294/3/3
f 298/3/3 295/3/3 297/3/3
f 299/3/3 290/3/3 296/3/3
f 300/3/3 290/3/3 299/3/3
f 303/3/3 302/3/3 301/3/3
f 304/3/3 302/3/3 303/3/3
f 307/3/3 306/3/3 305/3/3
f 308/3/3 306/3/3 307/3/3
f 311/3/3 310/3/3 309/3/3
f 312/3/3 310/3/3 311/3/3
f 315/3/3 314/3/3 313/3/3
f 316/3/3 314/3/3 315/3/3
f 319/3/3 318/3/3 317/3/3
f 320/3/3 318/3/3 319/3/3
f 323/3/3 322/3/3 321/3/3
f 324/3/3 322/3/3 323/3/3
f 325/3/4 326/3/4 327/3/4
f 327/3/4 326/3/4 328/3/4
f 329/3/4 330/3/4 331/3/4
f 331/3/4 330/3/4 332/3/4
f 333/3/4 334/3/4 335/3/4
f 335/3/4 334/3/4 336/3/4
f 337/3/4 338/3/4 339/3/4
f 339/3/4 338/3/4 340/3/4
f 341/3/4 342/3/4 343/3/4
f 343/3/4 342/3/4 344/3/4
f 345/3/4 346/3/4 347/3/4
f 347/3/4 346/3/4 348/3/4
f 349/3/4 350/3/4 351/3/4
f 351/3/4 350/3/4 352/3/4
f 353/3/4 354/3/4 355/3/4
f 355/3/4 354/3/4 356/3/4
f 357/3/4 358/3/4 359/3/4
f 359/3/4 358/3/4 360/3/4
f 361/3/4 362/3/4 363/3/4
f 363/3/4 362/3/4 364/3/4
f 365/3/4 366/3/4 367/3/4
f 367/3/4 366/3/4 368/3/4
f 368/3/4 366/3/4 369/3/4
f 369/3/4 366/3/4 370/3/4
f 371/3/4 372/3/4 373/3/4
f 373/3/4 372/3/4 374/3/4
f 373/5/4 374/5/4 375/5/4
f 375/5/4 374/5/4 376/5/4
f 375/3/4 376/3/4 377/3/4
f 377/3/4 376/3/4 378/3/4
f 379/3/4 380/3/4 381/3/4
f 381/3/4 380/3/4 382/3/4
f 381/5/4 382/5/4 383/5/4
f 383/5/4 382/5/4 384/5/4
f 383/3/4 384/3/4 385/3/4
f 385/3/4 384/3/4 386/3/4
f 387/3/4 388/3/4 389/3/4
f 389/3/4 388/3/4 390/3/4
f 389/5/4 390/5/4 391/5/4
f 391/5/4 390/5/4 392/5/4
f 391/3/4 392/3/4 393/3/4
f 393/3/4 392/3/4 394/3/4
f 395/3/4 396/3/4 397/3/4
f 397/3/4 396/3/4 398/3/4
f 397/5/4 398/5/4 399/5/4
f 399/5/4 398/5/4 400/5/4
f 399/3/4 400/3/4 401/3/4
f 401/3/4 400/3/4 402/3/4
f 403/3/4 404/3/4 409/3/4
f 404/2/4 405/2/4 409/2/4
f 405/4/4 406/4/4 410/4/4
f 409/2/4 405/2/4 410/2/4
f 406/1/4 407/1/4 411/1/4
f 410/4/4 406/4/4 411/4/4
f 407/3/4 408/3/4 412/3/4
f 411/1/4 407/1/4 412/1/4
f 412/3/4 408/3/4 413/3/4
f 413/3/4 408/3/4 414/3/4
f 410/3/4 411/3/4 415/3/4
f 409/3/4 410/3/4 415/3/4
f 411/3/4 412/3/4 415/3/4
f 412/3/4 413/3/4 415/3/4
f 415/3/4 413/3/4 416/3/4
f 409/3/4 415/3/4 417/3/4
f 415/6/4 416/6/4 417/6/4
f 416/3/4 413/3/4 418/3/4
f 417/6/4 416/6/4 418/6/4
f 403/3/4 409/3/4 419/3/4
f 409/3/4 417/3/4 419/3/4
f 417/3/4 418/3/4 419/3/4
f 419/3/4 418/3/4 420/3/4
f 418/3/4 413/3/4 421/3/4
f 420/3/4 418/3/4 421/3/4
f 421/3/4 413/3/4 422/3/4
f 413/5/4 414/5/4 423/5/4
f 422/3/4 413/3/4 423/3/4
f 423/5/4 414/5/4 424/5/4
f 403/3/4 419/3/4 425/3/4
f 419/2/4 420/2/4 426/2/4
f 425/3/4 419/3/4 426/3/4
f 420/4/4 421/4/4 427/4/4
f 426/2/4 420/2/4 427/2/4
f 421/1/4 422/1/4 428/1/4
f 427/4/4 421/4/4 428/4/4
f 422/3/4 423/3/4 429/3/4
f 428/1/4 422/1/4 429/1/4
f 423/3/4 424/3/4 429/3/4
f 429/3/4 424/3/4 430/3/4
f 433/3/5 432/3/5 431/3/5
f 434/3/5 432/3/5 433/3/5
f 435/3/5 432/3/5 434/3/5
f 436/3/5 432/3/5 435/3/5
f 438/3/5 435/3/5 434/3/5
f 439/3/5 435/3/5 438/3/5
f 441/3/5 438/3/5 437/3/5
f 441/3/5 440/3/5 439/3/5
f 441/3/5 439/3/5 438/3/5
f 442/3/5 440/3/5 441/3/5
f 443/3/5 440/3/5 442/3/5
f 444/3/5 440/3/5 443/3/5
f 446/3/5 443/3/5 442/3/5
f 447/3/5 443/3/5 446/3/5
f 449/3/5 446/3/5 445/3/5
f 449/3/5 448/3/5 447/3/5
f 449/3/5 447/3/5 446/3/5
f 450/3/5 448/3/5 449/3/5
f 455/3/5 452/3/5 451/3/5
f 456/3/5 452/3/5 455/3/5
f 457/3/5 454/3/5 453/3/5
f 458/3/5 454/3/5 457/3/5
f 463/3/5 460/3/5 459/3/5
f 464/3/5 460/3/5 463/3/5
f 465/3/5 462/3/5 461/3/5
f 466/3/5 462/3/5 465/3/5
f 471/3/5 468/3/5 467/3/5
f 472/3/5 468/3/5 471/3/5
f 473/3/5 470/3/5 469/3/5
f 474/3/5 470/3/5 473/3/5
f 479/3/5 476/3/5 475/3/5
f 480/3/5 476/3/5 479/3/5
f 481/3/5 478/3/5 477/3/5
f 482/3/5 478/3/5 481/3/5
f 487/3/5 484/3/5 483/3/5
f 488/3/5 484/3/5 487/3/5
f 489/3/5 486/3/5 485/3/5
f 490/3/5 486/3/5 489/3/5
f 495/3/5 492/3/5 491/3/5
f 496/3/5 492/3/5 495/3/5
f 497/3/5 494/3/5 493/3/5
f 498/3/5 494/3/5 497/3/5
f 503/3/5 500/3/5 499/3/5
f 504/3/5 500/3/5 503/3/5
f 505/3/5 502/3/5 501/3/5
f 506/3/5 502/3/5 505/3/5
f 507/3/6 508/3/6 509/3/6
f 509/3/6 508/3/6 510/3/6
f 510/3/6 508/3/6 511/3/6
f 511/3/6 508/3/6 512/3/6
f 513/3/6 514/3/6 517/3/6
f 514/5/6 515/5/6 518/5/6
f 517/3/6 514/3/6 518/3/6
f 515/3/6 516/3/6 519/3/6
f 518/5/6 515/5/6 519/5/6
f 519/3/6 516/3/6 520/3/6
f 521/3/6 522/3/6 525/3/6
f 522/5/6 523/5/6 526/5/6
f 525/3/6 522/3/6 526/3/6
f 523/3/6 524/3/6 527/3/6
f 526/5/6 523/5/6 527/5/6
f 527/3/6 524/3/6 528/3/6
f 529/3/6 530/3/6 533/3/6
f 530/5/6 531/5/6 534/5/6
f 533/3/6 530/3/6 534/3/6
f 531/3/6 532/3/6 535/3/6
f 534/5/6 531/5/6 535/5/6
f 535/3/6 532/3/6 536/3/6
f 537/3/6 538/3/6 541/3/6
f 541/3/6 538/3/6 542/3/6
f 539/3/6 540/3/6 543/3/6
f 543/3/6 540/3/6 544/3/6
f 545/3/6 546/3/6 549/3/6
f 546/5/6 547/5/6 550/5/6
f 549/3/6 546/3/6 550/3/6
f 547/3/6 548/3/6 551/3/6
f 550/5/6 547/5/6 551/5/6
f 551/3/6 548/3/6 552/3/6
f 553/3/6 554/3/6 557/3/6
f 554/5/6 555/5/6 558/5/6
f 557/3/6 554/3/6 558/3/6
f 555/3/6 556/3/6 559/3/6
f 558/5/6 555/5/6 559/5/6
f 559/3/6 556/3/6 560/3/6
f 561/3/6 562/3/6 565/3/6
f 562/5/6 563/5/6 566/5/6
f 565/3/6 562/3/6 566/3/6
f 563/3/6 564/3/6 567/3/6
f 566/5/6 563/5/6 567/5/6
f 567/3/6 564/3/6 568/3/6
f 569/3/6 570/3/6 573/3/6
f 570/5/6 571/5/6 574/5/6
f 573/3/6 570/3/6 574/3/6
f 571/3/6 572/3/6 575/3/6
f 574/5/6 571/5/6 575/5/6
f 575/3/6 572/3/6 576/3/6
f 577/3/6 578/3/6 581/3/6
f 578/5/6 579/5/6 582/5/6
f 581/3/6 578/3/6 582/3/6
f 579/3/6 580/3/6 583/3/6
f 582/5/6 579/5/6 583/5/6
f 583/3/6 580/3/6 584/3/6
f 585/3/6 586/3/6 589/3/6
f 586/5/6 587/5/6 590/5/6
f 589/3/6 586/3/6 590/3/6
f 587/3/6 588/3/6 591/3/6
f 590/5/6 587/5/6 591/5/6
f 591/3/6 588/3/6 592/3/6
f 593/3/6 594/3/6 597/3/6
f 594/5/6 595/5/6 598/5/6
f 597/3/6 594/3/6 598/3/6
f 595/3/6 596/3/6 599/3/6
f 598/5/6 595/5/6 599/5/6
f 599/3/6 596/3/6 600/3/6
f 601/3/6 602/3/6 603/3/6
f 603/3/6 602/3/6 604/3/6
