# MagicaVoxel @ Ephtracy

# material
mtllib Car01.mtl
usemtl palette

# normals
vn -1 0 0
vn 1 0 0
vn 0 0 1
vn 0 0 -1
vn 0 -1 0
vn 0 1 0

# texcoords
vt 0.970703 0.5
vt 0.978516 0.5
vt 0.986328 0.5
vt 0.990234 0.5

# verts
v -7 5 10
v -7 5 9
v -7 7 10
v -7 7 9
v -5 0 16
v -5 0 12
v -5 0 7
v -5 0 -7
v -5 0 -12
v -5 0 -16
v -5 2 12
v -5 2 11
v -5 2 8
v -5 2 7
v -5 2 -7
v -5 2 -8
v -5 2 -11
v -5 2 -12
v -5 3 11
v -5 3 8
v -5 3 3
v -5 3 -0
v -5 3 -3
v -5 3 -6
v -5 3 -8
v -5 3 -11
v -5 4 3
v -5 4 -0
v -5 4 -3
v -5 4 -6
v -5 5 16
v -5 5 13
v -5 5 11
v -5 5 10
v -5 5 9
v -5 5 7
v -5 5 6
v -5 5 -0
v -5 5 -1
v -5 5 -6
v -5 5 -7
v -5 5 -11
v -5 5 -13
v -5 5 -16
v -5 6 13
v -5 6 12
v -5 6 11
v -5 6 10
v -5 6 -10
v -5 6 -11
v -5 6 -12
v -5 6 -13
v -5 7 12
v -5 7 11
v -5 7 10
v -5 7 9
v -5 7 -9
v -5 7 -10
v -5 7 -11
v -5 7 -12
v -5 8 11
v -5 8 10
v -5 8 9
v -5 8 8
v -5 8 -8
v -5 8 -9
v -5 8 -10
v -5 8 -11
v -5 9 10
v -5 9 9
v -5 9 8
v -5 9 7
v -5 9 -7
v -5 9 -8
v -5 9 -9
v -5 9 -10
v -5 10 9
v -5 10 8
v -5 10 6
v -5 10 -0
v -5 10 -1
v -5 10 -6
v -5 10 -8
v -5 10 -9
v -5 11 8
v -5 11 -8
v -4 0 12
v -4 0 7
v -4 0 -7
v -4 0 -12
v -4 2 12
v -4 2 11
v -4 2 8
v -4 2 7
v -4 2 -7
v -4 2 -8
v -4 2 -11
v -4 2 -12
v -4 3 11
v -4 3 8
v -4 3 -8
v -4 3 -11
v 4 0 12
v 4 0 7
v 4 0 -7
v 4 0 -12
v 4 2 12
v 4 2 11
v 4 2 8
v 4 2 7
v 4 2 -7
v 4 2 -8
v 4 2 -11
v 4 2 -12
v 4 3 11
v 4 3 8
v 4 3 -8
v 4 3 -11
v 5 0 16
v 5 0 12
v 5 0 7
v 5 0 -7
v 5 0 -12
v 5 0 -16
v 5 2 12
v 5 2 11
v 5 2 8
v 5 2 7
v 5 2 -7
v 5 2 -8
v 5 2 -11
v 5 2 -12
v 5 3 11
v 5 3 8
v 5 3 3
v 5 3 -0
v 5 3 -3
v 5 3 -6
v 5 3 -8
v 5 3 -11
v 5 4 3
v 5 4 -0
v 5 4 -3
v 5 4 -6
v 5 5 16
v 5 5 13
v 5 5 11
v 5 5 10
v 5 5 9
v 5 5 7
v 5 5 6
v 5 5 -0
v 5 5 -1
v 5 5 -6
v 5 5 -7
v 5 5 -11
v 5 5 -13
v 5 5 -16
v 5 6 13
v 5 6 12
v 5 6 11
v 5 6 10
v 5 6 -10
v 5 6 -11
v 5 6 -12
v 5 6 -13
v 5 7 12
v 5 7 11
v 5 7 10
v 5 7 9
v 5 7 -9
v 5 7 -10
v 5 7 -11
v 5 7 -12
v 5 8 11
v 5 8 10
v 5 8 9
v 5 8 8
v 5 8 -8
v 5 8 -9
v 5 8 -10
v 5 8 -11
v 5 9 10
v 5 9 9
v 5 9 8
v 5 9 7
v 5 9 -7
v 5 9 -8
v 5 9 -9
v 5 9 -10
v 5 10 9
v 5 10 8
v 5 10 6
v 5 10 -0
v 5 10 -1
v 5 10 -6
v 5 10 -8
v 5 10 -9
v 5 11 8
v 5 11 -8
v 7 5 10
v 7 5 9
v 7 7 10
v 7 7 9
v -5 0 16
v -5 5 16
v -4 1 16
v -4 4 16
v 4 1 16
v 4 4 16
v 5 0 16
v 5 5 16
v -5 5 13
v -5 6 13
v -4 5 13
v -4 6 13
v 4 5 13
v 4 6 13
v 5 5 13
v 5 6 13
v -5 6 12
v -5 7 12
v -4 6 12
v -4 7 12
v 4 6 12
v 4 7 12
v 5 6 12
v 5 7 12
v -5 7 11
v -5 8 11
v -4 7 11
v -4 8 11
v 4 7 11
v 4 8 11
v 5 7 11
v 5 8 11
v -7 5 10
v -7 7 10
v -5 5 10
v -5 6 10
v -5 7 10
v -5 8 10
v -5 9 10
v -4 8 10
v -4 9 10
v 4 8 10
v 4 9 10
v 5 5 10
v 5 6 10
v 5 7 10
v 5 8 10
v 5 9 10
v 7 5 10
v 7 7 10
v -5 9 9
v -5 10 9
v -4 9 9
v -4 10 9
v 4 9 9
v 4 10 9
v 5 9 9
v 5 10 9
v -5 2 8
v -5 3 8
v -5 10 8
v -5 11 8
v -4 2 8
v -4 3 8
v -4 10 8
v 4 2 8
v 4 3 8
v 4 10 8
v 5 2 8
v 5 3 8
v 5 10 8
v 5 11 8
v -5 0 7
v -5 2 7
v -4 0 7
v -4 2 7
v 4 0 7
v 4 2 7
v 5 0 7
v 5 2 7
v -5 2 -11
v -5 3 -11
v -4 2 -11
v -4 3 -11
v 4 2 -11
v 4 3 -11
v 5 2 -11
v 5 3 -11
v -5 0 -12
v -5 2 -12
v -4 0 -12
v -4 2 -12
v 4 0 -12
v 4 2 -12
v 5 0 -12
v 5 2 -12
v -5 0 12
v -5 2 12
v -4 0 12
v -4 2 12
v 4 0 12
v 4 2 12
v 5 0 12
v 5 2 12
v -5 2 11
v -5 3 11
v -4 2 11
v -4 3 11
v 4 2 11
v 4 3 11
v 5 2 11
v 5 3 11
v -7 5 9
v -7 7 9
v -5 5 9
v -5 7 9
v 5 5 9
v 5 7 9
v 7 5 9
v 7 7 9
v -5 0 -7
v -5 2 -7
v -4 0 -7
v -4 2 -7
v 4 0 -7
v 4 2 -7
v 5 0 -7
v 5 2 -7
v -5 2 -8
v -5 3 -8
v -5 10 -8
v -5 11 -8
v -4 2 -8
v -4 3 -8
v -4 10 -8
v 4 2 -8
v 4 3 -8
v 4 10 -8
v 5 2 -8
v 5 3 -8
v 5 10 -8
v 5 11 -8
v -5 9 -9
v -5 10 -9
v -4 9 -9
v -4 10 -9
v 4 9 -9
v 4 10 -9
v 5 9 -9
v 5 10 -9
v -5 8 -10
v -5 9 -10
v -4 8 -10
v -4 9 -10
v 4 8 -10
v 4 9 -10
v 5 8 -10
v 5 9 -10
v -5 7 -11
v -5 8 -11
v -4 7 -11
v -4 8 -11
v 4 7 -11
v 4 8 -11
v 5 7 -11
v 5 8 -11
v -5 6 -12
v -5 7 -12
v -4 6 -12
v -4 7 -12
v 4 6 -12
v 4 7 -12
v 5 6 -12
v 5 7 -12
v -5 5 -13
v -5 6 -13
v -4 5 -13
v -4 6 -13
v 4 5 -13
v 4 6 -13
v 5 5 -13
v 5 6 -13
v -5 0 -16
v -5 5 -16
v -2 2 -16
v -2 3 -16
v 2 2 -16
v 2 3 -16
v 5 0 -16
v 5 5 -16
v -5 0 16
v 5 0 16
v -5 0 12
v -4 0 12
v 4 0 12
v 5 0 12
v -5 0 7
v -4 0 7
v 4 0 7
v 5 0 7
v -5 0 -7
v -4 0 -7
v 4 0 -7
v 5 0 -7
v -5 0 -12
v -4 0 -12
v 4 0 -12
v 5 0 -12
v -5 0 -16
v 5 0 -16
v -5 2 12
v -4 2 12
v 4 2 12
v 5 2 12
v -5 2 11
v -4 2 11
v 4 2 11
v 5 2 11
v -5 2 8
v -4 2 8
v 4 2 8
v 5 2 8
v -5 2 7
v -4 2 7
v 4 2 7
v 5 2 7
v -5 2 -7
v -4 2 -7
v 4 2 -7
v 5 2 -7
v -5 2 -8
v -4 2 -8
v 4 2 -8
v 5 2 -8
v -5 2 -11
v -4 2 -11
v 4 2 -11
v 5 2 -11
v -5 2 -12
v -4 2 -12
v 4 2 -12
v 5 2 -12
v -5 3 11
v -4 3 11
v 4 3 11
v 5 3 11
v -5 3 8
v -4 3 8
v 4 3 8
v 5 3 8
v -5 3 -8
v -4 3 -8
v 4 3 -8
v 5 3 -8
v -5 3 -11
v -4 3 -11
v 4 3 -11
v 5 3 -11
v -7 5 10
v -5 5 10
v 5 5 10
v 7 5 10
v -7 5 9
v -5 5 9
v 5 5 9
v 7 5 9
v -5 5 16
v 5 5 16
v -5 5 13
v -4 5 13
v 4 5 13
v 5 5 13
v -5 5 -13
v -4 5 -13
v 4 5 -13
v 5 5 -13
v -5 5 -16
v 5 5 -16
v -5 6 13
v -4 6 13
v 4 6 13
v 5 6 13
v -5 6 12
v -4 6 12
v 4 6 12
v 5 6 12
v -5 6 -12
v -4 6 -12
v 4 6 -12
v 5 6 -12
v -5 6 -13
v -4 6 -13
v 4 6 -13
v 5 6 -13
v -5 7 12
v -4 7 12
v 4 7 12
v 5 7 12
v -5 7 11
v -4 7 11
v 4 7 11
v 5 7 11
v -7 7 10
v -5 7 10
v 5 7 10
v 7 7 10
v -7 7 9
v -5 7 9
v 5 7 9
v 7 7 9
v -5 7 -11
v -4 7 -11
v 4 7 -11
v 5 7 -11
v -5 7 -12
v -4 7 -12
v 4 7 -12
v 5 7 -12
v -5 8 11
v -4 8 11
v 4 8 11
v 5 8 11
v -5 8 10
v -4 8 10
v 4 8 10
v 5 8 10
v -5 8 -10
v -4 8 -10
v 4 8 -10
v 5 8 -10
v -5 8 -11
v -4 8 -11
v 4 8 -11
v 5 8 -11
v -5 9 10
v -4 9 10
v 4 9 10
v 5 9 10
v -5 9 9
v -4 9 9
v 4 9 9
v 5 9 9
v -5 9 -9
v -4 9 -9
v 4 9 -9
v 5 9 -9
v -5 9 -10
v -4 9 -10
v 4 9 -10
v 5 9 -10
v -5 10 9
v -4 10 9
v 4 10 9
v 5 10 9
v -5 10 8
v -4 10 8
v 4 10 8
v 5 10 8
v -5 10 -8
v -4 10 -8
v 4 10 -8
v 5 10 -8
v -5 10 -9
v -4 10 -9
v 4 10 -9
v 5 10 -9
v -5 11 8
v 5 11 8
v -5 11 -8
v 5 11 -8

# faces
f 3/4/1 2/4/1 1/4/1
f 4/4/1 2/4/1 3/4/1
f 11/4/1 6/4/1 5/4/1
f 14/4/1 8/4/1 7/4/1
f 15/4/1 8/4/1 14/4/1
f 18/4/1 10/4/1 9/4/1
f 19/4/1 12/4/1 11/4/1
f 20/4/1 16/4/1 15/4/1
f 20/4/1 14/4/1 13/4/1
f 20/4/1 15/4/1 14/4/1
f 21/4/1 16/4/1 20/4/1
f 22/4/1 16/4/1 21/4/1
f 23/4/1 16/4/1 22/4/1
f 24/4/1 16/4/1 23/4/1
f 25/4/1 16/4/1 24/4/1
f 26/4/1 18/4/1 17/4/1
f 27/4/1 20/4/1 19/4/1
f 27/4/1 21/4/1 20/4/1
f 27/3/1 22/3/1 21/3/1
f 28/4/1 23/4/1 22/4/1
f 28/3/1 22/3/1 27/3/1
f 29/3/1 24/3/1 23/3/1
f 29/4/1 23/4/1 28/4/1
f 30/4/1 25/4/1 24/4/1
f 30/3/1 24/3/1 29/3/1
f 30/4/1 26/4/1 25/4/1
f 31/4/1 19/4/1 11/4/1
f 31/4/1 29/4/1 28/4/1
f 31/4/1 30/4/1 29/4/1
f 31/4/1 27/4/1 19/4/1
f 31/4/1 11/4/1 5/4/1
f 31/4/1 28/4/1 27/4/1
f 32/4/1 30/4/1 31/4/1
f 33/4/1 30/4/1 32/4/1
f 34/4/1 30/4/1 33/4/1
f 35/4/1 30/4/1 34/4/1
f 36/4/1 30/4/1 35/4/1
f 37/4/1 30/4/1 36/4/1
f 38/4/1 30/4/1 37/4/1
f 39/4/1 30/4/1 38/4/1
f 40/4/1 26/4/1 30/4/1
f 40/4/1 30/4/1 39/4/1
f 41/4/1 26/4/1 40/4/1
f 42/4/1 18/4/1 26/4/1
f 42/4/1 26/4/1 41/4/1
f 43/4/1 10/4/1 18/4/1
f 43/4/1 18/4/1 42/4/1
f 44/4/1 10/4/1 43/4/1
f 45/4/1 33/4/1 32/4/1
f 46/4/1 33/4/1 45/4/1
f 47/2/1 34/2/1 33/2/1
f 47/4/1 33/4/1 46/4/1
f 48/2/1 34/2/1 47/2/1
f 49/2/1 42/2/1 41/2/1
f 50/4/1 43/4/1 42/4/1
f 50/2/1 42/2/1 49/2/1
f 51/4/1 43/4/1 50/4/1
f 52/4/1 43/4/1 51/4/1
f 53/4/1 48/4/1 47/4/1
f 53/4/1 47/4/1 46/4/1
f 54/4/1 48/4/1 53/4/1
f 55/4/1 48/4/1 54/4/1
f 56/2/1 36/2/1 35/2/1
f 57/2/1 49/2/1 41/2/1
f 58/4/1 51/4/1 50/4/1
f 58/2/1 49/2/1 57/2/1
f 58/4/1 50/4/1 49/4/1
f 59/4/1 51/4/1 58/4/1
f 60/4/1 51/4/1 59/4/1
f 61/4/1 56/4/1 55/4/1
f 61/4/1 55/4/1 54/4/1
f 62/4/1 56/4/1 61/4/1
f 63/2/1 36/2/1 56/2/1
f 63/4/1 56/4/1 62/4/1
f 64/2/1 36/2/1 63/2/1
f 65/2/1 57/2/1 41/2/1
f 66/4/1 59/4/1 58/4/1
f 66/2/1 57/2/1 65/2/1
f 66/4/1 58/4/1 57/4/1
f 67/4/1 59/4/1 66/4/1
f 68/4/1 59/4/1 67/4/1
f 69/4/1 64/4/1 63/4/1
f 69/4/1 63/4/1 62/4/1
f 70/4/1 64/4/1 69/4/1
f 71/2/1 36/2/1 64/2/1
f 71/4/1 64/4/1 70/4/1
f 72/4/1 37/4/1 36/4/1
f 72/2/1 36/2/1 71/2/1
f 73/4/1 41/4/1 40/4/1
f 73/2/1 65/2/1 41/2/1
f 74/4/1 67/4/1 66/4/1
f 74/2/1 65/2/1 73/2/1
f 74/4/1 66/4/1 65/4/1
f 75/4/1 67/4/1 74/4/1
f 76/4/1 67/4/1 75/4/1
f 77/4/1 72/4/1 71/4/1
f 77/4/1 71/4/1 70/4/1
f 78/4/1 72/4/1 77/4/1
f 79/4/1 37/4/1 72/4/1
f 79/4/1 72/4/1 78/4/1
f 79/2/1 38/2/1 37/2/1
f 80/4/1 39/4/1 38/4/1
f 80/2/1 38/2/1 79/2/1
f 81/2/1 40/2/1 39/2/1
f 81/4/1 39/4/1 80/4/1
f 82/4/1 75/4/1 74/4/1
f 82/2/1 40/2/1 81/2/1
f 82/4/1 74/4/1 73/4/1
f 82/4/1 73/4/1 40/4/1
f 83/4/1 75/4/1 82/4/1
f 84/4/1 75/4/1 83/4/1
f 85/4/1 79/4/1 78/4/1
f 85/4/1 83/4/1 82/4/1
f 85/4/1 82/4/1 81/4/1
f 85/4/1 80/4/1 79/4/1
f 85/4/1 81/4/1 80/4/1
f 86/4/1 83/4/1 85/4/1
f 91/4/1 88/4/1 87/4/1
f 92/4/1 88/4/1 91/4/1
f 93/4/1 88/4/1 92/4/1
f 94/4/1 88/4/1 93/4/1
f 95/4/1 90/4/1 89/4/1
f 96/4/1 90/4/1 95/4/1
f 97/4/1 90/4/1 96/4/1
f 98/4/1 90/4/1 97/4/1
f 99/4/1 93/4/1 92/4/1
f 100/4/1 93/4/1 99/4/1
f 101/4/1 97/4/1 96/4/1
f 102/4/1 97/4/1 101/4/1
f 103/4/2 104/4/2 107/4/2
f 107/4/2 104/4/2 108/4/2
f 108/4/2 104/4/2 109/4/2
f 109/4/2 104/4/2 110/4/2
f 105/4/2 106/4/2 111/4/2
f 111/4/2 106/4/2 112/4/2
f 112/4/2 106/4/2 113/4/2
f 113/4/2 106/4/2 114/4/2
f 108/4/2 109/4/2 115/4/2
f 115/4/2 109/4/2 116/4/2
f 112/4/2 113/4/2 117/4/2
f 117/4/2 113/4/2 118/4/2
f 119/4/2 120/4/2 125/4/2
f 121/4/2 122/4/2 128/4/2
f 128/4/2 122/4/2 129/4/2
f 123/4/2 124/4/2 132/4/2
f 125/4/2 126/4/2 133/4/2
f 129/4/2 130/4/2 134/4/2
f 127/4/2 128/4/2 134/4/2
f 128/4/2 129/4/2 134/4/2
f 134/4/2 130/4/2 135/4/2
f 135/4/2 130/4/2 136/4/2
f 136/4/2 130/4/2 137/4/2
f 137/4/2 130/4/2 138/4/2
f 138/4/2 130/4/2 139/4/2
f 131/4/2 132/4/2 140/4/2
f 133/4/2 134/4/2 141/4/2
f 134/4/2 135/4/2 141/4/2
f 135/3/2 136/3/2 141/3/2
f 136/4/2 137/4/2 142/4/2
f 141/3/2 136/3/2 142/3/2
f 137/3/2 138/3/2 143/3/2
f 142/4/2 137/4/2 143/4/2
f 138/4/2 139/4/2 144/4/2
f 143/3/2 138/3/2 144/3/2
f 139/4/2 140/4/2 144/4/2
f 125/4/2 133/4/2 145/4/2
f 142/4/2 143/4/2 145/4/2
f 143/4/2 144/4/2 145/4/2
f 133/4/2 141/4/2 145/4/2
f 119/4/2 125/4/2 145/4/2
f 141/4/2 142/4/2 145/4/2
f 145/4/2 144/4/2 146/4/2
f 146/4/2 144/4/2 147/4/2
f 147/4/2 144/4/2 148/4/2
f 148/4/2 144/4/2 149/4/2
f 149/4/2 144/4/2 150/4/2
f 150/4/2 144/4/2 151/4/2
f 151/4/2 144/4/2 152/4/2
f 152/4/2 144/4/2 153/4/2
f 144/4/2 140/4/2 154/4/2
f 153/4/2 144/4/2 154/4/2
f 154/4/2 140/4/2 155/4/2
f 140/4/2 132/4/2 156/4/2
f 155/4/2 140/4/2 156/4/2
f 132/4/2 124/4/2 157/4/2
f 156/4/2 132/4/2 157/4/2
f 157/4/2 124/4/2 158/4/2
f 146/4/2 147/4/2 159/4/2
f 159/4/2 147/4/2 160/4/2
f 147/2/2 148/2/2 161/2/2
f 160/4/2 147/4/2 161/4/2
f 161/2/2 148/2/2 162/2/2
f 155/2/2 156/2/2 163/2/2
f 156/4/2 157/4/2 164/4/2
f 163/2/2 156/2/2 164/2/2
f 164/4/2 157/4/2 165/4/2
f 165/4/2 157/4/2 166/4/2
f 161/4/2 162/4/2 167/4/2
f 160/4/2 161/4/2 167/4/2
f 167/4/2 162/4/2 168/4/2
f 168/4/2 162/4/2 169/4/2
f 149/2/2 150/2/2 170/2/2
f 155/2/2 163/2/2 171/2/2
f 164/4/2 165/4/2 172/4/2
f 171/2/2 163/2/2 172/2/2
f 163/4/2 164/4/2 172/4/2
f 172/4/2 165/4/2 173/4/2
f 173/4/2 165/4/2 174/4/2
f 169/4/2 170/4/2 175/4/2
f 168/4/2 169/4/2 175/4/2
f 175/4/2 170/4/2 176/4/2
f 170/2/2 150/2/2 177/2/2
f 176/4/2 170/4/2 177/4/2
f 177/2/2 150/2/2 178/2/2
f 155/2/2 171/2/2 179/2/2
f 172/4/2 173/4/2 180/4/2
f 179/2/2 171/2/2 180/2/2
f 171/4/2 172/4/2 180/4/2
f 180/4/2 173/4/2 181/4/2
f 181/4/2 173/4/2 182/4/2
f 177/4/2 178/4/2 183/4/2
f 176/4/2 177/4/2 183/4/2
f 183/4/2 178/4/2 184/4/2
f 178/2/2 150/2/2 185/2/2
f 184/4/2 178/4/2 185/4/2
f 150/4/2 151/4/2 186/4/2
f 185/2/2 150/2/2 186/2/2
f 154/4/2 155/4/2 187/4/2
f 155/2/2 179/2/2 187/2/2
f 180/4/2 181/4/2 188/4/2
f 187/2/2 179/2/2 188/2/2
f 179/4/2 180/4/2 188/4/2
f 188/4/2 181/4/2 189/4/2
f 189/4/2 181/4/2 190/4/2
f 185/4/2 186/4/2 191/4/2
f 184/4/2 185/4/2 191/4/2
f 191/4/2 186/4/2 192/4/2
f 186/4/2 151/4/2 193/4/2
f 192/4/2 186/4/2 193/4/2
f 151/2/2 152/2/2 193/2/2
f 152/4/2 153/4/2 194/4/2
f 193/2/2 152/2/2 194/2/2
f 153/2/2 154/2/2 195/2/2
f 194/4/2 153/4/2 195/4/2
f 188/4/2 189/4/2 196/4/2
f 195/2/2 154/2/2 196/2/2
f 187/4/2 188/4/2 196/4/2
f 154/4/2 187/4/2 196/4/2
f 196/4/2 189/4/2 197/4/2
f 197/4/2 189/4/2 198/4/2
f 192/4/2 193/4/2 199/4/2
f 196/4/2 197/4/2 199/4/2
f 195/4/2 196/4/2 199/4/2
f 193/4/2 194/4/2 199/4/2
f 194/4/2 195/4/2 199/4/2
f 199/4/2 197/4/2 200/4/2
f 201/4/2 202/4/2 203/4/2
f 203/4/2 202/4/2 204/4/2
f 207/4/3 206/4/3 205/4/3
f 208/4/3 206/4/3 207/4/3
f 209/4/3 207/4/3 205/4/3
f 209/1/3 208/1/3 207/1/3
f 210/4/3 206/4/3 208/4/3
f 210/1/3 208/1/3 209/1/3
f 211/4/3 209/4/3 205/4/3
f 211/4/3 210/4/3 209/4/3
f 212/4/3 206/4/3 210/4/3
f 212/4/3 210/4/3 211/4/3
f 215/4/3 214/4/3 213/4/3
f 216/4/3 214/4/3 215/4/3
f 217/2/3 216/2/3 215/2/3
f 218/2/3 216/2/3 217/2/3
f 219/4/3 218/4/3 217/4/3
f 220/4/3 218/4/3 219/4/3
f 223/4/3 222/4/3 221/4/3
f 224/4/3 222/4/3 223/4/3
f 225/2/3 224/2/3 223/2/3
f 226/2/3 224/2/3 225/2/3
f 227/4/3 226/4/3 225/4/3
f 228/4/3 226/4/3 227/4/3
f 231/4/3 230/4/3 229/4/3
f 232/4/3 230/4/3 231/4/3
f 233/2/3 232/2/3 231/2/3
f 234/2/3 232/2/3 233/2/3
f 235/4/3 234/4/3 233/4/3
f 236/4/3 234/4/3 235/4/3
f 239/4/3 238/4/3 237/4/3
f 240/4/3 238/4/3 239/4/3
f 241/4/3 238/4/3 240/4/3
f 244/4/3 243/4/3 242/4/3
f 245/4/3 243/4/3 244/4/3
f 246/2/3 245/2/3 244/2/3
f 247/2/3 245/2/3 246/2/3
f 251/4/3 247/4/3 246/4/3
f 252/4/3 247/4/3 251/4/3
f 253/4/3 250/4/3 249/4/3
f 253/4/3 249/4/3 248/4/3
f 254/4/3 250/4/3 253/4/3
f 257/4/3 256/4/3 255/4/3
f 258/4/3 256/4/3 257/4/3
f 259/2/3 258/2/3 257/2/3
f 260/2/3 258/2/3 259/2/3
f 261/4/3 260/4/3 259/4/3
f 262/4/3 260/4/3 261/4/3
f 267/4/3 264/4/3 263/4/3
f 268/4/3 264/4/3 267/4/3
f 269/4/3 266/4/3 265/4/3
f 272/4/3 266/4/3 269/4/3
f 273/4/3 271/4/3 270/4/3
f 274/4/3 271/4/3 273/4/3
f 275/4/3 266/4/3 272/4/3
f 276/4/3 266/4/3 275/4/3
f 279/4/3 278/4/3 277/4/3
f 280/4/3 278/4/3 279/4/3
f 283/4/3 282/4/3 281/4/3
f 284/4/3 282/4/3 283/4/3
f 287/4/3 286/4/3 285/4/3
f 288/4/3 286/4/3 287/4/3
f 291/4/3 290/4/3 289/4/3
f 292/4/3 290/4/3 291/4/3
f 295/4/3 294/4/3 293/4/3
f 296/4/3 294/4/3 295/4/3
f 299/4/3 298/4/3 297/4/3
f 300/4/3 298/4/3 299/4/3
f 301/4/4 302/4/4 303/4/4
f 303/4/4 302/4/4 304/4/4
f 305/4/4 306/4/4 307/4/4
f 307/4/4 306/4/4 308/4/4
f 309/4/4 310/4/4 311/4/4
f 311/4/4 310/4/4 312/4/4
f 313/4/4 314/4/4 315/4/4
f 315/4/4 314/4/4 316/4/4
f 317/4/4 318/4/4 319/4/4
f 319/4/4 318/4/4 320/4/4
f 321/4/4 322/4/4 323/4/4
f 323/4/4 322/4/4 324/4/4
f 325/4/4 326/4/4 327/4/4
f 327/4/4 326/4/4 328/4/4
f 329/4/4 330/4/4 331/4/4
f 331/4/4 330/4/4 332/4/4
f 333/4/4 334/4/4 337/4/4
f 337/4/4 334/4/4 338/4/4
f 335/4/4 336/4/4 339/4/4
f 339/4/4 336/4/4 342/4/4
f 340/4/4 341/4/4 343/4/4
f 343/4/4 341/4/4 344/4/4
f 342/4/4 336/4/4 345/4/4
f 345/4/4 336/4/4 346/4/4
f 347/4/4 348/4/4 349/4/4
f 349/4/4 348/4/4 350/4/4
f 349/2/4 350/2/4 351/2/4
f 351/2/4 350/2/4 352/2/4
f 351/4/4 352/4/4 353/4/4
f 353/4/4 352/4/4 354/4/4
f 355/4/4 356/4/4 357/4/4
f 357/4/4 356/4/4 358/4/4
f 357/2/4 358/2/4 359/2/4
f 359/2/4 358/2/4 360/2/4
f 359/4/4 360/4/4 361/4/4
f 361/4/4 360/4/4 362/4/4
f 363/4/4 364/4/4 365/4/4
f 365/4/4 364/4/4 366/4/4
f 365/2/4 366/2/4 367/2/4
f 367/2/4 366/2/4 368/2/4
f 367/4/4 368/4/4 369/4/4
f 369/4/4 368/4/4 370/4/4
f 371/4/4 372/4/4 373/4/4
f 373/4/4 372/4/4 374/4/4
f 373/2/4 374/2/4 375/2/4
f 375/2/4 374/2/4 376/2/4
f 375/4/4 376/4/4 377/4/4
f 377/4/4 376/4/4 378/4/4
f 379/4/4 380/4/4 381/4/4
f 381/4/4 380/4/4 382/4/4
f 381/2/4 382/2/4 383/2/4
f 383/2/4 382/2/4 384/2/4
f 383/4/4 384/4/4 385/4/4
f 385/4/4 384/4/4 386/4/4
f 387/4/4 388/4/4 389/4/4
f 389/4/4 388/4/4 390/4/4
f 387/4/4 389/4/4 391/4/4
f 389/3/4 390/3/4 391/3/4
f 390/4/4 388/4/4 392/4/4
f 391/3/4 390/3/4 392/3/4
f 387/4/4 391/4/4 393/4/4
f 391/4/4 392/4/4 393/4/4
f 392/4/4 388/4/4 394/4/4
f 393/4/4 392/4/4 394/4/4
f 397/4/5 396/4/5 395/4/5
f 398/4/5 396/4/5 397/4/5
f 399/4/5 396/4/5 398/4/5
f 400/4/5 396/4/5 399/4/5
f 402/4/5 399/4/5 398/4/5
f 403/4/5 399/4/5 402/4/5
f 405/4/5 402/4/5 401/4/5
f 405/4/5 404/4/5 403/4/5
f 405/4/5 403/4/5 402/4/5
f 406/4/5 404/4/5 405/4/5
f 407/4/5 404/4/5 406/4/5
f 408/4/5 404/4/5 407/4/5
f 410/4/5 407/4/5 406/4/5
f 411/4/5 407/4/5 410/4/5
f 413/4/5 410/4/5 409/4/5
f 413/4/5 412/4/5 411/4/5
f 413/4/5 411/4/5 410/4/5
f 414/4/5 412/4/5 413/4/5
f 419/4/5 416/4/5 415/4/5
f 420/4/5 416/4/5 419/4/5
f 421/4/5 418/4/5 417/4/5
f 422/4/5 418/4/5 421/4/5
f 427/4/5 424/4/5 423/4/5
f 428/4/5 424/4/5 427/4/5
f 429/4/5 426/4/5 425/4/5
f 430/4/5 426/4/5 429/4/5
f 435/4/5 432/4/5 431/4/5
f 436/4/5 432/4/5 435/4/5
f 437/4/5 434/4/5 433/4/5
f 438/4/5 434/4/5 437/4/5
f 443/4/5 440/4/5 439/4/5
f 444/4/5 440/4/5 443/4/5
f 445/4/5 442/4/5 441/4/5
f 446/4/5 442/4/5 445/4/5
f 451/4/5 448/4/5 447/4/5
f 452/4/5 448/4/5 451/4/5
f 453/4/5 450/4/5 449/4/5
f 454/4/5 450/4/5 453/4/5
f 459/4/5 456/4/5 455/4/5
f 460/4/5 456/4/5 459/4/5
f 461/4/5 458/4/5 457/4/5
f 462/4/5 458/4/5 461/4/5
f 467/4/5 464/4/5 463/4/5
f 468/4/5 464/4/5 467/4/5
f 469/4/5 466/4/5 465/4/5
f 470/4/5 466/4/5 469/4/5
f 471/4/6 472/4/6 473/4/6
f 473/4/6 472/4/6 474/4/6
f 474/4/6 472/4/6 475/4/6
f 475/4/6 472/4/6 476/4/6
f 477/4/6 478/4/6 481/4/6
f 479/4/6 480/4/6 481/4/6
f 478/4/6 479/4/6 481/4/6
f 481/4/6 480/4/6 482/4/6
f 483/4/6 484/4/6 487/4/6
f 484/2/6 485/2/6 488/2/6
f 487/4/6 484/4/6 488/4/6
f 485/4/6 486/4/6 489/4/6
f 488/2/6 485/2/6 489/2/6
f 489/4/6 486/4/6 490/4/6
f 491/4/6 492/4/6 495/4/6
f 492/2/6 493/2/6 496/2/6
f 495/4/6 492/4/6 496/4/6
f 493/4/6 494/4/6 497/4/6
f 496/2/6 493/2/6 497/2/6
f 497/4/6 494/4/6 498/4/6
f 499/4/6 500/4/6 503/4/6
f 500/2/6 501/2/6 504/2/6
f 503/4/6 500/4/6 504/4/6
f 501/4/6 502/4/6 505/4/6
f 504/2/6 501/2/6 505/2/6
f 505/4/6 502/4/6 506/4/6
f 507/4/6 508/4/6 511/4/6
f 511/4/6 508/4/6 512/4/6
f 509/4/6 510/4/6 513/4/6
f 513/4/6 510/4/6 514/4/6
f 515/4/6 516/4/6 519/4/6
f 516/2/6 517/2/6 520/2/6
f 519/4/6 516/4/6 520/4/6
f 517/4/6 518/4/6 521/4/6
f 520/2/6 517/2/6 521/2/6
f 521/4/6 518/4/6 522/4/6
f 523/4/6 524/4/6 527/4/6
f 524/2/6 525/2/6 528/2/6
f 527/4/6 524/4/6 528/4/6
f 525/4/6 526/4/6 529/4/6
f 528/2/6 525/2/6 529/2/6
f 529/4/6 526/4/6 530/4/6
f 531/4/6 532/4/6 535/4/6
f 532/2/6 533/2/6 536/2/6
f 535/4/6 532/4/6 536/4/6
f 533/4/6 534/4/6 537/4/6
f 536/2/6 533/2/6 537/2/6
f 537/4/6 534/4/6 538/4/6
f 539/4/6 540/4/6 543/4/6
f 540/2/6 541/2/6 544/2/6
f 543/4/6 540/4/6 544/4/6
f 541/4/6 542/4/6 545/4/6
f 544/2/6 541/2/6 545/2/6
f 545/4/6 542/4/6 546/4/6
f 547/4/6 548/4/6 551/4/6
f 548/2/6 549/2/6 552/2/6
f 551/4/6 548/4/6 552/4/6
f 549/4/6 550/4/6 553/4/6
f 552/2/6 549/2/6 553/2/6
f 553/4/6 550/4/6 554/4/6
f 555/4/6 556/4/6 559/4/6
f 556/2/6 557/2/6 560/2/6
f 559/4/6 556/4/6 560/4/6
f 557/4/6 558/4/6 561/4/6
f 560/2/6 557/2/6 561/2/6
f 561/4/6 558/4/6 562/4/6
f 563/4/6 564/4/6 567/4/6
f 564/2/6 565/2/6 568/2/6
f 567/4/6 564/4/6 568/4/6
f 565/4/6 566/4/6 569/4/6
f 568/2/6 565/2/6 569/2/6
f 569/4/6 566/4/6 570/4/6
f 571/4/6 572/4/6 573/4/6
f 573/4/6 572/4/6 574/4/6
