# MagicaVoxel @ Ephtracy

# material
mtllib Car03.mtl
usemtl palette

# normals
vn -1 0 0
vn 1 0 0
vn 0 0 1
vn 0 0 -1
vn 0 -1 0
vn 0 1 0

# texcoords
vt 0.814453 0.5
vt 0.908203 0.5
vt 0.970703 0.5
vt 0.978516 0.5
vt 0.986328 0.5
vt 0.990234 0.5

# verts
v -7 5 10
v -7 5 9
v -7 7 10
v -7 7 9
v -5 0 16
v -5 0 12
v -5 0 7
v -5 0 -7
v -5 0 -12
v -5 0 -16
v -5 1 -15
v -5 1 -16
v -5 2 16
v -5 2 15
v -5 2 12
v -5 2 11
v -5 2 8
v -5 2 7
v -5 2 -7
v -5 2 -8
v -5 2 -11
v -5 2 -12
v -5 2 -15
v -5 2 -16
v -5 3 11
v -5 3 8
v -5 3 3
v -5 3 -0
v -5 3 -3
v -5 3 -6
v -5 3 -8
v -5 3 -11
v -5 3 -15
v -5 3 -16
v -5 4 16
v -5 4 15
v -5 4 3
v -5 4 -0
v -5 4 -3
v -5 4 -6
v -5 5 16
v -5 5 13
v -5 5 11
v -5 5 10
v -5 5 9
v -5 5 7
v -5 5 6
v -5 5 -0
v -5 5 -1
v -5 5 -6
v -5 5 -7
v -5 5 -11
v -5 5 -13
v -5 5 -16
v -5 6 13
v -5 6 12
v -5 6 11
v -5 6 10
v -5 6 -10
v -5 6 -11
v -5 6 -12
v -5 6 -13
v -5 7 12
v -5 7 11
v -5 7 10
v -5 7 9
v -5 7 -9
v -5 7 -10
v -5 7 -11
v -5 7 -12
v -5 8 11
v -5 8 10
v -5 8 9
v -5 8 8
v -5 8 -8
v -5 8 -9
v -5 8 -10
v -5 8 -11
v -5 9 10
v -5 9 9
v -5 9 8
v -5 9 7
v -5 9 -7
v -5 9 -8
v -5 9 -9
v -5 9 -10
v -5 10 9
v -5 10 8
v -5 10 6
v -5 10 -0
v -5 10 -1
v -5 10 -6
v -5 10 -8
v -5 10 -9
v -5 11 8
v -5 11 -8
v -4 0 12
v -4 0 7
v -4 0 -7
v -4 0 -12
v -4 2 12
v -4 2 11
v -4 2 8
v -4 2 7
v -4 2 -7
v -4 2 -8
v -4 2 -11
v -4 2 -12
v -4 3 11
v -4 3 8
v -4 3 -8
v -4 3 -11
v 4 0 12
v 4 0 7
v 4 0 -7
v 4 0 -12
v 4 2 12
v 4 2 11
v 4 2 8
v 4 2 7
v 4 2 -7
v 4 2 -8
v 4 2 -11
v 4 2 -12
v 4 3 11
v 4 3 8
v 4 3 -8
v 4 3 -11
v 5 0 16
v 5 0 12
v 5 0 7
v 5 0 -7
v 5 0 -12
v 5 0 -16
v 5 1 -15
v 5 1 -16
v 5 2 16
v 5 2 15
v 5 2 12
v 5 2 11
v 5 2 8
v 5 2 7
v 5 2 -7
v 5 2 -8
v 5 2 -11
v 5 2 -12
v 5 2 -15
v 5 2 -16
v 5 3 11
v 5 3 8
v 5 3 3
v 5 3 -0
v 5 3 -3
v 5 3 -6
v 5 3 -8
v 5 3 -11
v 5 3 -15
v 5 3 -16
v 5 4 16
v 5 4 15
v 5 4 3
v 5 4 -0
v 5 4 -3
v 5 4 -6
v 5 5 16
v 5 5 13
v 5 5 11
v 5 5 10
v 5 5 9
v 5 5 7
v 5 5 6
v 5 5 -0
v 5 5 -1
v 5 5 -6
v 5 5 -7
v 5 5 -11
v 5 5 -13
v 5 5 -16
v 5 6 13
v 5 6 12
v 5 6 11
v 5 6 10
v 5 6 -10
v 5 6 -11
v 5 6 -12
v 5 6 -13
v 5 7 12
v 5 7 11
v 5 7 10
v 5 7 9
v 5 7 -9
v 5 7 -10
v 5 7 -11
v 5 7 -12
v 5 8 11
v 5 8 10
v 5 8 9
v 5 8 8
v 5 8 -8
v 5 8 -9
v 5 8 -10
v 5 8 -11
v 5 9 10
v 5 9 9
v 5 9 8
v 5 9 7
v 5 9 -7
v 5 9 -8
v 5 9 -9
v 5 9 -10
v 5 10 9
v 5 10 8
v 5 10 6
v 5 10 -0
v 5 10 -1
v 5 10 -6
v 5 10 -8
v 5 10 -9
v 5 11 8
v 5 11 -8
v 7 5 10
v 7 5 9
v 7 7 10
v 7 7 9
v -5 0 16
v -5 2 16
v -5 4 16
v -5 5 16
v -4 1 16
v -4 2 16
v -4 4 16
v 4 1 16
v 4 2 16
v 4 4 16
v 5 0 16
v 5 2 16
v 5 4 16
v 5 5 16
v -5 5 13
v -5 6 13
v -4 5 13
v -4 6 13
v 4 5 13
v 4 6 13
v 5 5 13
v 5 6 13
v -5 6 12
v -5 7 12
v -4 6 12
v -4 7 12
v 4 6 12
v 4 7 12
v 5 6 12
v 5 7 12
v -5 7 11
v -5 8 11
v -4 7 11
v -4 8 11
v 4 7 11
v 4 8 11
v 5 7 11
v 5 8 11
v -7 5 10
v -7 7 10
v -5 5 10
v -5 6 10
v -5 7 10
v -5 8 10
v -5 9 10
v -4 8 10
v -4 9 10
v 4 8 10
v 4 9 10
v 5 5 10
v 5 6 10
v 5 7 10
v 5 8 10
v 5 9 10
v 7 5 10
v 7 7 10
v -5 9 9
v -5 10 9
v -4 9 9
v -4 10 9
v 4 9 9
v 4 10 9
v 5 9 9
v 5 10 9
v -5 2 8
v -5 3 8
v -5 10 8
v -5 11 8
v -4 2 8
v -4 3 8
v -4 10 8
v 4 2 8
v 4 3 8
v 4 10 8
v 5 2 8
v 5 3 8
v 5 10 8
v 5 11 8
v -5 0 7
v -5 2 7
v -4 0 7
v -4 2 7
v 4 0 7
v 4 2 7
v 5 0 7
v 5 2 7
v -5 2 -11
v -5 3 -11
v -4 2 -11
v -4 3 -11
v 4 2 -11
v 4 3 -11
v 5 2 -11
v 5 3 -11
v -5 0 -12
v -5 2 -12
v -4 0 -12
v -4 2 -12
v 4 0 -12
v 4 2 -12
v 5 0 -12
v 5 2 -12
v -5 0 12
v -5 2 12
v -4 0 12
v -4 2 12
v 4 0 12
v 4 2 12
v 5 0 12
v 5 2 12
v -5 2 11
v -5 3 11
v -4 2 11
v -4 3 11
v 4 2 11
v 4 3 11
v 5 2 11
v 5 3 11
v -7 5 9
v -7 7 9
v -5 5 9
v -5 7 9
v 5 5 9
v 5 7 9
v 7 5 9
v 7 7 9
v -5 0 -7
v -5 2 -7
v -4 0 -7
v -4 2 -7
v 4 0 -7
v 4 2 -7
v 5 0 -7
v 5 2 -7
v -5 2 -8
v -5 3 -8
v -5 10 -8
v -5 11 -8
v -4 2 -8
v -4 3 -8
v -4 10 -8
v 4 2 -8
v 4 3 -8
v 4 10 -8
v 5 2 -8
v 5 3 -8
v 5 10 -8
v 5 11 -8
v -5 9 -9
v -5 10 -9
v -4 9 -9
v -4 10 -9
v 4 9 -9
v 4 10 -9
v 5 9 -9
v 5 10 -9
v -5 8 -10
v -5 9 -10
v -4 8 -10
v -4 9 -10
v 4 8 -10
v 4 9 -10
v 5 8 -10
v 5 9 -10
v -5 7 -11
v -5 8 -11
v -4 7 -11
v -4 8 -11
v 4 7 -11
v 4 8 -11
v 5 7 -11
v 5 8 -11
v -5 6 -12
v -5 7 -12
v -4 6 -12
v -4 7 -12
v 4 6 -12
v 4 7 -12
v 5 6 -12
v 5 7 -12
v -5 5 -13
v -5 6 -13
v -4 5 -13
v -4 6 -13
v 4 5 -13
v 4 6 -13
v 5 5 -13
v 5 6 -13
v -5 0 -16
v -5 1 -16
v -5 2 -16
v -5 3 -16
v -5 5 -16
v -4 1 -16
v -4 2 -16
v -4 3 -16
v -2 2 -16
v -2 3 -16
v 2 2 -16
v 2 3 -16
v 4 1 -16
v 4 2 -16
v 4 3 -16
v 5 0 -16
v 5 1 -16
v 5 2 -16
v 5 3 -16
v 5 5 -16
v -5 0 16
v 5 0 16
v -5 0 12
v -4 0 12
v 4 0 12
v 5 0 12
v -5 0 7
v -4 0 7
v 4 0 7
v 5 0 7
v -5 0 -7
v -4 0 -7
v 4 0 -7
v 5 0 -7
v -5 0 -12
v -4 0 -12
v 4 0 -12
v 5 0 -12
v -5 0 -16
v 5 0 -16
v -5 2 12
v -4 2 12
v 4 2 12
v 5 2 12
v -5 2 11
v -4 2 11
v 4 2 11
v 5 2 11
v -5 2 8
v -4 2 8
v 4 2 8
v 5 2 8
v -5 2 7
v -4 2 7
v 4 2 7
v 5 2 7
v -5 2 -7
v -4 2 -7
v 4 2 -7
v 5 2 -7
v -5 2 -8
v -4 2 -8
v 4 2 -8
v 5 2 -8
v -5 2 -11
v -4 2 -11
v 4 2 -11
v 5 2 -11
v -5 2 -12
v -4 2 -12
v 4 2 -12
v 5 2 -12
v -5 3 11
v -4 3 11
v 4 3 11
v 5 3 11
v -5 3 8
v -4 3 8
v 4 3 8
v 5 3 8
v -5 3 -8
v -4 3 -8
v 4 3 -8
v 5 3 -8
v -5 3 -11
v -4 3 -11
v 4 3 -11
v 5 3 -11
v -7 5 10
v -5 5 10
v 5 5 10
v 7 5 10
v -7 5 9
v -5 5 9
v 5 5 9
v 7 5 9
v -5 5 16
v 5 5 16
v -5 5 13
v -4 5 13
v 4 5 13
v 5 5 13
v -5 5 -13
v -4 5 -13
v 4 5 -13
v 5 5 -13
v -5 5 -16
v 5 5 -16
v -5 6 13
v -4 6 13
v 4 6 13
v 5 6 13
v -5 6 12
v -4 6 12
v 4 6 12
v 5 6 12
v -5 6 -12
v -4 6 -12
v 4 6 -12
v 5 6 -12
v -5 6 -13
v -4 6 -13
v 4 6 -13
v 5 6 -13
v -5 7 12
v -4 7 12
v 4 7 12
v 5 7 12
v -5 7 11
v -4 7 11
v 4 7 11
v 5 7 11
v -7 7 10
v -5 7 10
v 5 7 10
v 7 7 10
v -7 7 9
v -5 7 9
v 5 7 9
v 7 7 9
v -5 7 -11
v -4 7 -11
v 4 7 -11
v 5 7 -11
v -5 7 -12
v -4 7 -12
v 4 7 -12
v 5 7 -12
v -5 8 11
v -4 8 11
v 4 8 11
v 5 8 11
v -5 8 10
v -4 8 10
v 4 8 10
v 5 8 10
v -5 8 -10
v -4 8 -10
v 4 8 -10
v 5 8 -10
v -5 8 -11
v -4 8 -11
v 4 8 -11
v 5 8 -11
v -5 9 10
v -4 9 10
v 4 9 10
v 5 9 10
v -5 9 9
v -4 9 9
v 4 9 9
v 5 9 9
v -5 9 -9
v -4 9 -9
v 4 9 -9
v 5 9 -9
v -5 9 -10
v -4 9 -10
v 4 9 -10
v 5 9 -10
v -5 10 9
v -4 10 9
v 4 10 9
v 5 10 9
v -5 10 8
v -4 10 8
v 4 10 8
v 5 10 8
v -5 10 -8
v -4 10 -8
v 4 10 -8
v 5 10 -8
v -5 10 -9
v -4 10 -9
v 4 10 -9
v 5 10 -9
v -5 11 8
v 5 11 8
v -5 11 -8
v 5 11 -8

# faces
f 3/1/1 2/1/1 1/1/1
f 4/1/1 2/1/1 3/1/1
f 11/1/1 10/1/1 9/1/1
f 12/1/1 10/1/1 11/1/1
f 13/1/1 6/1/1 5/1/1
f 14/1/1 6/1/1 13/1/1
f 15/1/1 6/1/1 14/1/1
f 18/1/1 8/1/1 7/1/1
f 19/1/1 8/1/1 18/1/1
f 22/1/1 11/1/1 9/1/1
f 23/2/1 12/2/1 11/2/1
f 23/1/1 11/1/1 22/1/1
f 24/2/1 12/2/1 23/2/1
f 25/1/1 16/1/1 15/1/1
f 25/1/1 15/1/1 14/1/1
f 26/1/1 20/1/1 19/1/1
f 26/1/1 18/1/1 17/1/1
f 26/1/1 19/1/1 18/1/1
f 27/1/1 20/1/1 26/1/1
f 28/1/1 20/1/1 27/1/1
f 29/1/1 20/1/1 28/1/1
f 30/1/1 20/1/1 29/1/1
f 31/1/1 20/1/1 30/1/1
f 32/1/1 22/1/1 21/1/1
f 32/1/1 23/1/1 22/1/1
f 33/3/1 24/3/1 23/3/1
f 33/1/1 23/1/1 32/1/1
f 34/3/1 24/3/1 33/3/1
f 35/2/1 14/2/1 13/2/1
f 36/1/1 25/1/1 14/1/1
f 36/2/1 14/2/1 35/2/1
f 36/1/1 26/1/1 25/1/1
f 36/1/1 27/1/1 26/1/1
f 37/5/1 28/5/1 27/5/1
f 37/1/1 27/1/1 36/1/1
f 38/1/1 29/1/1 28/1/1
f 38/5/1 28/5/1 37/5/1
f 39/5/1 30/5/1 29/5/1
f 39/1/1 29/1/1 38/1/1
f 40/1/1 31/1/1 30/1/1
f 40/5/1 30/5/1 39/5/1
f 40/1/1 32/1/1 31/1/1
f 40/1/1 34/1/1 33/1/1
f 40/1/1 33/1/1 32/1/1
f 41/1/1 39/1/1 38/1/1
f 41/1/1 38/1/1 37/1/1
f 41/1/1 40/1/1 39/1/1
f 41/1/1 36/1/1 35/1/1
f 41/1/1 37/1/1 36/1/1
f 42/1/1 40/1/1 41/1/1
f 43/1/1 40/1/1 42/1/1
f 44/1/1 40/1/1 43/1/1
f 45/1/1 40/1/1 44/1/1
f 46/1/1 40/1/1 45/1/1
f 47/1/1 40/1/1 46/1/1
f 48/1/1 40/1/1 47/1/1
f 49/1/1 40/1/1 48/1/1
f 50/1/1 34/1/1 40/1/1
f 50/1/1 40/1/1 49/1/1
f 51/1/1 34/1/1 50/1/1
f 52/1/1 34/1/1 51/1/1
f 53/1/1 34/1/1 52/1/1
f 54/1/1 34/1/1 53/1/1
f 55/1/1 43/1/1 42/1/1
f 56/1/1 43/1/1 55/1/1
f 57/4/1 44/4/1 43/4/1
f 57/1/1 43/1/1 56/1/1
f 58/4/1 44/4/1 57/4/1
f 59/4/1 52/4/1 51/4/1
f 60/1/1 53/1/1 52/1/1
f 60/4/1 52/4/1 59/4/1
f 61/1/1 53/1/1 60/1/1
f 62/1/1 53/1/1 61/1/1
f 63/1/1 58/1/1 57/1/1
f 63/1/1 57/1/1 56/1/1
f 64/1/1 58/1/1 63/1/1
f 65/1/1 58/1/1 64/1/1
f 66/4/1 46/4/1 45/4/1
f 67/4/1 59/4/1 51/4/1
f 68/1/1 61/1/1 60/1/1
f 68/4/1 59/4/1 67/4/1
f 68/1/1 60/1/1 59/1/1
f 69/1/1 61/1/1 68/1/1
f 70/1/1 61/1/1 69/1/1
f 71/1/1 66/1/1 65/1/1
f 71/1/1 65/1/1 64/1/1
f 72/1/1 66/1/1 71/1/1
f 73/4/1 46/4/1 66/4/1
f 73/1/1 66/1/1 72/1/1
f 74/4/1 46/4/1 73/4/1
f 75/4/1 67/4/1 51/4/1
f 76/1/1 69/1/1 68/1/1
f 76/4/1 67/4/1 75/4/1
f 76/1/1 68/1/1 67/1/1
f 77/1/1 69/1/1 76/1/1
f 78/1/1 69/1/1 77/1/1
f 79/1/1 74/1/1 73/1/1
f 79/1/1 73/1/1 72/1/1
f 80/1/1 74/1/1 79/1/1
f 81/4/1 46/4/1 74/4/1
f 81/1/1 74/1/1 80/1/1
f 82/1/1 47/1/1 46/1/1
f 82/4/1 46/4/1 81/4/1
f 83/4/1 75/4/1 51/4/1
f 83/1/1 51/1/1 50/1/1
f 84/1/1 77/1/1 76/1/1
f 84/4/1 75/4/1 83/4/1
f 84/1/1 76/1/1 75/1/1
f 85/1/1 77/1/1 84/1/1
f 86/1/1 77/1/1 85/1/1
f 87/1/1 81/1/1 80/1/1
f 87/1/1 82/1/1 81/1/1
f 88/1/1 82/1/1 87/1/1
f 89/1/1 47/1/1 82/1/1
f 89/1/1 82/1/1 88/1/1
f 89/4/1 48/4/1 47/4/1
f 90/1/1 49/1/1 48/1/1
f 90/4/1 48/4/1 89/4/1
f 91/4/1 50/4/1 49/4/1
f 91/1/1 49/1/1 90/1/1
f 92/1/1 85/1/1 84/1/1
f 92/4/1 50/4/1 91/4/1
f 92/1/1 84/1/1 83/1/1
f 92/1/1 83/1/1 50/1/1
f 93/1/1 85/1/1 92/1/1
f 94/1/1 85/1/1 93/1/1
f 95/1/1 89/1/1 88/1/1
f 95/1/1 93/1/1 92/1/1
f 95/1/1 92/1/1 91/1/1
f 95/1/1 91/1/1 90/1/1
f 95/1/1 90/1/1 89/1/1
f 96/1/1 93/1/1 95/1/1
f 101/1/1 98/1/1 97/1/1
f 102/1/1 98/1/1 101/1/1
f 103/1/1 98/1/1 102/1/1
f 104/1/1 98/1/1 103/1/1
f 105/1/1 100/1/1 99/1/1
f 106/1/1 100/1/1 105/1/1
f 107/1/1 100/1/1 106/1/1
f 108/1/1 100/1/1 107/1/1
f 109/1/1 103/1/1 102/1/1
f 110/1/1 103/1/1 109/1/1
f 111/1/1 107/1/1 106/1/1
f 112/1/1 107/1/1 111/1/1
f 113/1/2 114/1/2 117/1/2
f 117/1/2 114/1/2 118/1/2
f 118/1/2 114/1/2 119/1/2
f 119/1/2 114/1/2 120/1/2
f 115/1/2 116/1/2 121/1/2
f 121/1/2 116/1/2 122/1/2
f 122/1/2 116/1/2 123/1/2
f 123/1/2 116/1/2 124/1/2
f 118/1/2 119/1/2 125/1/2
f 125/1/2 119/1/2 126/1/2
f 122/1/2 123/1/2 127/1/2
f 127/1/2 123/1/2 128/1/2
f 133/1/2 134/1/2 135/1/2
f 135/1/2 134/1/2 136/1/2
f 129/1/2 130/1/2 137/1/2
f 137/1/2 130/1/2 138/1/2
f 138/1/2 130/1/2 139/1/2
f 131/1/2 132/1/2 142/1/2
f 142/1/2 132/1/2 143/1/2
f 133/1/2 135/1/2 146/1/2
f 135/2/2 136/2/2 147/2/2
f 146/1/2 135/1/2 147/1/2
f 147/2/2 136/2/2 148/2/2
f 139/1/2 140/1/2 149/1/2
f 138/1/2 139/1/2 149/1/2
f 143/1/2 144/1/2 150/1/2
f 141/1/2 142/1/2 150/1/2
f 142/1/2 143/1/2 150/1/2
f 150/1/2 144/1/2 151/1/2
f 151/1/2 144/1/2 152/1/2
f 152/1/2 144/1/2 153/1/2
f 153/1/2 144/1/2 154/1/2
f 154/1/2 144/1/2 155/1/2
f 145/1/2 146/1/2 156/1/2
f 146/1/2 147/1/2 156/1/2
f 147/3/2 148/3/2 157/3/2
f 156/1/2 147/1/2 157/1/2
f 157/3/2 148/3/2 158/3/2
f 137/2/2 138/2/2 159/2/2
f 138/1/2 149/1/2 160/1/2
f 159/2/2 138/2/2 160/2/2
f 149/1/2 150/1/2 160/1/2
f 150/1/2 151/1/2 160/1/2
f 151/5/2 152/5/2 161/5/2
f 160/1/2 151/1/2 161/1/2
f 152/1/2 153/1/2 162/1/2
f 161/5/2 152/5/2 162/5/2
f 153/5/2 154/5/2 163/5/2
f 162/1/2 153/1/2 163/1/2
f 154/1/2 155/1/2 164/1/2
f 163/5/2 154/5/2 164/5/2
f 155/1/2 156/1/2 164/1/2
f 157/1/2 158/1/2 164/1/2
f 156/1/2 157/1/2 164/1/2
f 162/1/2 163/1/2 165/1/2
f 161/1/2 162/1/2 165/1/2
f 163/1/2 164/1/2 165/1/2
f 159/1/2 160/1/2 165/1/2
f 160/1/2 161/1/2 165/1/2
f 165/1/2 164/1/2 166/1/2
f 166/1/2 164/1/2 167/1/2
f 167/1/2 164/1/2 168/1/2
f 168/1/2 164/1/2 169/1/2
f 169/1/2 164/1/2 170/1/2
f 170/1/2 164/1/2 171/1/2
f 171/1/2 164/1/2 172/1/2
f 172/1/2 164/1/2 173/1/2
f 164/1/2 158/1/2 174/1/2
f 173/1/2 164/1/2 174/1/2
f 174/1/2 158/1/2 175/1/2
f 175/1/2 158/1/2 176/1/2
f 176/1/2 158/1/2 177/1/2
f 177/1/2 158/1/2 178/1/2
f 166/1/2 167/1/2 179/1/2
f 179/1/2 167/1/2 180/1/2
f 167/4/2 168/4/2 181/4/2
f 180/1/2 167/1/2 181/1/2
f 181/4/2 168/4/2 182/4/2
f 175/4/2 176/4/2 183/4/2
f 176/1/2 177/1/2 184/1/2
f 183/4/2 176/4/2 184/4/2
f 184/1/2 177/1/2 185/1/2
f 185/1/2 177/1/2 186/1/2
f 181/1/2 182/1/2 187/1/2
f 180/1/2 181/1/2 187/1/2
f 187/1/2 182/1/2 188/1/2
f 188/1/2 182/1/2 189/1/2
f 169/4/2 170/4/2 190/4/2
f 175/4/2 183/4/2 191/4/2
f 184/1/2 185/1/2 192/1/2
f 191/4/2 183/4/2 192/4/2
f 183/1/2 184/1/2 192/1/2
f 192/1/2 185/1/2 193/1/2
f 193/1/2 185/1/2 194/1/2
f 189/1/2 190/1/2 195/1/2
f 188/1/2 189/1/2 195/1/2
f 195/1/2 190/1/2 196/1/2
f 190/4/2 170/4/2 197/4/2
f 196/1/2 190/1/2 197/1/2
f 197/4/2 170/4/2 198/4/2
f 175/4/2 191/4/2 199/4/2
f 192/1/2 193/1/2 200/1/2
f 199/4/2 191/4/2 200/4/2
f 191/1/2 192/1/2 200/1/2
f 200/1/2 193/1/2 201/1/2
f 201/1/2 193/1/2 202/1/2
f 197/1/2 198/1/2 203/1/2
f 196/1/2 197/1/2 203/1/2
f 203/1/2 198/1/2 204/1/2
f 198/4/2 170/4/2 205/4/2
f 204/1/2 198/1/2 205/1/2
f 170/1/2 171/1/2 206/1/2
f 205/4/2 170/4/2 206/4/2
f 175/4/2 199/4/2 207/4/2
f 174/1/2 175/1/2 207/1/2
f 200/1/2 201/1/2 208/1/2
f 207/4/2 199/4/2 208/4/2
f 199/1/2 200/1/2 208/1/2
f 208/1/2 201/1/2 209/1/2
f 209/1/2 201/1/2 210/1/2
f 204/1/2 205/1/2 211/1/2
f 205/1/2 206/1/2 211/1/2
f 211/1/2 206/1/2 212/1/2
f 206/1/2 171/1/2 213/1/2
f 212/1/2 206/1/2 213/1/2
f 171/4/2 172/4/2 213/4/2
f 172/1/2 173/1/2 214/1/2
f 213/4/2 172/4/2 214/4/2
f 173/4/2 174/4/2 215/4/2
f 214/1/2 173/1/2 215/1/2
f 208/1/2 209/1/2 216/1/2
f 215/4/2 174/4/2 216/4/2
f 207/1/2 208/1/2 216/1/2
f 174/1/2 207/1/2 216/1/2
f 216/1/2 209/1/2 217/1/2
f 217/1/2 209/1/2 218/1/2
f 212/1/2 213/1/2 219/1/2
f 216/1/2 217/1/2 219/1/2
f 215/1/2 216/1/2 219/1/2
f 214/1/2 215/1/2 219/1/2
f 213/1/2 214/1/2 219/1/2
f 219/1/2 217/1/2 220/1/2
f 221/1/2 222/1/2 223/1/2
f 223/1/2 222/1/2 224/1/2
f 229/1/3 226/1/3 225/1/3
f 230/2/3 227/2/3 226/2/3
f 230/1/3 226/1/3 229/1/3
f 231/1/3 228/1/3 227/1/3
f 231/2/3 227/2/3 230/2/3
f 232/3/3 230/3/3 229/3/3
f 232/1/3 229/1/3 225/1/3
f 232/3/3 231/3/3 230/3/3
f 233/3/3 231/3/3 232/3/3
f 234/1/3 228/1/3 231/1/3
f 234/3/3 231/3/3 233/3/3
f 235/1/3 233/1/3 232/1/3
f 235/1/3 232/1/3 225/1/3
f 236/2/3 234/2/3 233/2/3
f 236/1/3 233/1/3 235/1/3
f 237/1/3 228/1/3 234/1/3
f 237/2/3 234/2/3 236/2/3
f 238/1/3 228/1/3 237/1/3
f 241/1/3 240/1/3 239/1/3
f 242/1/3 240/1/3 241/1/3
f 243/4/3 242/4/3 241/4/3
f 244/4/3 242/4/3 243/4/3
f 245/1/3 244/1/3 243/1/3
f 246/1/3 244/1/3 245/1/3
f 249/1/3 248/1/3 247/1/3
f 250/1/3 248/1/3 249/1/3
f 251/4/3 250/4/3 249/4/3
f 252/4/3 250/4/3 251/4/3
f 253/1/3 252/1/3 251/1/3
f 254/1/3 252/1/3 253/1/3
f 257/1/3 256/1/3 255/1/3
f 258/1/3 256/1/3 257/1/3
f 259/4/3 258/4/3 257/4/3
f 260/4/3 258/4/3 259/4/3
f 261/1/3 260/1/3 259/1/3
f 262/1/3 260/1/3 261/1/3
f 265/1/3 264/1/3 263/1/3
f 266/1/3 264/1/3 265/1/3
f 267/1/3 264/1/3 266/1/3
f 270/1/3 269/1/3 268/1/3
f 271/1/3 269/1/3 270/1/3
f 272/4/3 271/4/3 270/4/3
f 273/4/3 271/4/3 272/4/3
f 277/1/3 273/1/3 272/1/3
f 278/1/3 273/1/3 277/1/3
f 279/1/3 276/1/3 275/1/3
f 279/1/3 275/1/3 274/1/3
f 280/1/3 276/1/3 279/1/3
f 283/1/3 282/1/3 281/1/3
f 284/1/3 282/1/3 283/1/3
f 285/4/3 284/4/3 283/4/3
f 286/4/3 284/4/3 285/4/3
f 287/1/3 286/1/3 285/1/3
f 288/1/3 286/1/3 287/1/3
f 293/1/3 290/1/3 289/1/3
f 294/1/3 290/1/3 293/1/3
f 295/1/3 292/1/3 291/1/3
f 298/1/3 292/1/3 295/1/3
f 299/1/3 297/1/3 296/1/3
f 300/1/3 297/1/3 299/1/3
f 301/1/3 292/1/3 298/1/3
f 302/1/3 292/1/3 301/1/3
f 305/1/3 304/1/3 303/1/3
f 306/1/3 304/1/3 305/1/3
f 309/1/3 308/1/3 307/1/3
f 310/1/3 308/1/3 309/1/3
f 313/1/3 312/1/3 311/1/3
f 314/1/3 312/1/3 313/1/3
f 317/1/3 316/1/3 315/1/3
f 318/1/3 316/1/3 317/1/3
f 321/1/3 320/1/3 319/1/3
f 322/1/3 320/1/3 321/1/3
f 325/1/3 324/1/3 323/1/3
f 326/1/3 324/1/3 325/1/3
f 327/1/4 328/1/4 329/1/4
f 329/1/4 328/1/4 330/1/4
f 331/1/4 332/1/4 333/1/4
f 333/1/4 332/1/4 334/1/4
f 335/1/4 336/1/4 337/1/4
f 337/1/4 336/1/4 338/1/4
f 339/1/4 340/1/4 341/1/4
f 341/1/4 340/1/4 342/1/4
f 343/1/4 344/1/4 345/1/4
f 345/1/4 344/1/4 346/1/4
f 347/1/4 348/1/4 349/1/4
f 349/1/4 348/1/4 350/1/4
f 351/1/4 352/1/4 353/1/4
f 353/1/4 352/1/4 354/1/4
f 355/1/4 356/1/4 357/1/4
f 357/1/4 356/1/4 358/1/4
f 359/1/4 360/1/4 363/1/4
f 363/1/4 360/1/4 364/1/4
f 361/1/4 362/1/4 365/1/4
f 365/1/4 362/1/4 368/1/4
f 366/1/4 367/1/4 369/1/4
f 369/1/4 367/1/4 370/1/4
f 368/1/4 362/1/4 371/1/4
f 371/1/4 362/1/4 372/1/4
f 373/1/4 374/1/4 375/1/4
f 375/1/4 374/1/4 376/1/4
f 375/4/4 376/4/4 377/4/4
f 377/4/4 376/4/4 378/4/4
f 377/1/4 378/1/4 379/1/4
f 379/1/4 378/1/4 380/1/4
f 381/1/4 382/1/4 383/1/4
f 383/1/4 382/1/4 384/1/4
f 383/4/4 384/4/4 385/4/4
f 385/4/4 384/4/4 386/4/4
f 385/1/4 386/1/4 387/1/4
f 387/1/4 386/1/4 388/1/4
f 389/1/4 390/1/4 391/1/4
f 391/1/4 390/1/4 392/1/4
f 391/4/4 392/4/4 393/4/4
f 393/4/4 392/4/4 394/4/4
f 393/1/4 394/1/4 395/1/4
f 395/1/4 394/1/4 396/1/4
f 397/1/4 398/1/4 399/1/4
f 399/1/4 398/1/4 400/1/4
f 399/4/4 400/4/4 401/4/4
f 401/4/4 400/4/4 402/4/4
f 401/1/4 402/1/4 403/1/4
f 403/1/4 402/1/4 404/1/4
f 405/1/4 406/1/4 407/1/4
f 407/1/4 406/1/4 408/1/4
f 407/4/4 408/4/4 409/4/4
f 409/4/4 408/4/4 410/4/4
f 409/1/4 410/1/4 411/1/4
f 411/1/4 410/1/4 412/1/4
f 413/1/4 414/1/4 418/1/4
f 414/2/4 415/2/4 418/2/4
f 415/3/4 416/3/4 419/3/4
f 418/2/4 415/2/4 419/2/4
f 416/1/4 417/1/4 420/1/4
f 419/3/4 416/3/4 420/3/4
f 418/1/4 419/1/4 421/1/4
f 419/1/4 420/1/4 421/1/4
f 420/1/4 417/1/4 422/1/4
f 421/1/4 420/1/4 422/1/4
f 418/1/4 421/1/4 423/1/4
f 421/5/4 422/5/4 423/5/4
f 422/1/4 417/1/4 424/1/4
f 423/5/4 422/5/4 424/5/4
f 418/1/4 423/1/4 425/1/4
f 413/1/4 418/1/4 425/1/4
f 423/1/4 424/1/4 425/1/4
f 425/1/4 424/1/4 426/1/4
f 424/1/4 417/1/4 427/1/4
f 426/1/4 424/1/4 427/1/4
f 413/1/4 425/1/4 428/1/4
f 425/2/4 426/2/4 429/2/4
f 428/1/4 425/1/4 429/1/4
f 426/3/4 427/3/4 430/3/4
f 429/2/4 426/2/4 430/2/4
f 427/1/4 417/1/4 431/1/4
f 430/3/4 427/3/4 431/3/4
f 431/1/4 417/1/4 432/1/4
f 435/1/5 434/1/5 433/1/5
f 436/1/5 434/1/5 435/1/5
f 437/1/5 434/1/5 436/1/5
f 438/1/5 434/1/5 437/1/5
f 440/1/5 437/1/5 436/1/5
f 441/1/5 437/1/5 440/1/5
f 443/1/5 440/1/5 439/1/5
f 443/1/5 442/1/5 441/1/5
f 443/1/5 441/1/5 440/1/5
f 444/1/5 442/1/5 443/1/5
f 445/1/5 442/1/5 444/1/5
f 446/1/5 442/1/5 445/1/5
f 448/1/5 445/1/5 444/1/5
f 449/1/5 445/1/5 448/1/5
f 451/1/5 448/1/5 447/1/5
f 451/1/5 450/1/5 449/1/5
f 451/1/5 449/1/5 448/1/5
f 452/1/5 450/1/5 451/1/5
f 457/1/5 454/1/5 453/1/5
f 458/1/5 454/1/5 457/1/5
f 459/1/5 456/1/5 455/1/5
f 460/1/5 456/1/5 459/1/5
f 465/1/5 462/1/5 461/1/5
f 466/1/5 462/1/5 465/1/5
f 467/1/5 464/1/5 463/1/5
f 468/1/5 464/1/5 467/1/5
f 473/1/5 470/1/5 469/1/5
f 474/1/5 470/1/5 473/1/5
f 475/1/5 472/1/5 471/1/5
f 476/1/5 472/1/5 475/1/5
f 481/1/5 478/1/5 477/1/5
f 482/1/5 478/1/5 481/1/5
f 483/1/5 480/1/5 479/1/5
f 484/1/5 480/1/5 483/1/5
f 489/1/5 486/1/5 485/1/5
f 490/1/5 486/1/5 489/1/5
f 491/1/5 488/1/5 487/1/5
f 492/1/5 488/1/5 491/1/5
f 497/1/5 494/1/5 493/1/5
f 498/1/5 494/1/5 497/1/5
f 499/1/5 496/1/5 495/1/5
f 500/1/5 496/1/5 499/1/5
f 505/1/5 502/1/5 501/1/5
f 506/1/5 502/1/5 505/1/5
f 507/1/5 504/1/5 503/1/5
f 508/1/5 504/1/5 507/1/5
f 509/1/6 510/1/6 511/1/6
f 511/1/6 510/1/6 512/1/6
f 512/1/6 510/1/6 513/1/6
f 513/1/6 510/1/6 514/1/6
f 515/1/6 516/1/6 519/1/6
f 517/1/6 518/1/6 519/1/6
f 516/1/6 517/1/6 519/1/6
f 519/1/6 518/1/6 520/1/6
f 521/1/6 522/1/6 525/1/6
f 522/4/6 523/4/6 526/4/6
f 525/1/6 522/1/6 526/1/6
f 523/1/6 524/1/6 527/1/6
f 526/4/6 523/4/6 527/4/6
f 527/1/6 524/1/6 528/1/6
f 529/1/6 530/1/6 533/1/6
f 530/4/6 531/4/6 534/4/6
f 533/1/6 530/1/6 534/1/6
f 531/1/6 532/1/6 535/1/6
f 534/4/6 531/4/6 535/4/6
f 535/1/6 532/1/6 536/1/6
f 537/1/6 538/1/6 541/1/6
f 538/4/6 539/4/6 542/4/6
f 541/1/6 538/1/6 542/1/6
f 539/1/6 540/1/6 543/1/6
f 542/4/6 539/4/6 543/4/6
f 543/1/6 540/1/6 544/1/6
f 545/1/6 546/1/6 549/1/6
f 549/1/6 546/1/6 550/1/6
f 547/1/6 548/1/6 551/1/6
f 551/1/6 548/1/6 552/1/6
f 553/1/6 554/1/6 557/1/6
f 554/4/6 555/4/6 558/4/6
f 557/1/6 554/1/6 558/1/6
f 555/1/6 556/1/6 559/1/6
f 558/4/6 555/4/6 559/4/6
f 559/1/6 556/1/6 560/1/6
f 561/1/6 562/1/6 565/1/6
f 562/4/6 563/4/6 566/4/6
f 565/1/6 562/1/6 566/1/6
f 563/1/6 564/1/6 567/1/6
f 566/4/6 563/4/6 567/4/6
f 567/1/6 564/1/6 568/1/6
f 569/1/6 570/1/6 573/1/6
f 570/4/6 571/4/6 574/4/6
f 573/1/6 570/1/6 574/1/6
f 571/1/6 572/1/6 575/1/6
f 574/4/6 571/4/6 575/4/6
f 575/1/6 572/1/6 576/1/6
f 577/1/6 578/1/6 581/1/6
f 578/4/6 579/4/6 582/4/6
f 581/1/6 578/1/6 582/1/6
f 579/1/6 580/1/6 583/1/6
f 582/4/6 579/4/6 583/4/6
f 583/1/6 580/1/6 584/1/6
f 585/1/6 586/1/6 589/1/6
f 586/4/6 587/4/6 590/4/6
f 589/1/6 586/1/6 590/1/6
f 587/1/6 588/1/6 591/1/6
f 590/4/6 587/4/6 591/4/6
f 591/1/6 588/1/6 592/1/6
f 593/1/6 594/1/6 597/1/6
f 594/4/6 595/4/6 598/4/6
f 597/1/6 594/1/6 598/1/6
f 595/1/6 596/1/6 599/1/6
f 598/4/6 595/4/6 599/4/6
f 599/1/6 596/1/6 600/1/6
f 601/1/6 602/1/6 605/1/6
f 602/4/6 603/4/6 606/4/6
f 605/1/6 602/1/6 606/1/6
f 603/1/6 604/1/6 607/1/6
f 606/4/6 603/4/6 607/4/6
f 607/1/6 604/1/6 608/1/6
f 609/1/6 610/1/6 611/1/6
f 611/1/6 610/1/6 612/1/6
