# MagicaVoxel @ Ephtracy

# material
mtllib Crane01.mtl
usemtl palette

# normals
vn -1 0 0
vn 1 0 0
vn 0 0 1
vn 0 0 -1
vn 0 -1 0
vn 0 1 0

# texcoords
vt 0.787109 0.5
vt 0.794922 0.5
vt 0.814453 0.5
vt 0.818359 0.5
vt 0.849609 0.5
vt 0.912109 0.5
vt 0.970703 0.5
vt 0.982422 0.5
vt 0.986328 0.5
vt 0.990234 0.5

# verts
v -8 3 1
v -8 3 -19
v -8 4 -0
v -8 4 -19
v -8 8 1
v -8 8 -0
v -7 0 19
v -7 0 12
v -7 0 7
v -7 0 4
v -7 0 3
v -7 0 -5
v -7 0 -10
v -7 0 -11
v -7 0 -16
v -7 0 -18
v -7 0 -19
v -7 1 19
v -7 1 18
v -7 1 -18
v -7 1 -19
v -7 2 12
v -7 2 11
v -7 2 8
v -7 2 7
v -7 2 -5
v -7 2 -6
v -7 2 -9
v -7 2 -10
v -7 2 -11
v -7 2 -12
v -7 2 -15
v -7 2 -16
v -7 3 11
v -7 3 8
v -7 3 3
v -7 3 1
v -7 3 -6
v -7 3 -9
v -7 3 -12
v -7 3 -15
v -7 3 -18
v -7 4 19
v -7 4 18
v -7 5 19
v -7 5 14
v -7 5 8
v -7 5 5
v -7 6 8
v -7 6 5
v -7 7 13
v -7 7 5
v -7 12 13
v -7 12 5
v -7 13 14
v -7 13 4
v -6 0 12
v -6 0 7
v -6 0 -5
v -6 0 -10
v -6 0 -11
v -6 0 -16
v -6 1 4
v -6 1 3
v -6 2 12
v -6 2 11
v -6 2 8
v -6 2 7
v -6 2 4
v -6 2 3
v -6 2 -5
v -6 2 -6
v -6 2 -9
v -6 2 -10
v -6 2 -11
v -6 2 -12
v -6 2 -15
v -6 2 -16
v -6 3 11
v -6 3 8
v -6 3 4
v -6 3 3
v -6 3 1
v -6 3 -6
v -6 3 -9
v -6 3 -12
v -6 3 -15
v -6 5 8
v -6 5 5
v -6 6 8
v -6 6 5
v -6 7 13
v -6 7 5
v -6 8 1
v -6 12 13
v -6 12 5
v -6 13 3
v -6 13 1
v -1 10 -9
v -1 10 -11
v -1 11 -9
v -1 11 -11
v -1 12 1
v -1 12 -9
v -1 12 -11
v -1 13 13
v -1 13 12
v -1 13 3
v -1 13 1
v -1 14 13
v -1 14 12
v -1 14 3
v -1 14 -11
v 5 1 19
v 5 1 18
v 5 4 19
v 5 4 18
v 6 6 14
v 6 6 13
v 6 12 14
v 6 12 13
v -6 6 14
v -6 6 13
v -6 12 14
v -6 12 13
v -5 1 19
v -5 1 18
v -5 4 19
v -5 4 18
v 1 10 -9
v 1 10 -11
v 1 11 -9
v 1 11 -11
v 1 12 1
v 1 12 -9
v 1 12 -11
v 1 13 13
v 1 13 12
v 1 13 3
v 1 13 1
v 1 14 13
v 1 14 12
v 1 14 3
v 1 14 -11
v 6 0 12
v 6 0 7
v 6 0 -5
v 6 0 -10
v 6 0 -11
v 6 0 -16
v 6 1 4
v 6 1 3
v 6 2 12
v 6 2 11
v 6 2 8
v 6 2 7
v 6 2 4
v 6 2 3
v 6 2 -5
v 6 2 -6
v 6 2 -9
v 6 2 -10
v 6 2 -11
v 6 2 -12
v 6 2 -15
v 6 2 -16
v 6 3 11
v 6 3 8
v 6 3 4
v 6 3 3
v 6 3 1
v 6 3 -6
v 6 3 -9
v 6 3 -12
v 6 3 -15
v 6 5 8
v 6 5 5
v 6 6 8
v 6 6 5
v 6 7 13
v 6 7 5
v 6 8 1
v 6 12 13
v 6 12 5
v 6 13 3
v 6 13 1
v 7 0 19
v 7 0 12
v 7 0 7
v 7 0 4
v 7 0 3
v 7 0 -5
v 7 0 -10
v 7 0 -11
v 7 0 -16
v 7 0 -18
v 7 0 -19
v 7 1 19
v 7 1 18
v 7 1 -18
v 7 1 -19
v 7 2 12
v 7 2 11
v 7 2 8
v 7 2 7
v 7 2 -5
v 7 2 -6
v 7 2 -9
v 7 2 -10
v 7 2 -11
v 7 2 -12
v 7 2 -15
v 7 2 -16
v 7 3 11
v 7 3 8
v 7 3 3
v 7 3 1
v 7 3 -6
v 7 3 -9
v 7 3 -12
v 7 3 -15
v 7 3 -18
v 7 4 19
v 7 4 18
v 7 5 19
v 7 5 14
v 7 5 8
v 7 5 5
v 7 6 8
v 7 6 5
v 7 7 13
v 7 7 5
v 7 12 13
v 7 12 5
v 7 13 14
v 7 13 4
v 8 3 1
v 8 3 -19
v 8 4 -0
v 8 4 -19
v 8 8 1
v 8 8 -0
v -7 0 19
v -7 1 19
v -7 4 19
v -7 5 19
v -6 1 19
v -6 4 19
v -5 1 19
v -5 4 19
v 5 1 19
v 5 4 19
v 6 1 19
v 6 4 19
v 7 0 19
v 7 1 19
v 7 4 19
v 7 5 19
v -5 1 18
v -5 4 18
v 5 1 18
v 5 4 18
v -7 5 14
v -7 13 14
v -6 6 14
v -6 12 14
v 6 6 14
v 6 12 14
v 7 5 14
v 7 13 14
v -6 6 13
v -6 12 13
v -1 13 13
v -1 14 13
v 1 13 13
v 1 14 13
v 6 6 13
v 6 12 13
v -7 2 8
v -7 3 8
v -6 2 8
v -6 3 8
v 6 2 8
v 6 3 8
v 7 2 8
v 7 3 8
v -7 0 7
v -7 2 7
v -6 0 7
v -6 2 7
v 6 0 7
v 6 2 7
v 7 0 7
v 7 2 7
v -7 5 5
v -7 6 5
v -7 7 5
v -7 12 5
v -6 5 5
v -6 6 5
v -6 7 5
v -6 12 5
v 6 5 5
v 6 6 5
v 6 7 5
v 6 12 5
v 7 5 5
v 7 6 5
v 7 7 5
v 7 12 5
v -7 0 3
v -7 3 3
v -6 1 3
v -6 2 3
v -6 3 3
v -6 13 3
v -1 13 3
v -1 14 3
v 1 13 3
v 1 14 3
v 6 1 3
v 6 2 3
v 6 3 3
v 6 13 3
v 7 0 3
v 7 3 3
v -8 3 1
v -8 8 1
v -7 3 1
v -6 3 1
v -6 8 1
v 6 3 1
v 6 8 1
v 7 3 1
v 8 3 1
v 8 8 1
v -7 2 -9
v -7 3 -9
v -6 2 -9
v -6 3 -9
v -1 10 -9
v -1 11 -9
v -1 12 -9
v 1 10 -9
v 1 11 -9
v 1 12 -9
v 6 2 -9
v 6 3 -9
v 7 2 -9
v 7 3 -9
v -7 0 -10
v -7 2 -10
v -6 0 -10
v -6 2 -10
v 6 0 -10
v 6 2 -10
v 7 0 -10
v 7 2 -10
v -7 2 -15
v -7 3 -15
v -6 2 -15
v -6 3 -15
v 6 2 -15
v 6 3 -15
v 7 2 -15
v 7 3 -15
v -7 0 -16
v -7 2 -16
v -6 0 -16
v -6 2 -16
v 6 0 -16
v 6 2 -16
v 7 0 -16
v 7 2 -16
v -7 7 13
v -7 12 13
v -6 7 13
v -6 12 13
v 6 7 13
v 6 12 13
v 7 7 13
v 7 12 13
v -7 0 12
v -7 2 12
v -6 0 12
v -6 2 12
v -1 13 12
v -1 14 12
v 1 13 12
v 1 14 12
v 6 0 12
v 6 2 12
v 7 0 12
v 7 2 12
v -7 2 11
v -7 3 11
v -6 2 11
v -6 3 11
v 6 2 11
v 6 3 11
v 7 2 11
v 7 3 11
v -7 5 8
v -7 6 8
v -6 5 8
v -6 6 8
v 6 5 8
v 6 6 8
v 7 5 8
v 7 6 8
v -7 0 4
v -7 13 4
v -6 1 4
v -6 2 4
v -6 3 4
v 6 1 4
v 6 2 4
v 6 3 4
v 7 0 4
v 7 13 4
v -6 8 1
v -6 13 1
v -1 12 1
v -1 13 1
v 1 12 1
v 1 13 1
v 6 8 1
v 6 13 1
v -8 4 -0
v -8 8 -0
v 8 4 -0
v 8 8 -0
v -7 0 -5
v -7 2 -5
v -6 0 -5
v -6 2 -5
v 6 0 -5
v 6 2 -5
v 7 0 -5
v 7 2 -5
v -7 2 -6
v -7 3 -6
v -6 2 -6
v -6 3 -6
v 6 2 -6
v 6 3 -6
v 7 2 -6
v 7 3 -6
v -7 0 -11
v -7 2 -11
v -6 0 -11
v -6 2 -11
v -1 10 -11
v -1 11 -11
v -1 12 -11
v -1 14 -11
v 1 10 -11
v 1 11 -11
v 1 12 -11
v 1 14 -11
v 6 0 -11
v 6 2 -11
v 7 0 -11
v 7 2 -11
v -7 2 -12
v -7 3 -12
v -6 2 -12
v -6 3 -12
v 6 2 -12
v 6 3 -12
v 7 2 -12
v 7 3 -12
v -7 1 -18
v -7 3 -18
v 7 1 -18
v 7 3 -18
v -8 3 -19
v -8 4 -19
v -7 0 -19
v -7 1 -19
v 7 0 -19
v 7 1 -19
v 8 3 -19
v 8 4 -19
v -7 0 19
v 7 0 19
v -7 0 12
v -6 0 12
v 6 0 12
v 7 0 12
v -7 0 7
v -6 0 7
v 6 0 7
v 7 0 7
v -7 0 4
v 7 0 4
v -7 0 3
v 7 0 3
v -7 0 -5
v -6 0 -5
v 6 0 -5
v 7 0 -5
v -7 0 -10
v -6 0 -10
v 6 0 -10
v 7 0 -10
v -7 0 -11
v -6 0 -11
v 6 0 -11
v 7 0 -11
v -7 0 -16
v -6 0 -16
v 6 0 -16
v 7 0 -16
v -7 0 -18
v 7 0 -18
v -7 0 -19
v 7 0 -19
v -6 1 4
v 6 1 4
v -6 1 3
v 6 1 3
v -7 2 12
v -6 2 12
v 6 2 12
v 7 2 12
v -7 2 11
v -6 2 11
v 6 2 11
v 7 2 11
v -7 2 8
v -6 2 8
v 6 2 8
v 7 2 8
v -7 2 7
v -6 2 7
v 6 2 7
v 7 2 7
v -7 2 -5
v -6 2 -5
v 6 2 -5
v 7 2 -5
v -7 2 -6
v -6 2 -6
v 6 2 -6
v 7 2 -6
v -7 2 -9
v -6 2 -9
v 6 2 -9
v 7 2 -9
v -7 2 -10
v -6 2 -10
v 6 2 -10
v 7 2 -10
v -7 2 -11
v -6 2 -11
v 6 2 -11
v 7 2 -11
v -7 2 -12
v -6 2 -12
v 6 2 -12
v 7 2 -12
v -7 2 -15
v -6 2 -15
v 6 2 -15
v 7 2 -15
v -7 2 -16
v -6 2 -16
v 6 2 -16
v 7 2 -16
v -7 3 11
v -6 3 11
v 6 3 11
v 7 3 11
v -7 3 8
v -6 3 8
v 6 3 8
v 7 3 8
v -8 3 1
v -7 3 1
v 7 3 1
v 8 3 1
v -7 3 -6
v -6 3 -6
v 6 3 -6
v 7 3 -6
v -7 3 -9
v -6 3 -9
v 6 3 -9
v 7 3 -9
v -7 3 -12
v -6 3 -12
v 6 3 -12
v 7 3 -12
v -7 3 -15
v -6 3 -15
v 6 3 -15
v 7 3 -15
v -7 3 -18
v 7 3 -18
v -8 3 -19
v 8 3 -19
v -5 4 19
v 5 4 19
v -5 4 18
v 5 4 18
v -7 6 8
v -6 6 8
v 6 6 8
v 7 6 8
v -7 6 5
v -6 6 5
v 6 6 5
v 7 6 5
v -1 10 -9
v 1 10 -9
v -1 10 -11
v 1 10 -11
v -6 12 14
v 6 12 14
v -7 12 13
v -6 12 13
v 6 12 13
v 7 12 13
v -7 12 5
v -6 12 5
v 6 12 5
v 7 12 5
v -1 12 1
v 1 12 1
v -1 12 -9
v 1 12 -9
v -5 1 19
v 5 1 19
v -5 1 18
v 5 1 18
v -7 1 -18
v 7 1 -18
v -7 1 -19
v 7 1 -19
v -6 3 4
v 6 3 4
v -7 3 3
v -6 3 3
v 6 3 3
v 7 3 3
v -7 3 1
v -6 3 1
v 6 3 1
v 7 3 1
v -8 4 -0
v 8 4 -0
v -7 4 -1
v 7 4 -1
v -7 4 -18
v 7 4 -18
v -8 4 -19
v 8 4 -19
v -7 5 19
v 7 5 19
v -7 5 14
v 7 5 14
v -7 5 8
v -6 5 8
v 6 5 8
v 7 5 8
v -7 5 5
v -6 5 5
v 6 5 5
v 7 5 5
v -6 6 14
v 6 6 14
v -6 6 13
v 6 6 13
v -7 7 13
v -6 7 13
v 6 7 13
v 7 7 13
v -7 7 5
v -6 7 5
v 6 7 5
v 7 7 5
v -8 8 1
v -6 8 1
v 6 8 1
v 8 8 1
v -8 8 -0
v 8 8 -0
v -7 13 14
v 7 13 14
v -1 13 13
v 1 13 13
v -1 13 12
v 1 13 12
v -7 13 4
v 7 13 4
v -6 13 3
v -1 13 3
v 1 13 3
v 6 13 3
v -6 13 1
v -1 13 1
v 1 13 1
v 6 13 1
v -1 14 13
v 1 14 13
v -1 14 12
v 1 14 12
v -1 14 3
v 1 14 3
v -1 14 -11
v 1 14 -11

# faces
f 3/10/1 2/10/1 1/10/1
f 4/10/1 2/10/1 3/10/1
f 5/10/1 3/10/1 1/10/1
f 6/10/1 3/10/1 5/10/1
f 18/1/1 8/1/1 7/1/1
f 19/1/1 8/1/1 18/1/1
f 20/9/1 17/9/1 16/9/1
f 20/2/1 16/2/1 15/2/1
f 21/9/1 17/9/1 20/9/1
f 22/1/1 8/1/1 19/1/1
f 25/1/1 10/1/1 9/1/1
f 26/2/1 12/2/1 11/2/1
f 29/2/1 14/2/1 13/2/1
f 30/2/1 14/2/1 29/2/1
f 33/2/1 20/2/1 15/2/1
f 34/1/1 23/1/1 22/1/1
f 35/1/1 25/1/1 24/1/1
f 36/2/1 27/2/1 26/2/1
f 36/2/1 26/2/1 11/2/1
f 37/2/1 27/2/1 36/2/1
f 38/2/1 27/2/1 37/2/1
f 39/2/1 31/2/1 30/2/1
f 39/2/1 29/2/1 28/2/1
f 39/2/1 30/2/1 29/2/1
f 40/2/1 31/2/1 39/2/1
f 41/2/1 33/2/1 32/2/1
f 42/2/1 20/2/1 33/2/1
f 42/2/1 33/2/1 41/2/1
f 43/6/1 19/6/1 18/6/1
f 44/1/1 34/1/1 22/1/1
f 44/6/1 19/6/1 43/6/1
f 44/1/1 35/1/1 34/1/1
f 44/1/1 22/1/1 19/1/1
f 45/1/1 44/1/1 43/1/1
f 46/1/1 35/1/1 44/1/1
f 46/1/1 44/1/1 45/1/1
f 47/1/1 25/1/1 35/1/1
f 47/1/1 35/1/1 46/1/1
f 48/1/1 10/1/1 25/1/1
f 48/1/1 25/1/1 47/1/1
f 49/1/1 47/1/1 46/1/1
f 50/1/1 10/1/1 48/1/1
f 51/1/1 49/1/1 46/1/1
f 51/1/1 50/1/1 49/1/1
f 52/1/1 10/1/1 50/1/1
f 52/1/1 50/1/1 51/1/1
f 53/1/1 51/1/1 46/1/1
f 54/1/1 10/1/1 52/1/1
f 55/1/1 53/1/1 46/1/1
f 55/1/1 54/1/1 53/1/1
f 56/1/1 10/1/1 54/1/1
f 56/1/1 54/1/1 55/1/1
f 65/1/1 58/1/1 57/1/1
f 66/1/1 58/1/1 65/1/1
f 67/1/1 58/1/1 66/1/1
f 68/1/1 58/1/1 67/1/1
f 69/10/1 64/10/1 63/10/1
f 70/10/1 64/10/1 69/10/1
f 71/2/1 60/2/1 59/2/1
f 72/2/1 60/2/1 71/2/1
f 73/2/1 60/2/1 72/2/1
f 74/2/1 60/2/1 73/2/1
f 75/2/1 62/2/1 61/2/1
f 76/2/1 62/2/1 75/2/1
f 77/2/1 62/2/1 76/2/1
f 78/2/1 62/2/1 77/2/1
f 79/1/1 67/1/1 66/1/1
f 80/1/1 67/1/1 79/1/1
f 81/1/1 70/1/1 69/1/1
f 82/1/1 70/1/1 81/1/1
f 84/2/1 73/2/1 72/2/1
f 85/2/1 73/2/1 84/2/1
f 86/2/1 77/2/1 76/2/1
f 87/2/1 77/2/1 86/2/1
f 90/9/1 89/9/1 88/9/1
f 91/9/1 89/9/1 90/9/1
f 94/3/1 83/3/1 82/3/1
f 95/5/1 93/5/1 92/5/1
f 96/5/1 93/5/1 95/5/1
f 97/3/1 94/3/1 82/3/1
f 98/3/1 94/3/1 97/3/1
f 101/10/1 100/10/1 99/10/1
f 102/10/1 100/10/1 101/10/1
f 104/9/1 102/9/1 101/9/1
f 105/9/1 102/9/1 104/9/1
f 109/4/1 104/4/1 103/4/1
f 109/4/1 105/4/1 104/4/1
f 110/9/1 107/9/1 106/9/1
f 111/9/1 107/9/1 110/9/1
f 112/4/1 109/4/1 108/4/1
f 113/4/1 105/4/1 109/4/1
f 113/4/1 109/4/1 112/4/1
f 116/1/1 115/1/1 114/1/1
f 117/1/1 115/1/1 116/1/1
f 120/1/1 119/1/1 118/1/1
f 121/1/1 119/1/1 120/1/1
f 122/1/2 123/1/2 124/1/2
f 124/1/2 123/1/2 125/1/2
f 126/1/2 127/1/2 128/1/2
f 128/1/2 127/1/2 129/1/2
f 130/10/2 131/10/2 132/10/2
f 132/10/2 131/10/2 133/10/2
f 132/9/2 133/9/2 135/9/2
f 135/9/2 133/9/2 136/9/2
f 134/4/2 135/4/2 140/4/2
f 135/4/2 136/4/2 140/4/2
f 137/9/2 138/9/2 141/9/2
f 141/9/2 138/9/2 142/9/2
f 139/4/2 140/4/2 143/4/2
f 140/4/2 136/4/2 144/4/2
f 143/4/2 140/4/2 144/4/2
f 145/1/2 146/1/2 153/1/2
f 153/1/2 146/1/2 154/1/2
f 154/1/2 146/1/2 155/1/2
f 155/1/2 146/1/2 156/1/2
f 151/10/2 152/10/2 157/10/2
f 157/10/2 152/10/2 158/10/2
f 147/2/2 148/2/2 159/2/2
f 159/2/2 148/2/2 160/2/2
f 160/2/2 148/2/2 161/2/2
f 161/2/2 148/2/2 162/2/2
f 149/2/2 150/2/2 163/2/2
f 163/2/2 150/2/2 164/2/2
f 164/2/2 150/2/2 165/2/2
f 165/2/2 150/2/2 166/2/2
f 154/1/2 155/1/2 167/1/2
f 167/1/2 155/1/2 168/1/2
f 157/1/2 158/1/2 169/1/2
f 169/1/2 158/1/2 170/1/2
f 160/2/2 161/2/2 172/2/2
f 172/2/2 161/2/2 173/2/2
f 164/2/2 165/2/2 174/2/2
f 174/2/2 165/2/2 175/2/2
f 176/9/2 177/9/2 178/9/2
f 178/9/2 177/9/2 179/9/2
f 170/3/2 171/3/2 182/3/2
f 180/5/2 181/5/2 183/5/2
f 183/5/2 181/5/2 184/5/2
f 170/3/2 182/3/2 185/3/2
f 185/3/2 182/3/2 186/3/2
f 187/1/2 188/1/2 198/1/2
f 198/1/2 188/1/2 199/1/2
f 196/9/2 197/9/2 200/9/2
f 195/2/2 196/2/2 200/2/2
f 200/9/2 197/9/2 201/9/2
f 199/1/2 188/1/2 202/1/2
f 189/1/2 190/1/2 205/1/2
f 191/2/2 192/2/2 206/2/2
f 193/2/2 194/2/2 209/2/2
f 209/2/2 194/2/2 210/2/2
f 195/2/2 200/2/2 213/2/2
f 202/1/2 203/1/2 214/1/2
f 204/1/2 205/1/2 215/1/2
f 206/2/2 207/2/2 216/2/2
f 191/2/2 206/2/2 216/2/2
f 216/2/2 207/2/2 217/2/2
f 217/2/2 207/2/2 218/2/2
f 210/2/2 211/2/2 219/2/2
f 208/2/2 209/2/2 219/2/2
f 209/2/2 210/2/2 219/2/2
f 219/2/2 211/2/2 220/2/2
f 212/2/2 213/2/2 221/2/2
f 213/2/2 200/2/2 222/2/2
f 221/2/2 213/2/2 222/2/2
f 198/6/2 199/6/2 223/6/2
f 202/1/2 214/1/2 224/1/2
f 223/6/2 199/6/2 224/6/2
f 214/1/2 215/1/2 224/1/2
f 199/1/2 202/1/2 224/1/2
f 223/1/2 224/1/2 225/1/2
f 224/1/2 215/1/2 226/1/2
f 225/1/2 224/1/2 226/1/2
f 215/1/2 205/1/2 227/1/2
f 226/1/2 215/1/2 227/1/2
f 205/1/2 190/1/2 228/1/2
f 227/1/2 205/1/2 228/1/2
f 226/1/2 227/1/2 229/1/2
f 228/1/2 190/1/2 230/1/2
f 226/1/2 229/1/2 231/1/2
f 229/1/2 230/1/2 231/1/2
f 230/1/2 190/1/2 232/1/2
f 231/1/2 230/1/2 232/1/2
f 226/1/2 231/1/2 233/1/2
f 232/1/2 190/1/2 234/1/2
f 226/1/2 233/1/2 235/1/2
f 233/1/2 234/1/2 235/1/2
f 234/1/2 190/1/2 236/1/2
f 235/1/2 234/1/2 236/1/2
f 237/10/2 238/10/2 239/10/2
f 239/10/2 238/10/2 240/10/2
f 237/10/2 239/10/2 241/10/2
f 241/10/2 239/10/2 242/10/2
f 247/1/3 244/1/3 243/1/3
f 247/6/3 245/6/3 244/6/3
f 248/1/3 246/1/3 245/1/3
f 248/6/3 245/6/3 247/6/3
f 249/1/3 247/1/3 243/1/3
f 249/1/3 248/1/3 247/1/3
f 250/1/3 246/1/3 248/1/3
f 250/1/3 248/1/3 249/1/3
f 251/1/3 249/1/3 243/1/3
f 252/1/3 246/1/3 250/1/3
f 253/1/3 251/1/3 243/1/3
f 253/1/3 252/1/3 251/1/3
f 254/1/3 246/1/3 252/1/3
f 254/1/3 252/1/3 253/1/3
f 255/1/3 253/1/3 243/1/3
f 256/6/3 254/6/3 253/6/3
f 256/1/3 253/1/3 255/1/3
f 257/1/3 246/1/3 254/1/3
f 257/6/3 254/6/3 256/6/3
f 258/1/3 246/1/3 257/1/3
f 261/7/3 260/7/3 259/7/3
f 262/7/3 260/7/3 261/7/3
f 265/1/3 264/1/3 263/1/3
f 266/1/3 264/1/3 265/1/3
f 267/1/3 265/1/3 263/1/3
f 268/1/3 264/1/3 266/1/3
f 269/1/3 267/1/3 263/1/3
f 269/1/3 268/1/3 267/1/3
f 270/1/3 264/1/3 268/1/3
f 270/1/3 268/1/3 269/1/3
f 275/9/3 274/9/3 273/9/3
f 276/9/3 274/9/3 275/9/3
f 277/5/3 272/5/3 271/5/3
f 278/5/3 272/5/3 277/5/3
f 281/1/3 280/1/3 279/1/3
f 282/1/3 280/1/3 281/1/3
f 285/1/3 284/1/3 283/1/3
f 286/1/3 284/1/3 285/1/3
f 289/1/3 288/1/3 287/1/3
f 290/1/3 288/1/3 289/1/3
f 293/1/3 292/1/3 291/1/3
f 294/1/3 292/1/3 293/1/3
f 299/1/3 296/1/3 295/1/3
f 300/1/3 296/1/3 299/1/3
f 301/1/3 298/1/3 297/1/3
f 302/1/3 298/1/3 301/1/3
f 307/1/3 304/1/3 303/1/3
f 308/1/3 304/1/3 307/1/3
f 309/1/3 306/1/3 305/1/3
f 310/1/3 306/1/3 309/1/3
f 313/2/3 312/2/3 311/2/3
f 314/2/3 312/2/3 313/2/3
f 315/2/3 312/2/3 314/2/3
f 317/3/3 316/3/3 315/3/3
f 319/3/3 317/3/3 315/3/3
f 319/4/3 318/4/3 317/4/3
f 320/4/3 318/4/3 319/4/3
f 321/2/3 313/2/3 311/2/3
f 323/3/3 319/3/3 315/3/3
f 324/3/3 319/3/3 323/3/3
f 325/2/3 322/2/3 321/2/3
f 325/2/3 321/2/3 311/2/3
f 325/2/3 323/2/3 322/2/3
f 326/2/3 323/2/3 325/2/3
f 329/10/3 328/10/3 327/10/3
f 330/10/3 328/10/3 329/10/3
f 331/10/3 328/10/3 330/10/3
f 334/10/3 333/10/3 332/10/3
f 335/10/3 333/10/3 334/10/3
f 336/10/3 333/10/3 335/10/3
f 339/2/3 338/2/3 337/2/3
f 340/2/3 338/2/3 339/2/3
f 344/10/3 342/10/3 341/10/3
f 345/9/3 343/9/3 342/9/3
f 345/10/3 342/10/3 344/10/3
f 346/9/3 343/9/3 345/9/3
f 349/2/3 348/2/3 347/2/3
f 350/2/3 348/2/3 349/2/3
f 353/2/3 352/2/3 351/2/3
f 354/2/3 352/2/3 353/2/3
f 357/2/3 356/2/3 355/2/3
f 358/2/3 356/2/3 357/2/3
f 361/2/3 360/2/3 359/2/3
f 362/2/3 360/2/3 361/2/3
f 365/2/3 364/2/3 363/2/3
f 366/2/3 364/2/3 365/2/3
f 369/2/3 368/2/3 367/2/3
f 370/2/3 368/2/3 369/2/3
f 373/2/3 372/2/3 371/2/3
f 374/2/3 372/2/3 373/2/3
f 375/1/4 376/1/4 377/1/4
f 377/1/4 376/1/4 378/1/4
f 379/1/4 380/1/4 381/1/4
f 381/1/4 380/1/4 382/1/4
f 383/1/4 384/1/4 385/1/4
f 385/1/4 384/1/4 386/1/4
f 387/9/4 388/9/4 389/9/4
f 389/9/4 388/9/4 390/9/4
f 391/1/4 392/1/4 393/1/4
f 393/1/4 392/1/4 394/1/4
f 395/1/4 396/1/4 397/1/4
f 397/1/4 396/1/4 398/1/4
f 399/1/4 400/1/4 401/1/4
f 401/1/4 400/1/4 402/1/4
f 403/1/4 404/1/4 405/1/4
f 405/1/4 404/1/4 406/1/4
f 407/1/4 408/1/4 409/1/4
f 409/1/4 408/1/4 410/1/4
f 411/1/4 412/1/4 413/1/4
f 413/1/4 412/1/4 414/1/4
f 414/1/4 412/1/4 415/1/4
f 411/1/4 413/1/4 416/1/4
f 415/1/4 412/1/4 418/1/4
f 416/1/4 417/1/4 419/1/4
f 417/1/4 418/1/4 419/1/4
f 411/1/4 416/1/4 419/1/4
f 418/1/4 412/1/4 420/1/4
f 419/1/4 418/1/4 420/1/4
f 421/3/4 422/3/4 423/3/4
f 423/3/4 422/3/4 424/3/4
f 421/3/4 423/3/4 425/3/4
f 421/3/4 425/3/4 427/3/4
f 425/3/4 426/3/4 427/3/4
f 427/3/4 426/3/4 428/3/4
f 429/10/4 430/10/4 431/10/4
f 431/10/4 430/10/4 432/10/4
f 433/2/4 434/2/4 435/2/4
f 435/2/4 434/2/4 436/2/4
f 437/2/4 438/2/4 439/2/4
f 439/2/4 438/2/4 440/2/4
f 441/2/4 442/2/4 443/2/4
f 443/2/4 442/2/4 444/2/4
f 445/2/4 446/2/4 447/2/4
f 447/2/4 446/2/4 448/2/4
f 449/2/4 450/2/4 451/2/4
f 451/2/4 450/2/4 452/2/4
f 453/10/4 454/10/4 457/10/4
f 454/9/4 455/9/4 458/9/4
f 457/10/4 454/10/4 458/10/4
f 455/4/4 456/4/4 459/4/4
f 458/9/4 455/9/4 459/9/4
f 459/4/4 456/4/4 460/4/4
f 461/2/4 462/2/4 463/2/4
f 463/2/4 462/2/4 464/2/4
f 465/2/4 466/2/4 467/2/4
f 467/2/4 466/2/4 468/2/4
f 469/2/4 470/2/4 471/2/4
f 471/2/4 470/2/4 472/2/4
f 473/2/4 474/2/4 475/2/4
f 475/2/4 474/2/4 476/2/4
f 479/9/4 480/9/4 481/9/4
f 481/9/4 480/9/4 482/9/4
f 477/10/4 478/10/4 483/10/4
f 483/10/4 478/10/4 484/10/4
f 487/1/5 486/1/5 485/1/5
f 488/1/5 486/1/5 487/1/5
f 489/1/5 486/1/5 488/1/5
f 490/1/5 486/1/5 489/1/5
f 492/1/5 489/1/5 488/1/5
f 493/1/5 489/1/5 492/1/5
f 495/1/5 492/1/5 491/1/5
f 495/1/5 494/1/5 493/1/5
f 495/1/5 493/1/5 492/1/5
f 496/1/5 494/1/5 495/1/5
f 499/2/5 498/2/5 497/2/5
f 500/2/5 498/2/5 499/2/5
f 501/2/5 498/2/5 500/2/5
f 502/2/5 498/2/5 501/2/5
f 504/2/5 501/2/5 500/2/5
f 505/2/5 501/2/5 504/2/5
f 507/2/5 504/2/5 503/2/5
f 507/2/5 506/2/5 505/2/5
f 507/2/5 505/2/5 504/2/5
f 508/2/5 506/2/5 507/2/5
f 509/2/5 506/2/5 508/2/5
f 510/2/5 506/2/5 509/2/5
f 512/2/5 509/2/5 508/2/5
f 513/2/5 509/2/5 512/2/5
f 515/2/5 512/2/5 511/2/5
f 515/2/5 514/2/5 513/2/5
f 515/2/5 513/2/5 512/2/5
f 516/2/5 514/2/5 515/2/5
f 517/9/5 516/9/5 515/9/5
f 518/9/5 516/9/5 517/9/5
f 521/10/5 520/10/5 519/10/5
f 522/10/5 520/10/5 521/10/5
f 527/1/5 524/1/5 523/1/5
f 528/1/5 524/1/5 527/1/5
f 529/1/5 526/1/5 525/1/5
f 530/1/5 526/1/5 529/1/5
f 535/1/5 532/1/5 531/1/5
f 536/1/5 532/1/5 535/1/5
f 537/1/5 534/1/5 533/1/5
f 538/1/5 534/1/5 537/1/5
f 543/2/5 540/2/5 539/2/5
f 544/2/5 540/2/5 543/2/5
f 545/2/5 542/2/5 541/2/5
f 546/2/5 542/2/5 545/2/5
f 551/2/5 548/2/5 547/2/5
f 552/2/5 548/2/5 551/2/5
f 553/2/5 550/2/5 549/2/5
f 554/2/5 550/2/5 553/2/5
f 559/2/5 556/2/5 555/2/5
f 560/2/5 556/2/5 559/2/5
f 561/2/5 558/2/5 557/2/5
f 562/2/5 558/2/5 561/2/5
f 567/2/5 564/2/5 563/2/5
f 568/2/5 564/2/5 567/2/5
f 569/2/5 566/2/5 565/2/5
f 570/2/5 566/2/5 569/2/5
f 575/1/5 572/1/5 571/1/5
f 576/1/5 572/1/5 575/1/5
f 577/1/5 574/1/5 573/1/5
f 578/1/5 574/1/5 577/1/5
f 583/10/5 580/10/5 579/10/5
f 586/10/5 582/10/5 581/10/5
f 587/8/5 584/8/5 583/8/5
f 587/10/5 583/10/5 579/10/5
f 588/8/5 584/8/5 587/8/5
f 589/8/5 586/8/5 585/8/5
f 590/10/5 582/10/5 586/10/5
f 590/8/5 586/8/5 589/8/5
f 591/10/5 587/10/5 579/10/5
f 594/10/5 582/10/5 590/10/5
f 595/8/5 592/8/5 591/8/5
f 595/10/5 591/10/5 579/10/5
f 596/8/5 592/8/5 595/8/5
f 597/8/5 594/8/5 593/8/5
f 598/10/5 582/10/5 594/10/5
f 598/8/5 594/8/5 597/8/5
f 599/10/5 595/10/5 579/10/5
f 600/10/5 582/10/5 598/10/5
f 601/10/5 599/10/5 579/10/5
f 601/10/5 600/10/5 599/10/5
f 602/10/5 582/10/5 600/10/5
f 602/10/5 600/10/5 601/10/5
f 605/1/5 604/1/5 603/1/5
f 606/1/5 604/1/5 605/1/5
f 611/1/5 608/1/5 607/1/5
f 612/1/5 608/1/5 611/1/5
f 613/1/5 610/1/5 609/1/5
f 614/1/5 610/1/5 613/1/5
f 617/10/5 616/10/5 615/10/5
f 618/10/5 616/10/5 617/10/5
f 622/1/5 620/1/5 619/1/5
f 623/1/5 620/1/5 622/1/5
f 625/1/5 622/1/5 621/1/5
f 626/1/5 622/1/5 625/1/5
f 627/1/5 624/1/5 623/1/5
f 628/1/5 624/1/5 627/1/5
f 631/4/5 630/4/5 629/4/5
f 632/4/5 630/4/5 631/4/5
f 633/1/6 634/1/6 635/1/6
f 635/1/6 634/1/6 636/1/6
f 637/9/6 638/9/6 639/9/6
f 639/9/6 638/9/6 640/9/6
f 641/1/6 642/1/6 644/1/6
f 644/1/6 642/1/6 645/1/6
f 643/2/6 644/2/6 647/2/6
f 647/2/6 644/2/6 648/2/6
f 645/2/6 646/2/6 649/2/6
f 649/2/6 646/2/6 650/2/6
f 651/10/6 652/10/6 653/10/6
f 653/10/6 652/10/6 654/10/6
f 651/10/6 653/10/6 655/10/6
f 653/8/6 654/8/6 655/8/6
f 654/10/6 652/10/6 656/10/6
f 655/8/6 654/8/6 656/8/6
f 651/10/6 655/10/6 657/10/6
f 655/10/6 656/10/6 657/10/6
f 656/10/6 652/10/6 658/10/6
f 657/10/6 656/10/6 658/10/6
f 659/1/6 660/1/6 661/1/6
f 661/1/6 660/1/6 662/1/6
f 663/1/6 664/1/6 667/1/6
f 667/1/6 664/1/6 668/1/6
f 665/1/6 666/1/6 669/1/6
f 669/1/6 666/1/6 670/1/6
f 671/1/6 672/1/6 673/1/6
f 673/1/6 672/1/6 674/1/6
f 675/1/6 676/1/6 679/1/6
f 679/1/6 676/1/6 680/1/6
f 677/1/6 678/1/6 681/1/6
f 681/1/6 678/1/6 682/1/6
f 683/10/6 684/10/6 687/10/6
f 685/10/6 686/10/6 687/10/6
f 684/10/6 685/10/6 687/10/6
f 687/10/6 686/10/6 688/10/6
f 689/1/6 690/1/6 691/1/6
f 691/1/6 690/1/6 692/1/6
f 689/1/6 691/1/6 693/1/6
f 692/1/6 690/1/6 694/1/6
f 689/1/6 693/1/6 695/1/6
f 693/1/6 694/1/6 695/1/6
f 694/1/6 690/1/6 696/1/6
f 695/1/6 694/1/6 696/1/6
f 697/3/6 698/3/6 701/3/6
f 701/3/6 698/3/6 702/3/6
f 699/3/6 700/3/6 703/3/6
f 703/3/6 700/3/6 704/3/6
f 705/9/6 706/9/6 707/9/6
f 707/9/6 706/9/6 708/9/6
f 709/4/6 710/4/6 711/4/6
f 711/4/6 710/4/6 712/4/6
