# MagicaVoxel @ Ephtracy

# material
mtllib FormulaOne02.mtl
usemtl palette

# normals
vn -1 0 0
vn 1 0 0
vn 0 0 1
vn 0 0 -1
vn 0 -1 0
vn 0 1 0

# texcoords
vt 0.787109 0.5
vt 0.814453 0.5
vt 0.849609 0.5
vt 0.970703 0.5
vt 0.986328 0.5
vt 0.990234 0.5

# verts
v -2.5 0 11
v -2.5 0 10
v -2.5 0 8
v -2.5 0 7
v -2.5 0 4
v -2.5 0 3
v -2.5 0 2
v -2.5 0 -4
v -2.5 0 -6
v -2.5 0 -8
v -2.5 0 -9
v -2.5 1 11
v -2.5 1 10
v -2.5 1 8
v -2.5 1 7
v -2.5 1 2
v -2.5 1 -4
v -2.5 1 -8
v -2.5 1 -9
v -2.5 2 4
v -2.5 2 3
v -2.5 2 -6
v -2.5 3 -8
v -2.5 3 -10
v -2.5 4 -8
v -2.5 4 -10
v -2.5 4 -11
v -2.5 5 -10
v -2.5 5 -11
v -1.5 0 7
v -1.5 0 4
v -1.5 0 -6
v -1.5 0 -8
v -1.5 0 -9
v -1.5 0 -10
v -1.5 1 7
v -1.5 1 6
v -1.5 1 -6
v -1.5 1 -8
v -1.5 1 -9
v -1.5 1 -10
v -1.5 2 6
v -1.5 2 4
v -1.5 2 -2
v -1.5 2 -6
v -1.5 2 -9
v -1.5 2 -10
v -1.5 3 -4
v -1.5 3 -6
v -1.5 3 -9
v -1.5 3 -10
v -1.5 4 -2
v -1.5 4 -4
v -0.5 0 10
v -0.5 0 8
v -0.5 0 -10
v -0.5 0 -11
v -0.5 1 10
v -0.5 1 9
v -0.5 1 8
v -0.5 1 -10
v -0.5 1 -11
v -0.5 2 9
v -0.5 2 8
v -0.5 4 -2
v -0.5 4 -3
v -0.5 5 -2
v -0.5 5 -3
v 1.5 1 2
v 1.5 1 -2
v 1.5 2 2
v 1.5 2 -2
v -1.5 1 2
v -1.5 1 -2
v -1.5 2 2
v -1.5 2 -2
v 0.5 0 10
v 0.5 0 8
v 0.5 0 -10
v 0.5 0 -11
v 0.5 1 10
v 0.5 1 9
v 0.5 1 8
v 0.5 1 -10
v 0.5 1 -11
v 0.5 2 9
v 0.5 2 8
v 0.5 4 -2
v 0.5 4 -3
v 0.5 5 -2
v 0.5 5 -3
v 1.5 0 7
v 1.5 0 4
v 1.5 0 -6
v 1.5 0 -8
v 1.5 0 -9
v 1.5 0 -10
v 1.5 1 7
v 1.5 1 6
v 1.5 1 -6
v 1.5 1 -8
v 1.5 1 -9
v 1.5 1 -10
v 1.5 2 6
v 1.5 2 4
v 1.5 2 -2
v 1.5 2 -6
v 1.5 2 -9
v 1.5 2 -10
v 1.5 3 -4
v 1.5 3 -6
v 1.5 3 -9
v 1.5 3 -10
v 1.5 4 -2
v 1.5 4 -4
v 2.5 0 11
v 2.5 0 10
v 2.5 0 8
v 2.5 0 7
v 2.5 0 4
v 2.5 0 3
v 2.5 0 2
v 2.5 0 -4
v 2.5 0 -6
v 2.5 0 -8
v 2.5 0 -9
v 2.5 1 11
v 2.5 1 10
v 2.5 1 8
v 2.5 1 7
v 2.5 1 2
v 2.5 1 -4
v 2.5 1 -8
v 2.5 1 -9
v 2.5 2 4
v 2.5 2 3
v 2.5 2 -6
v 2.5 3 -8
v 2.5 3 -10
v 2.5 4 -8
v 2.5 4 -10
v 2.5 4 -11
v 2.5 5 -10
v 2.5 5 -11
v -2.5 0 11
v -2.5 1 11
v 2.5 0 11
v 2.5 1 11
v -0.5 1 9
v -0.5 2 9
v 0.5 1 9
v 0.5 2 9
v -2.5 0 8
v -2.5 1 8
v -1.5 0 8
v -1.5 1 8
v -0.5 0 8
v -0.5 1 8
v 0.5 0 8
v 0.5 1 8
v 1.5 0 8
v 1.5 1 8
v 2.5 0 8
v 2.5 1 8
v -1.5 1 6
v -1.5 2 6
v 1.5 1 6
v 1.5 2 6
v -2.5 0 4
v -2.5 2 4
v -1.5 0 4
v -1.5 2 4
v 1.5 0 4
v 1.5 2 4
v 2.5 0 4
v 2.5 2 4
v -1.5 1 -2
v -1.5 2 -2
v -1.5 4 -2
v -0.5 4 -2
v -0.5 5 -2
v 0.5 4 -2
v 0.5 5 -2
v 1.5 1 -2
v 1.5 2 -2
v 1.5 4 -2
v -2.5 0 -8
v -2.5 1 -8
v -2.5 3 -8
v -2.5 4 -8
v -1.5 0 -8
v -1.5 1 -8
v 1.5 0 -8
v 1.5 1 -8
v 2.5 0 -8
v 2.5 1 -8
v 2.5 3 -8
v 2.5 4 -8
v -1.5 2 -9
v -1.5 3 -9
v -0.5 2 -9
v 0.5 2 -9
v 1.5 2 -9
v 1.5 3 -9
v -2.5 4 -10
v -2.5 5 -10
v 2.5 4 -10
v 2.5 5 -10
v -2.5 0 10
v -2.5 1 10
v -0.5 0 10
v -0.5 1 10
v 0.5 0 10
v 0.5 1 10
v 2.5 0 10
v 2.5 1 10
v -0.5 1 8
v -0.5 2 8
v 0.5 1 8
v 0.5 2 8
v -2.5 0 7
v -2.5 1 7
v -1.5 0 7
v -1.5 1 7
v 1.5 0 7
v 1.5 1 7
v 2.5 0 7
v 2.5 1 7
v -1.5 1 2
v -1.5 2 2
v 1.5 1 2
v 1.5 2 2
v -0.5 4 -3
v -0.5 5 -3
v 0.5 4 -3
v 0.5 5 -3
v -1.5 3 -4
v -1.5 4 -4
v 1.5 3 -4
v 1.5 4 -4
v -2.5 0 -6
v -2.5 2 -6
v -1.5 0 -6
v -1.5 1 -6
v -1.5 2 -6
v -1.5 3 -6
v -0.5 2 -6
v 0.5 2 -6
v 1.5 0 -6
v 1.5 1 -6
v 1.5 2 -6
v 1.5 3 -6
v 2.5 0 -6
v 2.5 2 -6
v -2.5 0 -9
v -2.5 1 -9
v -1.5 0 -9
v -1.5 1 -9
v 1.5 0 -9
v 1.5 1 -9
v 2.5 0 -9
v 2.5 1 -9
v -2.5 3 -10
v -2.5 4 -10
v -1.5 0 -10
v -1.5 1 -10
v -1.5 2 -10
v -1.5 3 -10
v -0.5 0 -10
v -0.5 1 -10
v 0.5 0 -10
v 0.5 1 -10
v 1.5 0 -10
v 1.5 1 -10
v 1.5 2 -10
v 1.5 3 -10
v 2.5 3 -10
v 2.5 4 -10
v -2.5 4 -11
v -2.5 5 -11
v -0.5 0 -11
v -0.5 1 -11
v 0.5 0 -11
v 0.5 1 -11
v 2.5 4 -11
v 2.5 5 -11
v -2.5 0 11
v 2.5 0 11
v -2.5 0 10
v -0.5 0 10
v 0.5 0 10
v 2.5 0 10
v -2.5 0 8
v -1.5 0 8
v -0.5 0 8
v 0.5 0 8
v 1.5 0 8
v 2.5 0 8
v -2.5 0 7
v -1.5 0 7
v 1.5 0 7
v 2.5 0 7
v -2.5 0 4
v -1.5 0 4
v 1.5 0 4
v 2.5 0 4
v -2.5 0 3
v 2.5 0 3
v -2.5 0 2
v -1.5 0 2
v 1.5 0 2
v 2.5 0 2
v -2.5 0 -4
v -1.5 0 -4
v 1.5 0 -4
v 2.5 0 -4
v -2.5 0 -6
v -1.5 0 -6
v 1.5 0 -6
v 2.5 0 -6
v -2.5 0 -8
v -1.5 0 -8
v 1.5 0 -8
v 2.5 0 -8
v -2.5 0 -9
v -1.5 0 -9
v 1.5 0 -9
v 2.5 0 -9
v -1.5 0 -10
v -0.5 0 -10
v 0.5 0 -10
v 1.5 0 -10
v -0.5 0 -11
v 0.5 0 -11
v -2.5 3 -8
v 2.5 3 -8
v -1.5 3 -9
v 1.5 3 -9
v -2.5 3 -10
v -1.5 3 -10
v 1.5 3 -10
v 2.5 3 -10
v -2.5 4 -10
v 2.5 4 -10
v -2.5 4 -11
v 2.5 4 -11
v -2.5 1 11
v 2.5 1 11
v -2.5 1 10
v -0.5 1 10
v 0.5 1 10
v 2.5 1 10
v -0.5 1 9
v 0.5 1 9
v -2.5 1 8
v -1.5 1 8
v -0.5 1 8
v 0.5 1 8
v 1.5 1 8
v 2.5 1 8
v -2.5 1 7
v -1.5 1 7
v 1.5 1 7
v 2.5 1 7
v -1.5 1 6
v 1.5 1 6
v -1.5 1 2
v 1.5 1 2
v -1.5 1 -2
v 1.5 1 -2
v -2.5 1 -8
v -1.5 1 -8
v 1.5 1 -8
v 2.5 1 -8
v -2.5 1 -9
v -1.5 1 -9
v 1.5 1 -9
v 2.5 1 -9
v -0.5 1 -10
v 0.5 1 -10
v -0.5 1 -11
v 0.5 1 -11
v -0.5 2 9
v 0.5 2 9
v -0.5 2 8
v 0.5 2 8
v -1.5 2 6
v 1.5 2 6
v -2.5 2 4
v -1.5 2 4
v 1.5 2 4
v 2.5 2 4
v -2.5 2 3
v 2.5 2 3
v -1.5 2 2
v 1.5 2 2
v -1.5 2 -2
v 1.5 2 -2
v -2.5 2 -6
v -1.5 2 -6
v -0.5 2 -6
v 0.5 2 -6
v 1.5 2 -6
v 2.5 2 -6
v -1.5 2 -9
v -0.5 2 -9
v 0.5 2 -9
v 1.5 2 -9
v -1.5 3 -4
v 1.5 3 -4
v -1.5 3 -6
v 1.5 3 -6
v -1.5 4 -2
v -0.5 4 -2
v 0.5 4 -2
v 1.5 4 -2
v -0.5 4 -3
v 0.5 4 -3
v -1.5 4 -4
v 1.5 4 -4
v -2.5 4 -8
v 2.5 4 -8
v -2.5 4 -10
v 2.5 4 -10
v -0.5 5 -2
v 0.5 5 -2
v -0.5 5 -3
v 0.5 5 -3
v -2.5 5 -10
v 2.5 5 -10
v -2.5 5 -11
v 2.5 5 -11

# faces
f 12/1/1 2/1/1 1/1/1
f 13/1/1 2/1/1 12/1/1
f 14/6/1 4/6/1 3/6/1
f 15/6/1 4/6/1 14/6/1
f 16/1/1 7/1/1 6/1/1
f 16/4/1 8/4/1 7/4/1
f 17/1/1 9/1/1 8/1/1
f 17/4/1 8/4/1 16/4/1
f 18/6/1 11/6/1 10/6/1
f 19/6/1 11/6/1 18/6/1
f 20/4/1 6/4/1 5/4/1
f 21/1/1 17/1/1 16/1/1
f 21/4/1 6/4/1 20/4/1
f 21/1/1 16/1/1 6/1/1
f 22/1/1 9/1/1 17/1/1
f 22/1/1 17/1/1 21/1/1
f 25/1/1 24/1/1 23/1/1
f 26/1/1 24/1/1 25/1/1
f 28/4/1 27/4/1 26/4/1
f 29/4/1 27/4/1 28/4/1
f 36/1/1 31/1/1 30/1/1
f 37/1/1 31/1/1 36/1/1
f 38/1/1 33/1/1 32/1/1
f 39/1/1 33/1/1 38/1/1
f 40/1/1 35/1/1 34/1/1
f 41/1/1 35/1/1 40/1/1
f 42/1/1 31/1/1 37/1/1
f 43/1/1 31/1/1 42/1/1
f 45/4/1 39/4/1 38/4/1
f 45/4/1 41/4/1 40/4/1
f 45/4/1 40/4/1 39/4/1
f 46/4/1 41/4/1 45/4/1
f 47/4/1 41/4/1 46/4/1
f 48/1/1 45/1/1 44/1/1
f 49/1/1 45/1/1 48/1/1
f 50/1/1 47/1/1 46/1/1
f 51/1/1 47/1/1 50/1/1
f 52/1/1 48/1/1 44/1/1
f 53/1/1 48/1/1 52/1/1
f 58/1/1 55/1/1 54/1/1
f 59/1/1 55/1/1 58/1/1
f 60/1/1 55/1/1 59/1/1
f 61/2/1 57/2/1 56/2/1
f 62/2/1 57/2/1 61/2/1
f 63/5/1 60/5/1 59/5/1
f 64/5/1 60/5/1 63/5/1
f 67/5/1 66/5/1 65/5/1
f 68/5/1 66/5/1 67/5/1
f 71/1/1 70/1/1 69/1/1
f 72/1/1 70/1/1 71/1/1
f 73/1/2 74/1/2 75/1/2
f 75/1/2 74/1/2 76/1/2
f 77/1/2 78/1/2 81/1/2
f 81/1/2 78/1/2 82/1/2
f 82/1/2 78/1/2 83/1/2
f 79/2/2 80/2/2 84/2/2
f 84/2/2 80/2/2 85/2/2
f 82/5/2 83/5/2 86/5/2
f 86/5/2 83/5/2 87/5/2
f 88/5/2 89/5/2 90/5/2
f 90/5/2 89/5/2 91/5/2
f 92/1/2 93/1/2 98/1/2
f 98/1/2 93/1/2 99/1/2
f 94/1/2 95/1/2 100/1/2
f 100/1/2 95/1/2 101/1/2
f 96/1/2 97/1/2 102/1/2
f 102/1/2 97/1/2 103/1/2
f 99/1/2 93/1/2 104/1/2
f 104/1/2 93/1/2 105/1/2
f 100/4/2 101/4/2 107/4/2
f 102/4/2 103/4/2 107/4/2
f 101/4/2 102/4/2 107/4/2
f 107/4/2 103/4/2 108/4/2
f 108/4/2 103/4/2 109/4/2
f 106/1/2 107/1/2 110/1/2
f 110/1/2 107/1/2 111/1/2
f 108/1/2 109/1/2 112/1/2
f 112/1/2 109/1/2 113/1/2
f 106/1/2 110/1/2 114/1/2
f 114/1/2 110/1/2 115/1/2
f 116/1/2 117/1/2 127/1/2
f 127/1/2 117/1/2 128/1/2
f 118/6/2 119/6/2 129/6/2
f 129/6/2 119/6/2 130/6/2
f 121/1/2 122/1/2 131/1/2
f 122/4/2 123/4/2 131/4/2
f 123/1/2 124/1/2 132/1/2
f 131/4/2 123/4/2 132/4/2
f 125/6/2 126/6/2 133/6/2
f 133/6/2 126/6/2 134/6/2
f 120/4/2 121/4/2 135/4/2
f 131/1/2 132/1/2 136/1/2
f 135/4/2 121/4/2 136/4/2
f 121/1/2 131/1/2 136/1/2
f 132/1/2 124/1/2 137/1/2
f 136/1/2 132/1/2 137/1/2
f 138/1/2 139/1/2 140/1/2
f 140/1/2 139/1/2 141/1/2
f 141/4/2 142/4/2 143/4/2
f 143/4/2 142/4/2 144/4/2
f 147/1/3 146/1/3 145/1/3
f 148/1/3 146/1/3 147/1/3
f 151/5/3 150/5/3 149/5/3
f 152/5/3 150/5/3 151/5/3
f 155/6/3 154/6/3 153/6/3
f 156/6/3 154/6/3 155/6/3
f 157/1/3 156/1/3 155/1/3
f 158/1/3 156/1/3 157/1/3
f 161/1/3 160/1/3 159/1/3
f 162/1/3 160/1/3 161/1/3
f 163/6/3 162/6/3 161/6/3
f 164/6/3 162/6/3 163/6/3
f 167/1/3 166/1/3 165/1/3
f 168/1/3 166/1/3 167/1/3
f 171/4/3 170/4/3 169/4/3
f 172/4/3 170/4/3 171/4/3
f 175/4/3 174/4/3 173/4/3
f 176/4/3 174/4/3 175/4/3
f 180/1/3 178/1/3 177/1/3
f 180/1/3 179/1/3 178/1/3
f 182/1/3 180/1/3 177/1/3
f 182/5/3 181/5/3 180/5/3
f 183/5/3 181/5/3 182/5/3
f 184/1/3 182/1/3 177/1/3
f 185/1/3 182/1/3 184/1/3
f 186/1/3 182/1/3 185/1/3
f 191/6/3 188/6/3 187/6/3
f 192/6/3 188/6/3 191/6/3
f 195/6/3 194/6/3 193/6/3
f 196/6/3 194/6/3 195/6/3
f 197/1/3 190/1/3 189/1/3
f 198/1/3 190/1/3 197/1/3
f 201/1/3 200/1/3 199/1/3
f 202/1/3 200/1/3 201/1/3
f 203/1/3 200/1/3 202/1/3
f 204/1/3 200/1/3 203/1/3
f 207/4/3 206/4/3 205/4/3
f 208/4/3 206/4/3 207/4/3
f 209/1/4 210/1/4 211/1/4
f 211/1/4 210/1/4 212/1/4
f 213/1/4 214/1/4 215/1/4
f 215/1/4 214/1/4 216/1/4
f 217/5/4 218/5/4 219/5/4
f 219/5/4 218/5/4 220/5/4
f 221/6/4 222/6/4 223/6/4
f 223/6/4 222/6/4 224/6/4
f 225/6/4 226/6/4 227/6/4
f 227/6/4 226/6/4 228/6/4
f 229/1/4 230/1/4 231/1/4
f 231/1/4 230/1/4 232/1/4
f 233/5/4 234/5/4 235/5/4
f 235/5/4 234/5/4 236/5/4
f 237/1/4 238/1/4 239/1/4
f 239/1/4 238/1/4 240/1/4
f 241/1/4 242/1/4 243/1/4
f 243/1/4 242/1/4 244/1/4
f 244/1/4 242/1/4 245/1/4
f 245/1/4 246/1/4 247/1/4
f 247/1/4 246/1/4 248/1/4
f 248/1/4 246/1/4 251/1/4
f 251/1/4 246/1/4 252/1/4
f 249/1/4 250/1/4 253/1/4
f 250/1/4 251/1/4 253/1/4
f 253/1/4 251/1/4 254/1/4
f 255/6/4 256/6/4 257/6/4
f 257/6/4 256/6/4 258/6/4
f 259/6/4 260/6/4 261/6/4
f 261/6/4 260/6/4 262/6/4
f 263/1/4 264/1/4 268/1/4
f 265/1/4 266/1/4 269/1/4
f 266/4/4 267/4/4 270/4/4
f 269/1/4 266/1/4 270/1/4
f 270/4/4 267/4/4 272/4/4
f 271/1/4 272/1/4 273/1/4
f 272/4/4 267/4/4 274/4/4
f 273/1/4 272/1/4 274/1/4
f 267/1/4 268/1/4 275/1/4
f 274/4/4 267/4/4 275/4/4
f 268/1/4 264/1/4 276/1/4
f 275/1/4 268/1/4 276/1/4
f 276/1/4 264/1/4 277/1/4
f 277/1/4 264/1/4 278/1/4
f 281/2/4 282/2/4 283/2/4
f 283/2/4 282/2/4 284/2/4
f 279/4/4 280/4/4 285/4/4
f 285/4/4 280/4/4 286/4/4
f 289/1/5 288/1/5 287/1/5
f 290/1/5 288/1/5 289/1/5
f 291/1/5 288/1/5 290/1/5
f 292/1/5 288/1/5 291/1/5
f 295/1/5 291/1/5 290/1/5
f 296/1/5 291/1/5 295/1/5
f 299/6/5 294/6/5 293/6/5
f 300/1/5 295/1/5 294/1/5
f 300/6/5 294/6/5 299/6/5
f 300/1/5 296/1/5 295/1/5
f 300/1/5 297/1/5 296/1/5
f 301/6/5 298/6/5 297/6/5
f 301/1/5 297/1/5 300/1/5
f 302/6/5 298/6/5 301/6/5
f 304/1/5 301/1/5 300/1/5
f 305/1/5 301/1/5 304/1/5
f 307/4/5 304/4/5 303/4/5
f 307/4/5 306/4/5 305/4/5
f 307/4/5 305/4/5 304/4/5
f 308/4/5 306/4/5 307/4/5
f 309/1/5 308/1/5 307/1/5
f 310/1/5 308/1/5 309/1/5
f 311/1/5 308/1/5 310/1/5
f 312/1/5 308/1/5 311/1/5
f 313/4/5 310/4/5 309/4/5
f 314/1/5 311/1/5 310/1/5
f 314/4/5 310/4/5 313/4/5
f 315/4/5 312/4/5 311/4/5
f 315/1/5 311/1/5 314/1/5
f 316/4/5 312/4/5 315/4/5
f 317/1/5 314/1/5 313/1/5
f 317/1/5 315/1/5 314/1/5
f 317/1/5 316/1/5 315/1/5
f 318/1/5 316/1/5 317/1/5
f 319/1/5 316/1/5 318/1/5
f 320/1/5 316/1/5 319/1/5
f 322/1/5 319/1/5 318/1/5
f 323/1/5 319/1/5 322/1/5
f 325/6/5 322/6/5 321/6/5
f 326/1/5 323/1/5 322/1/5
f 326/6/5 322/6/5 325/6/5
f 327/6/5 324/6/5 323/6/5
f 327/1/5 323/1/5 326/1/5
f 328/6/5 324/6/5 327/6/5
f 329/1/5 327/1/5 326/1/5
f 330/1/5 327/1/5 329/1/5
f 331/1/5 327/1/5 330/1/5
f 332/1/5 327/1/5 331/1/5
f 333/2/5 331/2/5 330/2/5
f 334/2/5 331/2/5 333/2/5
f 337/1/5 336/1/5 335/1/5
f 338/1/5 336/1/5 337/1/5
f 339/1/5 337/1/5 335/1/5
f 340/1/5 337/1/5 339/1/5
f 341/1/5 336/1/5 338/1/5
f 342/1/5 336/1/5 341/1/5
f 345/4/5 344/4/5 343/4/5
f 346/4/5 344/4/5 345/4/5
f 347/1/6 348/1/6 349/1/6
f 349/1/6 348/1/6 350/1/6
f 350/1/6 348/1/6 351/1/6
f 351/1/6 348/1/6 352/1/6
f 350/1/6 351/1/6 353/1/6
f 353/1/6 351/1/6 354/1/6
f 355/6/6 356/6/6 361/6/6
f 357/1/6 358/1/6 362/1/6
f 361/6/6 356/6/6 362/6/6
f 356/1/6 357/1/6 362/1/6
f 358/1/6 359/1/6 362/1/6
f 359/6/6 360/6/6 363/6/6
f 362/1/6 359/1/6 363/1/6
f 363/6/6 360/6/6 364/6/6
f 362/1/6 363/1/6 365/1/6
f 365/1/6 363/1/6 366/1/6
f 367/1/6 368/1/6 369/1/6
f 369/1/6 368/1/6 370/1/6
f 371/6/6 372/6/6 375/6/6
f 375/6/6 372/6/6 376/6/6
f 373/6/6 374/6/6 377/6/6
f 377/6/6 374/6/6 378/6/6
f 379/2/6 380/2/6 381/2/6
f 381/2/6 380/2/6 382/2/6
f 383/5/6 384/5/6 385/5/6
f 385/5/6 384/5/6 386/5/6
f 387/1/6 388/1/6 390/1/6
f 390/1/6 388/1/6 391/1/6
f 389/4/6 390/4/6 393/4/6
f 391/4/6 392/4/6 393/4/6
f 390/4/6 391/4/6 393/4/6
f 393/4/6 392/4/6 394/4/6
f 393/1/6 394/1/6 395/1/6
f 395/1/6 394/1/6 396/1/6
f 393/1/6 395/1/6 397/1/6
f 396/1/6 394/1/6 398/1/6
f 393/1/6 397/1/6 399/1/6
f 399/1/6 397/1/6 400/1/6
f 398/1/6 394/1/6 403/1/6
f 403/1/6 394/1/6 404/1/6
f 400/4/6 401/4/6 405/4/6
f 401/1/6 402/1/6 406/1/6
f 405/4/6 401/4/6 406/4/6
f 402/4/6 403/4/6 407/4/6
f 406/1/6 402/1/6 407/1/6
f 407/4/6 403/4/6 408/4/6
f 409/1/6 410/1/6 411/1/6
f 411/1/6 410/1/6 412/1/6
f 413/1/6 414/1/6 417/1/6
f 415/1/6 416/1/6 418/1/6
f 413/1/6 417/1/6 419/1/6
f 417/1/6 418/1/6 419/1/6
f 418/1/6 416/1/6 420/1/6
f 419/1/6 418/1/6 420/1/6
f 421/1/6 422/1/6 423/1/6
f 423/1/6 422/1/6 424/1/6
f 425/5/6 426/5/6 427/5/6
f 427/5/6 426/5/6 428/5/6
f 429/4/6 430/4/6 431/4/6
f 431/4/6 430/4/6 432/4/6
