# MagicaVoxel @ Ephtracy

# material
mtllib FormulaOne01.mtl
usemtl palette

# normals
vn -1 0 0
vn 1 0 0
vn 0 0 1
vn 0 0 -1
vn 0 -1 0
vn 0 1 0

# texcoords
vt 0.814453 0.5
vt 0.845703 0.5
vt 0.849609 0.5
vt 0.970703 0.5
vt 0.986328 0.5
vt 0.990234 0.5

# verts
v -2.5 0 11
v -2.5 0 10
v -2.5 0 8
v -2.5 0 7
v -2.5 0 4
v -2.5 0 3
v -2.5 0 2
v -2.5 0 -4
v -2.5 0 -6
v -2.5 0 -8
v -2.5 0 -9
v -2.5 1 11
v -2.5 1 10
v -2.5 1 8
v -2.5 1 7
v -2.5 1 2
v -2.5 1 -4
v -2.5 1 -8
v -2.5 1 -9
v -2.5 2 4
v -2.5 2 3
v -2.5 2 -6
v -2.5 3 -8
v -2.5 3 -10
v -2.5 4 -8
v -2.5 4 -10
v -2.5 4 -11
v -2.5 5 -10
v -2.5 5 -11
v -1.5 0 7
v -1.5 0 4
v -1.5 0 -6
v -1.5 0 -8
v -1.5 0 -9
v -1.5 0 -10
v -1.5 1 7
v -1.5 1 6
v -1.5 1 -6
v -1.5 1 -8
v -1.5 1 -9
v -1.5 1 -10
v -1.5 2 6
v -1.5 2 4
v -1.5 2 -2
v -1.5 2 -6
v -1.5 2 -9
v -1.5 2 -10
v -1.5 3 -4
v -1.5 3 -6
v -1.5 3 -9
v -1.5 3 -10
v -1.5 4 -2
v -1.5 4 -4
v -0.5 0 10
v -0.5 0 8
v -0.5 0 -10
v -0.5 0 -11
v -0.5 1 10
v -0.5 1 9
v -0.5 1 8
v -0.5 1 -10
v -0.5 1 -11
v -0.5 2 9
v -0.5 2 8
v -0.5 4 -2
v -0.5 4 -3
v -0.5 5 -2
v -0.5 5 -3
v 1.5 1 2
v 1.5 1 -2
v 1.5 2 2
v 1.5 2 -2
v -1.5 1 2
v -1.5 1 -2
v -1.5 2 2
v -1.5 2 -2
v 0.5 0 10
v 0.5 0 8
v 0.5 0 -10
v 0.5 0 -11
v 0.5 1 10
v 0.5 1 9
v 0.5 1 8
v 0.5 1 -10
v 0.5 1 -11
v 0.5 2 9
v 0.5 2 8
v 0.5 4 -2
v 0.5 4 -3
v 0.5 5 -2
v 0.5 5 -3
v 1.5 0 7
v 1.5 0 4
v 1.5 0 -6
v 1.5 0 -8
v 1.5 0 -9
v 1.5 0 -10
v 1.5 1 7
v 1.5 1 6
v 1.5 1 -6
v 1.5 1 -8
v 1.5 1 -9
v 1.5 1 -10
v 1.5 2 6
v 1.5 2 4
v 1.5 2 -2
v 1.5 2 -6
v 1.5 2 -9
v 1.5 2 -10
v 1.5 3 -4
v 1.5 3 -6
v 1.5 3 -9
v 1.5 3 -10
v 1.5 4 -2
v 1.5 4 -4
v 2.5 0 11
v 2.5 0 10
v 2.5 0 8
v 2.5 0 7
v 2.5 0 4
v 2.5 0 3
v 2.5 0 2
v 2.5 0 -4
v 2.5 0 -6
v 2.5 0 -8
v 2.5 0 -9
v 2.5 1 11
v 2.5 1 10
v 2.5 1 8
v 2.5 1 7
v 2.5 1 2
v 2.5 1 -4
v 2.5 1 -8
v 2.5 1 -9
v 2.5 2 4
v 2.5 2 3
v 2.5 2 -6
v 2.5 3 -8
v 2.5 3 -10
v 2.5 4 -8
v 2.5 4 -10
v 2.5 4 -11
v 2.5 5 -10
v 2.5 5 -11
v -2.5 0 11
v -2.5 1 11
v 2.5 0 11
v 2.5 1 11
v -0.5 1 9
v -0.5 2 9
v 0.5 1 9
v 0.5 2 9
v -2.5 0 8
v -2.5 1 8
v -1.5 0 8
v -1.5 1 8
v -0.5 0 8
v -0.5 1 8
v 0.5 0 8
v 0.5 1 8
v 1.5 0 8
v 1.5 1 8
v 2.5 0 8
v 2.5 1 8
v -1.5 1 6
v -1.5 2 6
v 1.5 1 6
v 1.5 2 6
v -2.5 0 4
v -2.5 2 4
v -1.5 0 4
v -1.5 2 4
v 1.5 0 4
v 1.5 2 4
v 2.5 0 4
v 2.5 2 4
v -1.5 1 -2
v -1.5 2 -2
v -1.5 4 -2
v -0.5 4 -2
v -0.5 5 -2
v 0.5 4 -2
v 0.5 5 -2
v 1.5 1 -2
v 1.5 2 -2
v 1.5 4 -2
v -2.5 0 -8
v -2.5 1 -8
v -2.5 3 -8
v -2.5 4 -8
v -1.5 0 -8
v -1.5 1 -8
v 1.5 0 -8
v 1.5 1 -8
v 2.5 0 -8
v 2.5 1 -8
v 2.5 3 -8
v 2.5 4 -8
v -1.5 2 -9
v -1.5 3 -9
v -0.5 2 -9
v 0.5 2 -9
v 1.5 2 -9
v 1.5 3 -9
v -2.5 4 -10
v -2.5 5 -10
v 2.5 4 -10
v 2.5 5 -10
v -2.5 0 10
v -2.5 1 10
v -0.5 0 10
v -0.5 1 10
v 0.5 0 10
v 0.5 1 10
v 2.5 0 10
v 2.5 1 10
v -0.5 1 8
v -0.5 2 8
v 0.5 1 8
v 0.5 2 8
v -2.5 0 7
v -2.5 1 7
v -1.5 0 7
v -1.5 1 7
v 1.5 0 7
v 1.5 1 7
v 2.5 0 7
v 2.5 1 7
v -1.5 1 2
v -1.5 2 2
v 1.5 1 2
v 1.5 2 2
v -0.5 4 -3
v -0.5 5 -3
v 0.5 4 -3
v 0.5 5 -3
v -1.5 3 -4
v -1.5 4 -4
v 1.5 3 -4
v 1.5 4 -4
v -2.5 0 -6
v -2.5 2 -6
v -1.5 0 -6
v -1.5 1 -6
v -1.5 2 -6
v -1.5 3 -6
v -0.5 2 -6
v 0.5 2 -6
v 1.5 0 -6
v 1.5 1 -6
v 1.5 2 -6
v 1.5 3 -6
v 2.5 0 -6
v 2.5 2 -6
v -2.5 0 -9
v -2.5 1 -9
v -1.5 0 -9
v -1.5 1 -9
v 1.5 0 -9
v 1.5 1 -9
v 2.5 0 -9
v 2.5 1 -9
v -2.5 3 -10
v -2.5 4 -10
v -1.5 0 -10
v -1.5 1 -10
v -1.5 2 -10
v -1.5 3 -10
v -0.5 0 -10
v -0.5 1 -10
v 0.5 0 -10
v 0.5 1 -10
v 1.5 0 -10
v 1.5 1 -10
v 1.5 2 -10
v 1.5 3 -10
v 2.5 3 -10
v 2.5 4 -10
v -2.5 4 -11
v -2.5 5 -11
v -0.5 0 -11
v -0.5 1 -11
v 0.5 0 -11
v 0.5 1 -11
v 2.5 4 -11
v 2.5 5 -11
v -2.5 0 11
v 2.5 0 11
v -2.5 0 10
v -0.5 0 10
v 0.5 0 10
v 2.5 0 10
v -2.5 0 8
v -1.5 0 8
v -0.5 0 8
v 0.5 0 8
v 1.5 0 8
v 2.5 0 8
v -2.5 0 7
v -1.5 0 7
v 1.5 0 7
v 2.5 0 7
v -2.5 0 4
v -1.5 0 4
v 1.5 0 4
v 2.5 0 4
v -2.5 0 3
v 2.5 0 3
v -2.5 0 2
v -1.5 0 2
v 1.5 0 2
v 2.5 0 2
v -2.5 0 -4
v -1.5 0 -4
v 1.5 0 -4
v 2.5 0 -4
v -2.5 0 -6
v -1.5 0 -6
v 1.5 0 -6
v 2.5 0 -6
v -2.5 0 -8
v -1.5 0 -8
v 1.5 0 -8
v 2.5 0 -8
v -2.5 0 -9
v -1.5 0 -9
v 1.5 0 -9
v 2.5 0 -9
v -1.5 0 -10
v -0.5 0 -10
v 0.5 0 -10
v 1.5 0 -10
v -0.5 0 -11
v 0.5 0 -11
v -2.5 3 -8
v 2.5 3 -8
v -1.5 3 -9
v 1.5 3 -9
v -2.5 3 -10
v -1.5 3 -10
v 1.5 3 -10
v 2.5 3 -10
v -2.5 4 -10
v 2.5 4 -10
v -2.5 4 -11
v 2.5 4 -11
v -2.5 1 11
v 2.5 1 11
v -2.5 1 10
v -0.5 1 10
v 0.5 1 10
v 2.5 1 10
v -0.5 1 9
v 0.5 1 9
v -2.5 1 8
v -1.5 1 8
v -0.5 1 8
v 0.5 1 8
v 1.5 1 8
v 2.5 1 8
v -2.5 1 7
v -1.5 1 7
v 1.5 1 7
v 2.5 1 7
v -1.5 1 6
v 1.5 1 6
v -1.5 1 2
v 1.5 1 2
v -1.5 1 -2
v 1.5 1 -2
v -2.5 1 -8
v -1.5 1 -8
v 1.5 1 -8
v 2.5 1 -8
v -2.5 1 -9
v -1.5 1 -9
v 1.5 1 -9
v 2.5 1 -9
v -0.5 1 -10
v 0.5 1 -10
v -0.5 1 -11
v 0.5 1 -11
v -0.5 2 9
v 0.5 2 9
v -0.5 2 8
v 0.5 2 8
v -1.5 2 6
v 1.5 2 6
v -2.5 2 4
v -1.5 2 4
v 1.5 2 4
v 2.5 2 4
v -2.5 2 3
v 2.5 2 3
v -1.5 2 2
v 1.5 2 2
v -1.5 2 -2
v 1.5 2 -2
v -2.5 2 -6
v -1.5 2 -6
v -0.5 2 -6
v 0.5 2 -6
v 1.5 2 -6
v 2.5 2 -6
v -1.5 2 -9
v -0.5 2 -9
v 0.5 2 -9
v 1.5 2 -9
v -1.5 3 -4
v 1.5 3 -4
v -1.5 3 -6
v 1.5 3 -6
v -1.5 4 -2
v -0.5 4 -2
v 0.5 4 -2
v 1.5 4 -2
v -0.5 4 -3
v 0.5 4 -3
v -1.5 4 -4
v 1.5 4 -4
v -2.5 4 -8
v 2.5 4 -8
v -2.5 4 -10
v 2.5 4 -10
v -0.5 5 -2
v 0.5 5 -2
v -0.5 5 -3
v 0.5 5 -3
v -2.5 5 -10
v 2.5 5 -10
v -2.5 5 -11
v 2.5 5 -11

# faces
f 12/3/1 2/3/1 1/3/1
f 13/3/1 2/3/1 12/3/1
f 14/6/1 4/6/1 3/6/1
f 15/6/1 4/6/1 14/6/1
f 16/3/1 7/3/1 6/3/1
f 16/2/1 8/2/1 7/2/1
f 17/3/1 9/3/1 8/3/1
f 17/2/1 8/2/1 16/2/1
f 18/6/1 11/6/1 10/6/1
f 19/6/1 11/6/1 18/6/1
f 20/4/1 6/4/1 5/4/1
f 21/3/1 17/3/1 16/3/1
f 21/4/1 6/4/1 20/4/1
f 21/3/1 16/3/1 6/3/1
f 22/3/1 9/3/1 17/3/1
f 22/3/1 17/3/1 21/3/1
f 25/3/1 24/3/1 23/3/1
f 26/3/1 24/3/1 25/3/1
f 28/4/1 27/4/1 26/4/1
f 29/4/1 27/4/1 28/4/1
f 36/3/1 31/3/1 30/3/1
f 37/3/1 31/3/1 36/3/1
f 38/3/1 33/3/1 32/3/1
f 39/3/1 33/3/1 38/3/1
f 40/3/1 35/3/1 34/3/1
f 41/3/1 35/3/1 40/3/1
f 42/3/1 31/3/1 37/3/1
f 43/3/1 31/3/1 42/3/1
f 45/4/1 39/4/1 38/4/1
f 45/4/1 41/4/1 40/4/1
f 45/4/1 40/4/1 39/4/1
f 46/4/1 41/4/1 45/4/1
f 47/4/1 41/4/1 46/4/1
f 48/3/1 45/3/1 44/3/1
f 49/3/1 45/3/1 48/3/1
f 50/3/1 47/3/1 46/3/1
f 51/3/1 47/3/1 50/3/1
f 52/3/1 48/3/1 44/3/1
f 53/3/1 48/3/1 52/3/1
f 58/3/1 55/3/1 54/3/1
f 59/3/1 55/3/1 58/3/1
f 60/3/1 55/3/1 59/3/1
f 61/1/1 57/1/1 56/1/1
f 62/1/1 57/1/1 61/1/1
f 63/5/1 60/5/1 59/5/1
f 64/5/1 60/5/1 63/5/1
f 67/5/1 66/5/1 65/5/1
f 68/5/1 66/5/1 67/5/1
f 71/3/1 70/3/1 69/3/1
f 72/3/1 70/3/1 71/3/1
f 73/3/2 74/3/2 75/3/2
f 75/3/2 74/3/2 76/3/2
f 77/3/2 78/3/2 81/3/2
f 81/3/2 78/3/2 82/3/2
f 82/3/2 78/3/2 83/3/2
f 79/1/2 80/1/2 84/1/2
f 84/1/2 80/1/2 85/1/2
f 82/5/2 83/5/2 86/5/2
f 86/5/2 83/5/2 87/5/2
f 88/5/2 89/5/2 90/5/2
f 90/5/2 89/5/2 91/5/2
f 92/3/2 93/3/2 98/3/2
f 98/3/2 93/3/2 99/3/2
f 94/3/2 95/3/2 100/3/2
f 100/3/2 95/3/2 101/3/2
f 96/3/2 97/3/2 102/3/2
f 102/3/2 97/3/2 103/3/2
f 99/3/2 93/3/2 104/3/2
f 104/3/2 93/3/2 105/3/2
f 100/4/2 101/4/2 107/4/2
f 102/4/2 103/4/2 107/4/2
f 101/4/2 102/4/2 107/4/2
f 107/4/2 103/4/2 108/4/2
f 108/4/2 103/4/2 109/4/2
f 106/3/2 107/3/2 110/3/2
f 110/3/2 107/3/2 111/3/2
f 108/3/2 109/3/2 112/3/2
f 112/3/2 109/3/2 113/3/2
f 106/3/2 110/3/2 114/3/2
f 114/3/2 110/3/2 115/3/2
f 116/3/2 117/3/2 127/3/2
f 127/3/2 117/3/2 128/3/2
f 118/6/2 119/6/2 129/6/2
f 129/6/2 119/6/2 130/6/2
f 121/3/2 122/3/2 131/3/2
f 122/2/2 123/2/2 131/2/2
f 123/3/2 124/3/2 132/3/2
f 131/2/2 123/2/2 132/2/2
f 125/6/2 126/6/2 133/6/2
f 133/6/2 126/6/2 134/6/2
f 120/4/2 121/4/2 135/4/2
f 131/3/2 132/3/2 136/3/2
f 135/4/2 121/4/2 136/4/2
f 121/3/2 131/3/2 136/3/2
f 132/3/2 124/3/2 137/3/2
f 136/3/2 132/3/2 137/3/2
f 138/3/2 139/3/2 140/3/2
f 140/3/2 139/3/2 141/3/2
f 141/4/2 142/4/2 143/4/2
f 143/4/2 142/4/2 144/4/2
f 147/3/3 146/3/3 145/3/3
f 148/3/3 146/3/3 147/3/3
f 151/5/3 150/5/3 149/5/3
f 152/5/3 150/5/3 151/5/3
f 155/6/3 154/6/3 153/6/3
f 156/6/3 154/6/3 155/6/3
f 157/3/3 156/3/3 155/3/3
f 158/3/3 156/3/3 157/3/3
f 161/3/3 160/3/3 159/3/3
f 162/3/3 160/3/3 161/3/3
f 163/6/3 162/6/3 161/6/3
f 164/6/3 162/6/3 163/6/3
f 167/3/3 166/3/3 165/3/3
f 168/3/3 166/3/3 167/3/3
f 171/4/3 170/4/3 169/4/3
f 172/4/3 170/4/3 171/4/3
f 175/4/3 174/4/3 173/4/3
f 176/4/3 174/4/3 175/4/3
f 180/3/3 178/3/3 177/3/3
f 180/3/3 179/3/3 178/3/3
f 182/3/3 180/3/3 177/3/3
f 182/5/3 181/5/3 180/5/3
f 183/5/3 181/5/3 182/5/3
f 184/3/3 182/3/3 177/3/3
f 185/3/3 182/3/3 184/3/3
f 186/3/3 182/3/3 185/3/3
f 191/6/3 188/6/3 187/6/3
f 192/6/3 188/6/3 191/6/3
f 195/6/3 194/6/3 193/6/3
f 196/6/3 194/6/3 195/6/3
f 197/3/3 190/3/3 189/3/3
f 198/3/3 190/3/3 197/3/3
f 201/3/3 200/3/3 199/3/3
f 202/3/3 200/3/3 201/3/3
f 203/3/3 200/3/3 202/3/3
f 204/3/3 200/3/3 203/3/3
f 207/4/3 206/4/3 205/4/3
f 208/4/3 206/4/3 207/4/3
f 209/3/4 210/3/4 211/3/4
f 211/3/4 210/3/4 212/3/4
f 213/3/4 214/3/4 215/3/4
f 215/3/4 214/3/4 216/3/4
f 217/5/4 218/5/4 219/5/4
f 219/5/4 218/5/4 220/5/4
f 221/6/4 222/6/4 223/6/4
f 223/6/4 222/6/4 224/6/4
f 225/6/4 226/6/4 227/6/4
f 227/6/4 226/6/4 228/6/4
f 229/3/4 230/3/4 231/3/4
f 231/3/4 230/3/4 232/3/4
f 233/5/4 234/5/4 235/5/4
f 235/5/4 234/5/4 236/5/4
f 237/3/4 238/3/4 239/3/4
f 239/3/4 238/3/4 240/3/4
f 241/3/4 242/3/4 243/3/4
f 243/3/4 242/3/4 244/3/4
f 244/3/4 242/3/4 245/3/4
f 245/3/4 246/3/4 247/3/4
f 247/3/4 246/3/4 248/3/4
f 248/3/4 246/3/4 251/3/4
f 251/3/4 246/3/4 252/3/4
f 249/3/4 250/3/4 253/3/4
f 250/3/4 251/3/4 253/3/4
f 253/3/4 251/3/4 254/3/4
f 255/6/4 256/6/4 257/6/4
f 257/6/4 256/6/4 258/6/4
f 259/6/4 260/6/4 261/6/4
f 261/6/4 260/6/4 262/6/4
f 263/3/4 264/3/4 268/3/4
f 265/3/4 266/3/4 269/3/4
f 266/4/4 267/4/4 270/4/4
f 269/3/4 266/3/4 270/3/4
f 270/4/4 267/4/4 272/4/4
f 271/3/4 272/3/4 273/3/4
f 272/4/4 267/4/4 274/4/4
f 273/3/4 272/3/4 274/3/4
f 267/3/4 268/3/4 275/3/4
f 274/4/4 267/4/4 275/4/4
f 268/3/4 264/3/4 276/3/4
f 275/3/4 268/3/4 276/3/4
f 276/3/4 264/3/4 277/3/4
f 277/3/4 264/3/4 278/3/4
f 281/1/4 282/1/4 283/1/4
f 283/1/4 282/1/4 284/1/4
f 279/4/4 280/4/4 285/4/4
f 285/4/4 280/4/4 286/4/4
f 289/3/5 288/3/5 287/3/5
f 290/3/5 288/3/5 289/3/5
f 291/3/5 288/3/5 290/3/5
f 292/3/5 288/3/5 291/3/5
f 295/3/5 291/3/5 290/3/5
f 296/3/5 291/3/5 295/3/5
f 299/6/5 294/6/5 293/6/5
f 300/3/5 295/3/5 294/3/5
f 300/6/5 294/6/5 299/6/5
f 300/3/5 296/3/5 295/3/5
f 300/3/5 297/3/5 296/3/5
f 301/6/5 298/6/5 297/6/5
f 301/3/5 297/3/5 300/3/5
f 302/6/5 298/6/5 301/6/5
f 304/3/5 301/3/5 300/3/5
f 305/3/5 301/3/5 304/3/5
f 307/4/5 304/4/5 303/4/5
f 307/4/5 306/4/5 305/4/5
f 307/4/5 305/4/5 304/4/5
f 308/4/5 306/4/5 307/4/5
f 309/3/5 308/3/5 307/3/5
f 310/3/5 308/3/5 309/3/5
f 311/3/5 308/3/5 310/3/5
f 312/3/5 308/3/5 311/3/5
f 313/2/5 310/2/5 309/2/5
f 314/3/5 311/3/5 310/3/5
f 314/2/5 310/2/5 313/2/5
f 315/2/5 312/2/5 311/2/5
f 315/3/5 311/3/5 314/3/5
f 316/2/5 312/2/5 315/2/5
f 317/3/5 314/3/5 313/3/5
f 317/3/5 315/3/5 314/3/5
f 317/3/5 316/3/5 315/3/5
f 318/3/5 316/3/5 317/3/5
f 319/3/5 316/3/5 318/3/5
f 320/3/5 316/3/5 319/3/5
f 322/3/5 319/3/5 318/3/5
f 323/3/5 319/3/5 322/3/5
f 325/6/5 322/6/5 321/6/5
f 326/3/5 323/3/5 322/3/5
f 326/6/5 322/6/5 325/6/5
f 327/6/5 324/6/5 323/6/5
f 327/3/5 323/3/5 326/3/5
f 328/6/5 324/6/5 327/6/5
f 329/3/5 327/3/5 326/3/5
f 330/3/5 327/3/5 329/3/5
f 331/3/5 327/3/5 330/3/5
f 332/3/5 327/3/5 331/3/5
f 333/1/5 331/1/5 330/1/5
f 334/1/5 331/1/5 333/1/5
f 337/3/5 336/3/5 335/3/5
f 338/3/5 336/3/5 337/3/5
f 339/3/5 337/3/5 335/3/5
f 340/3/5 337/3/5 339/3/5
f 341/3/5 336/3/5 338/3/5
f 342/3/5 336/3/5 341/3/5
f 345/4/5 344/4/5 343/4/5
f 346/4/5 344/4/5 345/4/5
f 347/3/6 348/3/6 349/3/6
f 349/3/6 348/3/6 350/3/6
f 350/3/6 348/3/6 351/3/6
f 351/3/6 348/3/6 352/3/6
f 350/3/6 351/3/6 353/3/6
f 353/3/6 351/3/6 354/3/6
f 355/6/6 356/6/6 361/6/6
f 357/3/6 358/3/6 362/3/6
f 361/6/6 356/6/6 362/6/6
f 356/3/6 357/3/6 362/3/6
f 358/3/6 359/3/6 362/3/6
f 359/6/6 360/6/6 363/6/6
f 362/3/6 359/3/6 363/3/6
f 363/6/6 360/6/6 364/6/6
f 362/3/6 363/3/6 365/3/6
f 365/3/6 363/3/6 366/3/6
f 367/3/6 368/3/6 369/3/6
f 369/3/6 368/3/6 370/3/6
f 371/6/6 372/6/6 375/6/6
f 375/6/6 372/6/6 376/6/6
f 373/6/6 374/6/6 377/6/6
f 377/6/6 374/6/6 378/6/6
f 379/1/6 380/1/6 381/1/6
f 381/1/6 380/1/6 382/1/6
f 383/5/6 384/5/6 385/5/6
f 385/5/6 384/5/6 386/5/6
f 387/3/6 388/3/6 390/3/6
f 390/3/6 388/3/6 391/3/6
f 389/4/6 390/4/6 393/4/6
f 391/4/6 392/4/6 393/4/6
f 390/4/6 391/4/6 393/4/6
f 393/4/6 392/4/6 394/4/6
f 393/3/6 394/3/6 395/3/6
f 395/3/6 394/3/6 396/3/6
f 393/3/6 395/3/6 397/3/6
f 396/3/6 394/3/6 398/3/6
f 393/3/6 397/3/6 399/3/6
f 399/3/6 397/3/6 400/3/6
f 398/3/6 394/3/6 403/3/6
f 403/3/6 394/3/6 404/3/6
f 400/4/6 401/4/6 405/4/6
f 401/3/6 402/3/6 406/3/6
f 405/4/6 401/4/6 406/4/6
f 402/4/6 403/4/6 407/4/6
f 406/3/6 402/3/6 407/3/6
f 407/4/6 403/4/6 408/4/6
f 409/3/6 410/3/6 411/3/6
f 411/3/6 410/3/6 412/3/6
f 413/3/6 414/3/6 417/3/6
f 415/3/6 416/3/6 418/3/6
f 413/3/6 417/3/6 419/3/6
f 417/3/6 418/3/6 419/3/6
f 418/3/6 416/3/6 420/3/6
f 419/3/6 418/3/6 420/3/6
f 421/3/6 422/3/6 423/3/6
f 423/3/6 422/3/6 424/3/6
f 425/5/6 426/5/6 427/5/6
f 427/5/6 426/5/6 428/5/6
f 429/4/6 430/4/6 431/4/6
f 431/4/6 430/4/6 432/4/6
