# MagicaVoxel @ Ephtracy

# material
mtllib GasTruck01.mtl
usemtl palette

# normals
vn -1 0 0
vn 1 0 0
vn 0 0 1
vn 0 0 -1
vn 0 -1 0
vn 0 1 0

# texcoords
vt 0.787109 0.5
vt 0.794922 0.5
vt 0.849609 0.5
vt 0.908203 0.5
vt 0.970703 0.5
vt 0.982422 0.5
vt 0.986328 0.5
vt 0.990234 0.5
vt 0.994141 0.5

# verts
v -7 0 20
v -7 0 18
v -7 0 13
v -7 0 10
v -7 0 9
v -7 0 -9
v -7 0 -14
v -7 0 -20
v -7 2 18
v -7 2 17
v -7 2 14
v -7 2 13
v -7 2 -9
v -7 2 -10
v -7 2 -13
v -7 2 -14
v -7 3 17
v -7 3 14
v -7 3 -10
v -7 3 -13
v -7 4 9
v -7 4 -20
v -7 5 14
v -7 5 11
v -7 6 14
v -7 6 11
v -7 7 19
v -7 7 11
v -7 12 19
v -7 12 11
v -7 13 20
v -7 13 10
v -6 0 18
v -6 0 13
v -6 0 -9
v -6 0 -14
v -6 1 10
v -6 1 9
v -6 2 18
v -6 2 17
v -6 2 14
v -6 2 13
v -6 2 -9
v -6 2 -10
v -6 2 -13
v -6 2 -14
v -6 3 17
v -6 3 14
v -6 3 -10
v -6 3 -13
v -6 4 9
v -6 5 14
v -6 5 11
v -6 6 14
v -6 6 11
v -6 7 19
v -6 7 11
v -6 8 8
v -6 8 -18
v -6 9 7
v -6 9 -17
v -6 11 7
v -6 11 -17
v -6 12 19
v -6 12 11
v -6 12 10
v -6 12 9
v -6 12 8
v -6 12 -18
v -5 6 8
v -5 6 -18
v -5 8 8
v -5 8 -18
v -5 12 8
v -5 12 -18
v -5 14 8
v -5 14 -18
v -4 4 -15
v -4 4 -19
v -4 5 8
v -4 5 -15
v -4 5 -18
v -4 6 8
v -4 6 -18
v -4 8 -18
v -4 8 -19
v -4 14 8
v -4 14 -18
v -4 15 8
v -4 15 -18
v -2 4 8
v -2 4 -15
v -2 5 8
v -2 5 -15
v -2 6 -19
v -2 6 -20
v -2 7 -19
v -2 7 -20
v -2 15 8
v -2 15 -18
v -2 16 8
v -2 16 -18
v -1 5 -19
v -1 5 -20
v -1 6 -19
v -1 6 -20
v -1 9 9
v -1 9 8
v -1 11 9
v -1 11 8
v -1 16 7
v -1 16 3
v -1 16 -3
v -1 16 -7
v -1 16 -13
v -1 16 -17
v -1 17 7
v -1 17 3
v -1 17 -3
v -1 17 -7
v -1 17 -13
v -1 17 -17
v 6 2 -19
v 6 2 -20
v 6 4 -19
v 6 4 -20
v 6 6 20
v 6 6 19
v 6 12 20
v 6 12 19
v -6 2 -19
v -6 2 -20
v -6 4 -19
v -6 4 -20
v -6 6 20
v -6 6 19
v -6 12 20
v -6 12 19
v 1 5 -19
v 1 5 -20
v 1 6 -19
v 1 6 -20
v 1 9 9
v 1 9 8
v 1 11 9
v 1 11 8
v 1 16 7
v 1 16 3
v 1 16 -3
v 1 16 -7
v 1 16 -13
v 1 16 -17
v 1 17 7
v 1 17 3
v 1 17 -3
v 1 17 -7
v 1 17 -13
v 1 17 -17
v 2 4 8
v 2 4 -15
v 2 5 8
v 2 5 -15
v 2 6 -19
v 2 6 -20
v 2 7 -19
v 2 7 -20
v 2 15 8
v 2 15 -18
v 2 16 8
v 2 16 -18
v 4 4 -15
v 4 4 -19
v 4 5 8
v 4 5 -15
v 4 5 -18
v 4 6 8
v 4 6 -18
v 4 8 -18
v 4 8 -19
v 4 14 8
v 4 14 -18
v 4 15 8
v 4 15 -18
v 5 6 8
v 5 6 -18
v 5 8 8
v 5 8 -18
v 5 12 8
v 5 12 -18
v 5 14 8
v 5 14 -18
v 6 0 18
v 6 0 13
v 6 0 -9
v 6 0 -14
v 6 1 10
v 6 1 9
v 6 2 18
v 6 2 17
v 6 2 14
v 6 2 13
v 6 2 -9
v 6 2 -10
v 6 2 -13
v 6 2 -14
v 6 3 17
v 6 3 14
v 6 3 -10
v 6 3 -13
v 6 4 9
v 6 5 14
v 6 5 11
v 6 6 14
v 6 6 11
v 6 7 19
v 6 7 11
v 6 8 8
v 6 8 -18
v 6 9 7
v 6 9 -17
v 6 11 7
v 6 11 -17
v 6 12 19
v 6 12 11
v 6 12 10
v 6 12 9
v 6 12 8
v 6 12 -18
v 7 0 20
v 7 0 18
v 7 0 13
v 7 0 10
v 7 0 9
v 7 0 -9
v 7 0 -14
v 7 0 -20
v 7 2 18
v 7 2 17
v 7 2 14
v 7 2 13
v 7 2 -9
v 7 2 -10
v 7 2 -13
v 7 2 -14
v 7 3 17
v 7 3 14
v 7 3 -10
v 7 3 -13
v 7 4 9
v 7 4 -20
v 7 5 14
v 7 5 11
v 7 6 14
v 7 6 11
v 7 7 19
v 7 7 11
v 7 12 19
v 7 12 11
v 7 13 20
v 7 13 10
v -7 0 20
v -7 13 20
v -6 1 20
v -6 3 20
v -6 5 20
v -6 6 20
v -6 12 20
v -5 3 20
v -5 5 20
v 5 3 20
v 5 5 20
v 6 1 20
v 6 3 20
v 6 5 20
v 6 6 20
v 6 12 20
v 7 0 20
v 7 13 20
v -6 6 19
v -6 12 19
v 6 6 19
v 6 12 19
v -7 2 14
v -7 3 14
v -6 2 14
v -6 3 14
v 6 2 14
v 6 3 14
v 7 2 14
v 7 3 14
v -7 0 13
v -7 2 13
v -6 0 13
v -6 2 13
v 6 0 13
v 6 2 13
v 7 0 13
v 7 2 13
v -7 5 11
v -7 6 11
v -7 7 11
v -7 12 11
v -6 5 11
v -6 6 11
v -6 7 11
v -6 12 11
v 6 5 11
v 6 6 11
v 6 7 11
v 6 12 11
v 7 5 11
v 7 6 11
v 7 7 11
v 7 12 11
v -7 0 9
v -7 4 9
v -6 1 9
v -6 4 9
v 6 1 9
v 6 4 9
v 7 0 9
v 7 4 9
v -6 8 8
v -6 12 8
v -5 6 8
v -5 8 8
v -5 12 8
v -5 14 8
v -4 5 8
v -4 6 8
v -4 14 8
v -4 15 8
v -2 4 8
v -2 5 8
v -2 15 8
v -2 16 8
v -1 9 8
v -1 11 8
v 1 9 8
v 1 11 8
v 2 4 8
v 2 5 8
v 2 15 8
v 2 16 8
v 4 5 8
v 4 6 8
v 4 14 8
v 4 15 8
v 5 6 8
v 5 8 8
v 5 12 8
v 5 14 8
v 6 8 8
v 6 12 8
v -1 16 7
v -1 17 7
v 1 16 7
v 1 17 7
v -1 16 -3
v -1 17 -3
v 1 16 -3
v 1 17 -3
v -7 2 -13
v -7 3 -13
v -6 2 -13
v -6 3 -13
v -1 16 -13
v -1 17 -13
v 1 16 -13
v 1 17 -13
v 6 2 -13
v 6 3 -13
v 7 2 -13
v 7 3 -13
v -7 0 -14
v -7 2 -14
v -6 0 -14
v -6 2 -14
v 6 0 -14
v 6 2 -14
v 7 0 -14
v 7 2 -14
v -4 4 -15
v -4 5 -15
v -2 4 -15
v -2 5 -15
v 2 4 -15
v 2 5 -15
v 4 4 -15
v 4 5 -15
v -7 7 19
v -7 12 19
v -6 7 19
v -6 12 19
v 6 7 19
v 6 12 19
v 7 7 19
v 7 12 19
v -7 0 18
v -7 2 18
v -6 0 18
v -6 2 18
v 6 0 18
v 6 2 18
v 7 0 18
v 7 2 18
v -7 2 17
v -7 3 17
v -6 2 17
v -6 3 17
v 6 2 17
v 6 3 17
v 7 2 17
v 7 3 17
v -7 5 14
v -7 6 14
v -6 5 14
v -6 6 14
v 6 5 14
v 6 6 14
v 7 5 14
v 7 6 14
v -7 0 10
v -7 13 10
v -6 1 10
v -6 12 10
v 6 1 10
v 6 12 10
v 7 0 10
v 7 13 10
v -6 4 9
v -6 12 9
v -1 9 9
v -1 11 9
v 1 9 9
v 1 11 9
v 6 4 9
v 6 12 9
v -1 16 3
v -1 17 3
v 1 16 3
v 1 17 3
v -1 16 -7
v -1 17 -7
v 1 16 -7
v 1 17 -7
v -7 0 -9
v -7 2 -9
v -6 0 -9
v -6 2 -9
v 6 0 -9
v 6 2 -9
v 7 0 -9
v 7 2 -9
v -7 2 -10
v -7 3 -10
v -6 2 -10
v -6 3 -10
v 6 2 -10
v 6 3 -10
v 7 2 -10
v 7 3 -10
v -1 16 -17
v -1 17 -17
v 1 16 -17
v 1 17 -17
v -6 8 -18
v -6 12 -18
v -5 6 -18
v -5 8 -18
v -5 9 -18
v -5 11 -18
v -5 12 -18
v -5 14 -18
v -4 6 -18
v -4 8 -18
v -4 14 -18
v -4 15 -18
v -2 15 -18
v -2 16 -18
v 2 15 -18
v 2 16 -18
v 4 6 -18
v 4 8 -18
v 4 14 -18
v 4 15 -18
v 5 6 -18
v 5 8 -18
v 5 9 -18
v 5 11 -18
v 5 12 -18
v 5 14 -18
v 6 8 -18
v 6 12 -18
v -6 2 -19
v -6 4 -19
v -4 4 -19
v -4 8 -19
v -2 6 -19
v -2 7 -19
v -1 5 -19
v -1 6 -19
v 1 5 -19
v 1 6 -19
v 2 6 -19
v 2 7 -19
v 4 4 -19
v 4 8 -19
v 6 2 -19
v 6 4 -19
v -7 0 -20
v -7 4 -20
v -6 1 -20
v -6 2 -20
v -6 4 -20
v -2 6 -20
v -2 7 -20
v -1 5 -20
v -1 6 -20
v 1 5 -20
v 1 6 -20
v 2 6 -20
v 2 7 -20
v 6 1 -20
v 6 2 -20
v 6 4 -20
v 7 0 -20
v 7 4 -20
v -7 0 20
v 7 0 20
v -7 0 18
v -6 0 18
v 6 0 18
v 7 0 18
v -7 0 13
v -6 0 13
v 6 0 13
v 7 0 13
v -7 0 10
v 7 0 10
v -7 0 9
v 7 0 9
v -7 0 -9
v -6 0 -9
v 6 0 -9
v 7 0 -9
v -7 0 -14
v -6 0 -14
v 6 0 -14
v 7 0 -14
v -7 0 -20
v 7 0 -20
v -6 1 10
v 6 1 10
v -6 1 9
v 6 1 9
v -7 2 18
v -6 2 18
v 6 2 18
v 7 2 18
v -7 2 17
v -6 2 17
v 6 2 17
v 7 2 17
v -7 2 14
v -6 2 14
v 6 2 14
v 7 2 14
v -7 2 13
v -6 2 13
v 6 2 13
v 7 2 13
v -7 2 -9
v -6 2 -9
v 6 2 -9
v 7 2 -9
v -7 2 -10
v -6 2 -10
v 6 2 -10
v 7 2 -10
v -7 2 -13
v -6 2 -13
v 6 2 -13
v 7 2 -13
v -7 2 -14
v -6 2 -14
v 6 2 -14
v 7 2 -14
v -7 3 17
v -6 3 17
v 6 3 17
v 7 3 17
v -7 3 14
v -6 3 14
v 6 3 14
v 7 3 14
v -7 3 -10
v -6 3 -10
v 6 3 -10
v 7 3 -10
v -7 3 -13
v -6 3 -13
v 6 3 -13
v 7 3 -13
v -4 5 8
v -2 5 8
v 2 5 8
v 4 5 8
v -4 5 -15
v -2 5 -15
v 2 5 -15
v 4 5 -15
v -1 5 -19
v 1 5 -19
v -1 5 -20
v 1 5 -20
v -7 6 14
v -6 6 14
v 6 6 14
v 7 6 14
v -7 6 11
v -6 6 11
v 6 6 11
v 7 6 11
v -5 6 8
v -4 6 8
v 4 6 8
v 5 6 8
v -5 6 -18
v -4 6 -18
v 4 6 -18
v 5 6 -18
v -2 6 -19
v -1 6 -19
v 1 6 -19
v 2 6 -19
v -2 6 -20
v -1 6 -20
v 1 6 -20
v 2 6 -20
v -6 8 8
v -5 8 8
v 5 8 8
v 6 8 8
v -6 8 -18
v -5 8 -18
v 5 8 -18
v 6 8 -18
v -1 9 9
v 1 9 9
v -1 9 8
v 1 9 8
v -6 12 20
v 6 12 20
v -7 12 19
v -6 12 19
v 6 12 19
v 7 12 19
v -7 12 11
v -6 12 11
v 6 12 11
v 7 12 11
v -6 2 -19
v 6 2 -19
v -6 2 -20
v 6 2 -20
v -7 4 9
v -6 4 9
v 6 4 9
v 7 4 9
v -2 4 8
v 2 4 8
v -4 4 -15
v -2 4 -15
v 2 4 -15
v 4 4 -15
v -6 4 -19
v -4 4 -19
v 4 4 -19
v 6 4 -19
v -7 4 -20
v -6 4 -20
v 6 4 -20
v 7 4 -20
v -7 5 14
v -6 5 14
v 6 5 14
v 7 5 14
v -7 5 11
v -6 5 11
v 6 5 11
v 7 5 11
v -6 6 20
v 6 6 20
v -6 6 19
v 6 6 19
v -7 7 19
v -6 7 19
v 6 7 19
v 7 7 19
v -7 7 11
v -6 7 11
v 6 7 11
v 7 7 11
v -2 7 -19
v 2 7 -19
v -2 7 -20
v 2 7 -20
v -4 8 -18
v 4 8 -18
v -4 8 -19
v 4 8 -19
v -1 11 9
v 1 11 9
v -1 11 8
v 1 11 8
v -6 12 10
v 6 12 10
v -6 12 9
v 6 12 9
v -6 12 8
v -5 12 8
v 5 12 8
v 6 12 8
v -6 12 -18
v -5 12 -18
v 5 12 -18
v 6 12 -18
v -7 13 20
v 7 13 20
v -7 13 10
v 7 13 10
v -5 14 8
v -4 14 8
v 4 14 8
v 5 14 8
v -5 14 -18
v -4 14 -18
v 4 14 -18
v 5 14 -18
v -4 15 8
v -2 15 8
v 2 15 8
v 4 15 8
v -4 15 -18
v -2 15 -18
v 2 15 -18
v 4 15 -18
v -2 16 8
v 2 16 8
v -1 16 7
v 1 16 7
v -1 16 3
v 1 16 3
v -1 16 -3
v 1 16 -3
v -1 16 -7
v 1 16 -7
v -1 16 -13
v 1 16 -13
v -1 16 -17
v 1 16 -17
v -2 16 -18
v 2 16 -18
v -1 17 7
v 1 17 7
v -1 17 3
v 1 17 3
v -1 17 -3
v 1 17 -3
v -1 17 -7
v 1 17 -7
v -1 17 -13
v 1 17 -13
v -1 17 -17
v 1 17 -17

# faces
f 9/8/1 2/8/1 1/8/1
f 12/8/1 4/8/1 3/8/1
f 13/2/1 6/2/1 5/2/1
f 16/2/1 8/2/1 7/2/1
f 17/8/1 10/8/1 9/8/1
f 18/8/1 12/8/1 11/8/1
f 19/2/1 14/2/1 13/2/1
f 20/2/1 16/2/1 15/2/1
f 21/2/1 19/2/1 13/2/1
f 21/2/1 20/2/1 19/2/1
f 21/2/1 13/2/1 5/2/1
f 22/2/1 16/2/1 20/2/1
f 22/2/1 20/2/1 21/2/1
f 22/2/1 8/2/1 16/2/1
f 23/8/1 18/8/1 17/8/1
f 23/8/1 12/8/1 18/8/1
f 24/8/1 4/8/1 12/8/1
f 24/8/1 12/8/1 23/8/1
f 25/8/1 23/8/1 17/8/1
f 26/8/1 4/8/1 24/8/1
f 27/8/1 17/8/1 9/8/1
f 27/8/1 26/8/1 25/8/1
f 27/8/1 9/8/1 1/8/1
f 27/8/1 25/8/1 17/8/1
f 28/8/1 4/8/1 26/8/1
f 28/8/1 26/8/1 27/8/1
f 29/8/1 27/8/1 1/8/1
f 30/8/1 4/8/1 28/8/1
f 31/8/1 29/8/1 1/8/1
f 31/8/1 30/8/1 29/8/1
f 32/8/1 4/8/1 30/8/1
f 32/8/1 30/8/1 31/8/1
f 39/8/1 34/8/1 33/8/1
f 40/8/1 34/8/1 39/8/1
f 41/8/1 34/8/1 40/8/1
f 42/8/1 34/8/1 41/8/1
f 43/2/1 36/2/1 35/2/1
f 44/2/1 36/2/1 43/2/1
f 45/2/1 36/2/1 44/2/1
f 46/2/1 36/2/1 45/2/1
f 47/8/1 41/8/1 40/8/1
f 48/8/1 41/8/1 47/8/1
f 49/2/1 45/2/1 44/2/1
f 50/2/1 45/2/1 49/2/1
f 51/8/1 38/8/1 37/8/1
f 54/7/1 53/7/1 52/7/1
f 55/7/1 53/7/1 54/7/1
f 60/8/1 59/8/1 58/8/1
f 61/8/1 59/8/1 60/8/1
f 62/8/1 60/8/1 58/8/1
f 62/5/1 61/5/1 60/5/1
f 63/8/1 59/8/1 61/8/1
f 63/5/1 61/5/1 62/5/1
f 64/3/1 57/3/1 56/3/1
f 65/3/1 57/3/1 64/3/1
f 66/8/1 51/8/1 37/8/1
f 67/8/1 51/8/1 66/8/1
f 68/8/1 62/8/1 58/8/1
f 68/8/1 63/8/1 62/8/1
f 69/8/1 59/8/1 63/8/1
f 69/8/1 63/8/1 68/8/1
f 72/8/1 71/8/1 70/8/1
f 73/8/1 71/8/1 72/8/1
f 76/8/1 75/8/1 74/8/1
f 77/8/1 75/8/1 76/8/1
f 81/7/1 79/7/1 78/7/1
f 82/7/1 79/7/1 81/7/1
f 83/8/1 81/8/1 80/8/1
f 83/8/1 82/8/1 81/8/1
f 84/7/1 79/7/1 82/7/1
f 84/8/1 82/8/1 83/8/1
f 85/7/1 79/7/1 84/7/1
f 86/7/1 79/7/1 85/7/1
f 89/8/1 88/8/1 87/8/1
f 90/8/1 88/8/1 89/8/1
f 93/8/1 92/8/1 91/8/1
f 94/8/1 92/8/1 93/8/1
f 97/8/1 96/8/1 95/8/1
f 98/8/1 96/8/1 97/8/1
f 101/8/1 100/8/1 99/8/1
f 102/8/1 100/8/1 101/8/1
f 105/8/1 104/8/1 103/8/1
f 106/8/1 104/8/1 105/8/1
f 109/8/1 108/8/1 107/8/1
f 110/8/1 108/8/1 109/8/1
f 117/7/1 112/7/1 111/7/1
f 118/7/1 112/7/1 117/7/1
f 119/7/1 114/7/1 113/7/1
f 120/7/1 114/7/1 119/7/1
f 121/7/1 116/7/1 115/7/1
f 122/7/1 116/7/1 121/7/1
f 125/2/1 124/2/1 123/2/1
f 126/2/1 124/2/1 125/2/1
f 129/8/1 128/8/1 127/8/1
f 130/8/1 128/8/1 129/8/1
f 131/2/2 132/2/2 133/2/2
f 133/2/2 132/2/2 134/2/2
f 135/8/2 136/8/2 137/8/2
f 137/8/2 136/8/2 138/8/2
f 139/8/2 140/8/2 141/8/2
f 141/8/2 140/8/2 142/8/2
f 143/8/2 144/8/2 145/8/2
f 145/8/2 144/8/2 146/8/2
f 147/7/2 148/7/2 153/7/2
f 153/7/2 148/7/2 154/7/2
f 149/7/2 150/7/2 155/7/2
f 155/7/2 150/7/2 156/7/2
f 151/7/2 152/7/2 157/7/2
f 157/7/2 152/7/2 158/7/2
f 159/8/2 160/8/2 161/8/2
f 161/8/2 160/8/2 162/8/2
f 163/8/2 164/8/2 165/8/2
f 165/8/2 164/8/2 166/8/2
f 167/8/2 168/8/2 169/8/2
f 169/8/2 168/8/2 170/8/2
f 171/7/2 172/7/2 174/7/2
f 174/7/2 172/7/2 175/7/2
f 173/8/2 174/8/2 176/8/2
f 174/8/2 175/8/2 176/8/2
f 175/7/2 172/7/2 177/7/2
f 176/8/2 175/8/2 177/8/2
f 177/7/2 172/7/2 178/7/2
f 178/7/2 172/7/2 179/7/2
f 180/8/2 181/8/2 182/8/2
f 182/8/2 181/8/2 183/8/2
f 184/8/2 185/8/2 186/8/2
f 186/8/2 185/8/2 187/8/2
f 188/8/2 189/8/2 190/8/2
f 190/8/2 189/8/2 191/8/2
f 192/8/2 193/8/2 198/8/2
f 198/8/2 193/8/2 199/8/2
f 199/8/2 193/8/2 200/8/2
f 200/8/2 193/8/2 201/8/2
f 194/2/2 195/2/2 202/2/2
f 202/2/2 195/2/2 203/2/2
f 203/2/2 195/2/2 204/2/2
f 204/2/2 195/2/2 205/2/2
f 199/8/2 200/8/2 206/8/2
f 206/8/2 200/8/2 207/8/2
f 203/2/2 204/2/2 208/2/2
f 208/2/2 204/2/2 209/2/2
f 196/8/2 197/8/2 210/8/2
f 211/7/2 212/7/2 213/7/2
f 213/7/2 212/7/2 214/7/2
f 217/8/2 218/8/2 219/8/2
f 219/8/2 218/8/2 220/8/2
f 217/8/2 219/8/2 221/8/2
f 219/5/2 220/5/2 221/5/2
f 220/8/2 218/8/2 222/8/2
f 221/5/2 220/5/2 222/5/2
f 215/3/2 216/3/2 223/3/2
f 223/3/2 216/3/2 224/3/2
f 196/8/2 210/8/2 225/8/2
f 225/8/2 210/8/2 226/8/2
f 217/8/2 221/8/2 227/8/2
f 221/8/2 222/8/2 227/8/2
f 222/8/2 218/8/2 228/8/2
f 227/8/2 222/8/2 228/8/2
f 229/8/2 230/8/2 237/8/2
f 231/8/2 232/8/2 240/8/2
f 233/2/2 234/2/2 241/2/2
f 235/2/2 236/2/2 244/2/2
f 237/8/2 238/8/2 245/8/2
f 239/8/2 240/8/2 246/8/2
f 241/2/2 242/2/2 247/2/2
f 243/2/2 244/2/2 248/2/2
f 241/2/2 247/2/2 249/2/2
f 247/2/2 248/2/2 249/2/2
f 233/2/2 241/2/2 249/2/2
f 248/2/2 244/2/2 250/2/2
f 249/2/2 248/2/2 250/2/2
f 244/2/2 236/2/2 250/2/2
f 245/8/2 246/8/2 251/8/2
f 246/8/2 240/8/2 251/8/2
f 240/8/2 232/8/2 252/8/2
f 251/8/2 240/8/2 252/8/2
f 245/8/2 251/8/2 253/8/2
f 252/8/2 232/8/2 254/8/2
f 237/8/2 245/8/2 255/8/2
f 253/8/2 254/8/2 255/8/2
f 229/8/2 237/8/2 255/8/2
f 245/8/2 253/8/2 255/8/2
f 254/8/2 232/8/2 256/8/2
f 255/8/2 254/8/2 256/8/2
f 229/8/2 255/8/2 257/8/2
f 256/8/2 232/8/2 258/8/2
f 229/8/2 257/8/2 259/8/2
f 257/8/2 258/8/2 259/8/2
f 258/8/2 232/8/2 260/8/2
f 259/8/2 258/8/2 260/8/2
f 263/8/3 262/8/3 261/8/3
f 264/8/3 262/8/3 263/8/3
f 265/8/3 262/8/3 264/8/3
f 266/8/3 262/8/3 265/8/3
f 267/8/3 262/8/3 266/8/3
f 268/6/3 264/6/3 263/6/3
f 268/4/3 265/4/3 264/4/3
f 269/8/3 266/8/3 265/8/3
f 269/4/3 265/4/3 268/4/3
f 270/6/3 268/6/3 263/6/3
f 270/6/3 269/6/3 268/6/3
f 271/8/3 266/8/3 269/8/3
f 271/6/3 269/6/3 270/6/3
f 272/8/3 263/8/3 261/8/3
f 272/6/3 270/6/3 263/6/3
f 273/4/3 271/4/3 270/4/3
f 273/6/3 270/6/3 272/6/3
f 274/8/3 266/8/3 271/8/3
f 274/4/3 271/4/3 273/4/3
f 275/8/3 266/8/3 274/8/3
f 276/8/3 262/8/3 267/8/3
f 277/8/3 273/8/3 272/8/3
f 277/8/3 276/8/3 275/8/3
f 277/8/3 275/8/3 274/8/3
f 277/8/3 272/8/3 261/8/3
f 277/8/3 274/8/3 273/8/3
f 278/8/3 262/8/3 276/8/3
f 278/8/3 276/8/3 277/8/3
f 281/3/3 280/3/3 279/3/3
f 282/3/3 280/3/3 281/3/3
f 285/8/3 284/8/3 283/8/3
f 286/8/3 284/8/3 285/8/3
f 289/8/3 288/8/3 287/8/3
f 290/8/3 288/8/3 289/8/3
f 293/8/3 292/8/3 291/8/3
f 294/8/3 292/8/3 293/8/3
f 297/8/3 296/8/3 295/8/3
f 298/8/3 296/8/3 297/8/3
f 303/8/3 300/8/3 299/8/3
f 304/8/3 300/8/3 303/8/3
f 305/8/3 302/8/3 301/8/3
f 306/8/3 302/8/3 305/8/3
f 311/8/3 308/8/3 307/8/3
f 312/8/3 308/8/3 311/8/3
f 313/8/3 310/8/3 309/8/3
f 314/8/3 310/8/3 313/8/3
f 317/2/3 316/2/3 315/2/3
f 318/2/3 316/2/3 317/2/3
f 319/2/3 317/2/3 315/2/3
f 321/2/3 319/2/3 315/2/3
f 321/2/3 320/2/3 319/2/3
f 322/2/3 320/2/3 321/2/3
f 326/8/3 324/8/3 323/8/3
f 327/8/3 324/8/3 326/8/3
f 330/8/3 326/8/3 325/8/3
f 330/8/3 328/8/3 327/8/3
f 330/8/3 327/8/3 326/8/3
f 331/8/3 328/8/3 330/8/3
f 334/8/3 330/8/3 329/8/3
f 334/8/3 332/8/3 331/8/3
f 334/8/3 331/8/3 330/8/3
f 335/8/3 332/8/3 334/8/3
f 337/8/3 334/8/3 333/8/3
f 337/8/3 336/8/3 335/8/3
f 337/8/3 335/8/3 334/8/3
f 338/8/3 336/8/3 337/8/3
f 339/8/3 337/8/3 333/8/3
f 340/8/3 336/8/3 338/8/3
f 341/8/3 339/8/3 333/8/3
f 341/8/3 340/8/3 339/8/3
f 342/8/3 340/8/3 341/8/3
f 343/8/3 336/8/3 340/8/3
f 343/8/3 340/8/3 342/8/3
f 344/8/3 336/8/3 343/8/3
f 345/8/3 343/8/3 342/8/3
f 346/8/3 343/8/3 345/8/3
f 347/8/3 343/8/3 346/8/3
f 348/8/3 343/8/3 347/8/3
f 349/8/3 347/8/3 346/8/3
f 350/8/3 347/8/3 349/8/3
f 351/8/3 347/8/3 350/8/3
f 352/8/3 347/8/3 351/8/3
f 353/8/3 351/8/3 350/8/3
f 354/8/3 351/8/3 353/8/3
f 357/7/3 356/7/3 355/7/3
f 358/7/3 356/7/3 357/7/3
f 361/7/3 360/7/3 359/7/3
f 362/7/3 360/7/3 361/7/3
f 365/2/3 364/2/3 363/2/3
f 366/2/3 364/2/3 365/2/3
f 369/7/3 368/7/3 367/7/3
f 370/7/3 368/7/3 369/7/3
f 373/2/3 372/2/3 371/2/3
f 374/2/3 372/2/3 373/2/3
f 377/2/3 376/2/3 375/2/3
f 378/2/3 376/2/3 377/2/3
f 381/2/3 380/2/3 379/2/3
f 382/2/3 380/2/3 381/2/3
f 385/7/3 384/7/3 383/7/3
f 386/7/3 384/7/3 385/7/3
f 389/7/3 388/7/3 387/7/3
f 390/7/3 388/7/3 389/7/3
f 391/8/4 392/8/4 393/8/4
f 393/8/4 392/8/4 394/8/4
f 395/8/4 396/8/4 397/8/4
f 397/8/4 396/8/4 398/8/4
f 399/8/4 400/8/4 401/8/4
f 401/8/4 400/8/4 402/8/4
f 403/8/4 404/8/4 405/8/4
f 405/8/4 404/8/4 406/8/4
f 407/8/4 408/8/4 409/8/4
f 409/8/4 408/8/4 410/8/4
f 411/8/4 412/8/4 413/8/4
f 413/8/4 412/8/4 414/8/4
f 415/8/4 416/8/4 417/8/4
f 417/8/4 416/8/4 418/8/4
f 419/8/4 420/8/4 421/8/4
f 421/8/4 420/8/4 422/8/4
f 423/8/4 424/8/4 425/8/4
f 425/8/4 424/8/4 426/8/4
f 423/8/4 425/8/4 427/8/4
f 426/8/4 424/8/4 428/8/4
f 423/8/4 427/8/4 429/8/4
f 427/8/4 428/8/4 429/8/4
f 428/8/4 424/8/4 430/8/4
f 429/8/4 428/8/4 430/8/4
f 431/8/4 432/8/4 433/8/4
f 433/8/4 432/8/4 434/8/4
f 431/8/4 433/8/4 435/8/4
f 434/8/4 432/8/4 436/8/4
f 431/8/4 435/8/4 437/8/4
f 435/8/4 436/8/4 437/8/4
f 436/8/4 432/8/4 438/8/4
f 437/8/4 436/8/4 438/8/4
f 439/7/4 440/7/4 441/7/4
f 441/7/4 440/7/4 442/7/4
f 443/7/4 444/7/4 445/7/4
f 445/7/4 444/7/4 446/7/4
f 447/2/4 448/2/4 449/2/4
f 449/2/4 448/2/4 450/2/4
f 451/2/4 452/2/4 453/2/4
f 453/2/4 452/2/4 454/2/4
f 455/2/4 456/2/4 457/2/4
f 457/2/4 456/2/4 458/2/4
f 459/2/4 460/2/4 461/2/4
f 461/2/4 460/2/4 462/2/4
f 463/7/4 464/7/4 465/7/4
f 465/7/4 464/7/4 466/7/4
f 467/8/4 468/8/4 470/8/4
f 470/8/4 468/8/4 471/8/4
f 471/8/4 468/8/4 472/8/4
f 472/8/4 468/8/4 473/8/4
f 469/8/4 470/8/4 475/8/4
f 470/8/4 471/8/4 475/8/4
f 475/8/4 471/8/4 476/8/4
f 473/8/4 474/8/4 477/8/4
f 472/8/4 473/8/4 477/8/4
f 477/8/4 478/8/4 479/8/4
f 477/8/4 479/8/4 481/8/4
f 479/8/4 480/8/4 481/8/4
f 481/8/4 480/8/4 482/8/4
f 476/8/4 471/8/4 484/8/4
f 472/8/4 477/8/4 485/8/4
f 477/8/4 481/8/4 485/8/4
f 485/8/4 481/8/4 486/8/4
f 483/8/4 484/8/4 487/8/4
f 484/8/4 471/8/4 488/8/4
f 487/8/4 484/8/4 488/8/4
f 471/5/4 472/5/4 489/5/4
f 488/8/4 471/8/4 489/8/4
f 472/8/4 485/8/4 490/8/4
f 489/5/4 472/5/4 490/5/4
f 490/8/4 485/8/4 491/8/4
f 491/8/4 485/8/4 492/8/4
f 488/8/4 489/8/4 493/8/4
f 490/8/4 491/8/4 493/8/4
f 489/8/4 490/8/4 493/8/4
f 493/8/4 491/8/4 494/8/4
f 495/2/4 496/2/4 497/2/4
f 497/7/4 498/7/4 499/7/4
f 499/7/4 498/7/4 500/7/4
f 497/7/4 499/7/4 501/7/4
f 501/7/4 499/7/4 502/7/4
f 497/7/4 501/7/4 503/7/4
f 503/7/4 504/7/4 505/7/4
f 500/7/4 498/7/4 506/7/4
f 495/2/4 497/2/4 507/2/4
f 505/7/4 506/7/4 507/7/4
f 503/7/4 505/7/4 507/7/4
f 497/7/4 503/7/4 507/7/4
f 506/7/4 498/7/4 508/7/4
f 507/7/4 506/7/4 508/7/4
f 495/2/4 507/2/4 509/2/4
f 509/2/4 507/2/4 510/2/4
f 511/2/4 512/2/4 513/2/4
f 513/2/4 512/2/4 514/2/4
f 514/2/4 512/2/4 515/2/4
f 516/8/4 517/8/4 519/8/4
f 518/8/4 519/8/4 520/8/4
f 519/8/4 517/8/4 521/8/4
f 520/8/4 519/8/4 521/8/4
f 521/8/4 517/8/4 522/8/4
f 522/8/4 517/8/4 523/8/4
f 511/2/4 513/2/4 524/2/4
f 513/9/4 514/9/4 524/9/4
f 524/9/4 514/9/4 525/9/4
f 511/2/4 524/2/4 527/2/4
f 525/2/4 526/2/4 527/2/4
f 524/2/4 525/2/4 527/2/4
f 527/2/4 526/2/4 528/2/4
f 531/8/5 530/8/5 529/8/5
f 532/8/5 530/8/5 531/8/5
f 533/8/5 530/8/5 532/8/5
f 534/8/5 530/8/5 533/8/5
f 536/8/5 533/8/5 532/8/5
f 537/8/5 533/8/5 536/8/5
f 539/8/5 536/8/5 535/8/5
f 539/8/5 538/8/5 537/8/5
f 539/8/5 537/8/5 536/8/5
f 540/8/5 538/8/5 539/8/5
f 543/2/5 542/2/5 541/2/5
f 544/2/5 542/2/5 543/2/5
f 545/2/5 542/2/5 544/2/5
f 546/2/5 542/2/5 545/2/5
f 548/2/5 545/2/5 544/2/5
f 549/2/5 545/2/5 548/2/5
f 551/2/5 548/2/5 547/2/5
f 551/2/5 550/2/5 549/2/5
f 551/2/5 549/2/5 548/2/5
f 552/2/5 550/2/5 551/2/5
f 555/8/5 554/8/5 553/8/5
f 556/8/5 554/8/5 555/8/5
f 561/8/5 558/8/5 557/8/5
f 562/8/5 558/8/5 561/8/5
f 563/8/5 560/8/5 559/8/5
f 564/8/5 560/8/5 563/8/5
f 569/8/5 566/8/5 565/8/5
f 570/8/5 566/8/5 569/8/5
f 571/8/5 568/8/5 567/8/5
f 572/8/5 568/8/5 571/8/5
f 577/2/5 574/2/5 573/2/5
f 578/2/5 574/2/5 577/2/5
f 579/2/5 576/2/5 575/2/5
f 580/2/5 576/2/5 579/2/5
f 585/2/5 582/2/5 581/2/5
f 586/2/5 582/2/5 585/2/5
f 587/2/5 584/2/5 583/2/5
f 588/2/5 584/2/5 587/2/5
f 593/8/5 590/8/5 589/8/5
f 594/8/5 590/8/5 593/8/5
f 595/8/5 592/8/5 591/8/5
f 596/8/5 592/8/5 595/8/5
f 601/2/5 598/2/5 597/2/5
f 602/2/5 598/2/5 601/2/5
f 603/2/5 600/2/5 599/2/5
f 604/2/5 600/2/5 603/2/5
f 609/8/5 606/8/5 605/8/5
f 610/8/5 606/8/5 609/8/5
f 611/8/5 608/8/5 607/8/5
f 612/8/5 608/8/5 611/8/5
f 615/8/5 614/8/5 613/8/5
f 616/8/5 614/8/5 615/8/5
f 621/8/5 618/8/5 617/8/5
f 622/8/5 618/8/5 621/8/5
f 623/8/5 620/8/5 619/8/5
f 624/8/5 620/8/5 623/8/5
f 629/8/5 626/8/5 625/8/5
f 630/8/5 626/8/5 629/8/5
f 631/8/5 628/8/5 627/8/5
f 632/8/5 628/8/5 631/8/5
f 637/8/5 634/8/5 633/8/5
f 638/8/5 634/8/5 637/8/5
f 639/8/5 636/8/5 635/8/5
f 640/8/5 636/8/5 639/8/5
f 645/8/5 642/8/5 641/8/5
f 646/8/5 642/8/5 645/8/5
f 647/8/5 644/8/5 643/8/5
f 648/8/5 644/8/5 647/8/5
f 651/8/5 650/8/5 649/8/5
f 652/8/5 650/8/5 651/8/5
f 656/8/5 654/8/5 653/8/5
f 657/8/5 654/8/5 656/8/5
f 659/8/5 656/8/5 655/8/5
f 660/8/5 656/8/5 659/8/5
f 661/8/5 658/8/5 657/8/5
f 662/8/5 658/8/5 661/8/5
f 663/9/6 664/9/6 665/9/6
f 665/9/6 664/9/6 666/9/6
f 667/2/6 668/2/6 671/2/6
f 669/2/6 670/2/6 671/2/6
f 668/2/6 669/2/6 671/2/6
f 671/2/6 670/2/6 672/2/6
f 667/2/6 671/2/6 673/2/6
f 673/2/6 671/2/6 674/2/6
f 672/2/6 670/2/6 675/2/6
f 675/2/6 670/2/6 676/2/6
f 667/2/6 673/2/6 677/2/6
f 677/2/6 673/2/6 678/2/6
f 676/2/6 670/2/6 679/2/6
f 679/2/6 670/2/6 680/2/6
f 667/2/6 677/2/6 681/2/6
f 681/2/6 677/2/6 682/2/6
f 680/2/6 670/2/6 683/2/6
f 683/2/6 670/2/6 684/2/6
f 685/8/6 686/8/6 689/8/6
f 689/8/6 686/8/6 690/8/6
f 687/8/6 688/8/6 691/8/6
f 691/8/6 688/8/6 692/8/6
f 693/8/6 694/8/6 695/8/6
f 695/8/6 694/8/6 696/8/6
f 697/8/6 698/8/6 701/8/6
f 701/8/6 698/8/6 702/8/6
f 699/8/6 700/8/6 703/8/6
f 703/8/6 700/8/6 704/8/6
f 705/8/6 706/8/6 707/8/6
f 707/8/6 706/8/6 708/8/6
f 709/7/6 710/7/6 711/7/6
f 711/7/6 710/7/6 712/7/6
f 713/8/6 714/8/6 715/8/6
f 715/8/6 714/8/6 716/8/6
f 717/8/6 718/8/6 719/8/6
f 719/8/6 718/8/6 720/8/6
f 721/8/6 722/8/6 725/8/6
f 725/8/6 722/8/6 726/8/6
f 723/8/6 724/8/6 727/8/6
f 727/8/6 724/8/6 728/8/6
f 729/8/6 730/8/6 731/8/6
f 731/8/6 730/8/6 732/8/6
f 733/8/6 734/8/6 737/8/6
f 737/8/6 734/8/6 738/8/6
f 735/8/6 736/8/6 739/8/6
f 739/8/6 736/8/6 740/8/6
f 741/8/6 742/8/6 745/8/6
f 745/8/6 742/8/6 746/8/6
f 743/8/6 744/8/6 747/8/6
f 747/8/6 744/8/6 748/8/6
f 749/8/6 750/8/6 751/8/6
f 751/8/6 750/8/6 752/8/6
f 749/8/6 751/8/6 753/8/6
f 752/8/6 750/8/6 754/8/6
f 749/8/6 753/8/6 755/8/6
f 753/8/6 754/8/6 755/8/6
f 754/8/6 750/8/6 756/8/6
f 755/8/6 754/8/6 756/8/6
f 749/8/6 755/8/6 757/8/6
f 756/8/6 750/8/6 758/8/6
f 749/8/6 757/8/6 759/8/6
f 757/8/6 758/8/6 759/8/6
f 758/8/6 750/8/6 760/8/6
f 759/8/6 758/8/6 760/8/6
f 749/8/6 759/8/6 761/8/6
f 760/8/6 750/8/6 762/8/6
f 749/8/6 761/8/6 763/8/6
f 761/8/6 762/8/6 763/8/6
f 762/8/6 750/8/6 764/8/6
f 763/8/6 762/8/6 764/8/6
f 765/7/6 766/7/6 767/7/6
f 767/7/6 766/7/6 768/7/6
f 769/7/6 770/7/6 771/7/6
f 771/7/6 770/7/6 772/7/6
f 773/7/6 774/7/6 775/7/6
f 775/7/6 774/7/6 776/7/6
