# MagicaVoxel @ Ephtracy

# material
mtllib Motorcycle01.mtl
usemtl palette

# normals
vn -1 0 0
vn 1 0 0
vn 0 0 1
vn 0 0 -1
vn 0 -1 0
vn 0 1 0

# texcoords
vt 0.787109 0.5
vt 0.814453 0.5
vt 0.908203 0.5
vt 0.982422 0.5
vt 0.986328 0.5
vt 0.990234 0.5

# verts
v -2.5 5 4
v -2.5 5 3
v -2.5 6 4
v -2.5 6 3
v -1.5 0 4
v -1.5 0 -0
v -1.5 0 -2
v -1.5 0 -4
v -1.5 1 -2
v -1.5 1 -4
v -1.5 2 5
v -1.5 2 4
v -1.5 2 -0
v -1.5 2 -4
v -1.5 2 -5
v -1.5 3 7
v -1.5 3 6
v -1.5 3 5
v -1.5 3 -0
v -1.5 3 -5
v -1.5 3 -6
v -1.5 3 -7
v -1.5 4 7
v -1.5 4 6
v -1.5 4 -0
v -1.5 4 -5
v -1.5 4 -6
v -1.5 4 -7
v -1.5 5 7
v -1.5 5 6
v -1.5 5 4
v -1.5 5 3
v -1.5 5 -0
v -1.5 5 -5
v -1.5 5 -6
v -1.5 5 -7
v -1.5 6 6
v -1.5 6 4
v -0.5 2 7
v -0.5 2 5
v -0.5 2 -5
v -0.5 2 -7
v -0.5 3 7
v -0.5 3 6
v -0.5 3 5
v -0.5 3 -5
v -0.5 3 -6
v -0.5 3 -7
v -0.5 5 2
v -0.5 5 1
v -0.5 6 2
v -0.5 6 1
v 0.5 2 7
v 0.5 2 5
v 0.5 2 -5
v 0.5 2 -7
v 0.5 3 7
v 0.5 3 6
v 0.5 3 5
v 0.5 3 -5
v 0.5 3 -6
v 0.5 3 -7
v 0.5 5 2
v 0.5 5 1
v 0.5 6 2
v 0.5 6 1
v 1.5 0 4
v 1.5 0 -0
v 1.5 0 -2
v 1.5 0 -4
v 1.5 1 -2
v 1.5 1 -4
v 1.5 2 5
v 1.5 2 4
v 1.5 2 -0
v 1.5 2 -4
v 1.5 2 -5
v 1.5 3 7
v 1.5 3 6
v 1.5 3 5
v 1.5 3 -0
v 1.5 3 -5
v 1.5 3 -6
v 1.5 3 -7
v 1.5 4 7
v 1.5 4 6
v 1.5 4 -0
v 1.5 4 -5
v 1.5 4 -6
v 1.5 4 -7
v 1.5 5 7
v 1.5 5 6
v 1.5 5 4
v 1.5 5 3
v 1.5 5 -0
v 1.5 5 -5
v 1.5 5 -6
v 1.5 5 -7
v 1.5 6 6
v 1.5 6 4
v 2.5 5 4
v 2.5 5 3
v 2.5 6 4
v 2.5 6 3
v -1.5 3 7
v -1.5 4 7
v -1.5 5 7
v -0.5 2 7
v -0.5 3 7
v -0.5 4 7
v 0.5 2 7
v 0.5 3 7
v 0.5 4 7
v 1.5 3 7
v 1.5 4 7
v 1.5 5 7
v -1.5 5 6
v -1.5 6 6
v 1.5 5 6
v 1.5 6 6
v -1.5 2 5
v -1.5 3 5
v -0.5 2 5
v -0.5 3 5
v 0.5 2 5
v 0.5 3 5
v 1.5 2 5
v 1.5 3 5
v -2.5 5 4
v -2.5 6 4
v -1.5 0 4
v -1.5 2 4
v -1.5 5 4
v -1.5 6 4
v 1.5 0 4
v 1.5 2 4
v 1.5 5 4
v 1.5 6 4
v 2.5 5 4
v 2.5 6 4
v -0.5 5 2
v -0.5 6 2
v 0.5 5 2
v 0.5 6 2
v -1.5 4 -5
v -1.5 5 -5
v 1.5 4 -5
v 1.5 5 -5
v -2.5 5 3
v -2.5 6 3
v -1.5 5 3
v -1.5 6 3
v 1.5 5 3
v 1.5 6 3
v 2.5 5 3
v 2.5 6 3
v -0.5 5 1
v -0.5 6 1
v 0.5 5 1
v 0.5 6 1
v -1.5 4 -0
v -1.5 5 -0
v 1.5 4 -0
v 1.5 5 -0
v -1.5 0 -4
v -1.5 1 -4
v -1.5 2 -4
v 1.5 0 -4
v 1.5 1 -4
v 1.5 2 -4
v -1.5 2 -5
v -1.5 3 -5
v -0.5 2 -5
v -0.5 3 -5
v 0.5 2 -5
v 0.5 3 -5
v 1.5 2 -5
v 1.5 3 -5
v -1.5 3 -7
v -1.5 4 -7
v -1.5 5 -7
v -0.5 2 -7
v -0.5 3 -7
v -0.5 4 -7
v 0.5 2 -7
v 0.5 3 -7
v 0.5 4 -7
v 1.5 3 -7
v 1.5 4 -7
v 1.5 5 -7
v -1.5 0 4
v 1.5 0 4
v -1.5 0 -0
v 1.5 0 -0
v -1.5 0 -2
v 1.5 0 -2
v -1.5 0 -4
v 1.5 0 -4
v -0.5 2 7
v 0.5 2 7
v -1.5 2 5
v -0.5 2 5
v 0.5 2 5
v 1.5 2 5
v -1.5 2 4
v 1.5 2 4
v -1.5 2 -4
v 1.5 2 -4
v -1.5 2 -5
v -0.5 2 -5
v 0.5 2 -5
v 1.5 2 -5
v -0.5 2 -7
v 0.5 2 -7
v -1.5 3 7
v -0.5 3 7
v 0.5 3 7
v 1.5 3 7
v -1.5 3 6
v -0.5 3 6
v 0.5 3 6
v 1.5 3 6
v -1.5 3 5
v -0.5 3 5
v 0.5 3 5
v 1.5 3 5
v -1.5 3 -5
v -0.5 3 -5
v 0.5 3 -5
v 1.5 3 -5
v -1.5 3 -6
v -0.5 3 -6
v 0.5 3 -6
v 1.5 3 -6
v -1.5 3 -7
v -0.5 3 -7
v 0.5 3 -7
v 1.5 3 -7
v -2.5 5 4
v -1.5 5 4
v 1.5 5 4
v 2.5 5 4
v -2.5 5 3
v -1.5 5 3
v 1.5 5 3
v 2.5 5 3
v -1.5 4 -0
v 1.5 4 -0
v -0.5 4 -1
v 0.5 4 -1
v -0.5 4 -4
v 0.5 4 -4
v -1.5 4 -5
v 1.5 4 -5
v -1.5 5 7
v 1.5 5 7
v -1.5 5 6
v 1.5 5 6
v -1.5 5 3
v 1.5 5 3
v -0.5 5 2
v 0.5 5 2
v -0.5 5 1
v 0.5 5 1
v -1.5 5 -0
v 1.5 5 -0
v -1.5 5 -5
v 1.5 5 -5
v -1.5 5 -6
v 1.5 5 -6
v -1.5 5 -7
v 1.5 5 -7
v -1.5 6 6
v 1.5 6 6
v -2.5 6 4
v -1.5 6 4
v 1.5 6 4
v 2.5 6 4
v -2.5 6 3
v -1.5 6 3
v 1.5 6 3
v 2.5 6 3
v -0.5 6 2
v 0.5 6 2
v -0.5 6 1
v 0.5 6 1

# faces
f 3/5/1 2/5/1 1/5/1
f 4/5/1 2/5/1 3/5/1
f 9/1/1 7/1/1 6/1/1
f 9/6/1 8/6/1 7/6/1
f 10/6/1 8/6/1 9/6/1
f 12/6/1 6/6/1 5/6/1
f 13/1/1 9/1/1 6/1/1
f 13/1/1 10/1/1 9/1/1
f 13/6/1 6/6/1 12/6/1
f 14/1/1 10/1/1 13/1/1
f 18/1/1 14/1/1 13/1/1
f 18/1/1 12/1/1 11/1/1
f 18/1/1 15/1/1 14/1/1
f 18/1/1 13/1/1 12/1/1
f 19/1/1 15/1/1 18/1/1
f 20/1/1 15/1/1 19/1/1
f 23/3/1 17/3/1 16/3/1
f 24/1/1 18/1/1 17/1/1
f 24/3/1 17/3/1 23/3/1
f 24/1/1 19/1/1 18/1/1
f 25/5/1 20/5/1 19/5/1
f 25/1/1 19/1/1 24/1/1
f 26/1/1 21/1/1 20/1/1
f 26/5/1 20/5/1 25/5/1
f 27/2/1 22/2/1 21/2/1
f 27/1/1 21/1/1 26/1/1
f 28/2/1 22/2/1 27/2/1
f 29/1/1 25/1/1 24/1/1
f 29/1/1 24/1/1 23/1/1
f 30/1/1 25/1/1 29/1/1
f 31/1/1 25/1/1 30/1/1
f 32/1/1 25/1/1 31/1/1
f 33/1/1 25/1/1 32/1/1
f 34/1/1 27/1/1 26/1/1
f 35/6/1 28/6/1 27/6/1
f 35/1/1 27/1/1 34/1/1
f 36/6/1 28/6/1 35/6/1
f 37/1/1 31/1/1 30/1/1
f 38/1/1 31/1/1 37/1/1
f 43/5/1 40/5/1 39/5/1
f 44/5/1 40/5/1 43/5/1
f 45/5/1 40/5/1 44/5/1
f 46/5/1 42/5/1 41/5/1
f 47/5/1 42/5/1 46/5/1
f 48/5/1 42/5/1 47/5/1
f 51/6/1 50/6/1 49/6/1
f 52/6/1 50/6/1 51/6/1
f 53/5/2 54/5/2 57/5/2
f 57/5/2 54/5/2 58/5/2
f 58/5/2 54/5/2 59/5/2
f 55/5/2 56/5/2 60/5/2
f 60/5/2 56/5/2 61/5/2
f 61/5/2 56/5/2 62/5/2
f 63/6/2 64/6/2 65/6/2
f 65/6/2 64/6/2 66/6/2
f 68/1/2 69/1/2 71/1/2
f 69/6/2 70/6/2 71/6/2
f 71/6/2 70/6/2 72/6/2
f 67/6/2 68/6/2 74/6/2
f 68/1/2 71/1/2 75/1/2
f 71/1/2 72/1/2 75/1/2
f 74/6/2 68/6/2 75/6/2
f 75/1/2 72/1/2 76/1/2
f 75/1/2 76/1/2 80/1/2
f 73/1/2 74/1/2 80/1/2
f 76/1/2 77/1/2 80/1/2
f 74/1/2 75/1/2 80/1/2
f 80/1/2 77/1/2 81/1/2
f 81/1/2 77/1/2 82/1/2
f 78/3/2 79/3/2 85/3/2
f 79/1/2 80/1/2 86/1/2
f 85/3/2 79/3/2 86/3/2
f 80/1/2 81/1/2 86/1/2
f 81/5/2 82/5/2 87/5/2
f 86/1/2 81/1/2 87/1/2
f 82/1/2 83/1/2 88/1/2
f 87/5/2 82/5/2 88/5/2
f 83/2/2 84/2/2 89/2/2
f 88/1/2 83/1/2 89/1/2
f 89/2/2 84/2/2 90/2/2
f 86/1/2 87/1/2 91/1/2
f 85/1/2 86/1/2 91/1/2
f 91/1/2 87/1/2 92/1/2
f 92/1/2 87/1/2 93/1/2
f 93/1/2 87/1/2 94/1/2
f 94/1/2 87/1/2 95/1/2
f 88/1/2 89/1/2 96/1/2
f 89/6/2 90/6/2 97/6/2
f 96/1/2 89/1/2 97/1/2
f 97/6/2 90/6/2 98/6/2
f 92/1/2 93/1/2 99/1/2
f 99/1/2 93/1/2 100/1/2
f 101/5/2 102/5/2 103/5/2
f 103/5/2 102/5/2 104/5/2
f 109/3/3 106/3/3 105/3/3
f 110/1/3 107/1/3 106/1/3
f 110/3/3 106/3/3 109/3/3
f 111/5/3 109/5/3 108/5/3
f 112/1/3 110/1/3 109/1/3
f 112/5/3 109/5/3 111/5/3
f 113/1/3 107/1/3 110/1/3
f 113/1/3 110/1/3 112/1/3
f 114/3/3 113/3/3 112/3/3
f 115/1/3 107/1/3 113/1/3
f 115/3/3 113/3/3 114/3/3
f 116/1/3 107/1/3 115/1/3
f 119/1/3 118/1/3 117/1/3
f 120/1/3 118/1/3 119/1/3
f 123/1/3 122/1/3 121/1/3
f 124/1/3 122/1/3 123/1/3
f 127/1/3 126/1/3 125/1/3
f 128/1/3 126/1/3 127/1/3
f 133/5/3 130/5/3 129/5/3
f 134/5/3 130/5/3 133/5/3
f 135/6/3 132/6/3 131/6/3
f 136/6/3 132/6/3 135/6/3
f 139/5/3 138/5/3 137/5/3
f 140/5/3 138/5/3 139/5/3
f 143/6/3 142/6/3 141/6/3
f 144/6/3 142/6/3 143/6/3
f 147/1/3 146/1/3 145/1/3
f 148/1/3 146/1/3 147/1/3
f 149/5/4 150/5/4 151/5/4
f 151/5/4 150/5/4 152/5/4
f 151/6/4 152/6/4 153/6/4
f 153/6/4 152/6/4 154/6/4
f 153/5/4 154/5/4 155/5/4
f 155/5/4 154/5/4 156/5/4
f 157/6/4 158/6/4 159/6/4
f 159/6/4 158/6/4 160/6/4
f 161/1/4 162/1/4 163/1/4
f 163/1/4 162/1/4 164/1/4
f 165/6/4 166/6/4 168/6/4
f 166/1/4 167/1/4 169/1/4
f 168/6/4 166/6/4 169/6/4
f 169/1/4 167/1/4 170/1/4
f 171/1/4 172/1/4 173/1/4
f 173/1/4 172/1/4 174/1/4
f 175/1/4 176/1/4 177/1/4
f 177/1/4 176/1/4 178/1/4
f 179/2/4 180/2/4 183/2/4
f 180/6/4 181/6/4 184/6/4
f 183/2/4 180/2/4 184/2/4
f 182/5/4 183/5/4 185/5/4
f 183/1/4 184/1/4 186/1/4
f 185/5/4 183/5/4 186/5/4
f 184/6/4 181/6/4 187/6/4
f 186/1/4 184/1/4 187/1/4
f 186/2/4 187/2/4 188/2/4
f 187/6/4 181/6/4 189/6/4
f 188/2/4 187/2/4 189/2/4
f 189/6/4 181/6/4 190/6/4
f 193/6/5 192/6/5 191/6/5
f 194/6/5 192/6/5 193/6/5
f 195/1/5 194/1/5 193/1/5
f 196/1/5 194/1/5 195/1/5
f 197/6/5 196/6/5 195/6/5
f 198/6/5 196/6/5 197/6/5
f 202/5/5 200/5/5 199/5/5
f 203/5/5 200/5/5 202/5/5
f 205/1/5 202/1/5 201/1/5
f 205/1/5 204/1/5 203/1/5
f 205/1/5 203/1/5 202/1/5
f 206/1/5 204/1/5 205/1/5
f 209/1/5 208/1/5 207/1/5
f 210/1/5 208/1/5 209/1/5
f 211/1/5 208/1/5 210/1/5
f 212/1/5 208/1/5 211/1/5
f 213/5/5 211/5/5 210/5/5
f 214/5/5 211/5/5 213/5/5
f 219/3/5 216/3/5 215/3/5
f 220/3/5 216/3/5 219/3/5
f 221/3/5 218/3/5 217/3/5
f 222/3/5 218/3/5 221/3/5
f 223/1/5 220/1/5 219/1/5
f 224/1/5 220/1/5 223/1/5
f 225/1/5 222/1/5 221/1/5
f 226/1/5 222/1/5 225/1/5
f 231/1/5 228/1/5 227/1/5
f 232/1/5 228/1/5 231/1/5
f 233/1/5 230/1/5 229/1/5
f 234/1/5 230/1/5 233/1/5
f 235/2/5 232/2/5 231/2/5
f 236/2/5 232/2/5 235/2/5
f 237/2/5 234/2/5 233/2/5
f 238/2/5 234/2/5 237/2/5
f 243/5/5 240/5/5 239/5/5
f 244/5/5 240/5/5 243/5/5
f 245/5/5 242/5/5 241/5/5
f 246/5/5 242/5/5 245/5/5
f 247/5/6 248/5/6 249/5/6
f 249/5/6 248/5/6 250/5/6
f 247/5/6 249/5/6 251/5/6
f 249/6/6 250/6/6 251/6/6
f 250/5/6 248/5/6 252/5/6
f 251/6/6 250/6/6 252/6/6
f 247/5/6 251/5/6 253/5/6
f 251/5/6 252/5/6 253/5/6
f 252/5/6 248/5/6 254/5/6
f 253/5/6 252/5/6 254/5/6
f 255/1/6 256/1/6 257/1/6
f 257/1/6 256/1/6 258/1/6
f 259/1/6 260/1/6 261/1/6
f 261/1/6 260/1/6 262/1/6
f 259/1/6 261/1/6 263/1/6
f 262/1/6 260/1/6 264/1/6
f 259/1/6 263/1/6 265/1/6
f 263/1/6 264/1/6 265/1/6
f 264/1/6 260/1/6 266/1/6
f 265/1/6 264/1/6 266/1/6
f 267/1/6 268/1/6 269/1/6
f 269/1/6 268/1/6 270/1/6
f 269/6/6 270/6/6 271/6/6
f 271/6/6 270/6/6 272/6/6
f 273/1/6 274/1/6 276/1/6
f 276/1/6 274/1/6 277/1/6
f 275/5/6 276/5/6 279/5/6
f 276/6/6 277/6/6 280/6/6
f 279/5/6 276/5/6 280/5/6
f 277/5/6 278/5/6 281/5/6
f 280/6/6 277/6/6 281/6/6
f 281/5/6 278/5/6 282/5/6
f 283/6/6 284/6/6 285/6/6
f 285/6/6 284/6/6 286/6/6
