# MagicaVoxel @ Ephtracy

# material
mtllib Motorcycle02.mtl
usemtl palette

# normals
vn -1 0 0
vn 1 0 0
vn 0 0 1
vn 0 0 -1
vn 0 -1 0
vn 0 1 0

# texcoords
vt 0.814453 0.5
vt 0.849609 0.5
vt 0.908203 0.5
vt 0.982422 0.5
vt 0.986328 0.5
vt 0.990234 0.5

# verts
v -2.5 5 4
v -2.5 5 3
v -2.5 6 4
v -2.5 6 3
v -1.5 0 4
v -1.5 0 -0
v -1.5 0 -2
v -1.5 0 -4
v -1.5 1 -2
v -1.5 1 -4
v -1.5 2 5
v -1.5 2 4
v -1.5 2 -0
v -1.5 2 -4
v -1.5 2 -5
v -1.5 3 7
v -1.5 3 6
v -1.5 3 5
v -1.5 3 -0
v -1.5 3 -5
v -1.5 3 -6
v -1.5 3 -7
v -1.5 4 7
v -1.5 4 6
v -1.5 4 -0
v -1.5 4 -5
v -1.5 4 -6
v -1.5 4 -7
v -1.5 5 7
v -1.5 5 6
v -1.5 5 4
v -1.5 5 3
v -1.5 5 -0
v -1.5 5 -5
v -1.5 5 -6
v -1.5 5 -7
v -1.5 6 6
v -1.5 6 4
v -0.5 2 7
v -0.5 2 5
v -0.5 2 -5
v -0.5 2 -7
v -0.5 3 7
v -0.5 3 6
v -0.5 3 5
v -0.5 3 -5
v -0.5 3 -6
v -0.5 3 -7
v -0.5 5 2
v -0.5 5 1
v -0.5 6 2
v -0.5 6 1
v 0.5 2 7
v 0.5 2 5
v 0.5 2 -5
v 0.5 2 -7
v 0.5 3 7
v 0.5 3 6
v 0.5 3 5
v 0.5 3 -5
v 0.5 3 -6
v 0.5 3 -7
v 0.5 5 2
v 0.5 5 1
v 0.5 6 2
v 0.5 6 1
v 1.5 0 4
v 1.5 0 -0
v 1.5 0 -2
v 1.5 0 -4
v 1.5 1 -2
v 1.5 1 -4
v 1.5 2 5
v 1.5 2 4
v 1.5 2 -0
v 1.5 2 -4
v 1.5 2 -5
v 1.5 3 7
v 1.5 3 6
v 1.5 3 5
v 1.5 3 -0
v 1.5 3 -5
v 1.5 3 -6
v 1.5 3 -7
v 1.5 4 7
v 1.5 4 6
v 1.5 4 -0
v 1.5 4 -5
v 1.5 4 -6
v 1.5 4 -7
v 1.5 5 7
v 1.5 5 6
v 1.5 5 4
v 1.5 5 3
v 1.5 5 -0
v 1.5 5 -5
v 1.5 5 -6
v 1.5 5 -7
v 1.5 6 6
v 1.5 6 4
v 2.5 5 4
v 2.5 5 3
v 2.5 6 4
v 2.5 6 3
v -1.5 3 7
v -1.5 4 7
v -1.5 5 7
v -0.5 2 7
v -0.5 3 7
v -0.5 4 7
v 0.5 2 7
v 0.5 3 7
v 0.5 4 7
v 1.5 3 7
v 1.5 4 7
v 1.5 5 7
v -1.5 5 6
v -1.5 6 6
v 1.5 5 6
v 1.5 6 6
v -1.5 2 5
v -1.5 3 5
v -0.5 2 5
v -0.5 3 5
v 0.5 2 5
v 0.5 3 5
v 1.5 2 5
v 1.5 3 5
v -2.5 5 4
v -2.5 6 4
v -1.5 0 4
v -1.5 2 4
v -1.5 5 4
v -1.5 6 4
v 1.5 0 4
v 1.5 2 4
v 1.5 5 4
v 1.5 6 4
v 2.5 5 4
v 2.5 6 4
v -0.5 5 2
v -0.5 6 2
v 0.5 5 2
v 0.5 6 2
v -1.5 4 -5
v -1.5 5 -5
v 1.5 4 -5
v 1.5 5 -5
v -2.5 5 3
v -2.5 6 3
v -1.5 5 3
v -1.5 6 3
v 1.5 5 3
v 1.5 6 3
v 2.5 5 3
v 2.5 6 3
v -0.5 5 1
v -0.5 6 1
v 0.5 5 1
v 0.5 6 1
v -1.5 4 -0
v -1.5 5 -0
v 1.5 4 -0
v 1.5 5 -0
v -1.5 0 -4
v -1.5 1 -4
v -1.5 2 -4
v 1.5 0 -4
v 1.5 1 -4
v 1.5 2 -4
v -1.5 2 -5
v -1.5 3 -5
v -0.5 2 -5
v -0.5 3 -5
v 0.5 2 -5
v 0.5 3 -5
v 1.5 2 -5
v 1.5 3 -5
v -1.5 3 -7
v -1.5 4 -7
v -1.5 5 -7
v -0.5 2 -7
v -0.5 3 -7
v -0.5 4 -7
v 0.5 2 -7
v 0.5 3 -7
v 0.5 4 -7
v 1.5 3 -7
v 1.5 4 -7
v 1.5 5 -7
v -1.5 0 4
v 1.5 0 4
v -1.5 0 -0
v 1.5 0 -0
v -1.5 0 -2
v 1.5 0 -2
v -1.5 0 -4
v 1.5 0 -4
v -0.5 2 7
v 0.5 2 7
v -1.5 2 5
v -0.5 2 5
v 0.5 2 5
v 1.5 2 5
v -1.5 2 4
v 1.5 2 4
v -1.5 2 -4
v 1.5 2 -4
v -1.5 2 -5
v -0.5 2 -5
v 0.5 2 -5
v 1.5 2 -5
v -0.5 2 -7
v 0.5 2 -7
v -1.5 3 7
v -0.5 3 7
v 0.5 3 7
v 1.5 3 7
v -1.5 3 6
v -0.5 3 6
v 0.5 3 6
v 1.5 3 6
v -1.5 3 5
v -0.5 3 5
v 0.5 3 5
v 1.5 3 5
v -1.5 3 -5
v -0.5 3 -5
v 0.5 3 -5
v 1.5 3 -5
v -1.5 3 -6
v -0.5 3 -6
v 0.5 3 -6
v 1.5 3 -6
v -1.5 3 -7
v -0.5 3 -7
v 0.5 3 -7
v 1.5 3 -7
v -2.5 5 4
v -1.5 5 4
v 1.5 5 4
v 2.5 5 4
v -2.5 5 3
v -1.5 5 3
v 1.5 5 3
v 2.5 5 3
v -1.5 4 -0
v 1.5 4 -0
v -0.5 4 -1
v 0.5 4 -1
v -0.5 4 -4
v 0.5 4 -4
v -1.5 4 -5
v 1.5 4 -5
v -1.5 5 7
v 1.5 5 7
v -1.5 5 6
v 1.5 5 6
v -1.5 5 3
v 1.5 5 3
v -0.5 5 2
v 0.5 5 2
v -0.5 5 1
v 0.5 5 1
v -1.5 5 -0
v 1.5 5 -0
v -1.5 5 -5
v 1.5 5 -5
v -1.5 5 -6
v 1.5 5 -6
v -1.5 5 -7
v 1.5 5 -7
v -1.5 6 6
v 1.5 6 6
v -2.5 6 4
v -1.5 6 4
v 1.5 6 4
v 2.5 6 4
v -2.5 6 3
v -1.5 6 3
v 1.5 6 3
v 2.5 6 3
v -0.5 6 2
v 0.5 6 2
v -0.5 6 1
v 0.5 6 1

# faces
f 3/5/1 2/5/1 1/5/1
f 4/5/1 2/5/1 3/5/1
f 9/2/1 7/2/1 6/2/1
f 9/6/1 8/6/1 7/6/1
f 10/6/1 8/6/1 9/6/1
f 12/6/1 6/6/1 5/6/1
f 13/2/1 9/2/1 6/2/1
f 13/2/1 10/2/1 9/2/1
f 13/6/1 6/6/1 12/6/1
f 14/2/1 10/2/1 13/2/1
f 18/2/1 14/2/1 13/2/1
f 18/2/1 12/2/1 11/2/1
f 18/2/1 15/2/1 14/2/1
f 18/2/1 13/2/1 12/2/1
f 19/2/1 15/2/1 18/2/1
f 20/2/1 15/2/1 19/2/1
f 23/3/1 17/3/1 16/3/1
f 24/2/1 18/2/1 17/2/1
f 24/3/1 17/3/1 23/3/1
f 24/2/1 19/2/1 18/2/1
f 25/5/1 20/5/1 19/5/1
f 25/2/1 19/2/1 24/2/1
f 26/2/1 21/2/1 20/2/1
f 26/5/1 20/5/1 25/5/1
f 27/1/1 22/1/1 21/1/1
f 27/2/1 21/2/1 26/2/1
f 28/1/1 22/1/1 27/1/1
f 29/2/1 25/2/1 24/2/1
f 29/2/1 24/2/1 23/2/1
f 30/2/1 25/2/1 29/2/1
f 31/2/1 25/2/1 30/2/1
f 32/2/1 25/2/1 31/2/1
f 33/2/1 25/2/1 32/2/1
f 34/2/1 27/2/1 26/2/1
f 35/6/1 28/6/1 27/6/1
f 35/2/1 27/2/1 34/2/1
f 36/6/1 28/6/1 35/6/1
f 37/2/1 31/2/1 30/2/1
f 38/2/1 31/2/1 37/2/1
f 43/5/1 40/5/1 39/5/1
f 44/5/1 40/5/1 43/5/1
f 45/5/1 40/5/1 44/5/1
f 46/5/1 42/5/1 41/5/1
f 47/5/1 42/5/1 46/5/1
f 48/5/1 42/5/1 47/5/1
f 51/6/1 50/6/1 49/6/1
f 52/6/1 50/6/1 51/6/1
f 53/5/2 54/5/2 57/5/2
f 57/5/2 54/5/2 58/5/2
f 58/5/2 54/5/2 59/5/2
f 55/5/2 56/5/2 60/5/2
f 60/5/2 56/5/2 61/5/2
f 61/5/2 56/5/2 62/5/2
f 63/6/2 64/6/2 65/6/2
f 65/6/2 64/6/2 66/6/2
f 68/2/2 69/2/2 71/2/2
f 69/6/2 70/6/2 71/6/2
f 71/6/2 70/6/2 72/6/2
f 67/6/2 68/6/2 74/6/2
f 68/2/2 71/2/2 75/2/2
f 71/2/2 72/2/2 75/2/2
f 74/6/2 68/6/2 75/6/2
f 75/2/2 72/2/2 76/2/2
f 75/2/2 76/2/2 80/2/2
f 73/2/2 74/2/2 80/2/2
f 76/2/2 77/2/2 80/2/2
f 74/2/2 75/2/2 80/2/2
f 80/2/2 77/2/2 81/2/2
f 81/2/2 77/2/2 82/2/2
f 78/3/2 79/3/2 85/3/2
f 79/2/2 80/2/2 86/2/2
f 85/3/2 79/3/2 86/3/2
f 80/2/2 81/2/2 86/2/2
f 81/5/2 82/5/2 87/5/2
f 86/2/2 81/2/2 87/2/2
f 82/2/2 83/2/2 88/2/2
f 87/5/2 82/5/2 88/5/2
f 83/1/2 84/1/2 89/1/2
f 88/2/2 83/2/2 89/2/2
f 89/1/2 84/1/2 90/1/2
f 86/2/2 87/2/2 91/2/2
f 85/2/2 86/2/2 91/2/2
f 91/2/2 87/2/2 92/2/2
f 92/2/2 87/2/2 93/2/2
f 93/2/2 87/2/2 94/2/2
f 94/2/2 87/2/2 95/2/2
f 88/2/2 89/2/2 96/2/2
f 89/6/2 90/6/2 97/6/2
f 96/2/2 89/2/2 97/2/2
f 97/6/2 90/6/2 98/6/2
f 92/2/2 93/2/2 99/2/2
f 99/2/2 93/2/2 100/2/2
f 101/5/2 102/5/2 103/5/2
f 103/5/2 102/5/2 104/5/2
f 109/3/3 106/3/3 105/3/3
f 110/2/3 107/2/3 106/2/3
f 110/3/3 106/3/3 109/3/3
f 111/5/3 109/5/3 108/5/3
f 112/2/3 110/2/3 109/2/3
f 112/5/3 109/5/3 111/5/3
f 113/2/3 107/2/3 110/2/3
f 113/2/3 110/2/3 112/2/3
f 114/3/3 113/3/3 112/3/3
f 115/2/3 107/2/3 113/2/3
f 115/3/3 113/3/3 114/3/3
f 116/2/3 107/2/3 115/2/3
f 119/2/3 118/2/3 117/2/3
f 120/2/3 118/2/3 119/2/3
f 123/2/3 122/2/3 121/2/3
f 124/2/3 122/2/3 123/2/3
f 127/2/3 126/2/3 125/2/3
f 128/2/3 126/2/3 127/2/3
f 133/5/3 130/5/3 129/5/3
f 134/5/3 130/5/3 133/5/3
f 135/6/3 132/6/3 131/6/3
f 136/6/3 132/6/3 135/6/3
f 139/5/3 138/5/3 137/5/3
f 140/5/3 138/5/3 139/5/3
f 143/6/3 142/6/3 141/6/3
f 144/6/3 142/6/3 143/6/3
f 147/2/3 146/2/3 145/2/3
f 148/2/3 146/2/3 147/2/3
f 149/5/4 150/5/4 151/5/4
f 151/5/4 150/5/4 152/5/4
f 151/6/4 152/6/4 153/6/4
f 153/6/4 152/6/4 154/6/4
f 153/5/4 154/5/4 155/5/4
f 155/5/4 154/5/4 156/5/4
f 157/6/4 158/6/4 159/6/4
f 159/6/4 158/6/4 160/6/4
f 161/2/4 162/2/4 163/2/4
f 163/2/4 162/2/4 164/2/4
f 165/6/4 166/6/4 168/6/4
f 166/2/4 167/2/4 169/2/4
f 168/6/4 166/6/4 169/6/4
f 169/2/4 167/2/4 170/2/4
f 171/2/4 172/2/4 173/2/4
f 173/2/4 172/2/4 174/2/4
f 175/2/4 176/2/4 177/2/4
f 177/2/4 176/2/4 178/2/4
f 179/1/4 180/1/4 183/1/4
f 180/6/4 181/6/4 184/6/4
f 183/1/4 180/1/4 184/1/4
f 182/5/4 183/5/4 185/5/4
f 183/2/4 184/2/4 186/2/4
f 185/5/4 183/5/4 186/5/4
f 184/6/4 181/6/4 187/6/4
f 186/2/4 184/2/4 187/2/4
f 186/1/4 187/1/4 188/1/4
f 187/6/4 181/6/4 189/6/4
f 188/1/4 187/1/4 189/1/4
f 189/6/4 181/6/4 190/6/4
f 193/6/5 192/6/5 191/6/5
f 194/6/5 192/6/5 193/6/5
f 195/2/5 194/2/5 193/2/5
f 196/2/5 194/2/5 195/2/5
f 197/6/5 196/6/5 195/6/5
f 198/6/5 196/6/5 197/6/5
f 202/5/5 200/5/5 199/5/5
f 203/5/5 200/5/5 202/5/5
f 205/2/5 202/2/5 201/2/5
f 205/2/5 204/2/5 203/2/5
f 205/2/5 203/2/5 202/2/5
f 206/2/5 204/2/5 205/2/5
f 209/2/5 208/2/5 207/2/5
f 210/2/5 208/2/5 209/2/5
f 211/2/5 208/2/5 210/2/5
f 212/2/5 208/2/5 211/2/5
f 213/5/5 211/5/5 210/5/5
f 214/5/5 211/5/5 213/5/5
f 219/3/5 216/3/5 215/3/5
f 220/3/5 216/3/5 219/3/5
f 221/3/5 218/3/5 217/3/5
f 222/3/5 218/3/5 221/3/5
f 223/2/5 220/2/5 219/2/5
f 224/2/5 220/2/5 223/2/5
f 225/2/5 222/2/5 221/2/5
f 226/2/5 222/2/5 225/2/5
f 231/2/5 228/2/5 227/2/5
f 232/2/5 228/2/5 231/2/5
f 233/2/5 230/2/5 229/2/5
f 234/2/5 230/2/5 233/2/5
f 235/1/5 232/1/5 231/1/5
f 236/1/5 232/1/5 235/1/5
f 237/1/5 234/1/5 233/1/5
f 238/1/5 234/1/5 237/1/5
f 243/5/5 240/5/5 239/5/5
f 244/5/5 240/5/5 243/5/5
f 245/5/5 242/5/5 241/5/5
f 246/5/5 242/5/5 245/5/5
f 247/5/6 248/5/6 249/5/6
f 249/5/6 248/5/6 250/5/6
f 247/5/6 249/5/6 251/5/6
f 249/6/6 250/6/6 251/6/6
f 250/5/6 248/5/6 252/5/6
f 251/6/6 250/6/6 252/6/6
f 247/5/6 251/5/6 253/5/6
f 251/5/6 252/5/6 253/5/6
f 252/5/6 248/5/6 254/5/6
f 253/5/6 252/5/6 254/5/6
f 255/2/6 256/2/6 257/2/6
f 257/2/6 256/2/6 258/2/6
f 259/2/6 260/2/6 261/2/6
f 261/2/6 260/2/6 262/2/6
f 259/2/6 261/2/6 263/2/6
f 262/2/6 260/2/6 264/2/6
f 259/2/6 263/2/6 265/2/6
f 263/2/6 264/2/6 265/2/6
f 264/2/6 260/2/6 266/2/6
f 265/2/6 264/2/6 266/2/6
f 267/2/6 268/2/6 269/2/6
f 269/2/6 268/2/6 270/2/6
f 269/6/6 270/6/6 271/6/6
f 271/6/6 270/6/6 272/6/6
f 273/2/6 274/2/6 276/2/6
f 276/2/6 274/2/6 277/2/6
f 275/5/6 276/5/6 279/5/6
f 276/6/6 277/6/6 280/6/6
f 279/5/6 276/5/6 280/5/6
f 277/5/6 278/5/6 281/5/6
f 280/6/6 277/6/6 281/6/6
f 281/5/6 278/5/6 282/5/6
f 283/6/6 284/6/6 285/6/6
f 285/6/6 284/6/6 286/6/6
