# MagicaVoxel @ Ephtracy

# material
mtllib Pickup01.mtl
usemtl palette

# normals
vn -1 0 0
vn 1 0 0
vn 0 0 1
vn 0 0 -1
vn 0 -1 0
vn 0 1 0

# texcoords
vt 0.814453 0.5
vt 0.912109 0.5
vt 0.970703 0.5
vt 0.978516 0.5
vt 0.982422 0.5
vt 0.986328 0.5
vt 0.990234 0.5

# verts
v -7 5 10
v -7 5 9
v -7 7 10
v -7 7 9
v -5 0 16
v -5 0 12
v -5 0 7
v -5 0 -6
v -5 0 -11
v -5 0 -16
v -5 2 16
v -5 2 15
v -5 2 12
v -5 2 11
v -5 2 8
v -5 2 7
v -5 2 -6
v -5 2 -7
v -5 2 -10
v -5 2 -11
v -5 3 11
v -5 3 8
v -5 3 3
v -5 3 -0
v -5 3 -7
v -5 3 -10
v -5 3 -15
v -5 3 -16
v -5 4 16
v -5 4 15
v -5 4 3
v -5 4 -0
v -5 4 -15
v -5 4 -16
v -5 5 16
v -5 5 13
v -5 5 11
v -5 5 10
v -5 5 9
v -5 5 7
v -5 5 6
v -5 5 -0
v -5 5 -15
v -5 5 -16
v -5 6 13
v -5 6 12
v -5 6 11
v -5 6 10
v -5 6 -1
v -5 6 -16
v -5 7 12
v -5 7 11
v -5 7 10
v -5 7 9
v -5 8 11
v -5 8 10
v -5 8 9
v -5 8 8
v -5 9 10
v -5 9 9
v -5 9 8
v -5 9 7
v -5 10 9
v -5 10 8
v -5 10 6
v -5 10 -0
v -5 11 8
v -5 11 -1
v -4 0 12
v -4 0 7
v -4 0 -6
v -4 0 -11
v -4 2 12
v -4 2 11
v -4 2 8
v -4 2 7
v -4 2 -6
v -4 2 -7
v -4 2 -10
v -4 2 -11
v -4 3 11
v -4 3 8
v -4 3 -7
v -4 3 -10
v 4 1 -15
v 4 1 -16
v 4 2 -15
v 4 2 -16
v 4 3 -2
v 4 3 -15
v 4 6 -0
v 4 6 -1
v 4 6 -2
v 4 6 -15
v 4 10 -0
v 4 10 -1
v -4 1 -15
v -4 1 -16
v -4 2 -15
v -4 2 -16
v -4 3 -2
v -4 3 -15
v -4 6 -0
v -4 6 -1
v -4 6 -2
v -4 6 -15
v -4 10 -0
v -4 10 -1
v 4 0 12
v 4 0 7
v 4 0 -6
v 4 0 -11
v 4 2 12
v 4 2 11
v 4 2 8
v 4 2 7
v 4 2 -6
v 4 2 -7
v 4 2 -10
v 4 2 -11
v 4 3 11
v 4 3 8
v 4 3 -7
v 4 3 -10
v 5 0 16
v 5 0 12
v 5 0 7
v 5 0 -6
v 5 0 -11
v 5 0 -16
v 5 2 16
v 5 2 15
v 5 2 12
v 5 2 11
v 5 2 8
v 5 2 7
v 5 2 -6
v 5 2 -7
v 5 2 -10
v 5 2 -11
v 5 3 11
v 5 3 8
v 5 3 3
v 5 3 -0
v 5 3 -7
v 5 3 -10
v 5 3 -15
v 5 3 -16
v 5 4 16
v 5 4 15
v 5 4 3
v 5 4 -0
v 5 4 -15
v 5 4 -16
v 5 5 16
v 5 5 13
v 5 5 11
v 5 5 10
v 5 5 9
v 5 5 7
v 5 5 6
v 5 5 -0
v 5 5 -15
v 5 5 -16
v 5 6 13
v 5 6 12
v 5 6 11
v 5 6 10
v 5 6 -1
v 5 6 -16
v 5 7 12
v 5 7 11
v 5 7 10
v 5 7 9
v 5 8 11
v 5 8 10
v 5 8 9
v 5 8 8
v 5 9 10
v 5 9 9
v 5 9 8
v 5 9 7
v 5 10 9
v 5 10 8
v 5 10 6
v 5 10 -0
v 5 11 8
v 5 11 -1
v 7 5 10
v 7 5 9
v 7 7 10
v 7 7 9
v -5 0 16
v -5 2 16
v -5 4 16
v -5 5 16
v -4 1 16
v -4 2 16
v -4 4 16
v 4 1 16
v 4 2 16
v 4 4 16
v 5 0 16
v 5 2 16
v 5 4 16
v 5 5 16
v -5 5 13
v -5 6 13
v -4 5 13
v -4 6 13
v 4 5 13
v 4 6 13
v 5 5 13
v 5 6 13
v -5 6 12
v -5 7 12
v -4 6 12
v -4 7 12
v 4 6 12
v 4 7 12
v 5 6 12
v 5 7 12
v -5 7 11
v -5 8 11
v -4 7 11
v -4 8 11
v 4 7 11
v 4 8 11
v 5 7 11
v 5 8 11
v -7 5 10
v -7 7 10
v -5 5 10
v -5 6 10
v -5 7 10
v -5 8 10
v -5 9 10
v -4 8 10
v -4 9 10
v 4 8 10
v 4 9 10
v 5 5 10
v 5 6 10
v 5 7 10
v 5 8 10
v 5 9 10
v 7 5 10
v 7 7 10
v -5 9 9
v -5 10 9
v -4 9 9
v -4 10 9
v 4 9 9
v 4 10 9
v 5 9 9
v 5 10 9
v -5 2 8
v -5 3 8
v -5 10 8
v -5 11 8
v -4 2 8
v -4 3 8
v -4 10 8
v 4 2 8
v 4 3 8
v 4 10 8
v 5 2 8
v 5 3 8
v 5 10 8
v 5 11 8
v -5 0 7
v -5 2 7
v -4 0 7
v -4 2 7
v 4 0 7
v 4 2 7
v 5 0 7
v 5 2 7
v -5 2 -10
v -5 3 -10
v -4 2 -10
v -4 3 -10
v 4 2 -10
v 4 3 -10
v 5 2 -10
v 5 3 -10
v -5 0 -11
v -5 2 -11
v -4 0 -11
v -4 2 -11
v 4 0 -11
v 4 2 -11
v 5 0 -11
v 5 2 -11
v -4 3 -15
v -4 6 -15
v 4 3 -15
v 4 6 -15
v -5 0 12
v -5 2 12
v -4 0 12
v -4 2 12
v 4 0 12
v 4 2 12
v 5 0 12
v 5 2 12
v -5 2 11
v -5 3 11
v -4 2 11
v -4 3 11
v 4 2 11
v 4 3 11
v 5 2 11
v 5 3 11
v -7 5 9
v -7 7 9
v -5 5 9
v -5 7 9
v 5 5 9
v 5 7 9
v 7 5 9
v 7 7 9
v -4 6 -0
v -4 10 -0
v 4 6 -0
v 4 10 -0
v -5 6 -1
v -5 11 -1
v -4 6 -1
v -4 10 -1
v 4 6 -1
v 4 10 -1
v 5 6 -1
v 5 11 -1
v -4 3 -2
v -4 6 -2
v 4 3 -2
v 4 6 -2
v -5 0 -6
v -5 2 -6
v -4 0 -6
v -4 2 -6
v 4 0 -6
v 4 2 -6
v 5 0 -6
v 5 2 -6
v -5 2 -7
v -5 3 -7
v -4 2 -7
v -4 3 -7
v 4 2 -7
v 4 3 -7
v 5 2 -7
v 5 3 -7
v -4 1 -15
v -4 2 -15
v 4 1 -15
v 4 2 -15
v -5 0 -16
v -5 3 -16
v -5 4 -16
v -5 5 -16
v -5 6 -16
v -4 1 -16
v -4 2 -16
v -4 3 -16
v -4 4 -16
v -4 5 -16
v -4 6 -16
v 4 1 -16
v 4 2 -16
v 4 3 -16
v 4 4 -16
v 4 5 -16
v 4 6 -16
v 5 0 -16
v 5 3 -16
v 5 4 -16
v 5 5 -16
v 5 6 -16
v -5 0 16
v 5 0 16
v -5 0 12
v -4 0 12
v 4 0 12
v 5 0 12
v -5 0 7
v -4 0 7
v 4 0 7
v 5 0 7
v -5 0 -6
v -4 0 -6
v 4 0 -6
v 5 0 -6
v -5 0 -11
v -4 0 -11
v 4 0 -11
v 5 0 -11
v -5 0 -16
v 5 0 -16
v -5 2 12
v -4 2 12
v 4 2 12
v 5 2 12
v -5 2 11
v -4 2 11
v 4 2 11
v 5 2 11
v -5 2 8
v -4 2 8
v 4 2 8
v 5 2 8
v -5 2 7
v -4 2 7
v 4 2 7
v 5 2 7
v -5 2 -6
v -4 2 -6
v 4 2 -6
v 5 2 -6
v -5 2 -7
v -4 2 -7
v 4 2 -7
v 5 2 -7
v -5 2 -10
v -4 2 -10
v 4 2 -10
v 5 2 -10
v -5 2 -11
v -4 2 -11
v 4 2 -11
v 5 2 -11
v -4 2 -15
v 4 2 -15
v -4 2 -16
v 4 2 -16
v -5 3 11
v -4 3 11
v 4 3 11
v 5 3 11
v -5 3 8
v -4 3 8
v 4 3 8
v 5 3 8
v -5 3 -7
v -4 3 -7
v 4 3 -7
v 5 3 -7
v -5 3 -10
v -4 3 -10
v 4 3 -10
v 5 3 -10
v -7 5 10
v -5 5 10
v 5 5 10
v 7 5 10
v -7 5 9
v -5 5 9
v 5 5 9
v 7 5 9
v -4 10 -0
v 4 10 -0
v -4 10 -1
v 4 10 -1
v -4 1 -15
v 4 1 -15
v -4 1 -16
v 4 1 -16
v -4 3 -2
v 4 3 -2
v -4 3 -15
v 4 3 -15
v -5 5 16
v 5 5 16
v -5 5 13
v -4 5 13
v 4 5 13
v 5 5 13
v -5 6 13
v -4 6 13
v 4 6 13
v 5 6 13
v -5 6 12
v -4 6 12
v 4 6 12
v 5 6 12
v -4 6 -0
v 4 6 -0
v -5 6 -1
v -4 6 -1
v 4 6 -1
v 5 6 -1
v -4 6 -2
v 4 6 -2
v -4 6 -15
v 4 6 -15
v -5 6 -16
v -4 6 -16
v 4 6 -16
v 5 6 -16
v -5 7 12
v -4 7 12
v 4 7 12
v 5 7 12
v -5 7 11
v -4 7 11
v 4 7 11
v 5 7 11
v -7 7 10
v -5 7 10
v 5 7 10
v 7 7 10
v -7 7 9
v -5 7 9
v 5 7 9
v 7 7 9
v -5 8 11
v -4 8 11
v 4 8 11
v 5 8 11
v -5 8 10
v -4 8 10
v 4 8 10
v 5 8 10
v -5 9 10
v -4 9 10
v 4 9 10
v 5 9 10
v -5 9 9
v -4 9 9
v 4 9 9
v 5 9 9
v -5 10 9
v -4 10 9
v 4 10 9
v 5 10 9
v -5 10 8
v -4 10 8
v 4 10 8
v 5 10 8
v -5 11 8
v 5 11 8
v -5 11 -1
v 5 11 -1

# faces
f 3/7/1 2/7/1 1/7/1
f 4/7/1 2/7/1 3/7/1
f 11/7/1 6/7/1 5/7/1
f 12/7/1 6/7/1 11/7/1
f 13/7/1 6/7/1 12/7/1
f 16/7/1 8/7/1 7/7/1
f 17/7/1 8/7/1 16/7/1
f 20/7/1 10/7/1 9/7/1
f 21/7/1 14/7/1 13/7/1
f 21/7/1 13/7/1 12/7/1
f 22/7/1 18/7/1 17/7/1
f 22/7/1 16/7/1 15/7/1
f 22/7/1 17/7/1 16/7/1
f 23/7/1 18/7/1 22/7/1
f 24/7/1 18/7/1 23/7/1
f 25/7/1 18/7/1 24/7/1
f 26/7/1 20/7/1 19/7/1
f 27/7/1 10/7/1 20/7/1
f 27/7/1 20/7/1 26/7/1
f 28/7/1 10/7/1 27/7/1
f 29/2/1 12/2/1 11/2/1
f 30/7/1 21/7/1 12/7/1
f 30/2/1 12/2/1 29/2/1
f 30/7/1 22/7/1 21/7/1
f 30/7/1 23/7/1 22/7/1
f 31/6/1 24/6/1 23/6/1
f 31/7/1 23/7/1 30/7/1
f 32/7/1 25/7/1 24/7/1
f 32/6/1 24/6/1 31/6/1
f 32/7/1 26/7/1 25/7/1
f 32/7/1 27/7/1 26/7/1
f 33/1/1 28/1/1 27/1/1
f 33/7/1 27/7/1 32/7/1
f 34/1/1 28/1/1 33/1/1
f 35/7/1 31/7/1 30/7/1
f 35/7/1 32/7/1 31/7/1
f 35/7/1 30/7/1 29/7/1
f 35/7/1 33/7/1 32/7/1
f 36/7/1 33/7/1 35/7/1
f 37/7/1 33/7/1 36/7/1
f 38/7/1 33/7/1 37/7/1
f 39/7/1 33/7/1 38/7/1
f 40/7/1 33/7/1 39/7/1
f 41/7/1 33/7/1 40/7/1
f 42/7/1 33/7/1 41/7/1
f 43/2/1 34/2/1 33/2/1
f 43/7/1 33/7/1 42/7/1
f 44/2/1 34/2/1 43/2/1
f 45/7/1 37/7/1 36/7/1
f 46/7/1 37/7/1 45/7/1
f 47/4/1 38/4/1 37/4/1
f 47/7/1 37/7/1 46/7/1
f 48/4/1 38/4/1 47/4/1
f 49/7/1 44/7/1 43/7/1
f 49/7/1 43/7/1 42/7/1
f 50/7/1 44/7/1 49/7/1
f 51/7/1 48/7/1 47/7/1
f 51/7/1 47/7/1 46/7/1
f 52/7/1 48/7/1 51/7/1
f 53/7/1 48/7/1 52/7/1
f 54/4/1 40/4/1 39/4/1
f 55/7/1 53/7/1 52/7/1
f 55/7/1 54/7/1 53/7/1
f 56/7/1 54/7/1 55/7/1
f 57/4/1 40/4/1 54/4/1
f 57/7/1 54/7/1 56/7/1
f 58/4/1 40/4/1 57/4/1
f 59/7/1 57/7/1 56/7/1
f 59/7/1 58/7/1 57/7/1
f 60/7/1 58/7/1 59/7/1
f 61/4/1 40/4/1 58/4/1
f 61/7/1 58/7/1 60/7/1
f 62/7/1 41/7/1 40/7/1
f 62/4/1 40/4/1 61/4/1
f 63/7/1 61/7/1 60/7/1
f 63/7/1 62/7/1 61/7/1
f 64/7/1 62/7/1 63/7/1
f 65/4/1 42/4/1 41/4/1
f 65/7/1 62/7/1 64/7/1
f 65/7/1 41/7/1 62/7/1
f 66/7/1 49/7/1 42/7/1
f 66/4/1 42/4/1 65/4/1
f 67/7/1 65/7/1 64/7/1
f 67/7/1 66/7/1 65/7/1
f 68/7/1 49/7/1 66/7/1
f 68/7/1 66/7/1 67/7/1
f 73/7/1 70/7/1 69/7/1
f 74/7/1 70/7/1 73/7/1
f 75/7/1 70/7/1 74/7/1
f 76/7/1 70/7/1 75/7/1
f 77/7/1 72/7/1 71/7/1
f 78/7/1 72/7/1 77/7/1
f 79/7/1 72/7/1 78/7/1
f 80/7/1 72/7/1 79/7/1
f 81/7/1 75/7/1 74/7/1
f 82/7/1 75/7/1 81/7/1
f 83/7/1 79/7/1 78/7/1
f 84/7/1 79/7/1 83/7/1
f 87/7/1 86/7/1 85/7/1
f 88/7/1 86/7/1 87/7/1
f 93/7/1 90/7/1 89/7/1
f 94/7/1 90/7/1 93/7/1
f 95/7/1 92/7/1 91/7/1
f 96/7/1 92/7/1 95/7/1
f 97/7/2 98/7/2 99/7/2
f 99/7/2 98/7/2 100/7/2
f 101/7/2 102/7/2 105/7/2
f 105/7/2 102/7/2 106/7/2
f 103/7/2 104/7/2 107/7/2
f 107/7/2 104/7/2 108/7/2
f 109/7/2 110/7/2 113/7/2
f 113/7/2 110/7/2 114/7/2
f 114/7/2 110/7/2 115/7/2
f 115/7/2 110/7/2 116/7/2
f 111/7/2 112/7/2 117/7/2
f 117/7/2 112/7/2 118/7/2
f 118/7/2 112/7/2 119/7/2
f 119/7/2 112/7/2 120/7/2
f 114/7/2 115/7/2 121/7/2
f 121/7/2 115/7/2 122/7/2
f 118/7/2 119/7/2 123/7/2
f 123/7/2 119/7/2 124/7/2
f 125/7/2 126/7/2 131/7/2
f 131/7/2 126/7/2 132/7/2
f 132/7/2 126/7/2 133/7/2
f 127/7/2 128/7/2 136/7/2
f 136/7/2 128/7/2 137/7/2
f 129/7/2 130/7/2 140/7/2
f 133/7/2 134/7/2 141/7/2
f 132/7/2 133/7/2 141/7/2
f 137/7/2 138/7/2 142/7/2
f 135/7/2 136/7/2 142/7/2
f 136/7/2 137/7/2 142/7/2
f 142/7/2 138/7/2 143/7/2
f 143/7/2 138/7/2 144/7/2
f 144/7/2 138/7/2 145/7/2
f 139/7/2 140/7/2 146/7/2
f 140/7/2 130/7/2 147/7/2
f 146/7/2 140/7/2 147/7/2
f 147/7/2 130/7/2 148/7/2
f 131/2/2 132/2/2 149/2/2
f 132/7/2 141/7/2 150/7/2
f 149/2/2 132/2/2 150/2/2
f 141/7/2 142/7/2 150/7/2
f 142/7/2 143/7/2 150/7/2
f 143/6/2 144/6/2 151/6/2
f 150/7/2 143/7/2 151/7/2
f 144/7/2 145/7/2 152/7/2
f 151/6/2 144/6/2 152/6/2
f 145/7/2 146/7/2 152/7/2
f 146/7/2 147/7/2 152/7/2
f 147/1/2 148/1/2 153/1/2
f 152/7/2 147/7/2 153/7/2
f 153/1/2 148/1/2 154/1/2
f 150/7/2 151/7/2 155/7/2
f 151/7/2 152/7/2 155/7/2
f 149/7/2 150/7/2 155/7/2
f 152/7/2 153/7/2 155/7/2
f 155/7/2 153/7/2 156/7/2
f 156/7/2 153/7/2 157/7/2
f 157/7/2 153/7/2 158/7/2
f 158/7/2 153/7/2 159/7/2
f 159/7/2 153/7/2 160/7/2
f 160/7/2 153/7/2 161/7/2
f 161/7/2 153/7/2 162/7/2
f 153/2/2 154/2/2 163/2/2
f 162/7/2 153/7/2 163/7/2
f 163/2/2 154/2/2 164/2/2
f 156/7/2 157/7/2 165/7/2
f 165/7/2 157/7/2 166/7/2
f 157/4/2 158/4/2 167/4/2
f 166/7/2 157/7/2 167/7/2
f 167/4/2 158/4/2 168/4/2
f 163/7/2 164/7/2 169/7/2
f 162/7/2 163/7/2 169/7/2
f 169/7/2 164/7/2 170/7/2
f 167/7/2 168/7/2 171/7/2
f 166/7/2 167/7/2 171/7/2
f 171/7/2 168/7/2 172/7/2
f 172/7/2 168/7/2 173/7/2
f 159/4/2 160/4/2 174/4/2
f 172/7/2 173/7/2 175/7/2
f 173/7/2 174/7/2 175/7/2
f 175/7/2 174/7/2 176/7/2
f 174/4/2 160/4/2 177/4/2
f 176/7/2 174/7/2 177/7/2
f 177/4/2 160/4/2 178/4/2
f 176/7/2 177/7/2 179/7/2
f 177/7/2 178/7/2 179/7/2
f 179/7/2 178/7/2 180/7/2
f 178/4/2 160/4/2 181/4/2
f 180/7/2 178/7/2 181/7/2
f 160/7/2 161/7/2 182/7/2
f 181/4/2 160/4/2 182/4/2
f 180/7/2 181/7/2 183/7/2
f 181/7/2 182/7/2 183/7/2
f 183/7/2 182/7/2 184/7/2
f 161/4/2 162/4/2 185/4/2
f 184/7/2 182/7/2 185/7/2
f 182/7/2 161/7/2 185/7/2
f 162/7/2 169/7/2 186/7/2
f 185/4/2 162/4/2 186/4/2
f 184/7/2 185/7/2 187/7/2
f 185/7/2 186/7/2 187/7/2
f 186/7/2 169/7/2 188/7/2
f 187/7/2 186/7/2 188/7/2
f 189/7/2 190/7/2 191/7/2
f 191/7/2 190/7/2 192/7/2
f 197/7/3 194/7/3 193/7/3
f 198/2/3 195/2/3 194/2/3
f 198/7/3 194/7/3 197/7/3
f 199/7/3 196/7/3 195/7/3
f 199/2/3 195/2/3 198/2/3
f 200/3/3 198/3/3 197/3/3
f 200/7/3 197/7/3 193/7/3
f 200/3/3 199/3/3 198/3/3
f 201/3/3 199/3/3 200/3/3
f 202/7/3 196/7/3 199/7/3
f 202/3/3 199/3/3 201/3/3
f 203/7/3 201/7/3 200/7/3
f 203/7/3 200/7/3 193/7/3
f 204/2/3 202/2/3 201/2/3
f 204/7/3 201/7/3 203/7/3
f 205/7/3 196/7/3 202/7/3
f 205/2/3 202/2/3 204/2/3
f 206/7/3 196/7/3 205/7/3
f 209/7/3 208/7/3 207/7/3
f 210/7/3 208/7/3 209/7/3
f 211/4/3 210/4/3 209/4/3
f 212/4/3 210/4/3 211/4/3
f 213/7/3 212/7/3 211/7/3
f 214/7/3 212/7/3 213/7/3
f 217/7/3 216/7/3 215/7/3
f 218/7/3 216/7/3 217/7/3
f 219/4/3 218/4/3 217/4/3
f 220/4/3 218/4/3 219/4/3
f 221/7/3 220/7/3 219/7/3
f 222/7/3 220/7/3 221/7/3
f 225/7/3 224/7/3 223/7/3
f 226/7/3 224/7/3 225/7/3
f 227/4/3 226/4/3 225/4/3
f 228/4/3 226/4/3 227/4/3
f 229/7/3 228/7/3 227/7/3
f 230/7/3 228/7/3 229/7/3
f 233/7/3 232/7/3 231/7/3
f 234/7/3 232/7/3 233/7/3
f 235/7/3 232/7/3 234/7/3
f 238/7/3 237/7/3 236/7/3
f 239/7/3 237/7/3 238/7/3
f 240/4/3 239/4/3 238/4/3
f 241/4/3 239/4/3 240/4/3
f 245/7/3 241/7/3 240/7/3
f 246/7/3 241/7/3 245/7/3
f 247/7/3 244/7/3 243/7/3
f 247/7/3 243/7/3 242/7/3
f 248/7/3 244/7/3 247/7/3
f 251/7/3 250/7/3 249/7/3
f 252/7/3 250/7/3 251/7/3
f 253/4/3 252/4/3 251/4/3
f 254/4/3 252/4/3 253/4/3
f 255/7/3 254/7/3 253/7/3
f 256/7/3 254/7/3 255/7/3
f 261/7/3 258/7/3 257/7/3
f 262/7/3 258/7/3 261/7/3
f 263/7/3 260/7/3 259/7/3
f 266/7/3 260/7/3 263/7/3
f 267/7/3 265/7/3 264/7/3
f 268/7/3 265/7/3 267/7/3
f 269/7/3 260/7/3 266/7/3
f 270/7/3 260/7/3 269/7/3
f 273/7/3 272/7/3 271/7/3
f 274/7/3 272/7/3 273/7/3
f 277/7/3 276/7/3 275/7/3
f 278/7/3 276/7/3 277/7/3
f 281/7/3 280/7/3 279/7/3
f 282/7/3 280/7/3 281/7/3
f 285/7/3 284/7/3 283/7/3
f 286/7/3 284/7/3 285/7/3
f 289/7/3 288/7/3 287/7/3
f 290/7/3 288/7/3 289/7/3
f 293/7/3 292/7/3 291/7/3
f 294/7/3 292/7/3 293/7/3
f 297/5/3 296/5/3 295/5/3
f 298/5/3 296/5/3 297/5/3
f 299/7/4 300/7/4 301/7/4
f 301/7/4 300/7/4 302/7/4
f 303/7/4 304/7/4 305/7/4
f 305/7/4 304/7/4 306/7/4
f 307/7/4 308/7/4 309/7/4
f 309/7/4 308/7/4 310/7/4
f 311/7/4 312/7/4 313/7/4
f 313/7/4 312/7/4 314/7/4
f 315/7/4 316/7/4 317/7/4
f 317/7/4 316/7/4 318/7/4
f 319/7/4 320/7/4 321/7/4
f 321/7/4 320/7/4 322/7/4
f 323/4/4 324/4/4 325/4/4
f 325/4/4 324/4/4 326/4/4
f 327/7/4 328/7/4 329/7/4
f 329/7/4 328/7/4 330/7/4
f 330/7/4 328/7/4 332/7/4
f 331/7/4 332/7/4 333/7/4
f 332/7/4 328/7/4 334/7/4
f 333/7/4 332/7/4 334/7/4
f 335/7/4 336/7/4 337/7/4
f 337/7/4 336/7/4 338/7/4
f 339/7/4 340/7/4 341/7/4
f 341/7/4 340/7/4 342/7/4
f 343/7/4 344/7/4 345/7/4
f 345/7/4 344/7/4 346/7/4
f 347/7/4 348/7/4 349/7/4
f 349/7/4 348/7/4 350/7/4
f 351/7/4 352/7/4 353/7/4
f 353/7/4 352/7/4 354/7/4
f 355/7/4 356/7/4 357/7/4
f 357/7/4 356/7/4 358/7/4
f 359/7/4 360/7/4 364/7/4
f 364/7/4 360/7/4 365/7/4
f 360/1/4 361/1/4 366/1/4
f 365/7/4 360/7/4 366/7/4
f 361/2/4 362/2/4 367/2/4
f 366/1/4 361/1/4 367/1/4
f 362/7/4 363/7/4 368/7/4
f 367/2/4 362/2/4 368/2/4
f 368/7/4 363/7/4 369/7/4
f 359/7/4 364/7/4 370/7/4
f 366/5/4 367/5/4 371/5/4
f 365/5/4 366/5/4 371/5/4
f 367/5/4 368/5/4 371/5/4
f 368/5/4 369/5/4 371/5/4
f 371/5/4 369/5/4 372/5/4
f 372/5/4 369/5/4 373/5/4
f 373/5/4 369/5/4 374/5/4
f 374/5/4 369/5/4 375/5/4
f 359/7/4 370/7/4 376/7/4
f 370/7/4 371/7/4 376/7/4
f 371/7/4 372/7/4 376/7/4
f 372/1/4 373/1/4 377/1/4
f 376/7/4 372/7/4 377/7/4
f 373/2/4 374/2/4 378/2/4
f 377/1/4 373/1/4 378/1/4
f 374/7/4 375/7/4 379/7/4
f 378/2/4 374/2/4 379/2/4
f 379/7/4 375/7/4 380/7/4
f 383/7/5 382/7/5 381/7/5
f 384/7/5 382/7/5 383/7/5
f 385/7/5 382/7/5 384/7/5
f 386/7/5 382/7/5 385/7/5
f 388/7/5 385/7/5 384/7/5
f 389/7/5 385/7/5 388/7/5
f 391/7/5 388/7/5 387/7/5
f 391/7/5 390/7/5 389/7/5
f 391/7/5 389/7/5 388/7/5
f 392/7/5 390/7/5 391/7/5
f 393/7/5 390/7/5 392/7/5
f 394/7/5 390/7/5 393/7/5
f 396/7/5 393/7/5 392/7/5
f 397/7/5 393/7/5 396/7/5
f 399/7/5 396/7/5 395/7/5
f 399/7/5 398/7/5 397/7/5
f 399/7/5 397/7/5 396/7/5
f 400/7/5 398/7/5 399/7/5
f 405/7/5 402/7/5 401/7/5
f 406/7/5 402/7/5 405/7/5
f 407/7/5 404/7/5 403/7/5
f 408/7/5 404/7/5 407/7/5
f 413/7/5 410/7/5 409/7/5
f 414/7/5 410/7/5 413/7/5
f 415/7/5 412/7/5 411/7/5
f 416/7/5 412/7/5 415/7/5
f 421/7/5 418/7/5 417/7/5
f 422/7/5 418/7/5 421/7/5
f 423/7/5 420/7/5 419/7/5
f 424/7/5 420/7/5 423/7/5
f 429/7/5 426/7/5 425/7/5
f 430/7/5 426/7/5 429/7/5
f 431/7/5 428/7/5 427/7/5
f 432/7/5 428/7/5 431/7/5
f 435/5/5 434/5/5 433/5/5
f 436/5/5 434/5/5 435/5/5
f 441/7/5 438/7/5 437/7/5
f 442/7/5 438/7/5 441/7/5
f 443/7/5 440/7/5 439/7/5
f 444/7/5 440/7/5 443/7/5
f 449/7/5 446/7/5 445/7/5
f 450/7/5 446/7/5 449/7/5
f 451/7/5 448/7/5 447/7/5
f 452/7/5 448/7/5 451/7/5
f 457/7/5 454/7/5 453/7/5
f 458/7/5 454/7/5 457/7/5
f 459/7/5 456/7/5 455/7/5
f 460/7/5 456/7/5 459/7/5
f 463/7/5 462/7/5 461/7/5
f 464/7/5 462/7/5 463/7/5
f 465/7/6 466/7/6 467/7/6
f 467/7/6 466/7/6 468/7/6
f 469/7/6 470/7/6 471/7/6
f 471/7/6 470/7/6 472/7/6
f 473/7/6 474/7/6 475/7/6
f 475/7/6 474/7/6 476/7/6
f 476/7/6 474/7/6 477/7/6
f 477/7/6 474/7/6 478/7/6
f 479/7/6 480/7/6 483/7/6
f 480/4/6 481/4/6 484/4/6
f 483/7/6 480/7/6 484/7/6
f 481/7/6 482/7/6 485/7/6
f 484/4/6 481/4/6 485/4/6
f 485/7/6 482/7/6 486/7/6
f 487/7/6 488/7/6 490/7/6
f 490/7/6 488/7/6 491/7/6
f 489/7/6 490/7/6 493/7/6
f 491/7/6 492/7/6 493/7/6
f 490/7/6 491/7/6 493/7/6
f 493/7/6 492/7/6 494/7/6
f 489/7/6 493/7/6 495/7/6
f 494/7/6 492/7/6 496/7/6
f 489/7/6 495/7/6 497/7/6
f 495/5/6 496/5/6 498/5/6
f 497/7/6 495/7/6 498/7/6
f 496/7/6 492/7/6 499/7/6
f 498/5/6 496/5/6 499/5/6
f 499/7/6 492/7/6 500/7/6
f 501/7/6 502/7/6 505/7/6
f 502/4/6 503/4/6 506/4/6
f 505/7/6 502/7/6 506/7/6
f 503/7/6 504/7/6 507/7/6
f 506/4/6 503/4/6 507/4/6
f 507/7/6 504/7/6 508/7/6
f 509/7/6 510/7/6 513/7/6
f 513/7/6 510/7/6 514/7/6
f 511/7/6 512/7/6 515/7/6
f 515/7/6 512/7/6 516/7/6
f 517/7/6 518/7/6 521/7/6
f 518/4/6 519/4/6 522/4/6
f 521/7/6 518/7/6 522/7/6
f 519/7/6 520/7/6 523/7/6
f 522/4/6 519/4/6 523/4/6
f 523/7/6 520/7/6 524/7/6
f 525/7/6 526/7/6 529/7/6
f 526/4/6 527/4/6 530/4/6
f 529/7/6 526/7/6 530/7/6
f 527/7/6 528/7/6 531/7/6
f 530/4/6 527/4/6 531/4/6
f 531/7/6 528/7/6 532/7/6
f 533/7/6 534/7/6 537/7/6
f 534/4/6 535/4/6 538/4/6
f 537/7/6 534/7/6 538/7/6
f 535/7/6 536/7/6 539/7/6
f 538/4/6 535/4/6 539/4/6
f 539/7/6 536/7/6 540/7/6
f 541/7/6 542/7/6 543/7/6
f 543/7/6 542/7/6 544/7/6
