# MagicaVoxel @ Ephtracy

# material
mtllib PoliceCar01.mtl
usemtl palette

# normals
vn -1 0 0
vn 1 0 0
vn 0 0 1
vn 0 0 -1
vn 0 -1 0
vn 0 1 0

# texcoords
vt 0.814453 0.5
vt 0.849609 0.5
vt 0.908203 0.5
vt 0.912109 0.5
vt 0.970703 0.5
vt 0.978516 0.5
vt 0.982422 0.5
vt 0.986328 0.5
vt 0.990234 0.5

# verts
v -7 5 10
v -7 5 9
v -7 7 10
v -7 7 9
v -5 0 16
v -5 0 12
v -5 0 7
v -5 0 -7
v -5 0 -12
v -5 0 -16
v -5 1 -15
v -5 1 -16
v -5 2 16
v -5 2 15
v -5 2 12
v -5 2 11
v -5 2 8
v -5 2 7
v -5 2 -7
v -5 2 -8
v -5 2 -11
v -5 2 -12
v -5 2 -15
v -5 2 -16
v -5 3 11
v -5 3 8
v -5 3 3
v -5 3 -0
v -5 3 -3
v -5 3 -6
v -5 3 -8
v -5 3 -11
v -5 3 -15
v -5 3 -16
v -5 4 16
v -5 4 15
v -5 4 3
v -5 4 -0
v -5 4 -3
v -5 4 -6
v -5 4 -15
v -5 4 -16
v -5 5 16
v -5 5 13
v -5 5 11
v -5 5 10
v -5 5 9
v -5 5 7
v -5 5 6
v -5 5 -0
v -5 5 -1
v -5 5 -6
v -5 5 -7
v -5 5 -11
v -5 5 -13
v -5 5 -16
v -5 6 13
v -5 6 12
v -5 6 11
v -5 6 10
v -5 6 -10
v -5 6 -11
v -5 6 -12
v -5 6 -13
v -5 7 12
v -5 7 11
v -5 7 10
v -5 7 9
v -5 7 -9
v -5 7 -10
v -5 7 -11
v -5 7 -12
v -5 8 11
v -5 8 10
v -5 8 9
v -5 8 8
v -5 8 -8
v -5 8 -9
v -5 8 -10
v -5 8 -11
v -5 9 10
v -5 9 9
v -5 9 8
v -5 9 7
v -5 9 -7
v -5 9 -8
v -5 9 -9
v -5 9 -10
v -5 10 9
v -5 10 8
v -5 10 6
v -5 10 -0
v -5 10 -1
v -5 10 -6
v -5 10 -8
v -5 10 -9
v -5 11 8
v -5 11 7
v -5 11 -7
v -5 11 -8
v -4 0 12
v -4 0 7
v -4 0 -7
v -4 0 -12
v -4 2 12
v -4 2 11
v -4 2 8
v -4 2 7
v -4 2 -7
v -4 2 -8
v -4 2 -11
v -4 2 -12
v -4 3 11
v -4 3 8
v -4 3 -8
v -4 3 -11
v -3 11 7
v -3 11 6
v -3 12 7
v -3 12 6
v 3 11 7
v 3 11 6
v 3 12 7
v 3 12 6
v 4 0 12
v 4 0 7
v 4 0 -7
v 4 0 -12
v 4 2 12
v 4 2 11
v 4 2 8
v 4 2 7
v 4 2 -7
v 4 2 -8
v 4 2 -11
v 4 2 -12
v 4 3 11
v 4 3 8
v 4 3 -8
v 4 3 -11
v 5 0 16
v 5 0 12
v 5 0 7
v 5 0 -7
v 5 0 -12
v 5 0 -16
v 5 1 -15
v 5 1 -16
v 5 2 16
v 5 2 15
v 5 2 12
v 5 2 11
v 5 2 8
v 5 2 7
v 5 2 -7
v 5 2 -8
v 5 2 -11
v 5 2 -12
v 5 2 -15
v 5 2 -16
v 5 3 11
v 5 3 8
v 5 3 3
v 5 3 -0
v 5 3 -3
v 5 3 -6
v 5 3 -8
v 5 3 -11
v 5 3 -15
v 5 3 -16
v 5 4 16
v 5 4 15
v 5 4 3
v 5 4 -0
v 5 4 -3
v 5 4 -6
v 5 4 -15
v 5 4 -16
v 5 5 16
v 5 5 13
v 5 5 11
v 5 5 10
v 5 5 9
v 5 5 7
v 5 5 6
v 5 5 -0
v 5 5 -1
v 5 5 -6
v 5 5 -7
v 5 5 -11
v 5 5 -13
v 5 5 -16
v 5 6 13
v 5 6 12
v 5 6 11
v 5 6 10
v 5 6 -10
v 5 6 -11
v 5 6 -12
v 5 6 -13
v 5 7 12
v 5 7 11
v 5 7 10
v 5 7 9
v 5 7 -9
v 5 7 -10
v 5 7 -11
v 5 7 -12
v 5 8 11
v 5 8 10
v 5 8 9
v 5 8 8
v 5 8 -8
v 5 8 -9
v 5 8 -10
v 5 8 -11
v 5 9 10
v 5 9 9
v 5 9 8
v 5 9 7
v 5 9 -7
v 5 9 -8
v 5 9 -9
v 5 9 -10
v 5 10 9
v 5 10 8
v 5 10 6
v 5 10 -0
v 5 10 -1
v 5 10 -6
v 5 10 -8
v 5 10 -9
v 5 11 8
v 5 11 7
v 5 11 -7
v 5 11 -8
v 7 5 10
v 7 5 9
v 7 7 10
v 7 7 9
v -5 0 16
v -5 2 16
v -5 4 16
v -5 5 16
v -4 2 16
v -4 4 16
v -3 2 16
v -3 4 16
v 3 2 16
v 3 4 16
v 4 2 16
v 4 4 16
v 5 0 16
v 5 2 16
v 5 4 16
v 5 5 16
v -5 5 13
v -5 6 13
v -4 5 13
v -4 6 13
v 4 5 13
v 4 6 13
v 5 5 13
v 5 6 13
v -5 6 12
v -5 7 12
v -4 6 12
v -4 7 12
v 4 6 12
v 4 7 12
v 5 6 12
v 5 7 12
v -5 7 11
v -5 8 11
v -4 7 11
v -4 8 11
v 4 7 11
v 4 8 11
v 5 7 11
v 5 8 11
v -7 5 10
v -7 7 10
v -5 5 10
v -5 6 10
v -5 7 10
v -5 8 10
v -5 9 10
v -4 8 10
v -4 9 10
v 4 8 10
v 4 9 10
v 5 5 10
v 5 6 10
v 5 7 10
v 5 8 10
v 5 9 10
v 7 5 10
v 7 7 10
v -5 9 9
v -5 10 9
v -4 9 9
v -4 10 9
v 4 9 9
v 4 10 9
v 5 9 9
v 5 10 9
v -5 2 8
v -5 3 8
v -5 10 8
v -5 11 8
v -4 2 8
v -4 3 8
v -4 10 8
v 4 2 8
v 4 3 8
v 4 10 8
v 5 2 8
v 5 3 8
v 5 10 8
v 5 11 8
v -5 0 7
v -5 2 7
v -4 0 7
v -4 2 7
v -3 11 7
v -3 12 7
v 0 11 7
v 0 12 7
v 3 11 7
v 3 12 7
v 4 0 7
v 4 2 7
v 5 0 7
v 5 2 7
v -5 2 -11
v -5 3 -11
v -4 2 -11
v -4 3 -11
v 4 2 -11
v 4 3 -11
v 5 2 -11
v 5 3 -11
v -5 0 -12
v -5 2 -12
v -4 0 -12
v -4 2 -12
v 4 0 -12
v 4 2 -12
v 5 0 -12
v 5 2 -12
v -5 0 12
v -5 2 12
v -4 0 12
v -4 2 12
v 4 0 12
v 4 2 12
v 5 0 12
v 5 2 12
v -5 2 11
v -5 3 11
v -4 2 11
v -4 3 11
v 4 2 11
v 4 3 11
v 5 2 11
v 5 3 11
v -7 5 9
v -7 7 9
v -5 5 9
v -5 7 9
v 5 5 9
v 5 7 9
v 7 5 9
v 7 7 9
v -3 11 6
v -3 12 6
v 0 11 6
v 0 12 6
v 3 11 6
v 3 12 6
v -5 0 -7
v -5 2 -7
v -4 0 -7
v -4 2 -7
v 4 0 -7
v 4 2 -7
v 5 0 -7
v 5 2 -7
v -5 2 -8
v -5 3 -8
v -5 10 -8
v -5 11 -8
v -4 2 -8
v -4 3 -8
v -4 10 -8
v 4 2 -8
v 4 3 -8
v 4 10 -8
v 5 2 -8
v 5 3 -8
v 5 10 -8
v 5 11 -8
v -5 9 -9
v -5 10 -9
v -4 9 -9
v -4 10 -9
v 4 9 -9
v 4 10 -9
v 5 9 -9
v 5 10 -9
v -5 8 -10
v -5 9 -10
v -4 8 -10
v -4 9 -10
v 4 8 -10
v 4 9 -10
v 5 8 -10
v 5 9 -10
v -5 7 -11
v -5 8 -11
v -4 7 -11
v -4 8 -11
v 4 7 -11
v 4 8 -11
v 5 7 -11
v 5 8 -11
v -5 6 -12
v -5 7 -12
v -4 6 -12
v -4 7 -12
v 4 6 -12
v 4 7 -12
v 5 6 -12
v 5 7 -12
v -5 5 -13
v -5 6 -13
v -4 5 -13
v -4 6 -13
v 4 5 -13
v 4 6 -13
v 5 5 -13
v 5 6 -13
v -5 0 -16
v -5 1 -16
v -5 2 -16
v -5 3 -16
v -5 4 -16
v -5 5 -16
v -4 1 -16
v -4 2 -16
v -4 3 -16
v -4 4 -16
v 4 1 -16
v 4 2 -16
v 4 3 -16
v 4 4 -16
v 5 0 -16
v 5 1 -16
v 5 2 -16
v 5 3 -16
v 5 4 -16
v 5 5 -16
v -5 0 16
v 5 0 16
v -5 0 12
v -4 0 12
v 4 0 12
v 5 0 12
v -5 0 7
v -4 0 7
v 4 0 7
v 5 0 7
v -5 0 -7
v -4 0 -7
v 4 0 -7
v 5 0 -7
v -5 0 -12
v -4 0 -12
v 4 0 -12
v 5 0 -12
v -5 0 -16
v 5 0 -16
v -5 2 12
v -4 2 12
v 4 2 12
v 5 2 12
v -5 2 11
v -4 2 11
v 4 2 11
v 5 2 11
v -5 2 8
v -4 2 8
v 4 2 8
v 5 2 8
v -5 2 7
v -4 2 7
v 4 2 7
v 5 2 7
v -5 2 -7
v -4 2 -7
v 4 2 -7
v 5 2 -7
v -5 2 -8
v -4 2 -8
v 4 2 -8
v 5 2 -8
v -5 2 -11
v -4 2 -11
v 4 2 -11
v 5 2 -11
v -5 2 -12
v -4 2 -12
v 4 2 -12
v 5 2 -12
v -5 3 11
v -4 3 11
v 4 3 11
v 5 3 11
v -5 3 8
v -4 3 8
v 4 3 8
v 5 3 8
v -5 3 -8
v -4 3 -8
v 4 3 -8
v 5 3 -8
v -5 3 -11
v -4 3 -11
v 4 3 -11
v 5 3 -11
v -7 5 10
v -5 5 10
v 5 5 10
v 7 5 10
v -7 5 9
v -5 5 9
v 5 5 9
v 7 5 9
v -5 5 16
v 5 5 16
v -5 5 13
v -4 5 13
v 4 5 13
v 5 5 13
v -5 5 -13
v -4 5 -13
v 4 5 -13
v 5 5 -13
v -5 5 -16
v 5 5 -16
v -5 6 13
v -4 6 13
v 4 6 13
v 5 6 13
v -5 6 12
v -4 6 12
v 4 6 12
v 5 6 12
v -5 6 -12
v -4 6 -12
v 4 6 -12
v 5 6 -12
v -5 6 -13
v -4 6 -13
v 4 6 -13
v 5 6 -13
v -5 7 12
v -4 7 12
v 4 7 12
v 5 7 12
v -5 7 11
v -4 7 11
v 4 7 11
v 5 7 11
v -7 7 10
v -5 7 10
v 5 7 10
v 7 7 10
v -7 7 9
v -5 7 9
v 5 7 9
v 7 7 9
v -5 7 -11
v -4 7 -11
v 4 7 -11
v 5 7 -11
v -5 7 -12
v -4 7 -12
v 4 7 -12
v 5 7 -12
v -5 8 11
v -4 8 11
v 4 8 11
v 5 8 11
v -5 8 10
v -4 8 10
v 4 8 10
v 5 8 10
v -5 8 -10
v -4 8 -10
v 4 8 -10
v 5 8 -10
v -5 8 -11
v -4 8 -11
v 4 8 -11
v 5 8 -11
v -5 9 10
v -4 9 10
v 4 9 10
v 5 9 10
v -5 9 9
v -4 9 9
v 4 9 9
v 5 9 9
v -5 9 -9
v -4 9 -9
v 4 9 -9
v 5 9 -9
v -5 9 -10
v -4 9 -10
v 4 9 -10
v 5 9 -10
v -5 10 9
v -4 10 9
v 4 10 9
v 5 10 9
v -5 10 8
v -4 10 8
v 4 10 8
v 5 10 8
v -5 10 -8
v -4 10 -8
v 4 10 -8
v 5 10 -8
v -5 10 -9
v -4 10 -9
v 4 10 -9
v 5 10 -9
v -5 11 8
v 5 11 8
v -5 11 7
v -3 11 7
v 0 11 7
v 3 11 7
v 5 11 7
v -3 11 6
v 0 11 6
v 3 11 6
v -5 11 -7
v 5 11 -7
v -5 11 -8
v 5 11 -8
v -3 12 7
v 0 12 7
v 3 12 7
v -3 12 6
v 0 12 6
v 3 12 6

# faces
f 3/5/1 2/5/1 1/5/1
f 4/5/1 2/5/1 3/5/1
f 11/8/1 10/8/1 9/8/1
f 12/8/1 10/8/1 11/8/1
f 13/8/1 6/8/1 5/8/1
f 14/8/1 6/8/1 13/8/1
f 15/8/1 6/8/1 14/8/1
f 18/5/1 8/5/1 7/5/1
f 19/5/1 8/5/1 18/5/1
f 22/8/1 11/8/1 9/8/1
f 23/3/1 12/3/1 11/3/1
f 23/8/1 11/8/1 22/8/1
f 24/3/1 12/3/1 23/3/1
f 25/8/1 16/8/1 15/8/1
f 25/8/1 15/8/1 14/8/1
f 26/8/1 18/8/1 17/8/1
f 27/5/1 19/5/1 18/5/1
f 28/5/1 19/5/1 27/5/1
f 29/5/1 19/5/1 28/5/1
f 30/5/1 19/5/1 29/5/1
f 31/8/1 20/8/1 19/8/1
f 32/8/1 22/8/1 21/8/1
f 32/8/1 24/8/1 23/8/1
f 32/8/1 23/8/1 22/8/1
f 33/8/1 24/8/1 32/8/1
f 34/8/1 24/8/1 33/8/1
f 35/3/1 14/3/1 13/3/1
f 36/8/1 25/8/1 14/8/1
f 36/3/1 14/3/1 35/3/1
f 36/8/1 26/8/1 25/8/1
f 37/5/1 27/5/1 18/5/1
f 37/9/1 28/9/1 27/9/1
f 38/5/1 29/5/1 28/5/1
f 38/9/1 28/9/1 37/9/1
f 39/9/1 30/9/1 29/9/1
f 39/5/1 29/5/1 38/5/1
f 40/5/1 19/5/1 30/5/1
f 40/9/1 30/9/1 39/9/1
f 41/1/1 34/1/1 33/1/1
f 41/8/1 32/8/1 31/8/1
f 41/8/1 33/8/1 32/8/1
f 42/1/1 34/1/1 41/1/1
f 43/8/1 36/8/1 35/8/1
f 44/8/1 26/8/1 36/8/1
f 44/8/1 36/8/1 43/8/1
f 45/8/1 26/8/1 44/8/1
f 46/8/1 26/8/1 45/8/1
f 47/8/1 26/8/1 46/8/1
f 48/5/1 39/5/1 38/5/1
f 48/8/1 26/8/1 47/8/1
f 48/5/1 38/5/1 37/5/1
f 48/5/1 37/5/1 18/5/1
f 48/8/1 18/8/1 26/8/1
f 48/5/1 40/5/1 39/5/1
f 49/5/1 40/5/1 48/5/1
f 50/5/1 40/5/1 49/5/1
f 51/5/1 40/5/1 50/5/1
f 52/5/1 19/5/1 40/5/1
f 52/5/1 40/5/1 51/5/1
f 53/8/1 31/8/1 19/8/1
f 53/5/1 19/5/1 52/5/1
f 53/8/1 42/8/1 41/8/1
f 53/8/1 41/8/1 31/8/1
f 54/8/1 42/8/1 53/8/1
f 55/8/1 42/8/1 54/8/1
f 56/8/1 42/8/1 55/8/1
f 57/8/1 45/8/1 44/8/1
f 58/8/1 45/8/1 57/8/1
f 59/6/1 46/6/1 45/6/1
f 59/8/1 45/8/1 58/8/1
f 60/6/1 46/6/1 59/6/1
f 61/6/1 54/6/1 53/6/1
f 62/8/1 55/8/1 54/8/1
f 62/6/1 54/6/1 61/6/1
f 63/8/1 55/8/1 62/8/1
f 64/8/1 55/8/1 63/8/1
f 65/8/1 60/8/1 59/8/1
f 65/8/1 59/8/1 58/8/1
f 66/8/1 60/8/1 65/8/1
f 67/8/1 60/8/1 66/8/1
f 68/6/1 48/6/1 47/6/1
f 69/6/1 61/6/1 53/6/1
f 70/8/1 63/8/1 62/8/1
f 70/6/1 61/6/1 69/6/1
f 70/8/1 62/8/1 61/8/1
f 71/8/1 63/8/1 70/8/1
f 72/8/1 63/8/1 71/8/1
f 73/8/1 68/8/1 67/8/1
f 73/8/1 67/8/1 66/8/1
f 74/8/1 68/8/1 73/8/1
f 75/6/1 48/6/1 68/6/1
f 75/8/1 68/8/1 74/8/1
f 76/6/1 48/6/1 75/6/1
f 77/6/1 69/6/1 53/6/1
f 78/8/1 71/8/1 70/8/1
f 78/6/1 69/6/1 77/6/1
f 78/8/1 70/8/1 69/8/1
f 79/8/1 71/8/1 78/8/1
f 80/8/1 71/8/1 79/8/1
f 81/8/1 76/8/1 75/8/1
f 81/8/1 75/8/1 74/8/1
f 82/8/1 76/8/1 81/8/1
f 83/6/1 48/6/1 76/6/1
f 83/8/1 76/8/1 82/8/1
f 84/5/1 49/5/1 48/5/1
f 84/6/1 48/6/1 83/6/1
f 85/6/1 77/6/1 53/6/1
f 85/5/1 53/5/1 52/5/1
f 86/8/1 79/8/1 78/8/1
f 86/6/1 77/6/1 85/6/1
f 86/8/1 78/8/1 77/8/1
f 87/8/1 79/8/1 86/8/1
f 88/8/1 79/8/1 87/8/1
f 89/8/1 83/8/1 82/8/1
f 89/8/1 84/8/1 83/8/1
f 90/8/1 84/8/1 89/8/1
f 91/6/1 50/6/1 49/6/1
f 91/5/1 49/5/1 84/5/1
f 92/5/1 51/5/1 50/5/1
f 92/6/1 50/6/1 91/6/1
f 93/6/1 52/6/1 51/6/1
f 93/5/1 51/5/1 92/5/1
f 94/5/1 85/5/1 52/5/1
f 94/6/1 52/6/1 93/6/1
f 95/8/1 87/8/1 86/8/1
f 95/8/1 86/8/1 85/8/1
f 96/8/1 87/8/1 95/8/1
f 97/8/1 84/8/1 90/8/1
f 98/5/1 92/5/1 91/5/1
f 98/8/1 84/8/1 97/8/1
f 98/5/1 91/5/1 84/5/1
f 98/5/1 94/5/1 93/5/1
f 98/5/1 93/5/1 92/5/1
f 99/5/1 85/5/1 94/5/1
f 99/5/1 94/5/1 98/5/1
f 99/8/1 95/8/1 85/8/1
f 100/8/1 95/8/1 99/8/1
f 105/8/1 102/8/1 101/8/1
f 106/8/1 102/8/1 105/8/1
f 107/8/1 102/8/1 106/8/1
f 108/8/1 102/8/1 107/8/1
f 109/8/1 104/8/1 103/8/1
f 110/8/1 104/8/1 109/8/1
f 111/8/1 104/8/1 110/8/1
f 112/8/1 104/8/1 111/8/1
f 113/8/1 107/8/1 106/8/1
f 114/8/1 107/8/1 113/8/1
f 115/8/1 111/8/1 110/8/1
f 116/8/1 111/8/1 115/8/1
f 119/1/1 118/1/1 117/1/1
f 120/1/1 118/1/1 119/1/1
f 121/2/2 122/2/2 123/2/2
f 123/2/2 122/2/2 124/2/2
f 125/8/2 126/8/2 129/8/2
f 129/8/2 126/8/2 130/8/2
f 130/8/2 126/8/2 131/8/2
f 131/8/2 126/8/2 132/8/2
f 127/8/2 128/8/2 133/8/2
f 133/8/2 128/8/2 134/8/2
f 134/8/2 128/8/2 135/8/2
f 135/8/2 128/8/2 136/8/2
f 130/8/2 131/8/2 137/8/2
f 137/8/2 131/8/2 138/8/2
f 134/8/2 135/8/2 139/8/2
f 139/8/2 135/8/2 140/8/2
f 145/8/2 146/8/2 147/8/2
f 147/8/2 146/8/2 148/8/2
f 141/8/2 142/8/2 149/8/2
f 149/8/2 142/8/2 150/8/2
f 150/8/2 142/8/2 151/8/2
f 143/5/2 144/5/2 154/5/2
f 154/5/2 144/5/2 155/5/2
f 145/8/2 147/8/2 158/8/2
f 147/3/2 148/3/2 159/3/2
f 158/8/2 147/8/2 159/8/2
f 159/3/2 148/3/2 160/3/2
f 151/8/2 152/8/2 161/8/2
f 150/8/2 151/8/2 161/8/2
f 153/8/2 154/8/2 162/8/2
f 154/5/2 155/5/2 163/5/2
f 163/5/2 155/5/2 164/5/2
f 164/5/2 155/5/2 165/5/2
f 165/5/2 155/5/2 166/5/2
f 155/8/2 156/8/2 167/8/2
f 157/8/2 158/8/2 168/8/2
f 159/8/2 160/8/2 168/8/2
f 158/8/2 159/8/2 168/8/2
f 168/8/2 160/8/2 169/8/2
f 169/8/2 160/8/2 170/8/2
f 149/3/2 150/3/2 171/3/2
f 150/8/2 161/8/2 172/8/2
f 171/3/2 150/3/2 172/3/2
f 161/8/2 162/8/2 172/8/2
f 154/5/2 163/5/2 173/5/2
f 163/9/2 164/9/2 173/9/2
f 164/5/2 165/5/2 174/5/2
f 173/9/2 164/9/2 174/9/2
f 165/9/2 166/9/2 175/9/2
f 174/5/2 165/5/2 175/5/2
f 166/5/2 155/5/2 176/5/2
f 175/9/2 166/9/2 176/9/2
f 169/1/2 170/1/2 177/1/2
f 167/8/2 168/8/2 177/8/2
f 168/8/2 169/8/2 177/8/2
f 177/1/2 170/1/2 178/1/2
f 171/8/2 172/8/2 179/8/2
f 172/8/2 162/8/2 180/8/2
f 179/8/2 172/8/2 180/8/2
f 180/8/2 162/8/2 181/8/2
f 181/8/2 162/8/2 182/8/2
f 182/8/2 162/8/2 183/8/2
f 174/5/2 175/5/2 184/5/2
f 183/8/2 162/8/2 184/8/2
f 173/5/2 174/5/2 184/5/2
f 154/5/2 173/5/2 184/5/2
f 162/8/2 154/8/2 184/8/2
f 175/5/2 176/5/2 184/5/2
f 184/5/2 176/5/2 185/5/2
f 185/5/2 176/5/2 186/5/2
f 186/5/2 176/5/2 187/5/2
f 176/5/2 155/5/2 188/5/2
f 187/5/2 176/5/2 188/5/2
f 155/8/2 167/8/2 189/8/2
f 188/5/2 155/5/2 189/5/2
f 177/8/2 178/8/2 189/8/2
f 167/8/2 177/8/2 189/8/2
f 189/8/2 178/8/2 190/8/2
f 190/8/2 178/8/2 191/8/2
f 191/8/2 178/8/2 192/8/2
f 180/8/2 181/8/2 193/8/2
f 193/8/2 181/8/2 194/8/2
f 181/6/2 182/6/2 195/6/2
f 194/8/2 181/8/2 195/8/2
f 195/6/2 182/6/2 196/6/2
f 189/6/2 190/6/2 197/6/2
f 190/8/2 191/8/2 198/8/2
f 197/6/2 190/6/2 198/6/2
f 198/8/2 191/8/2 199/8/2
f 199/8/2 191/8/2 200/8/2
f 195/8/2 196/8/2 201/8/2
f 194/8/2 195/8/2 201/8/2
f 201/8/2 196/8/2 202/8/2
f 202/8/2 196/8/2 203/8/2
f 183/6/2 184/6/2 204/6/2
f 189/6/2 197/6/2 205/6/2
f 198/8/2 199/8/2 206/8/2
f 205/6/2 197/6/2 206/6/2
f 197/8/2 198/8/2 206/8/2
f 206/8/2 199/8/2 207/8/2
f 207/8/2 199/8/2 208/8/2
f 203/8/2 204/8/2 209/8/2
f 202/8/2 203/8/2 209/8/2
f 209/8/2 204/8/2 210/8/2
f 204/6/2 184/6/2 211/6/2
f 210/8/2 204/8/2 211/8/2
f 211/6/2 184/6/2 212/6/2
f 189/6/2 205/6/2 213/6/2
f 206/8/2 207/8/2 214/8/2
f 213/6/2 205/6/2 214/6/2
f 205/8/2 206/8/2 214/8/2
f 214/8/2 207/8/2 215/8/2
f 215/8/2 207/8/2 216/8/2
f 211/8/2 212/8/2 217/8/2
f 210/8/2 211/8/2 217/8/2
f 217/8/2 212/8/2 218/8/2
f 212/6/2 184/6/2 219/6/2
f 218/8/2 212/8/2 219/8/2
f 184/5/2 185/5/2 220/5/2
f 219/6/2 184/6/2 220/6/2
f 189/6/2 213/6/2 221/6/2
f 188/5/2 189/5/2 221/5/2
f 214/8/2 215/8/2 222/8/2
f 221/6/2 213/6/2 222/6/2
f 213/8/2 214/8/2 222/8/2
f 222/8/2 215/8/2 223/8/2
f 223/8/2 215/8/2 224/8/2
f 218/8/2 219/8/2 225/8/2
f 219/8/2 220/8/2 225/8/2
f 225/8/2 220/8/2 226/8/2
f 185/6/2 186/6/2 227/6/2
f 220/5/2 185/5/2 227/5/2
f 186/5/2 187/5/2 228/5/2
f 227/6/2 186/6/2 228/6/2
f 187/6/2 188/6/2 229/6/2
f 228/5/2 187/5/2 229/5/2
f 188/5/2 221/5/2 230/5/2
f 229/6/2 188/6/2 230/6/2
f 222/8/2 223/8/2 231/8/2
f 221/8/2 222/8/2 231/8/2
f 231/8/2 223/8/2 232/8/2
f 226/8/2 220/8/2 233/8/2
f 227/5/2 228/5/2 234/5/2
f 233/8/2 220/8/2 234/8/2
f 220/5/2 227/5/2 234/5/2
f 229/5/2 230/5/2 234/5/2
f 228/5/2 229/5/2 234/5/2
f 230/5/2 221/5/2 235/5/2
f 234/5/2 230/5/2 235/5/2
f 221/8/2 231/8/2 235/8/2
f 235/8/2 231/8/2 236/8/2
f 237/5/2 238/5/2 239/5/2
f 239/5/2 238/5/2 240/5/2
f 245/8/3 242/8/3 241/8/3
f 245/3/3 243/3/3 242/3/3
f 246/8/3 244/8/3 243/8/3
f 246/3/3 243/3/3 245/3/3
f 247/8/3 245/8/3 241/8/3
f 247/8/3 246/8/3 245/8/3
f 248/8/3 244/8/3 246/8/3
f 248/8/3 246/8/3 247/8/3
f 249/8/3 247/8/3 241/8/3
f 249/7/3 248/7/3 247/7/3
f 250/8/3 244/8/3 248/8/3
f 250/7/3 248/7/3 249/7/3
f 251/8/3 249/8/3 241/8/3
f 251/8/3 250/8/3 249/8/3
f 252/8/3 244/8/3 250/8/3
f 252/8/3 250/8/3 251/8/3
f 253/8/3 251/8/3 241/8/3
f 254/3/3 252/3/3 251/3/3
f 254/8/3 251/8/3 253/8/3
f 255/8/3 244/8/3 252/8/3
f 255/3/3 252/3/3 254/3/3
f 256/8/3 244/8/3 255/8/3
f 259/8/3 258/8/3 257/8/3
f 260/8/3 258/8/3 259/8/3
f 261/6/3 260/6/3 259/6/3
f 262/6/3 260/6/3 261/6/3
f 263/8/3 262/8/3 261/8/3
f 264/8/3 262/8/3 263/8/3
f 267/8/3 266/8/3 265/8/3
f 268/8/3 266/8/3 267/8/3
f 269/6/3 268/6/3 267/6/3
f 270/6/3 268/6/3 269/6/3
f 271/8/3 270/8/3 269/8/3
f 272/8/3 270/8/3 271/8/3
f 275/8/3 274/8/3 273/8/3
f 276/8/3 274/8/3 275/8/3
f 277/6/3 276/6/3 275/6/3
f 278/6/3 276/6/3 277/6/3
f 279/8/3 278/8/3 277/8/3
f 280/8/3 278/8/3 279/8/3
f 283/5/3 282/5/3 281/5/3
f 284/5/3 282/5/3 283/5/3
f 285/5/3 282/5/3 284/5/3
f 288/8/3 287/8/3 286/8/3
f 289/8/3 287/8/3 288/8/3
f 290/6/3 289/6/3 288/6/3
f 291/6/3 289/6/3 290/6/3
f 295/8/3 291/8/3 290/8/3
f 296/8/3 291/8/3 295/8/3
f 297/5/3 294/5/3 293/5/3
f 297/5/3 293/5/3 292/5/3
f 298/5/3 294/5/3 297/5/3
f 301/8/3 300/8/3 299/8/3
f 302/8/3 300/8/3 301/8/3
f 303/6/3 302/6/3 301/6/3
f 304/6/3 302/6/3 303/6/3
f 305/8/3 304/8/3 303/8/3
f 306/8/3 304/8/3 305/8/3
f 311/8/3 308/8/3 307/8/3
f 312/8/3 308/8/3 311/8/3
f 313/8/3 310/8/3 309/8/3
f 316/8/3 310/8/3 313/8/3
f 317/8/3 315/8/3 314/8/3
f 318/8/3 315/8/3 317/8/3
f 319/8/3 310/8/3 316/8/3
f 320/8/3 310/8/3 319/8/3
f 323/5/3 322/5/3 321/5/3
f 324/5/3 322/5/3 323/5/3
f 327/1/3 326/1/3 325/1/3
f 328/1/3 326/1/3 327/1/3
f 329/2/3 328/2/3 327/2/3
f 330/2/3 328/2/3 329/2/3
f 333/5/3 332/5/3 331/5/3
f 334/5/3 332/5/3 333/5/3
f 337/8/3 336/8/3 335/8/3
f 338/8/3 336/8/3 337/8/3
f 341/8/3 340/8/3 339/8/3
f 342/8/3 340/8/3 341/8/3
f 345/8/3 344/8/3 343/8/3
f 346/8/3 344/8/3 345/8/3
f 349/8/3 348/8/3 347/8/3
f 350/8/3 348/8/3 349/8/3
f 351/8/4 352/8/4 353/8/4
f 353/8/4 352/8/4 354/8/4
f 355/8/4 356/8/4 357/8/4
f 357/8/4 356/8/4 358/8/4
f 359/8/4 360/8/4 361/8/4
f 361/8/4 360/8/4 362/8/4
f 363/8/4 364/8/4 365/8/4
f 365/8/4 364/8/4 366/8/4
f 367/5/4 368/5/4 369/5/4
f 369/5/4 368/5/4 370/5/4
f 371/5/4 372/5/4 373/5/4
f 373/5/4 372/5/4 374/5/4
f 375/1/4 376/1/4 377/1/4
f 377/1/4 376/1/4 378/1/4
f 377/2/4 378/2/4 379/2/4
f 379/2/4 378/2/4 380/2/4
f 381/5/4 382/5/4 383/5/4
f 383/5/4 382/5/4 384/5/4
f 385/5/4 386/5/4 387/5/4
f 387/5/4 386/5/4 388/5/4
f 389/8/4 390/8/4 393/8/4
f 393/8/4 390/8/4 394/8/4
f 391/8/4 392/8/4 395/8/4
f 395/8/4 392/8/4 398/8/4
f 396/8/4 397/8/4 399/8/4
f 399/8/4 397/8/4 400/8/4
f 398/8/4 392/8/4 401/8/4
f 401/8/4 392/8/4 402/8/4
f 403/8/4 404/8/4 405/8/4
f 405/8/4 404/8/4 406/8/4
f 405/6/4 406/6/4 407/6/4
f 407/6/4 406/6/4 408/6/4
f 407/8/4 408/8/4 409/8/4
f 409/8/4 408/8/4 410/8/4
f 411/8/4 412/8/4 413/8/4
f 413/8/4 412/8/4 414/8/4
f 413/6/4 414/6/4 415/6/4
f 415/6/4 414/6/4 416/6/4
f 415/8/4 416/8/4 417/8/4
f 417/8/4 416/8/4 418/8/4
f 419/8/4 420/8/4 421/8/4
f 421/8/4 420/8/4 422/8/4
f 421/6/4 422/6/4 423/6/4
f 423/6/4 422/6/4 424/6/4
f 423/8/4 424/8/4 425/8/4
f 425/8/4 424/8/4 426/8/4
f 427/8/4 428/8/4 429/8/4
f 429/8/4 428/8/4 430/8/4
f 429/6/4 430/6/4 431/6/4
f 431/6/4 430/6/4 432/6/4
f 431/8/4 432/8/4 433/8/4
f 433/8/4 432/8/4 434/8/4
f 435/8/4 436/8/4 437/8/4
f 437/8/4 436/8/4 438/8/4
f 437/6/4 438/6/4 439/6/4
f 439/6/4 438/6/4 440/6/4
f 439/8/4 440/8/4 441/8/4
f 441/8/4 440/8/4 442/8/4
f 443/8/4 444/8/4 449/8/4
f 444/3/4 445/3/4 449/3/4
f 445/8/4 446/8/4 450/8/4
f 449/3/4 445/3/4 450/3/4
f 446/1/4 447/1/4 451/1/4
f 450/8/4 446/8/4 451/8/4
f 447/8/4 448/8/4 452/8/4
f 451/1/4 447/1/4 452/1/4
f 450/8/4 451/8/4 453/8/4
f 449/8/4 450/8/4 453/8/4
f 451/8/4 452/8/4 453/8/4
f 443/8/4 449/8/4 453/8/4
f 453/8/4 452/8/4 454/8/4
f 454/8/4 452/8/4 455/8/4
f 452/8/4 448/8/4 456/8/4
f 455/8/4 452/8/4 456/8/4
f 443/8/4 453/8/4 457/8/4
f 453/3/4 454/3/4 458/3/4
f 457/8/4 453/8/4 458/8/4
f 454/8/4 455/8/4 459/8/4
f 458/3/4 454/3/4 459/3/4
f 455/1/4 456/1/4 460/1/4
f 459/8/4 455/8/4 460/8/4
f 456/8/4 448/8/4 461/8/4
f 460/1/4 456/1/4 461/1/4
f 461/8/4 448/8/4 462/8/4
f 465/8/5 464/8/5 463/8/5
f 466/8/5 464/8/5 465/8/5
f 467/8/5 464/8/5 466/8/5
f 468/8/5 464/8/5 467/8/5
f 470/8/5 467/8/5 466/8/5
f 471/8/5 467/8/5 470/8/5
f 473/5/5 470/5/5 469/5/5
f 474/8/5 471/8/5 470/8/5
f 474/5/5 470/5/5 473/5/5
f 475/5/5 472/5/5 471/5/5
f 475/8/5 471/8/5 474/8/5
f 476/5/5 472/5/5 475/5/5
f 478/8/5 475/8/5 474/8/5
f 479/8/5 475/8/5 478/8/5
f 481/8/5 478/8/5 477/8/5
f 481/8/5 480/8/5 479/8/5
f 481/8/5 479/8/5 478/8/5
f 482/8/5 480/8/5 481/8/5
f 487/8/5 484/8/5 483/8/5
f 488/8/5 484/8/5 487/8/5
f 489/8/5 486/8/5 485/8/5
f 490/8/5 486/8/5 489/8/5
f 495/8/5 492/8/5 491/8/5
f 496/8/5 492/8/5 495/8/5
f 497/8/5 494/8/5 493/8/5
f 498/8/5 494/8/5 497/8/5
f 503/8/5 500/8/5 499/8/5
f 504/8/5 500/8/5 503/8/5
f 505/8/5 502/8/5 501/8/5
f 506/8/5 502/8/5 505/8/5
f 511/8/5 508/8/5 507/8/5
f 512/8/5 508/8/5 511/8/5
f 513/8/5 510/8/5 509/8/5
f 514/8/5 510/8/5 513/8/5
f 519/8/5 516/8/5 515/8/5
f 520/8/5 516/8/5 519/8/5
f 521/8/5 518/8/5 517/8/5
f 522/8/5 518/8/5 521/8/5
f 527/8/5 524/8/5 523/8/5
f 528/8/5 524/8/5 527/8/5
f 529/8/5 526/8/5 525/8/5
f 530/8/5 526/8/5 529/8/5
f 535/5/5 532/5/5 531/5/5
f 536/5/5 532/5/5 535/5/5
f 537/5/5 534/5/5 533/5/5
f 538/5/5 534/5/5 537/5/5
f 539/8/6 540/8/6 541/8/6
f 541/8/6 540/8/6 542/8/6
f 542/8/6 540/8/6 543/8/6
f 543/8/6 540/8/6 544/8/6
f 545/8/6 546/8/6 549/8/6
f 547/8/6 548/8/6 549/8/6
f 546/8/6 547/8/6 549/8/6
f 549/8/6 548/8/6 550/8/6
f 551/8/6 552/8/6 555/8/6
f 552/6/6 553/6/6 556/6/6
f 555/8/6 552/8/6 556/8/6
f 553/8/6 554/8/6 557/8/6
f 556/6/6 553/6/6 557/6/6
f 557/8/6 554/8/6 558/8/6
f 559/8/6 560/8/6 563/8/6
f 560/6/6 561/6/6 564/6/6
f 563/8/6 560/8/6 564/8/6
f 561/8/6 562/8/6 565/8/6
f 564/6/6 561/6/6 565/6/6
f 565/8/6 562/8/6 566/8/6
f 567/8/6 568/8/6 571/8/6
f 568/6/6 569/6/6 572/6/6
f 571/8/6 568/8/6 572/8/6
f 569/8/6 570/8/6 573/8/6
f 572/6/6 569/6/6 573/6/6
f 573/8/6 570/8/6 574/8/6
f 575/5/6 576/5/6 579/5/6
f 579/5/6 576/5/6 580/5/6
f 577/5/6 578/5/6 581/5/6
f 581/5/6 578/5/6 582/5/6
f 583/8/6 584/8/6 587/8/6
f 584/6/6 585/6/6 588/6/6
f 587/8/6 584/8/6 588/8/6
f 585/8/6 586/8/6 589/8/6
f 588/6/6 585/6/6 589/6/6
f 589/8/6 586/8/6 590/8/6
f 591/8/6 592/8/6 595/8/6
f 592/6/6 593/6/6 596/6/6
f 595/8/6 592/8/6 596/8/6
f 593/8/6 594/8/6 597/8/6
f 596/6/6 593/6/6 597/6/6
f 597/8/6 594/8/6 598/8/6
f 599/8/6 600/8/6 603/8/6
f 600/6/6 601/6/6 604/6/6
f 603/8/6 600/8/6 604/8/6
f 601/8/6 602/8/6 605/8/6
f 604/6/6 601/6/6 605/6/6
f 605/8/6 602/8/6 606/8/6
f 607/8/6 608/8/6 611/8/6
f 608/6/6 609/6/6 612/6/6
f 611/8/6 608/8/6 612/8/6
f 609/8/6 610/8/6 613/8/6
f 612/6/6 609/6/6 613/6/6
f 613/8/6 610/8/6 614/8/6
f 615/8/6 616/8/6 619/8/6
f 616/6/6 617/6/6 620/6/6
f 619/8/6 616/8/6 620/8/6
f 617/8/6 618/8/6 621/8/6
f 620/6/6 617/6/6 621/6/6
f 621/8/6 618/8/6 622/8/6
f 623/8/6 624/8/6 627/8/6
f 624/6/6 625/6/6 628/6/6
f 627/8/6 624/8/6 628/8/6
f 625/8/6 626/8/6 629/8/6
f 628/6/6 625/6/6 629/6/6
f 629/8/6 626/8/6 630/8/6
f 631/8/6 632/8/6 635/8/6
f 632/6/6 633/6/6 636/6/6
f 635/8/6 632/8/6 636/8/6
f 633/8/6 634/8/6 637/8/6
f 636/6/6 633/6/6 637/6/6
f 637/8/6 634/8/6 638/8/6
f 639/8/6 640/8/6 641/8/6
f 641/8/6 640/8/6 642/8/6
f 642/8/6 640/8/6 643/8/6
f 643/8/6 640/8/6 644/8/6
f 644/8/6 640/8/6 645/8/6
f 641/5/6 642/5/6 646/5/6
f 644/5/6 645/5/6 648/5/6
f 646/5/6 647/5/6 649/5/6
f 647/5/6 648/5/6 649/5/6
f 641/5/6 646/5/6 649/5/6
f 648/5/6 645/5/6 650/5/6
f 649/5/6 648/5/6 650/5/6
f 649/8/6 650/8/6 651/8/6
f 651/8/6 650/8/6 652/8/6
f 653/1/6 654/1/6 656/1/6
f 654/2/6 655/2/6 657/2/6
f 656/1/6 654/1/6 657/1/6
f 657/2/6 655/2/6 658/2/6
