# MagicaVoxel @ Ephtracy

# material
mtllib Tire03.mtl
usemtl palette

# normals
vn -1 0 0
vn 1 0 0
vn 0 0 1
vn 0 0 -1
vn 0 -1 0
vn 0 1 0

# texcoords
vt 0.970703 0.5
vt 0.986328 0.5

# verts
v -7.5 5 0.5
v -7.5 5 -0.5
v -7.5 10 0.5
v -7.5 10 -0.5
v -6.5 3 0.5
v -6.5 3 -0.5
v -6.5 5 0.5
v -6.5 5 -0.5
v -6.5 10 0.5
v -6.5 10 -0.5
v -6.5 12 0.5
v -6.5 12 -0.5
v -5.5 2 0.5
v -5.5 2 -0.5
v -5.5 3 0.5
v -5.5 3 -0.5
v -5.5 12 0.5
v -5.5 12 -0.5
v -5.5 13 0.5
v -5.5 13 -0.5
v -4.5 1 0.5
v -4.5 1 -0.5
v -4.5 2 0.5
v -4.5 2 -0.5
v -4.5 13 0.5
v -4.5 13 -0.5
v -4.5 14 0.5
v -4.5 14 -0.5
v -2.5 0 0.5
v -2.5 0 -0.5
v -2.5 1 0.5
v -2.5 1 -0.5
v -2.5 14 0.5
v -2.5 14 -0.5
v -2.5 15 0.5
v -2.5 15 -0.5
v 2.5 0 0.5
v 2.5 0 -0.5
v 2.5 1 0.5
v 2.5 1 -0.5
v 2.5 14 0.5
v 2.5 14 -0.5
v 2.5 15 0.5
v 2.5 15 -0.5
v 4.5 1 0.5
v 4.5 1 -0.5
v 4.5 2 0.5
v 4.5 2 -0.5
v 4.5 13 0.5
v 4.5 13 -0.5
v 4.5 14 0.5
v 4.5 14 -0.5
v 5.5 2 0.5
v 5.5 2 -0.5
v 5.5 3 0.5
v 5.5 3 -0.5
v 5.5 12 0.5
v 5.5 12 -0.5
v 5.5 13 0.5
v 5.5 13 -0.5
v 6.5 3 0.5
v 6.5 3 -0.5
v 6.5 5 0.5
v 6.5 5 -0.5
v 6.5 10 0.5
v 6.5 10 -0.5
v 6.5 12 0.5
v 6.5 12 -0.5
v 7.5 5 0.5
v 7.5 5 -0.5
v 7.5 10 0.5
v 7.5 10 -0.5
v -7.5 5 0.5
v -7.5 10 0.5
v -6.5 3 0.5
v -6.5 5 0.5
v -6.5 10 0.5
v -6.5 12 0.5
v -5.5 2 0.5
v -5.5 3 0.5
v -5.5 12 0.5
v -5.5 13 0.5
v -4.5 1 0.5
v -4.5 2 0.5
v -4.5 13 0.5
v -4.5 14 0.5
v -2.5 0 0.5
v -2.5 1 0.5
v -2.5 6 0.5
v -2.5 9 0.5
v -2.5 14 0.5
v -2.5 15 0.5
v -1.5 5 0.5
v -1.5 6 0.5
v -1.5 9 0.5
v -1.5 10 0.5
v 1.5 5 0.5
v 1.5 6 0.5
v 1.5 9 0.5
v 1.5 10 0.5
v 2.5 0 0.5
v 2.5 1 0.5
v 2.5 6 0.5
v 2.5 9 0.5
v 2.5 14 0.5
v 2.5 15 0.5
v 4.5 1 0.5
v 4.5 2 0.5
v 4.5 13 0.5
v 4.5 14 0.5
v 5.5 2 0.5
v 5.5 3 0.5
v 5.5 12 0.5
v 5.5 13 0.5
v 6.5 3 0.5
v 6.5 5 0.5
v 6.5 10 0.5
v 6.5 12 0.5
v 7.5 5 0.5
v 7.5 10 0.5
v -7.5 5 -0.5
v -7.5 10 -0.5
v -6.5 3 -0.5
v -6.5 5 -0.5
v -6.5 10 -0.5
v -6.5 12 -0.5
v -5.5 2 -0.5
v -5.5 3 -0.5
v -5.5 12 -0.5
v -5.5 13 -0.5
v -4.5 1 -0.5
v -4.5 2 -0.5
v -4.5 13 -0.5
v -4.5 14 -0.5
v -2.5 0 -0.5
v -2.5 1 -0.5
v -2.5 6 -0.5
v -2.5 9 -0.5
v -2.5 14 -0.5
v -2.5 15 -0.5
v -1.5 5 -0.5
v -1.5 6 -0.5
v -1.5 9 -0.5
v -1.5 10 -0.5
v 1.5 5 -0.5
v 1.5 6 -0.5
v 1.5 9 -0.5
v 1.5 10 -0.5
v 2.5 0 -0.5
v 2.5 1 -0.5
v 2.5 6 -0.5
v 2.5 9 -0.5
v 2.5 14 -0.5
v 2.5 15 -0.5
v 4.5 1 -0.5
v 4.5 2 -0.5
v 4.5 13 -0.5
v 4.5 14 -0.5
v 5.5 2 -0.5
v 5.5 3 -0.5
v 5.5 12 -0.5
v 5.5 13 -0.5
v 6.5 3 -0.5
v 6.5 5 -0.5
v 6.5 10 -0.5
v 6.5 12 -0.5
v 7.5 5 -0.5
v 7.5 10 -0.5
v -2.5 0 0.5
v 2.5 0 0.5
v -2.5 0 -0.5
v 2.5 0 -0.5
v -4.5 1 0.5
v -2.5 1 0.5
v 2.5 1 0.5
v 4.5 1 0.5
v -4.5 1 -0.5
v -2.5 1 -0.5
v 2.5 1 -0.5
v 4.5 1 -0.5
v -5.5 2 0.5
v -4.5 2 0.5
v 4.5 2 0.5
v 5.5 2 0.5
v -5.5 2 -0.5
v -4.5 2 -0.5
v 4.5 2 -0.5
v 5.5 2 -0.5
v -6.5 3 0.5
v -5.5 3 0.5
v 5.5 3 0.5
v 6.5 3 0.5
v -6.5 3 -0.5
v -5.5 3 -0.5
v 5.5 3 -0.5
v 6.5 3 -0.5
v -7.5 5 0.5
v -6.5 5 0.5
v 6.5 5 0.5
v 7.5 5 0.5
v -7.5 5 -0.5
v -6.5 5 -0.5
v 6.5 5 -0.5
v 7.5 5 -0.5
v -7.5 10 0.5
v -6.5 10 0.5
v 6.5 10 0.5
v 7.5 10 0.5
v -7.5 10 -0.5
v -6.5 10 -0.5
v 6.5 10 -0.5
v 7.5 10 -0.5
v -6.5 12 0.5
v -5.5 12 0.5
v 5.5 12 0.5
v 6.5 12 0.5
v -6.5 12 -0.5
v -5.5 12 -0.5
v 5.5 12 -0.5
v 6.5 12 -0.5
v -5.5 13 0.5
v -4.5 13 0.5
v 4.5 13 0.5
v 5.5 13 0.5
v -5.5 13 -0.5
v -4.5 13 -0.5
v 4.5 13 -0.5
v 5.5 13 -0.5
v -4.5 14 0.5
v -2.5 14 0.5
v 2.5 14 0.5
v 4.5 14 0.5
v -4.5 14 -0.5
v -2.5 14 -0.5
v 2.5 14 -0.5
v 4.5 14 -0.5
v -2.5 15 0.5
v 2.5 15 0.5
v -2.5 15 -0.5
v 2.5 15 -0.5

# faces
f 3/2/1 2/2/1 1/2/1
f 4/2/1 2/2/1 3/2/1
f 7/2/1 6/2/1 5/2/1
f 8/2/1 6/2/1 7/2/1
f 11/2/1 10/2/1 9/2/1
f 12/2/1 10/2/1 11/2/1
f 15/2/1 14/2/1 13/2/1
f 16/2/1 14/2/1 15/2/1
f 19/2/1 18/2/1 17/2/1
f 20/2/1 18/2/1 19/2/1
f 23/2/1 22/2/1 21/2/1
f 24/2/1 22/2/1 23/2/1
f 27/2/1 26/2/1 25/2/1
f 28/2/1 26/2/1 27/2/1
f 31/2/1 30/2/1 29/2/1
f 32/2/1 30/2/1 31/2/1
f 35/2/1 34/2/1 33/2/1
f 36/2/1 34/2/1 35/2/1
f 37/2/2 38/2/2 39/2/2
f 39/2/2 38/2/2 40/2/2
f 41/2/2 42/2/2 43/2/2
f 43/2/2 42/2/2 44/2/2
f 45/2/2 46/2/2 47/2/2
f 47/2/2 46/2/2 48/2/2
f 49/2/2 50/2/2 51/2/2
f 51/2/2 50/2/2 52/2/2
f 53/2/2 54/2/2 55/2/2
f 55/2/2 54/2/2 56/2/2
f 57/2/2 58/2/2 59/2/2
f 59/2/2 58/2/2 60/2/2
f 61/2/2 62/2/2 63/2/2
f 63/2/2 62/2/2 64/2/2
f 65/2/2 66/2/2 67/2/2
f 67/2/2 66/2/2 68/2/2
f 69/2/2 70/2/2 71/2/2
f 71/2/2 70/2/2 72/2/2
f 76/2/3 74/2/3 73/2/3
f 77/2/3 74/2/3 76/2/3
f 80/2/3 76/2/3 75/2/3
f 80/2/3 78/2/3 77/2/3
f 80/2/3 77/2/3 76/2/3
f 81/2/3 78/2/3 80/2/3
f 84/2/3 80/2/3 79/2/3
f 84/2/3 82/2/3 81/2/3
f 84/2/3 81/2/3 80/2/3
f 85/2/3 82/2/3 84/2/3
f 88/2/3 84/2/3 83/2/3
f 88/2/3 86/2/3 85/2/3
f 88/2/3 85/2/3 84/2/3
f 89/2/3 86/2/3 88/2/3
f 90/2/3 86/2/3 89/2/3
f 91/2/3 86/2/3 90/2/3
f 93/2/3 88/2/3 87/2/3
f 93/2/3 89/2/3 88/2/3
f 94/1/3 90/1/3 89/1/3
f 94/2/3 89/2/3 93/2/3
f 95/2/3 92/2/3 91/2/3
f 95/1/3 90/1/3 94/1/3
f 95/2/3 91/2/3 90/2/3
f 96/2/3 92/2/3 95/2/3
f 97/1/3 94/1/3 93/1/3
f 97/2/3 93/2/3 87/2/3
f 97/1/3 96/1/3 95/1/3
f 97/1/3 95/1/3 94/1/3
f 98/1/3 96/1/3 97/1/3
f 99/1/3 96/1/3 98/1/3
f 100/2/3 92/2/3 96/2/3
f 100/1/3 96/1/3 99/1/3
f 101/2/3 97/2/3 87/2/3
f 101/2/3 98/2/3 97/2/3
f 102/2/3 98/2/3 101/2/3
f 103/1/3 99/1/3 98/1/3
f 103/2/3 98/2/3 102/2/3
f 104/2/3 100/2/3 99/2/3
f 104/1/3 99/1/3 103/1/3
f 105/2/3 92/2/3 100/2/3
f 105/2/3 100/2/3 104/2/3
f 106/2/3 92/2/3 105/2/3
f 107/2/3 104/2/3 103/2/3
f 107/2/3 105/2/3 104/2/3
f 107/2/3 103/2/3 102/2/3
f 108/2/3 105/2/3 107/2/3
f 109/2/3 105/2/3 108/2/3
f 110/2/3 105/2/3 109/2/3
f 111/2/3 109/2/3 108/2/3
f 112/2/3 109/2/3 111/2/3
f 113/2/3 109/2/3 112/2/3
f 114/2/3 109/2/3 113/2/3
f 115/2/3 113/2/3 112/2/3
f 116/2/3 113/2/3 115/2/3
f 117/2/3 113/2/3 116/2/3
f 118/2/3 113/2/3 117/2/3
f 119/2/3 117/2/3 116/2/3
f 120/2/3 117/2/3 119/2/3
f 121/2/4 122/2/4 124/2/4
f 124/2/4 122/2/4 125/2/4
f 123/2/4 124/2/4 128/2/4
f 125/2/4 126/2/4 128/2/4
f 124/2/4 125/2/4 128/2/4
f 128/2/4 126/2/4 129/2/4
f 127/2/4 128/2/4 132/2/4
f 129/2/4 130/2/4 132/2/4
f 128/2/4 129/2/4 132/2/4
f 132/2/4 130/2/4 133/2/4
f 131/2/4 132/2/4 136/2/4
f 133/2/4 134/2/4 136/2/4
f 132/2/4 133/2/4 136/2/4
f 136/2/4 134/2/4 137/2/4
f 137/2/4 134/2/4 138/2/4
f 138/2/4 134/2/4 139/2/4
f 135/2/4 136/2/4 141/2/4
f 136/2/4 137/2/4 141/2/4
f 137/1/4 138/1/4 142/1/4
f 141/2/4 137/2/4 142/2/4
f 139/2/4 140/2/4 143/2/4
f 142/1/4 138/1/4 143/1/4
f 138/2/4 139/2/4 143/2/4
f 143/2/4 140/2/4 144/2/4
f 141/1/4 142/1/4 145/1/4
f 135/2/4 141/2/4 145/2/4
f 143/1/4 144/1/4 145/1/4
f 142/1/4 143/1/4 145/1/4
f 145/1/4 144/1/4 146/1/4
f 146/1/4 144/1/4 147/1/4
f 144/2/4 140/2/4 148/2/4
f 147/1/4 144/1/4 148/1/4
f 135/2/4 145/2/4 149/2/4
f 145/2/4 146/2/4 149/2/4
f 149/2/4 146/2/4 150/2/4
f 146/1/4 147/1/4 151/1/4
f 150/2/4 146/2/4 151/2/4
f 147/2/4 148/2/4 152/2/4
f 151/1/4 147/1/4 152/1/4
f 148/2/4 140/2/4 153/2/4
f 152/2/4 148/2/4 153/2/4
f 153/2/4 140/2/4 154/2/4
f 151/2/4 152/2/4 155/2/4
f 152/2/4 153/2/4 155/2/4
f 150/2/4 151/2/4 155/2/4
f 155/2/4 153/2/4 156/2/4
f 156/2/4 153/2/4 157/2/4
f 157/2/4 153/2/4 158/2/4
f 156/2/4 157/2/4 159/2/4
f 159/2/4 157/2/4 160/2/4
f 160/2/4 157/2/4 161/2/4
f 161/2/4 157/2/4 162/2/4
f 160/2/4 161/2/4 163/2/4
f 163/2/4 161/2/4 164/2/4
f 164/2/4 161/2/4 165/2/4
f 165/2/4 161/2/4 166/2/4
f 164/2/4 165/2/4 167/2/4
f 167/2/4 165/2/4 168/2/4
f 171/2/5 170/2/5 169/2/5
f 172/2/5 170/2/5 171/2/5
f 177/2/5 174/2/5 173/2/5
f 178/2/5 174/2/5 177/2/5
f 179/2/5 176/2/5 175/2/5
f 180/2/5 176/2/5 179/2/5
f 185/2/5 182/2/5 181/2/5
f 186/2/5 182/2/5 185/2/5
f 187/2/5 184/2/5 183/2/5
f 188/2/5 184/2/5 187/2/5
f 193/2/5 190/2/5 189/2/5
f 194/2/5 190/2/5 193/2/5
f 195/2/5 192/2/5 191/2/5
f 196/2/5 192/2/5 195/2/5
f 201/2/5 198/2/5 197/2/5
f 202/2/5 198/2/5 201/2/5
f 203/2/5 200/2/5 199/2/5
f 204/2/5 200/2/5 203/2/5
f 205/2/6 206/2/6 209/2/6
f 209/2/6 206/2/6 210/2/6
f 207/2/6 208/2/6 211/2/6
f 211/2/6 208/2/6 212/2/6
f 213/2/6 214/2/6 217/2/6
f 217/2/6 214/2/6 218/2/6
f 215/2/6 216/2/6 219/2/6
f 219/2/6 216/2/6 220/2/6
f 221/2/6 222/2/6 225/2/6
f 225/2/6 222/2/6 226/2/6
f 223/2/6 224/2/6 227/2/6
f 227/2/6 224/2/6 228/2/6
f 229/2/6 230/2/6 233/2/6
f 233/2/6 230/2/6 234/2/6
f 231/2/6 232/2/6 235/2/6
f 235/2/6 232/2/6 236/2/6
f 237/2/6 238/2/6 239/2/6
f 239/2/6 238/2/6 240/2/6
