# MagicaVoxel @ Ephtracy

# material
mtllib Truck02.mtl
usemtl palette

# normals
vn -1 0 0
vn 1 0 0
vn 0 0 1
vn 0 0 -1
vn 0 -1 0
vn 0 1 0

# texcoords
vt 0.849609 0.5
vt 0.943359 0.5
vt 0.947266 0.5
vt 0.951172 0.5
vt 0.970703 0.5
vt 0.982422 0.5
vt 0.986328 0.5
vt 0.990234 0.5
vt 0.994141 0.5

# verts
v -7 0 19.5
v -7 0 17.5
v -7 0 12.5
v -7 0 9.5
v -7 0 8.5
v -7 0 0.5
v -7 0 -4.5
v -7 0 -5.5
v -7 0 -10.5
v -7 0 -18.5
v -7 0 -19.5
v -7 2 17.5
v -7 2 16.5
v -7 2 13.5
v -7 2 12.5
v -7 2 0.5
v -7 2 -0.5
v -7 2 -3.5
v -7 2 -4.5
v -7 2 -5.5
v -7 2 -6.5
v -7 2 -9.5
v -7 2 -10.5
v -7 3 16.5
v -7 3 13.5
v -7 3 -0.5
v -7 3 -3.5
v -7 3 -6.5
v -7 3 -9.5
v -7 4 -17.5
v -7 4 -18.5
v -7 4 -19.5
v -7 5 13.5
v -7 5 10.5
v -7 5 2.5
v -7 5 -10.5
v -7 6 13.5
v -7 6 10.5
v -7 6 2.5
v -7 6 1.5
v -7 6 0.5
v -7 6 -8.5
v -7 6 -9.5
v -7 6 -10.5
v -7 6 -16.5
v -7 6 -17.5
v -7 6 -18.5
v -7 7 18.5
v -7 7 10.5
v -7 7 1.5
v -7 7 0.5
v -7 7 -0.5
v -7 7 -7.5
v -7 7 -8.5
v -7 7 -9.5
v -7 8 0.5
v -7 8 -0.5
v -7 8 -1.5
v -7 8 -6.5
v -7 8 -7.5
v -7 8 -8.5
v -7 8 -15.5
v -7 8 -16.5
v -7 9 -0.5
v -7 9 -1.5
v -7 9 -2.5
v -7 9 -5.5
v -7 9 -6.5
v -7 9 -7.5
v -7 9 -16.5
v -7 9 -17.5
v -7 10 -1.5
v -7 10 -2.5
v -7 10 -3.5
v -7 10 -4.5
v -7 10 -5.5
v -7 10 -6.5
v -7 10 -14.5
v -7 10 -15.5
v -7 11 -2.5
v -7 11 -3.5
v -7 11 -4.5
v -7 11 -5.5
v -7 11 -15.5
v -7 11 -16.5
v -7 12 18.5
v -7 12 10.5
v -7 12 -3.5
v -7 12 -4.5
v -7 13 19.5
v -7 13 9.5
v -7 13 8.5
v -7 13 -14.5
v -7 13 -15.5
v -6 0 17.5
v -6 0 12.5
v -6 0 0.5
v -6 0 -4.5
v -6 0 -5.5
v -6 0 -10.5
v -6 1 9.5
v -6 1 8.5
v -6 2 17.5
v -6 2 16.5
v -6 2 13.5
v -6 2 12.5
v -6 2 0.5
v -6 2 -0.5
v -6 2 -3.5
v -6 2 -4.5
v -6 2 -5.5
v -6 2 -6.5
v -6 2 -9.5
v -6 2 -10.5
v -6 3 16.5
v -6 3 13.5
v -6 3 -0.5
v -6 3 -3.5
v -6 3 -6.5
v -6 3 -9.5
v -6 5 13.5
v -6 5 10.5
v -6 6 13.5
v -6 6 10.5
v -6 7 18.5
v -6 7 10.5
v -6 12 18.5
v -6 12 10.5
v -6 12 9.5
v -6 12 8.5
v 6 1 -12.5
v 6 1 -18.5
v 6 1 -19.5
v 6 2 -11.5
v 6 2 -12.5
v 6 4 -17.5
v 6 4 -18.5
v 6 4 -19.5
v 6 6 19.5
v 6 6 18.5
v 6 6 -16.5
v 6 6 -17.5
v 6 6 -18.5
v 6 8 -15.5
v 6 8 -16.5
v 6 9 -16.5
v 6 9 -17.5
v 6 10 -14.5
v 6 10 -15.5
v 6 11 -15.5
v 6 11 -16.5
v 6 12 19.5
v 6 12 18.5
v 6 12 -11.5
v 6 12 -14.5
v 6 12 -15.5
v -6 1 -12.5
v -6 1 -18.5
v -6 1 -19.5
v -6 2 -11.5
v -6 2 -12.5
v -6 4 -17.5
v -6 4 -18.5
v -6 4 -19.5
v -6 6 19.5
v -6 6 18.5
v -6 6 -16.5
v -6 6 -17.5
v -6 6 -18.5
v -6 8 -15.5
v -6 8 -16.5
v -6 9 -16.5
v -6 9 -17.5
v -6 10 -14.5
v -6 10 -15.5
v -6 11 -15.5
v -6 11 -16.5
v -6 12 19.5
v -6 12 18.5
v -6 12 -11.5
v -6 12 -14.5
v -6 12 -15.5
v 6 0 17.5
v 6 0 12.5
v 6 0 0.5
v 6 0 -4.5
v 6 0 -5.5
v 6 0 -10.5
v 6 1 9.5
v 6 1 8.5
v 6 2 17.5
v 6 2 16.5
v 6 2 13.5
v 6 2 12.5
v 6 2 0.5
v 6 2 -0.5
v 6 2 -3.5
v 6 2 -4.5
v 6 2 -5.5
v 6 2 -6.5
v 6 2 -9.5
v 6 2 -10.5
v 6 3 16.5
v 6 3 13.5
v 6 3 -0.5
v 6 3 -3.5
v 6 3 -6.5
v 6 3 -9.5
v 6 5 13.5
v 6 5 10.5
v 6 6 13.5
v 6 6 10.5
v 6 7 18.5
v 6 7 10.5
v 6 12 18.5
v 6 12 10.5
v 6 12 9.5
v 6 12 8.5
v 7 0 19.5
v 7 0 17.5
v 7 0 12.5
v 7 0 9.5
v 7 0 8.5
v 7 0 0.5
v 7 0 -4.5
v 7 0 -5.5
v 7 0 -10.5
v 7 0 -18.5
v 7 0 -19.5
v 7 2 17.5
v 7 2 16.5
v 7 2 13.5
v 7 2 12.5
v 7 2 0.5
v 7 2 -0.5
v 7 2 -3.5
v 7 2 -4.5
v 7 2 -5.5
v 7 2 -6.5
v 7 2 -9.5
v 7 2 -10.5
v 7 3 16.5
v 7 3 13.5
v 7 3 -0.5
v 7 3 -3.5
v 7 3 -6.5
v 7 3 -9.5
v 7 4 -17.5
v 7 4 -18.5
v 7 4 -19.5
v 7 5 13.5
v 7 5 10.5
v 7 5 2.5
v 7 5 -10.5
v 7 6 13.5
v 7 6 10.5
v 7 6 2.5
v 7 6 1.5
v 7 6 0.5
v 7 6 -8.5
v 7 6 -9.5
v 7 6 -10.5
v 7 6 -16.5
v 7 6 -17.5
v 7 6 -18.5
v 7 7 18.5
v 7 7 10.5
v 7 7 1.5
v 7 7 0.5
v 7 7 -0.5
v 7 7 -7.5
v 7 7 -8.5
v 7 7 -9.5
v 7 8 0.5
v 7 8 -0.5
v 7 8 -1.5
v 7 8 -6.5
v 7 8 -7.5
v 7 8 -8.5
v 7 8 -15.5
v 7 8 -16.5
v 7 9 -0.5
v 7 9 -1.5
v 7 9 -2.5
v 7 9 -5.5
v 7 9 -6.5
v 7 9 -7.5
v 7 9 -16.5
v 7 9 -17.5
v 7 10 -1.5
v 7 10 -2.5
v 7 10 -3.5
v 7 10 -4.5
v 7 10 -5.5
v 7 10 -6.5
v 7 10 -14.5
v 7 10 -15.5
v 7 11 -2.5
v 7 11 -3.5
v 7 11 -4.5
v 7 11 -5.5
v 7 11 -15.5
v 7 11 -16.5
v 7 12 18.5
v 7 12 10.5
v 7 12 -3.5
v 7 12 -4.5
v 7 13 19.5
v 7 13 9.5
v 7 13 8.5
v 7 13 -14.5
v 7 13 -15.5
v -7 0 19.5
v -7 13 19.5
v -6 1 19.5
v -6 5 19.5
v -6 6 19.5
v -6 12 19.5
v 6 1 19.5
v 6 5 19.5
v 6 6 19.5
v 6 12 19.5
v 7 0 19.5
v 7 13 19.5
v -6 6 18.5
v -6 12 18.5
v 6 6 18.5
v 6 12 18.5
v -7 2 13.5
v -7 3 13.5
v -6 2 13.5
v -6 3 13.5
v 6 2 13.5
v 6 3 13.5
v 7 2 13.5
v 7 3 13.5
v -7 0 12.5
v -7 2 12.5
v -6 0 12.5
v -6 2 12.5
v 6 0 12.5
v 6 2 12.5
v 7 0 12.5
v 7 2 12.5
v -7 5 10.5
v -7 6 10.5
v -7 7 10.5
v -7 12 10.5
v -6 5 10.5
v -6 6 10.5
v -6 7 10.5
v -6 12 10.5
v 6 5 10.5
v 6 6 10.5
v 6 7 10.5
v 6 12 10.5
v 7 5 10.5
v 7 6 10.5
v 7 7 10.5
v 7 12 10.5
v -7 0 8.5
v -7 13 8.5
v -6 1 8.5
v -6 12 8.5
v 6 1 8.5
v 6 12 8.5
v 7 0 8.5
v 7 13 8.5
v -7 2 -3.5
v -7 3 -3.5
v -6 2 -3.5
v -6 3 -3.5
v 6 2 -3.5
v 6 3 -3.5
v 7 2 -3.5
v 7 3 -3.5
v -7 0 -4.5
v -7 2 -4.5
v -6 0 -4.5
v -6 2 -4.5
v 6 0 -4.5
v 6 2 -4.5
v 7 0 -4.5
v 7 2 -4.5
v -7 2 -9.5
v -7 3 -9.5
v -6 2 -9.5
v -6 3 -9.5
v 6 2 -9.5
v 6 3 -9.5
v 7 2 -9.5
v 7 3 -9.5
v -7 0 -10.5
v -7 2 -10.5
v -6 0 -10.5
v -6 2 -10.5
v 6 0 -10.5
v 6 2 -10.5
v 7 0 -10.5
v 7 2 -10.5
v -7 7 18.5
v -7 12 18.5
v -6 7 18.5
v -6 12 18.5
v 6 7 18.5
v 6 12 18.5
v 7 7 18.5
v 7 12 18.5
v -7 0 17.5
v -7 2 17.5
v -6 0 17.5
v -6 2 17.5
v 6 0 17.5
v 6 2 17.5
v 7 0 17.5
v 7 2 17.5
v -7 2 16.5
v -7 3 16.5
v -6 2 16.5
v -6 3 16.5
v 6 2 16.5
v 6 3 16.5
v 7 2 16.5
v 7 3 16.5
v -7 5 13.5
v -7 6 13.5
v -6 5 13.5
v -6 6 13.5
v 6 5 13.5
v 6 6 13.5
v 7 5 13.5
v 7 6 13.5
v -7 0 9.5
v -7 13 9.5
v -6 1 9.5
v -6 12 9.5
v 6 1 9.5
v 6 12 9.5
v 7 0 9.5
v 7 13 9.5
v -7 0 0.5
v -7 2 0.5
v -6 0 0.5
v -6 2 0.5
v 6 0 0.5
v 6 2 0.5
v 7 0 0.5
v 7 2 0.5
v -7 2 -0.5
v -7 3 -0.5
v -6 2 -0.5
v -6 3 -0.5
v 6 2 -0.5
v 6 3 -0.5
v 7 2 -0.5
v 7 3 -0.5
v -7 0 -5.5
v -7 2 -5.5
v -6 0 -5.5
v -6 2 -5.5
v 6 0 -5.5
v 6 2 -5.5
v 7 0 -5.5
v 7 2 -5.5
v -7 2 -6.5
v -7 3 -6.5
v -6 2 -6.5
v -6 3 -6.5
v 6 2 -6.5
v 6 3 -6.5
v 7 2 -6.5
v 7 3 -6.5
v -6 2 -11.5
v -6 12 -11.5
v 6 2 -11.5
v 6 12 -11.5
v -6 1 -12.5
v -6 2 -12.5
v 6 1 -12.5
v 6 2 -12.5
v -7 11 -15.5
v -7 13 -15.5
v -6 11 -15.5
v -6 12 -15.5
v 6 11 -15.5
v 6 12 -15.5
v 7 11 -15.5
v 7 13 -15.5
v -7 9 -16.5
v -7 11 -16.5
v -6 9 -16.5
v -6 11 -16.5
v 6 9 -16.5
v 6 11 -16.5
v 7 9 -16.5
v 7 11 -16.5
v -7 6 -17.5
v -7 9 -17.5
v -6 6 -17.5
v -6 9 -17.5
v 6 6 -17.5
v 6 9 -17.5
v 7 6 -17.5
v 7 9 -17.5
v -7 4 -18.5
v -7 6 -18.5
v -6 4 -18.5
v -6 6 -18.5
v 6 4 -18.5
v 6 6 -18.5
v 7 4 -18.5
v 7 6 -18.5
v -7 0 -19.5
v -7 4 -19.5
v -6 1 -19.5
v -6 4 -19.5
v 6 1 -19.5
v 6 4 -19.5
v 7 0 -19.5
v 7 4 -19.5
v -7 0 19.5
v 7 0 19.5
v -7 0 17.5
v -6 0 17.5
v 6 0 17.5
v 7 0 17.5
v -7 0 12.5
v -6 0 12.5
v 6 0 12.5
v 7 0 12.5
v -7 0 9.5
v 7 0 9.5
v -7 0 8.5
v 7 0 8.5
v -7 0 0.5
v -6 0 0.5
v 6 0 0.5
v 7 0 0.5
v -7 0 -4.5
v -6 0 -4.5
v 6 0 -4.5
v 7 0 -4.5
v -7 0 -5.5
v -6 0 -5.5
v 6 0 -5.5
v 7 0 -5.5
v -7 0 -10.5
v -6 0 -10.5
v 6 0 -10.5
v 7 0 -10.5
v -7 0 -18.5
v 7 0 -18.5
v -7 0 -19.5
v 7 0 -19.5
v -6 1 9.5
v 6 1 9.5
v -6 1 8.5
v 6 1 8.5
v -7 2 17.5
v -6 2 17.5
v 6 2 17.5
v 7 2 17.5
v -7 2 16.5
v -6 2 16.5
v 6 2 16.5
v 7 2 16.5
v -7 2 13.5
v -6 2 13.5
v 6 2 13.5
v 7 2 13.5
v -7 2 12.5
v -6 2 12.5
v 6 2 12.5
v 7 2 12.5
v -7 2 0.5
v -6 2 0.5
v 6 2 0.5
v 7 2 0.5
v -7 2 -0.5
v -6 2 -0.5
v 6 2 -0.5
v 7 2 -0.5
v -7 2 -3.5
v -6 2 -3.5
v 6 2 -3.5
v 7 2 -3.5
v -7 2 -4.5
v -6 2 -4.5
v 6 2 -4.5
v 7 2 -4.5
v -7 2 -5.5
v -6 2 -5.5
v 6 2 -5.5
v 7 2 -5.5
v -7 2 -6.5
v -6 2 -6.5
v 6 2 -6.5
v 7 2 -6.5
v -7 2 -9.5
v -6 2 -9.5
v 6 2 -9.5
v 7 2 -9.5
v -7 2 -10.5
v -6 2 -10.5
v 6 2 -10.5
v 7 2 -10.5
v -7 3 16.5
v -6 3 16.5
v 6 3 16.5
v 7 3 16.5
v -7 3 13.5
v -6 3 13.5
v 6 3 13.5
v 7 3 13.5
v -7 3 -0.5
v -6 3 -0.5
v 6 3 -0.5
v 7 3 -0.5
v -7 3 -3.5
v -6 3 -3.5
v 6 3 -3.5
v 7 3 -3.5
v -7 3 -6.5
v -6 3 -6.5
v 6 3 -6.5
v 7 3 -6.5
v -7 3 -9.5
v -6 3 -9.5
v 6 3 -9.5
v 7 3 -9.5
v -7 6 13.5
v -6 6 13.5
v 6 6 13.5
v 7 6 13.5
v -7 6 10.5
v -6 6 10.5
v 6 6 10.5
v 7 6 10.5
v -6 12 19.5
v 6 12 19.5
v -7 12 18.5
v -6 12 18.5
v 6 12 18.5
v 7 12 18.5
v -7 12 10.5
v -6 12 10.5
v 6 12 10.5
v 7 12 10.5
v -6 12 -11.5
v 6 12 -11.5
v -6 12 -14.5
v 6 12 -14.5
v -6 12 -15.5
v 6 12 -15.5
v -6 1 -12.5
v 6 1 -12.5
v -6 1 -18.5
v 6 1 -18.5
v -6 1 -19.5
v 6 1 -19.5
v -6 2 -11.5
v 6 2 -11.5
v -6 2 -12.5
v 6 2 -12.5
v -7 4 -18.5
v -6 4 -18.5
v 6 4 -18.5
v 7 4 -18.5
v -7 4 -19.5
v -6 4 -19.5
v 6 4 -19.5
v 7 4 -19.5
v -7 5 13.5
v -6 5 13.5
v 6 5 13.5
v 7 5 13.5
v -7 5 10.5
v -6 5 10.5
v 6 5 10.5
v 7 5 10.5
v -6 6 19.5
v 6 6 19.5
v -6 6 18.5
v 6 6 18.5
v -7 6 -17.5
v -6 6 -17.5
v 6 6 -17.5
v 7 6 -17.5
v -7 6 -18.5
v -6 6 -18.5
v 6 6 -18.5
v 7 6 -18.5
v -7 7 18.5
v -6 7 18.5
v 6 7 18.5
v 7 7 18.5
v -7 7 10.5
v -6 7 10.5
v 6 7 10.5
v 7 7 10.5
v -7 9 -16.5
v -6 9 -16.5
v 6 9 -16.5
v 7 9 -16.5
v -7 9 -17.5
v -6 9 -17.5
v 6 9 -17.5
v 7 9 -17.5
v -7 11 -15.5
v -6 11 -15.5
v 6 11 -15.5
v 7 11 -15.5
v -7 11 -16.5
v -6 11 -16.5
v 6 11 -16.5
v 7 11 -16.5
v -6 12 9.5
v 6 12 9.5
v -6 12 8.5
v 6 12 8.5
v -7 13 19.5
v 7 13 19.5
v -7 13 9.5
v 7 13 9.5
v -7 13 8.5
v 7 13 8.5
v -7 13 -14.5
v 7 13 -14.5
v -7 13 -15.5
v 7 13 -15.5

# faces
f 12/4/1 2/4/1 1/4/1
f 15/4/1 4/4/1 3/4/1
f 16/2/1 6/2/1 5/2/1
f 19/2/1 8/2/1 7/2/1
f 20/2/1 8/2/1 19/2/1
f 23/2/1 10/2/1 9/2/1
f 24/4/1 13/4/1 12/4/1
f 25/4/1 15/4/1 14/4/1
f 26/2/1 17/2/1 16/2/1
f 27/2/1 21/2/1 20/2/1
f 27/2/1 19/2/1 18/2/1
f 27/2/1 20/2/1 19/2/1
f 28/2/1 21/2/1 27/2/1
f 29/2/1 23/2/1 22/2/1
f 30/2/1 28/2/1 27/2/1
f 30/2/1 29/2/1 28/2/1
f 30/2/1 23/2/1 29/2/1
f 30/2/1 10/2/1 23/2/1
f 30/2/1 27/2/1 26/2/1
f 31/4/1 11/4/1 10/4/1
f 31/2/1 10/2/1 30/2/1
f 32/4/1 11/4/1 31/4/1
f 33/4/1 25/4/1 24/4/1
f 33/4/1 15/4/1 25/4/1
f 34/4/1 4/4/1 15/4/1
f 34/4/1 15/4/1 33/4/1
f 35/2/1 30/2/1 26/2/1
f 35/2/1 26/2/1 16/2/1
f 35/2/1 16/2/1 5/2/1
f 36/2/1 30/2/1 35/2/1
f 37/4/1 33/4/1 24/4/1
f 38/4/1 4/4/1 34/4/1
f 39/5/1 36/5/1 35/5/1
f 39/2/1 35/2/1 5/2/1
f 40/5/1 36/5/1 39/5/1
f 41/5/1 36/5/1 40/5/1
f 42/5/1 36/5/1 41/5/1
f 43/5/1 36/5/1 42/5/1
f 44/2/1 30/2/1 36/2/1
f 44/5/1 36/5/1 43/5/1
f 45/2/1 30/2/1 44/2/1
f 46/4/1 31/4/1 30/4/1
f 46/2/1 30/2/1 45/2/1
f 47/4/1 31/4/1 46/4/1
f 48/4/1 37/4/1 24/4/1
f 48/4/1 24/4/1 12/4/1
f 48/4/1 12/4/1 1/4/1
f 48/4/1 38/4/1 37/4/1
f 49/4/1 4/4/1 38/4/1
f 49/4/1 38/4/1 48/4/1
f 50/2/1 40/2/1 39/2/1
f 50/5/1 41/5/1 40/5/1
f 51/2/1 42/2/1 41/2/1
f 51/5/1 41/5/1 50/5/1
f 52/2/1 42/2/1 51/2/1
f 53/2/1 42/2/1 52/2/1
f 54/5/1 43/5/1 42/5/1
f 54/2/1 42/2/1 53/2/1
f 55/2/1 44/2/1 43/2/1
f 55/5/1 43/5/1 54/5/1
f 55/2/1 45/2/1 44/2/1
f 56/5/1 52/5/1 51/5/1
f 56/2/1 51/2/1 50/2/1
f 57/2/1 53/2/1 52/2/1
f 57/5/1 52/5/1 56/5/1
f 58/2/1 53/2/1 57/2/1
f 59/2/1 53/2/1 58/2/1
f 60/5/1 54/5/1 53/5/1
f 60/2/1 53/2/1 59/2/1
f 61/2/1 55/2/1 54/2/1
f 61/5/1 54/5/1 60/5/1
f 62/2/1 45/2/1 55/2/1
f 62/2/1 55/2/1 61/2/1
f 63/4/1 46/4/1 45/4/1
f 63/2/1 45/2/1 62/2/1
f 64/2/1 57/2/1 56/2/1
f 64/5/1 58/5/1 57/5/1
f 65/2/1 59/2/1 58/2/1
f 65/5/1 58/5/1 64/5/1
f 66/2/1 59/2/1 65/2/1
f 67/2/1 59/2/1 66/2/1
f 68/5/1 60/5/1 59/5/1
f 68/2/1 59/2/1 67/2/1
f 69/2/1 62/2/1 61/2/1
f 69/5/1 60/5/1 68/5/1
f 69/2/1 61/2/1 60/2/1
f 70/4/1 46/4/1 63/4/1
f 70/4/1 63/4/1 62/4/1
f 71/4/1 46/4/1 70/4/1
f 72/5/1 66/5/1 65/5/1
f 72/2/1 65/2/1 64/2/1
f 73/2/1 67/2/1 66/2/1
f 73/5/1 66/5/1 72/5/1
f 74/2/1 67/2/1 73/2/1
f 75/2/1 67/2/1 74/2/1
f 76/5/1 68/5/1 67/5/1
f 76/2/1 67/2/1 75/2/1
f 77/2/1 69/2/1 68/2/1
f 77/5/1 68/5/1 76/5/1
f 78/2/1 62/2/1 69/2/1
f 78/2/1 69/2/1 77/2/1
f 79/4/1 70/4/1 62/4/1
f 79/2/1 62/2/1 78/2/1
f 80/2/1 73/2/1 72/2/1
f 80/5/1 74/5/1 73/5/1
f 81/2/1 75/2/1 74/2/1
f 81/5/1 74/5/1 80/5/1
f 82/5/1 76/5/1 75/5/1
f 82/2/1 75/2/1 81/2/1
f 83/2/1 77/2/1 76/2/1
f 83/5/1 76/5/1 82/5/1
f 83/2/1 78/2/1 77/2/1
f 84/4/1 79/4/1 78/4/1
f 84/4/1 70/4/1 79/4/1
f 85/4/1 70/4/1 84/4/1
f 86/4/1 48/4/1 1/4/1
f 87/4/1 4/4/1 49/4/1
f 88/5/1 82/5/1 81/5/1
f 88/2/1 81/2/1 80/2/1
f 89/2/1 83/2/1 82/2/1
f 89/5/1 82/5/1 88/5/1
f 90/4/1 86/4/1 1/4/1
f 90/4/1 87/4/1 86/4/1
f 91/4/1 4/4/1 87/4/1
f 91/4/1 87/4/1 90/4/1
f 92/2/1 80/2/1 72/2/1
f 92/2/1 56/2/1 50/2/1
f 92/2/1 64/2/1 56/2/1
f 92/2/1 50/2/1 39/2/1
f 92/2/1 88/2/1 80/2/1
f 92/2/1 39/2/1 5/2/1
f 92/2/1 72/2/1 64/2/1
f 92/2/1 89/2/1 88/2/1
f 93/4/1 84/4/1 78/4/1
f 93/2/1 89/2/1 92/2/1
f 93/2/1 78/2/1 83/2/1
f 93/2/1 83/2/1 89/2/1
f 94/4/1 84/4/1 93/4/1
f 103/4/1 96/4/1 95/4/1
f 104/4/1 96/4/1 103/4/1
f 105/4/1 96/4/1 104/4/1
f 106/4/1 96/4/1 105/4/1
f 107/2/1 98/2/1 97/2/1
f 108/2/1 98/2/1 107/2/1
f 109/2/1 98/2/1 108/2/1
f 110/2/1 98/2/1 109/2/1
f 111/2/1 100/2/1 99/2/1
f 112/2/1 100/2/1 111/2/1
f 113/2/1 100/2/1 112/2/1
f 114/2/1 100/2/1 113/2/1
f 115/4/1 105/4/1 104/4/1
f 116/4/1 105/4/1 115/4/1
f 117/2/1 109/2/1 108/2/1
f 118/2/1 109/2/1 117/2/1
f 119/2/1 113/2/1 112/2/1
f 120/2/1 113/2/1 119/2/1
f 123/7/1 122/7/1 121/7/1
f 124/7/1 122/7/1 123/7/1
f 127/1/1 126/1/1 125/1/1
f 128/1/1 126/1/1 127/1/1
f 129/8/1 102/8/1 101/8/1
f 130/8/1 102/8/1 129/8/1
f 135/2/1 132/2/1 131/2/1
f 136/2/1 132/2/1 135/2/1
f 136/2/1 135/2/1 134/2/1
f 137/4/1 133/4/1 132/4/1
f 137/2/1 132/2/1 136/2/1
f 138/4/1 133/4/1 137/4/1
f 141/2/1 136/2/1 134/2/1
f 142/4/1 137/4/1 136/4/1
f 142/2/1 136/2/1 141/2/1
f 143/4/1 137/4/1 142/4/1
f 144/2/1 141/2/1 134/2/1
f 145/4/1 142/4/1 141/4/1
f 145/2/1 141/2/1 144/2/1
f 146/4/1 145/4/1 144/4/1
f 146/4/1 142/4/1 145/4/1
f 147/4/1 142/4/1 146/4/1
f 148/2/1 144/2/1 134/2/1
f 149/4/1 146/4/1 144/4/1
f 149/2/1 144/2/1 148/2/1
f 150/4/1 149/4/1 148/4/1
f 150/4/1 146/4/1 149/4/1
f 151/4/1 146/4/1 150/4/1
f 152/4/1 140/4/1 139/4/1
f 153/4/1 140/4/1 152/4/1
f 154/2/1 148/2/1 134/2/1
f 155/4/1 150/4/1 148/4/1
f 155/2/1 148/2/1 154/2/1
f 156/4/1 150/4/1 155/4/1
f 157/2/2 158/2/2 161/2/2
f 161/2/2 158/2/2 162/2/2
f 160/2/2 161/2/2 162/2/2
f 158/4/2 159/4/2 163/4/2
f 162/2/2 158/2/2 163/2/2
f 163/4/2 159/4/2 164/4/2
f 160/2/2 162/2/2 167/2/2
f 162/4/2 163/4/2 168/4/2
f 167/2/2 162/2/2 168/2/2
f 168/4/2 163/4/2 169/4/2
f 160/2/2 167/2/2 170/2/2
f 167/4/2 168/4/2 171/4/2
f 170/2/2 167/2/2 171/2/2
f 170/4/2 171/4/2 172/4/2
f 171/4/2 168/4/2 172/4/2
f 172/4/2 168/4/2 173/4/2
f 160/2/2 170/2/2 174/2/2
f 170/4/2 172/4/2 175/4/2
f 174/2/2 170/2/2 175/2/2
f 174/4/2 175/4/2 176/4/2
f 175/4/2 172/4/2 176/4/2
f 176/4/2 172/4/2 177/4/2
f 165/4/2 166/4/2 178/4/2
f 178/4/2 166/4/2 179/4/2
f 160/2/2 174/2/2 180/2/2
f 174/4/2 176/4/2 181/4/2
f 180/2/2 174/2/2 181/2/2
f 181/4/2 176/4/2 182/4/2
f 183/4/2 184/4/2 191/4/2
f 191/4/2 184/4/2 192/4/2
f 192/4/2 184/4/2 193/4/2
f 193/4/2 184/4/2 194/4/2
f 185/2/2 186/2/2 195/2/2
f 195/2/2 186/2/2 196/2/2
f 196/2/2 186/2/2 197/2/2
f 197/2/2 186/2/2 198/2/2
f 187/2/2 188/2/2 199/2/2
f 199/2/2 188/2/2 200/2/2
f 200/2/2 188/2/2 201/2/2
f 201/2/2 188/2/2 202/2/2
f 192/4/2 193/4/2 203/4/2
f 203/4/2 193/4/2 204/4/2
f 196/2/2 197/2/2 205/2/2
f 205/2/2 197/2/2 206/2/2
f 200/2/2 201/2/2 207/2/2
f 207/2/2 201/2/2 208/2/2
f 209/7/2 210/7/2 211/7/2
f 211/7/2 210/7/2 212/7/2
f 213/1/2 214/1/2 215/1/2
f 215/1/2 214/1/2 216/1/2
f 189/8/2 190/8/2 217/8/2
f 217/8/2 190/8/2 218/8/2
f 219/4/2 220/4/2 230/4/2
f 221/4/2 222/4/2 233/4/2
f 223/2/2 224/2/2 234/2/2
f 225/2/2 226/2/2 237/2/2
f 237/2/2 226/2/2 238/2/2
f 227/2/2 228/2/2 241/2/2
f 230/4/2 231/4/2 242/4/2
f 232/4/2 233/4/2 243/4/2
f 234/2/2 235/2/2 244/2/2
f 238/2/2 239/2/2 245/2/2
f 236/2/2 237/2/2 245/2/2
f 237/2/2 238/2/2 245/2/2
f 245/2/2 239/2/2 246/2/2
f 240/2/2 241/2/2 247/2/2
f 245/2/2 246/2/2 248/2/2
f 246/2/2 247/2/2 248/2/2
f 247/2/2 241/2/2 248/2/2
f 241/2/2 228/2/2 248/2/2
f 244/2/2 245/2/2 248/2/2
f 228/4/2 229/4/2 249/4/2
f 248/2/2 228/2/2 249/2/2
f 249/4/2 229/4/2 250/4/2
f 242/4/2 243/4/2 251/4/2
f 243/4/2 233/4/2 251/4/2
f 233/4/2 222/4/2 252/4/2
f 251/4/2 233/4/2 252/4/2
f 244/2/2 248/2/2 253/2/2
f 234/2/2 244/2/2 253/2/2
f 223/2/2 234/2/2 253/2/2
f 253/2/2 248/2/2 254/2/2
f 242/4/2 251/4/2 255/4/2
f 252/4/2 222/4/2 256/4/2
f 253/5/2 254/5/2 257/5/2
f 223/2/2 253/2/2 257/2/2
f 257/5/2 254/5/2 258/5/2
f 258/5/2 254/5/2 259/5/2
f 259/5/2 254/5/2 260/5/2
f 260/5/2 254/5/2 261/5/2
f 254/2/2 248/2/2 262/2/2
f 261/5/2 254/5/2 262/5/2
f 262/2/2 248/2/2 263/2/2
f 248/4/2 249/4/2 264/4/2
f 263/2/2 248/2/2 264/2/2
f 264/4/2 249/4/2 265/4/2
f 242/4/2 255/4/2 266/4/2
f 230/4/2 242/4/2 266/4/2
f 219/4/2 230/4/2 266/4/2
f 255/4/2 256/4/2 266/4/2
f 256/4/2 222/4/2 267/4/2
f 266/4/2 256/4/2 267/4/2
f 257/2/2 258/2/2 268/2/2
f 258/5/2 259/5/2 268/5/2
f 259/2/2 260/2/2 269/2/2
f 268/5/2 259/5/2 269/5/2
f 269/2/2 260/2/2 270/2/2
f 270/2/2 260/2/2 271/2/2
f 260/5/2 261/5/2 272/5/2
f 271/2/2 260/2/2 272/2/2
f 261/2/2 262/2/2 273/2/2
f 272/5/2 261/5/2 273/5/2
f 262/2/2 263/2/2 273/2/2
f 269/5/2 270/5/2 274/5/2
f 268/2/2 269/2/2 274/2/2
f 270/2/2 271/2/2 275/2/2
f 274/5/2 270/5/2 275/5/2
f 275/2/2 271/2/2 276/2/2
f 276/2/2 271/2/2 277/2/2
f 271/5/2 272/5/2 278/5/2
f 277/2/2 271/2/2 278/2/2
f 272/2/2 273/2/2 279/2/2
f 278/5/2 272/5/2 279/5/2
f 273/2/2 263/2/2 280/2/2
f 279/2/2 273/2/2 280/2/2
f 263/4/2 264/4/2 281/4/2
f 280/2/2 263/2/2 281/2/2
f 274/2/2 275/2/2 282/2/2
f 275/5/2 276/5/2 282/5/2
f 276/2/2 277/2/2 283/2/2
f 282/5/2 276/5/2 283/5/2
f 283/2/2 277/2/2 284/2/2
f 284/2/2 277/2/2 285/2/2
f 277/5/2 278/5/2 286/5/2
f 285/2/2 277/2/2 286/2/2
f 279/2/2 280/2/2 287/2/2
f 286/5/2 278/5/2 287/5/2
f 278/2/2 279/2/2 287/2/2
f 281/4/2 264/4/2 288/4/2
f 280/4/2 281/4/2 288/4/2
f 288/4/2 264/4/2 289/4/2
f 283/5/2 284/5/2 290/5/2
f 282/2/2 283/2/2 290/2/2
f 284/2/2 285/2/2 291/2/2
f 290/5/2 284/5/2 291/5/2
f 291/2/2 285/2/2 292/2/2
f 292/2/2 285/2/2 293/2/2
f 285/5/2 286/5/2 294/5/2
f 293/2/2 285/2/2 294/2/2
f 286/2/2 287/2/2 295/2/2
f 294/5/2 286/5/2 295/5/2
f 287/2/2 280/2/2 296/2/2
f 295/2/2 287/2/2 296/2/2
f 280/4/2 288/4/2 297/4/2
f 296/2/2 280/2/2 297/2/2
f 290/2/2 291/2/2 298/2/2
f 291/5/2 292/5/2 298/5/2
f 292/2/2 293/2/2 299/2/2
f 298/5/2 292/5/2 299/5/2
f 293/5/2 294/5/2 300/5/2
f 299/2/2 293/2/2 300/2/2
f 294/2/2 295/2/2 301/2/2
f 300/5/2 294/5/2 301/5/2
f 295/2/2 296/2/2 301/2/2
f 296/4/2 297/4/2 302/4/2
f 297/4/2 288/4/2 302/4/2
f 302/4/2 288/4/2 303/4/2
f 219/4/2 266/4/2 304/4/2
f 267/4/2 222/4/2 305/4/2
f 299/5/2 300/5/2 306/5/2
f 298/2/2 299/2/2 306/2/2
f 300/2/2 301/2/2 307/2/2
f 306/5/2 300/5/2 307/5/2
f 219/4/2 304/4/2 308/4/2
f 304/4/2 305/4/2 308/4/2
f 305/4/2 222/4/2 309/4/2
f 308/4/2 305/4/2 309/4/2
f 290/2/2 298/2/2 310/2/2
f 268/2/2 274/2/2 310/2/2
f 274/2/2 282/2/2 310/2/2
f 257/2/2 268/2/2 310/2/2
f 298/2/2 306/2/2 310/2/2
f 223/2/2 257/2/2 310/2/2
f 282/2/2 290/2/2 310/2/2
f 306/2/2 307/2/2 310/2/2
f 296/4/2 302/4/2 311/4/2
f 310/2/2 307/2/2 311/2/2
f 301/2/2 296/2/2 311/2/2
f 307/2/2 301/2/2 311/2/2
f 311/4/2 302/4/2 312/4/2
f 315/4/3 314/4/3 313/4/3
f 316/4/3 314/4/3 315/4/3
f 317/4/3 314/4/3 316/4/3
f 318/4/3 314/4/3 317/4/3
f 319/4/3 315/4/3 313/4/3
f 319/6/3 316/6/3 315/6/3
f 320/4/3 317/4/3 316/4/3
f 320/6/3 316/6/3 319/6/3
f 321/4/3 317/4/3 320/4/3
f 322/4/3 314/4/3 318/4/3
f 323/4/3 321/4/3 320/4/3
f 323/4/3 322/4/3 321/4/3
f 323/4/3 319/4/3 313/4/3
f 323/4/3 320/4/3 319/4/3
f 324/4/3 314/4/3 322/4/3
f 324/4/3 322/4/3 323/4/3
f 327/1/3 326/1/3 325/1/3
f 328/1/3 326/1/3 327/1/3
f 331/4/3 330/4/3 329/4/3
f 332/4/3 330/4/3 331/4/3
f 335/4/3 334/4/3 333/4/3
f 336/4/3 334/4/3 335/4/3
f 339/4/3 338/4/3 337/4/3
f 340/4/3 338/4/3 339/4/3
f 343/4/3 342/4/3 341/4/3
f 344/4/3 342/4/3 343/4/3
f 349/4/3 346/4/3 345/4/3
f 350/4/3 346/4/3 349/4/3
f 351/4/3 348/4/3 347/4/3
f 352/4/3 348/4/3 351/4/3
f 357/4/3 354/4/3 353/4/3
f 358/4/3 354/4/3 357/4/3
f 359/4/3 356/4/3 355/4/3
f 360/4/3 356/4/3 359/4/3
f 363/2/3 362/2/3 361/2/3
f 364/2/3 362/2/3 363/2/3
f 365/2/3 363/2/3 361/2/3
f 366/2/3 362/2/3 364/2/3
f 367/2/3 365/2/3 361/2/3
f 367/2/3 366/2/3 365/2/3
f 368/2/3 362/2/3 366/2/3
f 368/2/3 366/2/3 367/2/3
f 371/2/3 370/2/3 369/2/3
f 372/2/3 370/2/3 371/2/3
f 375/2/3 374/2/3 373/2/3
f 376/2/3 374/2/3 375/2/3
f 379/2/3 378/2/3 377/2/3
f 380/2/3 378/2/3 379/2/3
f 383/2/3 382/2/3 381/2/3
f 384/2/3 382/2/3 383/2/3
f 387/2/3 386/2/3 385/2/3
f 388/2/3 386/2/3 387/2/3
f 391/2/3 390/2/3 389/2/3
f 392/2/3 390/2/3 391/2/3
f 395/2/3 394/2/3 393/2/3
f 396/2/3 394/2/3 395/2/3
f 399/2/3 398/2/3 397/2/3
f 400/2/3 398/2/3 399/2/3
f 401/4/4 402/4/4 403/4/4
f 403/4/4 402/4/4 404/4/4
f 405/4/4 406/4/4 407/4/4
f 407/4/4 406/4/4 408/4/4
f 409/4/4 410/4/4 411/4/4
f 411/4/4 410/4/4 412/4/4
f 413/4/4 414/4/4 415/4/4
f 415/4/4 414/4/4 416/4/4
f 417/4/4 418/4/4 419/4/4
f 419/4/4 418/4/4 420/4/4
f 421/4/4 422/4/4 423/4/4
f 423/4/4 422/4/4 424/4/4
f 425/4/4 426/4/4 427/4/4
f 427/4/4 426/4/4 428/4/4
f 429/4/4 430/4/4 431/4/4
f 431/4/4 430/4/4 432/4/4
f 433/4/4 434/4/4 435/4/4
f 435/4/4 434/4/4 436/4/4
f 433/4/4 435/4/4 437/4/4
f 436/4/4 434/4/4 438/4/4
f 433/4/4 437/4/4 439/4/4
f 437/4/4 438/4/4 439/4/4
f 438/4/4 434/4/4 440/4/4
f 439/4/4 438/4/4 440/4/4
f 441/2/4 442/2/4 443/2/4
f 443/2/4 442/2/4 444/2/4
f 445/2/4 446/2/4 447/2/4
f 447/2/4 446/2/4 448/2/4
f 449/2/4 450/2/4 451/2/4
f 451/2/4 450/2/4 452/2/4
f 453/2/4 454/2/4 455/2/4
f 455/2/4 454/2/4 456/2/4
f 457/2/4 458/2/4 459/2/4
f 459/2/4 458/2/4 460/2/4
f 461/2/4 462/2/4 463/2/4
f 463/2/4 462/2/4 464/2/4
f 465/2/4 466/2/4 467/2/4
f 467/2/4 466/2/4 468/2/4
f 469/2/4 470/2/4 471/2/4
f 471/2/4 470/2/4 472/2/4
f 473/3/4 474/3/4 475/3/4
f 475/3/4 474/3/4 476/3/4
f 477/9/4 478/9/4 479/9/4
f 479/9/4 478/9/4 480/9/4
f 481/4/4 482/4/4 483/4/4
f 483/4/4 482/4/4 484/4/4
f 484/4/4 482/4/4 486/4/4
f 485/4/4 486/4/4 487/4/4
f 486/4/4 482/4/4 488/4/4
f 487/4/4 486/4/4 488/4/4
f 489/4/4 490/4/4 491/4/4
f 491/4/4 490/4/4 492/4/4
f 493/4/4 494/4/4 495/4/4
f 495/4/4 494/4/4 496/4/4
f 497/4/4 498/4/4 499/4/4
f 499/4/4 498/4/4 500/4/4
f 501/4/4 502/4/4 503/4/4
f 503/4/4 502/4/4 504/4/4
f 505/4/4 506/4/4 507/4/4
f 507/4/4 506/4/4 508/4/4
f 509/4/4 510/4/4 511/4/4
f 511/4/4 510/4/4 512/4/4
f 513/4/4 514/4/4 515/4/4
f 515/4/4 514/4/4 516/4/4
f 513/4/4 515/4/4 517/4/4
f 513/4/4 517/4/4 519/4/4
f 517/4/4 518/4/4 519/4/4
f 519/4/4 518/4/4 520/4/4
f 523/4/5 522/4/5 521/4/5
f 524/4/5 522/4/5 523/4/5
f 525/4/5 522/4/5 524/4/5
f 526/4/5 522/4/5 525/4/5
f 528/4/5 525/4/5 524/4/5
f 529/4/5 525/4/5 528/4/5
f 531/4/5 528/4/5 527/4/5
f 531/4/5 530/4/5 529/4/5
f 531/4/5 529/4/5 528/4/5
f 532/4/5 530/4/5 531/4/5
f 535/2/5 534/2/5 533/2/5
f 536/2/5 534/2/5 535/2/5
f 537/2/5 534/2/5 536/2/5
f 538/2/5 534/2/5 537/2/5
f 540/2/5 537/2/5 536/2/5
f 541/2/5 537/2/5 540/2/5
f 543/2/5 540/2/5 539/2/5
f 543/2/5 542/2/5 541/2/5
f 543/2/5 541/2/5 540/2/5
f 544/2/5 542/2/5 543/2/5
f 545/2/5 542/2/5 544/2/5
f 546/2/5 542/2/5 545/2/5
f 548/2/5 545/2/5 544/2/5
f 549/2/5 545/2/5 548/2/5
f 551/2/5 548/2/5 547/2/5
f 551/2/5 550/2/5 549/2/5
f 551/2/5 549/2/5 548/2/5
f 552/2/5 550/2/5 551/2/5
f 553/4/5 552/4/5 551/4/5
f 554/4/5 552/4/5 553/4/5
f 557/8/5 556/8/5 555/8/5
f 558/8/5 556/8/5 557/8/5
f 563/4/5 560/4/5 559/4/5
f 564/4/5 560/4/5 563/4/5
f 565/4/5 562/4/5 561/4/5
f 566/4/5 562/4/5 565/4/5
f 571/4/5 568/4/5 567/4/5
f 572/4/5 568/4/5 571/4/5
f 573/4/5 570/4/5 569/4/5
f 574/4/5 570/4/5 573/4/5
f 579/2/5 576/2/5 575/2/5
f 580/2/5 576/2/5 579/2/5
f 581/2/5 578/2/5 577/2/5
f 582/2/5 578/2/5 581/2/5
f 587/2/5 584/2/5 583/2/5
f 588/2/5 584/2/5 587/2/5
f 589/2/5 586/2/5 585/2/5
f 590/2/5 586/2/5 589/2/5
f 595/2/5 592/2/5 591/2/5
f 596/2/5 592/2/5 595/2/5
f 597/2/5 594/2/5 593/2/5
f 598/2/5 594/2/5 597/2/5
f 603/2/5 600/2/5 599/2/5
f 604/2/5 600/2/5 603/2/5
f 605/2/5 602/2/5 601/2/5
f 606/2/5 602/2/5 605/2/5
f 611/4/5 608/4/5 607/4/5
f 612/4/5 608/4/5 611/4/5
f 613/4/5 610/4/5 609/4/5
f 614/4/5 610/4/5 613/4/5
f 619/2/5 616/2/5 615/2/5
f 620/2/5 616/2/5 619/2/5
f 621/2/5 618/2/5 617/2/5
f 622/2/5 618/2/5 621/2/5
f 627/2/5 624/2/5 623/2/5
f 628/2/5 624/2/5 627/2/5
f 629/2/5 626/2/5 625/2/5
f 630/2/5 626/2/5 629/2/5
f 635/4/5 632/4/5 631/4/5
f 636/4/5 632/4/5 635/4/5
f 637/4/5 634/4/5 633/4/5
f 638/4/5 634/4/5 637/4/5
f 642/4/5 640/4/5 639/4/5
f 643/4/5 640/4/5 642/4/5
f 645/4/5 642/4/5 641/4/5
f 646/4/5 642/4/5 645/4/5
f 647/4/5 644/4/5 643/4/5
f 648/4/5 644/4/5 647/4/5
f 651/2/5 650/2/5 649/2/5
f 652/2/5 650/2/5 651/2/5
f 653/4/5 652/4/5 651/4/5
f 654/4/5 652/4/5 653/4/5
f 655/2/6 656/2/6 657/2/6
f 657/2/6 656/2/6 658/2/6
f 657/4/6 658/4/6 659/4/6
f 659/4/6 658/4/6 660/4/6
f 661/9/6 662/9/6 663/9/6
f 663/9/6 662/9/6 664/9/6
f 665/4/6 666/4/6 669/4/6
f 669/4/6 666/4/6 670/4/6
f 667/4/6 668/4/6 671/4/6
f 671/4/6 668/4/6 672/4/6
f 673/4/6 674/4/6 677/4/6
f 677/4/6 674/4/6 678/4/6
f 675/4/6 676/4/6 679/4/6
f 679/4/6 676/4/6 680/4/6
f 681/4/6 682/4/6 683/4/6
f 683/4/6 682/4/6 684/4/6
f 685/4/6 686/4/6 689/4/6
f 689/4/6 686/4/6 690/4/6
f 687/4/6 688/4/6 691/4/6
f 691/4/6 688/4/6 692/4/6
f 693/4/6 694/4/6 697/4/6
f 697/4/6 694/4/6 698/4/6
f 695/4/6 696/4/6 699/4/6
f 699/4/6 696/4/6 700/4/6
f 701/4/6 702/4/6 705/4/6
f 705/4/6 702/4/6 706/4/6
f 703/4/6 704/4/6 707/4/6
f 707/4/6 704/4/6 708/4/6
f 709/4/6 710/4/6 713/4/6
f 713/4/6 710/4/6 714/4/6
f 711/4/6 712/4/6 715/4/6
f 715/4/6 712/4/6 716/4/6
f 717/8/6 718/8/6 719/8/6
f 719/8/6 718/8/6 720/8/6
f 721/4/6 722/4/6 723/4/6
f 723/4/6 722/4/6 724/4/6
f 725/2/6 726/2/6 727/2/6
f 727/2/6 726/2/6 728/2/6
f 727/4/6 728/4/6 729/4/6
f 729/4/6 728/4/6 730/4/6
