# MagicaVoxel @ Ephtracy

# material
mtllib Road05E.mtl
usemtl palette

# normals
vn -1 0 0
vn 1 0 0
vn 0 0 1
vn 0 0 -1
vn 0 -1 0
vn 0 1 0

# texcoords
vt 0.876953 0.5
vt 0.888672 0.5
vt 0.970703 0.5
vt 0.982422 0.5

# verts
v -10.5 0 7.5
v -10.5 0 6.5
v -10.5 0 -6.5
v -10.5 0 -7.5
v -10.5 1 7.5
v -10.5 1 6.5
v -10.5 1 -6.5
v -10.5 1 -7.5
v 10.5 0 7.5
v 10.5 0 -7.5
v 10.5 1 7.5
v 10.5 1 -7.5
v -10.5 0 7.5
v -10.5 1 7.5
v -7.5 0 7.5
v -7.5 1 7.5
v -6.5 0 7.5
v -6.5 1 7.5
v 10.5 0 7.5
v 10.5 1 7.5
v -10.5 0 -7.5
v -10.5 1 -7.5
v 2.5 0 -7.5
v 2.5 1 -7.5
v 3.5 0 -7.5
v 3.5 1 -7.5
v 10.5 0 -7.5
v 10.5 1 -7.5
v -10.5 0 7.5
v -7.5 0 7.5
v -6.5 0 7.5
v 10.5 0 7.5
v -10.5 0 6.5
v -9.5 0 6.5
v -8.5 0 6.5
v -7.5 0 6.5
v -6.5 0 6.5
v -5.5 0 6.5
v -4.5 0 6.5
v -3.5 0 6.5
v -2.5 0 6.5
v -1.5 0 6.5
v -0.5 0 6.5
v 0.5 0 6.5
v 1.5 0 6.5
v 2.5 0 6.5
v 3.5 0 6.5
v 4.5 0 6.5
v 5.5 0 6.5
v 6.5 0 6.5
v 7.5 0 6.5
v 8.5 0 6.5
v 9.5 0 6.5
v -10.5 0 -6.5
v -9.5 0 -6.5
v -8.5 0 -6.5
v -7.5 0 -6.5
v -6.5 0 -6.5
v -5.5 0 -6.5
v -4.5 0 -6.5
v -3.5 0 -6.5
v -2.5 0 -6.5
v -1.5 0 -6.5
v -0.5 0 -6.5
v 0.5 0 -6.5
v 1.5 0 -6.5
v 2.5 0 -6.5
v 3.5 0 -6.5
v 4.5 0 -6.5
v 5.5 0 -6.5
v 6.5 0 -6.5
v 7.5 0 -6.5
v 8.5 0 -6.5
v 9.5 0 -6.5
v -10.5 0 -7.5
v 2.5 0 -7.5
v 3.5 0 -7.5
v 10.5 0 -7.5
v -10.5 1 7.5
v -7.5 1 7.5
v -6.5 1 7.5
v 10.5 1 7.5
v -10.5 1 6.5
v -9.5 1 6.5
v -8.5 1 6.5
v -7.5 1 6.5
v -6.5 1 6.5
v -5.5 1 6.5
v -4.5 1 6.5
v -3.5 1 6.5
v -2.5 1 6.5
v -1.5 1 6.5
v -0.5 1 6.5
v 0.5 1 6.5
v 1.5 1 6.5
v 2.5 1 6.5
v 3.5 1 6.5
v 4.5 1 6.5
v 5.5 1 6.5
v 6.5 1 6.5
v 7.5 1 6.5
v 8.5 1 6.5
v 9.5 1 6.5
v -10.5 1 -6.5
v -9.5 1 -6.5
v -8.5 1 -6.5
v -7.5 1 -6.5
v -6.5 1 -6.5
v -5.5 1 -6.5
v -4.5 1 -6.5
v -3.5 1 -6.5
v -2.5 1 -6.5
v -1.5 1 -6.5
v -0.5 1 -6.5
v 0.5 1 -6.5
v 1.5 1 -6.5
v 2.5 1 -6.5
v 3.5 1 -6.5
v 4.5 1 -6.5
v 5.5 1 -6.5
v 6.5 1 -6.5
v 7.5 1 -6.5
v 8.5 1 -6.5
v 9.5 1 -6.5
v -10.5 1 -7.5
v 2.5 1 -7.5
v 3.5 1 -7.5
v 10.5 1 -7.5

# faces
f 5/3/1 2/3/1 1/3/1
f 6/2/1 3/2/1 2/2/1
f 6/3/1 2/3/1 5/3/1
f 7/3/1 4/3/1 3/3/1
f 7/2/1 3/2/1 6/2/1
f 8/3/1 4/3/1 7/3/1
f 9/3/2 10/3/2 11/3/2
f 11/3/2 10/3/2 12/3/2
f 15/3/3 14/3/3 13/3/3
f 16/3/3 14/3/3 15/3/3
f 17/4/3 16/4/3 15/4/3
f 18/4/3 16/4/3 17/4/3
f 19/3/3 18/3/3 17/3/3
f 20/3/3 18/3/3 19/3/3
f 21/3/4 22/3/4 23/3/4
f 23/3/4 22/3/4 24/3/4
f 23/4/4 24/4/4 25/4/4
f 25/4/4 24/4/4 26/4/4
f 25/3/4 26/3/4 27/3/4
f 27/3/4 26/3/4 28/3/4
f 33/3/5 30/3/5 29/3/5
f 34/3/5 30/3/5 33/3/5
f 35/3/5 30/3/5 34/3/5
f 36/4/5 31/4/5 30/4/5
f 36/3/5 30/3/5 35/3/5
f 37/3/5 32/3/5 31/3/5
f 37/4/5 31/4/5 36/4/5
f 38/3/5 32/3/5 37/3/5
f 39/3/5 32/3/5 38/3/5
f 40/3/5 32/3/5 39/3/5
f 41/3/5 32/3/5 40/3/5
f 42/3/5 32/3/5 41/3/5
f 43/3/5 32/3/5 42/3/5
f 44/3/5 32/3/5 43/3/5
f 45/3/5 32/3/5 44/3/5
f 46/3/5 32/3/5 45/3/5
f 47/3/5 32/3/5 46/3/5
f 48/3/5 32/3/5 47/3/5
f 49/3/5 32/3/5 48/3/5
f 50/3/5 32/3/5 49/3/5
f 51/3/5 32/3/5 50/3/5
f 52/3/5 32/3/5 51/3/5
f 53/3/5 32/3/5 52/3/5
f 54/2/5 34/2/5 33/2/5
f 55/1/5 35/1/5 34/1/5
f 55/2/5 34/2/5 54/2/5
f 56/2/5 36/2/5 35/2/5
f 56/1/5 35/1/5 55/1/5
f 57/1/5 37/1/5 36/1/5
f 57/2/5 36/2/5 56/2/5
f 58/2/5 38/2/5 37/2/5
f 58/1/5 37/1/5 57/1/5
f 59/1/5 39/1/5 38/1/5
f 59/2/5 38/2/5 58/2/5
f 60/2/5 40/2/5 39/2/5
f 60/1/5 39/1/5 59/1/5
f 61/1/5 41/1/5 40/1/5
f 61/2/5 40/2/5 60/2/5
f 62/2/5 42/2/5 41/2/5
f 62/1/5 41/1/5 61/1/5
f 63/1/5 43/1/5 42/1/5
f 63/2/5 42/2/5 62/2/5
f 64/2/5 44/2/5 43/2/5
f 64/1/5 43/1/5 63/1/5
f 65/1/5 45/1/5 44/1/5
f 65/2/5 44/2/5 64/2/5
f 66/2/5 46/2/5 45/2/5
f 66/1/5 45/1/5 65/1/5
f 67/1/5 47/1/5 46/1/5
f 67/2/5 46/2/5 66/2/5
f 68/2/5 48/2/5 47/2/5
f 68/1/5 47/1/5 67/1/5
f 69/1/5 49/1/5 48/1/5
f 69/2/5 48/2/5 68/2/5
f 70/2/5 50/2/5 49/2/5
f 70/1/5 49/1/5 69/1/5
f 71/1/5 51/1/5 50/1/5
f 71/2/5 50/2/5 70/2/5
f 72/2/5 52/2/5 51/2/5
f 72/1/5 51/1/5 71/1/5
f 73/1/5 53/1/5 52/1/5
f 73/2/5 52/2/5 72/2/5
f 74/3/5 32/3/5 53/3/5
f 74/1/5 53/1/5 73/1/5
f 75/3/5 55/3/5 54/3/5
f 75/3/5 56/3/5 55/3/5
f 75/3/5 57/3/5 56/3/5
f 75/3/5 58/3/5 57/3/5
f 75/3/5 59/3/5 58/3/5
f 75/3/5 60/3/5 59/3/5
f 75/3/5 61/3/5 60/3/5
f 75/3/5 62/3/5 61/3/5
f 75/3/5 67/3/5 66/3/5
f 75/3/5 66/3/5 65/3/5
f 75/3/5 65/3/5 64/3/5
f 75/3/5 64/3/5 63/3/5
f 75/3/5 63/3/5 62/3/5
f 76/4/5 68/4/5 67/4/5
f 76/3/5 67/3/5 75/3/5
f 77/3/5 73/3/5 72/3/5
f 77/4/5 68/4/5 76/4/5
f 77/3/5 74/3/5 73/3/5
f 77/3/5 72/3/5 71/3/5
f 77/3/5 69/3/5 68/3/5
f 77/3/5 70/3/5 69/3/5
f 77/3/5 71/3/5 70/3/5
f 78/3/5 32/3/5 74/3/5
f 78/3/5 74/3/5 77/3/5
f 79/3/6 80/3/6 83/3/6
f 83/3/6 80/3/6 84/3/6
f 84/3/6 80/3/6 85/3/6
f 80/4/6 81/4/6 86/4/6
f 85/3/6 80/3/6 86/3/6
f 81/3/6 82/3/6 87/3/6
f 86/4/6 81/4/6 87/4/6
f 87/3/6 82/3/6 88/3/6
f 88/3/6 82/3/6 89/3/6
f 89/3/6 82/3/6 90/3/6
f 90/3/6 82/3/6 91/3/6
f 91/3/6 82/3/6 92/3/6
f 92/3/6 82/3/6 93/3/6
f 93/3/6 82/3/6 94/3/6
f 94/3/6 82/3/6 95/3/6
f 95/3/6 82/3/6 96/3/6
f 96/3/6 82/3/6 97/3/6
f 97/3/6 82/3/6 98/3/6
f 98/3/6 82/3/6 99/3/6
f 99/3/6 82/3/6 100/3/6
f 100/3/6 82/3/6 101/3/6
f 101/3/6 82/3/6 102/3/6
f 102/3/6 82/3/6 103/3/6
f 83/2/6 84/2/6 104/2/6
f 84/1/6 85/1/6 105/1/6
f 104/2/6 84/2/6 105/2/6
f 85/2/6 86/2/6 106/2/6
f 105/1/6 85/1/6 106/1/6
f 86/1/6 87/1/6 107/1/6
f 106/2/6 86/2/6 107/2/6
f 87/2/6 88/2/6 108/2/6
f 107/1/6 87/1/6 108/1/6
f 88/1/6 89/1/6 109/1/6
f 108/2/6 88/2/6 109/2/6
f 89/2/6 90/2/6 110/2/6
f 109/1/6 89/1/6 110/1/6
f 90/1/6 91/1/6 111/1/6
f 110/2/6 90/2/6 111/2/6
f 91/2/6 92/2/6 112/2/6
f 111/1/6 91/1/6 112/1/6
f 92/1/6 93/1/6 113/1/6
f 112/2/6 92/2/6 113/2/6
f 93/2/6 94/2/6 114/2/6
f 113/1/6 93/1/6 114/1/6
f 94/1/6 95/1/6 115/1/6
f 114/2/6 94/2/6 115/2/6
f 95/2/6 96/2/6 116/2/6
f 115/1/6 95/1/6 116/1/6
f 96/1/6 97/1/6 117/1/6
f 116/2/6 96/2/6 117/2/6
f 97/2/6 98/2/6 118/2/6
f 117/1/6 97/1/6 118/1/6
f 98/1/6 99/1/6 119/1/6
f 118/2/6 98/2/6 119/2/6
f 99/2/6 100/2/6 120/2/6
f 119/1/6 99/1/6 120/1/6
f 100/1/6 101/1/6 121/1/6
f 120/2/6 100/2/6 121/2/6
f 101/2/6 102/2/6 122/2/6
f 121/1/6 101/1/6 122/1/6
f 102/1/6 103/1/6 123/1/6
f 122/2/6 102/2/6 123/2/6
f 103/3/6 82/3/6 124/3/6
f 123/1/6 103/1/6 124/1/6
f 104/3/6 105/3/6 125/3/6
f 105/3/6 106/3/6 125/3/6
f 106/3/6 107/3/6 125/3/6
f 107/3/6 108/3/6 125/3/6
f 108/3/6 109/3/6 125/3/6
f 109/3/6 110/3/6 125/3/6
f 110/3/6 111/3/6 125/3/6
f 111/3/6 112/3/6 125/3/6
f 116/3/6 117/3/6 125/3/6
f 115/3/6 116/3/6 125/3/6
f 114/3/6 115/3/6 125/3/6
f 113/3/6 114/3/6 125/3/6
f 112/3/6 113/3/6 125/3/6
f 117/4/6 118/4/6 126/4/6
f 125/3/6 117/3/6 126/3/6
f 122/3/6 123/3/6 127/3/6
f 126/4/6 118/4/6 127/4/6
f 123/3/6 124/3/6 127/3/6
f 121/3/6 122/3/6 127/3/6
f 118/3/6 119/3/6 127/3/6
f 119/3/6 120/3/6 127/3/6
f 120/3/6 121/3/6 127/3/6
f 124/3/6 82/3/6 128/3/6
f 127/3/6 124/3/6 128/3/6
