# MagicaVoxel @ Ephtracy

# material
mtllib Road03C.mtl
usemtl palette

# normals
vn -1 0 0
vn 1 0 0
vn 0 0 1
vn 0 0 -1
vn 0 -1 0
vn 0 1 0

# texcoords
vt 0.783203 0.5
vt 0.787109 0.5
vt 0.791016 0.5
vt 0.794922 0.5
vt 0.798828 0.5
vt 0.970703 0.5

# verts
v -7.5 0 7.5
v -7.5 0 6.5
v -7.5 0 3.5
v -7.5 0 2.5
v -7.5 0 -2.5
v -7.5 0 -3.5
v -7.5 0 -6.5
v -7.5 0 -7.5
v -7.5 1 7.5
v -7.5 1 6.5
v -7.5 1 3.5
v -7.5 1 2.5
v -7.5 1 -2.5
v -7.5 1 -3.5
v -7.5 1 -6.5
v -7.5 1 -7.5
v 7.5 0 7.5
v 7.5 0 6.5
v 7.5 0 3.5
v 7.5 0 2.5
v 7.5 0 -3.5
v 7.5 0 -4.5
v 7.5 0 -6.5
v 7.5 0 -7.5
v 7.5 1 7.5
v 7.5 1 6.5
v 7.5 1 3.5
v 7.5 1 2.5
v 7.5 1 -3.5
v 7.5 1 -4.5
v 7.5 1 -6.5
v 7.5 1 -7.5
v -7.5 0 7.5
v -7.5 1 7.5
v -6.5 0 7.5
v -6.5 1 7.5
v -2.5 0 7.5
v -2.5 1 7.5
v -1.5 0 7.5
v -1.5 1 7.5
v 4.5 0 7.5
v 4.5 1 7.5
v 5.5 0 7.5
v 5.5 1 7.5
v 6.5 0 7.5
v 6.5 1 7.5
v 7.5 0 7.5
v 7.5 1 7.5
v -7.5 0 -7.5
v -7.5 1 -7.5
v -6.5 0 -7.5
v -6.5 1 -7.5
v -4.5 0 -7.5
v -4.5 1 -7.5
v -3.5 0 -7.5
v -3.5 1 -7.5
v 1.5 0 -7.5
v 1.5 1 -7.5
v 2.5 0 -7.5
v 2.5 1 -7.5
v 6.5 0 -7.5
v 6.5 1 -7.5
v 7.5 0 -7.5
v 7.5 1 -7.5
v -7.5 0 7.5
v -6.5 0 7.5
v -2.5 0 7.5
v -1.5 0 7.5
v 4.5 0 7.5
v 5.5 0 7.5
v 6.5 0 7.5
v 7.5 0 7.5
v -7.5 0 6.5
v -6.5 0 6.5
v -2.5 0 6.5
v -1.5 0 6.5
v 4.5 0 6.5
v 5.5 0 6.5
v 6.5 0 6.5
v 7.5 0 6.5
v -5.5 0 5.5
v -4.5 0 5.5
v -0.5 0 5.5
v 0.5 0 5.5
v -5.5 0 4.5
v -4.5 0 4.5
v -0.5 0 4.5
v 0.5 0 4.5
v 3.5 0 4.5
v 4.5 0 4.5
v -7.5 0 3.5
v -6.5 0 3.5
v 3.5 0 3.5
v 4.5 0 3.5
v 6.5 0 3.5
v 7.5 0 3.5
v -7.5 0 2.5
v -6.5 0 2.5
v 1.5 0 2.5
v 2.5 0 2.5
v 6.5 0 2.5
v 7.5 0 2.5
v -3.5 0 1.5
v -2.5 0 1.5
v 1.5 0 1.5
v 2.5 0 1.5
v -6.5 0 0.5
v -5.5 0 0.5
v -3.5 0 0.5
v -2.5 0 0.5
v -1.5 0 0.5
v -0.5 0 0.5
v 4.5 0 0.5
v 5.5 0 0.5
v -6.5 0 -0.5
v -5.5 0 -0.5
v -1.5 0 -0.5
v -0.5 0 -0.5
v 4.5 0 -0.5
v 5.5 0 -0.5
v -7.5 0 -2.5
v -6.5 0 -2.5
v 1.5 0 -2.5
v 2.5 0 -2.5
v -7.5 0 -3.5
v -6.5 0 -3.5
v -2.5 0 -3.5
v -1.5 0 -3.5
v 1.5 0 -3.5
v 2.5 0 -3.5
v 4.5 0 -3.5
v 5.5 0 -3.5
v 6.5 0 -3.5
v 7.5 0 -3.5
v -2.5 0 -4.5
v -1.5 0 -4.5
v 4.5 0 -4.5
v 5.5 0 -4.5
v 6.5 0 -4.5
v 7.5 0 -4.5
v -1.5 0 -5.5
v -0.5 0 -5.5
v -7.5 0 -6.5
v -6.5 0 -6.5
v -4.5 0 -6.5
v -3.5 0 -6.5
v -1.5 0 -6.5
v -0.5 0 -6.5
v 1.5 0 -6.5
v 2.5 0 -6.5
v 6.5 0 -6.5
v 7.5 0 -6.5
v -7.5 0 -7.5
v -6.5 0 -7.5
v -4.5 0 -7.5
v -3.5 0 -7.5
v 1.5 0 -7.5
v 2.5 0 -7.5
v 6.5 0 -7.5
v 7.5 0 -7.5
v -7.5 1 7.5
v -6.5 1 7.5
v -2.5 1 7.5
v -1.5 1 7.5
v 4.5 1 7.5
v 5.5 1 7.5
v 6.5 1 7.5
v 7.5 1 7.5
v -7.5 1 6.5
v -6.5 1 6.5
v -2.5 1 6.5
v -1.5 1 6.5
v 4.5 1 6.5
v 5.5 1 6.5
v 6.5 1 6.5
v 7.5 1 6.5
v -5.5 1 5.5
v -4.5 1 5.5
v -0.5 1 5.5
v 0.5 1 5.5
v -5.5 1 4.5
v -4.5 1 4.5
v -0.5 1 4.5
v 0.5 1 4.5
v 3.5 1 4.5
v 4.5 1 4.5
v -7.5 1 3.5
v -6.5 1 3.5
v 3.5 1 3.5
v 4.5 1 3.5
v 6.5 1 3.5
v 7.5 1 3.5
v -7.5 1 2.5
v -6.5 1 2.5
v 1.5 1 2.5
v 2.5 1 2.5
v 6.5 1 2.5
v 7.5 1 2.5
v -3.5 1 1.5
v -2.5 1 1.5
v 1.5 1 1.5
v 2.5 1 1.5
v -6.5 1 0.5
v -5.5 1 0.5
v -3.5 1 0.5
v -2.5 1 0.5
v -1.5 1 0.5
v -0.5 1 0.5
v 4.5 1 0.5
v 5.5 1 0.5
v -6.5 1 -0.5
v -5.5 1 -0.5
v -1.5 1 -0.5
v -0.5 1 -0.5
v 4.5 1 -0.5
v 5.5 1 -0.5
v -7.5 1 -2.5
v -6.5 1 -2.5
v 1.5 1 -2.5
v 2.5 1 -2.5
v -7.5 1 -3.5
v -6.5 1 -3.5
v -2.5 1 -3.5
v -1.5 1 -3.5
v 1.5 1 -3.5
v 2.5 1 -3.5
v 4.5 1 -3.5
v 5.5 1 -3.5
v 6.5 1 -3.5
v 7.5 1 -3.5
v -2.5 1 -4.5
v -1.5 1 -4.5
v 4.5 1 -4.5
v 5.5 1 -4.5
v 6.5 1 -4.5
v 7.5 1 -4.5
v -1.5 1 -5.5
v -0.5 1 -5.5
v -7.5 1 -6.5
v -6.5 1 -6.5
v -4.5 1 -6.5
v -3.5 1 -6.5
v -1.5 1 -6.5
v -0.5 1 -6.5
v 1.5 1 -6.5
v 2.5 1 -6.5
v 6.5 1 -6.5
v 7.5 1 -6.5
v -7.5 1 -7.5
v -6.5 1 -7.5
v -4.5 1 -7.5
v -3.5 1 -7.5
v 1.5 1 -7.5
v 2.5 1 -7.5
v 6.5 1 -7.5
v 7.5 1 -7.5

# faces
f 9/6/1 2/6/1 1/6/1
f 10/5/1 3/5/1 2/5/1
f 10/6/1 2/6/1 9/6/1
f 11/1/1 4/1/1 3/1/1
f 11/5/1 3/5/1 10/5/1
f 12/5/1 5/5/1 4/5/1
f 12/1/1 4/1/1 11/1/1
f 13/4/1 6/4/1 5/4/1
f 13/5/1 5/5/1 12/5/1
f 14/5/1 7/5/1 6/5/1
f 14/4/1 6/4/1 13/4/1
f 15/6/1 8/6/1 7/6/1
f 15/5/1 7/5/1 14/5/1
f 16/6/1 8/6/1 15/6/1
f 17/6/2 18/6/2 25/6/2
f 18/5/2 19/5/2 26/5/2
f 25/6/2 18/6/2 26/6/2
f 19/3/2 20/3/2 27/3/2
f 26/5/2 19/5/2 27/5/2
f 20/5/2 21/5/2 28/5/2
f 27/3/2 20/3/2 28/3/2
f 21/2/2 22/2/2 29/2/2
f 28/5/2 21/5/2 29/5/2
f 22/5/2 23/5/2 30/5/2
f 29/2/2 22/2/2 30/2/2
f 23/6/2 24/6/2 31/6/2
f 30/5/2 23/5/2 31/5/2
f 31/6/2 24/6/2 32/6/2
f 35/6/3 34/6/3 33/6/3
f 36/6/3 34/6/3 35/6/3
f 37/5/3 36/5/3 35/5/3
f 38/5/3 36/5/3 37/5/3
f 39/3/3 38/3/3 37/3/3
f 40/3/3 38/3/3 39/3/3
f 41/5/3 40/5/3 39/5/3
f 42/5/3 40/5/3 41/5/3
f 43/3/3 42/3/3 41/3/3
f 44/3/3 42/3/3 43/3/3
f 45/5/3 44/5/3 43/5/3
f 46/5/3 44/5/3 45/5/3
f 47/6/3 46/6/3 45/6/3
f 48/6/3 46/6/3 47/6/3
f 49/6/4 50/6/4 51/6/4
f 51/6/4 50/6/4 52/6/4
f 51/5/4 52/5/4 53/5/4
f 53/5/4 52/5/4 54/5/4
f 53/4/4 54/4/4 55/4/4
f 55/4/4 54/4/4 56/4/4
f 55/5/4 56/5/4 57/5/4
f 57/5/4 56/5/4 58/5/4
f 57/2/4 58/2/4 59/2/4
f 59/2/4 58/2/4 60/2/4
f 59/5/4 60/5/4 61/5/4
f 61/5/4 60/5/4 62/5/4
f 61/6/4 62/6/4 63/6/4
f 63/6/4 62/6/4 64/6/4
f 73/6/5 66/6/5 65/6/5
f 74/5/5 67/5/5 66/5/5
f 74/6/5 66/6/5 73/6/5
f 75/3/5 68/3/5 67/3/5
f 75/5/5 67/5/5 74/5/5
f 76/5/5 69/5/5 68/5/5
f 76/3/5 68/3/5 75/3/5
f 77/3/5 70/3/5 69/3/5
f 77/5/5 69/5/5 76/5/5
f 78/5/5 71/5/5 70/5/5
f 78/3/5 70/3/5 77/3/5
f 79/6/5 72/6/5 71/6/5
f 79/5/5 71/5/5 78/5/5
f 80/6/5 72/6/5 79/6/5
f 81/5/5 78/5/5 77/5/5
f 81/5/5 74/5/5 73/5/5
f 81/5/5 80/5/5 79/5/5
f 81/5/5 79/5/5 78/5/5
f 81/5/5 77/5/5 76/5/5
f 81/5/5 76/5/5 75/5/5
f 81/5/5 75/5/5 74/5/5
f 82/5/5 80/5/5 81/5/5
f 83/5/5 80/5/5 82/5/5
f 84/5/5 80/5/5 83/5/5
f 85/5/5 81/5/5 73/5/5
f 85/3/5 82/3/5 81/3/5
f 86/5/5 83/5/5 82/5/5
f 86/3/5 82/3/5 85/3/5
f 87/1/5 84/1/5 83/1/5
f 87/5/5 83/5/5 86/5/5
f 88/5/5 80/5/5 84/5/5
f 88/1/5 84/1/5 87/1/5
f 89/5/5 80/5/5 88/5/5
f 90/5/5 80/5/5 89/5/5
f 91/5/5 87/5/5 86/5/5
f 91/5/5 86/5/5 85/5/5
f 91/5/5 85/5/5 73/5/5
f 91/5/5 89/5/5 88/5/5
f 91/5/5 88/5/5 87/5/5
f 92/5/5 89/5/5 91/5/5
f 93/2/5 90/2/5 89/2/5
f 93/5/5 89/5/5 92/5/5
f 94/5/5 80/5/5 90/5/5
f 94/2/5 90/2/5 93/2/5
f 95/5/5 80/5/5 94/5/5
f 96/5/5 80/5/5 95/5/5
f 97/1/5 92/1/5 91/1/5
f 98/5/5 93/5/5 92/5/5
f 98/1/5 92/1/5 97/1/5
f 98/5/5 94/5/5 93/5/5
f 98/5/5 95/5/5 94/5/5
f 99/5/5 95/5/5 98/5/5
f 100/5/5 95/5/5 99/5/5
f 101/3/5 96/3/5 95/3/5
f 101/5/5 95/5/5 100/5/5
f 102/3/5 96/3/5 101/3/5
f 103/5/5 98/5/5 97/5/5
f 103/5/5 99/5/5 98/5/5
f 104/5/5 99/5/5 103/5/5
f 105/2/5 100/2/5 99/2/5
f 105/5/5 99/5/5 104/5/5
f 106/5/5 102/5/5 101/5/5
f 106/2/5 100/2/5 105/2/5
f 106/5/5 101/5/5 100/5/5
f 107/5/5 103/5/5 97/5/5
f 108/5/5 103/5/5 107/5/5
f 109/4/5 104/4/5 103/4/5
f 109/5/5 103/5/5 108/5/5
f 110/5/5 105/5/5 104/5/5
f 110/4/5 104/4/5 109/4/5
f 110/5/5 106/5/5 105/5/5
f 111/5/5 106/5/5 110/5/5
f 112/5/5 106/5/5 111/5/5
f 113/5/5 102/5/5 106/5/5
f 113/5/5 106/5/5 112/5/5
f 114/5/5 102/5/5 113/5/5
f 115/3/5 108/3/5 107/3/5
f 115/5/5 107/5/5 97/5/5
f 116/5/5 109/5/5 108/5/5
f 116/3/5 108/3/5 115/3/5
f 116/5/5 110/5/5 109/5/5
f 116/5/5 111/5/5 110/5/5
f 117/4/5 112/4/5 111/4/5
f 117/5/5 111/5/5 116/5/5
f 118/5/5 113/5/5 112/5/5
f 118/4/5 112/4/5 117/4/5
f 119/4/5 114/4/5 113/4/5
f 119/5/5 113/5/5 118/5/5
f 120/5/5 102/5/5 114/5/5
f 120/4/5 114/4/5 119/4/5
f 121/5/5 119/5/5 118/5/5
f 121/5/5 115/5/5 97/5/5
f 121/5/5 120/5/5 119/5/5
f 121/5/5 117/5/5 116/5/5
f 121/5/5 118/5/5 117/5/5
f 121/5/5 116/5/5 115/5/5
f 122/5/5 120/5/5 121/5/5
f 123/5/5 120/5/5 122/5/5
f 124/5/5 120/5/5 123/5/5
f 125/4/5 122/4/5 121/4/5
f 126/5/5 123/5/5 122/5/5
f 126/4/5 122/4/5 125/4/5
f 127/5/5 123/5/5 126/5/5
f 128/5/5 123/5/5 127/5/5
f 129/1/5 124/1/5 123/1/5
f 129/5/5 123/5/5 128/5/5
f 130/5/5 120/5/5 124/5/5
f 130/1/5 124/1/5 129/1/5
f 131/5/5 120/5/5 130/5/5
f 132/5/5 102/5/5 120/5/5
f 132/5/5 120/5/5 131/5/5
f 133/5/5 102/5/5 132/5/5
f 134/5/5 102/5/5 133/5/5
f 135/4/5 128/4/5 127/4/5
f 135/5/5 126/5/5 125/5/5
f 135/5/5 127/5/5 126/5/5
f 136/5/5 131/5/5 130/5/5
f 136/4/5 128/4/5 135/4/5
f 136/5/5 129/5/5 128/5/5
f 136/5/5 130/5/5 129/5/5
f 137/4/5 132/4/5 131/4/5
f 137/5/5 131/5/5 136/5/5
f 138/5/5 133/5/5 132/5/5
f 138/4/5 132/4/5 137/4/5
f 139/2/5 134/2/5 133/2/5
f 139/5/5 133/5/5 138/5/5
f 140/2/5 134/2/5 139/2/5
f 141/5/5 136/5/5 135/5/5
f 141/5/5 138/5/5 137/5/5
f 141/5/5 140/5/5 139/5/5
f 141/5/5 139/5/5 138/5/5
f 141/5/5 137/5/5 136/5/5
f 142/5/5 140/5/5 141/5/5
f 143/5/5 135/5/5 125/5/5
f 143/5/5 141/5/5 135/5/5
f 144/5/5 141/5/5 143/5/5
f 145/5/5 141/5/5 144/5/5
f 146/5/5 141/5/5 145/5/5
f 147/1/5 142/1/5 141/1/5
f 147/5/5 141/5/5 146/5/5
f 148/5/5 140/5/5 142/5/5
f 148/1/5 142/1/5 147/1/5
f 149/5/5 140/5/5 148/5/5
f 150/5/5 140/5/5 149/5/5
f 151/5/5 140/5/5 150/5/5
f 152/5/5 140/5/5 151/5/5
f 153/6/5 144/6/5 143/6/5
f 154/5/5 145/5/5 144/5/5
f 154/6/5 144/6/5 153/6/5
f 155/4/5 146/4/5 145/4/5
f 155/5/5 145/5/5 154/5/5
f 156/5/5 147/5/5 146/5/5
f 156/4/5 146/4/5 155/4/5
f 156/5/5 148/5/5 147/5/5
f 156/5/5 149/5/5 148/5/5
f 157/2/5 150/2/5 149/2/5
f 157/5/5 149/5/5 156/5/5
f 158/5/5 151/5/5 150/5/5
f 158/2/5 150/2/5 157/2/5
f 159/6/5 152/6/5 151/6/5
f 159/5/5 151/5/5 158/5/5
f 160/6/5 152/6/5 159/6/5
f 161/6/6 162/6/6 169/6/6
f 162/5/6 163/5/6 170/5/6
f 169/6/6 162/6/6 170/6/6
f 163/3/6 164/3/6 171/3/6
f 170/5/6 163/5/6 171/5/6
f 164/5/6 165/5/6 172/5/6
f 171/3/6 164/3/6 172/3/6
f 165/3/6 166/3/6 173/3/6
f 172/5/6 165/5/6 173/5/6
f 166/5/6 167/5/6 174/5/6
f 173/3/6 166/3/6 174/3/6
f 167/6/6 168/6/6 175/6/6
f 174/5/6 167/5/6 175/5/6
f 175/6/6 168/6/6 176/6/6
f 173/5/6 174/5/6 177/5/6
f 169/5/6 170/5/6 177/5/6
f 175/5/6 176/5/6 177/5/6
f 174/5/6 175/5/6 177/5/6
f 172/5/6 173/5/6 177/5/6
f 171/5/6 172/5/6 177/5/6
f 170/5/6 171/5/6 177/5/6
f 177/5/6 176/5/6 178/5/6
f 178/5/6 176/5/6 179/5/6
f 179/5/6 176/5/6 180/5/6
f 169/5/6 177/5/6 181/5/6
f 177/3/6 178/3/6 181/3/6
f 178/5/6 179/5/6 182/5/6
f 181/3/6 178/3/6 182/3/6
f 179/1/6 180/1/6 183/1/6
f 182/5/6 179/5/6 183/5/6
f 180/5/6 176/5/6 184/5/6
f 183/1/6 180/1/6 184/1/6
f 184/5/6 176/5/6 185/5/6
f 185/5/6 176/5/6 186/5/6
f 182/5/6 183/5/6 187/5/6
f 181/5/6 182/5/6 187/5/6
f 169/5/6 181/5/6 187/5/6
f 184/5/6 185/5/6 187/5/6
f 183/5/6 184/5/6 187/5/6
f 187/5/6 185/5/6 188/5/6
f 185/2/6 186/2/6 189/2/6
f 188/5/6 185/5/6 189/5/6
f 186/5/6 176/5/6 190/5/6
f 189/2/6 186/2/6 190/2/6
f 190/5/6 176/5/6 191/5/6
f 191/5/6 176/5/6 192/5/6
f 187/1/6 188/1/6 193/1/6
f 188/5/6 189/5/6 194/5/6
f 193/1/6 188/1/6 194/1/6
f 189/5/6 190/5/6 194/5/6
f 190/5/6 191/5/6 194/5/6
f 194/5/6 191/5/6 195/5/6
f 195/5/6 191/5/6 196/5/6
f 191/3/6 192/3/6 197/3/6
f 196/5/6 191/5/6 197/5/6
f 197/3/6 192/3/6 198/3/6
f 193/5/6 194/5/6 199/5/6
f 194/5/6 195/5/6 199/5/6
f 199/5/6 195/5/6 200/5/6
f 195/2/6 196/2/6 201/2/6
f 200/5/6 195/5/6 201/5/6
f 197/5/6 198/5/6 202/5/6
f 201/2/6 196/2/6 202/2/6
f 196/5/6 197/5/6 202/5/6
f 193/5/6 199/5/6 203/5/6
f 203/5/6 199/5/6 204/5/6
f 199/4/6 200/4/6 205/4/6
f 204/5/6 199/5/6 205/5/6
f 200/5/6 201/5/6 206/5/6
f 205/4/6 200/4/6 206/4/6
f 201/5/6 202/5/6 206/5/6
f 206/5/6 202/5/6 207/5/6
f 207/5/6 202/5/6 208/5/6
f 202/5/6 198/5/6 209/5/6
f 208/5/6 202/5/6 209/5/6
f 209/5/6 198/5/6 210/5/6
f 203/3/6 204/3/6 211/3/6
f 193/5/6 203/5/6 211/5/6
f 204/5/6 205/5/6 212/5/6
f 211/3/6 204/3/6 212/3/6
f 205/5/6 206/5/6 212/5/6
f 206/5/6 207/5/6 212/5/6
f 207/4/6 208/4/6 213/4/6
f 212/5/6 207/5/6 213/5/6
f 208/5/6 209/5/6 214/5/6
f 213/4/6 208/4/6 214/4/6
f 209/4/6 210/4/6 215/4/6
f 214/5/6 209/5/6 215/5/6
f 210/5/6 198/5/6 216/5/6
f 215/4/6 210/4/6 216/4/6
f 214/5/6 215/5/6 217/5/6
f 193/5/6 211/5/6 217/5/6
f 215/5/6 216/5/6 217/5/6
f 212/5/6 213/5/6 217/5/6
f 213/5/6 214/5/6 217/5/6
f 211/5/6 212/5/6 217/5/6
f 217/5/6 216/5/6 218/5/6
f 218/5/6 216/5/6 219/5/6
f 219/5/6 216/5/6 220/5/6
f 217/4/6 218/4/6 221/4/6
f 218/5/6 219/5/6 222/5/6
f 221/4/6 218/4/6 222/4/6
f 222/5/6 219/5/6 223/5/6
f 223/5/6 219/5/6 224/5/6
f 219/1/6 220/1/6 225/1/6
f 224/5/6 219/5/6 225/5/6
f 220/5/6 216/5/6 226/5/6
f 225/1/6 220/1/6 226/1/6
f 226/5/6 216/5/6 227/5/6
f 216/5/6 198/5/6 228/5/6
f 227/5/6 216/5/6 228/5/6
f 228/5/6 198/5/6 229/5/6
f 229/5/6 198/5/6 230/5/6
f 223/4/6 224/4/6 231/4/6
f 221/5/6 222/5/6 231/5/6
f 222/5/6 223/5/6 231/5/6
f 226/5/6 227/5/6 232/5/6
f 231/4/6 224/4/6 232/4/6
f 224/5/6 225/5/6 232/5/6
f 225/5/6 226/5/6 232/5/6
f 227/4/6 228/4/6 233/4/6
f 232/5/6 227/5/6 233/5/6
f 228/5/6 229/5/6 234/5/6
f 233/4/6 228/4/6 234/4/6
f 229/2/6 230/2/6 235/2/6
f 234/5/6 229/5/6 235/5/6
f 235/2/6 230/2/6 236/2/6
f 231/5/6 232/5/6 237/5/6
f 233/5/6 234/5/6 237/5/6
f 235/5/6 236/5/6 237/5/6
f 234/5/6 235/5/6 237/5/6
f 232/5/6 233/5/6 237/5/6
f 237/5/6 236/5/6 238/5/6
f 221/5/6 231/5/6 239/5/6
f 231/5/6 237/5/6 239/5/6
f 239/5/6 237/5/6 240/5/6
f 240/5/6 237/5/6 241/5/6
f 241/5/6 237/5/6 242/5/6
f 237/1/6 238/1/6 243/1/6
f 242/5/6 237/5/6 243/5/6
f 238/5/6 236/5/6 244/5/6
f 243/1/6 238/1/6 244/1/6
f 244/5/6 236/5/6 245/5/6
f 245/5/6 236/5/6 246/5/6
f 246/5/6 236/5/6 247/5/6
f 247/5/6 236/5/6 248/5/6
f 239/6/6 240/6/6 249/6/6
f 240/5/6 241/5/6 250/5/6
f 249/6/6 240/6/6 250/6/6
f 241/4/6 242/4/6 251/4/6
f 250/5/6 241/5/6 251/5/6
f 242/5/6 243/5/6 252/5/6
f 251/4/6 242/4/6 252/4/6
f 243/5/6 244/5/6 252/5/6
f 244/5/6 245/5/6 252/5/6
f 245/2/6 246/2/6 253/2/6
f 252/5/6 245/5/6 253/5/6
f 246/5/6 247/5/6 254/5/6
f 253/2/6 246/2/6 254/2/6
f 247/6/6 248/6/6 255/6/6
f 254/5/6 247/5/6 255/5/6
f 255/6/6 248/6/6 256/6/6
