# MagicaVoxel @ Ephtracy

# material
mtllib Road04F.mtl
usemtl palette

# normals
vn -1 0 0
vn 1 0 0
vn 0 0 1
vn 0 0 -1
vn 0 -1 0
vn 0 1 0

# texcoords
vt 0.908203 0.5
vt 0.970703 0.5
vt 0.982422 0.5
vt 0.986328 0.5

# verts
v -10.5 0 7.5
v -10.5 0 6.5
v -10.5 0 1.5
v -10.5 0 0.5
v -10.5 0 -0.5
v -10.5 0 -1.5
v -10.5 0 -6.5
v -10.5 0 -7.5
v -10.5 1 7.5
v -10.5 1 6.5
v -10.5 1 1.5
v -10.5 1 0.5
v -10.5 1 -0.5
v -10.5 1 -1.5
v -10.5 1 -6.5
v -10.5 1 -7.5
v 10.5 0 7.5
v 10.5 0 6.5
v 10.5 0 1.5
v 10.5 0 0.5
v 10.5 0 -0.5
v 10.5 0 -1.5
v 10.5 0 -6.5
v 10.5 0 -7.5
v 10.5 1 7.5
v 10.5 1 6.5
v 10.5 1 1.5
v 10.5 1 0.5
v 10.5 1 -0.5
v 10.5 1 -1.5
v 10.5 1 -6.5
v 10.5 1 -7.5
v -10.5 0 7.5
v -10.5 1 7.5
v -7.5 0 7.5
v -7.5 1 7.5
v -6.5 0 7.5
v -6.5 1 7.5
v 10.5 0 7.5
v 10.5 1 7.5
v -10.5 0 -7.5
v -10.5 1 -7.5
v 2.5 0 -7.5
v 2.5 1 -7.5
v 3.5 0 -7.5
v 3.5 1 -7.5
v 10.5 0 -7.5
v 10.5 1 -7.5
v -10.5 0 7.5
v -7.5 0 7.5
v -6.5 0 7.5
v 10.5 0 7.5
v -10.5 0 6.5
v -7.5 0 6.5
v -6.5 0 6.5
v 10.5 0 6.5
v -10.5 0 1.5
v 10.5 0 1.5
v -10.5 0 0.5
v 10.5 0 0.5
v -10.5 0 -0.5
v 10.5 0 -0.5
v -10.5 0 -1.5
v 10.5 0 -1.5
v -10.5 0 -6.5
v 2.5 0 -6.5
v 3.5 0 -6.5
v 10.5 0 -6.5
v -10.5 0 -7.5
v 2.5 0 -7.5
v 3.5 0 -7.5
v 10.5 0 -7.5
v -10.5 1 7.5
v -7.5 1 7.5
v -6.5 1 7.5
v 10.5 1 7.5
v -10.5 1 6.5
v -7.5 1 6.5
v -6.5 1 6.5
v 10.5 1 6.5
v -10.5 1 1.5
v 10.5 1 1.5
v -10.5 1 0.5
v 10.5 1 0.5
v -10.5 1 -0.5
v 10.5 1 -0.5
v -10.5 1 -1.5
v 10.5 1 -1.5
v -10.5 1 -6.5
v 2.5 1 -6.5
v 3.5 1 -6.5
v 10.5 1 -6.5
v -10.5 1 -7.5
v 2.5 1 -7.5
v 3.5 1 -7.5
v 10.5 1 -7.5

# faces
f 9/2/1 2/2/1 1/2/1
f 10/4/1 3/4/1 2/4/1
f 10/2/1 2/2/1 9/2/1
f 11/1/1 4/1/1 3/1/1
f 11/4/1 3/4/1 10/4/1
f 12/4/1 5/4/1 4/4/1
f 12/1/1 4/1/1 11/1/1
f 13/1/1 6/1/1 5/1/1
f 13/4/1 5/4/1 12/4/1
f 14/4/1 7/4/1 6/4/1
f 14/1/1 6/1/1 13/1/1
f 15/2/1 8/2/1 7/2/1
f 15/4/1 7/4/1 14/4/1
f 16/2/1 8/2/1 15/2/1
f 17/2/2 18/2/2 25/2/2
f 18/4/2 19/4/2 26/4/2
f 25/2/2 18/2/2 26/2/2
f 19/1/2 20/1/2 27/1/2
f 26/4/2 19/4/2 27/4/2
f 20/4/2 21/4/2 28/4/2
f 27/1/2 20/1/2 28/1/2
f 21/1/2 22/1/2 29/1/2
f 28/4/2 21/4/2 29/4/2
f 22/4/2 23/4/2 30/4/2
f 29/1/2 22/1/2 30/1/2
f 23/2/2 24/2/2 31/2/2
f 30/4/2 23/4/2 31/4/2
f 31/2/2 24/2/2 32/2/2
f 35/2/3 34/2/3 33/2/3
f 36/2/3 34/2/3 35/2/3
f 37/3/3 36/3/3 35/3/3
f 38/3/3 36/3/3 37/3/3
f 39/2/3 38/2/3 37/2/3
f 40/2/3 38/2/3 39/2/3
f 41/2/4 42/2/4 43/2/4
f 43/2/4 42/2/4 44/2/4
f 43/3/4 44/3/4 45/3/4
f 45/3/4 44/3/4 46/3/4
f 45/2/4 46/2/4 47/2/4
f 47/2/4 46/2/4 48/2/4
f 53/2/5 50/2/5 49/2/5
f 54/3/5 51/3/5 50/3/5
f 54/2/5 50/2/5 53/2/5
f 55/2/5 52/2/5 51/2/5
f 55/3/5 51/3/5 54/3/5
f 56/2/5 52/2/5 55/2/5
f 57/4/5 54/4/5 53/4/5
f 57/4/5 55/4/5 54/4/5
f 57/4/5 56/4/5 55/4/5
f 58/4/5 56/4/5 57/4/5
f 59/1/5 58/1/5 57/1/5
f 60/1/5 58/1/5 59/1/5
f 61/4/5 60/4/5 59/4/5
f 62/4/5 60/4/5 61/4/5
f 63/1/5 62/1/5 61/1/5
f 64/1/5 62/1/5 63/1/5
f 65/4/5 64/4/5 63/4/5
f 66/4/5 64/4/5 65/4/5
f 67/4/5 64/4/5 66/4/5
f 68/4/5 64/4/5 67/4/5
f 69/2/5 66/2/5 65/2/5
f 70/3/5 67/3/5 66/3/5
f 70/2/5 66/2/5 69/2/5
f 71/2/5 68/2/5 67/2/5
f 71/3/5 67/3/5 70/3/5
f 72/2/5 68/2/5 71/2/5
f 73/2/6 74/2/6 77/2/6
f 74/3/6 75/3/6 78/3/6
f 77/2/6 74/2/6 78/2/6
f 75/2/6 76/2/6 79/2/6
f 78/3/6 75/3/6 79/3/6
f 79/2/6 76/2/6 80/2/6
f 77/4/6 78/4/6 81/4/6
f 78/4/6 79/4/6 81/4/6
f 79/4/6 80/4/6 81/4/6
f 81/4/6 80/4/6 82/4/6
f 81/1/6 82/1/6 83/1/6
f 83/1/6 82/1/6 84/1/6
f 83/4/6 84/4/6 85/4/6
f 85/4/6 84/4/6 86/4/6
f 85/1/6 86/1/6 87/1/6
f 87/1/6 86/1/6 88/1/6
f 87/4/6 88/4/6 89/4/6
f 89/4/6 88/4/6 90/4/6
f 90/4/6 88/4/6 91/4/6
f 91/4/6 88/4/6 92/4/6
f 89/2/6 90/2/6 93/2/6
f 90/3/6 91/3/6 94/3/6
f 93/2/6 90/2/6 94/2/6
f 91/2/6 92/2/6 95/2/6
f 94/3/6 91/3/6 95/3/6
f 95/2/6 92/2/6 96/2/6
