# MagicaVoxel @ Ephtracy

# material
mtllib Road01G.mtl
usemtl palette

# normals
vn -1 0 0
vn 1 0 0
vn 0 0 1
vn 0 0 -1
vn 0 -1 0
vn 0 1 0

# texcoords
vt 0.908203 0.5
vt 0.912109 0.5
vt 0.970703 0.5
vt 0.982422 0.5
vt 0.986328 0.5
vt 0.990234 0.5

# verts
v -10.5 0 7.5
v -10.5 0 6.5
v -10.5 0 0.5
v -10.5 0 -0.5
v -10.5 0 -6.5
v -10.5 0 -7.5
v -10.5 1 7.5
v -10.5 1 6.5
v -10.5 1 0.5
v -10.5 1 -0.5
v -10.5 1 -6.5
v -10.5 1 -7.5
v 10.5 0 7.5
v 10.5 0 6.5
v 10.5 0 -6.5
v 10.5 0 -7.5
v 10.5 1 7.5
v 10.5 1 6.5
v 10.5 1 -6.5
v 10.5 1 -7.5
v -10.5 0 7.5
v -10.5 1 7.5
v -7.5 0 7.5
v -7.5 1 7.5
v -6.5 0 7.5
v -6.5 1 7.5
v 10.5 0 7.5
v 10.5 1 7.5
v -10.5 0 -7.5
v -10.5 1 -7.5
v 2.5 0 -7.5
v 2.5 1 -7.5
v 3.5 0 -7.5
v 3.5 1 -7.5
v 10.5 0 -7.5
v 10.5 1 -7.5
v -10.5 0 7.5
v -7.5 0 7.5
v -6.5 0 7.5
v 10.5 0 7.5
v -10.5 0 6.5
v -7.5 0 6.5
v -6.5 0 6.5
v 10.5 0 6.5
v 3.5 0 5.5
v 9.5 0 5.5
v -8.5 0 4.5
v -7.5 0 4.5
v -3.5 0 4.5
v -2.5 0 4.5
v 3.5 0 4.5
v 9.5 0 4.5
v -8.5 0 3.5
v -7.5 0 3.5
v -3.5 0 3.5
v -2.5 0 3.5
v 3.5 0 3.5
v 9.5 0 3.5
v 3.5 0 2.5
v 9.5 0 2.5
v 3.5 0 1.5
v 9.5 0 1.5
v -10.5 0 0.5
v -8.5 0 0.5
v -7.5 0 0.5
v -4.5 0 0.5
v -3.5 0 0.5
v 0.5 0 0.5
v 1.5 0 0.5
v 2.5 0 0.5
v 3.5 0 0.5
v 9.5 0 0.5
v -10.5 0 -0.5
v -8.5 0 -0.5
v -7.5 0 -0.5
v -4.5 0 -0.5
v -3.5 0 -0.5
v 0.5 0 -0.5
v 1.5 0 -0.5
v 2.5 0 -0.5
v 3.5 0 -0.5
v 9.5 0 -0.5
v 3.5 0 -1.5
v 9.5 0 -1.5
v 3.5 0 -2.5
v 9.5 0 -2.5
v -9.5 0 -3.5
v -8.5 0 -3.5
v 0.5 0 -3.5
v 1.5 0 -3.5
v 3.5 0 -3.5
v 9.5 0 -3.5
v -9.5 0 -4.5
v -8.5 0 -4.5
v 0.5 0 -4.5
v 1.5 0 -4.5
v 3.5 0 -4.5
v 9.5 0 -4.5
v 3.5 0 -5.5
v 9.5 0 -5.5
v -10.5 0 -6.5
v 2.5 0 -6.5
v 3.5 0 -6.5
v 10.5 0 -6.5
v -10.5 0 -7.5
v 2.5 0 -7.5
v 3.5 0 -7.5
v 10.5 0 -7.5
v -10.5 1 7.5
v -7.5 1 7.5
v -6.5 1 7.5
v 10.5 1 7.5
v -10.5 1 6.5
v -7.5 1 6.5
v -6.5 1 6.5
v 10.5 1 6.5
v 3.5 1 5.5
v 9.5 1 5.5
v -8.5 1 4.5
v -7.5 1 4.5
v -3.5 1 4.5
v -2.5 1 4.5
v 3.5 1 4.5
v 9.5 1 4.5
v -8.5 1 3.5
v -7.5 1 3.5
v -3.5 1 3.5
v -2.5 1 3.5
v 3.5 1 3.5
v 9.5 1 3.5
v 3.5 1 2.5
v 9.5 1 2.5
v 3.5 1 1.5
v 9.5 1 1.5
v -10.5 1 0.5
v -8.5 1 0.5
v -7.5 1 0.5
v -4.5 1 0.5
v -3.5 1 0.5
v 0.5 1 0.5
v 1.5 1 0.5
v 2.5 1 0.5
v 3.5 1 0.5
v 9.5 1 0.5
v -10.5 1 -0.5
v -8.5 1 -0.5
v -7.5 1 -0.5
v -4.5 1 -0.5
v -3.5 1 -0.5
v 0.5 1 -0.5
v 1.5 1 -0.5
v 2.5 1 -0.5
v 3.5 1 -0.5
v 9.5 1 -0.5
v 3.5 1 -1.5
v 9.5 1 -1.5
v 3.5 1 -2.5
v 9.5 1 -2.5
v -9.5 1 -3.5
v -8.5 1 -3.5
v 0.5 1 -3.5
v 1.5 1 -3.5
v 3.5 1 -3.5
v 9.5 1 -3.5
v -9.5 1 -4.5
v -8.5 1 -4.5
v 0.5 1 -4.5
v 1.5 1 -4.5
v 3.5 1 -4.5
v 9.5 1 -4.5
v 3.5 1 -5.5
v 9.5 1 -5.5
v -10.5 1 -6.5
v 2.5 1 -6.5
v 3.5 1 -6.5
v 10.5 1 -6.5
v -10.5 1 -7.5
v 2.5 1 -7.5
v 3.5 1 -7.5
v 10.5 1 -7.5

# faces
f 7/3/1 2/3/1 1/3/1
f 8/6/1 3/6/1 2/6/1
f 8/3/1 2/3/1 7/3/1
f 9/1/1 4/1/1 3/1/1
f 9/6/1 3/6/1 8/6/1
f 10/6/1 5/6/1 4/6/1
f 10/1/1 4/1/1 9/1/1
f 11/3/1 6/3/1 5/3/1
f 11/6/1 5/6/1 10/6/1
f 12/3/1 6/3/1 11/3/1
f 13/3/2 14/3/2 17/3/2
f 14/6/2 15/6/2 18/6/2
f 17/3/2 14/3/2 18/3/2
f 15/3/2 16/3/2 19/3/2
f 18/6/2 15/6/2 19/6/2
f 19/3/2 16/3/2 20/3/2
f 23/3/3 22/3/3 21/3/3
f 24/3/3 22/3/3 23/3/3
f 25/4/3 24/4/3 23/4/3
f 26/4/3 24/4/3 25/4/3
f 27/3/3 26/3/3 25/3/3
f 28/3/3 26/3/3 27/3/3
f 29/3/4 30/3/4 31/3/4
f 31/3/4 30/3/4 32/3/4
f 31/4/4 32/4/4 33/4/4
f 33/4/4 32/4/4 34/4/4
f 33/3/4 34/3/4 35/3/4
f 35/3/4 34/3/4 36/3/4
f 41/3/5 38/3/5 37/3/5
f 42/4/5 39/4/5 38/4/5
f 42/3/5 38/3/5 41/3/5
f 43/3/5 40/3/5 39/3/5
f 43/4/5 39/4/5 42/4/5
f 44/3/5 40/3/5 43/3/5
f 45/6/5 42/6/5 41/6/5
f 45/6/5 43/6/5 42/6/5
f 45/6/5 44/6/5 43/6/5
f 46/6/5 44/6/5 45/6/5
f 47/6/5 45/6/5 41/6/5
f 48/6/5 45/6/5 47/6/5
f 49/6/5 45/6/5 48/6/5
f 50/6/5 45/6/5 49/6/5
f 51/3/5 46/3/5 45/3/5
f 51/6/5 45/6/5 50/6/5
f 52/6/5 44/6/5 46/6/5
f 52/3/5 46/3/5 51/3/5
f 53/6/5 47/6/5 41/6/5
f 53/5/5 48/5/5 47/5/5
f 54/6/5 49/6/5 48/6/5
f 54/5/5 48/5/5 53/5/5
f 55/5/5 50/5/5 49/5/5
f 55/6/5 49/6/5 54/6/5
f 56/6/5 51/6/5 50/6/5
f 56/5/5 50/5/5 55/5/5
f 56/6/5 52/6/5 51/6/5
f 57/6/5 52/6/5 56/6/5
f 58/6/5 44/6/5 52/6/5
f 58/6/5 52/6/5 57/6/5
f 59/6/5 55/6/5 54/6/5
f 59/6/5 54/6/5 53/6/5
f 59/3/5 58/3/5 57/3/5
f 59/6/5 56/6/5 55/6/5
f 59/6/5 57/6/5 56/6/5
f 60/6/5 44/6/5 58/6/5
f 60/3/5 58/3/5 59/3/5
f 61/6/5 59/6/5 53/6/5
f 61/6/5 60/6/5 59/6/5
f 62/6/5 44/6/5 60/6/5
f 62/6/5 60/6/5 61/6/5
f 63/6/5 61/6/5 53/6/5
f 63/6/5 53/6/5 41/6/5
f 64/6/5 61/6/5 63/6/5
f 65/6/5 61/6/5 64/6/5
f 66/6/5 61/6/5 65/6/5
f 67/6/5 61/6/5 66/6/5
f 68/6/5 61/6/5 67/6/5
f 69/6/5 61/6/5 68/6/5
f 70/6/5 61/6/5 69/6/5
f 71/3/5 62/3/5 61/3/5
f 71/6/5 61/6/5 70/6/5
f 72/6/5 44/6/5 62/6/5
f 72/3/5 62/3/5 71/3/5
f 73/1/5 64/1/5 63/1/5
f 74/2/5 65/2/5 64/2/5
f 74/1/5 64/1/5 73/1/5
f 75/1/5 66/1/5 65/1/5
f 75/2/5 65/2/5 74/2/5
f 76/6/5 67/6/5 66/6/5
f 76/1/5 66/1/5 75/1/5
f 77/1/5 68/1/5 67/1/5
f 77/6/5 67/6/5 76/6/5
f 78/2/5 69/2/5 68/2/5
f 78/1/5 68/1/5 77/1/5
f 79/1/5 70/1/5 69/1/5
f 79/2/5 69/2/5 78/2/5
f 80/6/5 71/6/5 70/6/5
f 80/1/5 70/1/5 79/1/5
f 80/6/5 72/6/5 71/6/5
f 81/6/5 72/6/5 80/6/5
f 82/6/5 44/6/5 72/6/5
f 82/6/5 72/6/5 81/6/5
f 83/6/5 79/6/5 78/6/5
f 83/6/5 78/6/5 77/6/5
f 83/3/5 82/3/5 81/3/5
f 83/6/5 80/6/5 79/6/5
f 83/6/5 77/6/5 76/6/5
f 83/6/5 76/6/5 75/6/5
f 83/6/5 75/6/5 74/6/5
f 83/6/5 74/6/5 73/6/5
f 83/6/5 81/6/5 80/6/5
f 84/6/5 44/6/5 82/6/5
f 84/3/5 82/3/5 83/3/5
f 85/6/5 83/6/5 73/6/5
f 85/6/5 84/6/5 83/6/5
f 86/6/5 44/6/5 84/6/5
f 86/6/5 84/6/5 85/6/5
f 87/6/5 85/6/5 73/6/5
f 88/6/5 85/6/5 87/6/5
f 89/6/5 85/6/5 88/6/5
f 90/6/5 85/6/5 89/6/5
f 91/3/5 86/3/5 85/3/5
f 91/6/5 85/6/5 90/6/5
f 92/6/5 44/6/5 86/6/5
f 92/3/5 86/3/5 91/3/5
f 93/6/5 87/6/5 73/6/5
f 93/5/5 88/5/5 87/5/5
f 94/6/5 89/6/5 88/6/5
f 94/5/5 88/5/5 93/5/5
f 95/5/5 90/5/5 89/5/5
f 95/6/5 89/6/5 94/6/5
f 96/6/5 91/6/5 90/6/5
f 96/5/5 90/5/5 95/5/5
f 96/6/5 92/6/5 91/6/5
f 97/6/5 92/6/5 96/6/5
f 98/6/5 44/6/5 92/6/5
f 98/6/5 92/6/5 97/6/5
f 99/6/5 95/6/5 94/6/5
f 99/6/5 94/6/5 93/6/5
f 99/3/5 98/3/5 97/3/5
f 99/6/5 96/6/5 95/6/5
f 99/6/5 97/6/5 96/6/5
f 100/6/5 44/6/5 98/6/5
f 100/3/5 98/3/5 99/3/5
f 101/6/5 99/6/5 93/6/5
f 101/6/5 93/6/5 73/6/5
f 101/6/5 100/6/5 99/6/5
f 102/6/5 100/6/5 101/6/5
f 103/6/5 100/6/5 102/6/5
f 104/6/5 44/6/5 100/6/5
f 104/6/5 100/6/5 103/6/5
f 105/3/5 102/3/5 101/3/5
f 106/4/5 103/4/5 102/4/5
f 106/3/5 102/3/5 105/3/5
f 107/3/5 104/3/5 103/3/5
f 107/4/5 103/4/5 106/4/5
f 108/3/5 104/3/5 107/3/5
f 109/3/6 110/3/6 113/3/6
f 110/4/6 111/4/6 114/4/6
f 113/3/6 110/3/6 114/3/6
f 111/3/6 112/3/6 115/3/6
f 114/4/6 111/4/6 115/4/6
f 115/3/6 112/3/6 116/3/6
f 113/6/6 114/6/6 117/6/6
f 114/6/6 115/6/6 117/6/6
f 115/6/6 116/6/6 117/6/6
f 117/6/6 116/6/6 118/6/6
f 113/6/6 117/6/6 119/6/6
f 119/6/6 117/6/6 120/6/6
f 120/6/6 117/6/6 121/6/6
f 121/6/6 117/6/6 122/6/6
f 117/3/6 118/3/6 123/3/6
f 122/6/6 117/6/6 123/6/6
f 118/6/6 116/6/6 124/6/6
f 123/3/6 118/3/6 124/3/6
f 113/6/6 119/6/6 125/6/6
f 119/5/6 120/5/6 125/5/6
f 120/6/6 121/6/6 126/6/6
f 125/5/6 120/5/6 126/5/6
f 121/5/6 122/5/6 127/5/6
f 126/6/6 121/6/6 127/6/6
f 122/6/6 123/6/6 128/6/6
f 127/5/6 122/5/6 128/5/6
f 123/6/6 124/6/6 128/6/6
f 128/6/6 124/6/6 129/6/6
f 124/6/6 116/6/6 130/6/6
f 129/6/6 124/6/6 130/6/6
f 126/6/6 127/6/6 131/6/6
f 125/6/6 126/6/6 131/6/6
f 129/3/6 130/3/6 131/3/6
f 127/6/6 128/6/6 131/6/6
f 128/6/6 129/6/6 131/6/6
f 130/6/6 116/6/6 132/6/6
f 131/3/6 130/3/6 132/3/6
f 125/6/6 131/6/6 133/6/6
f 131/6/6 132/6/6 133/6/6
f 132/6/6 116/6/6 134/6/6
f 133/6/6 132/6/6 134/6/6
f 125/6/6 133/6/6 135/6/6
f 113/6/6 125/6/6 135/6/6
f 135/6/6 133/6/6 136/6/6
f 136/6/6 133/6/6 137/6/6
f 137/6/6 133/6/6 138/6/6
f 138/6/6 133/6/6 139/6/6
f 139/6/6 133/6/6 140/6/6
f 140/6/6 133/6/6 141/6/6
f 141/6/6 133/6/6 142/6/6
f 133/3/6 134/3/6 143/3/6
f 142/6/6 133/6/6 143/6/6
f 134/6/6 116/6/6 144/6/6
f 143/3/6 134/3/6 144/3/6
f 135/1/6 136/1/6 145/1/6
f 136/2/6 137/2/6 146/2/6
f 145/1/6 136/1/6 146/1/6
f 137/1/6 138/1/6 147/1/6
f 146/2/6 137/2/6 147/2/6
f 138/6/6 139/6/6 148/6/6
f 147/1/6 138/1/6 148/1/6
f 139/1/6 140/1/6 149/1/6
f 148/6/6 139/6/6 149/6/6
f 140/2/6 141/2/6 150/2/6
f 149/1/6 140/1/6 150/1/6
f 141/1/6 142/1/6 151/1/6
f 150/2/6 141/2/6 151/2/6
f 142/6/6 143/6/6 152/6/6
f 151/1/6 142/1/6 152/1/6
f 143/6/6 144/6/6 152/6/6
f 152/6/6 144/6/6 153/6/6
f 144/6/6 116/6/6 154/6/6
f 153/6/6 144/6/6 154/6/6
f 150/6/6 151/6/6 155/6/6
f 149/6/6 150/6/6 155/6/6
f 153/3/6 154/3/6 155/3/6
f 151/6/6 152/6/6 155/6/6
f 148/6/6 149/6/6 155/6/6
f 147/6/6 148/6/6 155/6/6
f 146/6/6 147/6/6 155/6/6
f 145/6/6 146/6/6 155/6/6
f 152/6/6 153/6/6 155/6/6
f 154/6/6 116/6/6 156/6/6
f 155/3/6 154/3/6 156/3/6
f 145/6/6 155/6/6 157/6/6
f 155/6/6 156/6/6 157/6/6
f 156/6/6 116/6/6 158/6/6
f 157/6/6 156/6/6 158/6/6
f 145/6/6 157/6/6 159/6/6
f 159/6/6 157/6/6 160/6/6
f 160/6/6 157/6/6 161/6/6
f 161/6/6 157/6/6 162/6/6
f 157/3/6 158/3/6 163/3/6
f 162/6/6 157/6/6 163/6/6
f 158/6/6 116/6/6 164/6/6
f 163/3/6 158/3/6 164/3/6
f 145/6/6 159/6/6 165/6/6
f 159/5/6 160/5/6 165/5/6
f 160/6/6 161/6/6 166/6/6
f 165/5/6 160/5/6 166/5/6
f 161/5/6 162/5/6 167/5/6
f 166/6/6 161/6/6 167/6/6
f 162/6/6 163/6/6 168/6/6
f 167/5/6 162/5/6 168/5/6
f 163/6/6 164/6/6 168/6/6
f 168/6/6 164/6/6 169/6/6
f 164/6/6 116/6/6 170/6/6
f 169/6/6 164/6/6 170/6/6
f 166/6/6 167/6/6 171/6/6
f 165/6/6 166/6/6 171/6/6
f 169/3/6 170/3/6 171/3/6
f 167/6/6 168/6/6 171/6/6
f 168/6/6 169/6/6 171/6/6
f 170/6/6 116/6/6 172/6/6
f 171/3/6 170/3/6 172/3/6
f 165/6/6 171/6/6 173/6/6
f 145/6/6 165/6/6 173/6/6
f 171/6/6 172/6/6 173/6/6
f 173/6/6 172/6/6 174/6/6
f 174/6/6 172/6/6 175/6/6
f 172/6/6 116/6/6 176/6/6
f 175/6/6 172/6/6 176/6/6
f 173/3/6 174/3/6 177/3/6
f 174/4/6 175/4/6 178/4/6
f 177/3/6 174/3/6 178/3/6
f 175/3/6 176/3/6 179/3/6
f 178/4/6 175/4/6 179/4/6
f 179/3/6 176/3/6 180/3/6
