# MagicaVoxel @ Ephtracy

# material
mtllib Road03B.mtl
usemtl palette

# normals
vn -1 0 0
vn 1 0 0
vn 0 0 1
vn 0 0 -1
vn 0 -1 0
vn 0 1 0

# texcoords
vt 0.783203 0.5
vt 0.787109 0.5
vt 0.791016 0.5
vt 0.794922 0.5
vt 0.798828 0.5
vt 0.970703 0.5

# verts
v -7.5 0 7.5
v -7.5 0 -7.5
v -7.5 1 7.5
v -7.5 1 -7.5
v 7.5 0 7.5
v 7.5 0 6.5
v 7.5 0 2.5
v 7.5 0 1.5
v 7.5 0 -0.5
v 7.5 0 -1.5
v 7.5 0 -6.5
v 7.5 0 -7.5
v 7.5 1 7.5
v 7.5 1 6.5
v 7.5 1 2.5
v 7.5 1 1.5
v 7.5 1 -0.5
v 7.5 1 -1.5
v 7.5 1 -6.5
v 7.5 1 -7.5
v -7.5 0 7.5
v -7.5 1 7.5
v 7.5 0 7.5
v 7.5 1 7.5
v -7.5 0 -7.5
v -7.5 1 -7.5
v -6.5 0 -7.5
v -6.5 1 -7.5
v -0.5 0 -7.5
v -0.5 1 -7.5
v 0.5 0 -7.5
v 0.5 1 -7.5
v 3.5 0 -7.5
v 3.5 1 -7.5
v 4.5 0 -7.5
v 4.5 1 -7.5
v 6.5 0 -7.5
v 6.5 1 -7.5
v 7.5 0 -7.5
v 7.5 1 -7.5
v -7.5 0 7.5
v 7.5 0 7.5
v -6.5 0 6.5
v 7.5 0 6.5
v 3.5 0 5.5
v 4.5 0 5.5
v -4.5 0 4.5
v -3.5 0 4.5
v -2.5 0 4.5
v -1.5 0 4.5
v 1.5 0 4.5
v 2.5 0 4.5
v 3.5 0 4.5
v 4.5 0 4.5
v -6.5 0 3.5
v -5.5 0 3.5
v -4.5 0 3.5
v -3.5 0 3.5
v -2.5 0 3.5
v -1.5 0 3.5
v 1.5 0 3.5
v 2.5 0 3.5
v 4.5 0 3.5
v 5.5 0 3.5
v -6.5 0 2.5
v -5.5 0 2.5
v -0.5 0 2.5
v 0.5 0 2.5
v 4.5 0 2.5
v 5.5 0 2.5
v 6.5 0 2.5
v 7.5 0 2.5
v -3.5 0 1.5
v -2.5 0 1.5
v -0.5 0 1.5
v 0.5 0 1.5
v 2.5 0 1.5
v 3.5 0 1.5
v 6.5 0 1.5
v 7.5 0 1.5
v -6.5 0 0.5
v -5.5 0 0.5
v -4.5 0 0.5
v -3.5 0 0.5
v -2.5 0 0.5
v 0.5 0 0.5
v 1.5 0 0.5
v 2.5 0 0.5
v 3.5 0 0.5
v 4.5 0 0.5
v -6.5 0 -0.5
v -5.5 0 -0.5
v -4.5 0 -0.5
v -3.5 0 -0.5
v -1.5 0 -0.5
v -0.5 0 -0.5
v 0.5 0 -0.5
v 1.5 0 -0.5
v 3.5 0 -0.5
v 4.5 0 -0.5
v 6.5 0 -0.5
v 7.5 0 -0.5
v -1.5 0 -1.5
v -0.5 0 -1.5
v 4.5 0 -1.5
v 5.5 0 -1.5
v 6.5 0 -1.5
v 7.5 0 -1.5
v -5.5 0 -2.5
v -4.5 0 -2.5
v -3.5 0 -2.5
v -2.5 0 -2.5
v 4.5 0 -2.5
v 5.5 0 -2.5
v -5.5 0 -3.5
v -4.5 0 -3.5
v -3.5 0 -3.5
v -2.5 0 -3.5
v -0.5 0 -3.5
v 0.5 0 -3.5
v 2.5 0 -3.5
v 3.5 0 -3.5
v -5.5 0 -4.5
v -4.5 0 -4.5
v -0.5 0 -4.5
v 0.5 0 -4.5
v 1.5 0 -4.5
v 2.5 0 -4.5
v 3.5 0 -4.5
v 5.5 0 -4.5
v 6.5 0 -4.5
v -5.5 0 -5.5
v -4.5 0 -5.5
v -3.5 0 -5.5
v -2.5 0 -5.5
v -1.5 0 -5.5
v 0.5 0 -5.5
v 1.5 0 -5.5
v 2.5 0 -5.5
v 3.5 0 -5.5
v 5.5 0 -5.5
v 6.5 0 -5.5
v -3.5 0 -6.5
v -2.5 0 -6.5
v -1.5 0 -6.5
v -0.5 0 -6.5
v 0.5 0 -6.5
v 1.5 0 -6.5
v 3.5 0 -6.5
v 4.5 0 -6.5
v 6.5 0 -6.5
v 7.5 0 -6.5
v -7.5 0 -7.5
v -6.5 0 -7.5
v -0.5 0 -7.5
v 0.5 0 -7.5
v 3.5 0 -7.5
v 4.5 0 -7.5
v 6.5 0 -7.5
v 7.5 0 -7.5
v -7.5 1 7.5
v 7.5 1 7.5
v -6.5 1 6.5
v 7.5 1 6.5
v 3.5 1 5.5
v 4.5 1 5.5
v -4.5 1 4.5
v -3.5 1 4.5
v -2.5 1 4.5
v -1.5 1 4.5
v 1.5 1 4.5
v 2.5 1 4.5
v 3.5 1 4.5
v 4.5 1 4.5
v -6.5 1 3.5
v -5.5 1 3.5
v -4.5 1 3.5
v -3.5 1 3.5
v -2.5 1 3.5
v -1.5 1 3.5
v 1.5 1 3.5
v 2.5 1 3.5
v 4.5 1 3.5
v 5.5 1 3.5
v -6.5 1 2.5
v -5.5 1 2.5
v -0.5 1 2.5
v 0.5 1 2.5
v 4.5 1 2.5
v 5.5 1 2.5
v 6.5 1 2.5
v 7.5 1 2.5
v -3.5 1 1.5
v -2.5 1 1.5
v -0.5 1 1.5
v 0.5 1 1.5
v 2.5 1 1.5
v 3.5 1 1.5
v 6.5 1 1.5
v 7.5 1 1.5
v -6.5 1 0.5
v -5.5 1 0.5
v -4.5 1 0.5
v -3.5 1 0.5
v -2.5 1 0.5
v 0.5 1 0.5
v 1.5 1 0.5
v 2.5 1 0.5
v 3.5 1 0.5
v 4.5 1 0.5
v -6.5 1 -0.5
v -5.5 1 -0.5
v -4.5 1 -0.5
v -3.5 1 -0.5
v -1.5 1 -0.5
v -0.5 1 -0.5
v 0.5 1 -0.5
v 1.5 1 -0.5
v 3.5 1 -0.5
v 4.5 1 -0.5
v 6.5 1 -0.5
v 7.5 1 -0.5
v -1.5 1 -1.5
v -0.5 1 -1.5
v 4.5 1 -1.5
v 5.5 1 -1.5
v 6.5 1 -1.5
v 7.5 1 -1.5
v -5.5 1 -2.5
v -4.5 1 -2.5
v -3.5 1 -2.5
v -2.5 1 -2.5
v 4.5 1 -2.5
v 5.5 1 -2.5
v -5.5 1 -3.5
v -4.5 1 -3.5
v -3.5 1 -3.5
v -2.5 1 -3.5
v -0.5 1 -3.5
v 0.5 1 -3.5
v 2.5 1 -3.5
v 3.5 1 -3.5
v -5.5 1 -4.5
v -4.5 1 -4.5
v -0.5 1 -4.5
v 0.5 1 -4.5
v 1.5 1 -4.5
v 2.5 1 -4.5
v 3.5 1 -4.5
v 5.5 1 -4.5
v 6.5 1 -4.5
v -5.5 1 -5.5
v -4.5 1 -5.5
v -3.5 1 -5.5
v -2.5 1 -5.5
v -1.5 1 -5.5
v 0.5 1 -5.5
v 1.5 1 -5.5
v 2.5 1 -5.5
v 3.5 1 -5.5
v 5.5 1 -5.5
v 6.5 1 -5.5
v -3.5 1 -6.5
v -2.5 1 -6.5
v -1.5 1 -6.5
v -0.5 1 -6.5
v 0.5 1 -6.5
v 1.5 1 -6.5
v 3.5 1 -6.5
v 4.5 1 -6.5
v 6.5 1 -6.5
v 7.5 1 -6.5
v -7.5 1 -7.5
v -6.5 1 -7.5
v -0.5 1 -7.5
v 0.5 1 -7.5
v 3.5 1 -7.5
v 4.5 1 -7.5
v 6.5 1 -7.5
v 7.5 1 -7.5

# faces
f 3/6/1 2/6/1 1/6/1
f 4/6/1 2/6/1 3/6/1
f 5/6/2 6/6/2 13/6/2
f 6/5/2 7/5/2 14/5/2
f 13/6/2 6/6/2 14/6/2
f 7/3/2 8/3/2 15/3/2
f 14/5/2 7/5/2 15/5/2
f 8/5/2 9/5/2 16/5/2
f 15/3/2 8/3/2 16/3/2
f 9/1/2 10/1/2 17/1/2
f 16/5/2 9/5/2 17/5/2
f 10/5/2 11/5/2 18/5/2
f 17/1/2 10/1/2 18/1/2
f 11/6/2 12/6/2 19/6/2
f 18/5/2 11/5/2 19/5/2
f 19/6/2 12/6/2 20/6/2
f 23/6/3 22/6/3 21/6/3
f 24/6/3 22/6/3 23/6/3
f 25/6/4 26/6/4 27/6/4
f 27/6/4 26/6/4 28/6/4
f 27/5/4 28/5/4 29/5/4
f 29/5/4 28/5/4 30/5/4
f 29/1/4 30/1/4 31/1/4
f 31/1/4 30/1/4 32/1/4
f 31/5/4 32/5/4 33/5/4
f 33/5/4 32/5/4 34/5/4
f 33/1/4 34/1/4 35/1/4
f 35/1/4 34/1/4 36/1/4
f 35/5/4 36/5/4 37/5/4
f 37/5/4 36/5/4 38/5/4
f 37/6/4 38/6/4 39/6/4
f 39/6/4 38/6/4 40/6/4
f 43/6/5 42/6/5 41/6/5
f 44/6/5 42/6/5 43/6/5
f 45/5/5 44/5/5 43/5/5
f 46/5/5 44/5/5 45/5/5
f 47/5/5 45/5/5 43/5/5
f 48/5/5 45/5/5 47/5/5
f 49/5/5 45/5/5 48/5/5
f 50/5/5 45/5/5 49/5/5
f 51/5/5 45/5/5 50/5/5
f 52/5/5 45/5/5 51/5/5
f 53/3/5 46/3/5 45/3/5
f 53/5/5 45/5/5 52/5/5
f 54/5/5 44/5/5 46/5/5
f 54/3/5 46/3/5 53/3/5
f 55/6/5 43/6/5 41/6/5
f 55/5/5 47/5/5 43/5/5
f 56/5/5 47/5/5 55/5/5
f 57/1/5 48/1/5 47/1/5
f 57/5/5 47/5/5 56/5/5
f 58/5/5 49/5/5 48/5/5
f 58/1/5 48/1/5 57/1/5
f 59/2/5 50/2/5 49/2/5
f 59/5/5 49/5/5 58/5/5
f 60/5/5 51/5/5 50/5/5
f 60/2/5 50/2/5 59/2/5
f 61/2/5 52/2/5 51/2/5
f 61/5/5 51/5/5 60/5/5
f 62/5/5 53/5/5 52/5/5
f 62/2/5 52/2/5 61/2/5
f 62/5/5 54/5/5 53/5/5
f 63/5/5 44/5/5 54/5/5
f 63/5/5 54/5/5 62/5/5
f 64/5/5 44/5/5 63/5/5
f 65/6/5 55/6/5 41/6/5
f 65/2/5 56/2/5 55/2/5
f 66/5/5 62/5/5 61/5/5
f 66/2/5 56/2/5 65/2/5
f 66/5/5 61/5/5 60/5/5
f 66/5/5 63/5/5 62/5/5
f 66/5/5 59/5/5 58/5/5
f 66/5/5 58/5/5 57/5/5
f 66/5/5 57/5/5 56/5/5
f 66/5/5 60/5/5 59/5/5
f 67/5/5 63/5/5 66/5/5
f 68/5/5 63/5/5 67/5/5
f 69/1/5 64/1/5 63/1/5
f 69/5/5 63/5/5 68/5/5
f 70/5/5 44/5/5 64/5/5
f 70/1/5 64/1/5 69/1/5
f 71/5/5 44/5/5 70/5/5
f 72/5/5 44/5/5 71/5/5
f 73/5/5 66/5/5 65/5/5
f 73/5/5 67/5/5 66/5/5
f 74/5/5 67/5/5 73/5/5
f 75/1/5 68/1/5 67/1/5
f 75/5/5 67/5/5 74/5/5
f 76/5/5 69/5/5 68/5/5
f 76/1/5 68/1/5 75/1/5
f 76/5/5 70/5/5 69/5/5
f 76/5/5 71/5/5 70/5/5
f 77/5/5 71/5/5 76/5/5
f 78/5/5 71/5/5 77/5/5
f 79/3/5 72/3/5 71/3/5
f 79/5/5 71/5/5 78/5/5
f 80/3/5 72/3/5 79/3/5
f 81/6/5 65/6/5 41/6/5
f 81/5/5 73/5/5 65/5/5
f 82/5/5 73/5/5 81/5/5
f 83/5/5 73/5/5 82/5/5
f 84/2/5 74/2/5 73/2/5
f 84/5/5 73/5/5 83/5/5
f 85/5/5 75/5/5 74/5/5
f 85/2/5 74/2/5 84/2/5
f 85/5/5 76/5/5 75/5/5
f 85/5/5 77/5/5 76/5/5
f 86/5/5 77/5/5 85/5/5
f 87/5/5 77/5/5 86/5/5
f 88/3/5 78/3/5 77/3/5
f 88/5/5 77/5/5 87/5/5
f 89/5/5 80/5/5 79/5/5
f 89/3/5 78/3/5 88/3/5
f 89/5/5 79/5/5 78/5/5
f 90/5/5 80/5/5 89/5/5
f 91/3/5 82/3/5 81/3/5
f 91/6/5 81/6/5 41/6/5
f 92/5/5 83/5/5 82/5/5
f 92/3/5 82/3/5 91/3/5
f 93/4/5 84/4/5 83/4/5
f 93/5/5 83/5/5 92/5/5
f 94/5/5 86/5/5 85/5/5
f 94/4/5 84/4/5 93/4/5
f 94/5/5 85/5/5 84/5/5
f 95/5/5 86/5/5 94/5/5
f 96/5/5 86/5/5 95/5/5
f 97/1/5 87/1/5 86/1/5
f 97/5/5 86/5/5 96/5/5
f 98/5/5 88/5/5 87/5/5
f 98/1/5 87/1/5 97/1/5
f 98/5/5 89/5/5 88/5/5
f 99/2/5 90/2/5 89/2/5
f 99/5/5 89/5/5 98/5/5
f 100/5/5 80/5/5 90/5/5
f 100/2/5 90/2/5 99/2/5
f 101/5/5 80/5/5 100/5/5
f 102/5/5 80/5/5 101/5/5
f 103/5/5 92/5/5 91/5/5
f 103/3/5 96/3/5 95/3/5
f 103/5/5 93/5/5 92/5/5
f 103/5/5 95/5/5 94/5/5
f 103/5/5 94/5/5 93/5/5
f 104/5/5 97/5/5 96/5/5
f 104/3/5 96/3/5 103/3/5
f 104/5/5 99/5/5 98/5/5
f 104/5/5 100/5/5 99/5/5
f 104/5/5 101/5/5 100/5/5
f 104/5/5 98/5/5 97/5/5
f 105/5/5 101/5/5 104/5/5
f 106/5/5 101/5/5 105/5/5
f 107/1/5 102/1/5 101/1/5
f 107/5/5 101/5/5 106/5/5
f 108/1/5 102/1/5 107/1/5
f 109/5/5 103/5/5 91/5/5
f 109/5/5 104/5/5 103/5/5
f 109/5/5 105/5/5 104/5/5
f 110/5/5 105/5/5 109/5/5
f 111/5/5 105/5/5 110/5/5
f 112/5/5 105/5/5 111/5/5
f 113/2/5 106/2/5 105/2/5
f 113/5/5 105/5/5 112/5/5
f 114/5/5 108/5/5 107/5/5
f 114/2/5 106/2/5 113/2/5
f 114/5/5 107/5/5 106/5/5
f 115/5/5 109/5/5 91/5/5
f 115/1/5 110/1/5 109/1/5
f 116/2/5 111/2/5 110/2/5
f 116/1/5 110/1/5 115/1/5
f 117/4/5 112/4/5 111/4/5
f 117/2/5 111/2/5 116/2/5
f 118/5/5 113/5/5 112/5/5
f 118/4/5 112/4/5 117/4/5
f 118/5/5 114/5/5 113/5/5
f 119/5/5 114/5/5 118/5/5
f 120/5/5 114/5/5 119/5/5
f 121/5/5 114/5/5 120/5/5
f 122/5/5 114/5/5 121/5/5
f 123/5/5 116/5/5 115/5/5
f 123/5/5 117/5/5 116/5/5
f 123/5/5 115/5/5 91/5/5
f 123/5/5 118/5/5 117/5/5
f 123/5/5 119/5/5 118/5/5
f 124/5/5 119/5/5 123/5/5
f 125/1/5 120/1/5 119/1/5
f 125/5/5 119/5/5 124/5/5
f 126/5/5 121/5/5 120/5/5
f 126/1/5 120/1/5 125/1/5
f 127/5/5 121/5/5 126/5/5
f 128/4/5 122/4/5 121/4/5
f 128/5/5 121/5/5 127/5/5
f 129/5/5 114/5/5 122/5/5
f 129/4/5 122/4/5 128/4/5
f 130/5/5 108/5/5 114/5/5
f 130/5/5 114/5/5 129/5/5
f 131/5/5 108/5/5 130/5/5
f 132/3/5 124/3/5 123/3/5
f 132/5/5 123/5/5 91/5/5
f 133/5/5 127/5/5 126/5/5
f 133/3/5 124/3/5 132/3/5
f 133/5/5 125/5/5 124/5/5
f 133/5/5 126/5/5 125/5/5
f 134/5/5 127/5/5 133/5/5
f 135/5/5 127/5/5 134/5/5
f 136/5/5 127/5/5 135/5/5
f 137/5/5 127/5/5 136/5/5
f 138/2/5 128/2/5 127/2/5
f 138/5/5 127/5/5 137/5/5
f 139/1/5 129/1/5 128/1/5
f 139/2/5 128/2/5 138/2/5
f 140/5/5 130/5/5 129/5/5
f 140/1/5 129/1/5 139/1/5
f 141/2/5 131/2/5 130/2/5
f 141/5/5 130/5/5 140/5/5
f 142/5/5 108/5/5 131/5/5
f 142/2/5 131/2/5 141/2/5
f 143/5/5 133/5/5 132/5/5
f 143/5/5 134/5/5 133/5/5
f 143/1/5 135/1/5 134/1/5
f 144/4/5 136/4/5 135/4/5
f 144/1/5 135/1/5 143/1/5
f 145/5/5 137/5/5 136/5/5
f 145/4/5 136/4/5 144/4/5
f 146/5/5 137/5/5 145/5/5
f 147/3/5 138/3/5 137/3/5
f 147/5/5 137/5/5 146/5/5
f 148/5/5 139/5/5 138/5/5
f 148/3/5 138/3/5 147/3/5
f 148/5/5 141/5/5 140/5/5
f 148/5/5 140/5/5 139/5/5
f 148/5/5 142/5/5 141/5/5
f 149/5/5 142/5/5 148/5/5
f 150/5/5 142/5/5 149/5/5
f 151/5/5 108/5/5 142/5/5
f 151/5/5 142/5/5 150/5/5
f 152/5/5 108/5/5 151/5/5
f 153/6/5 91/6/5 41/6/5
f 154/5/5 144/5/5 143/5/5
f 154/6/5 91/6/5 153/6/5
f 154/5/5 132/5/5 91/5/5
f 154/5/5 146/5/5 145/5/5
f 154/5/5 145/5/5 144/5/5
f 154/5/5 143/5/5 132/5/5
f 155/1/5 147/1/5 146/1/5
f 155/5/5 146/5/5 154/5/5
f 156/5/5 149/5/5 148/5/5
f 156/1/5 147/1/5 155/1/5
f 156/5/5 148/5/5 147/5/5
f 157/1/5 150/1/5 149/1/5
f 157/5/5 149/5/5 156/5/5
f 158/5/5 151/5/5 150/5/5
f 158/1/5 150/1/5 157/1/5
f 159/6/5 152/6/5 151/6/5
f 159/5/5 151/5/5 158/5/5
f 160/6/5 152/6/5 159/6/5
f 161/6/6 162/6/6 163/6/6
f 163/6/6 162/6/6 164/6/6
f 163/5/6 164/5/6 165/5/6
f 165/5/6 164/5/6 166/5/6
f 163/5/6 165/5/6 167/5/6
f 167/5/6 165/5/6 168/5/6
f 168/5/6 165/5/6 169/5/6
f 169/5/6 165/5/6 170/5/6
f 170/5/6 165/5/6 171/5/6
f 171/5/6 165/5/6 172/5/6
f 165/3/6 166/3/6 173/3/6
f 172/5/6 165/5/6 173/5/6
f 166/5/6 164/5/6 174/5/6
f 173/3/6 166/3/6 174/3/6
f 161/6/6 163/6/6 175/6/6
f 163/5/6 167/5/6 175/5/6
f 175/5/6 167/5/6 176/5/6
f 167/1/6 168/1/6 177/1/6
f 176/5/6 167/5/6 177/5/6
f 168/5/6 169/5/6 178/5/6
f 177/1/6 168/1/6 178/1/6
f 169/2/6 170/2/6 179/2/6
f 178/5/6 169/5/6 179/5/6
f 170/5/6 171/5/6 180/5/6
f 179/2/6 170/2/6 180/2/6
f 171/2/6 172/2/6 181/2/6
f 180/5/6 171/5/6 181/5/6
f 172/5/6 173/5/6 182/5/6
f 181/2/6 172/2/6 182/2/6
f 173/5/6 174/5/6 182/5/6
f 174/5/6 164/5/6 183/5/6
f 182/5/6 174/5/6 183/5/6
f 183/5/6 164/5/6 184/5/6
f 161/6/6 175/6/6 185/6/6
f 175/2/6 176/2/6 185/2/6
f 181/5/6 182/5/6 186/5/6
f 185/2/6 176/2/6 186/2/6
f 180/5/6 181/5/6 186/5/6
f 182/5/6 183/5/6 186/5/6
f 178/5/6 179/5/6 186/5/6
f 177/5/6 178/5/6 186/5/6
f 176/5/6 177/5/6 186/5/6
f 179/5/6 180/5/6 186/5/6
f 186/5/6 183/5/6 187/5/6
f 187/5/6 183/5/6 188/5/6
f 183/1/6 184/1/6 189/1/6
f 188/5/6 183/5/6 189/5/6
f 184/5/6 164/5/6 190/5/6
f 189/1/6 184/1/6 190/1/6
f 190/5/6 164/5/6 191/5/6
f 191/5/6 164/5/6 192/5/6
f 185/5/6 186/5/6 193/5/6
f 186/5/6 187/5/6 193/5/6
f 193/5/6 187/5/6 194/5/6
f 187/1/6 188/1/6 195/1/6
f 194/5/6 187/5/6 195/5/6
f 188/5/6 189/5/6 196/5/6
f 195/1/6 188/1/6 196/1/6
f 189/5/6 190/5/6 196/5/6
f 190/5/6 191/5/6 196/5/6
f 196/5/6 191/5/6 197/5/6
f 197/5/6 191/5/6 198/5/6
f 191/3/6 192/3/6 199/3/6
f 198/5/6 191/5/6 199/5/6
f 199/3/6 192/3/6 200/3/6
f 161/6/6 185/6/6 201/6/6
f 185/5/6 193/5/6 201/5/6
f 201/5/6 193/5/6 202/5/6
f 202/5/6 193/5/6 203/5/6
f 193/2/6 194/2/6 204/2/6
f 203/5/6 193/5/6 204/5/6
f 194/5/6 195/5/6 205/5/6
f 204/2/6 194/2/6 205/2/6
f 195/5/6 196/5/6 205/5/6
f 196/5/6 197/5/6 205/5/6
f 205/5/6 197/5/6 206/5/6
f 206/5/6 197/5/6 207/5/6
f 197/3/6 198/3/6 208/3/6
f 207/5/6 197/5/6 208/5/6
f 199/5/6 200/5/6 209/5/6
f 208/3/6 198/3/6 209/3/6
f 198/5/6 199/5/6 209/5/6
f 209/5/6 200/5/6 210/5/6
f 201/3/6 202/3/6 211/3/6
f 161/6/6 201/6/6 211/6/6
f 202/5/6 203/5/6 212/5/6
f 211/3/6 202/3/6 212/3/6
f 203/4/6 204/4/6 213/4/6
f 212/5/6 203/5/6 213/5/6
f 205/5/6 206/5/6 214/5/6
f 213/4/6 204/4/6 214/4/6
f 204/5/6 205/5/6 214/5/6
f 214/5/6 206/5/6 215/5/6
f 215/5/6 206/5/6 216/5/6
f 206/1/6 207/1/6 217/1/6
f 216/5/6 206/5/6 217/5/6
f 207/5/6 208/5/6 218/5/6
f 217/1/6 207/1/6 218/1/6
f 208/5/6 209/5/6 218/5/6
f 209/2/6 210/2/6 219/2/6
f 218/5/6 209/5/6 219/5/6
f 210/5/6 200/5/6 220/5/6
f 219/2/6 210/2/6 220/2/6
f 220/5/6 200/5/6 221/5/6
f 221/5/6 200/5/6 222/5/6
f 211/5/6 212/5/6 223/5/6
f 215/3/6 216/3/6 223/3/6
f 212/5/6 213/5/6 223/5/6
f 214/5/6 215/5/6 223/5/6
f 213/5/6 214/5/6 223/5/6
f 216/5/6 217/5/6 224/5/6
f 223/3/6 216/3/6 224/3/6
f 218/5/6 219/5/6 224/5/6
f 219/5/6 220/5/6 224/5/6
f 220/5/6 221/5/6 224/5/6
f 217/5/6 218/5/6 224/5/6
f 224/5/6 221/5/6 225/5/6
f 225/5/6 221/5/6 226/5/6
f 221/1/6 222/1/6 227/1/6
f 226/5/6 221/5/6 227/5/6
f 227/1/6 222/1/6 228/1/6
f 211/5/6 223/5/6 229/5/6
f 223/5/6 224/5/6 229/5/6
f 224/5/6 225/5/6 229/5/6
f 229/5/6 225/5/6 230/5/6
f 230/5/6 225/5/6 231/5/6
f 231/5/6 225/5/6 232/5/6
f 225/2/6 226/2/6 233/2/6
f 232/5/6 225/5/6 233/5/6
f 227/5/6 228/5/6 234/5/6
f 233/2/6 226/2/6 234/2/6
f 226/5/6 227/5/6 234/5/6
f 211/5/6 229/5/6 235/5/6
f 229/1/6 230/1/6 235/1/6
f 230/2/6 231/2/6 236/2/6
f 235/1/6 230/1/6 236/1/6
f 231/4/6 232/4/6 237/4/6
f 236/2/6 231/2/6 237/2/6
f 232/5/6 233/5/6 238/5/6
f 237/4/6 232/4/6 238/4/6
f 233/5/6 234/5/6 238/5/6
f 238/5/6 234/5/6 239/5/6
f 239/5/6 234/5/6 240/5/6
f 240/5/6 234/5/6 241/5/6
f 241/5/6 234/5/6 242/5/6
f 235/5/6 236/5/6 243/5/6
f 236/5/6 237/5/6 243/5/6
f 211/5/6 235/5/6 243/5/6
f 237/5/6 238/5/6 243/5/6
f 238/5/6 239/5/6 243/5/6
f 243/5/6 239/5/6 244/5/6
f 239/1/6 240/1/6 245/1/6
f 244/5/6 239/5/6 245/5/6
f 240/5/6 241/5/6 246/5/6
f 245/1/6 240/1/6 246/1/6
f 246/5/6 241/5/6 247/5/6
f 241/4/6 242/4/6 248/4/6
f 247/5/6 241/5/6 248/5/6
f 242/5/6 234/5/6 249/5/6
f 248/4/6 242/4/6 249/4/6
f 234/5/6 228/5/6 250/5/6
f 249/5/6 234/5/6 250/5/6
f 250/5/6 228/5/6 251/5/6
f 243/3/6 244/3/6 252/3/6
f 211/5/6 243/5/6 252/5/6
f 246/5/6 247/5/6 253/5/6
f 252/3/6 244/3/6 253/3/6
f 244/5/6 245/5/6 253/5/6
f 245/5/6 246/5/6 253/5/6
f 253/5/6 247/5/6 254/5/6
f 254/5/6 247/5/6 255/5/6
f 255/5/6 247/5/6 256/5/6
f 256/5/6 247/5/6 257/5/6
f 247/2/6 248/2/6 258/2/6
f 257/5/6 247/5/6 258/5/6
f 248/1/6 249/1/6 259/1/6
f 258/2/6 248/2/6 259/2/6
f 249/5/6 250/5/6 260/5/6
f 259/1/6 249/1/6 260/1/6
f 250/2/6 251/2/6 261/2/6
f 260/5/6 250/5/6 261/5/6
f 251/5/6 228/5/6 262/5/6
f 261/2/6 251/2/6 262/2/6
f 252/5/6 253/5/6 263/5/6
f 253/5/6 254/5/6 263/5/6
f 254/1/6 255/1/6 263/1/6
f 255/4/6 256/4/6 264/4/6
f 263/1/6 255/1/6 264/1/6
f 256/5/6 257/5/6 265/5/6
f 264/4/6 256/4/6 265/4/6
f 265/5/6 257/5/6 266/5/6
f 257/3/6 258/3/6 267/3/6
f 266/5/6 257/5/6 267/5/6
f 258/5/6 259/5/6 268/5/6
f 267/3/6 258/3/6 268/3/6
f 260/5/6 261/5/6 268/5/6
f 259/5/6 260/5/6 268/5/6
f 261/5/6 262/5/6 268/5/6
f 268/5/6 262/5/6 269/5/6
f 269/5/6 262/5/6 270/5/6
f 262/5/6 228/5/6 271/5/6
f 270/5/6 262/5/6 271/5/6
f 271/5/6 228/5/6 272/5/6
f 161/6/6 211/6/6 273/6/6
f 263/5/6 264/5/6 274/5/6
f 273/6/6 211/6/6 274/6/6
f 211/5/6 252/5/6 274/5/6
f 265/5/6 266/5/6 274/5/6
f 264/5/6 265/5/6 274/5/6
f 252/5/6 263/5/6 274/5/6
f 266/1/6 267/1/6 275/1/6
f 274/5/6 266/5/6 275/5/6
f 268/5/6 269/5/6 276/5/6
f 275/1/6 267/1/6 276/1/6
f 267/5/6 268/5/6 276/5/6
f 269/1/6 270/1/6 277/1/6
f 276/5/6 269/5/6 277/5/6
f 270/5/6 271/5/6 278/5/6
f 277/1/6 270/1/6 278/1/6
f 271/6/6 272/6/6 279/6/6
f 278/5/6 271/5/6 279/5/6
f 279/6/6 272/6/6 280/6/6
