# MagicaVoxel @ Ephtracy

# material
mtllib Road04G.mtl
usemtl palette

# normals
vn -1 0 0
vn 1 0 0
vn 0 0 1
vn 0 0 -1
vn 0 -1 0
vn 0 1 0

# texcoords
vt 0.908203 0.5
vt 0.970703 0.5
vt 0.982422 0.5
vt 0.986328 0.5

# verts
v -10.5 0 7.5
v -10.5 0 6.5
v -10.5 0 1.5
v -10.5 0 0.5
v -10.5 0 -0.5
v -10.5 0 -1.5
v -10.5 0 -6.5
v -10.5 0 -7.5
v -10.5 1 7.5
v -10.5 1 6.5
v -10.5 1 1.5
v -10.5 1 0.5
v -10.5 1 -0.5
v -10.5 1 -1.5
v -10.5 1 -6.5
v -10.5 1 -7.5
v 10.5 0 7.5
v 10.5 0 -7.5
v 10.5 1 7.5
v 10.5 1 -7.5
v -10.5 0 7.5
v -10.5 1 7.5
v -7.5 0 7.5
v -7.5 1 7.5
v -6.5 0 7.5
v -6.5 1 7.5
v 10.5 0 7.5
v 10.5 1 7.5
v -10.5 0 -7.5
v -10.5 1 -7.5
v 2.5 0 -7.5
v 2.5 1 -7.5
v 3.5 0 -7.5
v 3.5 1 -7.5
v 10.5 0 -7.5
v 10.5 1 -7.5
v -10.5 0 7.5
v -7.5 0 7.5
v -6.5 0 7.5
v 10.5 0 7.5
v -10.5 0 6.5
v -7.5 0 6.5
v -6.5 0 6.5
v 9.5 0 6.5
v -10.5 0 1.5
v 6.5 0 1.5
v -10.5 0 0.5
v 6.5 0 0.5
v -10.5 0 -0.5
v 6.5 0 -0.5
v -10.5 0 -1.5
v 6.5 0 -1.5
v -10.5 0 -6.5
v 2.5 0 -6.5
v 3.5 0 -6.5
v 9.5 0 -6.5
v -10.5 0 -7.5
v 2.5 0 -7.5
v 3.5 0 -7.5
v 10.5 0 -7.5
v -10.5 1 7.5
v -7.5 1 7.5
v -6.5 1 7.5
v 10.5 1 7.5
v -10.5 1 6.5
v -7.5 1 6.5
v -6.5 1 6.5
v 9.5 1 6.5
v -10.5 1 1.5
v 6.5 1 1.5
v -10.5 1 0.5
v 6.5 1 0.5
v -10.5 1 -0.5
v 6.5 1 -0.5
v -10.5 1 -1.5
v 6.5 1 -1.5
v -10.5 1 -6.5
v 2.5 1 -6.5
v 3.5 1 -6.5
v 9.5 1 -6.5
v -10.5 1 -7.5
v 2.5 1 -7.5
v 3.5 1 -7.5
v 10.5 1 -7.5

# faces
f 9/2/1 2/2/1 1/2/1
f 10/4/1 3/4/1 2/4/1
f 10/2/1 2/2/1 9/2/1
f 11/1/1 4/1/1 3/1/1
f 11/4/1 3/4/1 10/4/1
f 12/4/1 5/4/1 4/4/1
f 12/1/1 4/1/1 11/1/1
f 13/1/1 6/1/1 5/1/1
f 13/4/1 5/4/1 12/4/1
f 14/4/1 7/4/1 6/4/1
f 14/1/1 6/1/1 13/1/1
f 15/2/1 8/2/1 7/2/1
f 15/4/1 7/4/1 14/4/1
f 16/2/1 8/2/1 15/2/1
f 17/2/2 18/2/2 19/2/2
f 19/2/2 18/2/2 20/2/2
f 23/2/3 22/2/3 21/2/3
f 24/2/3 22/2/3 23/2/3
f 25/3/3 24/3/3 23/3/3
f 26/3/3 24/3/3 25/3/3
f 27/2/3 26/2/3 25/2/3
f 28/2/3 26/2/3 27/2/3
f 29/2/4 30/2/4 31/2/4
f 31/2/4 30/2/4 32/2/4
f 31/3/4 32/3/4 33/3/4
f 33/3/4 32/3/4 34/3/4
f 33/2/4 34/2/4 35/2/4
f 35/2/4 34/2/4 36/2/4
f 41/2/5 38/2/5 37/2/5
f 42/3/5 39/3/5 38/3/5
f 42/2/5 38/2/5 41/2/5
f 43/2/5 40/2/5 39/2/5
f 43/3/5 39/3/5 42/3/5
f 44/2/5 40/2/5 43/2/5
f 45/4/5 42/4/5 41/4/5
f 45/4/5 43/4/5 42/4/5
f 45/4/5 44/4/5 43/4/5
f 46/4/5 44/4/5 45/4/5
f 47/1/5 46/1/5 45/1/5
f 48/4/5 44/4/5 46/4/5
f 48/1/5 46/1/5 47/1/5
f 49/4/5 48/4/5 47/4/5
f 50/4/5 44/4/5 48/4/5
f 50/4/5 48/4/5 49/4/5
f 51/1/5 50/1/5 49/1/5
f 52/4/5 44/4/5 50/4/5
f 52/1/5 50/1/5 51/1/5
f 53/4/5 52/4/5 51/4/5
f 54/4/5 52/4/5 53/4/5
f 55/4/5 52/4/5 54/4/5
f 56/2/5 40/2/5 44/2/5
f 56/4/5 52/4/5 55/4/5
f 56/4/5 44/4/5 52/4/5
f 57/2/5 54/2/5 53/2/5
f 58/3/5 55/3/5 54/3/5
f 58/2/5 54/2/5 57/2/5
f 59/2/5 56/2/5 55/2/5
f 59/3/5 55/3/5 58/3/5
f 60/2/5 40/2/5 56/2/5
f 60/2/5 56/2/5 59/2/5
f 61/2/6 62/2/6 65/2/6
f 62/3/6 63/3/6 66/3/6
f 65/2/6 62/2/6 66/2/6
f 63/2/6 64/2/6 67/2/6
f 66/3/6 63/3/6 67/3/6
f 67/2/6 64/2/6 68/2/6
f 65/4/6 66/4/6 69/4/6
f 66/4/6 67/4/6 69/4/6
f 67/4/6 68/4/6 69/4/6
f 69/4/6 68/4/6 70/4/6
f 69/1/6 70/1/6 71/1/6
f 70/4/6 68/4/6 72/4/6
f 71/1/6 70/1/6 72/1/6
f 71/4/6 72/4/6 73/4/6
f 72/4/6 68/4/6 74/4/6
f 73/4/6 72/4/6 74/4/6
f 73/1/6 74/1/6 75/1/6
f 74/4/6 68/4/6 76/4/6
f 75/1/6 74/1/6 76/1/6
f 75/4/6 76/4/6 77/4/6
f 77/4/6 76/4/6 78/4/6
f 78/4/6 76/4/6 79/4/6
f 68/2/6 64/2/6 80/2/6
f 79/4/6 76/4/6 80/4/6
f 76/4/6 68/4/6 80/4/6
f 77/2/6 78/2/6 81/2/6
f 78/3/6 79/3/6 82/3/6
f 81/2/6 78/2/6 82/2/6
f 79/2/6 80/2/6 83/2/6
f 82/3/6 79/3/6 83/3/6
f 80/2/6 64/2/6 84/2/6
f 83/2/6 80/2/6 84/2/6
