# MagicaVoxel @ Ephtracy

# material
mtllib Road04C.mtl
usemtl palette

# normals
vn -1 0 0
vn 1 0 0
vn 0 0 1
vn 0 0 -1
vn 0 -1 0
vn 0 1 0

# texcoords
vt 0.908203 0.5
vt 0.970703 0.5
vt 0.986328 0.5

# verts
v -7.5 0 7.5
v -7.5 0 6.5
v -7.5 0 -6.5
v -7.5 0 -7.5
v -7.5 1 7.5
v -7.5 1 6.5
v -7.5 1 -6.5
v -7.5 1 -7.5
v 7.5 0 7.5
v 7.5 0 6.5
v 7.5 0 -6.5
v 7.5 0 -7.5
v 7.5 1 7.5
v 7.5 1 6.5
v 7.5 1 -6.5
v 7.5 1 -7.5
v -7.5 0 7.5
v -7.5 1 7.5
v -6.5 0 7.5
v -6.5 1 7.5
v 6.5 0 7.5
v 6.5 1 7.5
v 7.5 0 7.5
v 7.5 1 7.5
v -7.5 0 -7.5
v -7.5 1 -7.5
v -6.5 0 -7.5
v -6.5 1 -7.5
v 6.5 0 -7.5
v 6.5 1 -7.5
v 7.5 0 -7.5
v 7.5 1 -7.5
v -7.5 0 7.5
v -6.5 0 7.5
v 6.5 0 7.5
v 7.5 0 7.5
v -7.5 0 6.5
v -6.5 0 6.5
v -5.5 0 6.5
v 5.5 0 6.5
v 6.5 0 6.5
v 7.5 0 6.5
v -4.5 0 5.5
v 4.5 0 5.5
v -4.5 0 -5.5
v 4.5 0 -5.5
v -7.5 0 -6.5
v -6.5 0 -6.5
v -5.5 0 -6.5
v 5.5 0 -6.5
v 6.5 0 -6.5
v 7.5 0 -6.5
v -7.5 0 -7.5
v -6.5 0 -7.5
v 6.5 0 -7.5
v 7.5 0 -7.5
v -7.5 1 7.5
v -6.5 1 7.5
v 6.5 1 7.5
v 7.5 1 7.5
v -7.5 1 6.5
v -6.5 1 6.5
v -5.5 1 6.5
v 5.5 1 6.5
v 6.5 1 6.5
v 7.5 1 6.5
v -4.5 1 5.5
v 4.5 1 5.5
v -4.5 1 -5.5
v 4.5 1 -5.5
v -7.5 1 -6.5
v -6.5 1 -6.5
v -5.5 1 -6.5
v 5.5 1 -6.5
v 6.5 1 -6.5
v 7.5 1 -6.5
v -7.5 1 -7.5
v -6.5 1 -7.5
v 6.5 1 -7.5
v 7.5 1 -7.5

# faces
f 5/2/1 2/2/1 1/2/1
f 6/3/1 3/3/1 2/3/1
f 6/2/1 2/2/1 5/2/1
f 7/2/1 4/2/1 3/2/1
f 7/3/1 3/3/1 6/3/1
f 8/2/1 4/2/1 7/2/1
f 9/2/2 10/2/2 13/2/2
f 10/3/2 11/3/2 14/3/2
f 13/2/2 10/2/2 14/2/2
f 11/2/2 12/2/2 15/2/2
f 14/3/2 11/3/2 15/3/2
f 15/2/2 12/2/2 16/2/2
f 19/2/3 18/2/3 17/2/3
f 20/2/3 18/2/3 19/2/3
f 21/3/3 20/3/3 19/3/3
f 22/3/3 20/3/3 21/3/3
f 23/2/3 22/2/3 21/2/3
f 24/2/3 22/2/3 23/2/3
f 25/2/4 26/2/4 27/2/4
f 27/2/4 26/2/4 28/2/4
f 27/3/4 28/3/4 29/3/4
f 29/3/4 28/3/4 30/3/4
f 29/2/4 30/2/4 31/2/4
f 31/2/4 30/2/4 32/2/4
f 37/2/5 34/2/5 33/2/5
f 38/3/5 35/3/5 34/3/5
f 38/2/5 34/2/5 37/2/5
f 39/3/5 35/3/5 38/3/5
f 40/3/5 35/3/5 39/3/5
f 41/2/5 36/2/5 35/2/5
f 41/3/5 35/3/5 40/3/5
f 42/2/5 36/2/5 41/2/5
f 43/1/5 40/1/5 39/1/5
f 44/1/5 40/1/5 43/1/5
f 45/1/5 43/1/5 39/1/5
f 45/3/5 44/3/5 43/3/5
f 46/1/5 40/1/5 44/1/5
f 46/3/5 44/3/5 45/3/5
f 47/3/5 38/3/5 37/3/5
f 47/3/5 39/3/5 38/3/5
f 48/3/5 39/3/5 47/3/5
f 49/1/5 46/1/5 45/1/5
f 49/3/5 39/3/5 48/3/5
f 49/1/5 45/1/5 39/1/5
f 50/1/5 40/1/5 46/1/5
f 50/1/5 46/1/5 49/1/5
f 50/3/5 41/3/5 40/3/5
f 50/3/5 42/3/5 41/3/5
f 51/3/5 42/3/5 50/3/5
f 52/3/5 42/3/5 51/3/5
f 53/2/5 48/2/5 47/2/5
f 54/3/5 49/3/5 48/3/5
f 54/2/5 48/2/5 53/2/5
f 54/3/5 50/3/5 49/3/5
f 54/3/5 51/3/5 50/3/5
f 55/2/5 52/2/5 51/2/5
f 55/3/5 51/3/5 54/3/5
f 56/2/5 52/2/5 55/2/5
f 57/2/6 58/2/6 61/2/6
f 58/3/6 59/3/6 62/3/6
f 61/2/6 58/2/6 62/2/6
f 62/3/6 59/3/6 63/3/6
f 63/3/6 59/3/6 64/3/6
f 59/2/6 60/2/6 65/2/6
f 64/3/6 59/3/6 65/3/6
f 65/2/6 60/2/6 66/2/6
f 63/1/6 64/1/6 67/1/6
f 67/1/6 64/1/6 68/1/6
f 63/1/6 67/1/6 69/1/6
f 67/3/6 68/3/6 69/3/6
f 68/1/6 64/1/6 70/1/6
f 69/3/6 68/3/6 70/3/6
f 61/3/6 62/3/6 71/3/6
f 62/3/6 63/3/6 71/3/6
f 71/3/6 63/3/6 72/3/6
f 69/1/6 70/1/6 73/1/6
f 72/3/6 63/3/6 73/3/6
f 63/1/6 69/1/6 73/1/6
f 70/1/6 64/1/6 74/1/6
f 73/1/6 70/1/6 74/1/6
f 64/3/6 65/3/6 74/3/6
f 65/3/6 66/3/6 74/3/6
f 74/3/6 66/3/6 75/3/6
f 75/3/6 66/3/6 76/3/6
f 71/2/6 72/2/6 77/2/6
f 72/3/6 73/3/6 78/3/6
f 77/2/6 72/2/6 78/2/6
f 73/3/6 74/3/6 78/3/6
f 74/3/6 75/3/6 78/3/6
f 75/2/6 76/2/6 79/2/6
f 78/3/6 75/3/6 79/3/6
f 79/2/6 76/2/6 80/2/6
