# MagicaVoxel @ Ephtracy

# material
mtllib Road04I.mtl
usemtl palette

# normals
vn -1 0 0
vn 1 0 0
vn 0 0 1
vn 0 0 -1
vn 0 -1 0
vn 0 1 0

# texcoords
vt 0.908203 0.5
vt 0.912109 0.5
vt 0.970703 0.5
vt 0.982422 0.5
vt 0.986328 0.5

# verts
v -10.5 0 7.5
v -10.5 0 6.5
v -10.5 0 0.5
v -10.5 0 -0.5
v -10.5 0 -6.5
v -10.5 0 -7.5
v -10.5 1 7.5
v -10.5 1 6.5
v -10.5 1 0.5
v -10.5 1 -0.5
v -10.5 1 -6.5
v -10.5 1 -7.5
v 10.5 0 7.5
v 10.5 0 6.5
v 10.5 0 -6.5
v 10.5 0 -7.5
v 10.5 1 7.5
v 10.5 1 6.5
v 10.5 1 -6.5
v 10.5 1 -7.5
v -10.5 0 7.5
v -10.5 1 7.5
v -7.5 0 7.5
v -7.5 1 7.5
v -6.5 0 7.5
v -6.5 1 7.5
v 10.5 0 7.5
v 10.5 1 7.5
v -10.5 0 -7.5
v -10.5 1 -7.5
v 2.5 0 -7.5
v 2.5 1 -7.5
v 3.5 0 -7.5
v 3.5 1 -7.5
v 10.5 0 -7.5
v 10.5 1 -7.5
v -10.5 0 7.5
v -7.5 0 7.5
v -6.5 0 7.5
v 10.5 0 7.5
v -10.5 0 6.5
v -7.5 0 6.5
v -6.5 0 6.5
v 10.5 0 6.5
v 3.5 0 5.5
v 9.5 0 5.5
v 3.5 0 4.5
v 9.5 0 4.5
v 3.5 0 3.5
v 9.5 0 3.5
v 3.5 0 2.5
v 9.5 0 2.5
v 3.5 0 1.5
v 9.5 0 1.5
v -10.5 0 0.5
v -8.5 0 0.5
v -7.5 0 0.5
v -4.5 0 0.5
v -3.5 0 0.5
v 0.5 0 0.5
v 1.5 0 0.5
v 2.5 0 0.5
v 3.5 0 0.5
v 9.5 0 0.5
v -10.5 0 -0.5
v -8.5 0 -0.5
v -7.5 0 -0.5
v -4.5 0 -0.5
v -3.5 0 -0.5
v 0.5 0 -0.5
v 1.5 0 -0.5
v 2.5 0 -0.5
v 3.5 0 -0.5
v 9.5 0 -0.5
v 3.5 0 -1.5
v 9.5 0 -1.5
v 3.5 0 -2.5
v 9.5 0 -2.5
v 3.5 0 -3.5
v 9.5 0 -3.5
v 3.5 0 -4.5
v 9.5 0 -4.5
v 3.5 0 -5.5
v 9.5 0 -5.5
v -10.5 0 -6.5
v 2.5 0 -6.5
v 3.5 0 -6.5
v 10.5 0 -6.5
v -10.5 0 -7.5
v 2.5 0 -7.5
v 3.5 0 -7.5
v 10.5 0 -7.5
v -10.5 1 7.5
v -7.5 1 7.5
v -6.5 1 7.5
v 10.5 1 7.5
v -10.5 1 6.5
v -7.5 1 6.5
v -6.5 1 6.5
v 10.5 1 6.5
v 3.5 1 5.5
v 9.5 1 5.5
v 3.5 1 4.5
v 9.5 1 4.5
v 3.5 1 3.5
v 9.5 1 3.5
v 3.5 1 2.5
v 9.5 1 2.5
v 3.5 1 1.5
v 9.5 1 1.5
v -10.5 1 0.5
v -8.5 1 0.5
v -7.5 1 0.5
v -4.5 1 0.5
v -3.5 1 0.5
v 0.5 1 0.5
v 1.5 1 0.5
v 2.5 1 0.5
v 3.5 1 0.5
v 9.5 1 0.5
v -10.5 1 -0.5
v -8.5 1 -0.5
v -7.5 1 -0.5
v -4.5 1 -0.5
v -3.5 1 -0.5
v 0.5 1 -0.5
v 1.5 1 -0.5
v 2.5 1 -0.5
v 3.5 1 -0.5
v 9.5 1 -0.5
v 3.5 1 -1.5
v 9.5 1 -1.5
v 3.5 1 -2.5
v 9.5 1 -2.5
v 3.5 1 -3.5
v 9.5 1 -3.5
v 3.5 1 -4.5
v 9.5 1 -4.5
v 3.5 1 -5.5
v 9.5 1 -5.5
v -10.5 1 -6.5
v 2.5 1 -6.5
v 3.5 1 -6.5
v 10.5 1 -6.5
v -10.5 1 -7.5
v 2.5 1 -7.5
v 3.5 1 -7.5
v 10.5 1 -7.5

# faces
f 7/3/1 2/3/1 1/3/1
f 8/5/1 3/5/1 2/5/1
f 8/3/1 2/3/1 7/3/1
f 9/1/1 4/1/1 3/1/1
f 9/5/1 3/5/1 8/5/1
f 10/5/1 5/5/1 4/5/1
f 10/1/1 4/1/1 9/1/1
f 11/3/1 6/3/1 5/3/1
f 11/5/1 5/5/1 10/5/1
f 12/3/1 6/3/1 11/3/1
f 13/3/2 14/3/2 17/3/2
f 14/5/2 15/5/2 18/5/2
f 17/3/2 14/3/2 18/3/2
f 15/3/2 16/3/2 19/3/2
f 18/5/2 15/5/2 19/5/2
f 19/3/2 16/3/2 20/3/2
f 23/3/3 22/3/3 21/3/3
f 24/3/3 22/3/3 23/3/3
f 25/4/3 24/4/3 23/4/3
f 26/4/3 24/4/3 25/4/3
f 27/3/3 26/3/3 25/3/3
f 28/3/3 26/3/3 27/3/3
f 29/3/4 30/3/4 31/3/4
f 31/3/4 30/3/4 32/3/4
f 31/4/4 32/4/4 33/4/4
f 33/4/4 32/4/4 34/4/4
f 33/3/4 34/3/4 35/3/4
f 35/3/4 34/3/4 36/3/4
f 41/3/5 38/3/5 37/3/5
f 42/4/5 39/4/5 38/4/5
f 42/3/5 38/3/5 41/3/5
f 43/3/5 40/3/5 39/3/5
f 43/4/5 39/4/5 42/4/5
f 44/3/5 40/3/5 43/3/5
f 45/5/5 42/5/5 41/5/5
f 45/5/5 43/5/5 42/5/5
f 45/5/5 44/5/5 43/5/5
f 46/5/5 44/5/5 45/5/5
f 47/5/5 45/5/5 41/5/5
f 47/3/5 46/3/5 45/3/5
f 48/5/5 44/5/5 46/5/5
f 48/3/5 46/3/5 47/3/5
f 49/5/5 47/5/5 41/5/5
f 49/5/5 48/5/5 47/5/5
f 50/5/5 44/5/5 48/5/5
f 50/5/5 48/5/5 49/5/5
f 51/5/5 49/5/5 41/5/5
f 51/3/5 50/3/5 49/3/5
f 52/5/5 44/5/5 50/5/5
f 52/3/5 50/3/5 51/3/5
f 53/5/5 51/5/5 41/5/5
f 53/5/5 52/5/5 51/5/5
f 54/5/5 44/5/5 52/5/5
f 54/5/5 52/5/5 53/5/5
f 55/5/5 53/5/5 41/5/5
f 56/5/5 53/5/5 55/5/5
f 57/5/5 53/5/5 56/5/5
f 58/5/5 53/5/5 57/5/5
f 59/5/5 53/5/5 58/5/5
f 60/5/5 53/5/5 59/5/5
f 61/5/5 53/5/5 60/5/5
f 62/5/5 53/5/5 61/5/5
f 63/3/5 54/3/5 53/3/5
f 63/5/5 53/5/5 62/5/5
f 64/5/5 44/5/5 54/5/5
f 64/3/5 54/3/5 63/3/5
f 65/1/5 56/1/5 55/1/5
f 66/2/5 57/2/5 56/2/5
f 66/1/5 56/1/5 65/1/5
f 67/1/5 58/1/5 57/1/5
f 67/2/5 57/2/5 66/2/5
f 68/5/5 59/5/5 58/5/5
f 68/1/5 58/1/5 67/1/5
f 69/1/5 60/1/5 59/1/5
f 69/5/5 59/5/5 68/5/5
f 70/2/5 61/2/5 60/2/5
f 70/1/5 60/1/5 69/1/5
f 71/1/5 62/1/5 61/1/5
f 71/2/5 61/2/5 70/2/5
f 72/5/5 63/5/5 62/5/5
f 72/1/5 62/1/5 71/1/5
f 72/5/5 64/5/5 63/5/5
f 73/5/5 64/5/5 72/5/5
f 74/5/5 44/5/5 64/5/5
f 74/5/5 64/5/5 73/5/5
f 75/5/5 71/5/5 70/5/5
f 75/5/5 70/5/5 69/5/5
f 75/3/5 74/3/5 73/3/5
f 75/5/5 72/5/5 71/5/5
f 75/5/5 69/5/5 68/5/5
f 75/5/5 68/5/5 67/5/5
f 75/5/5 67/5/5 66/5/5
f 75/5/5 66/5/5 65/5/5
f 75/5/5 73/5/5 72/5/5
f 76/5/5 44/5/5 74/5/5
f 76/3/5 74/3/5 75/3/5
f 77/5/5 75/5/5 65/5/5
f 77/5/5 76/5/5 75/5/5
f 78/5/5 44/5/5 76/5/5
f 78/5/5 76/5/5 77/5/5
f 79/5/5 77/5/5 65/5/5
f 79/3/5 78/3/5 77/3/5
f 80/5/5 44/5/5 78/5/5
f 80/3/5 78/3/5 79/3/5
f 81/5/5 79/5/5 65/5/5
f 81/5/5 80/5/5 79/5/5
f 82/5/5 44/5/5 80/5/5
f 82/5/5 80/5/5 81/5/5
f 83/5/5 81/5/5 65/5/5
f 83/3/5 82/3/5 81/3/5
f 84/5/5 44/5/5 82/5/5
f 84/3/5 82/3/5 83/3/5
f 85/5/5 83/5/5 65/5/5
f 85/5/5 84/5/5 83/5/5
f 86/5/5 84/5/5 85/5/5
f 87/5/5 84/5/5 86/5/5
f 88/5/5 44/5/5 84/5/5
f 88/5/5 84/5/5 87/5/5
f 89/3/5 86/3/5 85/3/5
f 90/4/5 87/4/5 86/4/5
f 90/3/5 86/3/5 89/3/5
f 91/3/5 88/3/5 87/3/5
f 91/4/5 87/4/5 90/4/5
f 92/3/5 88/3/5 91/3/5
f 93/3/6 94/3/6 97/3/6
f 94/4/6 95/4/6 98/4/6
f 97/3/6 94/3/6 98/3/6
f 95/3/6 96/3/6 99/3/6
f 98/4/6 95/4/6 99/4/6
f 99/3/6 96/3/6 100/3/6
f 97/5/6 98/5/6 101/5/6
f 98/5/6 99/5/6 101/5/6
f 99/5/6 100/5/6 101/5/6
f 101/5/6 100/5/6 102/5/6
f 97/5/6 101/5/6 103/5/6
f 101/3/6 102/3/6 103/3/6
f 102/5/6 100/5/6 104/5/6
f 103/3/6 102/3/6 104/3/6
f 97/5/6 103/5/6 105/5/6
f 103/5/6 104/5/6 105/5/6
f 104/5/6 100/5/6 106/5/6
f 105/5/6 104/5/6 106/5/6
f 97/5/6 105/5/6 107/5/6
f 105/3/6 106/3/6 107/3/6
f 106/5/6 100/5/6 108/5/6
f 107/3/6 106/3/6 108/3/6
f 97/5/6 107/5/6 109/5/6
f 107/5/6 108/5/6 109/5/6
f 108/5/6 100/5/6 110/5/6
f 109/5/6 108/5/6 110/5/6
f 97/5/6 109/5/6 111/5/6
f 111/5/6 109/5/6 112/5/6
f 112/5/6 109/5/6 113/5/6
f 113/5/6 109/5/6 114/5/6
f 114/5/6 109/5/6 115/5/6
f 115/5/6 109/5/6 116/5/6
f 116/5/6 109/5/6 117/5/6
f 117/5/6 109/5/6 118/5/6
f 109/3/6 110/3/6 119/3/6
f 118/5/6 109/5/6 119/5/6
f 110/5/6 100/5/6 120/5/6
f 119/3/6 110/3/6 120/3/6
f 111/1/6 112/1/6 121/1/6
f 112/2/6 113/2/6 122/2/6
f 121/1/6 112/1/6 122/1/6
f 113/1/6 114/1/6 123/1/6
f 122/2/6 113/2/6 123/2/6
f 114/5/6 115/5/6 124/5/6
f 123/1/6 114/1/6 124/1/6
f 115/1/6 116/1/6 125/1/6
f 124/5/6 115/5/6 125/5/6
f 116/2/6 117/2/6 126/2/6
f 125/1/6 116/1/6 126/1/6
f 117/1/6 118/1/6 127/1/6
f 126/2/6 117/2/6 127/2/6
f 118/5/6 119/5/6 128/5/6
f 127/1/6 118/1/6 128/1/6
f 119/5/6 120/5/6 128/5/6
f 128/5/6 120/5/6 129/5/6
f 120/5/6 100/5/6 130/5/6
f 129/5/6 120/5/6 130/5/6
f 126/5/6 127/5/6 131/5/6
f 125/5/6 126/5/6 131/5/6
f 129/3/6 130/3/6 131/3/6
f 127/5/6 128/5/6 131/5/6
f 124/5/6 125/5/6 131/5/6
f 123/5/6 124/5/6 131/5/6
f 122/5/6 123/5/6 131/5/6
f 121/5/6 122/5/6 131/5/6
f 128/5/6 129/5/6 131/5/6
f 130/5/6 100/5/6 132/5/6
f 131/3/6 130/3/6 132/3/6
f 121/5/6 131/5/6 133/5/6
f 131/5/6 132/5/6 133/5/6
f 132/5/6 100/5/6 134/5/6
f 133/5/6 132/5/6 134/5/6
f 121/5/6 133/5/6 135/5/6
f 133/3/6 134/3/6 135/3/6
f 134/5/6 100/5/6 136/5/6
f 135/3/6 134/3/6 136/3/6
f 121/5/6 135/5/6 137/5/6
f 135/5/6 136/5/6 137/5/6
f 136/5/6 100/5/6 138/5/6
f 137/5/6 136/5/6 138/5/6
f 121/5/6 137/5/6 139/5/6
f 137/3/6 138/3/6 139/3/6
f 138/5/6 100/5/6 140/5/6
f 139/3/6 138/3/6 140/3/6
f 121/5/6 139/5/6 141/5/6
f 139/5/6 140/5/6 141/5/6
f 141/5/6 140/5/6 142/5/6
f 142/5/6 140/5/6 143/5/6
f 140/5/6 100/5/6 144/5/6
f 143/5/6 140/5/6 144/5/6
f 141/3/6 142/3/6 145/3/6
f 142/4/6 143/4/6 146/4/6
f 145/3/6 142/3/6 146/3/6
f 143/3/6 144/3/6 147/3/6
f 146/4/6 143/4/6 147/4/6
f 147/3/6 144/3/6 148/3/6
