# MagicaVoxel @ Ephtracy

# material
mtllib Road05B.mtl
usemtl palette

# normals
vn -1 0 0
vn 1 0 0
vn 0 0 1
vn 0 0 -1
vn 0 -1 0
vn 0 1 0

# texcoords
vt 0.876953 0.5
vt 0.888672 0.5
vt 0.970703 0.5

# verts
v -7.5 0 7.5
v -7.5 0 -7.5
v -7.5 1 7.5
v -7.5 1 -7.5
v 7.5 0 7.5
v 7.5 0 6.5
v 7.5 0 -6.5
v 7.5 0 -7.5
v 7.5 1 7.5
v 7.5 1 6.5
v 7.5 1 -6.5
v 7.5 1 -7.5
v -7.5 0 7.5
v -7.5 1 7.5
v 7.5 0 7.5
v 7.5 1 7.5
v -7.5 0 -7.5
v -7.5 1 -7.5
v -6.5 0 -7.5
v -6.5 1 -7.5
v 6.5 0 -7.5
v 6.5 1 -7.5
v 7.5 0 -7.5
v 7.5 1 -7.5
v -7.5 0 7.5
v 7.5 0 7.5
v -6.5 0 6.5
v -5.5 0 6.5
v -4.5 0 6.5
v -3.5 0 6.5
v -2.5 0 6.5
v -1.5 0 6.5
v -0.5 0 6.5
v 0.5 0 6.5
v 1.5 0 6.5
v 2.5 0 6.5
v 3.5 0 6.5
v 4.5 0 6.5
v 5.5 0 6.5
v 6.5 0 6.5
v 7.5 0 6.5
v -6.5 0 -6.5
v -5.5 0 -6.5
v -4.5 0 -6.5
v -3.5 0 -6.5
v -2.5 0 -6.5
v -1.5 0 -6.5
v -0.5 0 -6.5
v 0.5 0 -6.5
v 1.5 0 -6.5
v 2.5 0 -6.5
v 3.5 0 -6.5
v 4.5 0 -6.5
v 5.5 0 -6.5
v 6.5 0 -6.5
v 7.5 0 -6.5
v -7.5 0 -7.5
v -6.5 0 -7.5
v 6.5 0 -7.5
v 7.5 0 -7.5
v -7.5 1 7.5
v 7.5 1 7.5
v -6.5 1 6.5
v -5.5 1 6.5
v -4.5 1 6.5
v -3.5 1 6.5
v -2.5 1 6.5
v -1.5 1 6.5
v -0.5 1 6.5
v 0.5 1 6.5
v 1.5 1 6.5
v 2.5 1 6.5
v 3.5 1 6.5
v 4.5 1 6.5
v 5.5 1 6.5
v 6.5 1 6.5
v 7.5 1 6.5
v -6.5 1 -6.5
v -5.5 1 -6.5
v -4.5 1 -6.5
v -3.5 1 -6.5
v -2.5 1 -6.5
v -1.5 1 -6.5
v -0.5 1 -6.5
v 0.5 1 -6.5
v 1.5 1 -6.5
v 2.5 1 -6.5
v 3.5 1 -6.5
v 4.5 1 -6.5
v 5.5 1 -6.5
v 6.5 1 -6.5
v 7.5 1 -6.5
v -7.5 1 -7.5
v -6.5 1 -7.5
v 6.5 1 -7.5
v 7.5 1 -7.5

# faces
f 3/3/1 2/3/1 1/3/1
f 4/3/1 2/3/1 3/3/1
f 5/3/2 6/3/2 9/3/2
f 6/1/2 7/1/2 10/1/2
f 9/3/2 6/3/2 10/3/2
f 7/3/2 8/3/2 11/3/2
f 10/1/2 7/1/2 11/1/2
f 11/3/2 8/3/2 12/3/2
f 15/3/3 14/3/3 13/3/3
f 16/3/3 14/3/3 15/3/3
f 17/3/4 18/3/4 19/3/4
f 19/3/4 18/3/4 20/3/4
f 19/1/4 20/1/4 21/1/4
f 21/1/4 20/1/4 22/1/4
f 21/3/4 22/3/4 23/3/4
f 23/3/4 22/3/4 24/3/4
f 27/3/5 26/3/5 25/3/5
f 28/3/5 26/3/5 27/3/5
f 29/3/5 26/3/5 28/3/5
f 30/3/5 26/3/5 29/3/5
f 31/3/5 26/3/5 30/3/5
f 32/3/5 26/3/5 31/3/5
f 33/3/5 26/3/5 32/3/5
f 34/3/5 26/3/5 33/3/5
f 35/3/5 26/3/5 34/3/5
f 36/3/5 26/3/5 35/3/5
f 37/3/5 26/3/5 36/3/5
f 38/3/5 26/3/5 37/3/5
f 39/3/5 26/3/5 38/3/5
f 40/3/5 26/3/5 39/3/5
f 41/3/5 26/3/5 40/3/5
f 42/3/5 27/3/5 25/3/5
f 42/2/5 28/2/5 27/2/5
f 43/1/5 29/1/5 28/1/5
f 43/2/5 28/2/5 42/2/5
f 44/2/5 30/2/5 29/2/5
f 44/1/5 29/1/5 43/1/5
f 45/1/5 31/1/5 30/1/5
f 45/2/5 30/2/5 44/2/5
f 46/2/5 32/2/5 31/2/5
f 46/1/5 31/1/5 45/1/5
f 47/1/5 33/1/5 32/1/5
f 47/2/5 32/2/5 46/2/5
f 48/2/5 34/2/5 33/2/5
f 48/1/5 33/1/5 47/1/5
f 49/1/5 35/1/5 34/1/5
f 49/2/5 34/2/5 48/2/5
f 50/2/5 36/2/5 35/2/5
f 50/1/5 35/1/5 49/1/5
f 51/1/5 37/1/5 36/1/5
f 51/2/5 36/2/5 50/2/5
f 52/2/5 38/2/5 37/2/5
f 52/1/5 37/1/5 51/1/5
f 53/1/5 39/1/5 38/1/5
f 53/2/5 38/2/5 52/2/5
f 54/2/5 40/2/5 39/2/5
f 54/1/5 39/1/5 53/1/5
f 55/1/5 41/1/5 40/1/5
f 55/2/5 40/2/5 54/2/5
f 56/1/5 41/1/5 55/1/5
f 57/3/5 42/3/5 25/3/5
f 58/1/5 54/1/5 53/1/5
f 58/3/5 42/3/5 57/3/5
f 58/1/5 43/1/5 42/1/5
f 58/1/5 44/1/5 43/1/5
f 58/1/5 55/1/5 54/1/5
f 58/1/5 53/1/5 52/1/5
f 58/1/5 52/1/5 51/1/5
f 58/1/5 51/1/5 50/1/5
f 58/1/5 50/1/5 49/1/5
f 58/1/5 49/1/5 48/1/5
f 58/1/5 48/1/5 47/1/5
f 58/1/5 47/1/5 46/1/5
f 58/1/5 46/1/5 45/1/5
f 58/1/5 45/1/5 44/1/5
f 59/3/5 56/3/5 55/3/5
f 59/1/5 55/1/5 58/1/5
f 60/3/5 56/3/5 59/3/5
f 61/3/6 62/3/6 63/3/6
f 63/3/6 62/3/6 64/3/6
f 64/3/6 62/3/6 65/3/6
f 65/3/6 62/3/6 66/3/6
f 66/3/6 62/3/6 67/3/6
f 67/3/6 62/3/6 68/3/6
f 68/3/6 62/3/6 69/3/6
f 69/3/6 62/3/6 70/3/6
f 70/3/6 62/3/6 71/3/6
f 71/3/6 62/3/6 72/3/6
f 72/3/6 62/3/6 73/3/6
f 73/3/6 62/3/6 74/3/6
f 74/3/6 62/3/6 75/3/6
f 75/3/6 62/3/6 76/3/6
f 76/3/6 62/3/6 77/3/6
f 61/3/6 63/3/6 78/3/6
f 63/2/6 64/2/6 78/2/6
f 64/1/6 65/1/6 79/1/6
f 78/2/6 64/2/6 79/2/6
f 65/2/6 66/2/6 80/2/6
f 79/1/6 65/1/6 80/1/6
f 66/1/6 67/1/6 81/1/6
f 80/2/6 66/2/6 81/2/6
f 67/2/6 68/2/6 82/2/6
f 81/1/6 67/1/6 82/1/6
f 68/1/6 69/1/6 83/1/6
f 82/2/6 68/2/6 83/2/6
f 69/2/6 70/2/6 84/2/6
f 83/1/6 69/1/6 84/1/6
f 70/1/6 71/1/6 85/1/6
f 84/2/6 70/2/6 85/2/6
f 71/2/6 72/2/6 86/2/6
f 85/1/6 71/1/6 86/1/6
f 72/1/6 73/1/6 87/1/6
f 86/2/6 72/2/6 87/2/6
f 73/2/6 74/2/6 88/2/6
f 87/1/6 73/1/6 88/1/6
f 74/1/6 75/1/6 89/1/6
f 88/2/6 74/2/6 89/2/6
f 75/2/6 76/2/6 90/2/6
f 89/1/6 75/1/6 90/1/6
f 76/1/6 77/1/6 91/1/6
f 90/2/6 76/2/6 91/2/6
f 91/1/6 77/1/6 92/1/6
f 61/3/6 78/3/6 93/3/6
f 89/1/6 90/1/6 94/1/6
f 93/3/6 78/3/6 94/3/6
f 78/1/6 79/1/6 94/1/6
f 79/1/6 80/1/6 94/1/6
f 90/1/6 91/1/6 94/1/6
f 88/1/6 89/1/6 94/1/6
f 87/1/6 88/1/6 94/1/6
f 86/1/6 87/1/6 94/1/6
f 85/1/6 86/1/6 94/1/6
f 84/1/6 85/1/6 94/1/6
f 83/1/6 84/1/6 94/1/6
f 82/1/6 83/1/6 94/1/6
f 81/1/6 82/1/6 94/1/6
f 80/1/6 81/1/6 94/1/6
f 91/3/6 92/3/6 95/3/6
f 94/1/6 91/1/6 95/1/6
f 95/3/6 92/3/6 96/3/6
