# MagicaVoxel @ Ephtracy

# material
mtllib Road01B.mtl
usemtl palette

# normals
vn -1 0 0
vn 1 0 0
vn 0 0 1
vn 0 0 -1
vn 0 -1 0
vn 0 1 0

# texcoords
vt 0.908203 0.5
vt 0.970703 0.5
vt 0.974609 0.5
vt 0.982422 0.5
vt 0.990234 0.5

# verts
v -7.5 0 7.5
v -7.5 0 -7.5
v -7.5 1 7.5
v -7.5 1 -7.5
v 7.5 0 7.5
v 7.5 0 6.5
v 7.5 0 4.5
v 7.5 0 3.5
v 7.5 0 -6.5
v 7.5 0 -7.5
v 7.5 1 7.5
v 7.5 1 6.5
v 7.5 1 4.5
v 7.5 1 3.5
v 7.5 1 -6.5
v 7.5 1 -7.5
v -7.5 0 7.5
v -7.5 1 7.5
v 7.5 0 7.5
v 7.5 1 7.5
v -7.5 0 -7.5
v -7.5 1 -7.5
v -6.5 0 -7.5
v -6.5 1 -7.5
v -0.5 0 -7.5
v -0.5 1 -7.5
v 0.5 0 -7.5
v 0.5 1 -7.5
v 1.5 0 -7.5
v 1.5 1 -7.5
v 2.5 0 -7.5
v 2.5 1 -7.5
v 6.5 0 -7.5
v 6.5 1 -7.5
v 7.5 0 -7.5
v 7.5 1 -7.5
v -7.5 0 7.5
v 7.5 0 7.5
v -6.5 0 6.5
v 7.5 0 6.5
v -2.5 0 4.5
v -0.5 0 4.5
v 6.5 0 4.5
v 7.5 0 4.5
v -4.5 0 3.5
v -3.5 0 3.5
v -2.5 0 3.5
v -0.5 0 3.5
v 6.5 0 3.5
v 7.5 0 3.5
v -4.5 0 2.5
v -3.5 0 2.5
v 0.5 0 0.5
v 6.5 0 0.5
v 0.5 0 -0.5
v 6.5 0 -0.5
v -4.5 0 -2.5
v -3.5 0 -2.5
v -0.5 0 -2.5
v 0.5 0 -2.5
v -6.5 0 -3.5
v -5.5 0 -3.5
v -4.5 0 -3.5
v -3.5 0 -3.5
v -6.5 0 -4.5
v -5.5 0 -4.5
v 5.5 0 -4.5
v 6.5 0 -4.5
v 5.5 0 -5.5
v 6.5 0 -5.5
v 1.5 0 -6.5
v 2.5 0 -6.5
v 6.5 0 -6.5
v 7.5 0 -6.5
v -7.5 0 -7.5
v -6.5 0 -7.5
v -0.5 0 -7.5
v 0.5 0 -7.5
v 1.5 0 -7.5
v 2.5 0 -7.5
v 6.5 0 -7.5
v 7.5 0 -7.5
v -7.5 1 7.5
v 7.5 1 7.5
v -6.5 1 6.5
v 7.5 1 6.5
v -2.5 1 4.5
v -0.5 1 4.5
v 6.5 1 4.5
v 7.5 1 4.5
v -4.5 1 3.5
v -3.5 1 3.5
v -2.5 1 3.5
v -0.5 1 3.5
v 6.5 1 3.5
v 7.5 1 3.5
v -4.5 1 2.5
v -3.5 1 2.5
v 0.5 1 0.5
v 6.5 1 0.5
v 0.5 1 -0.5
v 6.5 1 -0.5
v -4.5 1 -2.5
v -3.5 1 -2.5
v -0.5 1 -2.5
v 0.5 1 -2.5
v -6.5 1 -3.5
v -5.5 1 -3.5
v -4.5 1 -3.5
v -3.5 1 -3.5
v -6.5 1 -4.5
v -5.5 1 -4.5
v 5.5 1 -4.5
v 6.5 1 -4.5
v 5.5 1 -5.5
v 6.5 1 -5.5
v 1.5 1 -6.5
v 2.5 1 -6.5
v 6.5 1 -6.5
v 7.5 1 -6.5
v -7.5 1 -7.5
v -6.5 1 -7.5
v -0.5 1 -7.5
v 0.5 1 -7.5
v 1.5 1 -7.5
v 2.5 1 -7.5
v 6.5 1 -7.5
v 7.5 1 -7.5

# faces
f 3/2/1 2/2/1 1/2/1
f 4/2/1 2/2/1 3/2/1
f 5/2/2 6/2/2 11/2/2
f 6/5/2 7/5/2 12/5/2
f 11/2/2 6/2/2 12/2/2
f 7/3/2 8/3/2 13/3/2
f 12/5/2 7/5/2 13/5/2
f 8/5/2 9/5/2 14/5/2
f 13/3/2 8/3/2 14/3/2
f 9/2/2 10/2/2 15/2/2
f 14/5/2 9/5/2 15/5/2
f 15/2/2 10/2/2 16/2/2
f 19/2/3 18/2/3 17/2/3
f 20/2/3 18/2/3 19/2/3
f 21/2/4 22/2/4 23/2/4
f 23/2/4 22/2/4 24/2/4
f 23/5/4 24/5/4 25/5/4
f 25/5/4 24/5/4 26/5/4
f 25/1/4 26/1/4 27/1/4
f 27/1/4 26/1/4 28/1/4
f 27/5/4 28/5/4 29/5/4
f 29/5/4 28/5/4 30/5/4
f 29/3/4 30/3/4 31/3/4
f 31/3/4 30/3/4 32/3/4
f 31/5/4 32/5/4 33/5/4
f 33/5/4 32/5/4 34/5/4
f 33/2/4 34/2/4 35/2/4
f 35/2/4 34/2/4 36/2/4
f 39/2/5 38/2/5 37/2/5
f 40/2/5 38/2/5 39/2/5
f 41/5/5 40/5/5 39/5/5
f 42/5/5 40/5/5 41/5/5
f 43/5/5 40/5/5 42/5/5
f 44/5/5 40/5/5 43/5/5
f 45/5/5 41/5/5 39/5/5
f 46/5/5 41/5/5 45/5/5
f 47/4/5 42/4/5 41/4/5
f 47/5/5 41/5/5 46/5/5
f 48/5/5 43/5/5 42/5/5
f 48/4/5 42/4/5 47/4/5
f 49/3/5 44/3/5 43/3/5
f 49/5/5 43/5/5 48/5/5
f 50/3/5 44/3/5 49/3/5
f 51/3/5 46/3/5 45/3/5
f 51/5/5 45/5/5 39/5/5
f 52/5/5 47/5/5 46/5/5
f 52/3/5 46/3/5 51/3/5
f 52/5/5 48/5/5 47/5/5
f 52/5/5 49/5/5 48/5/5
f 52/5/5 50/5/5 49/5/5
f 53/5/5 52/5/5 51/5/5
f 53/5/5 50/5/5 52/5/5
f 54/5/5 50/5/5 53/5/5
f 55/5/5 53/5/5 51/5/5
f 55/1/5 54/1/5 53/1/5
f 56/5/5 50/5/5 54/5/5
f 56/1/5 54/1/5 55/1/5
f 57/5/5 51/5/5 39/5/5
f 57/5/5 55/5/5 51/5/5
f 57/5/5 56/5/5 55/5/5
f 58/5/5 56/5/5 57/5/5
f 59/5/5 56/5/5 58/5/5
f 60/5/5 56/5/5 59/5/5
f 61/2/5 39/2/5 37/2/5
f 61/5/5 57/5/5 39/5/5
f 62/5/5 57/5/5 61/5/5
f 63/3/5 58/3/5 57/3/5
f 63/5/5 57/5/5 62/5/5
f 64/5/5 59/5/5 58/5/5
f 64/3/5 58/3/5 63/3/5
f 65/4/5 62/4/5 61/4/5
f 65/2/5 61/2/5 37/2/5
f 66/5/5 63/5/5 62/5/5
f 66/4/5 62/4/5 65/4/5
f 66/5/5 64/5/5 63/5/5
f 67/5/5 56/5/5 60/5/5
f 68/5/5 50/5/5 56/5/5
f 68/5/5 56/5/5 67/5/5
f 69/5/5 67/5/5 60/5/5
f 69/3/5 68/3/5 67/3/5
f 70/5/5 50/5/5 68/5/5
f 70/3/5 68/3/5 69/3/5
f 71/5/5 69/5/5 60/5/5
f 71/5/5 70/5/5 69/5/5
f 72/5/5 70/5/5 71/5/5
f 73/5/5 50/5/5 70/5/5
f 73/5/5 70/5/5 72/5/5
f 74/5/5 50/5/5 73/5/5
f 75/2/5 65/2/5 37/2/5
f 76/5/5 66/5/5 65/5/5
f 76/2/5 65/2/5 75/2/5
f 77/5/5 64/5/5 66/5/5
f 77/5/5 66/5/5 76/5/5
f 77/1/5 60/1/5 59/1/5
f 77/5/5 59/5/5 64/5/5
f 78/5/5 71/5/5 60/5/5
f 78/1/5 60/1/5 77/1/5
f 79/3/5 72/3/5 71/3/5
f 79/5/5 71/5/5 78/5/5
f 80/5/5 73/5/5 72/5/5
f 80/3/5 72/3/5 79/3/5
f 81/2/5 74/2/5 73/2/5
f 81/5/5 73/5/5 80/5/5
f 82/2/5 74/2/5 81/2/5
f 83/2/6 84/2/6 85/2/6
f 85/2/6 84/2/6 86/2/6
f 85/5/6 86/5/6 87/5/6
f 87/5/6 86/5/6 88/5/6
f 88/5/6 86/5/6 89/5/6
f 89/5/6 86/5/6 90/5/6
f 85/5/6 87/5/6 91/5/6
f 91/5/6 87/5/6 92/5/6
f 87/4/6 88/4/6 93/4/6
f 92/5/6 87/5/6 93/5/6
f 88/5/6 89/5/6 94/5/6
f 93/4/6 88/4/6 94/4/6
f 89/3/6 90/3/6 95/3/6
f 94/5/6 89/5/6 95/5/6
f 95/3/6 90/3/6 96/3/6
f 91/3/6 92/3/6 97/3/6
f 85/5/6 91/5/6 97/5/6
f 92/5/6 93/5/6 98/5/6
f 97/3/6 92/3/6 98/3/6
f 93/5/6 94/5/6 98/5/6
f 94/5/6 95/5/6 98/5/6
f 95/5/6 96/5/6 98/5/6
f 97/5/6 98/5/6 99/5/6
f 98/5/6 96/5/6 99/5/6
f 99/5/6 96/5/6 100/5/6
f 97/5/6 99/5/6 101/5/6
f 99/1/6 100/1/6 101/1/6
f 100/5/6 96/5/6 102/5/6
f 101/1/6 100/1/6 102/1/6
f 85/5/6 97/5/6 103/5/6
f 97/5/6 101/5/6 103/5/6
f 101/5/6 102/5/6 103/5/6
f 103/5/6 102/5/6 104/5/6
f 104/5/6 102/5/6 105/5/6
f 105/5/6 102/5/6 106/5/6
f 83/2/6 85/2/6 107/2/6
f 85/5/6 103/5/6 107/5/6
f 107/5/6 103/5/6 108/5/6
f 103/3/6 104/3/6 109/3/6
f 108/5/6 103/5/6 109/5/6
f 104/5/6 105/5/6 110/5/6
f 109/3/6 104/3/6 110/3/6
f 107/4/6 108/4/6 111/4/6
f 83/2/6 107/2/6 111/2/6
f 108/5/6 109/5/6 112/5/6
f 111/4/6 108/4/6 112/4/6
f 109/5/6 110/5/6 112/5/6
f 106/5/6 102/5/6 113/5/6
f 102/5/6 96/5/6 114/5/6
f 113/5/6 102/5/6 114/5/6
f 106/5/6 113/5/6 115/5/6
f 113/3/6 114/3/6 115/3/6
f 114/5/6 96/5/6 116/5/6
f 115/3/6 114/3/6 116/3/6
f 106/5/6 115/5/6 117/5/6
f 115/5/6 116/5/6 117/5/6
f 117/5/6 116/5/6 118/5/6
f 116/5/6 96/5/6 119/5/6
f 118/5/6 116/5/6 119/5/6
f 119/5/6 96/5/6 120/5/6
f 83/2/6 111/2/6 121/2/6
f 111/5/6 112/5/6 122/5/6
f 121/2/6 111/2/6 122/2/6
f 112/5/6 110/5/6 123/5/6
f 122/5/6 112/5/6 123/5/6
f 105/1/6 106/1/6 123/1/6
f 110/5/6 105/5/6 123/5/6
f 106/5/6 117/5/6 124/5/6
f 123/1/6 106/1/6 124/1/6
f 117/3/6 118/3/6 125/3/6
f 124/5/6 117/5/6 125/5/6
f 118/5/6 119/5/6 126/5/6
f 125/3/6 118/3/6 126/3/6
f 119/2/6 120/2/6 127/2/6
f 126/5/6 119/5/6 127/5/6
f 127/2/6 120/2/6 128/2/6
