# MagicaVoxel @ Ephtracy

# material
mtllib Road04A.mtl
usemtl palette

# normals
vn -1 0 0
vn 1 0 0
vn 0 0 1
vn 0 0 -1
vn 0 -1 0
vn 0 1 0

# texcoords
vt 0.908203 0.5
vt 0.912109 0.5
vt 0.970703 0.5
vt 0.982422 0.5
vt 0.986328 0.5

# verts
v -10.5 0 7.5
v -10.5 0 6.5
v -10.5 0 0.5
v -10.5 0 -0.5
v -10.5 0 -6.5
v -10.5 0 -7.5
v -10.5 1 7.5
v -10.5 1 6.5
v -10.5 1 0.5
v -10.5 1 -0.5
v -10.5 1 -6.5
v -10.5 1 -7.5
v 10.5 0 7.5
v 10.5 0 6.5
v 10.5 0 -6.5
v 10.5 0 -7.5
v 10.5 1 7.5
v 10.5 1 6.5
v 10.5 1 -6.5
v 10.5 1 -7.5
v -10.5 0 7.5
v -10.5 1 7.5
v -7.5 0 7.5
v -7.5 1 7.5
v -6.5 0 7.5
v -6.5 1 7.5
v 10.5 0 7.5
v 10.5 1 7.5
v -10.5 0 -7.5
v -10.5 1 -7.5
v 2.5 0 -7.5
v 2.5 1 -7.5
v 3.5 0 -7.5
v 3.5 1 -7.5
v 10.5 0 -7.5
v 10.5 1 -7.5
v -10.5 0 7.5
v -7.5 0 7.5
v -6.5 0 7.5
v 10.5 0 7.5
v -10.5 0 6.5
v -7.5 0 6.5
v -6.5 0 6.5
v 10.5 0 6.5
v -10.5 0 0.5
v -8.5 0 0.5
v -7.5 0 0.5
v -4.5 0 0.5
v -3.5 0 0.5
v 0.5 0 0.5
v 1.5 0 0.5
v 2.5 0 0.5
v 3.5 0 0.5
v 4.5 0 0.5
v 5.5 0 0.5
v 9.5 0 0.5
v -10.5 0 -0.5
v -8.5 0 -0.5
v -7.5 0 -0.5
v -4.5 0 -0.5
v -3.5 0 -0.5
v 0.5 0 -0.5
v 1.5 0 -0.5
v 2.5 0 -0.5
v 3.5 0 -0.5
v 4.5 0 -0.5
v 5.5 0 -0.5
v 9.5 0 -0.5
v -10.5 0 -6.5
v 2.5 0 -6.5
v 3.5 0 -6.5
v 10.5 0 -6.5
v -10.5 0 -7.5
v 2.5 0 -7.5
v 3.5 0 -7.5
v 10.5 0 -7.5
v -10.5 1 7.5
v -7.5 1 7.5
v -6.5 1 7.5
v 10.5 1 7.5
v -10.5 1 6.5
v -7.5 1 6.5
v -6.5 1 6.5
v 10.5 1 6.5
v -10.5 1 0.5
v -8.5 1 0.5
v -7.5 1 0.5
v -4.5 1 0.5
v -3.5 1 0.5
v 0.5 1 0.5
v 1.5 1 0.5
v 2.5 1 0.5
v 3.5 1 0.5
v 4.5 1 0.5
v 5.5 1 0.5
v 9.5 1 0.5
v -10.5 1 -0.5
v -8.5 1 -0.5
v -7.5 1 -0.5
v -4.5 1 -0.5
v -3.5 1 -0.5
v 0.5 1 -0.5
v 1.5 1 -0.5
v 2.5 1 -0.5
v 3.5 1 -0.5
v 4.5 1 -0.5
v 5.5 1 -0.5
v 9.5 1 -0.5
v -10.5 1 -6.5
v 2.5 1 -6.5
v 3.5 1 -6.5
v 10.5 1 -6.5
v -10.5 1 -7.5
v 2.5 1 -7.5
v 3.5 1 -7.5
v 10.5 1 -7.5

# faces
f 7/3/1 2/3/1 1/3/1
f 8/5/1 3/5/1 2/5/1
f 8/3/1 2/3/1 7/3/1
f 9/1/1 4/1/1 3/1/1
f 9/5/1 3/5/1 8/5/1
f 10/5/1 5/5/1 4/5/1
f 10/1/1 4/1/1 9/1/1
f 11/3/1 6/3/1 5/3/1
f 11/5/1 5/5/1 10/5/1
f 12/3/1 6/3/1 11/3/1
f 13/3/2 14/3/2 17/3/2
f 14/5/2 15/5/2 18/5/2
f 17/3/2 14/3/2 18/3/2
f 15/3/2 16/3/2 19/3/2
f 18/5/2 15/5/2 19/5/2
f 19/3/2 16/3/2 20/3/2
f 23/3/3 22/3/3 21/3/3
f 24/3/3 22/3/3 23/3/3
f 25/4/3 24/4/3 23/4/3
f 26/4/3 24/4/3 25/4/3
f 27/3/3 26/3/3 25/3/3
f 28/3/3 26/3/3 27/3/3
f 29/3/4 30/3/4 31/3/4
f 31/3/4 30/3/4 32/3/4
f 31/4/4 32/4/4 33/4/4
f 33/4/4 32/4/4 34/4/4
f 33/3/4 34/3/4 35/3/4
f 35/3/4 34/3/4 36/3/4
f 41/3/5 38/3/5 37/3/5
f 42/4/5 39/4/5 38/4/5
f 42/3/5 38/3/5 41/3/5
f 43/3/5 40/3/5 39/3/5
f 43/4/5 39/4/5 42/4/5
f 44/3/5 40/3/5 43/3/5
f 45/5/5 42/5/5 41/5/5
f 45/5/5 43/5/5 42/5/5
f 45/5/5 44/5/5 43/5/5
f 46/5/5 44/5/5 45/5/5
f 47/5/5 44/5/5 46/5/5
f 48/5/5 44/5/5 47/5/5
f 49/5/5 44/5/5 48/5/5
f 50/5/5 44/5/5 49/5/5
f 51/5/5 44/5/5 50/5/5
f 52/5/5 44/5/5 51/5/5
f 53/5/5 44/5/5 52/5/5
f 54/5/5 44/5/5 53/5/5
f 55/5/5 44/5/5 54/5/5
f 56/5/5 44/5/5 55/5/5
f 57/1/5 46/1/5 45/1/5
f 58/2/5 47/2/5 46/2/5
f 58/1/5 46/1/5 57/1/5
f 59/1/5 48/1/5 47/1/5
f 59/2/5 47/2/5 58/2/5
f 60/5/5 49/5/5 48/5/5
f 60/1/5 48/1/5 59/1/5
f 61/1/5 50/1/5 49/1/5
f 61/5/5 49/5/5 60/5/5
f 62/2/5 51/2/5 50/2/5
f 62/1/5 50/1/5 61/1/5
f 63/1/5 52/1/5 51/1/5
f 63/2/5 51/2/5 62/2/5
f 64/5/5 53/5/5 52/5/5
f 64/1/5 52/1/5 63/1/5
f 65/1/5 54/1/5 53/1/5
f 65/5/5 53/5/5 64/5/5
f 66/2/5 55/2/5 54/2/5
f 66/1/5 54/1/5 65/1/5
f 67/1/5 56/1/5 55/1/5
f 67/2/5 55/2/5 66/2/5
f 68/5/5 44/5/5 56/5/5
f 68/1/5 56/1/5 67/1/5
f 69/5/5 67/5/5 66/5/5
f 69/5/5 58/5/5 57/5/5
f 69/5/5 68/5/5 67/5/5
f 69/5/5 66/5/5 65/5/5
f 69/5/5 65/5/5 64/5/5
f 69/5/5 64/5/5 63/5/5
f 69/5/5 63/5/5 62/5/5
f 69/5/5 62/5/5 61/5/5
f 69/5/5 61/5/5 60/5/5
f 69/5/5 60/5/5 59/5/5
f 69/5/5 59/5/5 58/5/5
f 70/5/5 68/5/5 69/5/5
f 71/5/5 68/5/5 70/5/5
f 72/5/5 44/5/5 68/5/5
f 72/5/5 68/5/5 71/5/5
f 73/3/5 70/3/5 69/3/5
f 74/4/5 71/4/5 70/4/5
f 74/3/5 70/3/5 73/3/5
f 75/3/5 72/3/5 71/3/5
f 75/4/5 71/4/5 74/4/5
f 76/3/5 72/3/5 75/3/5
f 77/3/6 78/3/6 81/3/6
f 78/4/6 79/4/6 82/4/6
f 81/3/6 78/3/6 82/3/6
f 79/3/6 80/3/6 83/3/6
f 82/4/6 79/4/6 83/4/6
f 83/3/6 80/3/6 84/3/6
f 81/5/6 82/5/6 85/5/6
f 82/5/6 83/5/6 85/5/6
f 83/5/6 84/5/6 85/5/6
f 85/5/6 84/5/6 86/5/6
f 86/5/6 84/5/6 87/5/6
f 87/5/6 84/5/6 88/5/6
f 88/5/6 84/5/6 89/5/6
f 89/5/6 84/5/6 90/5/6
f 90/5/6 84/5/6 91/5/6
f 91/5/6 84/5/6 92/5/6
f 92/5/6 84/5/6 93/5/6
f 93/5/6 84/5/6 94/5/6
f 94/5/6 84/5/6 95/5/6
f 95/5/6 84/5/6 96/5/6
f 85/1/6 86/1/6 97/1/6
f 86/2/6 87/2/6 98/2/6
f 97/1/6 86/1/6 98/1/6
f 87/1/6 88/1/6 99/1/6
f 98/2/6 87/2/6 99/2/6
f 88/5/6 89/5/6 100/5/6
f 99/1/6 88/1/6 100/1/6
f 89/1/6 90/1/6 101/1/6
f 100/5/6 89/5/6 101/5/6
f 90/2/6 91/2/6 102/2/6
f 101/1/6 90/1/6 102/1/6
f 91/1/6 92/1/6 103/1/6
f 102/2/6 91/2/6 103/2/6
f 92/5/6 93/5/6 104/5/6
f 103/1/6 92/1/6 104/1/6
f 93/1/6 94/1/6 105/1/6
f 104/5/6 93/5/6 105/5/6
f 94/2/6 95/2/6 106/2/6
f 105/1/6 94/1/6 106/1/6
f 95/1/6 96/1/6 107/1/6
f 106/2/6 95/2/6 107/2/6
f 96/5/6 84/5/6 108/5/6
f 107/1/6 96/1/6 108/1/6
f 106/5/6 107/5/6 109/5/6
f 97/5/6 98/5/6 109/5/6
f 107/5/6 108/5/6 109/5/6
f 105/5/6 106/5/6 109/5/6
f 104/5/6 105/5/6 109/5/6
f 103/5/6 104/5/6 109/5/6
f 102/5/6 103/5/6 109/5/6
f 101/5/6 102/5/6 109/5/6
f 100/5/6 101/5/6 109/5/6
f 99/5/6 100/5/6 109/5/6
f 98/5/6 99/5/6 109/5/6
f 109/5/6 108/5/6 110/5/6
f 110/5/6 108/5/6 111/5/6
f 108/5/6 84/5/6 112/5/6
f 111/5/6 108/5/6 112/5/6
f 109/3/6 110/3/6 113/3/6
f 110/4/6 111/4/6 114/4/6
f 113/3/6 110/3/6 114/3/6
f 111/3/6 112/3/6 115/3/6
f 114/4/6 111/4/6 115/4/6
f 115/3/6 112/3/6 116/3/6
