# MagicaVoxel @ Ephtracy

# material
mtllib Road03A.mtl
usemtl palette

# normals
vn -1 0 0
vn 1 0 0
vn 0 0 1
vn 0 0 -1
vn 0 -1 0
vn 0 1 0

# texcoords
vt 0.787109 0.5
vt 0.791016 0.5
vt 0.794922 0.5
vt 0.798828 0.5
vt 0.970703 0.5

# verts
v -10.5 0 7.5
v -10.5 0 6.5
v -10.5 0 5.5
v -10.5 0 0.5
v -10.5 0 -0.5
v -10.5 0 -4.5
v -10.5 0 -5.5
v -10.5 0 -6.5
v -10.5 0 -7.5
v -10.5 1 7.5
v -10.5 1 6.5
v -10.5 1 5.5
v -10.5 1 0.5
v -10.5 1 -0.5
v -10.5 1 -4.5
v -10.5 1 -5.5
v -10.5 1 -6.5
v -10.5 1 -7.5
v 10.5 0 7.5
v 10.5 0 6.5
v 10.5 0 5.5
v 10.5 0 4.5
v 10.5 0 -4.5
v 10.5 0 -5.5
v 10.5 0 -6.5
v 10.5 0 -7.5
v 10.5 1 7.5
v 10.5 1 6.5
v 10.5 1 5.5
v 10.5 1 4.5
v 10.5 1 -4.5
v 10.5 1 -5.5
v 10.5 1 -6.5
v 10.5 1 -7.5
v -10.5 0 7.5
v -10.5 1 7.5
v 10.5 0 7.5
v 10.5 1 7.5
v -10.5 0 -7.5
v -10.5 1 -7.5
v 10.5 0 -7.5
v 10.5 1 -7.5
v -10.5 0 7.5
v 10.5 0 7.5
v -10.5 0 6.5
v -7.5 0 6.5
v 2.5 0 6.5
v 5.5 0 6.5
v 10.5 0 6.5
v -10.5 0 5.5
v -7.5 0 5.5
v 2.5 0 5.5
v 5.5 0 5.5
v 8.5 0 5.5
v 10.5 0 5.5
v 8.5 0 4.5
v 10.5 0 4.5
v -6.5 0 3.5
v -3.5 0 3.5
v -1.5 0 3.5
v 2.5 0 3.5
v -6.5 0 2.5
v -3.5 0 2.5
v -1.5 0 2.5
v 2.5 0 2.5
v 4.5 0 2.5
v 7.5 0 2.5
v 4.5 0 1.5
v 7.5 0 1.5
v -10.5 0 0.5
v -8.5 0 0.5
v -10.5 0 -0.5
v -8.5 0 -0.5
v -5.5 0 -1.5
v -2.5 0 -1.5
v 1.5 0 -1.5
v 4.5 0 -1.5
v -5.5 0 -2.5
v -2.5 0 -2.5
v 1.5 0 -2.5
v 4.5 0 -2.5
v 5.5 0 -3.5
v 8.5 0 -3.5
v -10.5 0 -4.5
v -8.5 0 -4.5
v -6.5 0 -4.5
v -4.5 0 -4.5
v -1.5 0 -4.5
v 1.5 0 -4.5
v 5.5 0 -4.5
v 8.5 0 -4.5
v 9.5 0 -4.5
v 10.5 0 -4.5
v -10.5 0 -5.5
v -8.5 0 -5.5
v -6.5 0 -5.5
v -4.5 0 -5.5
v -1.5 0 -5.5
v 1.5 0 -5.5
v 9.5 0 -5.5
v 10.5 0 -5.5
v -10.5 0 -6.5
v 10.5 0 -6.5
v -10.5 0 -7.5
v 10.5 0 -7.5
v -10.5 1 7.5
v 10.5 1 7.5
v -10.5 1 6.5
v -7.5 1 6.5
v 2.5 1 6.5
v 5.5 1 6.5
v 10.5 1 6.5
v -10.5 1 5.5
v -7.5 1 5.5
v 2.5 1 5.5
v 5.5 1 5.5
v 8.5 1 5.5
v 10.5 1 5.5
v 8.5 1 4.5
v 10.5 1 4.5
v -6.5 1 3.5
v -3.5 1 3.5
v -1.5 1 3.5
v 2.5 1 3.5
v -6.5 1 2.5
v -3.5 1 2.5
v -1.5 1 2.5
v 2.5 1 2.5
v 4.5 1 2.5
v 7.5 1 2.5
v 4.5 1 1.5
v 7.5 1 1.5
v -10.5 1 0.5
v -8.5 1 0.5
v -10.5 1 -0.5
v -8.5 1 -0.5
v -5.5 1 -1.5
v -2.5 1 -1.5
v 1.5 1 -1.5
v 4.5 1 -1.5
v -5.5 1 -2.5
v -2.5 1 -2.5
v 1.5 1 -2.5
v 4.5 1 -2.5
v 5.5 1 -3.5
v 8.5 1 -3.5
v -10.5 1 -4.5
v -8.5 1 -4.5
v -6.5 1 -4.5
v -4.5 1 -4.5
v -1.5 1 -4.5
v 1.5 1 -4.5
v 5.5 1 -4.5
v 8.5 1 -4.5
v 9.5 1 -4.5
v 10.5 1 -4.5
v -10.5 1 -5.5
v -8.5 1 -5.5
v -6.5 1 -5.5
v -4.5 1 -5.5
v -1.5 1 -5.5
v 1.5 1 -5.5
v 9.5 1 -5.5
v 10.5 1 -5.5
v -10.5 1 -6.5
v 10.5 1 -6.5
v -10.5 1 -7.5
v 10.5 1 -7.5

# faces
f 10/5/1 2/5/1 1/5/1
f 11/3/1 3/3/1 2/3/1
f 11/5/1 2/5/1 10/5/1
f 12/4/1 4/4/1 3/4/1
f 12/3/1 3/3/1 11/3/1
f 13/1/1 5/1/1 4/1/1
f 13/4/1 4/4/1 12/4/1
f 14/4/1 6/4/1 5/4/1
f 14/1/1 5/1/1 13/1/1
f 15/2/1 7/2/1 6/2/1
f 15/4/1 6/4/1 14/4/1
f 16/4/1 8/4/1 7/4/1
f 16/2/1 7/2/1 15/2/1
f 17/5/1 9/5/1 8/5/1
f 17/4/1 8/4/1 16/4/1
f 18/5/1 9/5/1 17/5/1
f 19/5/2 20/5/2 27/5/2
f 20/4/2 21/4/2 28/4/2
f 27/5/2 20/5/2 28/5/2
f 21/1/2 22/1/2 29/1/2
f 28/4/2 21/4/2 29/4/2
f 22/4/2 23/4/2 30/4/2
f 29/1/2 22/1/2 30/1/2
f 23/2/2 24/2/2 31/2/2
f 30/4/2 23/4/2 31/4/2
f 24/4/2 25/4/2 32/4/2
f 31/2/2 24/2/2 32/2/2
f 25/5/2 26/5/2 33/5/2
f 32/4/2 25/4/2 33/4/2
f 33/5/2 26/5/2 34/5/2
f 37/5/3 36/5/3 35/5/3
f 38/5/3 36/5/3 37/5/3
f 39/5/4 40/5/4 41/5/4
f 41/5/4 40/5/4 42/5/4
f 45/5/5 44/5/5 43/5/5
f 46/5/5 44/5/5 45/5/5
f 47/5/5 44/5/5 46/5/5
f 48/5/5 44/5/5 47/5/5
f 49/5/5 44/5/5 48/5/5
f 50/3/5 46/3/5 45/3/5
f 51/4/5 47/4/5 46/4/5
f 51/3/5 46/3/5 50/3/5
f 52/2/5 48/2/5 47/2/5
f 52/4/5 47/4/5 51/4/5
f 53/4/5 49/4/5 48/4/5
f 53/2/5 48/2/5 52/2/5
f 54/4/5 49/4/5 53/4/5
f 55/4/5 49/4/5 54/4/5
f 56/4/5 51/4/5 50/4/5
f 56/4/5 52/4/5 51/4/5
f 56/1/5 55/1/5 54/1/5
f 56/4/5 54/4/5 53/4/5
f 56/4/5 53/4/5 52/4/5
f 57/1/5 55/1/5 56/1/5
f 58/4/5 56/4/5 50/4/5
f 58/4/5 57/4/5 56/4/5
f 59/4/5 57/4/5 58/4/5
f 60/4/5 57/4/5 59/4/5
f 61/4/5 57/4/5 60/4/5
f 62/4/5 58/4/5 50/4/5
f 62/2/5 59/2/5 58/2/5
f 63/4/5 60/4/5 59/4/5
f 63/2/5 59/2/5 62/2/5
f 64/1/5 61/1/5 60/1/5
f 64/4/5 60/4/5 63/4/5
f 65/4/5 57/4/5 61/4/5
f 65/1/5 61/1/5 64/1/5
f 66/4/5 57/4/5 65/4/5
f 67/4/5 57/4/5 66/4/5
f 68/4/5 64/4/5 63/4/5
f 68/4/5 63/4/5 62/4/5
f 68/3/5 67/3/5 66/3/5
f 68/4/5 66/4/5 65/4/5
f 68/4/5 65/4/5 64/4/5
f 69/4/5 57/4/5 67/4/5
f 69/3/5 67/3/5 68/3/5
f 70/4/5 68/4/5 62/4/5
f 70/4/5 62/4/5 50/4/5
f 70/4/5 69/4/5 68/4/5
f 71/4/5 69/4/5 70/4/5
f 72/1/5 71/1/5 70/1/5
f 73/4/5 69/4/5 71/4/5
f 73/1/5 71/1/5 72/1/5
f 74/4/5 73/4/5 72/4/5
f 74/4/5 69/4/5 73/4/5
f 75/4/5 69/4/5 74/4/5
f 76/4/5 69/4/5 75/4/5
f 77/4/5 69/4/5 76/4/5
f 78/4/5 74/4/5 72/4/5
f 78/3/5 75/3/5 74/3/5
f 79/4/5 76/4/5 75/4/5
f 79/3/5 75/3/5 78/3/5
f 80/1/5 77/1/5 76/1/5
f 80/4/5 76/4/5 79/4/5
f 81/4/5 69/4/5 77/4/5
f 81/1/5 77/1/5 80/1/5
f 82/4/5 80/4/5 79/4/5
f 82/4/5 69/4/5 81/4/5
f 82/4/5 81/4/5 80/4/5
f 82/4/5 79/4/5 78/4/5
f 83/4/5 57/4/5 69/4/5
f 83/4/5 69/4/5 82/4/5
f 84/4/5 82/4/5 78/4/5
f 84/4/5 78/4/5 72/4/5
f 85/4/5 82/4/5 84/4/5
f 86/4/5 82/4/5 85/4/5
f 87/4/5 82/4/5 86/4/5
f 88/4/5 82/4/5 87/4/5
f 89/4/5 82/4/5 88/4/5
f 90/2/5 83/2/5 82/2/5
f 90/4/5 82/4/5 89/4/5
f 91/4/5 57/4/5 83/4/5
f 91/2/5 83/2/5 90/2/5
f 92/4/5 57/4/5 91/4/5
f 93/4/5 57/4/5 92/4/5
f 94/2/5 85/2/5 84/2/5
f 95/4/5 86/4/5 85/4/5
f 95/2/5 85/2/5 94/2/5
f 96/1/5 87/1/5 86/1/5
f 96/4/5 86/4/5 95/4/5
f 97/4/5 88/4/5 87/4/5
f 97/1/5 87/1/5 96/1/5
f 98/3/5 89/3/5 88/3/5
f 98/4/5 88/4/5 97/4/5
f 99/4/5 90/4/5 89/4/5
f 99/3/5 89/3/5 98/3/5
f 99/4/5 91/4/5 90/4/5
f 99/4/5 92/4/5 91/4/5
f 100/2/5 93/2/5 92/2/5
f 100/4/5 92/4/5 99/4/5
f 101/2/5 93/2/5 100/2/5
f 102/4/5 98/4/5 97/4/5
f 102/4/5 97/4/5 96/4/5
f 102/4/5 101/4/5 100/4/5
f 102/4/5 100/4/5 99/4/5
f 102/4/5 99/4/5 98/4/5
f 102/4/5 96/4/5 95/4/5
f 102/4/5 95/4/5 94/4/5
f 103/4/5 101/4/5 102/4/5
f 104/5/5 103/5/5 102/5/5
f 105/5/5 103/5/5 104/5/5
f 106/5/6 107/5/6 108/5/6
f 108/5/6 107/5/6 109/5/6
f 109/5/6 107/5/6 110/5/6
f 110/5/6 107/5/6 111/5/6
f 111/5/6 107/5/6 112/5/6
f 108/3/6 109/3/6 113/3/6
f 109/4/6 110/4/6 114/4/6
f 113/3/6 109/3/6 114/3/6
f 110/2/6 111/2/6 115/2/6
f 114/4/6 110/4/6 115/4/6
f 111/4/6 112/4/6 116/4/6
f 115/2/6 111/2/6 116/2/6
f 116/4/6 112/4/6 117/4/6
f 117/4/6 112/4/6 118/4/6
f 113/4/6 114/4/6 119/4/6
f 114/4/6 115/4/6 119/4/6
f 117/1/6 118/1/6 119/1/6
f 116/4/6 117/4/6 119/4/6
f 115/4/6 116/4/6 119/4/6
f 119/1/6 118/1/6 120/1/6
f 113/4/6 119/4/6 121/4/6
f 119/4/6 120/4/6 121/4/6
f 121/4/6 120/4/6 122/4/6
f 122/4/6 120/4/6 123/4/6
f 123/4/6 120/4/6 124/4/6
f 113/4/6 121/4/6 125/4/6
f 121/2/6 122/2/6 125/2/6
f 122/4/6 123/4/6 126/4/6
f 125/2/6 122/2/6 126/2/6
f 123/1/6 124/1/6 127/1/6
f 126/4/6 123/4/6 127/4/6
f 124/4/6 120/4/6 128/4/6
f 127/1/6 124/1/6 128/1/6
f 128/4/6 120/4/6 129/4/6
f 129/4/6 120/4/6 130/4/6
f 126/4/6 127/4/6 131/4/6
f 125/4/6 126/4/6 131/4/6
f 129/3/6 130/3/6 131/3/6
f 128/4/6 129/4/6 131/4/6
f 127/4/6 128/4/6 131/4/6
f 130/4/6 120/4/6 132/4/6
f 131/3/6 130/3/6 132/3/6
f 125/4/6 131/4/6 133/4/6
f 113/4/6 125/4/6 133/4/6
f 131/4/6 132/4/6 133/4/6
f 133/4/6 132/4/6 134/4/6
f 133/1/6 134/1/6 135/1/6
f 134/4/6 132/4/6 136/4/6
f 135/1/6 134/1/6 136/1/6
f 135/4/6 136/4/6 137/4/6
f 136/4/6 132/4/6 137/4/6
f 137/4/6 132/4/6 138/4/6
f 138/4/6 132/4/6 139/4/6
f 139/4/6 132/4/6 140/4/6
f 135/4/6 137/4/6 141/4/6
f 137/3/6 138/3/6 141/3/6
f 138/4/6 139/4/6 142/4/6
f 141/3/6 138/3/6 142/3/6
f 139/1/6 140/1/6 143/1/6
f 142/4/6 139/4/6 143/4/6
f 140/4/6 132/4/6 144/4/6
f 143/1/6 140/1/6 144/1/6
f 142/4/6 143/4/6 145/4/6
f 144/4/6 132/4/6 145/4/6
f 143/4/6 144/4/6 145/4/6
f 141/4/6 142/4/6 145/4/6
f 132/4/6 120/4/6 146/4/6
f 145/4/6 132/4/6 146/4/6
f 141/4/6 145/4/6 147/4/6
f 135/4/6 141/4/6 147/4/6
f 147/4/6 145/4/6 148/4/6
f 148/4/6 145/4/6 149/4/6
f 149/4/6 145/4/6 150/4/6
f 150/4/6 145/4/6 151/4/6
f 151/4/6 145/4/6 152/4/6
f 145/2/6 146/2/6 153/2/6
f 152/4/6 145/4/6 153/4/6
f 146/4/6 120/4/6 154/4/6
f 153/2/6 146/2/6 154/2/6
f 154/4/6 120/4/6 155/4/6
f 155/4/6 120/4/6 156/4/6
f 147/2/6 148/2/6 157/2/6
f 148/4/6 149/4/6 158/4/6
f 157/2/6 148/2/6 158/2/6
f 149/1/6 150/1/6 159/1/6
f 158/4/6 149/4/6 159/4/6
f 150/4/6 151/4/6 160/4/6
f 159/1/6 150/1/6 160/1/6
f 151/3/6 152/3/6 161/3/6
f 160/4/6 151/4/6 161/4/6
f 152/4/6 153/4/6 162/4/6
f 161/3/6 152/3/6 162/3/6
f 153/4/6 154/4/6 162/4/6
f 154/4/6 155/4/6 162/4/6
f 155/2/6 156/2/6 163/2/6
f 162/4/6 155/4/6 163/4/6
f 163/2/6 156/2/6 164/2/6
f 160/4/6 161/4/6 165/4/6
f 159/4/6 160/4/6 165/4/6
f 163/4/6 164/4/6 165/4/6
f 162/4/6 163/4/6 165/4/6
f 161/4/6 162/4/6 165/4/6
f 158/4/6 159/4/6 165/4/6
f 157/4/6 158/4/6 165/4/6
f 165/4/6 164/4/6 166/4/6
f 165/5/6 166/5/6 167/5/6
f 167/5/6 166/5/6 168/5/6
