# MagicaVoxel @ Ephtracy

# material
mtllib Road05C.mtl
usemtl palette

# normals
vn -1 0 0
vn 1 0 0
vn 0 0 1
vn 0 0 -1
vn 0 -1 0
vn 0 1 0

# texcoords
vt 0.876953 0.5
vt 0.888672 0.5
vt 0.970703 0.5

# verts
v -7.5 0 7.5
v -7.5 0 6.5
v -7.5 0 5.5
v -7.5 0 4.5
v -7.5 0 3.5
v -7.5 0 2.5
v -7.5 0 1.5
v -7.5 0 0.5
v -7.5 0 -0.5
v -7.5 0 -1.5
v -7.5 0 -2.5
v -7.5 0 -3.5
v -7.5 0 -4.5
v -7.5 0 -5.5
v -7.5 0 -6.5
v -7.5 0 -7.5
v -7.5 1 7.5
v -7.5 1 6.5
v -7.5 1 5.5
v -7.5 1 4.5
v -7.5 1 3.5
v -7.5 1 2.5
v -7.5 1 1.5
v -7.5 1 0.5
v -7.5 1 -0.5
v -7.5 1 -1.5
v -7.5 1 -2.5
v -7.5 1 -3.5
v -7.5 1 -4.5
v -7.5 1 -5.5
v -7.5 1 -6.5
v -7.5 1 -7.5
v 7.5 0 7.5
v 7.5 0 6.5
v 7.5 0 5.5
v 7.5 0 4.5
v 7.5 0 3.5
v 7.5 0 2.5
v 7.5 0 1.5
v 7.5 0 0.5
v 7.5 0 -0.5
v 7.5 0 -1.5
v 7.5 0 -2.5
v 7.5 0 -3.5
v 7.5 0 -4.5
v 7.5 0 -5.5
v 7.5 0 -6.5
v 7.5 0 -7.5
v 7.5 1 7.5
v 7.5 1 6.5
v 7.5 1 5.5
v 7.5 1 4.5
v 7.5 1 3.5
v 7.5 1 2.5
v 7.5 1 1.5
v 7.5 1 0.5
v 7.5 1 -0.5
v 7.5 1 -1.5
v 7.5 1 -2.5
v 7.5 1 -3.5
v 7.5 1 -4.5
v 7.5 1 -5.5
v 7.5 1 -6.5
v 7.5 1 -7.5
v -7.5 0 7.5
v -7.5 1 7.5
v -6.5 0 7.5
v -6.5 1 7.5
v 6.5 0 7.5
v 6.5 1 7.5
v 7.5 0 7.5
v 7.5 1 7.5
v -7.5 0 -7.5
v -7.5 1 -7.5
v -6.5 0 -7.5
v -6.5 1 -7.5
v 6.5 0 -7.5
v 6.5 1 -7.5
v 7.5 0 -7.5
v 7.5 1 -7.5
v -7.5 0 7.5
v -6.5 0 7.5
v 6.5 0 7.5
v 7.5 0 7.5
v -7.5 0 6.5
v -6.5 0 6.5
v 6.5 0 6.5
v 7.5 0 6.5
v -7.5 0 5.5
v 7.5 0 5.5
v -7.5 0 4.5
v 7.5 0 4.5
v -7.5 0 3.5
v 7.5 0 3.5
v -7.5 0 2.5
v 7.5 0 2.5
v -7.5 0 1.5
v 7.5 0 1.5
v -7.5 0 0.5
v 7.5 0 0.5
v -7.5 0 -0.5
v 7.5 0 -0.5
v -7.5 0 -1.5
v 7.5 0 -1.5
v -7.5 0 -2.5
v 7.5 0 -2.5
v -7.5 0 -3.5
v 7.5 0 -3.5
v -7.5 0 -4.5
v 7.5 0 -4.5
v -7.5 0 -5.5
v 7.5 0 -5.5
v -7.5 0 -6.5
v -6.5 0 -6.5
v 6.5 0 -6.5
v 7.5 0 -6.5
v -7.5 0 -7.5
v -6.5 0 -7.5
v 6.5 0 -7.5
v 7.5 0 -7.5
v -7.5 1 7.5
v -6.5 1 7.5
v 6.5 1 7.5
v 7.5 1 7.5
v -7.5 1 6.5
v -6.5 1 6.5
v 6.5 1 6.5
v 7.5 1 6.5
v -7.5 1 5.5
v 7.5 1 5.5
v -7.5 1 4.5
v 7.5 1 4.5
v -7.5 1 3.5
v 7.5 1 3.5
v -7.5 1 2.5
v 7.5 1 2.5
v -7.5 1 1.5
v 7.5 1 1.5
v -7.5 1 0.5
v 7.5 1 0.5
v -7.5 1 -0.5
v 7.5 1 -0.5
v -7.5 1 -1.5
v 7.5 1 -1.5
v -7.5 1 -2.5
v 7.5 1 -2.5
v -7.5 1 -3.5
v 7.5 1 -3.5
v -7.5 1 -4.5
v 7.5 1 -4.5
v -7.5 1 -5.5
v 7.5 1 -5.5
v -7.5 1 -6.5
v -6.5 1 -6.5
v 6.5 1 -6.5
v 7.5 1 -6.5
v -7.5 1 -7.5
v -6.5 1 -7.5
v 6.5 1 -7.5
v 7.5 1 -7.5

# faces
f 17/3/1 2/3/1 1/3/1
f 18/1/1 3/1/1 2/1/1
f 18/3/1 2/3/1 17/3/1
f 19/2/1 4/2/1 3/2/1
f 19/1/1 3/1/1 18/1/1
f 20/1/1 5/1/1 4/1/1
f 20/2/1 4/2/1 19/2/1
f 21/2/1 6/2/1 5/2/1
f 21/1/1 5/1/1 20/1/1
f 22/1/1 7/1/1 6/1/1
f 22/2/1 6/2/1 21/2/1
f 23/2/1 8/2/1 7/2/1
f 23/1/1 7/1/1 22/1/1
f 24/1/1 9/1/1 8/1/1
f 24/2/1 8/2/1 23/2/1
f 25/2/1 10/2/1 9/2/1
f 25/1/1 9/1/1 24/1/1
f 26/1/1 11/1/1 10/1/1
f 26/2/1 10/2/1 25/2/1
f 27/2/1 12/2/1 11/2/1
f 27/1/1 11/1/1 26/1/1
f 28/1/1 13/1/1 12/1/1
f 28/2/1 12/2/1 27/2/1
f 29/2/1 14/2/1 13/2/1
f 29/1/1 13/1/1 28/1/1
f 30/1/1 15/1/1 14/1/1
f 30/2/1 14/2/1 29/2/1
f 31/3/1 16/3/1 15/3/1
f 31/1/1 15/1/1 30/1/1
f 32/3/1 16/3/1 31/3/1
f 33/3/2 34/3/2 49/3/2
f 34/1/2 35/1/2 50/1/2
f 49/3/2 34/3/2 50/3/2
f 35/2/2 36/2/2 51/2/2
f 50/1/2 35/1/2 51/1/2
f 36/1/2 37/1/2 52/1/2
f 51/2/2 36/2/2 52/2/2
f 37/2/2 38/2/2 53/2/2
f 52/1/2 37/1/2 53/1/2
f 38/1/2 39/1/2 54/1/2
f 53/2/2 38/2/2 54/2/2
f 39/2/2 40/2/2 55/2/2
f 54/1/2 39/1/2 55/1/2
f 40/1/2 41/1/2 56/1/2
f 55/2/2 40/2/2 56/2/2
f 41/2/2 42/2/2 57/2/2
f 56/1/2 41/1/2 57/1/2
f 42/1/2 43/1/2 58/1/2
f 57/2/2 42/2/2 58/2/2
f 43/2/2 44/2/2 59/2/2
f 58/1/2 43/1/2 59/1/2
f 44/1/2 45/1/2 60/1/2
f 59/2/2 44/2/2 60/2/2
f 45/2/2 46/2/2 61/2/2
f 60/1/2 45/1/2 61/1/2
f 46/1/2 47/1/2 62/1/2
f 61/2/2 46/2/2 62/2/2
f 47/3/2 48/3/2 63/3/2
f 62/1/2 47/1/2 63/1/2
f 63/3/2 48/3/2 64/3/2
f 67/3/3 66/3/3 65/3/3
f 68/3/3 66/3/3 67/3/3
f 69/2/3 68/2/3 67/2/3
f 70/2/3 68/2/3 69/2/3
f 71/3/3 70/3/3 69/3/3
f 72/3/3 70/3/3 71/3/3
f 73/3/4 74/3/4 75/3/4
f 75/3/4 74/3/4 76/3/4
f 75/2/4 76/2/4 77/2/4
f 77/2/4 76/2/4 78/2/4
f 77/3/4 78/3/4 79/3/4
f 79/3/4 78/3/4 80/3/4
f 85/3/5 82/3/5 81/3/5
f 86/2/5 83/2/5 82/2/5
f 86/3/5 82/3/5 85/3/5
f 87/3/5 84/3/5 83/3/5
f 87/2/5 83/2/5 86/2/5
f 88/3/5 84/3/5 87/3/5
f 89/1/5 86/1/5 85/1/5
f 89/1/5 87/1/5 86/1/5
f 89/1/5 88/1/5 87/1/5
f 90/1/5 88/1/5 89/1/5
f 91/2/5 90/2/5 89/2/5
f 92/2/5 90/2/5 91/2/5
f 93/1/5 92/1/5 91/1/5
f 94/1/5 92/1/5 93/1/5
f 95/2/5 94/2/5 93/2/5
f 96/2/5 94/2/5 95/2/5
f 97/1/5 96/1/5 95/1/5
f 98/1/5 96/1/5 97/1/5
f 99/2/5 98/2/5 97/2/5
f 100/2/5 98/2/5 99/2/5
f 101/1/5 100/1/5 99/1/5
f 102/1/5 100/1/5 101/1/5
f 103/2/5 102/2/5 101/2/5
f 104/2/5 102/2/5 103/2/5
f 105/1/5 104/1/5 103/1/5
f 106/1/5 104/1/5 105/1/5
f 107/2/5 106/2/5 105/2/5
f 108/2/5 106/2/5 107/2/5
f 109/1/5 108/1/5 107/1/5
f 110/1/5 108/1/5 109/1/5
f 111/2/5 110/2/5 109/2/5
f 112/2/5 110/2/5 111/2/5
f 113/1/5 112/1/5 111/1/5
f 114/1/5 112/1/5 113/1/5
f 115/1/5 112/1/5 114/1/5
f 116/1/5 112/1/5 115/1/5
f 117/3/5 114/3/5 113/3/5
f 118/2/5 115/2/5 114/2/5
f 118/3/5 114/3/5 117/3/5
f 119/3/5 116/3/5 115/3/5
f 119/2/5 115/2/5 118/2/5
f 120/3/5 116/3/5 119/3/5
f 121/3/6 122/3/6 125/3/6
f 122/2/6 123/2/6 126/2/6
f 125/3/6 122/3/6 126/3/6
f 123/3/6 124/3/6 127/3/6
f 126/2/6 123/2/6 127/2/6
f 127/3/6 124/3/6 128/3/6
f 125/1/6 126/1/6 129/1/6
f 126/1/6 127/1/6 129/1/6
f 127/1/6 128/1/6 129/1/6
f 129/1/6 128/1/6 130/1/6
f 129/2/6 130/2/6 131/2/6
f 131/2/6 130/2/6 132/2/6
f 131/1/6 132/1/6 133/1/6
f 133/1/6 132/1/6 134/1/6
f 133/2/6 134/2/6 135/2/6
f 135/2/6 134/2/6 136/2/6
f 135/1/6 136/1/6 137/1/6
f 137/1/6 136/1/6 138/1/6
f 137/2/6 138/2/6 139/2/6
f 139/2/6 138/2/6 140/2/6
f 139/1/6 140/1/6 141/1/6
f 141/1/6 140/1/6 142/1/6
f 141/2/6 142/2/6 143/2/6
f 143/2/6 142/2/6 144/2/6
f 143/1/6 144/1/6 145/1/6
f 145/1/6 144/1/6 146/1/6
f 145/2/6 146/2/6 147/2/6
f 147/2/6 146/2/6 148/2/6
f 147/1/6 148/1/6 149/1/6
f 149/1/6 148/1/6 150/1/6
f 149/2/6 150/2/6 151/2/6
f 151/2/6 150/2/6 152/2/6
f 151/1/6 152/1/6 153/1/6
f 153/1/6 152/1/6 154/1/6
f 154/1/6 152/1/6 155/1/6
f 155/1/6 152/1/6 156/1/6
f 153/3/6 154/3/6 157/3/6
f 154/2/6 155/2/6 158/2/6
f 157/3/6 154/3/6 158/3/6
f 155/3/6 156/3/6 159/3/6
f 158/2/6 155/2/6 159/2/6
f 159/3/6 156/3/6 160/3/6
