# MagicaVoxel @ Ephtracy

# material
mtllib Road04B.mtl
usemtl palette

# normals
vn -1 0 0
vn 1 0 0
vn 0 0 1
vn 0 0 -1
vn 0 -1 0
vn 0 1 0

# texcoords
vt 0.908203 0.5
vt 0.970703 0.5
vt 0.986328 0.5

# verts
v -7.5 0 7.5
v -7.5 0 -7.5
v -7.5 1 7.5
v -7.5 1 -7.5
v 7.5 0 7.5
v 7.5 0 6.5
v 7.5 0 -6.5
v 7.5 0 -7.5
v 7.5 1 7.5
v 7.5 1 6.5
v 7.5 1 -6.5
v 7.5 1 -7.5
v -7.5 0 7.5
v -7.5 1 7.5
v 7.5 0 7.5
v 7.5 1 7.5
v -7.5 0 -7.5
v -7.5 1 -7.5
v -6.5 0 -7.5
v -6.5 1 -7.5
v -0.5 0 -7.5
v -0.5 1 -7.5
v 0.5 0 -7.5
v 0.5 1 -7.5
v 6.5 0 -7.5
v 6.5 1 -7.5
v 7.5 0 -7.5
v 7.5 1 -7.5
v -7.5 0 7.5
v 7.5 0 7.5
v -6.5 0 6.5
v 7.5 0 6.5
v 0.5 0 0.5
v 6.5 0 0.5
v 0.5 0 -0.5
v 6.5 0 -0.5
v -0.5 0 -2.5
v 0.5 0 -2.5
v 6.5 0 -6.5
v 7.5 0 -6.5
v -7.5 0 -7.5
v -6.5 0 -7.5
v -0.5 0 -7.5
v 0.5 0 -7.5
v 6.5 0 -7.5
v 7.5 0 -7.5
v -7.5 1 7.5
v 7.5 1 7.5
v -6.5 1 6.5
v 7.5 1 6.5
v 0.5 1 0.5
v 6.5 1 0.5
v 0.5 1 -0.5
v 6.5 1 -0.5
v -0.5 1 -2.5
v 0.5 1 -2.5
v 6.5 1 -6.5
v 7.5 1 -6.5
v -7.5 1 -7.5
v -6.5 1 -7.5
v -0.5 1 -7.5
v 0.5 1 -7.5
v 6.5 1 -7.5
v 7.5 1 -7.5

# faces
f 3/2/1 2/2/1 1/2/1
f 4/2/1 2/2/1 3/2/1
f 5/2/2 6/2/2 9/2/2
f 6/3/2 7/3/2 10/3/2
f 9/2/2 6/2/2 10/2/2
f 7/2/2 8/2/2 11/2/2
f 10/3/2 7/3/2 11/3/2
f 11/2/2 8/2/2 12/2/2
f 15/2/3 14/2/3 13/2/3
f 16/2/3 14/2/3 15/2/3
f 17/2/4 18/2/4 19/2/4
f 19/2/4 18/2/4 20/2/4
f 19/3/4 20/3/4 21/3/4
f 21/3/4 20/3/4 22/3/4
f 21/1/4 22/1/4 23/1/4
f 23/1/4 22/1/4 24/1/4
f 23/3/4 24/3/4 25/3/4
f 25/3/4 24/3/4 26/3/4
f 25/2/4 26/2/4 27/2/4
f 27/2/4 26/2/4 28/2/4
f 31/2/5 30/2/5 29/2/5
f 32/2/5 30/2/5 31/2/5
f 33/3/5 32/3/5 31/3/5
f 34/3/5 32/3/5 33/3/5
f 35/3/5 33/3/5 31/3/5
f 35/1/5 34/1/5 33/1/5
f 36/3/5 32/3/5 34/3/5
f 36/1/5 34/1/5 35/1/5
f 37/3/5 35/3/5 31/3/5
f 37/3/5 36/3/5 35/3/5
f 38/3/5 36/3/5 37/3/5
f 39/3/5 32/3/5 36/3/5
f 39/3/5 36/3/5 38/3/5
f 40/3/5 32/3/5 39/3/5
f 41/2/5 31/2/5 29/2/5
f 42/3/5 37/3/5 31/3/5
f 42/2/5 31/2/5 41/2/5
f 43/1/5 38/1/5 37/1/5
f 43/3/5 37/3/5 42/3/5
f 44/3/5 39/3/5 38/3/5
f 44/1/5 38/1/5 43/1/5
f 45/2/5 40/2/5 39/2/5
f 45/3/5 39/3/5 44/3/5
f 46/2/5 40/2/5 45/2/5
f 47/2/6 48/2/6 49/2/6
f 49/2/6 48/2/6 50/2/6
f 49/3/6 50/3/6 51/3/6
f 51/3/6 50/3/6 52/3/6
f 49/3/6 51/3/6 53/3/6
f 51/1/6 52/1/6 53/1/6
f 52/3/6 50/3/6 54/3/6
f 53/1/6 52/1/6 54/1/6
f 49/3/6 53/3/6 55/3/6
f 53/3/6 54/3/6 55/3/6
f 55/3/6 54/3/6 56/3/6
f 54/3/6 50/3/6 57/3/6
f 56/3/6 54/3/6 57/3/6
f 57/3/6 50/3/6 58/3/6
f 47/2/6 49/2/6 59/2/6
f 49/3/6 55/3/6 60/3/6
f 59/2/6 49/2/6 60/2/6
f 55/1/6 56/1/6 61/1/6
f 60/3/6 55/3/6 61/3/6
f 56/3/6 57/3/6 62/3/6
f 61/1/6 56/1/6 62/1/6
f 57/2/6 58/2/6 63/2/6
f 62/3/6 57/3/6 63/3/6
f 63/2/6 58/2/6 64/2/6
