# MagicaVoxel @ Ephtracy

# material
mtllib Road01C.mtl
usemtl palette

# normals
vn -1 0 0
vn 1 0 0
vn 0 0 1
vn 0 0 -1
vn 0 -1 0
vn 0 1 0

# texcoords
vt 0.908203 0.5
vt 0.970703 0.5
vt 0.986328 0.5
vt 0.990234 0.5

# verts
v -7.5 0 7.5
v -7.5 0 6.5
v -7.5 0 3.5
v -7.5 0 2.5
v -7.5 0 -6.5
v -7.5 0 -7.5
v -7.5 1 7.5
v -7.5 1 6.5
v -7.5 1 3.5
v -7.5 1 2.5
v -7.5 1 -6.5
v -7.5 1 -7.5
v 7.5 0 7.5
v 7.5 0 6.5
v 7.5 0 -6.5
v 7.5 0 -7.5
v 7.5 1 7.5
v 7.5 1 6.5
v 7.5 1 -6.5
v 7.5 1 -7.5
v -7.5 0 7.5
v -7.5 1 7.5
v -6.5 0 7.5
v -6.5 1 7.5
v 4.5 0 7.5
v 4.5 1 7.5
v 5.5 0 7.5
v 5.5 1 7.5
v 6.5 0 7.5
v 6.5 1 7.5
v 7.5 0 7.5
v 7.5 1 7.5
v -7.5 0 -7.5
v -7.5 1 -7.5
v -6.5 0 -7.5
v -6.5 1 -7.5
v -4.5 0 -7.5
v -4.5 1 -7.5
v -3.5 0 -7.5
v -3.5 1 -7.5
v 6.5 0 -7.5
v 6.5 1 -7.5
v 7.5 0 -7.5
v 7.5 1 -7.5
v -7.5 0 7.5
v -6.5 0 7.5
v 4.5 0 7.5
v 5.5 0 7.5
v 6.5 0 7.5
v 7.5 0 7.5
v -7.5 0 6.5
v -6.5 0 6.5
v -5.5 0 6.5
v 4.5 0 6.5
v 5.5 0 6.5
v 6.5 0 6.5
v 7.5 0 6.5
v -4.5 0 5.5
v 4.5 0 5.5
v -7.5 0 3.5
v -6.5 0 3.5
v -7.5 0 2.5
v -6.5 0 2.5
v 1.5 0 -2.5
v 2.5 0 -2.5
v 1.5 0 -3.5
v 2.5 0 -3.5
v -4.5 0 -5.5
v 4.5 0 -5.5
v -7.5 0 -6.5
v -6.5 0 -6.5
v -5.5 0 -6.5
v -4.5 0 -6.5
v -3.5 0 -6.5
v 5.5 0 -6.5
v 6.5 0 -6.5
v 7.5 0 -6.5
v -7.5 0 -7.5
v -6.5 0 -7.5
v -4.5 0 -7.5
v -3.5 0 -7.5
v 6.5 0 -7.5
v 7.5 0 -7.5
v -7.5 1 7.5
v -6.5 1 7.5
v 4.5 1 7.5
v 5.5 1 7.5
v 6.5 1 7.5
v 7.5 1 7.5
v -7.5 1 6.5
v -6.5 1 6.5
v -5.5 1 6.5
v 4.5 1 6.5
v 5.5 1 6.5
v 6.5 1 6.5
v 7.5 1 6.5
v -4.5 1 5.5
v 4.5 1 5.5
v -7.5 1 3.5
v -6.5 1 3.5
v -7.5 1 2.5
v -6.5 1 2.5
v 1.5 1 -2.5
v 2.5 1 -2.5
v 1.5 1 -3.5
v 2.5 1 -3.5
v -4.5 1 -5.5
v 4.5 1 -5.5
v -7.5 1 -6.5
v -6.5 1 -6.5
v -5.5 1 -6.5
v -4.5 1 -6.5
v -3.5 1 -6.5
v 5.5 1 -6.5
v 6.5 1 -6.5
v 7.5 1 -6.5
v -7.5 1 -7.5
v -6.5 1 -7.5
v -4.5 1 -7.5
v -3.5 1 -7.5
v 6.5 1 -7.5
v 7.5 1 -7.5

# faces
f 7/2/1 2/2/1 1/2/1
f 8/4/1 3/4/1 2/4/1
f 8/2/1 2/2/1 7/2/1
f 9/3/1 4/3/1 3/3/1
f 9/4/1 3/4/1 8/4/1
f 10/4/1 5/4/1 4/4/1
f 10/3/1 4/3/1 9/3/1
f 11/2/1 6/2/1 5/2/1
f 11/4/1 5/4/1 10/4/1
f 12/2/1 6/2/1 11/2/1
f 13/2/2 14/2/2 17/2/2
f 14/4/2 15/4/2 18/4/2
f 17/2/2 14/2/2 18/2/2
f 15/2/2 16/2/2 19/2/2
f 18/4/2 15/4/2 19/4/2
f 19/2/2 16/2/2 20/2/2
f 23/2/3 22/2/3 21/2/3
f 24/2/3 22/2/3 23/2/3
f 25/4/3 24/4/3 23/4/3
f 26/4/3 24/4/3 25/4/3
f 27/3/3 26/3/3 25/3/3
f 28/3/3 26/3/3 27/3/3
f 29/4/3 28/4/3 27/4/3
f 30/4/3 28/4/3 29/4/3
f 31/2/3 30/2/3 29/2/3
f 32/2/3 30/2/3 31/2/3
f 33/2/4 34/2/4 35/2/4
f 35/2/4 34/2/4 36/2/4
f 35/4/4 36/4/4 37/4/4
f 37/4/4 36/4/4 38/4/4
f 37/3/4 38/3/4 39/3/4
f 39/3/4 38/3/4 40/3/4
f 39/4/4 40/4/4 41/4/4
f 41/4/4 40/4/4 42/4/4
f 41/2/4 42/2/4 43/2/4
f 43/2/4 42/2/4 44/2/4
f 51/2/5 46/2/5 45/2/5
f 52/4/5 47/4/5 46/4/5
f 52/2/5 46/2/5 51/2/5
f 53/4/5 47/4/5 52/4/5
f 54/3/5 48/3/5 47/3/5
f 54/4/5 47/4/5 53/4/5
f 55/4/5 49/4/5 48/4/5
f 55/3/5 48/3/5 54/3/5
f 56/2/5 50/2/5 49/2/5
f 56/4/5 49/4/5 55/4/5
f 57/2/5 50/2/5 56/2/5
f 58/1/5 55/1/5 54/1/5
f 58/1/5 54/1/5 53/1/5
f 59/1/5 55/1/5 58/1/5
f 60/4/5 53/4/5 52/4/5
f 60/4/5 52/4/5 51/4/5
f 61/4/5 53/4/5 60/4/5
f 62/3/5 61/3/5 60/3/5
f 63/4/5 53/4/5 61/4/5
f 63/3/5 61/3/5 62/3/5
f 64/4/5 59/4/5 58/4/5
f 65/4/5 59/4/5 64/4/5
f 66/4/5 64/4/5 58/4/5
f 66/3/5 65/3/5 64/3/5
f 67/4/5 59/4/5 65/4/5
f 67/3/5 65/3/5 66/3/5
f 68/1/5 58/1/5 53/1/5
f 68/4/5 66/4/5 58/4/5
f 68/4/5 67/4/5 66/4/5
f 69/1/5 55/1/5 59/1/5
f 69/4/5 67/4/5 68/4/5
f 69/4/5 59/4/5 67/4/5
f 70/4/5 63/4/5 62/4/5
f 71/4/5 53/4/5 63/4/5
f 71/4/5 63/4/5 70/4/5
f 72/1/5 68/1/5 53/1/5
f 72/4/5 53/4/5 71/4/5
f 72/1/5 69/1/5 68/1/5
f 73/1/5 69/1/5 72/1/5
f 74/1/5 69/1/5 73/1/5
f 75/4/5 57/4/5 56/4/5
f 75/1/5 69/1/5 74/1/5
f 75/4/5 56/4/5 55/4/5
f 75/1/5 55/1/5 69/1/5
f 76/4/5 57/4/5 75/4/5
f 77/4/5 57/4/5 76/4/5
f 78/2/5 71/2/5 70/2/5
f 79/4/5 73/4/5 72/4/5
f 79/2/5 71/2/5 78/2/5
f 79/4/5 72/4/5 71/4/5
f 80/3/5 74/3/5 73/3/5
f 80/4/5 73/4/5 79/4/5
f 81/4/5 75/4/5 74/4/5
f 81/3/5 74/3/5 80/3/5
f 81/4/5 76/4/5 75/4/5
f 82/2/5 77/2/5 76/2/5
f 82/4/5 76/4/5 81/4/5
f 83/2/5 77/2/5 82/2/5
f 84/2/6 85/2/6 90/2/6
f 85/4/6 86/4/6 91/4/6
f 90/2/6 85/2/6 91/2/6
f 91/4/6 86/4/6 92/4/6
f 86/3/6 87/3/6 93/3/6
f 92/4/6 86/4/6 93/4/6
f 87/4/6 88/4/6 94/4/6
f 93/3/6 87/3/6 94/3/6
f 88/2/6 89/2/6 95/2/6
f 94/4/6 88/4/6 95/4/6
f 95/2/6 89/2/6 96/2/6
f 93/1/6 94/1/6 97/1/6
f 92/1/6 93/1/6 97/1/6
f 97/1/6 94/1/6 98/1/6
f 91/4/6 92/4/6 99/4/6
f 90/4/6 91/4/6 99/4/6
f 99/4/6 92/4/6 100/4/6
f 99/3/6 100/3/6 101/3/6
f 100/4/6 92/4/6 102/4/6
f 101/3/6 100/3/6 102/3/6
f 97/4/6 98/4/6 103/4/6
f 103/4/6 98/4/6 104/4/6
f 97/4/6 103/4/6 105/4/6
f 103/3/6 104/3/6 105/3/6
f 104/4/6 98/4/6 106/4/6
f 105/3/6 104/3/6 106/3/6
f 92/1/6 97/1/6 107/1/6
f 97/4/6 105/4/6 107/4/6
f 105/4/6 106/4/6 107/4/6
f 98/1/6 94/1/6 108/1/6
f 107/4/6 106/4/6 108/4/6
f 106/4/6 98/4/6 108/4/6
f 101/4/6 102/4/6 109/4/6
f 102/4/6 92/4/6 110/4/6
f 109/4/6 102/4/6 110/4/6
f 92/1/6 107/1/6 111/1/6
f 110/4/6 92/4/6 111/4/6
f 107/1/6 108/1/6 111/1/6
f 111/1/6 108/1/6 112/1/6
f 112/1/6 108/1/6 113/1/6
f 95/4/6 96/4/6 114/4/6
f 113/1/6 108/1/6 114/1/6
f 94/4/6 95/4/6 114/4/6
f 108/1/6 94/1/6 114/1/6
f 114/4/6 96/4/6 115/4/6
f 115/4/6 96/4/6 116/4/6
f 109/2/6 110/2/6 117/2/6
f 111/4/6 112/4/6 118/4/6
f 117/2/6 110/2/6 118/2/6
f 110/4/6 111/4/6 118/4/6
f 112/3/6 113/3/6 119/3/6
f 118/4/6 112/4/6 119/4/6
f 113/4/6 114/4/6 120/4/6
f 119/3/6 113/3/6 120/3/6
f 114/4/6 115/4/6 120/4/6
f 115/2/6 116/2/6 121/2/6
f 120/4/6 115/4/6 121/4/6
f 121/2/6 116/2/6 122/2/6
