# MagicaVoxel @ Ephtracy

# material
mtllib 3dCursorRotate.mtl
usemtl palette

# normals
vn -1 0 0
vn 1 0 0
vn 0 0 1
vn 0 0 -1
vn 0 -1 0
vn 0 1 0

# texcoords
vt 0.494141 0.5
vt 0.919922 0.5
vt 0.958984 0.5
vt 0.974609 0.5

# verts
v -13 0 4
v -13 0 1
v -13 1 4
v -13 1 1
v -12 0 6
v -12 0 4
v -12 0 -5
v -12 0 -13
v -12 1 6
v -12 1 4
v -12 1 -5
v -12 1 -13
v -11 0 8
v -11 0 6
v -11 1 8
v -11 1 6
v -10 0 9
v -10 0 8
v -10 1 9
v -10 1 8
v -9 0 10
v -9 0 9
v -9 1 10
v -9 1 9
v -8 0 11
v -8 0 10
v -8 1 11
v -8 1 10
v -7 0 -10
v -7 0 -11
v -7 1 -10
v -7 1 -11
v -6 0 12
v -6 0 11
v -6 0 -11
v -6 0 -12
v -6 1 12
v -6 1 11
v -6 1 -11
v -6 1 -12
v -4 0 13
v -4 0 12
v -4 0 -12
v -4 0 -13
v -4 1 13
v -4 1 12
v -4 1 -12
v -4 1 -13
v -2 8 2
v -2 8 -1
v -2 9 2
v -2 9 -1
v -2 10 2
v -2 10 -1
v -2 11 2
v -2 11 -1
v -1 0 -0
v -1 0 -1
v -1 1 -0
v -1 1 -1
v -1 4 1
v -1 4 -0
v -1 5 1
v -1 5 -0
v -1 7 1
v -1 7 -0
v -1 8 1
v -1 8 -0
v -1 11 1
v -1 11 -0
v -1 12 1
v -1 12 -0
v -1 26 1
v -1 26 -0
v -1 27 1
v -1 27 -0
v -1 28 1
v -1 28 -0
v -1 30 1
v -1 30 -0
v -1 31 1
v -1 31 -0
v -1 39 1
v -1 39 -0
v -1 40 1
v -1 40 -0
v 3 0 11
v 3 0 10
v 3 0 -11
v 3 0 -12
v 3 1 11
v 3 1 10
v 3 1 -11
v 3 1 -12
v 5 0 10
v 5 0 9
v 5 0 -10
v 5 0 -11
v 5 1 10
v 5 1 9
v 5 1 -10
v 5 1 -11
v 7 0 9
v 7 0 8
v 7 0 -9
v 7 0 -10
v 7 1 9
v 7 1 8
v 7 1 -9
v 7 1 -10
v 8 0 8
v 8 0 7
v 8 0 -8
v 8 0 -9
v 8 1 8
v 8 1 7
v 8 1 -8
v 8 1 -9
v 9 0 7
v 9 0 5
v 9 0 -6
v 9 0 -8
v 9 1 7
v 9 1 5
v 9 1 -6
v 9 1 -8
v 10 0 5
v 10 0 3
v 10 0 -4
v 10 0 -6
v 10 1 5
v 10 1 3
v 10 1 -4
v 10 1 -6
v 11 0 3
v 11 0 -4
v 11 1 3
v 11 1 -4
v -12 0 3
v -12 0 1
v -12 1 3
v -12 1 1
v -11 0 5
v -11 0 3
v -11 0 -12
v -11 0 -13
v -11 1 5
v -11 1 3
v -11 1 -12
v -11 1 -13
v -10 0 7
v -10 0 5
v -10 0 -11
v -10 0 -12
v -10 1 7
v -10 1 5
v -10 1 -11
v -10 1 -12
v -9 0 8
v -9 0 7
v -9 0 -10
v -9 0 -11
v -9 1 8
v -9 1 7
v -9 1 -10
v -9 1 -11
v -8 0 9
v -8 0 8
v -8 1 9
v -8 1 8
v -7 0 -8
v -7 0 -10
v -7 1 -8
v -7 1 -10
v -6 0 10
v -6 0 9
v -6 0 -7
v -6 0 -8
v -6 0 -10
v -6 0 -11
v -6 1 10
v -6 1 9
v -6 1 -7
v -6 1 -8
v -6 1 -10
v -6 1 -11
v -5 0 -6
v -5 0 -7
v -5 1 -6
v -5 1 -7
v -4 0 11
v -4 0 10
v -4 0 -5
v -4 0 -6
v -4 0 -11
v -4 0 -12
v -4 1 11
v -4 1 10
v -4 1 -5
v -4 1 -6
v -4 1 -11
v -4 1 -12
v 0 0 -0
v 0 0 -1
v 0 1 -0
v 0 1 -1
v 0 4 1
v 0 4 -0
v 0 5 1
v 0 5 -0
v 0 7 1
v 0 7 -0
v 0 8 1
v 0 8 -0
v 0 11 1
v 0 11 -0
v 0 12 1
v 0 12 -0
v 0 26 1
v 0 26 -0
v 0 27 1
v 0 27 -0
v 0 28 1
v 0 28 -0
v 0 30 1
v 0 30 -0
v 0 31 1
v 0 31 -0
v 0 39 1
v 0 39 -0
v 0 40 1
v 0 40 -0
v 1 8 2
v 1 8 -1
v 1 9 2
v 1 9 -1
v 1 10 2
v 1 10 -1
v 1 11 2
v 1 11 -1
v 4 0 13
v 4 0 12
v 4 0 -12
v 4 0 -13
v 4 1 13
v 4 1 12
v 4 1 -12
v 4 1 -13
v 6 0 12
v 6 0 11
v 6 0 -11
v 6 0 -12
v 6 1 12
v 6 1 11
v 6 1 -11
v 6 1 -12
v 8 0 11
v 8 0 10
v 8 0 -10
v 8 0 -11
v 8 1 11
v 8 1 10
v 8 1 -10
v 8 1 -11
v 9 0 10
v 9 0 9
v 9 0 -9
v 9 0 -10
v 9 1 10
v 9 1 9
v 9 1 -9
v 9 1 -10
v 10 0 9
v 10 0 8
v 10 0 -8
v 10 0 -9
v 10 1 9
v 10 1 8
v 10 1 -8
v 10 1 -9
v 11 0 8
v 11 0 6
v 11 0 -6
v 11 0 -8
v 11 1 8
v 11 1 6
v 11 1 -6
v 11 1 -8
v 12 0 6
v 12 0 4
v 12 0 -4
v 12 0 -6
v 12 1 6
v 12 1 4
v 12 1 -4
v 12 1 -6
v 13 0 4
v 13 0 -4
v 13 1 4
v 13 1 -4
v -4 0 13
v -4 1 13
v 4 0 13
v 4 1 13
v -6 0 12
v -6 1 12
v -4 0 12
v -4 1 12
v 4 0 12
v 4 1 12
v 6 0 12
v 6 1 12
v -8 0 11
v -8 1 11
v -6 0 11
v -6 1 11
v 6 0 11
v 6 1 11
v 8 0 11
v 8 1 11
v -9 0 10
v -9 1 10
v -8 0 10
v -8 1 10
v 8 0 10
v 8 1 10
v 9 0 10
v 9 1 10
v -10 0 9
v -10 1 9
v -9 0 9
v -9 1 9
v 9 0 9
v 9 1 9
v 10 0 9
v 10 1 9
v -11 0 8
v -11 1 8
v -10 0 8
v -10 1 8
v 10 0 8
v 10 1 8
v 11 0 8
v 11 1 8
v -12 0 6
v -12 1 6
v -11 0 6
v -11 1 6
v 11 0 6
v 11 1 6
v 12 0 6
v 12 1 6
v -13 0 4
v -13 1 4
v -12 0 4
v -12 1 4
v 12 0 4
v 12 1 4
v 13 0 4
v 13 1 4
v -2 8 2
v -2 9 2
v -2 10 2
v -2 11 2
v 1 8 2
v 1 9 2
v 1 10 2
v 1 11 2
v -1 4 1
v -1 5 1
v -1 7 1
v -1 8 1
v -1 11 1
v -1 12 1
v -1 26 1
v -1 27 1
v -1 28 1
v -1 30 1
v -1 31 1
v -1 39 1
v -1 40 1
v 0 4 1
v 0 5 1
v 0 7 1
v 0 8 1
v 0 11 1
v 0 12 1
v 0 26 1
v 0 27 1
v 0 28 1
v 0 30 1
v 0 31 1
v 0 39 1
v 0 40 1
v -1 0 -0
v -1 1 -0
v 0 0 -0
v 0 1 -0
v 10 0 -4
v 10 1 -4
v 11 0 -4
v 11 1 -4
v -12 0 -5
v -12 1 -5
v -4 0 -5
v -4 1 -5
v 9 0 -6
v 9 1 -6
v 10 0 -6
v 10 1 -6
v 8 0 -8
v 8 1 -8
v 9 0 -8
v 9 1 -8
v 7 0 -9
v 7 1 -9
v 8 0 -9
v 8 1 -9
v -7 0 -10
v -7 1 -10
v -6 0 -10
v -6 1 -10
v 5 0 -10
v 5 1 -10
v 7 0 -10
v 7 1 -10
v -6 0 -11
v -6 1 -11
v -4 0 -11
v -4 1 -11
v 3 0 -11
v 3 1 -11
v 5 0 -11
v 5 1 -11
v -4 0 -12
v -4 1 -12
v 3 0 -12
v 3 1 -12
v -4 0 11
v -4 1 11
v 3 0 11
v 3 1 11
v -6 0 10
v -6 1 10
v -4 0 10
v -4 1 10
v 3 0 10
v 3 1 10
v 5 0 10
v 5 1 10
v -8 0 9
v -8 1 9
v -6 0 9
v -6 1 9
v 5 0 9
v 5 1 9
v 7 0 9
v 7 1 9
v -9 0 8
v -9 1 8
v -8 0 8
v -8 1 8
v 7 0 8
v 7 1 8
v 8 0 8
v 8 1 8
v -10 0 7
v -10 1 7
v -9 0 7
v -9 1 7
v 8 0 7
v 8 1 7
v 9 0 7
v 9 1 7
v -11 0 5
v -11 1 5
v -10 0 5
v -10 1 5
v 9 0 5
v 9 1 5
v 10 0 5
v 10 1 5
v -12 0 3
v -12 1 3
v -11 0 3
v -11 1 3
v 10 0 3
v 10 1 3
v 11 0 3
v 11 1 3
v -13 0 1
v -13 1 1
v -12 0 1
v -12 1 1
v -1 4 -0
v -1 5 -0
v -1 7 -0
v -1 8 -0
v -1 11 -0
v -1 12 -0
v -1 26 -0
v -1 27 -0
v -1 28 -0
v -1 30 -0
v -1 31 -0
v -1 39 -0
v -1 40 -0
v 0 4 -0
v 0 5 -0
v 0 7 -0
v 0 8 -0
v 0 11 -0
v 0 12 -0
v 0 26 -0
v 0 27 -0
v 0 28 -0
v 0 30 -0
v 0 31 -0
v 0 39 -0
v 0 40 -0
v -2 8 -1
v -2 9 -1
v -2 10 -1
v -2 11 -1
v -1 0 -1
v -1 1 -1
v 0 0 -1
v 0 1 -1
v 1 8 -1
v 1 9 -1
v 1 10 -1
v 1 11 -1
v 12 0 -4
v 12 1 -4
v 13 0 -4
v 13 1 -4
v -5 0 -6
v -5 1 -6
v -4 0 -6
v -4 1 -6
v 11 0 -6
v 11 1 -6
v 12 0 -6
v 12 1 -6
v -6 0 -7
v -6 1 -7
v -5 0 -7
v -5 1 -7
v -7 0 -8
v -7 1 -8
v -6 0 -8
v -6 1 -8
v 10 0 -8
v 10 1 -8
v 11 0 -8
v 11 1 -8
v 9 0 -9
v 9 1 -9
v 10 0 -9
v 10 1 -9
v -9 0 -10
v -9 1 -10
v -7 0 -10
v -7 1 -10
v 8 0 -10
v 8 1 -10
v 9 0 -10
v 9 1 -10
v -10 0 -11
v -10 1 -11
v -9 0 -11
v -9 1 -11
v -7 0 -11
v -7 1 -11
v -6 0 -11
v -6 1 -11
v 6 0 -11
v 6 1 -11
v 8 0 -11
v 8 1 -11
v -11 0 -12
v -11 1 -12
v -10 0 -12
v -10 1 -12
v -6 0 -12
v -6 1 -12
v -4 0 -12
v -4 1 -12
v 4 0 -12
v 4 1 -12
v 6 0 -12
v 6 1 -12
v -12 0 -13
v -12 1 -13
v -11 0 -13
v -11 1 -13
v -4 0 -13
v -4 1 -13
v 4 0 -13
v 4 1 -13
v -4 0 13
v 4 0 13
v -6 0 12
v -4 0 12
v 4 0 12
v 6 0 12
v -8 0 11
v -6 0 11
v -4 0 11
v 3 0 11
v 6 0 11
v 8 0 11
v -9 0 10
v -8 0 10
v -6 0 10
v -4 0 10
v 3 0 10
v 5 0 10
v 8 0 10
v 9 0 10
v -10 0 9
v -9 0 9
v -8 0 9
v -6 0 9
v 5 0 9
v 7 0 9
v 9 0 9
v 10 0 9
v -11 0 8
v -10 0 8
v -9 0 8
v -8 0 8
v 7 0 8
v 8 0 8
v 10 0 8
v 11 0 8
v -10 0 7
v -9 0 7
v 8 0 7
v 9 0 7
v -12 0 6
v -11 0 6
v 11 0 6
v 12 0 6
v -11 0 5
v -10 0 5
v 9 0 5
v 10 0 5
v -13 0 4
v -12 0 4
v 12 0 4
v 13 0 4
v -12 0 3
v -11 0 3
v 10 0 3
v 11 0 3
v -13 0 1
v -12 0 1
v -1 0 -0
v 0 0 -0
v -1 0 -1
v 0 0 -1
v 10 0 -4
v 11 0 -4
v 12 0 -4
v 13 0 -4
v -12 0 -5
v -4 0 -5
v -5 0 -6
v -4 0 -6
v 9 0 -6
v 10 0 -6
v 11 0 -6
v 12 0 -6
v -6 0 -7
v -5 0 -7
v -7 0 -8
v -6 0 -8
v 8 0 -8
v 9 0 -8
v 10 0 -8
v 11 0 -8
v 7 0 -9
v 8 0 -9
v 9 0 -9
v 10 0 -9
v -9 0 -10
v -7 0 -10
v -6 0 -10
v 5 0 -10
v 7 0 -10
v 8 0 -10
v 9 0 -10
v -10 0 -11
v -9 0 -11
v -7 0 -11
v -6 0 -11
v -4 0 -11
v 3 0 -11
v 5 0 -11
v 6 0 -11
v 8 0 -11
v -11 0 -12
v -10 0 -12
v -6 0 -12
v -4 0 -12
v 3 0 -12
v 4 0 -12
v 6 0 -12
v -12 0 -13
v -11 0 -13
v -4 0 -13
v 4 0 -13
v -1 4 1
v 0 4 1
v -1 4 -0
v 0 4 -0
v -1 7 1
v 0 7 1
v -1 7 -0
v 0 7 -0
v -2 8 2
v 1 8 2
v -1 8 1
v 0 8 1
v -1 8 -0
v 0 8 -0
v -2 8 -1
v 1 8 -1
v -2 10 2
v 1 10 2
v -1 10 1
v 0 10 1
v -1 10 -0
v 0 10 -0
v -2 10 -1
v 1 10 -1
v -1 27 1
v 0 27 1
v -1 27 -0
v 0 27 -0
v -1 30 1
v 0 30 1
v -1 30 -0
v 0 30 -0
v -1 39 1
v 0 39 1
v -1 39 -0
v 0 39 -0
v -4 1 13
v 4 1 13
v -6 1 12
v -4 1 12
v 4 1 12
v 6 1 12
v -8 1 11
v -6 1 11
v -4 1 11
v 3 1 11
v 6 1 11
v 8 1 11
v -9 1 10
v -8 1 10
v -6 1 10
v -4 1 10
v 3 1 10
v 5 1 10
v 8 1 10
v 9 1 10
v -10 1 9
v -9 1 9
v -8 1 9
v -6 1 9
v 5 1 9
v 7 1 9
v 9 1 9
v 10 1 9
v -11 1 8
v -10 1 8
v -9 1 8
v -8 1 8
v 7 1 8
v 8 1 8
v 10 1 8
v 11 1 8
v -10 1 7
v -9 1 7
v 8 1 7
v 9 1 7
v -12 1 6
v -11 1 6
v 11 1 6
v 12 1 6
v -11 1 5
v -10 1 5
v 9 1 5
v 10 1 5
v -13 1 4
v -12 1 4
v 12 1 4
v 13 1 4
v -12 1 3
v -11 1 3
v 10 1 3
v 11 1 3
v -13 1 1
v -12 1 1
v -1 1 -0
v 0 1 -0
v -1 1 -1
v 0 1 -1
v 10 1 -4
v 11 1 -4
v 12 1 -4
v 13 1 -4
v -12 1 -5
v -4 1 -5
v -5 1 -6
v -4 1 -6
v 9 1 -6
v 10 1 -6
v 11 1 -6
v 12 1 -6
v -6 1 -7
v -5 1 -7
v -7 1 -8
v -6 1 -8
v 8 1 -8
v 9 1 -8
v 10 1 -8
v 11 1 -8
v 7 1 -9
v 8 1 -9
v 9 1 -9
v 10 1 -9
v -9 1 -10
v -7 1 -10
v -6 1 -10
v 5 1 -10
v 7 1 -10
v 8 1 -10
v 9 1 -10
v -10 1 -11
v -9 1 -11
v -7 1 -11
v -6 1 -11
v -4 1 -11
v 3 1 -11
v 5 1 -11
v 6 1 -11
v 8 1 -11
v -11 1 -12
v -10 1 -12
v -6 1 -12
v -4 1 -12
v 3 1 -12
v 4 1 -12
v 6 1 -12
v -12 1 -13
v -11 1 -13
v -4 1 -13
v 4 1 -13
v -1 5 1
v 0 5 1
v -1 5 -0
v 0 5 -0
v -2 9 2
v 1 9 2
v -1 9 1
v 0 9 1
v -1 9 -0
v 0 9 -0
v -2 9 -1
v 1 9 -1
v -2 11 2
v 1 11 2
v -1 11 1
v 0 11 1
v -1 11 -0
v 0 11 -0
v -2 11 -1
v 1 11 -1
v -1 26 1
v 0 26 1
v -1 26 -0
v 0 26 -0
v -1 28 1
v 0 28 1
v -1 28 -0
v 0 28 -0
v -1 31 1
v 0 31 1
v -1 31 -0
v 0 31 -0
v -1 40 1
v 0 40 1
v -1 40 -0
v 0 40 -0

# faces
f 3/3/1 2/3/1 1/3/1
f 4/3/1 2/3/1 3/3/1
f 9/3/1 6/3/1 5/3/1
f 10/3/1 6/3/1 9/3/1
f 11/3/1 8/3/1 7/3/1
f 12/3/1 8/3/1 11/3/1
f 15/3/1 14/3/1 13/3/1
f 16/3/1 14/3/1 15/3/1
f 19/3/1 18/3/1 17/3/1
f 20/3/1 18/3/1 19/3/1
f 23/3/1 22/3/1 21/3/1
f 24/3/1 22/3/1 23/3/1
f 27/3/1 26/3/1 25/3/1
f 28/3/1 26/3/1 27/3/1
f 31/3/1 30/3/1 29/3/1
f 32/3/1 30/3/1 31/3/1
f 37/3/1 34/3/1 33/3/1
f 38/3/1 34/3/1 37/3/1
f 39/3/1 36/3/1 35/3/1
f 40/3/1 36/3/1 39/3/1
f 45/3/1 42/3/1 41/3/1
f 46/3/1 42/3/1 45/3/1
f 47/3/1 44/3/1 43/3/1
f 48/3/1 44/3/1 47/3/1
f 51/2/1 50/2/1 49/2/1
f 52/2/1 50/2/1 51/2/1
f 55/2/1 54/2/1 53/2/1
f 56/2/1 54/2/1 55/2/1
f 59/3/1 58/3/1 57/3/1
f 60/3/1 58/3/1 59/3/1
f 63/3/1 62/3/1 61/3/1
f 64/3/1 62/3/1 63/3/1
f 67/3/1 66/3/1 65/3/1
f 68/3/1 66/3/1 67/3/1
f 71/4/1 70/4/1 69/4/1
f 72/4/1 70/4/1 71/4/1
f 73/3/1 72/3/1 71/3/1
f 74/3/1 72/3/1 73/3/1
f 77/3/1 76/3/1 75/3/1
f 78/3/1 76/3/1 77/3/1
f 81/3/1 80/3/1 79/3/1
f 82/3/1 80/3/1 81/3/1
f 85/3/1 84/3/1 83/3/1
f 86/3/1 84/3/1 85/3/1
f 91/3/1 88/3/1 87/3/1
f 92/3/1 88/3/1 91/3/1
f 93/3/1 90/3/1 89/3/1
f 94/3/1 90/3/1 93/3/1
f 99/3/1 96/3/1 95/3/1
f 100/3/1 96/3/1 99/3/1
f 101/3/1 98/3/1 97/3/1
f 102/3/1 98/3/1 101/3/1
f 107/3/1 104/3/1 103/3/1
f 108/3/1 104/3/1 107/3/1
f 109/3/1 106/3/1 105/3/1
f 110/3/1 106/3/1 109/3/1
f 115/3/1 112/3/1 111/3/1
f 116/3/1 112/3/1 115/3/1
f 117/3/1 114/3/1 113/3/1
f 118/3/1 114/3/1 117/3/1
f 123/3/1 120/3/1 119/3/1
f 124/3/1 120/3/1 123/3/1
f 125/3/1 122/3/1 121/3/1
f 126/3/1 122/3/1 125/3/1
f 131/3/1 128/3/1 127/3/1
f 132/3/1 128/3/1 131/3/1
f 133/3/1 130/3/1 129/3/1
f 134/3/1 130/3/1 133/3/1
f 137/3/1 136/3/1 135/3/1
f 138/3/1 136/3/1 137/3/1
f 139/3/2 140/3/2 141/3/2
f 141/3/2 140/3/2 142/3/2
f 143/3/2 144/3/2 147/3/2
f 147/3/2 144/3/2 148/3/2
f 145/3/2 146/3/2 149/3/2
f 149/3/2 146/3/2 150/3/2
f 151/3/2 152/3/2 155/3/2
f 155/3/2 152/3/2 156/3/2
f 153/3/2 154/3/2 157/3/2
f 157/3/2 154/3/2 158/3/2
f 159/3/2 160/3/2 163/3/2
f 163/3/2 160/3/2 164/3/2
f 161/3/2 162/3/2 165/3/2
f 165/3/2 162/3/2 166/3/2
f 167/3/2 168/3/2 169/3/2
f 169/3/2 168/3/2 170/3/2
f 171/3/2 172/3/2 173/3/2
f 173/3/2 172/3/2 174/3/2
f 175/3/2 176/3/2 181/3/2
f 181/3/2 176/3/2 182/3/2
f 177/3/2 178/3/2 183/3/2
f 183/3/2 178/3/2 184/3/2
f 179/3/2 180/3/2 185/3/2
f 185/3/2 180/3/2 186/3/2
f 187/3/2 188/3/2 189/3/2
f 189/3/2 188/3/2 190/3/2
f 191/3/2 192/3/2 197/3/2
f 197/3/2 192/3/2 198/3/2
f 193/3/2 194/3/2 199/3/2
f 199/3/2 194/3/2 200/3/2
f 195/3/2 196/3/2 201/3/2
f 201/3/2 196/3/2 202/3/2
f 203/3/2 204/3/2 205/3/2
f 205/3/2 204/3/2 206/3/2
f 207/3/2 208/3/2 209/3/2
f 209/3/2 208/3/2 210/3/2
f 211/3/2 212/3/2 213/3/2
f 213/3/2 212/3/2 214/3/2
f 215/4/2 216/4/2 217/4/2
f 217/4/2 216/4/2 218/4/2
f 217/3/2 218/3/2 219/3/2
f 219/3/2 218/3/2 220/3/2
f 221/3/2 222/3/2 223/3/2
f 223/3/2 222/3/2 224/3/2
f 225/3/2 226/3/2 227/3/2
f 227/3/2 226/3/2 228/3/2
f 229/3/2 230/3/2 231/3/2
f 231/3/2 230/3/2 232/3/2
f 233/2/2 234/2/2 235/2/2
f 235/2/2 234/2/2 236/2/2
f 237/2/2 238/2/2 239/2/2
f 239/2/2 238/2/2 240/2/2
f 241/3/2 242/3/2 245/3/2
f 245/3/2 242/3/2 246/3/2
f 243/3/2 244/3/2 247/3/2
f 247/3/2 244/3/2 248/3/2
f 249/3/2 250/3/2 253/3/2
f 253/3/2 250/3/2 254/3/2
f 251/3/2 252/3/2 255/3/2
f 255/3/2 252/3/2 256/3/2
f 257/3/2 258/3/2 261/3/2
f 261/3/2 258/3/2 262/3/2
f 259/3/2 260/3/2 263/3/2
f 263/3/2 260/3/2 264/3/2
f 265/3/2 266/3/2 269/3/2
f 269/3/2 266/3/2 270/3/2
f 267/3/2 268/3/2 271/3/2
f 271/3/2 268/3/2 272/3/2
f 273/3/2 274/3/2 277/3/2
f 277/3/2 274/3/2 278/3/2
f 275/3/2 276/3/2 279/3/2
f 279/3/2 276/3/2 280/3/2
f 281/3/2 282/3/2 285/3/2
f 285/3/2 282/3/2 286/3/2
f 283/3/2 284/3/2 287/3/2
f 287/3/2 284/3/2 288/3/2
f 289/3/2 290/3/2 293/3/2
f 293/3/2 290/3/2 294/3/2
f 291/3/2 292/3/2 295/3/2
f 295/3/2 292/3/2 296/3/2
f 297/3/2 298/3/2 299/3/2
f 299/3/2 298/3/2 300/3/2
f 303/3/3 302/3/3 301/3/3
f 304/3/3 302/3/3 303/3/3
f 307/3/3 306/3/3 305/3/3
f 308/3/3 306/3/3 307/3/3
f 311/3/3 310/3/3 309/3/3
f 312/3/3 310/3/3 311/3/3
f 315/3/3 314/3/3 313/3/3
f 316/3/3 314/3/3 315/3/3
f 319/3/3 318/3/3 317/3/3
f 320/3/3 318/3/3 319/3/3
f 323/3/3 322/3/3 321/3/3
f 324/3/3 322/3/3 323/3/3
f 327/3/3 326/3/3 325/3/3
f 328/3/3 326/3/3 327/3/3
f 331/3/3 330/3/3 329/3/3
f 332/3/3 330/3/3 331/3/3
f 335/3/3 334/3/3 333/3/3
f 336/3/3 334/3/3 335/3/3
f 339/3/3 338/3/3 337/3/3
f 340/3/3 338/3/3 339/3/3
f 343/3/3 342/3/3 341/3/3
f 344/3/3 342/3/3 343/3/3
f 347/3/3 346/3/3 345/3/3
f 348/3/3 346/3/3 347/3/3
f 351/3/3 350/3/3 349/3/3
f 352/3/3 350/3/3 351/3/3
f 355/3/3 354/3/3 353/3/3
f 356/3/3 354/3/3 355/3/3
f 359/3/3 358/3/3 357/3/3
f 360/3/3 358/3/3 359/3/3
f 365/2/3 362/2/3 361/2/3
f 366/2/3 362/2/3 365/2/3
f 367/2/3 364/2/3 363/2/3
f 368/2/3 364/2/3 367/2/3
f 382/3/3 370/3/3 369/3/3
f 383/3/3 370/3/3 382/3/3
f 384/3/3 372/3/3 371/3/3
f 385/3/3 372/3/3 384/3/3
f 386/4/3 374/4/3 373/4/3
f 387/3/3 375/3/3 374/3/3
f 387/4/3 374/4/3 386/4/3
f 388/3/3 375/3/3 387/3/3
f 389/3/3 377/3/3 376/3/3
f 390/3/3 377/3/3 389/3/3
f 391/3/3 379/3/3 378/3/3
f 392/3/3 379/3/3 391/3/3
f 393/3/3 381/3/3 380/3/3
f 394/3/3 381/3/3 393/3/3
f 397/3/3 396/3/3 395/3/3
f 398/3/3 396/3/3 397/3/3
f 401/3/3 400/3/3 399/3/3
f 402/3/3 400/3/3 401/3/3
f 405/3/3 404/3/3 403/3/3
f 406/3/3 404/3/3 405/3/3
f 409/3/3 408/3/3 407/3/3
f 410/3/3 408/3/3 409/3/3
f 413/3/3 412/3/3 411/3/3
f 414/3/3 412/3/3 413/3/3
f 417/3/3 416/3/3 415/3/3
f 418/3/3 416/3/3 417/3/3
f 421/3/3 420/3/3 419/3/3
f 422/3/3 420/3/3 421/3/3
f 425/3/3 424/3/3 423/3/3
f 426/3/3 424/3/3 425/3/3
f 429/3/3 428/3/3 427/3/3
f 430/3/3 428/3/3 429/3/3
f 433/3/3 432/3/3 431/3/3
f 434/3/3 432/3/3 433/3/3
f 437/3/3 436/3/3 435/3/3
f 438/3/3 436/3/3 437/3/3
f 439/3/4 440/3/4 441/3/4
f 441/3/4 440/3/4 442/3/4
f 443/3/4 444/3/4 445/3/4
f 445/3/4 444/3/4 446/3/4
f 447/3/4 448/3/4 449/3/4
f 449/3/4 448/3/4 450/3/4
f 451/3/4 452/3/4 453/3/4
f 453/3/4 452/3/4 454/3/4
f 455/3/4 456/3/4 457/3/4
f 457/3/4 456/3/4 458/3/4
f 459/3/4 460/3/4 461/3/4
f 461/3/4 460/3/4 462/3/4
f 463/3/4 464/3/4 465/3/4
f 465/3/4 464/3/4 466/3/4
f 467/3/4 468/3/4 469/3/4
f 469/3/4 468/3/4 470/3/4
f 471/3/4 472/3/4 473/3/4
f 473/3/4 472/3/4 474/3/4
f 475/3/4 476/3/4 477/3/4
f 477/3/4 476/3/4 478/3/4
f 479/3/4 480/3/4 481/3/4
f 481/3/4 480/3/4 482/3/4
f 483/3/4 484/3/4 485/3/4
f 485/3/4 484/3/4 486/3/4
f 487/3/4 488/3/4 489/3/4
f 489/3/4 488/3/4 490/3/4
f 491/3/4 492/3/4 493/3/4
f 493/3/4 492/3/4 494/3/4
f 495/3/4 496/3/4 508/3/4
f 508/3/4 496/3/4 509/3/4
f 497/3/4 498/3/4 510/3/4
f 510/3/4 498/3/4 511/3/4
f 499/4/4 500/4/4 512/4/4
f 500/3/4 501/3/4 513/3/4
f 512/4/4 500/4/4 513/4/4
f 513/3/4 501/3/4 514/3/4
f 502/3/4 503/3/4 515/3/4
f 515/3/4 503/3/4 516/3/4
f 504/3/4 505/3/4 517/3/4
f 517/3/4 505/3/4 518/3/4
f 506/3/4 507/3/4 519/3/4
f 519/3/4 507/3/4 520/3/4
f 525/3/4 526/3/4 527/3/4
f 527/3/4 526/3/4 528/3/4
f 521/2/4 522/2/4 529/2/4
f 529/2/4 522/2/4 530/2/4
f 523/2/4 524/2/4 531/2/4
f 531/2/4 524/2/4 532/2/4
f 533/3/4 534/3/4 535/3/4
f 535/3/4 534/3/4 536/3/4
f 537/3/4 538/3/4 539/3/4
f 539/3/4 538/3/4 540/3/4
f 541/3/4 542/3/4 543/3/4
f 543/3/4 542/3/4 544/3/4
f 545/3/4 546/3/4 547/3/4
f 547/3/4 546/3/4 548/3/4
f 549/3/4 550/3/4 551/3/4
f 551/3/4 550/3/4 552/3/4
f 553/3/4 554/3/4 555/3/4
f 555/3/4 554/3/4 556/3/4
f 557/3/4 558/3/4 559/3/4
f 559/3/4 558/3/4 560/3/4
f 561/3/4 562/3/4 563/3/4
f 563/3/4 562/3/4 564/3/4
f 565/3/4 566/3/4 567/3/4
f 567/3/4 566/3/4 568/3/4
f 569/3/4 570/3/4 571/3/4
f 571/3/4 570/3/4 572/3/4
f 573/3/4 574/3/4 575/3/4
f 575/3/4 574/3/4 576/3/4
f 577/3/4 578/3/4 579/3/4
f 579/3/4 578/3/4 580/3/4
f 581/3/4 582/3/4 583/3/4
f 583/3/4 582/3/4 584/3/4
f 585/3/4 586/3/4 587/3/4
f 587/3/4 586/3/4 588/3/4
f 589/3/4 590/3/4 591/3/4
f 591/3/4 590/3/4 592/3/4
f 593/3/4 594/3/4 595/3/4
f 595/3/4 594/3/4 596/3/4
f 597/3/4 598/3/4 599/3/4
f 599/3/4 598/3/4 600/3/4
f 604/3/5 602/3/5 601/3/5
f 605/3/5 602/3/5 604/3/5
f 608/3/5 604/3/5 603/3/5
f 608/3/5 606/3/5 605/3/5
f 608/3/5 605/3/5 604/3/5
f 609/3/5 606/3/5 608/3/5
f 610/3/5 606/3/5 609/3/5
f 611/3/5 606/3/5 610/3/5
f 614/3/5 608/3/5 607/3/5
f 614/3/5 609/3/5 608/3/5
f 615/3/5 609/3/5 614/3/5
f 616/3/5 609/3/5 615/3/5
f 617/3/5 611/3/5 610/3/5
f 617/3/5 612/3/5 611/3/5
f 618/3/5 612/3/5 617/3/5
f 619/3/5 612/3/5 618/3/5
f 622/3/5 615/3/5 614/3/5
f 622/3/5 614/3/5 613/3/5
f 623/3/5 615/3/5 622/3/5
f 624/3/5 615/3/5 623/3/5
f 625/3/5 620/3/5 619/3/5
f 625/3/5 619/3/5 618/3/5
f 626/3/5 620/3/5 625/3/5
f 627/3/5 620/3/5 626/3/5
f 630/3/5 623/3/5 622/3/5
f 630/3/5 622/3/5 621/3/5
f 631/3/5 623/3/5 630/3/5
f 632/3/5 623/3/5 631/3/5
f 633/3/5 628/3/5 627/3/5
f 633/3/5 627/3/5 626/3/5
f 634/3/5 628/3/5 633/3/5
f 635/3/5 628/3/5 634/3/5
f 637/3/5 631/3/5 630/3/5
f 637/3/5 630/3/5 629/3/5
f 638/3/5 631/3/5 637/3/5
f 639/3/5 636/3/5 635/3/5
f 639/3/5 635/3/5 634/3/5
f 640/3/5 636/3/5 639/3/5
f 642/3/5 637/3/5 629/3/5
f 643/3/5 636/3/5 640/3/5
f 645/3/5 642/3/5 641/3/5
f 645/3/5 637/3/5 642/3/5
f 646/3/5 637/3/5 645/3/5
f 647/3/5 644/3/5 643/3/5
f 647/3/5 643/3/5 640/3/5
f 648/3/5 644/3/5 647/3/5
f 650/3/5 645/3/5 641/3/5
f 651/3/5 644/3/5 648/3/5
f 653/3/5 650/3/5 649/3/5
f 653/3/5 645/3/5 650/3/5
f 654/3/5 645/3/5 653/3/5
f 655/3/5 652/3/5 651/3/5
f 655/3/5 651/3/5 648/3/5
f 656/3/5 652/3/5 655/3/5
f 657/3/5 653/3/5 649/3/5
f 658/3/5 653/3/5 657/3/5
f 661/3/5 660/3/5 659/3/5
f 662/3/5 660/3/5 661/3/5
f 664/3/5 652/3/5 656/3/5
f 665/3/5 652/3/5 664/3/5
f 666/3/5 652/3/5 665/3/5
f 669/3/5 668/3/5 667/3/5
f 670/3/5 668/3/5 669/3/5
f 672/3/5 664/3/5 663/3/5
f 672/3/5 665/3/5 664/3/5
f 673/3/5 665/3/5 672/3/5
f 674/3/5 665/3/5 673/3/5
f 675/3/5 669/3/5 667/3/5
f 676/3/5 669/3/5 675/3/5
f 677/3/5 675/3/5 667/3/5
f 678/3/5 675/3/5 677/3/5
f 680/3/5 673/3/5 672/3/5
f 680/3/5 672/3/5 671/3/5
f 681/3/5 673/3/5 680/3/5
f 682/3/5 673/3/5 681/3/5
f 684/3/5 680/3/5 679/3/5
f 684/3/5 681/3/5 680/3/5
f 685/3/5 681/3/5 684/3/5
f 686/3/5 681/3/5 685/3/5
f 687/3/5 677/3/5 667/3/5
f 688/3/5 677/3/5 687/3/5
f 691/3/5 684/3/5 683/3/5
f 691/3/5 685/3/5 684/3/5
f 692/3/5 685/3/5 691/3/5
f 693/3/5 685/3/5 692/3/5
f 694/3/5 687/3/5 667/3/5
f 695/3/5 687/3/5 694/3/5
f 696/3/5 689/3/5 688/3/5
f 697/3/5 689/3/5 696/3/5
f 700/3/5 692/3/5 691/3/5
f 700/3/5 691/3/5 690/3/5
f 701/3/5 692/3/5 700/3/5
f 702/3/5 692/3/5 701/3/5
f 703/3/5 694/3/5 667/3/5
f 704/3/5 694/3/5 703/3/5
f 705/3/5 698/3/5 697/3/5
f 706/3/5 698/3/5 705/3/5
f 707/3/5 701/3/5 700/3/5
f 707/3/5 700/3/5 699/3/5
f 708/3/5 701/3/5 707/3/5
f 709/3/5 701/3/5 708/3/5
f 710/3/5 703/3/5 667/3/5
f 711/3/5 703/3/5 710/3/5
f 712/3/5 708/3/5 707/3/5
f 712/3/5 707/3/5 706/3/5
f 713/3/5 708/3/5 712/3/5
f 716/3/5 715/3/5 714/3/5
f 717/3/5 715/3/5 716/3/5
f 720/3/5 719/3/5 718/3/5
f 721/3/5 719/3/5 720/3/5
f 724/2/5 723/2/5 722/2/5
f 725/2/5 723/2/5 724/2/5
f 726/2/5 724/2/5 722/2/5
f 727/2/5 723/2/5 725/2/5
f 728/2/5 726/2/5 722/2/5
f 728/2/5 727/2/5 726/2/5
f 729/2/5 723/2/5 727/2/5
f 729/2/5 727/2/5 728/2/5
f 732/2/5 731/2/5 730/2/5
f 733/2/5 731/2/5 732/2/5
f 734/2/5 732/2/5 730/2/5
f 734/1/5 733/1/5 732/1/5
f 735/2/5 731/2/5 733/2/5
f 735/1/5 733/1/5 734/1/5
f 736/2/5 734/2/5 730/2/5
f 736/2/5 735/2/5 734/2/5
f 737/2/5 731/2/5 735/2/5
f 737/2/5 735/2/5 736/2/5
f 740/3/5 739/3/5 738/3/5
f 741/3/5 739/3/5 740/3/5
f 744/3/5 743/3/5 742/3/5
f 745/3/5 743/3/5 744/3/5
f 748/3/5 747/3/5 746/3/5
f 749/3/5 747/3/5 748/3/5
f 750/3/6 751/3/6 753/3/6
f 753/3/6 751/3/6 754/3/6
f 752/3/6 753/3/6 757/3/6
f 754/3/6 755/3/6 757/3/6
f 753/3/6 754/3/6 757/3/6
f 757/3/6 755/3/6 758/3/6
f 758/3/6 755/3/6 759/3/6
f 759/3/6 755/3/6 760/3/6
f 756/3/6 757/3/6 763/3/6
f 757/3/6 758/3/6 763/3/6
f 763/3/6 758/3/6 764/3/6
f 764/3/6 758/3/6 765/3/6
f 759/3/6 760/3/6 766/3/6
f 760/3/6 761/3/6 766/3/6
f 766/3/6 761/3/6 767/3/6
f 767/3/6 761/3/6 768/3/6
f 763/3/6 764/3/6 771/3/6
f 762/3/6 763/3/6 771/3/6
f 771/3/6 764/3/6 772/3/6
f 772/3/6 764/3/6 773/3/6
f 768/3/6 769/3/6 774/3/6
f 767/3/6 768/3/6 774/3/6
f 774/3/6 769/3/6 775/3/6
f 775/3/6 769/3/6 776/3/6
f 771/3/6 772/3/6 779/3/6
f 770/3/6 771/3/6 779/3/6
f 779/3/6 772/3/6 780/3/6
f 780/3/6 772/3/6 781/3/6
f 776/3/6 777/3/6 782/3/6
f 775/3/6 776/3/6 782/3/6
f 782/3/6 777/3/6 783/3/6
f 783/3/6 777/3/6 784/3/6
f 779/3/6 780/3/6 786/3/6
f 778/3/6 779/3/6 786/3/6
f 786/3/6 780/3/6 787/3/6
f 784/3/6 785/3/6 788/3/6
f 783/3/6 784/3/6 788/3/6
f 788/3/6 785/3/6 789/3/6
f 778/3/6 786/3/6 791/3/6
f 789/3/6 785/3/6 792/3/6
f 790/3/6 791/3/6 794/3/6
f 791/3/6 786/3/6 794/3/6
f 794/3/6 786/3/6 795/3/6
f 792/3/6 793/3/6 796/3/6
f 789/3/6 792/3/6 796/3/6
f 796/3/6 793/3/6 797/3/6
f 790/3/6 794/3/6 799/3/6
f 797/3/6 793/3/6 800/3/6
f 798/3/6 799/3/6 802/3/6
f 799/3/6 794/3/6 802/3/6
f 802/3/6 794/3/6 803/3/6
f 800/3/6 801/3/6 804/3/6
f 797/3/6 800/3/6 804/3/6
f 804/3/6 801/3/6 805/3/6
f 798/3/6 802/3/6 806/3/6
f 806/3/6 802/3/6 807/3/6
f 808/3/6 809/3/6 810/3/6
f 810/3/6 809/3/6 811/3/6
f 805/3/6 801/3/6 813/3/6
f 813/3/6 801/3/6 814/3/6
f 814/3/6 801/3/6 815/3/6
f 816/3/6 817/3/6 818/3/6
f 818/3/6 817/3/6 819/3/6
f 812/3/6 813/3/6 821/3/6
f 813/3/6 814/3/6 821/3/6
f 821/3/6 814/3/6 822/3/6
f 822/3/6 814/3/6 823/3/6
f 816/3/6 818/3/6 824/3/6
f 824/3/6 818/3/6 825/3/6
f 816/3/6 824/3/6 826/3/6
f 826/3/6 824/3/6 827/3/6
f 821/3/6 822/3/6 829/3/6
f 820/3/6 821/3/6 829/3/6
f 829/3/6 822/3/6 830/3/6
f 830/3/6 822/3/6 831/3/6
f 828/3/6 829/3/6 833/3/6
f 829/3/6 830/3/6 833/3/6
f 833/3/6 830/3/6 834/3/6
f 834/3/6 830/3/6 835/3/6
f 816/3/6 826/3/6 836/3/6
f 836/3/6 826/3/6 837/3/6
f 832/3/6 833/3/6 840/3/6
f 833/3/6 834/3/6 840/3/6
f 840/3/6 834/3/6 841/3/6
f 841/3/6 834/3/6 842/3/6
f 816/3/6 836/3/6 843/3/6
f 843/3/6 836/3/6 844/3/6
f 837/3/6 838/3/6 845/3/6
f 845/3/6 838/3/6 846/3/6
f 840/3/6 841/3/6 849/3/6
f 839/3/6 840/3/6 849/3/6
f 849/3/6 841/3/6 850/3/6
f 850/3/6 841/3/6 851/3/6
f 816/3/6 843/3/6 852/3/6
f 852/3/6 843/3/6 853/3/6
f 846/3/6 847/3/6 854/3/6
f 854/3/6 847/3/6 855/3/6
f 849/3/6 850/3/6 856/3/6
f 848/3/6 849/3/6 856/3/6
f 856/3/6 850/3/6 857/3/6
f 857/3/6 850/3/6 858/3/6
f 816/3/6 852/3/6 859/3/6
f 859/3/6 852/3/6 860/3/6
f 856/3/6 857/3/6 861/3/6
f 855/3/6 856/3/6 861/3/6
f 861/3/6 857/3/6 862/3/6
f 863/3/6 864/3/6 865/3/6
f 865/3/6 864/3/6 866/3/6
f 867/2/6 868/2/6 869/2/6
f 869/2/6 868/2/6 870/2/6
f 867/2/6 869/2/6 871/2/6
f 869/3/6 870/3/6 871/3/6
f 870/2/6 868/2/6 872/2/6
f 871/3/6 870/3/6 872/3/6
f 867/2/6 871/2/6 873/2/6
f 871/2/6 872/2/6 873/2/6
f 872/2/6 868/2/6 874/2/6
f 873/2/6 872/2/6 874/2/6
f 875/2/6 876/2/6 877/2/6
f 877/2/6 876/2/6 878/2/6
f 875/2/6 877/2/6 879/2/6
f 878/2/6 876/2/6 880/2/6
f 875/2/6 879/2/6 881/2/6
f 879/2/6 880/2/6 881/2/6
f 880/2/6 876/2/6 882/2/6
f 881/2/6 880/2/6 882/2/6
f 883/3/6 884/3/6 885/3/6
f 885/3/6 884/3/6 886/3/6
f 887/3/6 888/3/6 889/3/6
f 889/3/6 888/3/6 890/3/6
f 891/3/6 892/3/6 893/3/6
f 893/3/6 892/3/6 894/3/6
f 895/3/6 896/3/6 897/3/6
f 897/3/6 896/3/6 898/3/6
