# MagicaVoxel @ Ephtracy

# material
mtllib _8.mtl
usemtl palette

# normals
vn -1 0 0
vn 1 0 0
vn 0 0 1
vn 0 0 -1
vn 0 -1 0
vn 0 1 0

# texcoords
vt 0.0214844 0.5
vt 0.994141 0.5

# verts
v -8.5 1 1
v -8.5 1 -0
v -8.5 1 -1
v -8.5 7 1
v -8.5 7 -0
v -8.5 7 -1
v -7.5 0 1
v -7.5 0 -0
v -7.5 0 -1
v -7.5 1 1
v -7.5 1 -0
v -7.5 1 -1
v -7.5 7 1
v -7.5 7 -0
v -7.5 7 -1
v -7.5 8 1
v -7.5 8 -0
v -7.5 8 -1
v -4.5 2 1
v -4.5 2 -0
v -4.5 2 -1
v -4.5 4 1
v -4.5 4 -0
v -4.5 4 -1
v -4.5 5 1
v -4.5 5 -0
v -4.5 5 -1
v -4.5 7 1
v -4.5 7 -0
v -4.5 7 -1
v -7.5 2 1
v -7.5 2 -0
v -7.5 2 -1
v -7.5 4 1
v -7.5 4 -0
v -7.5 4 -1
v -7.5 5 1
v -7.5 5 -0
v -7.5 5 -1
v -7.5 7 1
v -7.5 7 -0
v -7.5 7 -1
v -4.5 0 1
v -4.5 0 -0
v -4.5 0 -1
v -4.5 1 1
v -4.5 1 -0
v -4.5 1 -1
v -4.5 7 1
v -4.5 7 -0
v -4.5 7 -1
v -4.5 8 1
v -4.5 8 -0
v -4.5 8 -1
v -3.5 1 1
v -3.5 1 -0
v -3.5 1 -1
v -3.5 7 1
v -3.5 7 -0
v -3.5 7 -1
v -8.5 1 1
v -8.5 7 1
v -7.5 0 1
v -7.5 1 1
v -7.5 2 1
v -7.5 4 1
v -7.5 5 1
v -7.5 7 1
v -7.5 8 1
v -4.5 0 1
v -4.5 1 1
v -4.5 2 1
v -4.5 4 1
v -4.5 5 1
v -4.5 7 1
v -4.5 8 1
v -3.5 1 1
v -3.5 7 1
v -8.5 1 -1
v -8.5 7 -1
v -7.5 0 -1
v -7.5 1 -1
v -7.5 2 -1
v -7.5 4 -1
v -7.5 5 -1
v -7.5 7 -1
v -7.5 8 -1
v -4.5 0 -1
v -4.5 1 -1
v -4.5 2 -1
v -4.5 4 -1
v -4.5 5 -1
v -4.5 7 -1
v -4.5 8 -1
v -3.5 1 -1
v -3.5 7 -1
v -7.5 0 1
v -4.5 0 1
v -7.5 0 -0
v -4.5 0 -0
v -7.5 0 -1
v -4.5 0 -1
v -8.5 1 1
v -7.5 1 1
v -4.5 1 1
v -3.5 1 1
v -8.5 1 -0
v -7.5 1 -0
v -4.5 1 -0
v -3.5 1 -0
v -8.5 1 -1
v -7.5 1 -1
v -4.5 1 -1
v -3.5 1 -1
v -7.5 4 1
v -4.5 4 1
v -7.5 4 -0
v -4.5 4 -0
v -7.5 4 -1
v -4.5 4 -1
v -7.5 7 1
v -4.5 7 1
v -7.5 7 -0
v -4.5 7 -0
v -7.5 7 -1
v -4.5 7 -1
v -7.5 2 1
v -4.5 2 1
v -7.5 2 -0
v -4.5 2 -0
v -7.5 2 -1
v -4.5 2 -1
v -7.5 5 1
v -4.5 5 1
v -7.5 5 -0
v -4.5 5 -0
v -7.5 5 -1
v -4.5 5 -1
v -8.5 7 1
v -7.5 7 1
v -4.5 7 1
v -3.5 7 1
v -8.5 7 -0
v -7.5 7 -0
v -4.5 7 -0
v -3.5 7 -0
v -8.5 7 -1
v -7.5 7 -1
v -4.5 7 -1
v -3.5 7 -1
v -7.5 8 1
v -4.5 8 1
v -7.5 8 -0
v -4.5 8 -0
v -7.5 8 -1
v -4.5 8 -1

# faces
f 4/1/1 2/1/1 1/1/1
f 5/2/1 3/2/1 2/2/1
f 5/1/1 2/1/1 4/1/1
f 6/2/1 3/2/1 5/2/1
f 10/1/1 8/1/1 7/1/1
f 11/2/1 9/2/1 8/2/1
f 11/1/1 8/1/1 10/1/1
f 12/2/1 9/2/1 11/2/1
f 16/1/1 14/1/1 13/1/1
f 17/2/1 15/2/1 14/2/1
f 17/1/1 14/1/1 16/1/1
f 18/2/1 15/2/1 17/2/1
f 22/1/1 20/1/1 19/1/1
f 23/2/1 21/2/1 20/2/1
f 23/1/1 20/1/1 22/1/1
f 24/2/1 21/2/1 23/2/1
f 28/1/1 26/1/1 25/1/1
f 29/2/1 27/2/1 26/2/1
f 29/1/1 26/1/1 28/1/1
f 30/2/1 27/2/1 29/2/1
f 31/1/2 32/1/2 34/1/2
f 32/2/2 33/2/2 35/2/2
f 34/1/2 32/1/2 35/1/2
f 35/2/2 33/2/2 36/2/2
f 37/1/2 38/1/2 40/1/2
f 38/2/2 39/2/2 41/2/2
f 40/1/2 38/1/2 41/1/2
f 41/2/2 39/2/2 42/2/2
f 43/1/2 44/1/2 46/1/2
f 44/2/2 45/2/2 47/2/2
f 46/1/2 44/1/2 47/1/2
f 47/2/2 45/2/2 48/2/2
f 49/1/2 50/1/2 52/1/2
f 50/2/2 51/2/2 53/2/2
f 52/1/2 50/1/2 53/1/2
f 53/2/2 51/2/2 54/2/2
f 55/1/2 56/1/2 58/1/2
f 56/2/2 57/2/2 59/2/2
f 58/1/2 56/1/2 59/1/2
f 59/2/2 57/2/2 60/2/2
f 64/1/3 62/1/3 61/1/3
f 65/1/3 62/1/3 64/1/3
f 66/1/3 62/1/3 65/1/3
f 67/1/3 62/1/3 66/1/3
f 68/1/3 62/1/3 67/1/3
f 70/1/3 64/1/3 63/1/3
f 70/1/3 65/1/3 64/1/3
f 71/1/3 65/1/3 70/1/3
f 72/1/3 65/1/3 71/1/3
f 73/1/3 67/1/3 66/1/3
f 74/1/3 67/1/3 73/1/3
f 75/1/3 69/1/3 68/1/3
f 76/1/3 69/1/3 75/1/3
f 77/1/3 74/1/3 73/1/3
f 77/1/3 72/1/3 71/1/3
f 77/1/3 75/1/3 74/1/3
f 77/1/3 73/1/3 72/1/3
f 78/1/3 75/1/3 77/1/3
f 79/2/4 80/2/4 82/2/4
f 82/2/4 80/2/4 83/2/4
f 83/2/4 80/2/4 84/2/4
f 84/2/4 80/2/4 85/2/4
f 85/2/4 80/2/4 86/2/4
f 81/2/4 82/2/4 88/2/4
f 82/2/4 83/2/4 88/2/4
f 88/2/4 83/2/4 89/2/4
f 89/2/4 83/2/4 90/2/4
f 84/2/4 85/2/4 91/2/4
f 91/2/4 85/2/4 92/2/4
f 86/2/4 87/2/4 93/2/4
f 93/2/4 87/2/4 94/2/4
f 91/2/4 92/2/4 95/2/4
f 89/2/4 90/2/4 95/2/4
f 92/2/4 93/2/4 95/2/4
f 90/2/4 91/2/4 95/2/4
f 95/2/4 93/2/4 96/2/4
f 99/1/5 98/1/5 97/1/5
f 100/1/5 98/1/5 99/1/5
f 101/2/5 100/2/5 99/2/5
f 102/2/5 100/2/5 101/2/5
f 107/1/5 104/1/5 103/1/5
f 108/1/5 104/1/5 107/1/5
f 109/1/5 106/1/5 105/1/5
f 110/1/5 106/1/5 109/1/5
f 111/2/5 108/2/5 107/2/5
f 112/2/5 108/2/5 111/2/5
f 113/2/5 110/2/5 109/2/5
f 114/2/5 110/2/5 113/2/5
f 117/1/5 116/1/5 115/1/5
f 118/1/5 116/1/5 117/1/5
f 119/2/5 118/2/5 117/2/5
f 120/2/5 118/2/5 119/2/5
f 123/1/5 122/1/5 121/1/5
f 124/1/5 122/1/5 123/1/5
f 125/2/5 124/2/5 123/2/5
f 126/2/5 124/2/5 125/2/5
f 127/1/6 128/1/6 129/1/6
f 129/1/6 128/1/6 130/1/6
f 129/2/6 130/2/6 131/2/6
f 131/2/6 130/2/6 132/2/6
f 133/1/6 134/1/6 135/1/6
f 135/1/6 134/1/6 136/1/6
f 135/2/6 136/2/6 137/2/6
f 137/2/6 136/2/6 138/2/6
f 139/1/6 140/1/6 143/1/6
f 143/1/6 140/1/6 144/1/6
f 141/1/6 142/1/6 145/1/6
f 145/1/6 142/1/6 146/1/6
f 143/2/6 144/2/6 147/2/6
f 147/2/6 144/2/6 148/2/6
f 145/2/6 146/2/6 149/2/6
f 149/2/6 146/2/6 150/2/6
f 151/1/6 152/1/6 153/1/6
f 153/1/6 152/1/6 154/1/6
f 153/2/6 154/2/6 155/2/6
f 155/2/6 154/2/6 156/2/6
