# MagicaVoxel @ Ephtracy

# material
mtllib _?.mtl
usemtl palette

# normals
vn -1 0 0
vn 1 0 0
vn 0 0 1
vn 0 0 -1
vn 0 -1 0
vn 0 1 0

# texcoords
vt 0.0214844 0.5
vt 0.994141 0.5

# verts
v -8.5 0 1
v -8.5 0 -0
v -8.5 0 -1
v -8.5 2 1
v -8.5 2 -0
v -8.5 2 -1
v -8.5 3 1
v -8.5 3 -0
v -8.5 3 -1
v -8.5 5 1
v -8.5 5 -0
v -8.5 5 -1
v -8.5 7 1
v -8.5 7 -0
v -8.5 7 -1
v -8.5 8 1
v -8.5 8 -0
v -8.5 8 -1
v -4.5 5 1
v -4.5 5 -0
v -4.5 5 -1
v -4.5 7 1
v -4.5 7 -0
v -4.5 7 -1
v -5.5 0 1
v -5.5 0 -0
v -5.5 0 -1
v -5.5 2 1
v -5.5 2 -0
v -5.5 2 -1
v -5.5 3 1
v -5.5 3 -0
v -5.5 3 -1
v -5.5 4 1
v -5.5 4 -0
v -5.5 4 -1
v -3.5 4 1
v -3.5 4 -0
v -3.5 4 -1
v -3.5 8 1
v -3.5 8 -0
v -3.5 8 -1
v -8.5 0 1
v -8.5 2 1
v -8.5 3 1
v -8.5 5 1
v -8.5 7 1
v -8.5 8 1
v -5.5 0 1
v -5.5 2 1
v -5.5 3 1
v -5.5 4 1
v -4.5 5 1
v -4.5 7 1
v -3.5 4 1
v -3.5 8 1
v -8.5 0 -1
v -8.5 2 -1
v -8.5 3 -1
v -8.5 5 -1
v -8.5 7 -1
v -8.5 8 -1
v -5.5 0 -1
v -5.5 2 -1
v -5.5 3 -1
v -5.5 4 -1
v -4.5 5 -1
v -4.5 7 -1
v -3.5 4 -1
v -3.5 8 -1
v -8.5 0 1
v -5.5 0 1
v -8.5 0 -0
v -5.5 0 -0
v -8.5 0 -1
v -5.5 0 -1
v -8.5 3 1
v -5.5 3 1
v -8.5 3 -0
v -5.5 3 -0
v -8.5 3 -1
v -5.5 3 -1
v -5.5 4 1
v -3.5 4 1
v -5.5 4 -0
v -3.5 4 -0
v -5.5 4 -1
v -3.5 4 -1
v -8.5 7 1
v -4.5 7 1
v -8.5 7 -0
v -4.5 7 -0
v -8.5 7 -1
v -4.5 7 -1
v -8.5 2 1
v -5.5 2 1
v -8.5 2 -0
v -5.5 2 -0
v -8.5 2 -1
v -5.5 2 -1
v -8.5 5 1
v -4.5 5 1
v -8.5 5 -0
v -4.5 5 -0
v -8.5 5 -1
v -4.5 5 -1
v -8.5 8 1
v -3.5 8 1
v -8.5 8 -0
v -3.5 8 -0
v -8.5 8 -1
v -3.5 8 -1

# faces
f 4/1/1 2/1/1 1/1/1
f 5/2/1 3/2/1 2/2/1
f 5/1/1 2/1/1 4/1/1
f 6/2/1 3/2/1 5/2/1
f 10/1/1 8/1/1 7/1/1
f 11/2/1 9/2/1 8/2/1
f 11/1/1 8/1/1 10/1/1
f 12/2/1 9/2/1 11/2/1
f 16/1/1 14/1/1 13/1/1
f 17/2/1 15/2/1 14/2/1
f 17/1/1 14/1/1 16/1/1
f 18/2/1 15/2/1 17/2/1
f 22/1/1 20/1/1 19/1/1
f 23/2/1 21/2/1 20/2/1
f 23/1/1 20/1/1 22/1/1
f 24/2/1 21/2/1 23/2/1
f 25/1/2 26/1/2 28/1/2
f 26/2/2 27/2/2 29/2/2
f 28/1/2 26/1/2 29/1/2
f 29/2/2 27/2/2 30/2/2
f 31/1/2 32/1/2 34/1/2
f 32/2/2 33/2/2 35/2/2
f 34/1/2 32/1/2 35/1/2
f 35/2/2 33/2/2 36/2/2
f 37/1/2 38/1/2 40/1/2
f 38/2/2 39/2/2 41/2/2
f 40/1/2 38/1/2 41/1/2
f 41/2/2 39/2/2 42/2/2
f 49/1/3 44/1/3 43/1/3
f 50/1/3 44/1/3 49/1/3
f 51/1/3 46/1/3 45/1/3
f 52/1/3 46/1/3 51/1/3
f 53/1/3 46/1/3 52/1/3
f 54/1/3 48/1/3 47/1/3
f 55/1/3 53/1/3 52/1/3
f 55/1/3 54/1/3 53/1/3
f 56/1/3 48/1/3 54/1/3
f 56/1/3 54/1/3 55/1/3
f 57/2/4 58/2/4 63/2/4
f 63/2/4 58/2/4 64/2/4
f 59/2/4 60/2/4 65/2/4
f 65/2/4 60/2/4 66/2/4
f 66/2/4 60/2/4 67/2/4
f 61/2/4 62/2/4 68/2/4
f 66/2/4 67/2/4 69/2/4
f 67/2/4 68/2/4 69/2/4
f 68/2/4 62/2/4 70/2/4
f 69/2/4 68/2/4 70/2/4
f 73/1/5 72/1/5 71/1/5
f 74/1/5 72/1/5 73/1/5
f 75/2/5 74/2/5 73/2/5
f 76/2/5 74/2/5 75/2/5
f 79/1/5 78/1/5 77/1/5
f 80/1/5 78/1/5 79/1/5
f 81/2/5 80/2/5 79/2/5
f 82/2/5 80/2/5 81/2/5
f 85/1/5 84/1/5 83/1/5
f 86/1/5 84/1/5 85/1/5
f 87/2/5 86/2/5 85/2/5
f 88/2/5 86/2/5 87/2/5
f 91/1/5 90/1/5 89/1/5
f 92/1/5 90/1/5 91/1/5
f 93/2/5 92/2/5 91/2/5
f 94/2/5 92/2/5 93/2/5
f 95/1/6 96/1/6 97/1/6
f 97/1/6 96/1/6 98/1/6
f 97/2/6 98/2/6 99/2/6
f 99/2/6 98/2/6 100/2/6
f 101/1/6 102/1/6 103/1/6
f 103/1/6 102/1/6 104/1/6
f 103/2/6 104/2/6 105/2/6
f 105/2/6 104/2/6 106/2/6
f 107/1/6 108/1/6 109/1/6
f 109/1/6 108/1/6 110/1/6
f 109/2/6 110/2/6 111/2/6
f 111/2/6 110/2/6 112/2/6
