# MagicaVoxel @ Ephtracy

# material
mtllib _J.mtl
usemtl palette

# normals
vn -1 0 0
vn 1 0 0
vn 0 0 1
vn 0 0 -1
vn 0 -1 0
vn 0 1 0

# texcoords
vt 0.0214844 0.5
vt 0.994141 0.5

# verts
v 15.5 0 1
v 15.5 0 -0
v 15.5 0 -1
v 15.5 2 1
v 15.5 2 -0
v 15.5 2 -1
v 17.5 7 1
v 17.5 7 -0
v 17.5 7 -1
v 17.5 8 1
v 17.5 8 -0
v 17.5 8 -1
v 18.5 2 1
v 18.5 2 -0
v 18.5 2 -1
v 18.5 7 1
v 18.5 7 -0
v 18.5 7 -1
v 20.5 0 1
v 20.5 0 -0
v 20.5 0 -1
v 20.5 8 1
v 20.5 8 -0
v 20.5 8 -1
v 15.5 0 1
v 15.5 2 1
v 17.5 7 1
v 17.5 8 1
v 18.5 2 1
v 18.5 7 1
v 20.5 0 1
v 20.5 8 1
v 15.5 0 -1
v 15.5 2 -1
v 17.5 7 -1
v 17.5 8 -1
v 18.5 2 -1
v 18.5 7 -1
v 20.5 0 -1
v 20.5 8 -1
v 15.5 0 1
v 20.5 0 1
v 15.5 0 -0
v 20.5 0 -0
v 15.5 0 -1
v 20.5 0 -1
v 17.5 7 1
v 18.5 7 1
v 17.5 7 -0
v 18.5 7 -0
v 17.5 7 -1
v 18.5 7 -1
v 15.5 2 1
v 18.5 2 1
v 15.5 2 -0
v 18.5 2 -0
v 15.5 2 -1
v 18.5 2 -1
v 17.5 8 1
v 20.5 8 1
v 17.5 8 -0
v 20.5 8 -0
v 17.5 8 -1
v 20.5 8 -1

# faces
f 4/1/1 2/1/1 1/1/1
f 5/2/1 3/2/1 2/2/1
f 5/1/1 2/1/1 4/1/1
f 6/2/1 3/2/1 5/2/1
f 10/1/1 8/1/1 7/1/1
f 11/2/1 9/2/1 8/2/1
f 11/1/1 8/1/1 10/1/1
f 12/2/1 9/2/1 11/2/1
f 16/1/1 14/1/1 13/1/1
f 17/2/1 15/2/1 14/2/1
f 17/1/1 14/1/1 16/1/1
f 18/2/1 15/2/1 17/2/1
f 19/1/2 20/1/2 22/1/2
f 20/2/2 21/2/2 23/2/2
f 22/1/2 20/1/2 23/1/2
f 23/2/2 21/2/2 24/2/2
f 29/1/3 26/1/3 25/1/3
f 30/1/3 28/1/3 27/1/3
f 31/1/3 29/1/3 25/1/3
f 31/1/3 30/1/3 29/1/3
f 32/1/3 28/1/3 30/1/3
f 32/1/3 30/1/3 31/1/3
f 33/2/4 34/2/4 37/2/4
f 35/2/4 36/2/4 38/2/4
f 33/2/4 37/2/4 39/2/4
f 37/2/4 38/2/4 39/2/4
f 38/2/4 36/2/4 40/2/4
f 39/2/4 38/2/4 40/2/4
f 43/1/5 42/1/5 41/1/5
f 44/1/5 42/1/5 43/1/5
f 45/2/5 44/2/5 43/2/5
f 46/2/5 44/2/5 45/2/5
f 49/1/5 48/1/5 47/1/5
f 50/1/5 48/1/5 49/1/5
f 51/2/5 50/2/5 49/2/5
f 52/2/5 50/2/5 51/2/5
f 53/1/6 54/1/6 55/1/6
f 55/1/6 54/1/6 56/1/6
f 55/2/6 56/2/6 57/2/6
f 57/2/6 56/2/6 58/2/6
f 59/1/6 60/1/6 61/1/6
f 61/1/6 60/1/6 62/1/6
f 61/2/6 62/2/6 63/2/6
f 63/2/6 62/2/6 64/2/6
