# MagicaVoxel @ Ephtracy

# material
mtllib AboutPhone.mtl
usemtl palette

# normals
vn -1 0 0
vn 1 0 0
vn 0 0 1
vn 0 0 -1
vn 0 -1 0
vn 0 1 0

# texcoords
vt 0.0175781 0.5
vt 0.0214844 0.5
vt 0.0917969 0.5
vt 0.958984 0.5
vt 0.978516 0.5
vt 0.982422 0.5
vt 0.990234 0.5
vt 0.994141 0.5

# verts
v -10 4 -2
v -10 4 -3
v -10 29 5
v -10 29 4
v -10 30 5
v -10 30 4
v -10 31 5
v -10 31 4
v -10 35 5
v -10 35 4
v -10 36 -2
v -10 36 -3
v -10 40 5
v -10 40 4
v -9 3 -2
v -9 3 -3
v -9 4 -1
v -9 4 -2
v -9 4 -3
v -9 36 -1
v -9 36 -2
v -9 36 -3
v -9 37 -2
v -9 37 -3
v -8 2 -2
v -8 2 -3
v -8 3 -1
v -8 3 -2
v -8 3 -3
v -8 4 -1
v -8 4 -2
v -8 32 5
v -8 32 4
v -8 35 5
v -8 35 4
v -8 36 -1
v -8 36 -2
v -8 37 -1
v -8 37 -2
v -8 37 -3
v -8 38 -2
v -8 38 -3
v -7 36 5
v -7 36 4
v -7 39 5
v -7 39 4
v -7 40 5
v -7 40 4
v -4 32 5
v -4 32 4
v -4 40 5
v -4 40 4
v -3 4 -0
v -3 4 -1
v -3 5 -0
v -3 5 -1
v 0 33 5
v 0 33 4
v 0 40 5
v 0 40 4
v 2 32 5
v 2 32 4
v 2 40 5
v 2 40 4
v 5 35 5
v 5 35 4
v 5 37 5
v 5 37 4
v 6 38 5
v 6 38 4
v 6 39 5
v 6 39 4
v 7 32 5
v 7 32 4
v 7 34 5
v 7 34 4
v 7 37 5
v 7 37 4
v 7 39 5
v 7 39 4
v 7 40 5
v 7 40 4
v 9 32 5
v 9 32 4
v 9 34 5
v 9 34 4
v 9 35 5
v 9 35 4
v 9 40 5
v 9 40 4
v -9 36 5
v -9 36 4
v -9 40 5
v -9 40 4
v -6 32 5
v -6 32 4
v -6 35 5
v -6 35 4
v -5 35 5
v -5 35 4
v -5 39 5
v -5 39 4
v -5 40 5
v -5 40 4
v -2 33 5
v -2 33 4
v -2 40 5
v -2 40 4
v 1 32 5
v 1 32 4
v 1 40 5
v 1 40 4
v 4 32 5
v 4 32 4
v 4 37 5
v 4 37 4
v 4 39 5
v 4 39 4
v 4 40 5
v 4 40 4
v 5 38 5
v 5 38 4
v 5 39 5
v 5 39 4
v 6 35 5
v 6 35 4
v 6 37 5
v 6 37 4
v 8 2 -2
v 8 2 -3
v 8 3 -1
v 8 3 -2
v 8 3 -3
v 8 4 -0
v 8 4 -1
v 8 4 -2
v 8 5 -0
v 8 5 -1
v 8 32 5
v 8 32 4
v 8 34 5
v 8 34 4
v 8 36 -1
v 8 36 -2
v 8 37 -1
v 8 37 -2
v 8 37 -3
v 8 38 -2
v 8 38 -3
v 8 39 5
v 8 39 4
v 8 40 5
v 8 40 4
v 9 3 -2
v 9 3 -3
v 9 4 -1
v 9 4 -2
v 9 4 -3
v 9 36 -1
v 9 36 -2
v 9 36 -3
v 9 37 -2
v 9 37 -3
v 10 4 -2
v 10 4 -3
v 10 29 5
v 10 29 4
v 10 30 5
v 10 30 4
v 10 31 5
v 10 31 4
v 10 32 5
v 10 32 4
v 10 34 5
v 10 34 4
v 10 35 5
v 10 35 4
v 10 36 -2
v 10 36 -3
v 10 40 5
v 10 40 4
v -10 29 5
v -10 30 5
v -10 31 5
v -10 35 5
v -10 40 5
v -9 35 5
v -9 36 5
v -9 40 5
v -8 32 5
v -8 35 5
v -7 36 5
v -7 39 5
v -7 40 5
v -6 32 5
v -6 35 5
v -5 35 5
v -5 39 5
v -5 40 5
v -4 32 5
v -4 40 5
v -2 32 5
v -2 33 5
v -2 40 5
v 0 32 5
v 0 33 5
v 0 40 5
v 1 32 5
v 1 40 5
v 2 32 5
v 2 40 5
v 3 32 5
v 3 40 5
v 4 32 5
v 4 37 5
v 4 39 5
v 4 40 5
v 5 35 5
v 5 37 5
v 5 38 5
v 5 39 5
v 6 35 5
v 6 37 5
v 6 38 5
v 6 39 5
v 7 32 5
v 7 34 5
v 7 37 5
v 7 39 5
v 7 40 5
v 8 32 5
v 8 34 5
v 8 39 5
v 8 40 5
v 9 29 5
v 9 30 5
v 9 31 5
v 9 32 5
v 9 34 5
v 9 35 5
v 9 40 5
v 10 29 5
v 10 30 5
v 10 31 5
v 10 32 5
v 10 34 5
v 10 35 5
v 10 40 5
v -3 4 -0
v -3 5 -0
v 8 4 -0
v 8 5 -0
v -9 4 -1
v -9 36 -1
v -8 3 -1
v -8 4 -1
v -8 36 -1
v -8 37 -1
v -4 35 -1
v -4 36 -1
v -3 4 -1
v -3 5 -1
v -3 34 -1
v -3 35 -1
v -2 5 -1
v -2 6 -1
v 2 5 -1
v 2 6 -1
v 3 34 -1
v 3 35 -1
v 4 35 -1
v 4 36 -1
v 8 3 -1
v 8 4 -1
v 8 5 -1
v 8 36 -1
v 8 37 -1
v 9 4 -1
v 9 36 -1
v -10 4 -2
v -10 36 -2
v -9 3 -2
v -9 4 -2
v -9 36 -2
v -9 37 -2
v -8 2 -2
v -8 3 -2
v -8 4 -2
v -8 36 -2
v -8 37 -2
v -8 38 -2
v 8 2 -2
v 8 3 -2
v 8 4 -2
v 8 36 -2
v 8 37 -2
v 8 38 -2
v 9 3 -2
v 9 4 -2
v 9 36 -2
v 9 37 -2
v 10 4 -2
v 10 36 -2
v -10 29 4
v -10 30 4
v -10 31 4
v -10 35 4
v -10 40 4
v -9 35 4
v -9 36 4
v -9 40 4
v -8 32 4
v -8 35 4
v -7 36 4
v -7 39 4
v -7 40 4
v -6 32 4
v -6 35 4
v -5 35 4
v -5 39 4
v -5 40 4
v -4 32 4
v -4 40 4
v -2 32 4
v -2 33 4
v -2 40 4
v 0 32 4
v 0 33 4
v 0 40 4
v 1 32 4
v 1 40 4
v 2 32 4
v 2 40 4
v 3 32 4
v 3 40 4
v 4 32 4
v 4 37 4
v 4 39 4
v 4 40 4
v 5 35 4
v 5 37 4
v 5 38 4
v 5 39 4
v 6 35 4
v 6 37 4
v 6 38 4
v 6 39 4
v 7 32 4
v 7 34 4
v 7 37 4
v 7 39 4
v 7 40 4
v 8 32 4
v 8 34 4
v 8 39 4
v 8 40 4
v 9 29 4
v 9 30 4
v 9 31 4
v 9 32 4
v 9 34 4
v 9 35 4
v 9 40 4
v 10 29 4
v 10 30 4
v 10 31 4
v 10 32 4
v 10 34 4
v 10 35 4
v 10 40 4
v -10 4 -3
v -10 36 -3
v -9 3 -3
v -9 4 -3
v -9 36 -3
v -9 37 -3
v -8 2 -3
v -8 3 -3
v -8 37 -3
v -8 38 -3
v 8 2 -3
v 8 3 -3
v 8 37 -3
v 8 38 -3
v 9 3 -3
v 9 4 -3
v 9 36 -3
v 9 37 -3
v 10 4 -3
v 10 36 -3
v -8 2 -2
v 8 2 -2
v -8 2 -3
v 8 2 -3
v -8 3 -1
v 8 3 -1
v -9 3 -2
v -8 3 -2
v 8 3 -2
v 9 3 -2
v -9 3 -3
v -8 3 -3
v 8 3 -3
v 9 3 -3
v -3 4 -0
v 8 4 -0
v -9 4 -1
v -8 4 -1
v -3 4 -1
v 8 4 -1
v 9 4 -1
v -10 4 -2
v -9 4 -2
v -8 4 -2
v 8 4 -2
v 9 4 -2
v 10 4 -2
v -10 4 -3
v -9 4 -3
v 9 4 -3
v 10 4 -3
v -10 29 5
v 9 29 5
v 10 29 5
v -10 29 4
v 9 29 4
v 10 29 4
v -8 32 5
v -6 32 5
v -4 32 5
v -2 32 5
v 0 32 5
v 1 32 5
v 2 32 5
v 3 32 5
v 4 32 5
v 7 32 5
v 8 32 5
v 9 32 5
v 10 32 5
v -8 32 4
v -6 32 4
v -4 32 4
v -2 32 4
v 0 32 4
v 1 32 4
v 2 32 4
v 3 32 4
v 4 32 4
v 7 32 4
v 8 32 4
v 9 32 4
v 10 32 4
v -10 35 5
v -9 35 5
v -8 35 5
v -6 35 5
v -5 35 5
v 5 35 5
v 6 35 5
v 9 35 5
v 10 35 5
v -10 35 4
v -9 35 4
v -8 35 4
v -6 35 4
v -5 35 4
v 5 35 4
v 6 35 4
v 9 35 4
v 10 35 4
v 4 37 5
v 5 37 5
v 6 37 5
v 7 37 5
v 4 37 4
v 5 37 4
v 6 37 4
v 7 37 4
v -3 5 -0
v 8 5 -0
v -3 5 -1
v -2 5 -1
v 2 5 -1
v 8 5 -1
v -10 31 5
v 9 31 5
v 10 31 5
v -10 31 4
v 9 31 4
v 10 31 4
v -2 33 5
v 0 33 5
v -2 33 4
v 0 33 4
v 9 34 5
v 10 34 5
v 9 34 4
v 10 34 4
v -9 36 5
v -7 36 5
v -9 36 4
v -7 36 4
v -9 36 -1
v -8 36 -1
v 8 36 -1
v 9 36 -1
v -10 36 -2
v -9 36 -2
v -8 36 -2
v 8 36 -2
v 9 36 -2
v 10 36 -2
v -10 36 -3
v -9 36 -3
v 9 36 -3
v 10 36 -3
v -8 37 -1
v 8 37 -1
v -9 37 -2
v -8 37 -2
v 8 37 -2
v 9 37 -2
v -9 37 -3
v -8 37 -3
v 8 37 -3
v 9 37 -3
v 5 38 5
v 6 38 5
v 5 38 4
v 6 38 4
v -8 38 -2
v 8 38 -2
v -8 38 -3
v 8 38 -3
v 4 39 5
v 5 39 5
v 6 39 5
v 7 39 5
v 4 39 4
v 5 39 4
v 6 39 4
v 7 39 4
v -10 40 5
v -9 40 5
v -7 40 5
v -5 40 5
v -4 40 5
v -2 40 5
v 0 40 5
v 1 40 5
v 2 40 5
v 3 40 5
v 4 40 5
v 7 40 5
v 8 40 5
v 9 40 5
v 10 40 5
v -10 40 4
v -9 40 4
v -7 40 4
v -5 40 4
v -4 40 4
v -2 40 4
v 0 40 4
v 1 40 4
v 2 40 4
v 3 40 4
v 4 40 4
v 7 40 4
v 8 40 4
v 9 40 4
v 10 40 4

# faces
f 5/2/1 4/2/1 3/2/1
f 6/2/1 4/2/1 5/2/1
f 7/3/1 6/3/1 5/3/1
f 8/3/1 6/3/1 7/3/1
f 11/6/1 2/6/1 1/6/1
f 12/6/1 2/6/1 11/6/1
f 13/1/1 10/1/1 9/1/1
f 14/1/1 10/1/1 13/1/1
f 18/6/1 16/6/1 15/6/1
f 19/6/1 16/6/1 18/6/1
f 20/5/1 18/5/1 17/5/1
f 21/5/1 18/5/1 20/5/1
f 23/6/1 22/6/1 21/6/1
f 24/6/1 22/6/1 23/6/1
f 28/6/1 26/6/1 25/6/1
f 29/6/1 26/6/1 28/6/1
f 30/5/1 28/5/1 27/5/1
f 31/5/1 28/5/1 30/5/1
f 34/2/1 33/2/1 32/2/1
f 35/2/1 33/2/1 34/2/1
f 38/5/1 37/5/1 36/5/1
f 39/5/1 37/5/1 38/5/1
f 41/6/1 40/6/1 39/6/1
f 42/6/1 40/6/1 41/6/1
f 45/2/1 44/2/1 43/2/1
f 46/2/1 44/2/1 45/2/1
f 47/1/1 46/1/1 45/1/1
f 48/1/1 46/1/1 47/1/1
f 51/1/1 50/1/1 49/1/1
f 52/1/1 50/1/1 51/1/1
f 55/8/1 54/8/1 53/8/1
f 56/8/1 54/8/1 55/8/1
f 59/1/1 58/1/1 57/1/1
f 60/1/1 58/1/1 59/1/1
f 63/2/1 62/2/1 61/2/1
f 64/2/1 62/2/1 63/2/1
f 67/2/1 66/2/1 65/2/1
f 68/2/1 66/2/1 67/2/1
f 71/2/1 70/2/1 69/2/1
f 72/2/1 70/2/1 71/2/1
f 75/1/1 74/1/1 73/1/1
f 76/1/1 74/1/1 75/1/1
f 77/2/1 76/2/1 75/2/1
f 78/2/1 76/2/1 77/2/1
f 81/1/1 80/1/1 79/1/1
f 82/1/1 80/1/1 81/1/1
f 85/3/1 84/3/1 83/3/1
f 86/3/1 84/3/1 85/3/1
f 89/2/1 88/2/1 87/2/1
f 90/2/1 88/2/1 89/2/1
f 91/1/2 92/1/2 93/1/2
f 93/1/2 92/1/2 94/1/2
f 95/2/2 96/2/2 97/2/2
f 97/2/2 96/2/2 98/2/2
f 99/2/2 100/2/2 101/2/2
f 101/2/2 100/2/2 102/2/2
f 101/1/2 102/1/2 103/1/2
f 103/1/2 102/1/2 104/1/2
f 105/1/2 106/1/2 107/1/2
f 107/1/2 106/1/2 108/1/2
f 109/1/2 110/1/2 111/1/2
f 111/1/2 110/1/2 112/1/2
f 113/1/2 114/1/2 115/1/2
f 115/1/2 114/1/2 116/1/2
f 117/1/2 118/1/2 119/1/2
f 119/1/2 118/1/2 120/1/2
f 121/2/2 122/2/2 123/2/2
f 123/2/2 122/2/2 124/2/2
f 125/2/2 126/2/2 127/2/2
f 127/2/2 126/2/2 128/2/2
f 129/6/2 130/6/2 132/6/2
f 132/6/2 130/6/2 133/6/2
f 131/5/2 132/5/2 135/5/2
f 135/5/2 132/5/2 136/5/2
f 134/8/2 135/8/2 137/8/2
f 137/8/2 135/8/2 138/8/2
f 139/1/2 140/1/2 141/1/2
f 141/1/2 140/1/2 142/1/2
f 143/5/2 144/5/2 145/5/2
f 145/5/2 144/5/2 146/5/2
f 146/6/2 147/6/2 148/6/2
f 148/6/2 147/6/2 149/6/2
f 141/2/2 142/2/2 150/2/2
f 150/2/2 142/2/2 151/2/2
f 150/1/2 151/1/2 152/1/2
f 152/1/2 151/1/2 153/1/2
f 154/6/2 155/6/2 157/6/2
f 157/6/2 155/6/2 158/6/2
f 156/5/2 157/5/2 159/5/2
f 159/5/2 157/5/2 160/5/2
f 160/6/2 161/6/2 162/6/2
f 162/6/2 161/6/2 163/6/2
f 166/3/2 167/3/2 168/3/2
f 168/3/2 167/3/2 169/3/2
f 168/2/2 169/2/2 170/2/2
f 170/2/2 169/2/2 171/2/2
f 172/3/2 173/3/2 174/3/2
f 174/3/2 173/3/2 175/3/2
f 164/6/2 165/6/2 178/6/2
f 178/6/2 165/6/2 179/6/2
f 176/2/2 177/2/2 180/2/2
f 180/2/2 177/2/2 181/2/2
f 187/1/3 186/1/3 185/1/3
f 188/1/3 186/1/3 187/1/3
f 189/1/3 186/1/3 188/1/3
f 191/2/3 188/2/3 187/2/3
f 192/2/3 188/2/3 191/2/3
f 192/2/3 191/2/3 190/2/3
f 195/2/3 192/2/3 190/2/3
f 195/2/3 193/2/3 192/2/3
f 196/2/3 193/2/3 195/2/3
f 197/2/3 193/2/3 196/2/3
f 198/1/3 194/1/3 193/1/3
f 198/2/3 193/2/3 197/2/3
f 199/1/3 194/1/3 198/1/3
f 202/1/3 201/1/3 200/1/3
f 203/1/3 201/1/3 202/1/3
f 204/1/3 201/1/3 203/1/3
f 205/2/3 203/2/3 202/2/3
f 206/2/3 203/2/3 205/2/3
f 208/1/3 206/1/3 205/1/3
f 208/1/3 207/1/3 206/1/3
f 209/1/3 207/1/3 208/1/3
f 212/2/3 211/2/3 210/2/3
f 213/2/3 211/2/3 212/2/3
f 214/1/3 213/1/3 212/1/3
f 215/1/3 213/1/3 214/1/3
f 216/1/3 213/1/3 215/1/3
f 217/1/3 213/1/3 216/1/3
f 219/2/3 216/2/3 215/2/3
f 220/2/3 216/2/3 219/2/3
f 221/2/3 216/2/3 220/2/3
f 222/2/3 219/2/3 218/2/3
f 222/2/3 220/2/3 219/2/3
f 223/2/3 220/2/3 222/2/3
f 224/2/3 220/2/3 223/2/3
f 228/2/3 225/2/3 224/2/3
f 228/2/3 224/2/3 223/2/3
f 229/2/3 225/2/3 228/2/3
f 231/1/3 227/1/3 226/1/3
f 232/2/3 229/2/3 228/2/3
f 232/1/3 227/1/3 231/1/3
f 232/2/3 228/2/3 227/2/3
f 233/1/3 230/1/3 229/1/3
f 233/2/3 229/2/3 232/2/3
f 234/1/3 230/1/3 233/1/3
f 235/2/3 183/2/3 182/2/3
f 236/3/3 184/3/3 183/3/3
f 236/2/3 183/2/3 235/2/3
f 237/3/3 184/3/3 236/3/3
f 242/3/3 236/3/3 235/3/3
f 243/2/3 237/2/3 236/2/3
f 243/3/3 236/3/3 242/3/3
f 244/2/3 237/2/3 243/2/3
f 245/3/3 239/3/3 238/3/3
f 246/3/3 239/3/3 245/3/3
f 247/2/3 241/2/3 240/2/3
f 248/2/3 241/2/3 247/2/3
f 251/8/3 250/8/3 249/8/3
f 252/8/3 250/8/3 251/8/3
f 256/5/3 254/5/3 253/5/3
f 257/5/3 254/5/3 256/5/3
f 259/8/3 257/8/3 256/8/3
f 260/5/3 258/5/3 257/5/3
f 260/8/3 257/8/3 259/8/3
f 261/5/3 256/5/3 255/5/3
f 261/8/3 259/8/3 256/8/3
f 262/8/3 259/8/3 261/8/3
f 263/8/3 259/8/3 262/8/3
f 264/5/3 260/5/3 259/5/3
f 264/8/3 259/8/3 263/8/3
f 265/8/3 263/8/3 262/8/3
f 266/8/3 263/8/3 265/8/3
f 267/4/3 266/4/3 265/4/3
f 268/8/3 263/8/3 266/8/3
f 268/4/3 266/4/3 267/4/3
f 269/7/3 264/7/3 263/7/3
f 269/8/3 263/8/3 268/8/3
f 269/8/3 268/8/3 267/8/3
f 270/5/3 260/5/3 264/5/3
f 270/7/3 264/7/3 269/7/3
f 271/8/3 270/8/3 269/8/3
f 271/5/3 260/5/3 270/5/3
f 272/5/3 258/5/3 260/5/3
f 272/5/3 260/5/3 271/5/3
f 273/5/3 261/5/3 255/5/3
f 274/5/3 261/5/3 273/5/3
f 275/8/3 271/8/3 269/8/3
f 275/8/3 269/8/3 267/8/3
f 275/8/3 272/8/3 271/8/3
f 276/5/3 258/5/3 272/5/3
f 276/8/3 272/8/3 275/8/3
f 277/5/3 258/5/3 276/5/3
f 278/5/3 275/5/3 274/5/3
f 278/5/3 276/5/3 275/5/3
f 279/5/3 276/5/3 278/5/3
f 283/6/3 281/6/3 280/6/3
f 284/6/3 281/6/3 283/6/3
f 287/6/3 283/6/3 282/6/3
f 288/6/3 283/6/3 287/6/3
f 289/6/3 285/6/3 284/6/3
f 290/6/3 285/6/3 289/6/3
f 292/6/3 287/6/3 286/6/3
f 293/6/3 287/6/3 292/6/3
f 296/6/3 291/6/3 290/6/3
f 297/6/3 291/6/3 296/6/3
f 298/6/3 294/6/3 293/6/3
f 299/6/3 294/6/3 298/6/3
f 300/6/3 296/6/3 295/6/3
f 301/6/3 296/6/3 300/6/3
f 302/6/3 300/6/3 299/6/3
f 303/6/3 300/6/3 302/6/3
f 307/1/4 308/1/4 309/1/4
f 309/1/4 308/1/4 310/1/4
f 310/1/4 308/1/4 311/1/4
f 309/2/4 310/2/4 313/2/4
f 313/2/4 310/2/4 314/2/4
f 312/2/4 313/2/4 314/2/4
f 312/2/4 314/2/4 317/2/4
f 314/2/4 315/2/4 317/2/4
f 317/2/4 315/2/4 318/2/4
f 318/2/4 315/2/4 319/2/4
f 315/1/4 316/1/4 320/1/4
f 319/2/4 315/2/4 320/2/4
f 320/1/4 316/1/4 321/1/4
f 322/1/4 323/1/4 324/1/4
f 324/1/4 323/1/4 325/1/4
f 325/1/4 323/1/4 326/1/4
f 324/2/4 325/2/4 327/2/4
f 327/2/4 325/2/4 328/2/4
f 327/1/4 328/1/4 330/1/4
f 328/1/4 329/1/4 330/1/4
f 330/1/4 329/1/4 331/1/4
f 332/2/4 333/2/4 334/2/4
f 334/2/4 333/2/4 335/2/4
f 334/1/4 335/1/4 336/1/4
f 336/1/4 335/1/4 337/1/4
f 337/1/4 335/1/4 338/1/4
f 338/1/4 335/1/4 339/1/4
f 337/2/4 338/2/4 341/2/4
f 341/2/4 338/2/4 342/2/4
f 342/2/4 338/2/4 343/2/4
f 340/2/4 341/2/4 344/2/4
f 341/2/4 342/2/4 344/2/4
f 344/2/4 342/2/4 345/2/4
f 345/2/4 342/2/4 346/2/4
f 346/2/4 347/2/4 350/2/4
f 345/2/4 346/2/4 350/2/4
f 350/2/4 347/2/4 351/2/4
f 348/1/4 349/1/4 353/1/4
f 350/2/4 351/2/4 354/2/4
f 353/1/4 349/1/4 354/1/4
f 349/2/4 350/2/4 354/2/4
f 351/1/4 352/1/4 355/1/4
f 354/2/4 351/2/4 355/2/4
f 355/1/4 352/1/4 356/1/4
f 304/2/4 305/2/4 357/2/4
f 305/3/4 306/3/4 358/3/4
f 357/2/4 305/2/4 358/2/4
f 358/3/4 306/3/4 359/3/4
f 357/3/4 358/3/4 364/3/4
f 358/2/4 359/2/4 365/2/4
f 364/3/4 358/3/4 365/3/4
f 365/2/4 359/2/4 366/2/4
f 360/3/4 361/3/4 367/3/4
f 367/3/4 361/3/4 368/3/4
f 362/2/4 363/2/4 369/2/4
f 369/2/4 363/2/4 370/2/4
f 371/6/4 372/6/4 374/6/4
f 374/6/4 372/6/4 375/6/4
f 373/6/4 374/6/4 378/6/4
f 375/6/4 376/6/4 378/6/4
f 374/6/4 375/6/4 378/6/4
f 378/6/4 376/6/4 379/6/4
f 377/6/4 378/6/4 381/6/4
f 379/6/4 380/6/4 381/6/4
f 378/6/4 379/6/4 381/6/4
f 381/6/4 380/6/4 382/6/4
f 382/6/4 380/6/4 383/6/4
f 383/6/4 380/6/4 384/6/4
f 382/6/4 383/6/4 385/6/4
f 385/6/4 383/6/4 386/6/4
f 386/6/4 383/6/4 387/6/4
f 387/6/4 383/6/4 388/6/4
f 386/6/4 387/6/4 389/6/4
f 389/6/4 387/6/4 390/6/4
f 393/6/5 392/6/5 391/6/5
f 394/6/5 392/6/5 393/6/5
f 398/5/5 396/5/5 395/5/5
f 399/5/5 396/5/5 398/5/5
f 401/6/5 398/6/5 397/6/5
f 402/6/5 398/6/5 401/6/5
f 403/6/5 400/6/5 399/6/5
f 404/6/5 400/6/5 403/6/5
f 409/8/5 406/8/5 405/8/5
f 410/8/5 406/8/5 409/8/5
f 413/5/5 408/5/5 407/5/5
f 414/5/5 408/5/5 413/5/5
f 415/5/5 411/5/5 410/5/5
f 416/5/5 411/5/5 415/5/5
f 418/6/5 413/6/5 412/6/5
f 419/6/5 413/6/5 418/6/5
f 420/6/5 417/6/5 416/6/5
f 421/6/5 417/6/5 420/6/5
f 425/2/5 423/2/5 422/2/5
f 426/3/5 424/3/5 423/3/5
f 426/2/5 423/2/5 425/2/5
f 427/3/5 424/3/5 426/3/5
f 441/2/5 429/2/5 428/2/5
f 442/2/5 429/2/5 441/2/5
f 443/1/5 431/1/5 430/1/5
f 444/2/5 432/2/5 431/2/5
f 444/1/5 431/1/5 443/1/5
f 445/1/5 433/1/5 432/1/5
f 445/2/5 432/2/5 444/2/5
f 446/1/5 433/1/5 445/1/5
f 447/2/5 435/2/5 434/2/5
f 448/1/5 436/1/5 435/1/5
f 448/2/5 435/2/5 447/2/5
f 449/1/5 436/1/5 448/1/5
f 450/1/5 438/1/5 437/1/5
f 451/1/5 438/1/5 450/1/5
f 452/3/5 440/3/5 439/3/5
f 453/3/5 440/3/5 452/3/5
f 463/1/5 455/1/5 454/1/5
f 464/2/5 456/2/5 455/2/5
f 464/1/5 455/1/5 463/1/5
f 465/2/5 456/2/5 464/2/5
f 466/2/5 458/2/5 457/2/5
f 467/2/5 458/2/5 466/2/5
f 468/2/5 460/2/5 459/2/5
f 469/2/5 460/2/5 468/2/5
f 470/2/5 462/2/5 461/2/5
f 471/2/5 462/2/5 470/2/5
f 476/2/5 473/2/5 472/2/5
f 477/2/5 473/2/5 476/2/5
f 478/2/5 475/2/5 474/2/5
f 479/2/5 475/2/5 478/2/5
f 480/8/6 481/8/6 482/8/6
f 482/8/6 481/8/6 483/8/6
f 483/8/6 481/8/6 484/8/6
f 484/8/6 481/8/6 485/8/6
f 486/3/6 487/3/6 489/3/6
f 487/2/6 488/2/6 490/2/6
f 489/3/6 487/3/6 490/3/6
f 490/2/6 488/2/6 491/2/6
f 492/2/6 493/2/6 494/2/6
f 494/2/6 493/2/6 495/2/6
f 496/3/6 497/3/6 498/3/6
f 498/3/6 497/3/6 499/3/6
f 500/2/6 501/2/6 502/2/6
f 502/2/6 501/2/6 503/2/6
f 504/5/6 505/5/6 509/5/6
f 509/5/6 505/5/6 510/5/6
f 506/5/6 507/5/6 511/5/6
f 511/5/6 507/5/6 512/5/6
f 508/6/6 509/6/6 514/6/6
f 514/6/6 509/6/6 515/6/6
f 512/6/6 513/6/6 516/6/6
f 516/6/6 513/6/6 517/6/6
f 518/5/6 519/5/6 521/5/6
f 521/5/6 519/5/6 522/5/6
f 520/6/6 521/6/6 524/6/6
f 524/6/6 521/6/6 525/6/6
f 522/6/6 523/6/6 526/6/6
f 526/6/6 523/6/6 527/6/6
f 528/2/6 529/2/6 530/2/6
f 530/2/6 529/2/6 531/2/6
f 532/6/6 533/6/6 534/6/6
f 534/6/6 533/6/6 535/6/6
f 536/2/6 537/2/6 540/2/6
f 540/2/6 537/2/6 541/2/6
f 538/2/6 539/2/6 542/2/6
f 542/2/6 539/2/6 543/2/6
f 544/1/6 545/1/6 559/1/6
f 559/1/6 545/1/6 560/1/6
f 546/1/6 547/1/6 561/1/6
f 561/1/6 547/1/6 562/1/6
f 548/1/6 549/1/6 563/1/6
f 563/1/6 549/1/6 564/1/6
f 550/1/6 551/1/6 565/1/6
f 565/1/6 551/1/6 566/1/6
f 552/2/6 553/2/6 567/2/6
f 553/1/6 554/1/6 568/1/6
f 567/2/6 553/2/6 568/2/6
f 568/1/6 554/1/6 569/1/6
f 555/1/6 556/1/6 570/1/6
f 570/1/6 556/1/6 571/1/6
f 557/2/6 558/2/6 572/2/6
f 572/2/6 558/2/6 573/2/6
