# MagicaVoxel @ Ephtracy

# material
mtllib buttonShape_cancel.mtl
usemtl palette

# normals
vn -1 0 0
vn 1 0 0
vn 0 0 1
vn 0 0 -1
vn 0 -1 0
vn 0 1 0

# texcoords
vt 0.845703 0.5
vt 0.986328 0.5
vt 0.994141 0.5

# verts
v -7 1 7
v -7 1 -3
v -7 1 -4
v -7 1 -6
v -7 2 7
v -7 2 6
v -7 2 -3
v -7 2 -4
v -7 2 -5
v -7 2 -6
v -7 3 6
v -7 3 -5
v -6 1 -3
v -6 1 -4
v -6 2 7
v -6 2 6
v -6 2 -3
v -6 2 -4
v -6 2 -5
v -6 2 -6
v -6 3 7
v -6 3 6
v -6 3 -5
v -6 3 -6
v -3 2 4
v -3 2 -2
v -3 3 4
v -3 3 -2
v -2 2 -2
v -2 2 -3
v -2 3 -2
v -2 3 -3
v -1 2 3
v -1 2 -0
v -1 3 3
v -1 3 -0
v 1 2 3
v 1 2 -0
v 1 3 3
v 1 3 -0
v 3 2 3
v 3 2 -0
v 3 2 -1
v 3 2 -2
v 3 3 3
v 3 3 -0
v 3 3 -1
v 3 3 -2
v 7 2 6
v 7 2 -5
v 7 3 6
v 7 3 -5
v -6 2 6
v -6 2 -5
v -6 3 6
v -6 3 -5
v -2 2 3
v -2 2 -0
v -2 2 -1
v -2 2 -2
v -2 3 3
v -2 3 -0
v -2 3 -1
v -2 3 -2
v 0 2 3
v 0 2 -0
v 0 3 3
v 0 3 -0
v 2 2 3
v 2 2 -0
v 2 3 3
v 2 3 -0
v 3 2 -2
v 3 2 -3
v 3 3 -2
v 3 3 -3
v 4 2 4
v 4 2 -2
v 4 3 4
v 4 3 -2
v 7 2 7
v 7 2 6
v 7 2 -5
v 7 2 -6
v 7 3 7
v 7 3 6
v 7 3 -5
v 7 3 -6
v 8 1 7
v 8 1 -6
v 8 2 7
v 8 2 6
v 8 2 -5
v 8 2 -6
v 8 3 6
v 8 3 -5
v -7 1 7
v -7 2 7
v -6 2 7
v -6 3 7
v 7 2 7
v 7 3 7
v 8 1 7
v 8 2 7
v -7 2 6
v -7 3 6
v -6 2 6
v -6 3 6
v 7 2 6
v 7 3 6
v 8 2 6
v 8 3 6
v -3 2 4
v -3 3 4
v 4 2 4
v 4 3 4
v -2 2 -0
v -2 3 -0
v -1 2 -0
v -1 3 -0
v 0 2 -0
v 0 3 -0
v 1 2 -0
v 1 3 -0
v 2 2 -0
v 2 3 -0
v 3 2 -0
v 3 3 -0
v -2 2 -2
v -2 3 -2
v 3 2 -2
v 3 3 -2
v -7 1 -4
v -7 2 -4
v -6 1 -4
v -6 2 -4
v -6 2 -5
v -6 3 -5
v 7 2 -5
v 7 3 -5
v -6 2 6
v -6 3 6
v 7 2 6
v 7 3 6
v -2 2 3
v -2 3 3
v -1 2 3
v -1 3 3
v 0 2 3
v 0 3 3
v 1 2 3
v 1 3 3
v 2 2 3
v 2 3 3
v 3 2 3
v 3 3 3
v -2 2 -1
v -2 3 -1
v 3 2 -1
v 3 3 -1
v -3 2 -2
v -3 3 -2
v -2 2 -2
v -2 3 -2
v 3 2 -2
v 3 3 -2
v 4 2 -2
v 4 3 -2
v -7 1 -3
v -7 2 -3
v -6 1 -3
v -6 2 -3
v -2 2 -3
v -2 3 -3
v 3 2 -3
v 3 3 -3
v -7 2 -5
v -7 3 -5
v -6 2 -5
v -6 3 -5
v 7 2 -5
v 7 3 -5
v 8 2 -5
v 8 3 -5
v -7 1 -6
v -7 2 -6
v -6 2 -6
v -6 3 -6
v 7 2 -6
v 7 3 -6
v 8 1 -6
v 8 2 -6
v -7 1 7
v 8 1 7
v -6 1 6
v 7 1 6
v -7 1 -3
v -6 1 -3
v -7 1 -4
v -6 1 -4
v -6 1 -5
v 7 1 -5
v -7 1 -6
v 8 1 -6
v -7 2 -3
v -6 2 -3
v -7 2 -4
v -6 2 -4
v -7 2 7
v -6 2 7
v 7 2 7
v 8 2 7
v -7 2 6
v -6 2 6
v 7 2 6
v 8 2 6
v -3 2 4
v 4 2 4
v -2 2 3
v -1 2 3
v 0 2 3
v 1 2 3
v 2 2 3
v 3 2 3
v -2 2 -0
v -1 2 -0
v 0 2 -0
v 1 2 -0
v 2 2 -0
v 3 2 -0
v -2 2 -1
v 3 2 -1
v -3 2 -2
v -2 2 -2
v 3 2 -2
v 4 2 -2
v -2 2 -3
v 3 2 -3
v -7 2 -5
v -6 2 -5
v 7 2 -5
v 8 2 -5
v -7 2 -6
v -6 2 -6
v 7 2 -6
v 8 2 -6
v -6 3 7
v 7 3 7
v -7 3 6
v -6 3 6
v 7 3 6
v 8 3 6
v -3 3 4
v 4 3 4
v -2 3 3
v -1 3 3
v 0 3 3
v 1 3 3
v 2 3 3
v 3 3 3
v -2 3 -0
v -1 3 -0
v 0 3 -0
v 1 3 -0
v 2 3 -0
v 3 3 -0
v -2 3 -1
v 3 3 -1
v -3 3 -2
v -2 3 -2
v 3 3 -2
v 4 3 -2
v -2 3 -3
v 3 3 -3
v -7 3 -5
v -6 3 -5
v 7 3 -5
v 8 3 -5
v -6 3 -6
v 7 3 -6

# faces
f 5/2/1 2/2/1 1/2/1
f 6/2/1 2/2/1 5/2/1
f 7/2/1 2/2/1 6/2/1
f 8/2/1 4/2/1 3/2/1
f 9/2/1 4/2/1 8/2/1
f 10/2/1 4/2/1 9/2/1
f 11/2/1 7/2/1 6/2/1
f 11/2/1 9/2/1 8/2/1
f 11/2/1 8/2/1 7/2/1
f 12/2/1 9/2/1 11/2/1
f 17/3/1 14/3/1 13/3/1
f 18/3/1 14/3/1 17/3/1
f 21/2/1 16/2/1 15/2/1
f 22/2/1 16/2/1 21/2/1
f 23/2/1 20/2/1 19/2/1
f 24/2/1 20/2/1 23/2/1
f 27/1/1 26/1/1 25/1/1
f 28/1/1 26/1/1 27/1/1
f 31/1/1 30/1/1 29/1/1
f 32/1/1 30/1/1 31/1/1
f 35/1/1 34/1/1 33/1/1
f 36/1/1 34/1/1 35/1/1
f 39/1/1 38/1/1 37/1/1
f 40/1/1 38/1/1 39/1/1
f 45/1/1 42/1/1 41/1/1
f 46/1/1 42/1/1 45/1/1
f 47/1/1 44/1/1 43/1/1
f 48/1/1 44/1/1 47/1/1
f 51/2/1 50/2/1 49/2/1
f 52/2/1 50/2/1 51/2/1
f 53/2/2 54/2/2 55/2/2
f 55/2/2 54/2/2 56/2/2
f 57/1/2 58/1/2 61/1/2
f 61/1/2 58/1/2 62/1/2
f 59/1/2 60/1/2 63/1/2
f 63/1/2 60/1/2 64/1/2
f 65/1/2 66/1/2 67/1/2
f 67/1/2 66/1/2 68/1/2
f 69/1/2 70/1/2 71/1/2
f 71/1/2 70/1/2 72/1/2
f 73/1/2 74/1/2 75/1/2
f 75/1/2 74/1/2 76/1/2
f 77/1/2 78/1/2 79/1/2
f 79/1/2 78/1/2 80/1/2
f 81/2/2 82/2/2 85/2/2
f 85/2/2 82/2/2 86/2/2
f 83/2/2 84/2/2 87/2/2
f 87/2/2 84/2/2 88/2/2
f 89/2/2 90/2/2 91/2/2
f 91/2/2 90/2/2 92/2/2
f 92/2/2 90/2/2 93/2/2
f 93/2/2 90/2/2 94/2/2
f 92/2/2 93/2/2 95/2/2
f 95/2/2 93/2/2 96/2/2
f 99/2/3 98/2/3 97/2/3
f 101/2/3 99/2/3 97/2/3
f 101/2/3 100/2/3 99/2/3
f 102/2/3 100/2/3 101/2/3
f 103/2/3 101/2/3 97/2/3
f 104/2/3 101/2/3 103/2/3
f 107/2/3 106/2/3 105/2/3
f 108/2/3 106/2/3 107/2/3
f 111/2/3 110/2/3 109/2/3
f 112/2/3 110/2/3 111/2/3
f 115/1/3 114/1/3 113/1/3
f 116/1/3 114/1/3 115/1/3
f 119/1/3 118/1/3 117/1/3
f 120/1/3 118/1/3 119/1/3
f 123/1/3 122/1/3 121/1/3
f 124/1/3 122/1/3 123/1/3
f 127/1/3 126/1/3 125/1/3
f 128/1/3 126/1/3 127/1/3
f 131/1/3 130/1/3 129/1/3
f 132/1/3 130/1/3 131/1/3
f 135/2/3 134/2/3 133/2/3
f 136/2/3 134/2/3 135/2/3
f 139/2/3 138/2/3 137/2/3
f 140/2/3 138/2/3 139/2/3
f 141/2/4 142/2/4 143/2/4
f 143/2/4 142/2/4 144/2/4
f 145/1/4 146/1/4 147/1/4
f 147/1/4 146/1/4 148/1/4
f 149/1/4 150/1/4 151/1/4
f 151/1/4 150/1/4 152/1/4
f 153/1/4 154/1/4 155/1/4
f 155/1/4 154/1/4 156/1/4
f 157/1/4 158/1/4 159/1/4
f 159/1/4 158/1/4 160/1/4
f 161/1/4 162/1/4 163/1/4
f 163/1/4 162/1/4 164/1/4
f 165/1/4 166/1/4 167/1/4
f 167/1/4 166/1/4 168/1/4
f 169/2/4 170/2/4 171/2/4
f 171/2/4 170/2/4 172/2/4
f 173/1/4 174/1/4 175/1/4
f 175/1/4 174/1/4 176/1/4
f 177/2/4 178/2/4 179/2/4
f 179/2/4 178/2/4 180/2/4
f 181/2/4 182/2/4 183/2/4
f 183/2/4 182/2/4 184/2/4
f 185/2/4 186/2/4 187/2/4
f 185/2/4 187/2/4 189/2/4
f 187/2/4 188/2/4 189/2/4
f 189/2/4 188/2/4 190/2/4
f 185/2/4 189/2/4 191/2/4
f 191/2/4 189/2/4 192/2/4
f 195/2/5 194/2/5 193/2/5
f 196/2/5 194/2/5 195/2/5
f 197/2/5 195/2/5 193/2/5
f 198/3/5 196/3/5 195/3/5
f 198/2/5 195/2/5 197/2/5
f 200/3/5 196/3/5 198/3/5
f 201/3/5 196/3/5 200/3/5
f 201/2/5 200/2/5 199/2/5
f 202/2/5 194/2/5 196/2/5
f 202/3/5 196/3/5 201/3/5
f 203/2/5 201/2/5 199/2/5
f 203/2/5 202/2/5 201/2/5
f 204/2/5 194/2/5 202/2/5
f 204/2/5 202/2/5 203/2/5
f 207/2/5 206/2/5 205/2/5
f 208/2/5 206/2/5 207/2/5
f 209/2/6 210/2/6 213/2/6
f 213/2/6 210/2/6 214/2/6
f 211/2/6 212/2/6 215/2/6
f 215/2/6 212/2/6 216/2/6
f 214/3/6 215/3/6 217/3/6
f 217/3/6 215/3/6 218/3/6
f 219/3/6 220/3/6 225/3/6
f 225/3/6 220/3/6 226/3/6
f 221/3/6 222/3/6 227/3/6
f 227/3/6 222/3/6 228/3/6
f 223/3/6 224/3/6 229/3/6
f 229/3/6 224/3/6 230/3/6
f 214/3/6 217/3/6 233/3/6
f 231/3/6 232/3/6 234/3/6
f 234/3/6 232/3/6 235/3/6
f 218/3/6 215/3/6 236/3/6
f 233/3/6 234/3/6 237/3/6
f 235/3/6 236/3/6 238/3/6
f 214/3/6 233/3/6 240/3/6
f 237/3/6 238/3/6 240/3/6
f 233/3/6 237/3/6 240/3/6
f 238/3/6 236/3/6 241/3/6
f 236/3/6 215/3/6 241/3/6
f 240/3/6 238/3/6 241/3/6
f 239/2/6 240/2/6 243/2/6
f 243/2/6 240/2/6 244/2/6
f 241/2/6 242/2/6 245/2/6
f 245/2/6 242/2/6 246/2/6
f 247/2/6 248/2/6 250/2/6
f 250/2/6 248/2/6 251/2/6
f 253/1/6 254/1/6 255/1/6
f 255/1/6 254/1/6 256/1/6
f 256/1/6 254/1/6 257/1/6
f 257/1/6 254/1/6 258/1/6
f 258/1/6 254/1/6 259/1/6
f 259/1/6 254/1/6 260/1/6
f 253/1/6 255/1/6 261/1/6
f 256/1/6 257/1/6 262/1/6
f 262/1/6 257/1/6 263/1/6
f 258/1/6 259/1/6 264/1/6
f 264/1/6 259/1/6 265/1/6
f 260/1/6 254/1/6 266/1/6
f 264/1/6 265/1/6 267/1/6
f 265/1/6 266/1/6 267/1/6
f 262/1/6 263/1/6 267/1/6
f 253/1/6 261/1/6 267/1/6
f 263/1/6 264/1/6 267/1/6
f 261/1/6 262/1/6 267/1/6
f 266/1/6 254/1/6 268/1/6
f 267/1/6 266/1/6 268/1/6
f 253/1/6 267/1/6 269/1/6
f 269/1/6 267/1/6 270/1/6
f 268/1/6 254/1/6 271/1/6
f 271/1/6 254/1/6 272/1/6
f 270/1/6 271/1/6 273/1/6
f 273/1/6 271/1/6 274/1/6
f 249/2/6 250/2/6 275/2/6
f 275/2/6 250/2/6 276/2/6
f 251/2/6 252/2/6 277/2/6
f 277/2/6 252/2/6 278/2/6
f 276/2/6 277/2/6 279/2/6
f 279/2/6 277/2/6 280/2/6
