# MagicaVoxel @ Ephtracy

# material
mtllib buttonShape_close.mtl
usemtl palette

# normals
vn -1 0 0
vn 1 0 0
vn 0 0 1
vn 0 0 -1
vn 0 -1 0
vn 0 1 0

# texcoords
vt 0.958984 0.5
vt 0.986328 0.5
vt 0.994141 0.5

# verts
v -3 0 4
v -3 0 2
v -3 0 -1
v -3 0 -3
v -3 1 4
v -3 1 2
v -3 1 -1
v -3 1 -3
v -2 0 2
v -2 0 1
v -2 0 -0
v -2 0 -1
v -2 1 3
v -2 1 2
v -2 1 1
v -2 1 -0
v -2 1 -1
v -2 1 -2
v -2 2 3
v -2 2 2
v -2 2 -1
v -2 2 -2
v -1 0 1
v -1 0 -0
v -1 1 2
v -1 1 1
v -1 1 -0
v -1 1 -1
v -1 2 2
v -1 2 1
v -1 2 -0
v -1 2 -1
v 0 1 1
v 0 1 -0
v 0 2 1
v 0 2 -0
v 1 0 3
v 1 0 2
v 1 0 -1
v 1 0 -2
v 1 1 3
v 1 1 2
v 1 1 1
v 1 1 -0
v 1 1 -1
v 1 1 -2
v 1 2 2
v 1 2 1
v 1 2 -0
v 1 2 -1
v 2 0 4
v 2 0 3
v 2 0 -2
v 2 0 -3
v 2 1 4
v 2 1 3
v 2 1 2
v 2 1 -1
v 2 1 -2
v 2 1 -3
v 2 2 3
v 2 2 2
v 2 2 -1
v 2 2 -2
v -1 0 4
v -1 0 3
v -1 0 -2
v -1 0 -3
v -1 1 4
v -1 1 3
v -1 1 2
v -1 1 -1
v -1 1 -2
v -1 1 -3
v -1 2 3
v -1 2 2
v -1 2 -1
v -1 2 -2
v 0 0 3
v 0 0 2
v 0 0 -1
v 0 0 -2
v 0 1 3
v 0 1 2
v 0 1 1
v 0 1 -0
v 0 1 -1
v 0 1 -2
v 0 2 2
v 0 2 1
v 0 2 -0
v 0 2 -1
v 1 1 1
v 1 1 -0
v 1 2 1
v 1 2 -0
v 2 0 1
v 2 0 -0
v 2 1 2
v 2 1 1
v 2 1 -0
v 2 1 -1
v 2 2 2
v 2 2 1
v 2 2 -0
v 2 2 -1
v 3 0 2
v 3 0 1
v 3 0 -0
v 3 0 -1
v 3 1 3
v 3 1 2
v 3 1 1
v 3 1 -0
v 3 1 -1
v 3 1 -2
v 3 2 3
v 3 2 2
v 3 2 -1
v 3 2 -2
v 4 0 4
v 4 0 2
v 4 0 -1
v 4 0 -3
v 4 1 4
v 4 1 2
v 4 1 -1
v 4 1 -3
v -3 0 4
v -3 1 4
v -1 0 4
v -1 1 4
v 2 0 4
v 2 1 4
v 4 0 4
v 4 1 4
v -2 1 3
v -2 2 3
v -1 0 3
v -1 1 3
v -1 2 3
v 0 0 3
v 0 1 3
v 1 0 3
v 1 1 3
v 2 0 3
v 2 1 3
v 2 2 3
v 3 1 3
v 3 2 3
v -1 1 2
v -1 2 2
v 0 0 2
v 0 1 2
v 0 2 2
v 1 0 2
v 1 1 2
v 1 2 2
v 2 1 2
v 2 2 2
v 0 1 1
v 0 2 1
v 1 1 1
v 1 2 1
v -2 0 -0
v -2 1 -0
v -1 0 -0
v -1 1 -0
v -1 2 -0
v 0 1 -0
v 0 2 -0
v 1 1 -0
v 1 2 -0
v 2 0 -0
v 2 1 -0
v 2 2 -0
v 3 0 -0
v 3 1 -0
v -3 0 -1
v -3 1 -1
v -2 0 -1
v -2 1 -1
v -2 2 -1
v -1 1 -1
v -1 2 -1
v 2 1 -1
v 2 2 -1
v 3 0 -1
v 3 1 -1
v 3 2 -1
v 4 0 -1
v 4 1 -1
v -3 0 2
v -3 1 2
v -2 0 2
v -2 1 2
v -2 2 2
v -1 1 2
v -1 2 2
v 2 1 2
v 2 2 2
v 3 0 2
v 3 1 2
v 3 2 2
v 4 0 2
v 4 1 2
v -2 0 1
v -2 1 1
v -1 0 1
v -1 1 1
v -1 2 1
v 0 1 1
v 0 2 1
v 1 1 1
v 1 2 1
v 2 0 1
v 2 1 1
v 2 2 1
v 3 0 1
v 3 1 1
v 0 1 -0
v 0 2 -0
v 1 1 -0
v 1 2 -0
v -1 1 -1
v -1 2 -1
v 0 0 -1
v 0 1 -1
v 0 2 -1
v 1 0 -1
v 1 1 -1
v 1 2 -1
v 2 1 -1
v 2 2 -1
v -2 1 -2
v -2 2 -2
v -1 0 -2
v -1 1 -2
v -1 2 -2
v 0 0 -2
v 0 1 -2
v 1 0 -2
v 1 1 -2
v 2 0 -2
v 2 1 -2
v 2 2 -2
v 3 1 -2
v 3 2 -2
v -3 0 -3
v -3 1 -3
v -1 0 -3
v -1 1 -3
v 2 0 -3
v 2 1 -3
v 4 0 -3
v 4 1 -3
v -3 0 4
v -1 0 4
v 2 0 4
v 4 0 4
v -2 0 3
v -1 0 3
v 0 0 3
v 1 0 3
v 2 0 3
v 3 0 3
v -3 0 2
v -2 0 2
v -1 0 2
v 0 0 2
v 1 0 2
v 2 0 2
v 3 0 2
v 4 0 2
v -2 0 1
v -1 0 1
v 0 0 1
v 1 0 1
v 2 0 1
v 3 0 1
v -2 0 -0
v -1 0 -0
v 0 0 -0
v 1 0 -0
v 2 0 -0
v 3 0 -0
v -3 0 -1
v -2 0 -1
v -1 0 -1
v 0 0 -1
v 1 0 -1
v 2 0 -1
v 3 0 -1
v 4 0 -1
v -2 0 -2
v -1 0 -2
v 0 0 -2
v 1 0 -2
v 2 0 -2
v 3 0 -2
v -3 0 -3
v -1 0 -3
v 2 0 -3
v 4 0 -3
v -3 1 4
v -1 1 4
v 2 1 4
v 4 1 4
v -2 1 3
v -1 1 3
v 0 1 3
v 1 1 3
v 2 1 3
v 3 1 3
v -3 1 2
v -2 1 2
v -1 1 2
v 0 1 2
v 1 1 2
v 2 1 2
v 3 1 2
v 4 1 2
v -2 1 1
v -1 1 1
v 0 1 1
v 1 1 1
v 2 1 1
v 3 1 1
v -2 1 -0
v -1 1 -0
v 0 1 -0
v 1 1 -0
v 2 1 -0
v 3 1 -0
v -3 1 -1
v -2 1 -1
v -1 1 -1
v 0 1 -1
v 1 1 -1
v 2 1 -1
v 3 1 -1
v 4 1 -1
v -2 1 -2
v -1 1 -2
v 0 1 -2
v 1 1 -2
v 2 1 -2
v 3 1 -2
v -3 1 -3
v -1 1 -3
v 2 1 -3
v 4 1 -3
v -2 2 3
v -1 2 3
v 2 2 3
v 3 2 3
v -2 2 2
v -1 2 2
v 0 2 2
v 1 2 2
v 2 2 2
v 3 2 2
v -1 2 1
v 0 2 1
v 1 2 1
v 2 2 1
v -1 2 -0
v 0 2 -0
v 1 2 -0
v 2 2 -0
v -2 2 -1
v -1 2 -1
v 0 2 -1
v 1 2 -1
v 2 2 -1
v 3 2 -1
v -2 2 -2
v -1 2 -2
v 2 2 -2
v 3 2 -2

# faces
f 5/2/1 2/2/1 1/2/1
f 6/2/1 2/2/1 5/2/1
f 7/2/1 4/2/1 3/2/1
f 8/2/1 4/2/1 7/2/1
f 14/2/1 10/2/1 9/2/1
f 15/2/1 10/2/1 14/2/1
f 16/2/1 12/2/1 11/2/1
f 17/2/1 12/2/1 16/2/1
f 19/1/1 14/1/1 13/1/1
f 20/1/1 14/1/1 19/1/1
f 21/1/1 18/1/1 17/1/1
f 22/1/1 18/1/1 21/1/1
f 26/2/1 24/2/1 23/2/1
f 27/2/1 24/2/1 26/2/1
f 29/1/1 26/1/1 25/1/1
f 30/1/1 26/1/1 29/1/1
f 31/1/1 28/1/1 27/1/1
f 32/1/1 28/1/1 31/1/1
f 35/1/1 34/1/1 33/1/1
f 36/1/1 34/1/1 35/1/1
f 41/2/1 38/2/1 37/2/1
f 42/2/1 38/2/1 41/2/1
f 45/2/1 40/2/1 39/2/1
f 46/2/1 40/2/1 45/2/1
f 47/1/1 43/1/1 42/1/1
f 48/1/1 43/1/1 47/1/1
f 49/1/1 45/1/1 44/1/1
f 50/1/1 45/1/1 49/1/1
f 55/2/1 52/2/1 51/2/1
f 56/2/1 52/2/1 55/2/1
f 59/2/1 54/2/1 53/2/1
f 60/2/1 54/2/1 59/2/1
f 61/1/1 57/1/1 56/1/1
f 62/1/1 57/1/1 61/1/1
f 63/1/1 59/1/1 58/1/1
f 64/1/1 59/1/1 63/1/1
f 65/2/2 66/2/2 69/2/2
f 69/2/2 66/2/2 70/2/2
f 67/2/2 68/2/2 73/2/2
f 73/2/2 68/2/2 74/2/2
f 70/1/2 71/1/2 75/1/2
f 75/1/2 71/1/2 76/1/2
f 72/1/2 73/1/2 77/1/2
f 77/1/2 73/1/2 78/1/2
f 79/2/2 80/2/2 83/2/2
f 83/2/2 80/2/2 84/2/2
f 81/2/2 82/2/2 87/2/2
f 87/2/2 82/2/2 88/2/2
f 84/1/2 85/1/2 89/1/2
f 89/1/2 85/1/2 90/1/2
f 86/1/2 87/1/2 91/1/2
f 91/1/2 87/1/2 92/1/2
f 93/1/2 94/1/2 95/1/2
f 95/1/2 94/1/2 96/1/2
f 97/2/2 98/2/2 100/2/2
f 100/2/2 98/2/2 101/2/2
f 99/1/2 100/1/2 103/1/2
f 103/1/2 100/1/2 104/1/2
f 101/1/2 102/1/2 105/1/2
f 105/1/2 102/1/2 106/1/2
f 107/2/2 108/2/2 112/2/2
f 112/2/2 108/2/2 113/2/2
f 109/2/2 110/2/2 114/2/2
f 114/2/2 110/2/2 115/2/2
f 111/1/2 112/1/2 117/1/2
f 117/1/2 112/1/2 118/1/2
f 115/1/2 116/1/2 119/1/2
f 119/1/2 116/1/2 120/1/2
f 121/2/2 122/2/2 125/2/2
f 125/2/2 122/2/2 126/2/2
f 123/2/2 124/2/2 127/2/2
f 127/2/2 124/2/2 128/2/2
f 131/2/3 130/2/3 129/2/3
f 132/2/3 130/2/3 131/2/3
f 135/2/3 134/2/3 133/2/3
f 136/2/3 134/2/3 135/2/3
f 140/1/3 138/1/3 137/1/3
f 141/1/3 138/1/3 140/1/3
f 142/2/3 140/2/3 139/2/3
f 143/2/3 140/2/3 142/2/3
f 146/2/3 145/2/3 144/2/3
f 147/2/3 145/2/3 146/2/3
f 149/1/3 148/1/3 147/1/3
f 150/1/3 148/1/3 149/1/3
f 154/1/3 152/1/3 151/1/3
f 155/1/3 152/1/3 154/1/3
f 156/2/3 154/2/3 153/2/3
f 157/2/3 154/2/3 156/2/3
f 159/1/3 158/1/3 157/1/3
f 160/1/3 158/1/3 159/1/3
f 163/1/3 162/1/3 161/1/3
f 164/1/3 162/1/3 163/1/3
f 167/2/3 166/2/3 165/2/3
f 168/2/3 166/2/3 167/2/3
f 170/1/3 169/1/3 168/1/3
f 171/1/3 169/1/3 170/1/3
f 175/1/3 173/1/3 172/1/3
f 176/1/3 173/1/3 175/1/3
f 177/2/3 175/2/3 174/2/3
f 178/2/3 175/2/3 177/2/3
f 181/2/3 180/2/3 179/2/3
f 182/2/3 180/2/3 181/2/3
f 184/1/3 183/1/3 182/1/3
f 185/1/3 183/1/3 184/1/3
f 189/1/3 187/1/3 186/1/3
f 190/1/3 187/1/3 189/1/3
f 191/2/3 189/2/3 188/2/3
f 192/2/3 189/2/3 191/2/3
f 193/2/4 194/2/4 195/2/4
f 195/2/4 194/2/4 196/2/4
f 196/1/4 197/1/4 198/1/4
f 198/1/4 197/1/4 199/1/4
f 200/1/4 201/1/4 203/1/4
f 203/1/4 201/1/4 204/1/4
f 202/2/4 203/2/4 205/2/4
f 205/2/4 203/2/4 206/2/4
f 207/2/4 208/2/4 209/2/4
f 209/2/4 208/2/4 210/2/4
f 210/1/4 211/1/4 212/1/4
f 212/1/4 211/1/4 213/1/4
f 214/1/4 215/1/4 217/1/4
f 217/1/4 215/1/4 218/1/4
f 216/2/4 217/2/4 219/2/4
f 219/2/4 217/2/4 220/2/4
f 221/1/4 222/1/4 223/1/4
f 223/1/4 222/1/4 224/1/4
f 225/1/4 226/1/4 228/1/4
f 228/1/4 226/1/4 229/1/4
f 227/2/4 228/2/4 230/2/4
f 230/2/4 228/2/4 231/2/4
f 231/1/4 232/1/4 233/1/4
f 233/1/4 232/1/4 234/1/4
f 235/1/4 236/1/4 238/1/4
f 238/1/4 236/1/4 239/1/4
f 237/2/4 238/2/4 240/2/4
f 240/2/4 238/2/4 241/2/4
f 242/2/4 243/2/4 244/2/4
f 244/2/4 243/2/4 245/2/4
f 245/1/4 246/1/4 247/1/4
f 247/1/4 246/1/4 248/1/4
f 249/2/4 250/2/4 251/2/4
f 251/2/4 250/2/4 252/2/4
f 253/2/4 254/2/4 255/2/4
f 255/2/4 254/2/4 256/2/4
f 261/2/5 258/2/5 257/2/5
f 262/2/5 258/2/5 261/2/5
f 265/2/5 260/2/5 259/2/5
f 266/2/5 260/2/5 265/2/5
f 267/2/5 261/2/5 257/2/5
f 268/3/5 262/3/5 261/3/5
f 268/2/5 261/2/5 267/2/5
f 269/2/5 263/2/5 262/2/5
f 269/3/5 262/3/5 268/3/5
f 270/2/5 263/2/5 269/2/5
f 271/2/5 265/2/5 264/2/5
f 272/3/5 266/3/5 265/3/5
f 272/2/5 265/2/5 271/2/5
f 273/2/5 260/2/5 266/2/5
f 273/3/5 266/3/5 272/3/5
f 274/2/5 260/2/5 273/2/5
f 275/2/5 269/2/5 268/2/5
f 276/3/5 270/3/5 269/3/5
f 276/2/5 269/2/5 275/2/5
f 277/2/5 271/2/5 270/2/5
f 277/3/5 270/3/5 276/3/5
f 278/3/5 272/3/5 271/3/5
f 278/2/5 271/2/5 277/2/5
f 279/2/5 273/2/5 272/2/5
f 279/3/5 272/3/5 278/3/5
f 280/2/5 273/2/5 279/2/5
f 282/2/5 277/2/5 276/2/5
f 283/3/5 278/3/5 277/3/5
f 283/2/5 277/2/5 282/2/5
f 284/2/5 279/2/5 278/2/5
f 284/3/5 278/3/5 283/3/5
f 285/2/5 279/2/5 284/2/5
f 288/2/5 282/2/5 281/2/5
f 289/3/5 283/3/5 282/3/5
f 289/2/5 282/2/5 288/2/5
f 290/2/5 284/2/5 283/2/5
f 290/3/5 283/3/5 289/3/5
f 291/3/5 285/3/5 284/3/5
f 291/2/5 284/2/5 290/2/5
f 292/2/5 286/2/5 285/2/5
f 292/3/5 285/3/5 291/3/5
f 293/2/5 286/2/5 292/2/5
f 295/2/5 288/2/5 287/2/5
f 295/3/5 289/3/5 288/3/5
f 296/2/5 290/2/5 289/2/5
f 296/3/5 289/3/5 295/3/5
f 297/2/5 290/2/5 296/2/5
f 298/2/5 292/2/5 291/2/5
f 299/3/5 293/3/5 292/3/5
f 299/2/5 292/2/5 298/2/5
f 300/2/5 294/2/5 293/2/5
f 300/3/5 293/3/5 299/3/5
f 301/2/5 295/2/5 287/2/5
f 301/2/5 296/2/5 295/2/5
f 302/2/5 296/2/5 301/2/5
f 303/2/5 300/2/5 299/2/5
f 304/2/5 294/2/5 300/2/5
f 304/2/5 300/2/5 303/2/5
f 305/2/6 306/2/6 309/2/6
f 309/2/6 306/2/6 310/2/6
f 307/2/6 308/2/6 313/2/6
f 313/2/6 308/2/6 314/2/6
f 305/2/6 309/2/6 315/2/6
f 315/2/6 309/2/6 316/2/6
f 310/2/6 311/2/6 317/2/6
f 317/2/6 311/2/6 318/2/6
f 312/2/6 313/2/6 319/2/6
f 319/2/6 313/2/6 320/2/6
f 314/2/6 308/2/6 321/2/6
f 321/2/6 308/2/6 322/2/6
f 316/2/6 317/2/6 323/2/6
f 323/2/6 317/2/6 324/2/6
f 318/2/6 319/2/6 325/2/6
f 325/2/6 319/2/6 326/2/6
f 320/2/6 321/2/6 327/2/6
f 327/2/6 321/2/6 328/2/6
f 324/2/6 325/2/6 330/2/6
f 330/2/6 325/2/6 331/2/6
f 326/2/6 327/2/6 332/2/6
f 332/2/6 327/2/6 333/2/6
f 329/2/6 330/2/6 336/2/6
f 336/2/6 330/2/6 337/2/6
f 331/2/6 332/2/6 338/2/6
f 338/2/6 332/2/6 339/2/6
f 333/2/6 334/2/6 340/2/6
f 340/2/6 334/2/6 341/2/6
f 335/2/6 336/2/6 343/2/6
f 337/2/6 338/2/6 344/2/6
f 344/2/6 338/2/6 345/2/6
f 339/2/6 340/2/6 346/2/6
f 346/2/6 340/2/6 347/2/6
f 341/2/6 342/2/6 348/2/6
f 335/2/6 343/2/6 349/2/6
f 343/2/6 344/2/6 349/2/6
f 349/2/6 344/2/6 350/2/6
f 347/2/6 348/2/6 351/2/6
f 348/2/6 342/2/6 352/2/6
f 351/2/6 348/2/6 352/2/6
f 353/1/6 354/1/6 357/1/6
f 357/1/6 354/1/6 358/1/6
f 355/1/6 356/1/6 361/1/6
f 361/1/6 356/1/6 362/1/6
f 358/1/6 359/1/6 363/1/6
f 363/1/6 359/1/6 364/1/6
f 360/1/6 361/1/6 365/1/6
f 365/1/6 361/1/6 366/1/6
f 364/1/6 365/1/6 368/1/6
f 368/1/6 365/1/6 369/1/6
f 367/1/6 368/1/6 372/1/6
f 372/1/6 368/1/6 373/1/6
f 369/1/6 370/1/6 374/1/6
f 374/1/6 370/1/6 375/1/6
f 371/1/6 372/1/6 377/1/6
f 377/1/6 372/1/6 378/1/6
f 375/1/6 376/1/6 379/1/6
f 379/1/6 376/1/6 380/1/6
