# MagicaVoxel @ Ephtracy

# material
mtllib buttonShape_hideHelpers.mtl
usemtl palette

# normals
vn -1 0 0
vn 1 0 0
vn 0 0 1
vn 0 0 -1
vn 0 -1 0
vn 0 1 0

# texcoords
vt 0.0175781 0.5
vt 0.0214844 0.5
vt 0.841797 0.5
vt 0.994141 0.5

# verts
v -6 0 6
v -6 0 -5
v -6 2 6
v -6 2 -5
v -4 1 -2
v -4 1 -3
v -4 2 -2
v -4 2 -3
v -3 0 3
v -3 0 -2
v -3 1 3
v -3 1 1
v -3 1 -0
v -3 1 -1
v -3 1 -2
v -3 2 1
v -3 2 -0
v -3 2 -1
v -3 2 -2
v -2 1 -0
v -2 1 -1
v -2 2 -0
v -2 2 -1
v -2 3 -0
v -2 3 -1
v -1 1 3
v -1 1 2
v -1 1 1
v -1 1 -1
v -1 1 -2
v -1 2 3
v -1 2 1
v -1 2 -0
v -1 2 -1
v -1 2 -2
v -1 3 1
v -1 3 -0
v 0 0 2
v 0 0 1
v 0 1 2
v 0 1 1
v 0 2 2
v 0 2 1
v 0 3 2
v 0 3 1
v 1 0 1
v 1 0 -0
v 1 0 -1
v 1 1 3
v 1 1 2
v 1 1 1
v 1 1 -0
v 1 1 -1
v 1 2 3
v 1 2 2
v 2 1 4
v 2 1 3
v 2 2 4
v 2 2 3
v 3 0 5
v 3 0 4
v 3 1 4
v 3 2 5
v 3 2 4
v 4 0 4
v 4 0 -4
v 4 2 4
v 4 2 -4
v -5 0 5
v -5 0 -3
v -5 2 5
v -5 2 -3
v -4 0 -3
v -4 0 -4
v -4 1 -3
v -4 2 -3
v -4 2 -4
v -3 1 -2
v -3 1 -3
v -3 2 -2
v -3 2 -3
v -2 0 2
v -2 0 -0
v -2 1 2
v -2 1 1
v -2 1 -0
v -2 1 -1
v -2 1 -2
v -2 2 -1
v -2 2 -2
v -1 0 -0
v -1 0 -1
v -1 1 -0
v -1 1 -1
v -1 2 -0
v -1 2 -1
v -1 3 -0
v -1 3 -1
v 0 1 3
v 0 1 2
v 0 1 -0
v 0 1 -1
v 0 1 -2
v 0 2 3
v 0 2 2
v 0 2 1
v 0 2 -0
v 0 2 -2
v 0 3 1
v 0 3 -0
v 1 1 2
v 1 1 1
v 1 2 2
v 1 2 1
v 1 3 2
v 1 3 1
v 2 0 3
v 2 0 1
v 2 0 -0
v 2 0 -2
v 2 1 3
v 2 1 2
v 2 1 1
v 2 1 -0
v 2 1 -2
v 2 2 3
v 2 2 2
v 2 2 1
v 2 2 -0
v 3 1 4
v 3 1 3
v 3 2 4
v 3 2 3
v 5 0 6
v 5 0 -5
v 5 2 6
v 5 2 -5
v -6 0 6
v -6 2 6
v 5 0 6
v 5 2 6
v 2 1 4
v 2 2 4
v 3 1 4
v 3 2 4
v -3 0 3
v -3 1 3
v -1 1 3
v -1 2 3
v 0 1 3
v 0 2 3
v 1 1 3
v 1 2 3
v 2 0 3
v 2 1 3
v 2 2 3
v 0 1 2
v 0 2 2
v 0 3 2
v 1 1 2
v 1 2 2
v 1 3 2
v -3 1 1
v -3 2 1
v -2 1 1
v -1 1 1
v -1 2 1
v -1 3 1
v 0 2 1
v 0 3 1
v 1 1 1
v 1 2 1
v 2 1 1
v 2 2 1
v -2 0 -0
v -2 1 -0
v -2 2 -0
v -2 3 -0
v -1 0 -0
v -1 1 -0
v -1 2 -0
v -1 3 -0
v -3 1 -1
v -3 2 -1
v -2 1 -1
v -2 2 -1
v -1 0 -1
v -1 1 -1
v 0 1 -1
v 1 0 -1
v 1 1 -1
v -4 1 -2
v -4 2 -2
v -3 1 -2
v -3 2 -2
v -5 0 -3
v -5 2 -3
v -4 0 -3
v -4 1 -3
v -4 2 -3
v -4 0 -4
v -4 2 -4
v 4 0 -4
v 4 2 -4
v -5 0 5
v -5 2 5
v 3 0 5
v 3 2 5
v 3 0 4
v 3 1 4
v 3 2 4
v 4 0 4
v 4 2 4
v 2 1 3
v 2 2 3
v 3 1 3
v 3 2 3
v -2 0 2
v -2 1 2
v -1 1 2
v 0 0 2
v 0 1 2
v 1 1 2
v 1 2 2
v 2 1 2
v 2 2 2
v 0 0 1
v 0 1 1
v 0 2 1
v 0 3 1
v 1 0 1
v 1 1 1
v 1 2 1
v 1 3 1
v -3 1 -0
v -3 2 -0
v -2 1 -0
v -2 2 -0
v -1 2 -0
v -1 3 -0
v 0 1 -0
v 0 2 -0
v 0 3 -0
v 1 1 -0
v 2 1 -0
v 2 2 -0
v -2 1 -1
v -2 2 -1
v -2 3 -1
v -1 1 -1
v -1 2 -1
v -1 3 -1
v -3 0 -2
v -3 1 -2
v -3 2 -2
v -2 1 -2
v -2 2 -2
v -1 1 -2
v -1 2 -2
v 0 1 -2
v 0 2 -2
v 2 0 -2
v 2 1 -2
v -4 1 -3
v -4 2 -3
v -3 1 -3
v -3 2 -3
v -6 0 -5
v -6 2 -5
v 5 0 -5
v 5 2 -5
v -6 0 6
v 5 0 6
v -5 0 5
v 3 0 5
v 3 0 4
v 4 0 4
v -3 0 3
v 2 0 3
v -2 0 2
v 0 0 2
v 1 0 2
v 0 0 1
v 1 0 1
v 2 0 1
v -2 0 -0
v -1 0 -0
v 1 0 -0
v 2 0 -0
v -2 0 -1
v -1 0 -1
v 1 0 -1
v -3 0 -2
v 2 0 -2
v -5 0 -3
v -4 0 -3
v -4 0 -4
v 4 0 -4
v -6 0 -5
v 5 0 -5
v 2 1 4
v 3 1 4
v 2 1 3
v 3 1 3
v -1 1 2
v 0 1 2
v -2 1 1
v -1 1 1
v 0 1 1
v 1 1 1
v -2 1 -0
v -1 1 -0
v 0 1 -0
v 1 1 -0
v -1 1 -1
v 0 1 -1
v -4 1 -2
v -3 1 -2
v -4 1 -3
v -3 1 -3
v -3 1 3
v -1 1 3
v 0 1 3
v 1 1 3
v -2 1 2
v -1 1 2
v 0 1 2
v 1 1 2
v 2 1 2
v -3 1 1
v -2 1 1
v 1 1 1
v 2 1 1
v -3 1 -0
v -2 1 -0
v 1 1 -0
v 2 1 -0
v -3 1 -1
v -2 1 -1
v -1 1 -1
v 0 1 -1
v 1 1 -1
v -2 1 -2
v -1 1 -2
v 0 1 -2
v 2 1 -2
v -6 2 6
v 5 2 6
v -5 2 5
v 3 2 5
v 2 2 4
v 3 2 4
v 4 2 4
v -1 2 3
v 0 2 3
v 1 2 3
v 2 2 3
v 3 2 3
v 0 2 2
v 1 2 2
v 2 2 2
v -3 2 1
v -1 2 1
v 0 2 1
v 1 2 1
v 2 2 1
v -3 2 -0
v -2 2 -0
v -1 2 -0
v 0 2 -0
v 2 2 -0
v -3 2 -1
v -2 2 -1
v -1 2 -1
v -4 2 -2
v -3 2 -2
v -2 2 -2
v -1 2 -2
v 0 2 -2
v -5 2 -3
v -4 2 -3
v -3 2 -3
v -4 2 -4
v 4 2 -4
v -6 2 -5
v 5 2 -5
v 0 3 2
v 1 3 2
v -1 3 1
v 0 3 1
v 1 3 1
v -2 3 -0
v -1 3 -0
v 0 3 -0
v -2 3 -1
v -1 3 -1

# faces
f 3/3/1 2/3/1 1/3/1
f 4/3/1 2/3/1 3/3/1
f 7/3/1 6/3/1 5/3/1
f 8/3/1 6/3/1 7/3/1
f 11/2/1 10/2/1 9/2/1
f 12/2/1 10/2/1 11/2/1
f 13/2/1 10/2/1 12/2/1
f 14/2/1 10/2/1 13/2/1
f 15/2/1 10/2/1 14/2/1
f 16/2/1 13/2/1 12/2/1
f 17/2/1 13/2/1 16/2/1
f 18/3/1 15/3/1 14/3/1
f 19/3/1 15/3/1 18/3/1
f 22/3/1 21/3/1 20/3/1
f 23/3/1 21/3/1 22/3/1
f 24/3/1 23/3/1 22/3/1
f 25/3/1 23/3/1 24/3/1
f 31/2/1 27/2/1 26/2/1
f 31/2/1 28/2/1 27/2/1
f 32/2/1 28/2/1 31/2/1
f 34/2/1 30/2/1 29/2/1
f 35/2/1 30/2/1 34/2/1
f 36/3/1 33/3/1 32/3/1
f 37/3/1 33/3/1 36/3/1
f 40/4/1 39/4/1 38/4/1
f 41/4/1 39/4/1 40/4/1
f 44/3/1 43/3/1 42/3/1
f 45/3/1 43/3/1 44/3/1
f 51/1/1 47/1/1 46/1/1
f 52/2/1 48/2/1 47/2/1
f 52/1/1 47/1/1 51/1/1
f 53/2/1 48/2/1 52/2/1
f 54/3/1 50/3/1 49/3/1
f 55/3/1 50/3/1 54/3/1
f 58/3/1 57/3/1 56/3/1
f 59/3/1 57/3/1 58/3/1
f 62/3/1 61/3/1 60/3/1
f 63/3/1 62/3/1 60/3/1
f 64/3/1 62/3/1 63/3/1
f 67/3/1 66/3/1 65/3/1
f 68/3/1 66/3/1 67/3/1
f 69/3/2 70/3/2 71/3/2
f 71/3/2 70/3/2 72/3/2
f 73/3/2 74/3/2 75/3/2
f 75/3/2 74/3/2 76/3/2
f 76/3/2 74/3/2 77/3/2
f 78/3/2 79/3/2 80/3/2
f 80/3/2 79/3/2 81/3/2
f 82/2/2 83/2/2 84/2/2
f 84/2/2 83/2/2 85/2/2
f 85/2/2 83/2/2 86/2/2
f 87/3/2 88/3/2 89/3/2
f 89/3/2 88/3/2 90/3/2
f 91/4/2 92/4/2 93/4/2
f 93/4/2 92/4/2 94/4/2
f 95/3/2 96/3/2 97/3/2
f 97/3/2 96/3/2 98/3/2
f 99/2/2 100/2/2 104/2/2
f 104/2/2 100/2/2 105/2/2
f 102/2/2 103/2/2 107/2/2
f 101/2/2 102/2/2 107/2/2
f 107/2/2 103/2/2 108/2/2
f 106/3/2 107/3/2 109/3/2
f 109/3/2 107/3/2 110/3/2
f 111/3/2 112/3/2 113/3/2
f 113/3/2 112/3/2 114/3/2
f 113/3/2 114/3/2 115/3/2
f 115/3/2 114/3/2 116/3/2
f 117/2/2 118/2/2 121/2/2
f 121/2/2 118/2/2 122/2/2
f 118/1/2 119/1/2 123/1/2
f 122/2/2 118/2/2 123/2/2
f 119/2/2 120/2/2 124/2/2
f 123/1/2 119/1/2 124/1/2
f 124/2/2 120/2/2 125/2/2
f 121/3/2 122/3/2 126/3/2
f 126/3/2 122/3/2 127/3/2
f 123/2/2 124/2/2 128/2/2
f 128/2/2 124/2/2 129/2/2
f 130/3/2 131/3/2 132/3/2
f 132/3/2 131/3/2 133/3/2
f 134/3/2 135/3/2 136/3/2
f 136/3/2 135/3/2 137/3/2
f 140/3/3 139/3/3 138/3/3
f 141/3/3 139/3/3 140/3/3
f 144/3/3 143/3/3 142/3/3
f 145/3/3 143/3/3 144/3/3
f 148/2/3 147/2/3 146/2/3
f 150/2/3 148/2/3 146/2/3
f 150/2/3 149/2/3 148/2/3
f 151/2/3 149/2/3 150/2/3
f 152/2/3 150/2/3 146/2/3
f 154/2/3 152/2/3 146/2/3
f 155/3/3 153/3/3 152/3/3
f 155/2/3 152/2/3 154/2/3
f 156/3/3 153/3/3 155/3/3
f 160/3/3 158/3/3 157/3/3
f 160/3/3 159/3/3 158/3/3
f 161/3/3 159/3/3 160/3/3
f 162/3/3 159/3/3 161/3/3
f 165/2/3 164/2/3 163/2/3
f 166/2/3 164/2/3 165/2/3
f 167/2/3 164/2/3 166/2/3
f 169/3/3 168/3/3 167/3/3
f 170/3/3 168/3/3 169/3/3
f 173/2/3 172/2/3 171/2/3
f 174/2/3 172/2/3 173/2/3
f 179/4/3 176/4/3 175/4/3
f 180/4/3 176/4/3 179/4/3
f 181/3/3 178/3/3 177/3/3
f 182/3/3 178/3/3 181/3/3
f 185/3/3 184/3/3 183/3/3
f 186/3/3 184/3/3 185/3/3
f 189/2/3 188/2/3 187/2/3
f 190/2/3 189/2/3 187/2/3
f 191/2/3 189/2/3 190/2/3
f 194/3/3 193/3/3 192/3/3
f 195/3/3 193/3/3 194/3/3
f 198/3/3 197/3/3 196/3/3
f 199/3/3 197/3/3 198/3/3
f 200/3/3 197/3/3 199/3/3
f 203/3/3 202/3/3 201/3/3
f 204/3/3 202/3/3 203/3/3
f 205/3/4 206/3/4 207/3/4
f 207/3/4 206/3/4 208/3/4
f 209/3/4 210/3/4 212/3/4
f 210/3/4 211/3/4 212/3/4
f 212/3/4 211/3/4 213/3/4
f 214/3/4 215/3/4 216/3/4
f 216/3/4 215/3/4 217/3/4
f 218/2/4 219/2/4 220/2/4
f 218/2/4 220/2/4 221/2/4
f 221/2/4 220/2/4 222/2/4
f 223/3/4 224/3/4 225/3/4
f 225/3/4 224/3/4 226/3/4
f 227/4/4 228/4/4 231/4/4
f 231/4/4 228/4/4 232/4/4
f 229/3/4 230/3/4 233/3/4
f 233/3/4 230/3/4 234/3/4
f 235/2/4 236/2/4 237/2/4
f 237/2/4 236/2/4 238/2/4
f 239/3/4 240/3/4 242/3/4
f 242/3/4 240/3/4 243/3/4
f 241/2/4 242/2/4 244/2/4
f 244/2/4 242/2/4 245/2/4
f 245/2/4 242/2/4 246/2/4
f 247/3/4 248/3/4 250/3/4
f 248/3/4 249/3/4 250/3/4
f 250/3/4 249/3/4 251/3/4
f 251/3/4 249/3/4 252/3/4
f 253/2/4 254/2/4 256/2/4
f 254/3/4 255/3/4 256/3/4
f 256/3/4 255/3/4 257/3/4
f 253/2/4 256/2/4 258/2/4
f 253/2/4 258/2/4 260/2/4
f 258/2/4 259/2/4 260/2/4
f 260/2/4 259/2/4 261/2/4
f 253/2/4 260/2/4 262/2/4
f 262/2/4 260/2/4 263/2/4
f 264/3/4 265/3/4 266/3/4
f 266/3/4 265/3/4 267/3/4
f 268/3/4 269/3/4 270/3/4
f 270/3/4 269/3/4 271/3/4
f 274/3/5 273/3/5 272/3/5
f 275/3/5 273/3/5 274/3/5
f 276/3/5 273/3/5 275/3/5
f 277/3/5 273/3/5 276/3/5
f 280/2/5 279/2/5 278/2/5
f 281/2/5 279/2/5 280/2/5
f 282/2/5 279/2/5 281/2/5
f 283/4/5 282/4/5 281/4/5
f 284/2/5 279/2/5 282/2/5
f 284/4/5 282/4/5 283/4/5
f 285/2/5 279/2/5 284/2/5
f 286/2/5 280/2/5 278/2/5
f 288/1/5 285/1/5 284/1/5
f 289/1/5 285/1/5 288/1/5
f 290/4/5 287/4/5 286/4/5
f 290/2/5 286/2/5 278/2/5
f 291/4/5 287/4/5 290/4/5
f 292/2/5 289/2/5 288/2/5
f 293/2/5 291/2/5 290/2/5
f 293/2/5 292/2/5 291/2/5
f 293/2/5 290/2/5 278/2/5
f 294/2/5 289/2/5 292/2/5
f 294/2/5 292/2/5 293/2/5
f 295/3/5 274/3/5 272/3/5
f 297/3/5 296/3/5 295/3/5
f 298/3/5 273/3/5 277/3/5
f 299/3/5 297/3/5 295/3/5
f 299/3/5 298/3/5 297/3/5
f 299/3/5 295/3/5 272/3/5
f 300/3/5 273/3/5 298/3/5
f 300/3/5 298/3/5 299/3/5
f 303/3/5 302/3/5 301/3/5
f 304/3/5 302/3/5 303/3/5
f 308/2/5 306/2/5 305/2/5
f 309/2/5 306/2/5 308/2/5
f 311/2/5 308/2/5 307/2/5
f 311/2/5 310/2/5 309/2/5
f 311/2/5 309/2/5 308/2/5
f 312/2/5 310/2/5 311/2/5
f 313/2/5 310/2/5 312/2/5
f 314/2/5 310/2/5 313/2/5
f 315/2/5 313/2/5 312/2/5
f 316/2/5 313/2/5 315/2/5
f 319/3/5 318/3/5 317/3/5
f 320/3/5 318/3/5 319/3/5
f 321/2/6 322/2/6 325/2/6
f 325/2/6 322/2/6 326/2/6
f 323/2/6 324/2/6 327/2/6
f 327/2/6 324/2/6 328/2/6
f 321/2/6 325/2/6 330/2/6
f 330/2/6 325/2/6 331/2/6
f 328/2/6 329/2/6 332/2/6
f 332/2/6 329/2/6 333/2/6
f 334/2/6 335/2/6 338/2/6
f 338/2/6 335/2/6 339/2/6
f 336/2/6 337/2/6 342/2/6
f 339/2/6 340/2/6 343/2/6
f 343/2/6 340/2/6 344/2/6
f 341/2/6 342/2/6 345/2/6
f 342/2/6 337/2/6 346/2/6
f 345/2/6 342/2/6 346/2/6
f 347/3/6 348/3/6 349/3/6
f 349/3/6 348/3/6 350/3/6
f 350/3/6 348/3/6 352/3/6
f 352/3/6 348/3/6 353/3/6
f 351/3/6 352/3/6 357/3/6
f 357/3/6 352/3/6 358/3/6
f 354/2/6 355/2/6 359/2/6
f 356/3/6 357/3/6 360/3/6
f 360/3/6 357/3/6 361/3/6
f 354/2/6 359/2/6 363/2/6
f 363/2/6 359/2/6 364/2/6
f 362/2/6 363/2/6 367/2/6
f 367/2/6 363/2/6 368/2/6
f 368/2/6 363/2/6 369/2/6
f 365/2/6 366/2/6 370/2/6
f 364/2/6 365/2/6 370/2/6
f 370/2/6 366/2/6 371/2/6
f 369/2/6 370/2/6 374/2/6
f 372/3/6 373/3/6 376/3/6
f 376/3/6 373/3/6 377/3/6
f 374/2/6 370/2/6 378/2/6
f 378/2/6 370/2/6 379/2/6
f 347/3/6 349/3/6 380/3/6
f 375/3/6 376/3/6 381/3/6
f 381/3/6 376/3/6 382/3/6
f 380/3/6 381/3/6 383/3/6
f 353/3/6 348/3/6 384/3/6
f 380/3/6 383/3/6 385/3/6
f 383/3/6 384/3/6 385/3/6
f 347/3/6 380/3/6 385/3/6
f 384/3/6 348/3/6 386/3/6
f 385/3/6 384/3/6 386/3/6
f 387/3/6 388/3/6 390/3/6
f 390/3/6 388/3/6 391/3/6
f 389/3/6 390/3/6 393/3/6
f 393/3/6 390/3/6 394/3/6
f 392/3/6 393/3/6 395/3/6
f 395/3/6 393/3/6 396/3/6
