# MagicaVoxel @ Ephtracy

# material
mtllib buttonShape_record.mtl
usemtl palette

# normals
vn -1 0 0
vn 1 0 0
vn 0 0 1
vn 0 0 -1
vn 0 -1 0
vn 0 1 0

# texcoords
vt 0.841797 0.5
vt 0.845703 0.5
vt 0.849609 0.5
vt 0.857422 0.5
vt 0.958984 0.5
vt 0.994141 0.5

# verts
v -6 0 3
v -6 0 -3
v -6 1 3
v -6 1 -3
v -5 0 4
v -5 0 3
v -5 0 -3
v -5 0 -4
v -5 1 4
v -5 1 3
v -5 1 -3
v -5 1 -4
v -5 2 3
v -5 2 -3
v -4 0 5
v -4 0 4
v -4 0 -4
v -4 0 -5
v -4 1 5
v -4 1 4
v -4 1 3
v -4 1 -3
v -4 1 -4
v -4 1 -5
v -4 2 4
v -4 2 3
v -4 2 -3
v -4 2 -4
v -3 0 6
v -3 0 5
v -3 0 -5
v -3 0 -6
v -3 1 6
v -3 1 5
v -3 1 4
v -3 1 -4
v -3 1 -5
v -3 1 -6
v -3 2 5
v -3 2 4
v -3 2 -4
v -3 2 -5
v -2 2 2
v -2 2 -2
v -2 3 2
v -2 3 -2
v 2 2 2
v 2 2 -2
v 2 3 2
v 2 3 -2
v 3 0 6
v 3 0 5
v 3 0 -5
v 3 0 -6
v 3 1 6
v 3 1 5
v 3 1 4
v 3 1 -4
v 3 1 -5
v 3 1 -6
v 3 2 5
v 3 2 4
v 3 2 -4
v 3 2 -5
v 4 0 5
v 4 0 4
v 4 0 -4
v 4 0 -5
v 4 1 5
v 4 1 4
v 4 1 3
v 4 1 -3
v 4 1 -4
v 4 1 -5
v 4 2 4
v 4 2 3
v 4 2 -3
v 4 2 -4
v 5 0 4
v 5 0 3
v 5 0 -3
v 5 0 -4
v 5 1 4
v 5 1 3
v 5 1 -3
v 5 1 -4
v 5 2 3
v 5 2 -3
v 6 0 3
v 6 0 -3
v 6 1 3
v 6 1 -3
v -3 0 6
v -3 1 6
v 3 0 6
v 3 1 6
v -4 0 5
v -4 1 5
v -3 0 5
v -3 1 5
v -3 2 5
v 3 0 5
v 3 1 5
v 3 2 5
v 4 0 5
v 4 1 5
v -5 0 4
v -5 1 4
v -4 0 4
v -4 1 4
v -4 2 4
v -3 1 4
v -3 2 4
v 3 1 4
v 3 2 4
v 4 0 4
v 4 1 4
v 4 2 4
v 5 0 4
v 5 1 4
v -6 0 3
v -6 1 3
v -5 0 3
v -5 1 3
v -5 2 3
v -4 1 3
v -4 2 3
v 4 1 3
v 4 2 3
v 5 0 3
v 5 1 3
v 5 2 3
v 6 0 3
v 6 1 3
v -2 2 2
v -2 3 2
v 2 2 2
v 2 3 2
v -2 2 -2
v -2 3 -2
v 2 2 -2
v 2 3 -2
v -6 0 -3
v -6 1 -3
v -5 0 -3
v -5 1 -3
v -5 2 -3
v -4 1 -3
v -4 2 -3
v 4 1 -3
v 4 2 -3
v 5 0 -3
v 5 1 -3
v 5 2 -3
v 6 0 -3
v 6 1 -3
v -5 0 -4
v -5 1 -4
v -4 0 -4
v -4 1 -4
v -4 2 -4
v -3 1 -4
v -3 2 -4
v 3 1 -4
v 3 2 -4
v 4 0 -4
v 4 1 -4
v 4 2 -4
v 5 0 -4
v 5 1 -4
v -4 0 -5
v -4 1 -5
v -3 0 -5
v -3 1 -5
v -3 2 -5
v 3 0 -5
v 3 1 -5
v 3 2 -5
v 4 0 -5
v 4 1 -5
v -3 0 -6
v -3 1 -6
v 3 0 -6
v 3 1 -6
v -3 0 6
v 3 0 6
v -4 0 5
v -3 0 5
v 3 0 5
v 4 0 5
v -5 0 4
v -4 0 4
v -3 0 4
v 3 0 4
v 4 0 4
v 5 0 4
v -6 0 3
v -5 0 3
v -4 0 3
v 4 0 3
v 5 0 3
v 6 0 3
v -6 0 -3
v -5 0 -3
v -4 0 -3
v 4 0 -3
v 5 0 -3
v 6 0 -3
v -5 0 -4
v -4 0 -4
v -3 0 -4
v 3 0 -4
v 4 0 -4
v 5 0 -4
v -4 0 -5
v -3 0 -5
v 3 0 -5
v 4 0 -5
v -3 0 -6
v 3 0 -6
v -3 1 6
v 3 1 6
v -4 1 5
v -3 1 5
v 3 1 5
v 4 1 5
v -5 1 4
v -4 1 4
v -3 1 4
v 3 1 4
v 4 1 4
v 5 1 4
v -6 1 3
v -5 1 3
v -4 1 3
v 4 1 3
v 5 1 3
v 6 1 3
v -6 1 -3
v -5 1 -3
v -4 1 -3
v 4 1 -3
v 5 1 -3
v 6 1 -3
v -5 1 -4
v -4 1 -4
v -3 1 -4
v 3 1 -4
v 4 1 -4
v 5 1 -4
v -4 1 -5
v -3 1 -5
v 3 1 -5
v 4 1 -5
v -3 1 -6
v 3 1 -6
v -3 2 5
v 3 2 5
v -4 2 4
v -3 2 4
v 3 2 4
v 4 2 4
v -5 2 3
v -4 2 3
v -3 2 3
v 3 2 3
v 4 2 3
v 5 2 3
v -2 2 2
v 2 2 2
v -2 2 -2
v 2 2 -2
v -5 2 -3
v -4 2 -3
v -3 2 -3
v 3 2 -3
v 4 2 -3
v 5 2 -3
v -4 2 -4
v -3 2 -4
v 3 2 -4
v 4 2 -4
v -3 2 -5
v 3 2 -5
v -2 3 2
v 2 3 2
v -2 3 -2
v 2 3 -2

# faces
f 3/6/1 2/6/1 1/6/1
f 4/6/1 2/6/1 3/6/1
f 9/6/1 6/6/1 5/6/1
f 10/6/1 6/6/1 9/6/1
f 11/6/1 8/6/1 7/6/1
f 12/6/1 8/6/1 11/6/1
f 13/4/1 11/4/1 10/4/1
f 14/4/1 11/4/1 13/4/1
f 19/6/1 16/6/1 15/6/1
f 20/6/1 16/6/1 19/6/1
f 23/6/1 18/6/1 17/6/1
f 24/6/1 18/6/1 23/6/1
f 25/4/1 21/4/1 20/4/1
f 26/4/1 21/4/1 25/4/1
f 27/4/1 23/4/1 22/4/1
f 28/4/1 23/4/1 27/4/1
f 33/6/1 30/6/1 29/6/1
f 34/6/1 30/6/1 33/6/1
f 37/6/1 32/6/1 31/6/1
f 38/6/1 32/6/1 37/6/1
f 39/4/1 35/4/1 34/4/1
f 40/4/1 35/4/1 39/4/1
f 41/4/1 37/4/1 36/4/1
f 42/4/1 37/4/1 41/4/1
f 45/1/1 44/1/1 43/1/1
f 46/1/1 44/1/1 45/1/1
f 47/1/2 48/1/2 49/1/2
f 49/1/2 48/1/2 50/1/2
f 51/6/2 52/6/2 55/6/2
f 55/6/2 52/6/2 56/6/2
f 53/6/2 54/6/2 59/6/2
f 59/6/2 54/6/2 60/6/2
f 56/4/2 57/4/2 61/4/2
f 61/4/2 57/4/2 62/4/2
f 58/4/2 59/4/2 63/4/2
f 63/4/2 59/4/2 64/4/2
f 65/6/2 66/6/2 69/6/2
f 69/6/2 66/6/2 70/6/2
f 67/6/2 68/6/2 73/6/2
f 73/6/2 68/6/2 74/6/2
f 70/4/2 71/4/2 75/4/2
f 75/4/2 71/4/2 76/4/2
f 72/4/2 73/4/2 77/4/2
f 77/4/2 73/4/2 78/4/2
f 79/6/2 80/6/2 83/6/2
f 83/6/2 80/6/2 84/6/2
f 81/6/2 82/6/2 85/6/2
f 85/6/2 82/6/2 86/6/2
f 84/4/2 85/4/2 87/4/2
f 87/4/2 85/4/2 88/4/2
f 89/6/2 90/6/2 91/6/2
f 91/6/2 90/6/2 92/6/2
f 95/6/3 94/6/3 93/6/3
f 96/6/3 94/6/3 95/6/3
f 99/6/3 98/6/3 97/6/3
f 100/6/3 98/6/3 99/6/3
f 103/4/3 101/4/3 100/4/3
f 104/4/3 101/4/3 103/4/3
f 105/6/3 103/6/3 102/6/3
f 106/6/3 103/6/3 105/6/3
f 109/6/3 108/6/3 107/6/3
f 110/6/3 108/6/3 109/6/3
f 112/4/3 111/4/3 110/4/3
f 113/4/3 111/4/3 112/4/3
f 117/4/3 115/4/3 114/4/3
f 118/4/3 115/4/3 117/4/3
f 119/6/3 117/6/3 116/6/3
f 120/6/3 117/6/3 119/6/3
f 123/6/3 122/6/3 121/6/3
f 124/6/3 122/6/3 123/6/3
f 126/4/3 125/4/3 124/4/3
f 127/4/3 125/4/3 126/4/3
f 131/4/3 129/4/3 128/4/3
f 132/4/3 129/4/3 131/4/3
f 133/6/3 131/6/3 130/6/3
f 134/6/3 131/6/3 133/6/3
f 137/1/3 136/1/3 135/1/3
f 138/1/3 136/1/3 137/1/3
f 139/1/4 140/1/4 141/1/4
f 141/1/4 140/1/4 142/1/4
f 143/6/4 144/6/4 145/6/4
f 145/6/4 144/6/4 146/6/4
f 146/4/4 147/4/4 148/4/4
f 148/4/4 147/4/4 149/4/4
f 150/4/4 151/4/4 153/4/4
f 153/4/4 151/4/4 154/4/4
f 152/6/4 153/6/4 155/6/4
f 155/6/4 153/6/4 156/6/4
f 157/6/4 158/6/4 159/6/4
f 159/6/4 158/6/4 160/6/4
f 160/4/4 161/4/4 162/4/4
f 162/4/4 161/4/4 163/4/4
f 164/4/4 165/4/4 167/4/4
f 167/4/4 165/4/4 168/4/4
f 166/6/4 167/6/4 169/6/4
f 169/6/4 167/6/4 170/6/4
f 171/6/4 172/6/4 173/6/4
f 173/6/4 172/6/4 174/6/4
f 174/4/4 175/4/4 177/4/4
f 177/4/4 175/4/4 178/4/4
f 176/6/4 177/6/4 179/6/4
f 179/6/4 177/6/4 180/6/4
f 181/6/4 182/6/4 183/6/4
f 183/6/4 182/6/4 184/6/4
f 188/6/5 186/6/5 185/6/5
f 189/6/5 186/6/5 188/6/5
f 192/6/5 188/6/5 187/6/5
f 193/5/5 189/5/5 188/5/5
f 193/6/5 188/6/5 192/6/5
f 194/6/5 190/6/5 189/6/5
f 194/5/5 189/5/5 193/5/5
f 195/6/5 190/6/5 194/6/5
f 198/6/5 192/6/5 191/6/5
f 199/5/5 193/5/5 192/5/5
f 199/5/5 194/5/5 193/5/5
f 199/6/5 192/6/5 198/6/5
f 199/5/5 195/5/5 194/5/5
f 200/6/5 196/6/5 195/6/5
f 200/5/5 195/5/5 199/5/5
f 201/6/5 196/6/5 200/6/5
f 203/6/5 198/6/5 197/6/5
f 204/5/5 199/5/5 198/5/5
f 204/6/5 198/6/5 203/6/5
f 204/5/5 200/5/5 199/5/5
f 204/5/5 201/5/5 200/5/5
f 205/5/5 201/5/5 204/5/5
f 206/5/5 201/5/5 205/5/5
f 207/6/5 202/6/5 201/6/5
f 207/5/5 201/5/5 206/5/5
f 208/6/5 202/6/5 207/6/5
f 209/6/5 205/6/5 204/6/5
f 210/5/5 206/5/5 205/5/5
f 210/6/5 205/6/5 209/6/5
f 211/5/5 206/5/5 210/5/5
f 212/5/5 206/5/5 211/5/5
f 213/6/5 207/6/5 206/6/5
f 213/5/5 206/5/5 212/5/5
f 214/6/5 207/6/5 213/6/5
f 215/6/5 211/6/5 210/6/5
f 216/5/5 212/5/5 211/5/5
f 216/6/5 211/6/5 215/6/5
f 217/6/5 213/6/5 212/6/5
f 217/5/5 212/5/5 216/5/5
f 218/6/5 213/6/5 217/6/5
f 219/6/5 217/6/5 216/6/5
f 220/6/5 217/6/5 219/6/5
f 221/6/6 222/6/6 224/6/6
f 224/6/6 222/6/6 225/6/6
f 223/6/6 224/6/6 228/6/6
f 228/6/6 224/6/6 229/6/6
f 225/6/6 226/6/6 230/6/6
f 230/6/6 226/6/6 231/6/6
f 227/6/6 228/6/6 234/6/6
f 234/6/6 228/6/6 235/6/6
f 231/6/6 232/6/6 236/6/6
f 236/6/6 232/6/6 237/6/6
f 233/6/6 234/6/6 239/6/6
f 239/6/6 234/6/6 240/6/6
f 237/6/6 238/6/6 243/6/6
f 243/6/6 238/6/6 244/6/6
f 240/6/6 241/6/6 245/6/6
f 245/6/6 241/6/6 246/6/6
f 242/6/6 243/6/6 249/6/6
f 249/6/6 243/6/6 250/6/6
f 246/6/6 247/6/6 251/6/6
f 251/6/6 247/6/6 252/6/6
f 248/6/6 249/6/6 253/6/6
f 253/6/6 249/6/6 254/6/6
f 252/6/6 253/6/6 255/6/6
f 255/6/6 253/6/6 256/6/6
f 257/4/6 258/4/6 260/4/6
f 260/4/6 258/4/6 261/4/6
f 259/4/6 260/4/6 264/4/6
f 260/3/6 261/3/6 265/3/6
f 264/4/6 260/4/6 265/4/6
f 261/4/6 262/4/6 266/4/6
f 265/3/6 261/3/6 266/3/6
f 266/4/6 262/4/6 267/4/6
f 265/2/6 266/2/6 269/2/6
f 269/2/6 266/2/6 270/2/6
f 265/2/6 269/2/6 271/2/6
f 270/2/6 266/2/6 272/2/6
f 263/4/6 264/4/6 273/4/6
f 264/3/6 265/3/6 274/3/6
f 273/4/6 264/4/6 274/4/6
f 271/2/6 272/2/6 275/2/6
f 274/3/6 265/3/6 275/3/6
f 265/2/6 271/2/6 275/2/6
f 266/3/6 267/3/6 276/3/6
f 275/2/6 272/2/6 276/2/6
f 272/2/6 266/2/6 276/2/6
f 267/4/6 268/4/6 277/4/6
f 276/3/6 267/3/6 277/3/6
f 277/4/6 268/4/6 278/4/6
f 274/4/6 275/4/6 279/4/6
f 275/3/6 276/3/6 280/3/6
f 279/4/6 275/4/6 280/4/6
f 276/4/6 277/4/6 281/4/6
f 280/3/6 276/3/6 281/3/6
f 281/4/6 277/4/6 282/4/6
f 280/4/6 281/4/6 283/4/6
f 283/4/6 281/4/6 284/4/6
f 285/1/6 286/1/6 287/1/6
f 287/1/6 286/1/6 288/1/6
