# MagicaVoxel @ Ephtracy

# material
mtllib buttonShape_photo.mtl
usemtl palette

# normals
vn -1 0 0
vn 1 0 0
vn 0 0 1
vn 0 0 -1
vn 0 -1 0
vn 0 1 0

# texcoords
vt 0.0214844 0.5
vt 0.0917969 0.5
vt 0.771484 0.5
vt 0.775391 0.5
vt 0.880859 0.5
vt 0.900391 0.5
vt 0.904297 0.5
vt 0.958984 0.5
vt 0.966797 0.5

# verts
v -6 0 6
v -6 0 -6
v -6 2 6
v -6 2 -6
v -4 1 -1
v -4 1 -2
v -4 2 -1
v -4 2 -2
v 1 1 2
v 1 1 1
v 1 2 2
v 1 2 1
v 1 2 -2
v 1 2 -3
v 1 3 -2
v 1 3 -3
v 2 1 1
v 2 1 -0
v 2 1 -2
v 2 1 -3
v 2 2 1
v 2 2 -0
v 2 2 -1
v 2 2 -2
v 2 2 -3
v 2 2 -4
v 2 3 -1
v 2 3 -2
v 2 3 -3
v 2 3 -4
v 5 1 1
v 5 1 -5
v 5 2 1
v 5 2 -5
v -5 1 -1
v -5 1 -5
v -5 2 -1
v -5 2 -5
v -3 1 -1
v -3 1 -2
v -3 2 -1
v -3 2 -2
v -2 1 -0
v -2 1 -1
v -2 2 -0
v -2 2 -1
v -1 1 1
v -1 1 -0
v -1 2 1
v -1 2 -0
v 0 1 2
v 0 1 1
v 0 2 2
v 0 2 1
v 3 1 -2
v 3 1 -3
v 3 2 -1
v 3 2 -2
v 3 2 -3
v 3 2 -4
v 3 3 -1
v 3 3 -2
v 3 3 -3
v 3 3 -4
v 4 1 1
v 4 1 -0
v 4 2 1
v 4 2 -0
v 4 2 -2
v 4 2 -3
v 4 3 -2
v 4 3 -3
v 6 0 6
v 6 0 -6
v 6 2 6
v 6 2 -6
v -6 0 6
v -6 2 6
v 6 0 6
v 6 2 6
v 2 2 -1
v 2 3 -1
v 3 2 -1
v 3 3 -1
v 1 2 -2
v 1 3 -2
v 2 1 -2
v 2 2 -2
v 2 3 -2
v 3 1 -2
v 3 2 -2
v 3 3 -2
v 4 2 -2
v 4 3 -2
v -5 1 -5
v -5 2 -5
v 5 1 -5
v 5 2 -5
v 0 1 2
v 0 2 2
v 1 1 2
v 1 2 2
v -1 1 1
v -1 2 1
v 0 1 1
v 0 2 1
v 1 1 1
v 1 2 1
v 2 1 1
v 2 2 1
v 4 1 1
v 4 2 1
v 5 1 1
v 5 2 1
v -2 1 -0
v -2 2 -0
v -1 1 -0
v -1 2 -0
v 2 1 -0
v 2 2 -0
v 4 1 -0
v 4 2 -0
v -5 1 -1
v -5 2 -1
v -4 1 -1
v -4 2 -1
v -3 1 -1
v -3 2 -1
v -2 1 -1
v -2 2 -1
v -4 1 -2
v -4 2 -2
v -3 1 -2
v -3 2 -2
v 1 2 -3
v 1 3 -3
v 2 1 -3
v 2 2 -3
v 2 3 -3
v 3 1 -3
v 3 2 -3
v 3 3 -3
v 4 2 -3
v 4 3 -3
v 2 2 -4
v 2 3 -4
v 3 2 -4
v 3 3 -4
v -6 0 -6
v -6 2 -6
v 6 0 -6
v 6 2 -6
v -6 0 6
v 6 0 6
v -5 0 3
v 5 0 3
v 0 0 2
v 1 0 2
v -1 0 1
v 0 0 1
v 1 0 1
v 2 0 1
v 4 0 1
v 5 0 1
v -2 0 -0
v -1 0 -0
v 2 0 -0
v 4 0 -0
v -5 0 -1
v -4 0 -1
v -3 0 -1
v -2 0 -1
v -4 0 -2
v -3 0 -2
v -1 0 -2
v 0 0 -2
v 2 0 -2
v 3 0 -2
v -4 0 -3
v -3 0 -3
v -2 0 -3
v -1 0 -3
v 0 0 -3
v 2 0 -3
v 3 0 -3
v -3 0 -4
v -2 0 -4
v -1 0 -4
v -5 0 -5
v 5 0 -5
v -6 0 -6
v 6 0 -6
v 2 2 -1
v 3 2 -1
v 1 2 -2
v 2 2 -2
v 3 2 -2
v 4 2 -2
v 1 2 -3
v 2 2 -3
v 3 2 -3
v 4 2 -3
v 2 2 -4
v 3 2 -4
v 0 1 2
v 1 1 2
v -1 1 1
v 0 1 1
v 1 1 1
v 2 1 1
v 4 1 1
v 5 1 1
v -2 1 -0
v -1 1 -0
v 2 1 -0
v 4 1 -0
v -5 1 -1
v -4 1 -1
v -3 1 -1
v -2 1 -1
v -4 1 -2
v -3 1 -2
v -1 1 -2
v 0 1 -2
v 2 1 -2
v 3 1 -2
v -4 1 -3
v -3 1 -3
v -2 1 -3
v -1 1 -3
v 0 1 -3
v 2 1 -3
v 3 1 -3
v -3 1 -4
v -2 1 -4
v -1 1 -4
v -5 1 -5
v 5 1 -5
v -6 2 6
v 6 2 6
v -5 2 3
v 0 2 3
v 1 2 3
v 5 2 3
v -1 2 2
v 0 2 2
v 1 2 2
v 2 2 2
v 4 2 2
v 5 2 2
v -2 2 1
v -1 2 1
v 0 2 1
v 1 2 1
v 2 2 1
v 4 2 1
v 5 2 1
v -5 2 -0
v -4 2 -0
v -3 2 -0
v -2 2 -0
v -1 2 -0
v 2 2 -0
v 4 2 -0
v -5 2 -1
v -4 2 -1
v -3 2 -1
v -2 2 -1
v -4 2 -2
v -3 2 -2
v -5 2 -5
v 5 2 -5
v -6 2 -6
v 6 2 -6
v 2 3 -1
v 3 3 -1
v 1 3 -2
v 2 3 -2
v 3 3 -2
v 4 3 -2
v 1 3 -3
v 2 3 -3
v 3 3 -3
v 4 3 -3
v 2 3 -4
v 3 3 -4

# faces
f 3/8/1 2/8/1 1/8/1
f 4/8/1 2/8/1 3/8/1
f 7/5/1 6/5/1 5/5/1
f 8/5/1 6/5/1 7/5/1
f 11/5/1 10/5/1 9/5/1
f 12/5/1 10/5/1 11/5/1
f 15/1/1 14/1/1 13/1/1
f 16/1/1 14/1/1 15/1/1
f 21/5/1 18/5/1 17/5/1
f 22/5/1 18/5/1 21/5/1
f 24/4/1 20/4/1 19/4/1
f 25/4/1 20/4/1 24/4/1
f 27/1/1 24/1/1 23/1/1
f 28/1/1 24/1/1 27/1/1
f 29/1/1 26/1/1 25/1/1
f 30/1/1 26/1/1 29/1/1
f 33/8/1 32/8/1 31/8/1
f 34/8/1 32/8/1 33/8/1
f 35/8/2 36/8/2 37/8/2
f 37/8/2 36/8/2 38/8/2
f 39/5/2 40/5/2 41/5/2
f 41/5/2 40/5/2 42/5/2
f 43/7/2 44/7/2 45/7/2
f 45/7/2 44/7/2 46/7/2
f 47/7/2 48/7/2 49/7/2
f 49/7/2 48/7/2 50/7/2
f 51/7/2 52/7/2 53/7/2
f 53/7/2 52/7/2 54/7/2
f 55/4/2 56/4/2 58/4/2
f 58/4/2 56/4/2 59/4/2
f 57/1/2 58/1/2 61/1/2
f 61/1/2 58/1/2 62/1/2
f 59/1/2 60/1/2 63/1/2
f 63/1/2 60/1/2 64/1/2
f 65/5/2 66/5/2 67/5/2
f 67/5/2 66/5/2 68/5/2
f 69/1/2 70/1/2 71/1/2
f 71/1/2 70/1/2 72/1/2
f 73/8/2 74/8/2 75/8/2
f 75/8/2 74/8/2 76/8/2
f 79/8/3 78/8/3 77/8/3
f 80/8/3 78/8/3 79/8/3
f 83/1/3 82/1/3 81/1/3
f 84/1/3 82/1/3 83/1/3
f 88/1/3 86/1/3 85/1/3
f 89/1/3 86/1/3 88/1/3
f 90/4/3 88/4/3 87/4/3
f 91/4/3 88/4/3 90/4/3
f 93/1/3 92/1/3 91/1/3
f 94/1/3 92/1/3 93/1/3
f 97/8/3 96/8/3 95/8/3
f 98/8/3 96/8/3 97/8/3
f 99/7/4 100/7/4 101/7/4
f 101/7/4 100/7/4 102/7/4
f 103/7/4 104/7/4 105/7/4
f 105/7/4 104/7/4 106/7/4
f 107/5/4 108/5/4 109/5/4
f 109/5/4 108/5/4 110/5/4
f 111/7/4 112/7/4 113/7/4
f 113/7/4 112/7/4 114/7/4
f 115/7/4 116/7/4 117/7/4
f 117/7/4 116/7/4 118/7/4
f 119/5/4 120/5/4 121/5/4
f 121/5/4 120/5/4 122/5/4
f 123/5/4 124/5/4 125/5/4
f 125/5/4 124/5/4 126/5/4
f 127/7/4 128/7/4 129/7/4
f 129/7/4 128/7/4 130/7/4
f 131/5/4 132/5/4 133/5/4
f 133/5/4 132/5/4 134/5/4
f 135/1/4 136/1/4 138/1/4
f 138/1/4 136/1/4 139/1/4
f 137/4/4 138/4/4 140/4/4
f 140/4/4 138/4/4 141/4/4
f 141/1/4 142/1/4 143/1/4
f 143/1/4 142/1/4 144/1/4
f 145/1/4 146/1/4 147/1/4
f 147/1/4 146/1/4 148/1/4
f 149/8/4 150/8/4 151/8/4
f 151/8/4 150/8/4 152/8/4
f 155/8/5 154/8/5 153/8/5
f 156/8/5 154/8/5 155/8/5
f 157/6/5 156/6/5 155/6/5
f 158/6/5 156/6/5 157/6/5
f 159/6/5 157/6/5 155/6/5
f 160/4/5 158/4/5 157/4/5
f 160/6/5 157/6/5 159/6/5
f 161/6/5 156/6/5 158/6/5
f 161/4/5 158/4/5 160/4/5
f 162/6/5 156/6/5 161/6/5
f 163/6/5 156/6/5 162/6/5
f 164/8/5 154/8/5 156/8/5
f 164/6/5 156/6/5 163/6/5
f 165/6/5 159/6/5 155/6/5
f 166/4/5 160/4/5 159/4/5
f 166/6/5 159/6/5 165/6/5
f 166/4/5 161/4/5 160/4/5
f 166/4/5 162/4/5 161/4/5
f 167/6/5 163/6/5 162/6/5
f 167/4/5 162/4/5 166/4/5
f 168/4/5 164/4/5 163/4/5
f 168/6/5 163/6/5 167/6/5
f 169/8/5 155/8/5 153/8/5
f 169/6/5 165/6/5 155/6/5
f 170/6/5 165/6/5 169/6/5
f 171/6/5 165/6/5 170/6/5
f 172/4/5 166/4/5 165/4/5
f 172/6/5 165/6/5 171/6/5
f 172/4/5 168/4/5 167/4/5
f 172/4/5 167/4/5 166/4/5
f 173/6/5 171/6/5 170/6/5
f 173/4/5 170/4/5 169/4/5
f 174/4/5 172/4/5 171/4/5
f 174/6/5 171/6/5 173/6/5
f 175/4/5 168/4/5 172/4/5
f 175/4/5 172/4/5 174/4/5
f 176/4/5 168/4/5 175/4/5
f 177/4/5 168/4/5 176/4/5
f 178/4/5 168/4/5 177/4/5
f 179/9/5 174/9/5 173/9/5
f 179/4/5 173/4/5 169/4/5
f 180/8/5 175/8/5 174/8/5
f 180/9/5 174/9/5 179/9/5
f 181/8/5 175/8/5 180/8/5
f 182/9/5 176/9/5 175/9/5
f 182/8/5 175/8/5 181/8/5
f 183/4/5 177/4/5 176/4/5
f 183/9/5 176/9/5 182/9/5
f 184/1/5 178/1/5 177/1/5
f 184/4/5 177/4/5 183/4/5
f 185/4/5 168/4/5 178/4/5
f 185/1/5 178/1/5 184/1/5
f 186/8/5 181/8/5 180/8/5
f 186/4/5 180/4/5 179/4/5
f 187/9/5 182/9/5 181/9/5
f 187/8/5 181/8/5 186/8/5
f 188/4/5 184/4/5 183/4/5
f 188/9/5 182/9/5 187/9/5
f 188/4/5 183/4/5 182/4/5
f 188/4/5 185/4/5 184/4/5
f 189/4/5 187/4/5 186/4/5
f 189/4/5 186/4/5 179/4/5
f 189/4/5 188/4/5 187/4/5
f 189/8/5 169/8/5 153/8/5
f 189/4/5 179/4/5 169/4/5
f 190/4/5 164/4/5 168/4/5
f 190/4/5 188/4/5 189/4/5
f 190/4/5 185/4/5 188/4/5
f 190/8/5 154/8/5 164/8/5
f 190/4/5 168/4/5 185/4/5
f 191/8/5 189/8/5 153/8/5
f 191/8/5 190/8/5 189/8/5
f 192/8/5 154/8/5 190/8/5
f 192/8/5 190/8/5 191/8/5
f 196/1/5 194/1/5 193/1/5
f 197/1/5 194/1/5 196/1/5
f 199/1/5 196/1/5 195/1/5
f 200/1/5 196/1/5 199/1/5
f 201/1/5 198/1/5 197/1/5
f 202/1/5 198/1/5 201/1/5
f 203/1/5 201/1/5 200/1/5
f 204/1/5 201/1/5 203/1/5
f 205/4/6 206/4/6 208/4/6
f 208/4/6 206/4/6 209/4/6
f 207/4/6 208/4/6 214/4/6
f 208/4/6 209/4/6 214/4/6
f 209/4/6 210/4/6 214/4/6
f 214/4/6 210/4/6 215/4/6
f 211/4/6 212/4/6 216/4/6
f 214/4/6 215/4/6 220/4/6
f 213/4/6 214/4/6 220/4/6
f 215/4/6 216/4/6 220/4/6
f 217/4/6 218/4/6 221/4/6
f 219/4/6 220/4/6 222/4/6
f 220/4/6 216/4/6 223/4/6
f 222/4/6 220/4/6 223/4/6
f 223/4/6 216/4/6 224/4/6
f 224/4/6 216/4/6 225/4/6
f 225/4/6 216/4/6 226/4/6
f 217/4/6 221/4/6 227/4/6
f 221/9/6 222/9/6 227/9/6
f 222/8/6 223/8/6 228/8/6
f 227/9/6 222/9/6 228/9/6
f 228/8/6 223/8/6 229/8/6
f 223/9/6 224/9/6 230/9/6
f 229/8/6 223/8/6 230/8/6
f 224/4/6 225/4/6 231/4/6
f 230/9/6 224/9/6 231/9/6
f 231/4/6 225/4/6 232/4/6
f 226/4/6 216/4/6 233/4/6
f 228/8/6 229/8/6 234/8/6
f 227/4/6 228/4/6 234/4/6
f 229/9/6 230/9/6 235/9/6
f 234/8/6 229/8/6 235/8/6
f 231/4/6 232/4/6 236/4/6
f 235/9/6 230/9/6 236/9/6
f 232/4/6 233/4/6 236/4/6
f 230/4/6 231/4/6 236/4/6
f 234/4/6 235/4/6 237/4/6
f 227/4/6 234/4/6 237/4/6
f 235/4/6 236/4/6 237/4/6
f 217/4/6 227/4/6 237/4/6
f 236/4/6 233/4/6 238/4/6
f 237/4/6 236/4/6 238/4/6
f 216/4/6 212/4/6 238/4/6
f 233/4/6 216/4/6 238/4/6
f 239/8/6 240/8/6 241/8/6
f 241/8/6 240/8/6 242/8/6
f 242/8/6 240/8/6 243/8/6
f 243/8/6 240/8/6 244/8/6
f 241/3/6 242/3/6 245/3/6
f 242/7/6 243/7/6 246/7/6
f 245/3/6 242/3/6 246/3/6
f 243/3/6 244/3/6 247/3/6
f 246/7/6 243/7/6 247/7/6
f 247/3/6 244/3/6 248/3/6
f 248/3/6 244/3/6 249/3/6
f 244/8/6 240/8/6 250/8/6
f 249/3/6 244/3/6 250/3/6
f 241/3/6 245/3/6 251/3/6
f 245/7/6 246/7/6 252/7/6
f 251/3/6 245/3/6 252/3/6
f 252/7/6 246/7/6 253/7/6
f 247/5/6 248/5/6 254/5/6
f 248/3/6 249/3/6 255/3/6
f 254/5/6 248/5/6 255/5/6
f 249/7/6 250/7/6 256/7/6
f 255/3/6 249/3/6 256/3/6
f 250/8/6 240/8/6 257/8/6
f 256/7/6 250/7/6 257/7/6
f 239/8/6 241/8/6 258/8/6
f 241/3/6 251/3/6 258/3/6
f 258/3/6 251/3/6 259/3/6
f 259/3/6 251/3/6 260/3/6
f 251/7/6 252/7/6 261/7/6
f 260/3/6 251/3/6 261/3/6
f 261/7/6 252/7/6 262/7/6
f 255/5/6 256/5/6 263/5/6
f 263/5/6 256/5/6 264/5/6
f 239/8/6 258/8/6 265/8/6
f 258/5/6 259/5/6 265/5/6
f 259/3/6 260/3/6 266/3/6
f 265/5/6 259/5/6 266/5/6
f 260/7/6 261/7/6 267/7/6
f 266/3/6 260/3/6 267/3/6
f 267/7/6 261/7/6 268/7/6
f 266/5/6 267/5/6 269/5/6
f 269/5/6 267/5/6 270/5/6
f 239/8/6 265/8/6 271/8/6
f 257/8/6 240/8/6 272/8/6
f 239/8/6 271/8/6 273/8/6
f 271/8/6 272/8/6 273/8/6
f 272/8/6 240/8/6 274/8/6
f 273/8/6 272/8/6 274/8/6
f 275/1/6 276/1/6 278/1/6
f 278/1/6 276/1/6 279/1/6
f 277/1/6 278/1/6 281/1/6
f 278/2/6 279/2/6 282/2/6
f 281/1/6 278/1/6 282/1/6
f 279/1/6 280/1/6 283/1/6
f 282/2/6 279/2/6 283/2/6
f 283/1/6 280/1/6 284/1/6
f 282/1/6 283/1/6 285/1/6
f 285/1/6 283/1/6 286/1/6
