# MagicaVoxel @ Ephtracy

# material
mtllib buttonShape_hideLighting.mtl
usemtl palette

# normals
vn -1 0 0
vn 1 0 0
vn 0 0 1
vn 0 0 -1
vn 0 -1 0
vn 0 1 0

# texcoords
vt 0.00976562 0.5
vt 0.0136719 0.5
vt 0.0175781 0.5
vt 0.0214844 0.5
vt 0.0410156 0.5
vt 0.0449219 0.5
vt 0.0683594 0.5

# verts
v -6.5 0 0.5
v -6.5 0 -0.5
v -6.5 1 0.5
v -6.5 1 -0.5
v -6.5 2 0.5
v -6.5 2 -0.5
v -5.5 0 5.5
v -5.5 0 4.5
v -5.5 0 -4.5
v -5.5 0 -5.5
v -5.5 1 5.5
v -5.5 1 4.5
v -5.5 1 -4.5
v -5.5 1 -5.5
v -5.5 2 5.5
v -5.5 2 4.5
v -4.5 0 4.5
v -4.5 0 3.5
v -4.5 0 -3.5
v -4.5 0 -4.5
v -4.5 1 4.5
v -4.5 1 3.5
v -4.5 1 -3.5
v -4.5 1 -4.5
v -4.5 2 4.5
v -4.5 2 3.5
v -4.5 2 -3.5
v -4.5 2 -4.5
v -3.5 0 2.5
v -3.5 0 1.5
v -3.5 0 -2.5
v -3.5 1 2.5
v -3.5 1 1.5
v -3.5 2 2.5
v -3.5 2 1.5
v -3.5 2 -2.5
v -2.5 0 3.5
v -2.5 0 2.5
v -2.5 0 -2.5
v -2.5 0 -3.5
v -2.5 1 3.5
v -2.5 1 2.5
v -2.5 2 3.5
v -2.5 2 2.5
v -2.5 2 -2.5
v -2.5 2 -3.5
v -0.5 0 6.5
v -0.5 0 5.5
v -0.5 0 4.5
v -0.5 0 -4.5
v -0.5 0 -5.5
v -0.5 0 -6.5
v -0.5 1 6.5
v -0.5 1 5.5
v -0.5 1 4.5
v -0.5 1 -4.5
v -0.5 1 -5.5
v -0.5 1 -6.5
v -0.5 2 6.5
v -0.5 2 5.5
v -0.5 2 4.5
v -0.5 2 -4.5
v -0.5 2 -5.5
v -0.5 2 -6.5
v 3.5 0 4.5
v 3.5 0 3.5
v 3.5 0 -3.5
v 3.5 0 -4.5
v 3.5 1 4.5
v 3.5 1 3.5
v 3.5 1 -3.5
v 3.5 1 -4.5
v 3.5 2 4.5
v 3.5 2 3.5
v 3.5 2 -3.5
v 3.5 2 -4.5
v 4.5 0 5.5
v 4.5 0 4.5
v 4.5 0 0.5
v 4.5 0 -0.5
v 4.5 0 -4.5
v 4.5 0 -5.5
v 4.5 1 5.5
v 4.5 1 4.5
v 4.5 1 0.5
v 4.5 1 -0.5
v 4.5 1 -4.5
v 4.5 1 -5.5
v 4.5 2 5.5
v 4.5 2 4.5
v 4.5 2 0.5
v 4.5 2 -0.5
v 4.5 2 -4.5
v 4.5 2 -5.5
v -4.5 0 5.5
v -4.5 0 4.5
v -4.5 0 0.5
v -4.5 0 -0.5
v -4.5 0 -4.5
v -4.5 0 -5.5
v -4.5 1 5.5
v -4.5 1 4.5
v -4.5 1 0.5
v -4.5 1 -0.5
v -4.5 1 -4.5
v -4.5 1 -5.5
v -4.5 2 5.5
v -4.5 2 4.5
v -4.5 2 0.5
v -4.5 2 -0.5
v -3.5 0 4.5
v -3.5 0 3.5
v -3.5 0 -3.5
v -3.5 0 -4.5
v -3.5 1 4.5
v -3.5 1 3.5
v -3.5 1 -3.5
v -3.5 1 -4.5
v -3.5 2 4.5
v -3.5 2 3.5
v -3.5 2 -3.5
v -3.5 2 -4.5
v 0.5 0 6.5
v 0.5 0 5.5
v 0.5 0 4.5
v 0.5 0 -4.5
v 0.5 0 -5.5
v 0.5 0 -6.5
v 0.5 1 6.5
v 0.5 1 5.5
v 0.5 1 4.5
v 0.5 1 -4.5
v 0.5 1 -5.5
v 0.5 1 -6.5
v 0.5 2 6.5
v 0.5 2 5.5
v 0.5 2 4.5
v 0.5 2 -4.5
v 0.5 2 -5.5
v 0.5 2 -6.5
v 2.5 0 3.5
v 2.5 0 2.5
v 2.5 0 -2.5
v 2.5 0 -3.5
v 2.5 1 3.5
v 2.5 1 2.5
v 2.5 1 -2.5
v 2.5 1 -3.5
v 2.5 2 3.5
v 2.5 2 2.5
v 2.5 2 -2.5
v 2.5 2 -3.5
v 3.5 0 2.5
v 3.5 0 -1.5
v 3.5 0 -2.5
v 3.5 1 2.5
v 3.5 1 -1.5
v 3.5 1 -2.5
v 3.5 2 2.5
v 3.5 2 -1.5
v 3.5 2 -2.5
v 4.5 0 4.5
v 4.5 0 3.5
v 4.5 0 -3.5
v 4.5 0 -4.5
v 4.5 1 4.5
v 4.5 1 3.5
v 4.5 1 -3.5
v 4.5 1 -4.5
v 4.5 2 4.5
v 4.5 2 3.5
v 4.5 2 -3.5
v 4.5 2 -4.5
v 5.5 0 5.5
v 5.5 0 4.5
v 5.5 0 -4.5
v 5.5 0 -5.5
v 5.5 1 5.5
v 5.5 1 4.5
v 5.5 1 -4.5
v 5.5 1 -5.5
v 5.5 2 5.5
v 5.5 2 4.5
v 5.5 2 -4.5
v 5.5 2 -5.5
v 6.5 0 0.5
v 6.5 0 -0.5
v 6.5 1 0.5
v 6.5 1 -0.5
v 6.5 2 0.5
v 6.5 2 -0.5
v -0.5 0 6.5
v -0.5 1 6.5
v -0.5 2 6.5
v 0.5 0 6.5
v 0.5 1 6.5
v 0.5 2 6.5
v -5.5 0 5.5
v -5.5 1 5.5
v -5.5 2 5.5
v -4.5 0 5.5
v -4.5 1 5.5
v -4.5 2 5.5
v 4.5 0 5.5
v 4.5 1 5.5
v 4.5 2 5.5
v 5.5 0 5.5
v 5.5 1 5.5
v 5.5 2 5.5
v -4.5 0 4.5
v -4.5 1 4.5
v -4.5 2 4.5
v -3.5 0 4.5
v -3.5 1 4.5
v -3.5 2 4.5
v 3.5 0 4.5
v 3.5 1 4.5
v 3.5 2 4.5
v 4.5 0 4.5
v 4.5 1 4.5
v 4.5 2 4.5
v -2.5 0 3.5
v -2.5 1 3.5
v -2.5 2 3.5
v -1.5 0 3.5
v -1.5 1 3.5
v -1.5 2 3.5
v 2.5 0 3.5
v 2.5 1 3.5
v 2.5 2 3.5
v -3.5 0 2.5
v -3.5 1 2.5
v -3.5 2 2.5
v -2.5 0 2.5
v -2.5 1 2.5
v -2.5 2 2.5
v 2.5 0 2.5
v 2.5 1 2.5
v 2.5 2 2.5
v 3.5 0 2.5
v 3.5 1 2.5
v 3.5 2 2.5
v -6.5 0 0.5
v -6.5 1 0.5
v -6.5 2 0.5
v -5.5 0 0.5
v -5.5 1 0.5
v -5.5 2 0.5
v -4.5 0 0.5
v -4.5 1 0.5
v -4.5 2 0.5
v 4.5 0 0.5
v 4.5 1 0.5
v 4.5 2 0.5
v 5.5 0 0.5
v 5.5 1 0.5
v 5.5 2 0.5
v 6.5 0 0.5
v 6.5 1 0.5
v 6.5 2 0.5
v -4.5 0 -3.5
v -4.5 1 -3.5
v -4.5 2 -3.5
v -3.5 0 -3.5
v -3.5 1 -3.5
v -3.5 2 -3.5
v 3.5 0 -3.5
v 3.5 1 -3.5
v 3.5 2 -3.5
v 4.5 0 -3.5
v 4.5 1 -3.5
v 4.5 2 -3.5
v -5.5 0 -4.5
v -5.5 1 -4.5
v -4.5 0 -4.5
v -4.5 1 -4.5
v -0.5 0 -4.5
v -0.5 1 -4.5
v -0.5 2 -4.5
v 0.5 0 -4.5
v 0.5 1 -4.5
v 0.5 2 -4.5
v 4.5 0 -4.5
v 4.5 1 -4.5
v 4.5 2 -4.5
v 5.5 0 -4.5
v 5.5 1 -4.5
v 5.5 2 -4.5
v -5.5 0 4.5
v -5.5 1 4.5
v -5.5 2 4.5
v -4.5 0 4.5
v -4.5 1 4.5
v -4.5 2 4.5
v -0.5 0 4.5
v -0.5 1 4.5
v -0.5 2 4.5
v 0.5 0 4.5
v 0.5 1 4.5
v 0.5 2 4.5
v 4.5 0 4.5
v 4.5 1 4.5
v 4.5 2 4.5
v 5.5 0 4.5
v 5.5 1 4.5
v 5.5 2 4.5
v -4.5 0 3.5
v -4.5 1 3.5
v -4.5 2 3.5
v -3.5 0 3.5
v -3.5 1 3.5
v -3.5 2 3.5
v 3.5 0 3.5
v 3.5 1 3.5
v 3.5 2 3.5
v 4.5 0 3.5
v 4.5 1 3.5
v 4.5 2 3.5
v -6.5 0 -0.5
v -6.5 1 -0.5
v -6.5 2 -0.5
v -5.5 0 -0.5
v -5.5 1 -0.5
v -5.5 2 -0.5
v -4.5 0 -0.5
v -4.5 1 -0.5
v -4.5 2 -0.5
v 4.5 0 -0.5
v 4.5 1 -0.5
v 4.5 2 -0.5
v 5.5 0 -0.5
v 5.5 1 -0.5
v 5.5 2 -0.5
v 6.5 0 -0.5
v 6.5 1 -0.5
v 6.5 2 -0.5
v -3.5 0 -2.5
v -3.5 2 -2.5
v -2.5 0 -2.5
v -2.5 2 -2.5
v 2.5 0 -2.5
v 2.5 1 -2.5
v 2.5 2 -2.5
v 3.5 0 -2.5
v 3.5 1 -2.5
v 3.5 2 -2.5
v -2.5 0 -3.5
v -2.5 2 -3.5
v 1.5 0 -3.5
v 1.5 1 -3.5
v 1.5 2 -3.5
v 2.5 0 -3.5
v 2.5 1 -3.5
v 2.5 2 -3.5
v -4.5 0 -4.5
v -4.5 1 -4.5
v -4.5 2 -4.5
v -3.5 0 -4.5
v -3.5 1 -4.5
v -3.5 2 -4.5
v 3.5 0 -4.5
v 3.5 1 -4.5
v 3.5 2 -4.5
v 4.5 0 -4.5
v 4.5 1 -4.5
v 4.5 2 -4.5
v -5.5 0 -5.5
v -5.5 1 -5.5
v -4.5 0 -5.5
v -4.5 1 -5.5
v 4.5 0 -5.5
v 4.5 1 -5.5
v 4.5 2 -5.5
v 5.5 0 -5.5
v 5.5 1 -5.5
v 5.5 2 -5.5
v -0.5 0 -6.5
v -0.5 1 -6.5
v -0.5 2 -6.5
v 0.5 0 -6.5
v 0.5 1 -6.5
v 0.5 2 -6.5
v -0.5 0 6.5
v 0.5 0 6.5
v -5.5 0 5.5
v -4.5 0 5.5
v -0.5 0 5.5
v 0.5 0 5.5
v 4.5 0 5.5
v 5.5 0 5.5
v -5.5 0 4.5
v -4.5 0 4.5
v -3.5 0 4.5
v -0.5 0 4.5
v 0.5 0 4.5
v 3.5 0 4.5
v 4.5 0 4.5
v 5.5 0 4.5
v -4.5 0 3.5
v -3.5 0 3.5
v -2.5 0 3.5
v -1.5 0 3.5
v 2.5 0 3.5
v 3.5 0 3.5
v 4.5 0 3.5
v -3.5 0 2.5
v -2.5 0 2.5
v -1.5 0 2.5
v 0.5 0 2.5
v 2.5 0 2.5
v 3.5 0 2.5
v -3.5 0 1.5
v -2.5 0 1.5
v 0.5 0 1.5
v 1.5 0 1.5
v -6.5 0 0.5
v -5.5 0 0.5
v -4.5 0 0.5
v 1.5 0 0.5
v 2.5 0 0.5
v 4.5 0 0.5
v 5.5 0 0.5
v 6.5 0 0.5
v -6.5 0 -0.5
v -5.5 0 -0.5
v -4.5 0 -0.5
v -2.5 0 -0.5
v -1.5 0 -0.5
v 4.5 0 -0.5
v 5.5 0 -0.5
v 6.5 0 -0.5
v -1.5 0 -1.5
v -0.5 0 -1.5
v 2.5 0 -1.5
v 3.5 0 -1.5
v -3.5 0 -2.5
v -2.5 0 -2.5
v -0.5 0 -2.5
v 1.5 0 -2.5
v 2.5 0 -2.5
v 3.5 0 -2.5
v -4.5 0 -3.5
v -3.5 0 -3.5
v -2.5 0 -3.5
v 1.5 0 -3.5
v 2.5 0 -3.5
v 3.5 0 -3.5
v 4.5 0 -3.5
v -5.5 0 -4.5
v -4.5 0 -4.5
v -3.5 0 -4.5
v -0.5 0 -4.5
v 0.5 0 -4.5
v 3.5 0 -4.5
v 4.5 0 -4.5
v 5.5 0 -4.5
v -5.5 0 -5.5
v -4.5 0 -5.5
v -0.5 0 -5.5
v 0.5 0 -5.5
v 4.5 0 -5.5
v 5.5 0 -5.5
v -0.5 0 -6.5
v 0.5 0 -6.5
v -5.5 1 -4.5
v -4.5 1 -4.5
v -5.5 1 -5.5
v -4.5 1 -5.5
v -0.5 2 6.5
v 0.5 2 6.5
v -5.5 2 5.5
v -4.5 2 5.5
v -0.5 2 5.5
v 0.5 2 5.5
v 4.5 2 5.5
v 5.5 2 5.5
v -5.5 2 4.5
v -4.5 2 4.5
v -3.5 2 4.5
v -0.5 2 4.5
v 0.5 2 4.5
v 3.5 2 4.5
v 4.5 2 4.5
v 5.5 2 4.5
v -4.5 2 3.5
v -3.5 2 3.5
v -2.5 2 3.5
v -1.5 2 3.5
v 2.5 2 3.5
v 3.5 2 3.5
v 4.5 2 3.5
v -3.5 2 2.5
v -2.5 2 2.5
v -1.5 2 2.5
v 0.5 2 2.5
v 2.5 2 2.5
v 3.5 2 2.5
v -3.5 2 1.5
v -2.5 2 1.5
v 0.5 2 1.5
v 1.5 2 1.5
v -6.5 2 0.5
v -5.5 2 0.5
v -4.5 2 0.5
v 1.5 2 0.5
v 2.5 2 0.5
v 4.5 2 0.5
v 5.5 2 0.5
v 6.5 2 0.5
v -6.5 2 -0.5
v -5.5 2 -0.5
v -4.5 2 -0.5
v -2.5 2 -0.5
v -1.5 2 -0.5
v 4.5 2 -0.5
v 5.5 2 -0.5
v 6.5 2 -0.5
v -1.5 2 -1.5
v -0.5 2 -1.5
v 2.5 2 -1.5
v 3.5 2 -1.5
v -3.5 2 -2.5
v -2.5 2 -2.5
v -0.5 2 -2.5
v 1.5 2 -2.5
v 2.5 2 -2.5
v 3.5 2 -2.5
v -4.5 2 -3.5
v -3.5 2 -3.5
v -2.5 2 -3.5
v 1.5 2 -3.5
v 2.5 2 -3.5
v 3.5 2 -3.5
v 4.5 2 -3.5
v -4.5 2 -4.5
v -3.5 2 -4.5
v -0.5 2 -4.5
v 0.5 2 -4.5
v 3.5 2 -4.5
v 4.5 2 -4.5
v 5.5 2 -4.5
v -0.5 2 -5.5
v 0.5 2 -5.5
v 4.5 2 -5.5
v 5.5 2 -5.5
v -0.5 2 -6.5
v 0.5 2 -6.5

# faces
f 3/4/1 2/4/1 1/4/1
f 4/4/1 2/4/1 3/4/1
f 5/2/1 4/2/1 3/2/1
f 6/2/1 4/2/1 5/2/1
f 11/4/1 8/4/1 7/4/1
f 12/4/1 8/4/1 11/4/1
f 13/4/1 10/4/1 9/4/1
f 14/4/1 10/4/1 13/4/1
f 15/2/1 12/2/1 11/2/1
f 16/2/1 12/2/1 15/2/1
f 21/6/1 18/6/1 17/6/1
f 22/6/1 18/6/1 21/6/1
f 23/6/1 20/6/1 19/6/1
f 24/6/1 20/6/1 23/6/1
f 25/7/1 22/7/1 21/7/1
f 26/7/1 22/7/1 25/7/1
f 27/7/1 24/7/1 23/7/1
f 28/7/1 24/7/1 27/7/1
f 32/4/1 30/4/1 29/4/1
f 33/1/1 31/1/1 30/1/1
f 33/4/1 30/4/1 32/4/1
f 34/3/1 33/3/1 32/3/1
f 35/1/1 31/1/1 33/1/1
f 35/3/1 33/3/1 34/3/1
f 36/1/1 31/1/1 35/1/1
f 41/4/1 38/4/1 37/4/1
f 42/4/1 38/4/1 41/4/1
f 43/3/1 42/3/1 41/3/1
f 44/3/1 42/3/1 43/3/1
f 45/1/1 40/1/1 39/1/1
f 46/1/1 40/1/1 45/1/1
f 53/4/1 48/4/1 47/4/1
f 54/6/1 49/6/1 48/6/1
f 54/4/1 48/4/1 53/4/1
f 55/6/1 49/6/1 54/6/1
f 56/6/1 51/6/1 50/6/1
f 57/4/1 52/4/1 51/4/1
f 57/6/1 51/6/1 56/6/1
f 58/4/1 52/4/1 57/4/1
f 59/2/1 54/2/1 53/2/1
f 60/7/1 55/7/1 54/7/1
f 60/2/1 54/2/1 59/2/1
f 61/7/1 55/7/1 60/7/1
f 62/7/1 57/7/1 56/7/1
f 63/2/1 58/2/1 57/2/1
f 63/7/1 57/7/1 62/7/1
f 64/2/1 58/2/1 63/2/1
f 69/6/1 66/6/1 65/6/1
f 70/6/1 66/6/1 69/6/1
f 71/6/1 68/6/1 67/6/1
f 72/6/1 68/6/1 71/6/1
f 73/7/1 70/7/1 69/7/1
f 74/7/1 70/7/1 73/7/1
f 75/7/1 72/7/1 71/7/1
f 76/7/1 72/7/1 75/7/1
f 83/4/1 78/4/1 77/4/1
f 84/4/1 78/4/1 83/4/1
f 85/6/1 80/6/1 79/6/1
f 86/6/1 80/6/1 85/6/1
f 87/4/1 82/4/1 81/4/1
f 88/4/1 82/4/1 87/4/1
f 89/2/1 84/2/1 83/2/1
f 90/2/1 84/2/1 89/2/1
f 91/7/1 86/7/1 85/7/1
f 92/7/1 86/7/1 91/7/1
f 93/2/1 88/2/1 87/2/1
f 94/2/1 88/2/1 93/2/1
f 95/4/2 96/4/2 101/4/2
f 101/4/2 96/4/2 102/4/2
f 97/6/2 98/6/2 103/6/2
f 103/6/2 98/6/2 104/6/2
f 99/4/2 100/4/2 105/4/2
f 105/4/2 100/4/2 106/4/2
f 101/2/2 102/2/2 107/2/2
f 107/2/2 102/2/2 108/2/2
f 103/7/2 104/7/2 109/7/2
f 109/7/2 104/7/2 110/7/2
f 111/6/2 112/6/2 115/6/2
f 115/6/2 112/6/2 116/6/2
f 113/6/2 114/6/2 117/6/2
f 117/6/2 114/6/2 118/6/2
f 115/7/2 116/7/2 119/7/2
f 119/7/2 116/7/2 120/7/2
f 117/7/2 118/7/2 121/7/2
f 121/7/2 118/7/2 122/7/2
f 123/4/2 124/4/2 129/4/2
f 124/6/2 125/6/2 130/6/2
f 129/4/2 124/4/2 130/4/2
f 130/6/2 125/6/2 131/6/2
f 126/6/2 127/6/2 132/6/2
f 127/4/2 128/4/2 133/4/2
f 132/6/2 127/6/2 133/6/2
f 133/4/2 128/4/2 134/4/2
f 129/2/2 130/2/2 135/2/2
f 130/7/2 131/7/2 136/7/2
f 135/2/2 130/2/2 136/2/2
f 136/7/2 131/7/2 137/7/2
f 132/7/2 133/7/2 138/7/2
f 133/2/2 134/2/2 139/2/2
f 138/7/2 133/7/2 139/7/2
f 139/2/2 134/2/2 140/2/2
f 141/6/2 142/6/2 145/6/2
f 145/6/2 142/6/2 146/6/2
f 143/4/2 144/4/2 147/4/2
f 147/4/2 144/4/2 148/4/2
f 145/5/2 146/5/2 149/5/2
f 149/5/2 146/5/2 150/5/2
f 147/3/2 148/3/2 151/3/2
f 151/3/2 148/3/2 152/3/2
f 153/6/2 154/6/2 156/6/2
f 154/4/2 155/4/2 157/4/2
f 156/6/2 154/6/2 157/6/2
f 157/4/2 155/4/2 158/4/2
f 156/5/2 157/5/2 159/5/2
f 157/3/2 158/3/2 160/3/2
f 159/5/2 157/5/2 160/5/2
f 160/3/2 158/3/2 161/3/2
f 162/6/2 163/6/2 166/6/2
f 166/6/2 163/6/2 167/6/2
f 164/6/2 165/6/2 168/6/2
f 168/6/2 165/6/2 169/6/2
f 166/7/2 167/7/2 170/7/2
f 170/7/2 167/7/2 171/7/2
f 168/7/2 169/7/2 172/7/2
f 172/7/2 169/7/2 173/7/2
f 174/4/2 175/4/2 178/4/2
f 178/4/2 175/4/2 179/4/2
f 176/4/2 177/4/2 180/4/2
f 180/4/2 177/4/2 181/4/2
f 178/2/2 179/2/2 182/2/2
f 182/2/2 179/2/2 183/2/2
f 180/2/2 181/2/2 184/2/2
f 184/2/2 181/2/2 185/2/2
f 186/4/2 187/4/2 188/4/2
f 188/4/2 187/4/2 189/4/2
f 188/2/2 189/2/2 190/2/2
f 190/2/2 189/2/2 191/2/2
f 195/4/3 193/4/3 192/4/3
f 196/2/3 194/2/3 193/2/3
f 196/4/3 193/4/3 195/4/3
f 197/2/3 194/2/3 196/2/3
f 201/4/3 199/4/3 198/4/3
f 202/2/3 200/2/3 199/2/3
f 202/4/3 199/4/3 201/4/3
f 203/2/3 200/2/3 202/2/3
f 207/4/3 205/4/3 204/4/3
f 208/2/3 206/2/3 205/2/3
f 208/4/3 205/4/3 207/4/3
f 209/2/3 206/2/3 208/2/3
f 213/6/3 211/6/3 210/6/3
f 214/7/3 212/7/3 211/7/3
f 214/6/3 211/6/3 213/6/3
f 215/7/3 212/7/3 214/7/3
f 219/6/3 217/6/3 216/6/3
f 220/7/3 218/7/3 217/7/3
f 220/6/3 217/6/3 219/6/3
f 221/7/3 218/7/3 220/7/3
f 225/4/3 223/4/3 222/4/3
f 226/3/3 224/3/3 223/3/3
f 226/4/3 223/4/3 225/4/3
f 227/3/3 224/3/3 226/3/3
f 228/6/3 226/6/3 225/6/3
f 229/5/3 227/5/3 226/5/3
f 229/6/3 226/6/3 228/6/3
f 230/5/3 227/5/3 229/5/3
f 234/4/3 232/4/3 231/4/3
f 235/3/3 233/3/3 232/3/3
f 235/4/3 232/4/3 234/4/3
f 236/3/3 233/3/3 235/3/3
f 240/6/3 238/6/3 237/6/3
f 241/5/3 239/5/3 238/5/3
f 241/6/3 238/6/3 240/6/3
f 242/5/3 239/5/3 241/5/3
f 246/4/3 244/4/3 243/4/3
f 247/2/3 245/2/3 244/2/3
f 247/4/3 244/4/3 246/4/3
f 248/2/3 245/2/3 247/2/3
f 249/6/3 247/6/3 246/6/3
f 250/7/3 248/7/3 247/7/3
f 250/6/3 247/6/3 249/6/3
f 251/7/3 248/7/3 250/7/3
f 255/6/3 253/6/3 252/6/3
f 256/7/3 254/7/3 253/7/3
f 256/6/3 253/6/3 255/6/3
f 257/7/3 254/7/3 256/7/3
f 258/4/3 256/4/3 255/4/3
f 259/2/3 257/2/3 256/2/3
f 259/4/3 256/4/3 258/4/3
f 260/2/3 257/2/3 259/2/3
f 264/6/3 262/6/3 261/6/3
f 265/7/3 263/7/3 262/7/3
f 265/6/3 262/6/3 264/6/3
f 266/7/3 263/7/3 265/7/3
f 270/6/3 268/6/3 267/6/3
f 271/7/3 269/7/3 268/7/3
f 271/6/3 268/6/3 270/6/3
f 272/7/3 269/7/3 271/7/3
f 275/4/3 274/4/3 273/4/3
f 276/4/3 274/4/3 275/4/3
f 280/6/3 278/6/3 277/6/3
f 281/7/3 279/7/3 278/7/3
f 281/6/3 278/6/3 280/6/3
f 282/7/3 279/7/3 281/7/3
f 286/4/3 284/4/3 283/4/3
f 287/2/3 285/2/3 284/2/3
f 287/4/3 284/4/3 286/4/3
f 288/2/3 285/2/3 287/2/3
f 289/4/4 290/4/4 292/4/4
f 290/2/4 291/2/4 293/2/4
f 292/4/4 290/4/4 293/4/4
f 293/2/4 291/2/4 294/2/4
f 295/6/4 296/6/4 298/6/4
f 296/7/4 297/7/4 299/7/4
f 298/6/4 296/6/4 299/6/4
f 299/7/4 297/7/4 300/7/4
f 301/4/4 302/4/4 304/4/4
f 302/2/4 303/2/4 305/2/4
f 304/4/4 302/4/4 305/4/4
f 305/2/4 303/2/4 306/2/4
f 307/6/4 308/6/4 310/6/4
f 308/7/4 309/7/4 311/7/4
f 310/6/4 308/6/4 311/6/4
f 311/7/4 309/7/4 312/7/4
f 313/6/4 314/6/4 316/6/4
f 314/7/4 315/7/4 317/7/4
f 316/6/4 314/6/4 317/6/4
f 317/7/4 315/7/4 318/7/4
f 319/4/4 320/4/4 322/4/4
f 320/2/4 321/2/4 323/2/4
f 322/4/4 320/4/4 323/4/4
f 323/2/4 321/2/4 324/2/4
f 322/6/4 323/6/4 325/6/4
f 323/7/4 324/7/4 326/7/4
f 325/6/4 323/6/4 326/6/4
f 326/7/4 324/7/4 327/7/4
f 328/6/4 329/6/4 331/6/4
f 329/7/4 330/7/4 332/7/4
f 331/6/4 329/6/4 332/6/4
f 332/7/4 330/7/4 333/7/4
f 331/4/4 332/4/4 334/4/4
f 332/2/4 333/2/4 335/2/4
f 334/4/4 332/4/4 335/4/4
f 335/2/4 333/2/4 336/2/4
f 337/1/4 338/1/4 339/1/4
f 339/1/4 338/1/4 340/1/4
f 341/4/4 342/4/4 344/4/4
f 342/3/4 343/3/4 345/3/4
f 344/4/4 342/4/4 345/4/4
f 345/3/4 343/3/4 346/3/4
f 347/1/4 348/1/4 349/1/4
f 349/1/4 348/1/4 350/1/4
f 350/1/4 348/1/4 351/1/4
f 349/4/4 350/4/4 352/4/4
f 350/3/4 351/3/4 353/3/4
f 352/4/4 350/4/4 353/4/4
f 353/3/4 351/3/4 354/3/4
f 355/6/4 356/6/4 358/6/4
f 356/7/4 357/7/4 359/7/4
f 358/6/4 356/6/4 359/6/4
f 359/7/4 357/7/4 360/7/4
f 361/6/4 362/6/4 364/6/4
f 362/7/4 363/7/4 365/7/4
f 364/6/4 362/6/4 365/6/4
f 365/7/4 363/7/4 366/7/4
f 367/4/4 368/4/4 369/4/4
f 369/4/4 368/4/4 370/4/4
f 371/4/4 372/4/4 374/4/4
f 372/2/4 373/2/4 375/2/4
f 374/4/4 372/4/4 375/4/4
f 375/2/4 373/2/4 376/2/4
f 377/4/4 378/4/4 380/4/4
f 378/2/4 379/2/4 381/2/4
f 380/4/4 378/4/4 381/4/4
f 381/2/4 379/2/4 382/2/4
f 387/4/5 384/4/5 383/4/5
f 388/4/5 384/4/5 387/4/5
f 391/4/5 386/4/5 385/4/5
f 392/4/5 386/4/5 391/4/5
f 394/6/5 388/6/5 387/6/5
f 395/6/5 388/6/5 394/6/5
f 397/4/5 390/4/5 389/4/5
f 398/4/5 390/4/5 397/4/5
f 399/6/5 393/6/5 392/6/5
f 400/6/5 393/6/5 399/6/5
f 404/6/5 397/6/5 396/6/5
f 405/6/5 397/6/5 404/6/5
f 407/4/5 402/4/5 401/4/5
f 408/6/5 403/6/5 402/6/5
f 408/4/5 402/4/5 407/4/5
f 409/6/5 403/6/5 408/6/5
f 410/6/5 403/6/5 409/6/5
f 412/4/5 407/4/5 406/4/5
f 412/4/5 408/4/5 407/4/5
f 412/4/5 409/4/5 408/4/5
f 413/4/5 409/4/5 412/4/5
f 414/6/5 411/6/5 410/6/5
f 414/4/5 409/4/5 413/4/5
f 414/6/5 410/6/5 409/6/5
f 415/6/5 411/6/5 414/6/5
f 419/4/5 414/4/5 413/4/5
f 419/4/5 415/4/5 414/4/5
f 419/6/5 411/6/5 415/6/5
f 420/6/5 411/6/5 419/6/5
f 424/4/5 417/4/5 416/4/5
f 425/6/5 418/6/5 417/6/5
f 425/4/5 417/4/5 424/4/5
f 426/6/5 418/6/5 425/6/5
f 427/1/5 413/1/5 412/1/5
f 427/4/5 419/4/5 413/4/5
f 427/4/5 420/4/5 419/4/5
f 428/4/5 420/4/5 427/4/5
f 429/6/5 422/6/5 421/6/5
f 430/4/5 423/4/5 422/4/5
f 430/6/5 422/6/5 429/6/5
f 431/4/5 423/4/5 430/4/5
f 432/4/5 420/4/5 428/4/5
f 432/1/5 428/1/5 427/1/5
f 433/4/5 420/4/5 432/4/5
f 434/6/5 411/6/5 420/6/5
f 434/4/5 420/4/5 433/4/5
f 435/6/5 411/6/5 434/6/5
f 436/1/5 427/1/5 412/1/5
f 436/1/5 433/1/5 432/1/5
f 436/1/5 432/1/5 427/1/5
f 437/1/5 433/1/5 436/1/5
f 438/4/5 435/4/5 434/4/5
f 438/1/5 433/1/5 437/1/5
f 438/4/5 434/4/5 433/4/5
f 439/4/5 435/4/5 438/4/5
f 440/4/5 435/4/5 439/4/5
f 441/4/5 435/4/5 440/4/5
f 444/1/5 438/1/5 437/1/5
f 444/1/5 439/1/5 438/1/5
f 445/4/5 440/4/5 439/4/5
f 445/1/5 439/1/5 444/1/5
f 446/4/5 440/4/5 445/4/5
f 450/6/5 443/6/5 442/6/5
f 451/6/5 443/6/5 450/6/5
f 454/6/5 448/6/5 447/6/5
f 455/6/5 448/6/5 454/6/5
f 457/4/5 450/4/5 449/4/5
f 458/4/5 450/4/5 457/4/5
f 459/6/5 453/6/5 452/6/5
f 460/6/5 453/6/5 459/6/5
f 461/4/5 456/4/5 455/4/5
f 462/4/5 456/4/5 461/4/5
f 463/4/5 460/4/5 459/4/5
f 464/4/5 460/4/5 463/4/5
f 465/4/6 466/4/6 467/4/6
f 467/4/6 466/4/6 468/4/6
f 469/2/6 470/2/6 473/2/6
f 473/2/6 470/2/6 474/2/6
f 471/2/6 472/2/6 477/2/6
f 477/2/6 472/2/6 478/2/6
f 473/7/6 474/7/6 480/7/6
f 480/7/6 474/7/6 481/7/6
f 475/2/6 476/2/6 483/2/6
f 483/2/6 476/2/6 484/2/6
f 478/7/6 479/7/6 485/7/6
f 485/7/6 479/7/6 486/7/6
f 482/7/6 483/7/6 490/7/6
f 490/7/6 483/7/6 491/7/6
f 487/3/6 488/3/6 493/3/6
f 488/5/6 489/5/6 494/5/6
f 493/3/6 488/3/6 494/3/6
f 494/5/6 489/5/6 495/5/6
f 495/5/6 489/5/6 496/5/6
f 492/3/6 493/3/6 498/3/6
f 493/3/6 494/3/6 498/3/6
f 494/3/6 495/3/6 498/3/6
f 498/3/6 495/3/6 499/3/6
f 496/5/6 497/5/6 500/5/6
f 499/3/6 495/3/6 500/3/6
f 495/5/6 496/5/6 500/5/6
f 500/5/6 497/5/6 501/5/6
f 499/3/6 500/3/6 505/3/6
f 500/3/6 501/3/6 505/3/6
f 501/5/6 497/5/6 505/5/6
f 505/5/6 497/5/6 506/5/6
f 502/2/6 503/2/6 510/2/6
f 503/7/6 504/7/6 511/7/6
f 510/2/6 503/2/6 511/2/6
f 511/7/6 504/7/6 512/7/6
f 498/1/6 499/1/6 513/1/6
f 499/3/6 505/3/6 513/3/6
f 505/3/6 506/3/6 513/3/6
f 513/3/6 506/3/6 514/3/6
f 507/7/6 508/7/6 515/7/6
f 508/2/6 509/2/6 516/2/6
f 515/7/6 508/7/6 516/7/6
f 516/2/6 509/2/6 517/2/6
f 514/3/6 506/3/6 518/3/6
f 513/1/6 514/1/6 518/1/6
f 518/3/6 506/3/6 519/3/6
f 506/5/6 497/5/6 520/5/6
f 519/3/6 506/3/6 520/3/6
f 520/5/6 497/5/6 521/5/6
f 498/1/6 513/1/6 522/1/6
f 518/1/6 519/1/6 522/1/6
f 513/1/6 518/1/6 522/1/6
f 522/1/6 519/1/6 523/1/6
f 520/3/6 521/3/6 524/3/6
f 523/1/6 519/1/6 524/1/6
f 519/3/6 520/3/6 524/3/6
f 524/3/6 521/3/6 525/3/6
f 525/3/6 521/3/6 526/3/6
f 526/3/6 521/3/6 527/3/6
f 523/1/6 524/1/6 530/1/6
f 524/1/6 525/1/6 530/1/6
f 525/3/6 526/3/6 531/3/6
f 530/1/6 525/1/6 531/1/6
f 531/3/6 526/3/6 532/3/6
f 528/7/6 529/7/6 535/7/6
f 535/7/6 529/7/6 536/7/6
f 533/7/6 534/7/6 539/7/6
f 539/7/6 534/7/6 540/7/6
f 537/7/6 538/7/6 542/7/6
f 542/7/6 538/7/6 543/7/6
f 540/2/6 541/2/6 544/2/6
f 544/2/6 541/2/6 545/2/6
f 542/2/6 543/2/6 546/2/6
f 546/2/6 543/2/6 547/2/6
