# MagicaVoxel @ Ephtracy

# material
mtllib buttonShape_help.mtl
usemtl palette

# normals
vn -1 0 0
vn 1 0 0
vn 0 0 1
vn 0 0 -1
vn 0 -1 0
vn 0 1 0

# texcoords
vt 0.958984 0.5
vt 0.994141 0.5

# verts
v -5 0 -1
v -5 0 -5
v -5 1 -1
v -5 1 -5
v -4 1 -2
v -4 1 -4
v -4 2 -2
v -4 2 -4
v -3 0 5
v -3 0 -1
v -3 1 5
v -3 1 -1
v -2 1 4
v -2 1 3
v -2 1 2
v -2 1 -0
v -2 2 4
v -2 2 3
v -2 2 2
v -2 2 -0
v 1 1 -0
v 1 1 -2
v 1 2 -0
v 1 2 -2
v 1 1 4
v 1 1 3
v 1 1 2
v 1 1 1
v 1 2 4
v 1 2 3
v 1 2 2
v 1 2 1
v 2 0 5
v 2 0 2
v 2 1 5
v 2 1 2
v 3 1 1
v 3 1 -4
v 3 2 1
v 3 2 -4
v 4 0 2
v 4 0 -5
v 4 1 2
v 4 1 -5
v -3 0 5
v -3 1 5
v 2 0 5
v 2 1 5
v -2 1 4
v -2 2 4
v 1 1 4
v 1 2 4
v -2 1 2
v -2 2 2
v 1 1 2
v 1 2 2
v 2 0 2
v 2 1 2
v 4 0 2
v 4 1 2
v 1 1 1
v 1 2 1
v 3 1 1
v 3 2 1
v -5 0 -1
v -5 1 -1
v -3 0 -1
v -3 1 -1
v -4 1 -2
v -4 2 -2
v 1 1 -2
v 1 2 -2
v -2 1 3
v -2 2 3
v 1 1 3
v 1 2 3
v -2 1 -0
v -2 2 -0
v 1 1 -0
v 1 2 -0
v -4 1 -4
v -4 2 -4
v 3 1 -4
v 3 2 -4
v -5 0 -5
v -5 1 -5
v 4 0 -5
v 4 1 -5
v -3 0 5
v 2 0 5
v 2 0 2
v 4 0 2
v -5 0 -1
v -3 0 -1
v -5 0 -5
v 4 0 -5
v -3 1 5
v 2 1 5
v -2 1 4
v 1 1 4
v -2 1 3
v 1 1 3
v -2 1 2
v 1 1 2
v 2 1 2
v 4 1 2
v 1 1 1
v 3 1 1
v -2 1 -0
v 1 1 -0
v -5 1 -1
v -3 1 -1
v -4 1 -2
v 1 1 -2
v -4 1 -4
v 3 1 -4
v -5 1 -5
v 4 1 -5
v -2 2 4
v 1 2 4
v -2 2 3
v 1 2 3
v -2 2 2
v 1 2 2
v 1 2 1
v 3 2 1
v -2 2 -0
v 1 2 -0
v -4 2 -2
v 1 2 -2
v -4 2 -4
v 3 2 -4

# faces
f 3/2/1 2/2/1 1/2/1
f 4/2/1 2/2/1 3/2/1
f 7/1/1 6/1/1 5/1/1
f 8/1/1 6/1/1 7/1/1
f 11/2/1 10/2/1 9/2/1
f 12/2/1 10/2/1 11/2/1
f 17/1/1 14/1/1 13/1/1
f 18/1/1 14/1/1 17/1/1
f 19/1/1 16/1/1 15/1/1
f 20/1/1 16/1/1 19/1/1
f 23/1/1 22/1/1 21/1/1
f 24/1/1 22/1/1 23/1/1
f 25/1/2 26/1/2 29/1/2
f 29/1/2 26/1/2 30/1/2
f 27/1/2 28/1/2 31/1/2
f 31/1/2 28/1/2 32/1/2
f 33/2/2 34/2/2 35/2/2
f 35/2/2 34/2/2 36/2/2
f 37/1/2 38/1/2 39/1/2
f 39/1/2 38/1/2 40/1/2
f 41/2/2 42/2/2 43/2/2
f 43/2/2 42/2/2 44/2/2
f 47/2/3 46/2/3 45/2/3
f 48/2/3 46/2/3 47/2/3
f 51/1/3 50/1/3 49/1/3
f 52/1/3 50/1/3 51/1/3
f 55/1/3 54/1/3 53/1/3
f 56/1/3 54/1/3 55/1/3
f 59/2/3 58/2/3 57/2/3
f 60/2/3 58/2/3 59/2/3
f 63/1/3 62/1/3 61/1/3
f 64/1/3 62/1/3 63/1/3
f 67/2/3 66/2/3 65/2/3
f 68/2/3 66/2/3 67/2/3
f 71/1/3 70/1/3 69/1/3
f 72/1/3 70/1/3 71/1/3
f 73/1/4 74/1/4 75/1/4
f 75/1/4 74/1/4 76/1/4
f 77/1/4 78/1/4 79/1/4
f 79/1/4 78/1/4 80/1/4
f 81/1/4 82/1/4 83/1/4
f 83/1/4 82/1/4 84/1/4
f 85/2/4 86/2/4 87/2/4
f 87/2/4 86/2/4 88/2/4
f 91/2/5 90/2/5 89/2/5
f 94/2/5 91/2/5 89/2/5
f 94/2/5 92/2/5 91/2/5
f 95/2/5 94/2/5 93/2/5
f 96/2/5 92/2/5 94/2/5
f 96/2/5 94/2/5 95/2/5
f 97/2/6 98/2/6 99/2/6
f 99/2/6 98/2/6 100/2/6
f 97/2/6 99/2/6 101/2/6
f 100/2/6 98/2/6 102/2/6
f 97/2/6 101/2/6 103/2/6
f 101/2/6 102/2/6 103/2/6
f 102/2/6 98/2/6 104/2/6
f 103/2/6 102/2/6 104/2/6
f 104/2/6 98/2/6 105/2/6
f 105/2/6 106/2/6 107/2/6
f 104/2/6 105/2/6 107/2/6
f 107/2/6 106/2/6 108/2/6
f 97/2/6 103/2/6 109/2/6
f 97/2/6 109/2/6 112/2/6
f 109/2/6 110/2/6 112/2/6
f 111/2/6 112/2/6 113/2/6
f 112/2/6 110/2/6 114/2/6
f 113/2/6 112/2/6 114/2/6
f 111/2/6 113/2/6 115/2/6
f 108/2/6 106/2/6 116/2/6
f 111/2/6 115/2/6 117/2/6
f 115/2/6 116/2/6 117/2/6
f 116/2/6 106/2/6 118/2/6
f 117/2/6 116/2/6 118/2/6
f 119/1/6 120/1/6 121/1/6
f 121/1/6 120/1/6 122/1/6
f 123/1/6 124/1/6 125/1/6
f 123/1/6 125/1/6 127/1/6
f 125/1/6 126/1/6 127/1/6
f 127/1/6 126/1/6 128/1/6
f 128/1/6 126/1/6 130/1/6
f 129/1/6 130/1/6 131/1/6
f 130/1/6 126/1/6 132/1/6
f 131/1/6 130/1/6 132/1/6
