# MagicaVoxel @ Ephtracy

# material
mtllib buttonShape_discard.mtl
usemtl palette

# normals
vn -1 0 0
vn 1 0 0
vn 0 0 1
vn 0 0 -1
vn 0 -1 0
vn 0 1 0

# texcoords
vt 0.958984 0.5
vt 0.994141 0.5

# verts
v -4 0 6
v -4 0 -4
v -4 1 6
v -4 1 -4
v -4 2 6
v -4 2 -4
v -3 0 -4
v -3 0 -5
v -3 1 -4
v -3 1 -5
v -3 2 -4
v -3 2 -5
v -2 1 5
v -2 1 -2
v -2 2 5
v -2 2 -2
v -1 0 -5
v -1 0 -6
v -1 1 -5
v -1 1 -6
v -1 2 -5
v -1 2 -6
v 1 1 5
v 1 1 -2
v 1 2 5
v 1 2 -2
v 3 1 5
v 3 1 -2
v 3 1 -3
v 3 1 -4
v 3 2 5
v 3 2 -2
v 3 2 -3
v 3 2 -4
v -3 1 5
v -3 1 -2
v -3 1 -3
v -3 1 -4
v -3 2 5
v -3 2 -2
v -3 2 -3
v -3 2 -4
v -1 1 5
v -1 1 -2
v -1 2 5
v -1 2 -2
v 1 0 -5
v 1 0 -6
v 1 1 -5
v 1 1 -6
v 1 2 -5
v 1 2 -6
v 2 1 5
v 2 1 -2
v 2 2 5
v 2 2 -2
v 3 0 -4
v 3 0 -5
v 3 1 -4
v 3 1 -5
v 3 2 -4
v 3 2 -5
v 4 0 6
v 4 0 -4
v 4 1 6
v 4 1 -4
v 4 2 6
v 4 2 -4
v -4 0 6
v -4 1 6
v -4 2 6
v 4 0 6
v 4 1 6
v 4 2 6
v -3 1 -2
v -3 2 -2
v -2 1 -2
v -2 2 -2
v -1 1 -2
v -1 2 -2
v 1 1 -2
v 1 2 -2
v 2 1 -2
v 2 2 -2
v 3 1 -2
v 3 2 -2
v -3 1 -4
v -3 2 -4
v 3 1 -4
v 3 2 -4
v -3 1 5
v -3 2 5
v -2 1 5
v -2 2 5
v -1 1 5
v -1 2 5
v 1 1 5
v 1 2 5
v 2 1 5
v 2 2 5
v 3 1 5
v 3 2 5
v -3 1 -3
v -3 2 -3
v 3 1 -3
v 3 2 -3
v -4 0 -4
v -4 1 -4
v -4 2 -4
v -3 0 -4
v -3 1 -4
v -3 2 -4
v 3 0 -4
v 3 1 -4
v 3 2 -4
v 4 0 -4
v 4 1 -4
v 4 2 -4
v -3 0 -5
v -3 1 -5
v -3 2 -5
v -1 0 -5
v -1 1 -5
v -1 2 -5
v 1 0 -5
v 1 1 -5
v 1 2 -5
v 3 0 -5
v 3 1 -5
v 3 2 -5
v -1 0 -6
v -1 1 -6
v -1 2 -6
v 1 0 -6
v 1 1 -6
v 1 2 -6
v -4 0 6
v 4 0 6
v -4 0 -4
v -3 0 -4
v 3 0 -4
v 4 0 -4
v -3 0 -5
v -1 0 -5
v 1 0 -5
v 3 0 -5
v -1 0 -6
v 1 0 -6
v -3 1 5
v -2 1 5
v -1 1 5
v 1 1 5
v 2 1 5
v 3 1 5
v -3 1 -2
v -2 1 -2
v -1 1 -2
v 1 1 -2
v 2 1 -2
v 3 1 -2
v -3 1 -3
v 3 1 -3
v -3 1 -4
v 3 1 -4
v -4 2 6
v 4 2 6
v -3 2 5
v -2 2 5
v -1 2 5
v 1 2 5
v 2 2 5
v 3 2 5
v -3 2 -2
v -2 2 -2
v -1 2 -2
v 1 2 -2
v 2 2 -2
v 3 2 -2
v -3 2 -3
v 3 2 -3
v -4 2 -4
v -3 2 -4
v 3 2 -4
v 4 2 -4
v -3 2 -5
v -1 2 -5
v 1 2 -5
v 3 2 -5
v -1 2 -6
v 1 2 -6

# faces
f 3/1/1 2/1/1 1/1/1
f 4/1/1 2/1/1 3/1/1
f 5/2/1 4/2/1 3/2/1
f 6/2/1 4/2/1 5/2/1
f 9/1/1 8/1/1 7/1/1
f 10/1/1 8/1/1 9/1/1
f 11/2/1 10/2/1 9/2/1
f 12/2/1 10/2/1 11/2/1
f 15/2/1 14/2/1 13/2/1
f 16/2/1 14/2/1 15/2/1
f 19/1/1 18/1/1 17/1/1
f 20/1/1 18/1/1 19/1/1
f 21/2/1 20/2/1 19/2/1
f 22/2/1 20/2/1 21/2/1
f 25/2/1 24/2/1 23/2/1
f 26/2/1 24/2/1 25/2/1
f 31/2/1 28/2/1 27/2/1
f 32/2/1 28/2/1 31/2/1
f 33/2/1 30/2/1 29/2/1
f 34/2/1 30/2/1 33/2/1
f 35/2/2 36/2/2 39/2/2
f 39/2/2 36/2/2 40/2/2
f 37/2/2 38/2/2 41/2/2
f 41/2/2 38/2/2 42/2/2
f 43/2/2 44/2/2 45/2/2
f 45/2/2 44/2/2 46/2/2
f 47/1/2 48/1/2 49/1/2
f 49/1/2 48/1/2 50/1/2
f 49/2/2 50/2/2 51/2/2
f 51/2/2 50/2/2 52/2/2
f 53/2/2 54/2/2 55/2/2
f 55/2/2 54/2/2 56/2/2
f 57/1/2 58/1/2 59/1/2
f 59/1/2 58/1/2 60/1/2
f 59/2/2 60/2/2 61/2/2
f 61/2/2 60/2/2 62/2/2
f 63/1/2 64/1/2 65/1/2
f 65/1/2 64/1/2 66/1/2
f 65/2/2 66/2/2 67/2/2
f 67/2/2 66/2/2 68/2/2
f 72/1/3 70/1/3 69/1/3
f 73/2/3 71/2/3 70/2/3
f 73/1/3 70/1/3 72/1/3
f 74/2/3 71/2/3 73/2/3
f 77/2/3 76/2/3 75/2/3
f 78/2/3 76/2/3 77/2/3
f 81/2/3 80/2/3 79/2/3
f 82/2/3 80/2/3 81/2/3
f 85/2/3 84/2/3 83/2/3
f 86/2/3 84/2/3 85/2/3
f 89/2/3 88/2/3 87/2/3
f 90/2/3 88/2/3 89/2/3
f 91/2/4 92/2/4 93/2/4
f 93/2/4 92/2/4 94/2/4
f 95/2/4 96/2/4 97/2/4
f 97/2/4 96/2/4 98/2/4
f 99/2/4 100/2/4 101/2/4
f 101/2/4 100/2/4 102/2/4
f 103/2/4 104/2/4 105/2/4
f 105/2/4 104/2/4 106/2/4
f 107/1/4 108/1/4 110/1/4
f 108/2/4 109/2/4 111/2/4
f 110/1/4 108/1/4 111/1/4
f 111/2/4 109/2/4 112/2/4
f 113/1/4 114/1/4 116/1/4
f 114/2/4 115/2/4 117/2/4
f 116/1/4 114/1/4 117/1/4
f 117/2/4 115/2/4 118/2/4
f 119/1/4 120/1/4 122/1/4
f 120/2/4 121/2/4 123/2/4
f 122/1/4 120/1/4 123/1/4
f 123/2/4 121/2/4 124/2/4
f 125/1/4 126/1/4 128/1/4
f 126/2/4 127/2/4 129/2/4
f 128/1/4 126/1/4 129/1/4
f 129/2/4 127/2/4 130/2/4
f 131/1/4 132/1/4 134/1/4
f 132/2/4 133/2/4 135/2/4
f 134/1/4 132/1/4 135/1/4
f 135/2/4 133/2/4 136/2/4
f 139/1/5 138/1/5 137/1/5
f 140/1/5 138/1/5 139/1/5
f 141/1/5 138/1/5 140/1/5
f 142/1/5 138/1/5 141/1/5
f 143/1/5 141/1/5 140/1/5
f 144/1/5 141/1/5 143/1/5
f 145/1/5 141/1/5 144/1/5
f 146/1/5 141/1/5 145/1/5
f 147/1/5 145/1/5 144/1/5
f 148/1/5 145/1/5 147/1/5
f 149/1/6 150/1/6 155/1/6
f 155/1/6 150/1/6 156/1/6
f 151/1/6 152/1/6 157/1/6
f 157/1/6 152/1/6 158/1/6
f 153/1/6 154/1/6 159/1/6
f 159/1/6 154/1/6 160/1/6
f 161/1/6 162/1/6 163/1/6
f 163/1/6 162/1/6 164/1/6
f 165/2/6 166/2/6 167/2/6
f 167/2/6 166/2/6 168/2/6
f 168/2/6 166/2/6 169/2/6
f 169/2/6 166/2/6 170/2/6
f 170/2/6 166/2/6 171/2/6
f 171/2/6 166/2/6 172/2/6
f 165/2/6 167/2/6 173/2/6
f 168/2/6 169/2/6 174/2/6
f 174/2/6 169/2/6 175/2/6
f 170/2/6 171/2/6 176/2/6
f 176/2/6 171/2/6 177/2/6
f 172/2/6 166/2/6 178/2/6
f 176/2/6 177/2/6 179/2/6
f 177/2/6 178/2/6 179/2/6
f 174/2/6 175/2/6 179/2/6
f 165/2/6 173/2/6 179/2/6
f 175/2/6 176/2/6 179/2/6
f 173/2/6 174/2/6 179/2/6
f 178/2/6 166/2/6 180/2/6
f 179/2/6 178/2/6 180/2/6
f 165/2/6 179/2/6 181/2/6
f 181/2/6 179/2/6 182/2/6
f 180/2/6 166/2/6 183/2/6
f 183/2/6 166/2/6 184/2/6
f 182/2/6 183/2/6 185/2/6
f 185/2/6 183/2/6 186/2/6
f 186/2/6 183/2/6 187/2/6
f 187/2/6 183/2/6 188/2/6
f 186/2/6 187/2/6 189/2/6
f 189/2/6 187/2/6 190/2/6
