# MagicaVoxel @ Ephtracy

# material
mtllib buttonShape_showLighting.mtl
usemtl palette

# normals
vn -1 0 0
vn 1 0 0
vn 0 0 1
vn 0 0 -1
vn 0 -1 0
vn 0 1 0

# texcoords
vt 0.00976562 0.5
vt 0.0214844 0.5
vt 0.0449219 0.5
vt 0.255859 0.5
vt 0.396484 0.5

# verts
v -6.5 0 0.5
v -6.5 0 -0.5
v -6.5 1 0.5
v -6.5 1 -0.5
v -5.5 0 5.5
v -5.5 0 4.5
v -5.5 0 -4.5
v -5.5 0 -5.5
v -5.5 1 5.5
v -5.5 1 4.5
v -5.5 1 0.5
v -5.5 1 -0.5
v -5.5 1 -4.5
v -5.5 1 -5.5
v -5.5 2 0.5
v -5.5 2 -0.5
v -4.5 0 4.5
v -4.5 0 3.5
v -4.5 0 -3.5
v -4.5 0 -4.5
v -4.5 1 4.5
v -4.5 1 -4.5
v -4.5 2 4.5
v -4.5 2 3.5
v -4.5 2 -3.5
v -4.5 2 -4.5
v -3.5 0 2.5
v -3.5 0 1.5
v -3.5 0 -2.5
v -3.5 1 2.5
v -3.5 1 1.5
v -3.5 1 -2.5
v -3.5 2 2.5
v -3.5 2 -2.5
v -2.5 0 3.5
v -2.5 0 2.5
v -2.5 0 -2.5
v -2.5 0 -3.5
v -2.5 1 3.5
v -2.5 1 2.5
v -2.5 1 -2.5
v -2.5 1 -3.5
v -2.5 2 3.5
v -2.5 2 2.5
v -2.5 2 -2.5
v -2.5 2 -3.5
v -0.5 0 6.5
v -0.5 0 4.5
v -0.5 0 -4.5
v -0.5 0 -6.5
v -0.5 1 6.5
v -0.5 1 5.5
v -0.5 1 -5.5
v -0.5 1 -6.5
v -0.5 2 5.5
v -0.5 2 4.5
v -0.5 2 -4.5
v -0.5 2 -5.5
v 2.5 1 2.5
v 2.5 1 -2.5
v 2.5 2 2.5
v 2.5 2 -2.5
v 3.5 0 4.5
v 3.5 0 3.5
v 3.5 0 -3.5
v 3.5 0 -4.5
v 3.5 2 4.5
v 3.5 2 3.5
v 3.5 2 -3.5
v 3.5 2 -4.5
v 4.5 0 5.5
v 4.5 0 4.5
v 4.5 0 0.5
v 4.5 0 -0.5
v 4.5 0 -4.5
v 4.5 0 -5.5
v 4.5 1 5.5
v 4.5 1 4.5
v 4.5 1 -4.5
v 4.5 1 -5.5
v 4.5 2 0.5
v 4.5 2 -0.5
v -4.5 0 5.5
v -4.5 0 4.5
v -4.5 0 0.5
v -4.5 0 -0.5
v -4.5 0 -4.5
v -4.5 0 -5.5
v -4.5 1 5.5
v -4.5 1 4.5
v -4.5 1 -4.5
v -4.5 1 -5.5
v -4.5 2 0.5
v -4.5 2 -0.5
v -3.5 0 4.5
v -3.5 0 3.5
v -3.5 0 -3.5
v -3.5 0 -4.5
v -3.5 2 4.5
v -3.5 2 3.5
v -3.5 2 -3.5
v -3.5 2 -4.5
v -2.5 1 2.5
v -2.5 1 -2.5
v -2.5 2 2.5
v -2.5 2 -2.5
v 0.5 0 6.5
v 0.5 0 4.5
v 0.5 0 -4.5
v 0.5 0 -6.5
v 0.5 1 6.5
v 0.5 1 5.5
v 0.5 1 -5.5
v 0.5 1 -6.5
v 0.5 2 5.5
v 0.5 2 4.5
v 0.5 2 -4.5
v 0.5 2 -5.5
v 2.5 0 3.5
v 2.5 0 2.5
v 2.5 0 -2.5
v 2.5 0 -3.5
v 2.5 1 3.5
v 2.5 1 2.5
v 2.5 1 -2.5
v 2.5 1 -3.5
v 2.5 2 3.5
v 2.5 2 2.5
v 2.5 2 -2.5
v 2.5 2 -3.5
v 3.5 0 2.5
v 3.5 0 -1.5
v 3.5 0 -2.5
v 3.5 1 2.5
v 3.5 1 -1.5
v 3.5 1 -2.5
v 3.5 2 2.5
v 3.5 2 -2.5
v 4.5 0 4.5
v 4.5 0 3.5
v 4.5 0 -3.5
v 4.5 0 -4.5
v 4.5 1 4.5
v 4.5 1 -4.5
v 4.5 2 4.5
v 4.5 2 3.5
v 4.5 2 -3.5
v 4.5 2 -4.5
v 5.5 0 5.5
v 5.5 0 4.5
v 5.5 0 -4.5
v 5.5 0 -5.5
v 5.5 1 5.5
v 5.5 1 4.5
v 5.5 1 0.5
v 5.5 1 -0.5
v 5.5 1 -4.5
v 5.5 1 -5.5
v 5.5 2 0.5
v 5.5 2 -0.5
v 6.5 0 0.5
v 6.5 0 -0.5
v 6.5 1 0.5
v 6.5 1 -0.5
v -0.5 0 6.5
v -0.5 1 6.5
v 0.5 0 6.5
v 0.5 1 6.5
v -5.5 0 5.5
v -5.5 1 5.5
v -4.5 0 5.5
v -4.5 1 5.5
v -0.5 1 5.5
v -0.5 2 5.5
v 0.5 1 5.5
v 0.5 2 5.5
v 4.5 0 5.5
v 4.5 1 5.5
v 5.5 0 5.5
v 5.5 1 5.5
v -4.5 0 4.5
v -4.5 1 4.5
v -4.5 2 4.5
v -3.5 0 4.5
v -3.5 2 4.5
v 3.5 0 4.5
v 3.5 2 4.5
v 4.5 0 4.5
v 4.5 1 4.5
v 4.5 2 4.5
v -2.5 0 3.5
v -2.5 1 3.5
v -2.5 2 3.5
v -1.5 0 3.5
v -1.5 1 3.5
v 2.5 0 3.5
v 2.5 1 3.5
v 2.5 2 3.5
v -3.5 0 2.5
v -3.5 1 2.5
v -3.5 2 2.5
v -2.5 0 2.5
v -2.5 1 2.5
v -2.5 2 2.5
v 2.5 0 2.5
v 2.5 1 2.5
v 2.5 2 2.5
v 3.5 0 2.5
v 3.5 1 2.5
v 3.5 2 2.5
v -6.5 0 0.5
v -6.5 1 0.5
v -5.5 1 0.5
v -5.5 2 0.5
v -4.5 0 0.5
v -4.5 2 0.5
v 4.5 0 0.5
v 4.5 2 0.5
v 5.5 1 0.5
v 5.5 2 0.5
v 6.5 0 0.5
v 6.5 1 0.5
v -2.5 1 -2.5
v -2.5 2 -2.5
v 2.5 1 -2.5
v 2.5 2 -2.5
v -4.5 0 -3.5
v -4.5 2 -3.5
v -3.5 0 -3.5
v -3.5 2 -3.5
v 3.5 0 -3.5
v 3.5 2 -3.5
v 4.5 0 -3.5
v 4.5 2 -3.5
v -5.5 0 -4.5
v -5.5 1 -4.5
v -4.5 0 -4.5
v -4.5 1 -4.5
v -0.5 0 -4.5
v -0.5 2 -4.5
v 0.5 0 -4.5
v 0.5 2 -4.5
v 4.5 0 -4.5
v 4.5 1 -4.5
v 5.5 0 -4.5
v 5.5 1 -4.5
v -5.5 0 4.5
v -5.5 1 4.5
v -4.5 0 4.5
v -4.5 1 4.5
v -0.5 0 4.5
v -0.5 2 4.5
v 0.5 0 4.5
v 0.5 2 4.5
v 4.5 0 4.5
v 4.5 1 4.5
v 5.5 0 4.5
v 5.5 1 4.5
v -4.5 0 3.5
v -4.5 2 3.5
v -3.5 0 3.5
v -3.5 2 3.5
v 3.5 0 3.5
v 3.5 2 3.5
v 4.5 0 3.5
v 4.5 2 3.5
v -2.5 1 2.5
v -2.5 2 2.5
v 2.5 1 2.5
v 2.5 2 2.5
v -6.5 0 -0.5
v -6.5 1 -0.5
v -5.5 1 -0.5
v -5.5 2 -0.5
v -4.5 0 -0.5
v -4.5 2 -0.5
v 4.5 0 -0.5
v 4.5 2 -0.5
v 5.5 1 -0.5
v 5.5 2 -0.5
v 6.5 0 -0.5
v 6.5 1 -0.5
v -3.5 0 -2.5
v -3.5 1 -2.5
v -3.5 2 -2.5
v -2.5 0 -2.5
v -2.5 1 -2.5
v -2.5 2 -2.5
v 2.5 0 -2.5
v 2.5 1 -2.5
v 2.5 2 -2.5
v 3.5 0 -2.5
v 3.5 1 -2.5
v 3.5 2 -2.5
v -2.5 0 -3.5
v -2.5 1 -3.5
v -2.5 2 -3.5
v 1.5 0 -3.5
v 1.5 1 -3.5
v 2.5 0 -3.5
v 2.5 1 -3.5
v 2.5 2 -3.5
v -4.5 0 -4.5
v -4.5 1 -4.5
v -4.5 2 -4.5
v -3.5 0 -4.5
v -3.5 2 -4.5
v 3.5 0 -4.5
v 3.5 2 -4.5
v 4.5 0 -4.5
v 4.5 1 -4.5
v 4.5 2 -4.5
v -5.5 0 -5.5
v -5.5 1 -5.5
v -4.5 0 -5.5
v -4.5 1 -5.5
v -0.5 1 -5.5
v -0.5 2 -5.5
v 0.5 1 -5.5
v 0.5 2 -5.5
v 4.5 0 -5.5
v 4.5 1 -5.5
v 5.5 0 -5.5
v 5.5 1 -5.5
v -0.5 0 -6.5
v -0.5 1 -6.5
v 0.5 0 -6.5
v 0.5 1 -6.5
v -0.5 0 6.5
v 0.5 0 6.5
v -5.5 0 5.5
v -4.5 0 5.5
v 4.5 0 5.5
v 5.5 0 5.5
v -5.5 0 4.5
v -4.5 0 4.5
v -3.5 0 4.5
v -0.5 0 4.5
v 0.5 0 4.5
v 3.5 0 4.5
v 4.5 0 4.5
v 5.5 0 4.5
v -4.5 0 3.5
v -3.5 0 3.5
v -2.5 0 3.5
v -1.5 0 3.5
v 2.5 0 3.5
v 3.5 0 3.5
v 4.5 0 3.5
v -3.5 0 2.5
v -2.5 0 2.5
v -1.5 0 2.5
v 2.5 0 2.5
v 3.5 0 2.5
v -3.5 0 1.5
v -2.5 0 1.5
v -6.5 0 0.5
v -4.5 0 0.5
v 4.5 0 0.5
v 6.5 0 0.5
v -6.5 0 -0.5
v -4.5 0 -0.5
v 4.5 0 -0.5
v 6.5 0 -0.5
v 2.5 0 -1.5
v 3.5 0 -1.5
v -3.5 0 -2.5
v -2.5 0 -2.5
v 1.5 0 -2.5
v 2.5 0 -2.5
v 3.5 0 -2.5
v -4.5 0 -3.5
v -3.5 0 -3.5
v -2.5 0 -3.5
v 1.5 0 -3.5
v 2.5 0 -3.5
v 3.5 0 -3.5
v 4.5 0 -3.5
v -5.5 0 -4.5
v -4.5 0 -4.5
v -3.5 0 -4.5
v -0.5 0 -4.5
v 0.5 0 -4.5
v 3.5 0 -4.5
v 4.5 0 -4.5
v 5.5 0 -4.5
v -5.5 0 -5.5
v -4.5 0 -5.5
v 4.5 0 -5.5
v 5.5 0 -5.5
v -0.5 0 -6.5
v 0.5 0 -6.5
v -0.5 1 6.5
v 0.5 1 6.5
v -5.5 1 5.5
v -4.5 1 5.5
v -0.5 1 5.5
v 0.5 1 5.5
v 4.5 1 5.5
v 5.5 1 5.5
v -5.5 1 4.5
v -4.5 1 4.5
v 4.5 1 4.5
v 5.5 1 4.5
v -2.5 1 2.5
v 2.5 1 2.5
v -6.5 1 0.5
v -5.5 1 0.5
v 5.5 1 0.5
v 6.5 1 0.5
v -6.5 1 -0.5
v -5.5 1 -0.5
v 5.5 1 -0.5
v 6.5 1 -0.5
v -2.5 1 -2.5
v 2.5 1 -2.5
v -5.5 1 -4.5
v -4.5 1 -4.5
v 4.5 1 -4.5
v 5.5 1 -4.5
v -5.5 1 -5.5
v -4.5 1 -5.5
v -0.5 1 -5.5
v 0.5 1 -5.5
v 4.5 1 -5.5
v 5.5 1 -5.5
v -0.5 1 -6.5
v 0.5 1 -6.5
v -0.5 2 5.5
v 0.5 2 5.5
v -4.5 2 4.5
v -3.5 2 4.5
v -0.5 2 4.5
v 0.5 2 4.5
v 3.5 2 4.5
v 4.5 2 4.5
v -4.5 2 3.5
v -3.5 2 3.5
v -2.5 2 3.5
v 2.5 2 3.5
v 3.5 2 3.5
v 4.5 2 3.5
v -3.5 2 2.5
v -2.5 2 2.5
v 2.5 2 2.5
v 3.5 2 2.5
v -5.5 2 0.5
v -4.5 2 0.5
v 4.5 2 0.5
v 5.5 2 0.5
v -5.5 2 -0.5
v -4.5 2 -0.5
v 4.5 2 -0.5
v 5.5 2 -0.5
v -3.5 2 -2.5
v -2.5 2 -2.5
v 2.5 2 -2.5
v 3.5 2 -2.5
v -4.5 2 -3.5
v -3.5 2 -3.5
v -2.5 2 -3.5
v 2.5 2 -3.5
v 3.5 2 -3.5
v 4.5 2 -3.5
v -4.5 2 -4.5
v -3.5 2 -4.5
v -0.5 2 -4.5
v 0.5 2 -4.5
v 3.5 2 -4.5
v 4.5 2 -4.5
v -0.5 2 -5.5
v 0.5 2 -5.5

# faces
f 3/5/1 2/5/1 1/5/1
f 4/5/1 2/5/1 3/5/1
f 9/5/1 6/5/1 5/5/1
f 10/5/1 6/5/1 9/5/1
f 13/5/1 8/5/1 7/5/1
f 14/5/1 8/5/1 13/5/1
f 15/5/1 12/5/1 11/5/1
f 16/5/1 12/5/1 15/5/1
f 21/5/1 18/5/1 17/5/1
f 22/5/1 20/5/1 19/5/1
f 23/5/1 18/5/1 21/5/1
f 24/5/1 18/5/1 23/5/1
f 25/5/1 22/5/1 19/5/1
f 26/5/1 22/5/1 25/5/1
f 30/2/1 28/2/1 27/2/1
f 31/1/1 29/1/1 28/1/1
f 31/2/1 28/2/1 30/2/1
f 32/1/1 29/1/1 31/1/1
f 33/5/1 31/5/1 30/5/1
f 33/5/1 32/5/1 31/5/1
f 34/5/1 32/5/1 33/5/1
f 39/2/1 36/2/1 35/2/1
f 40/2/1 36/2/1 39/2/1
f 41/1/1 38/1/1 37/1/1
f 42/1/1 38/1/1 41/1/1
f 43/5/1 40/5/1 39/5/1
f 44/5/1 40/5/1 43/5/1
f 45/5/1 42/5/1 41/5/1
f 46/5/1 42/5/1 45/5/1
f 51/5/1 48/5/1 47/5/1
f 52/5/1 48/5/1 51/5/1
f 53/5/1 50/5/1 49/5/1
f 54/5/1 50/5/1 53/5/1
f 55/5/1 48/5/1 52/5/1
f 56/5/1 48/5/1 55/5/1
f 57/5/1 53/5/1 49/5/1
f 58/5/1 53/5/1 57/5/1
f 61/5/1 60/5/1 59/5/1
f 62/5/1 60/5/1 61/5/1
f 67/5/1 64/5/1 63/5/1
f 68/5/1 64/5/1 67/5/1
f 69/5/1 66/5/1 65/5/1
f 70/5/1 66/5/1 69/5/1
f 77/5/1 72/5/1 71/5/1
f 78/5/1 72/5/1 77/5/1
f 79/5/1 76/5/1 75/5/1
f 80/5/1 76/5/1 79/5/1
f 81/5/1 74/5/1 73/5/1
f 82/5/1 74/5/1 81/5/1
f 83/5/2 84/5/2 89/5/2
f 89/5/2 84/5/2 90/5/2
f 87/5/2 88/5/2 91/5/2
f 91/5/2 88/5/2 92/5/2
f 85/5/2 86/5/2 93/5/2
f 93/5/2 86/5/2 94/5/2
f 95/5/2 96/5/2 99/5/2
f 99/5/2 96/5/2 100/5/2
f 97/5/2 98/5/2 101/5/2
f 101/5/2 98/5/2 102/5/2
f 103/5/2 104/5/2 105/5/2
f 105/5/2 104/5/2 106/5/2
f 107/5/2 108/5/2 111/5/2
f 111/5/2 108/5/2 112/5/2
f 109/5/2 110/5/2 113/5/2
f 113/5/2 110/5/2 114/5/2
f 112/5/2 108/5/2 115/5/2
f 115/5/2 108/5/2 116/5/2
f 109/5/2 113/5/2 117/5/2
f 117/5/2 113/5/2 118/5/2
f 119/3/2 120/3/2 123/3/2
f 123/3/2 120/3/2 124/3/2
f 121/2/2 122/2/2 125/2/2
f 125/2/2 122/2/2 126/2/2
f 123/5/2 124/5/2 127/5/2
f 127/5/2 124/5/2 128/5/2
f 125/5/2 126/5/2 129/5/2
f 129/5/2 126/5/2 130/5/2
f 131/3/2 132/3/2 134/3/2
f 132/2/2 133/2/2 135/2/2
f 134/3/2 132/3/2 135/3/2
f 135/2/2 133/2/2 136/2/2
f 134/5/2 135/5/2 137/5/2
f 135/5/2 136/5/2 137/5/2
f 137/5/2 136/5/2 138/5/2
f 139/5/2 140/5/2 143/5/2
f 141/5/2 142/5/2 144/5/2
f 143/5/2 140/5/2 145/5/2
f 145/5/2 140/5/2 146/5/2
f 141/5/2 144/5/2 147/5/2
f 147/5/2 144/5/2 148/5/2
f 149/5/2 150/5/2 153/5/2
f 153/5/2 150/5/2 154/5/2
f 151/5/2 152/5/2 157/5/2
f 157/5/2 152/5/2 158/5/2
f 155/5/2 156/5/2 159/5/2
f 159/5/2 156/5/2 160/5/2
f 161/5/2 162/5/2 163/5/2
f 163/5/2 162/5/2 164/5/2
f 167/5/3 166/5/3 165/5/3
f 168/5/3 166/5/3 167/5/3
f 171/5/3 170/5/3 169/5/3
f 172/5/3 170/5/3 171/5/3
f 175/5/3 174/5/3 173/5/3
f 176/5/3 174/5/3 175/5/3
f 179/5/3 178/5/3 177/5/3
f 180/5/3 178/5/3 179/5/3
f 184/5/3 182/5/3 181/5/3
f 184/5/3 183/5/3 182/5/3
f 185/5/3 183/5/3 184/5/3
f 188/5/3 187/5/3 186/5/3
f 189/5/3 187/5/3 188/5/3
f 190/5/3 187/5/3 189/5/3
f 194/2/3 192/2/3 191/2/3
f 195/5/3 193/5/3 192/5/3
f 195/2/3 192/2/3 194/2/3
f 196/3/3 195/3/3 194/3/3
f 197/5/3 193/5/3 195/5/3
f 197/3/3 195/3/3 196/3/3
f 198/5/3 193/5/3 197/5/3
f 202/2/3 200/2/3 199/2/3
f 203/5/3 201/5/3 200/5/3
f 203/2/3 200/2/3 202/2/3
f 204/5/3 201/5/3 203/5/3
f 208/3/3 206/3/3 205/3/3
f 209/5/3 207/5/3 206/5/3
f 209/3/3 206/3/3 208/3/3
f 210/5/3 207/5/3 209/5/3
f 213/5/3 212/5/3 211/5/3
f 215/5/3 213/5/3 211/5/3
f 215/5/3 214/5/3 213/5/3
f 216/5/3 214/5/3 215/5/3
f 219/5/3 218/5/3 217/5/3
f 220/5/3 218/5/3 219/5/3
f 221/5/3 219/5/3 217/5/3
f 222/5/3 219/5/3 221/5/3
f 225/5/3 224/5/3 223/5/3
f 226/5/3 224/5/3 225/5/3
f 229/5/3 228/5/3 227/5/3
f 230/5/3 228/5/3 229/5/3
f 233/5/3 232/5/3 231/5/3
f 234/5/3 232/5/3 233/5/3
f 237/5/3 236/5/3 235/5/3
f 238/5/3 236/5/3 237/5/3
f 241/5/3 240/5/3 239/5/3
f 242/5/3 240/5/3 241/5/3
f 245/5/3 244/5/3 243/5/3
f 246/5/3 244/5/3 245/5/3
f 247/5/4 248/5/4 249/5/4
f 249/5/4 248/5/4 250/5/4
f 251/5/4 252/5/4 253/5/4
f 253/5/4 252/5/4 254/5/4
f 255/5/4 256/5/4 257/5/4
f 257/5/4 256/5/4 258/5/4
f 259/5/4 260/5/4 261/5/4
f 261/5/4 260/5/4 262/5/4
f 263/5/4 264/5/4 265/5/4
f 265/5/4 264/5/4 266/5/4
f 267/5/4 268/5/4 269/5/4
f 269/5/4 268/5/4 270/5/4
f 271/5/4 272/5/4 273/5/4
f 271/5/4 273/5/4 275/5/4
f 273/5/4 274/5/4 275/5/4
f 275/5/4 274/5/4 276/5/4
f 277/5/4 278/5/4 279/5/4
f 279/5/4 278/5/4 280/5/4
f 277/5/4 279/5/4 281/5/4
f 281/5/4 279/5/4 282/5/4
f 283/1/4 284/1/4 286/1/4
f 284/5/4 285/5/4 287/5/4
f 286/1/4 284/1/4 287/1/4
f 287/5/4 285/5/4 288/5/4
f 289/2/4 290/2/4 292/2/4
f 290/5/4 291/5/4 293/5/4
f 292/2/4 290/2/4 293/2/4
f 293/5/4 291/5/4 294/5/4
f 295/1/4 296/1/4 298/1/4
f 296/5/4 297/5/4 299/5/4
f 298/1/4 296/1/4 299/1/4
f 298/2/4 299/2/4 300/2/4
f 299/5/4 297/5/4 301/5/4
f 300/2/4 299/2/4 301/2/4
f 301/5/4 297/5/4 302/5/4
f 303/5/4 304/5/4 306/5/4
f 304/5/4 305/5/4 306/5/4
f 306/5/4 305/5/4 307/5/4
f 308/5/4 309/5/4 310/5/4
f 310/5/4 309/5/4 311/5/4
f 311/5/4 309/5/4 312/5/4
f 313/5/4 314/5/4 315/5/4
f 315/5/4 314/5/4 316/5/4
f 317/5/4 318/5/4 319/5/4
f 319/5/4 318/5/4 320/5/4
f 321/5/4 322/5/4 323/5/4
f 323/5/4 322/5/4 324/5/4
f 325/5/4 326/5/4 327/5/4
f 327/5/4 326/5/4 328/5/4
f 335/5/5 332/5/5 331/5/5
f 336/5/5 332/5/5 335/5/5
f 338/5/5 330/5/5 329/5/5
f 339/5/5 330/5/5 338/5/5
f 341/5/5 334/5/5 333/5/5
f 342/5/5 334/5/5 341/5/5
f 343/5/5 337/5/5 336/5/5
f 344/5/5 337/5/5 343/5/5
f 348/5/5 341/5/5 340/5/5
f 349/5/5 341/5/5 348/5/5
f 351/2/5 346/2/5 345/2/5
f 352/3/5 347/3/5 346/3/5
f 352/2/5 346/2/5 351/2/5
f 353/3/5 347/3/5 352/3/5
f 355/2/5 351/2/5 350/2/5
f 356/4/5 352/4/5 351/4/5
f 356/2/5 351/2/5 355/2/5
f 356/4/5 353/4/5 352/4/5
f 361/5/5 358/5/5 357/5/5
f 362/5/5 358/5/5 361/5/5
f 363/5/5 360/5/5 359/5/5
f 364/5/5 360/5/5 363/5/5
f 365/3/5 354/3/5 353/3/5
f 365/4/5 353/4/5 356/4/5
f 366/3/5 354/3/5 365/3/5
f 367/1/5 356/1/5 355/1/5
f 368/4/5 365/4/5 356/4/5
f 368/1/5 356/1/5 367/1/5
f 369/4/5 365/4/5 368/4/5
f 370/2/5 366/2/5 365/2/5
f 370/4/5 365/4/5 369/4/5
f 371/2/5 366/2/5 370/2/5
f 374/1/5 369/1/5 368/1/5
f 375/2/5 370/2/5 369/2/5
f 375/1/5 369/1/5 374/1/5
f 376/2/5 370/2/5 375/2/5
f 380/5/5 373/5/5 372/5/5
f 381/5/5 373/5/5 380/5/5
f 384/5/5 378/5/5 377/5/5
f 385/5/5 378/5/5 384/5/5
f 387/5/5 380/5/5 379/5/5
f 388/5/5 380/5/5 387/5/5
f 389/5/5 386/5/5 385/5/5
f 390/5/5 386/5/5 389/5/5
f 391/5/5 383/5/5 382/5/5
f 392/5/5 383/5/5 391/5/5
f 393/5/6 394/5/6 397/5/6
f 397/5/6 394/5/6 398/5/6
f 395/5/6 396/5/6 401/5/6
f 401/5/6 396/5/6 402/5/6
f 399/5/6 400/5/6 403/5/6
f 403/5/6 400/5/6 404/5/6
f 407/5/6 408/5/6 411/5/6
f 411/5/6 408/5/6 412/5/6
f 409/5/6 410/5/6 413/5/6
f 413/5/6 410/5/6 414/5/6
f 405/4/6 406/4/6 415/4/6
f 415/4/6 406/4/6 416/4/6
f 417/5/6 418/5/6 421/5/6
f 421/5/6 418/5/6 422/5/6
f 419/5/6 420/5/6 425/5/6
f 425/5/6 420/5/6 426/5/6
f 423/5/6 424/5/6 427/5/6
f 427/5/6 424/5/6 428/5/6
f 429/5/6 430/5/6 433/5/6
f 433/5/6 430/5/6 434/5/6
f 431/5/6 432/5/6 437/5/6
f 437/5/6 432/5/6 438/5/6
f 435/5/6 436/5/6 441/5/6
f 441/5/6 436/5/6 442/5/6
f 439/5/6 440/5/6 444/5/6
f 444/5/6 440/5/6 445/5/6
f 447/5/6 448/5/6 451/5/6
f 451/5/6 448/5/6 452/5/6
f 449/5/6 450/5/6 453/5/6
f 453/5/6 450/5/6 454/5/6
f 443/5/6 444/5/6 455/5/6
f 455/5/6 444/5/6 456/5/6
f 445/5/6 446/5/6 457/5/6
f 457/5/6 446/5/6 458/5/6
f 456/5/6 457/5/6 461/5/6
f 461/5/6 457/5/6 462/5/6
f 459/5/6 460/5/6 465/5/6
f 465/5/6 460/5/6 466/5/6
f 463/5/6 464/5/6 469/5/6
f 469/5/6 464/5/6 470/5/6
f 467/5/6 468/5/6 471/5/6
f 471/5/6 468/5/6 472/5/6
