# MagicaVoxel @ Ephtracy

# material
mtllib buttonShape_showHelpers.mtl
usemtl palette

# normals
vn -1 0 0
vn 1 0 0
vn 0 0 1
vn 0 0 -1
vn 0 -1 0
vn 0 1 0

# texcoords
vt 0.0214844 0.5
vt 0.994141 0.5

# verts
v -4 0 4
v -4 0 -3
v -4 1 4
v -4 1 -3
v -3 1 1
v -3 1 -0
v -3 2 1
v -3 2 -0
v -1 1 3
v -1 1 2
v -1 1 1
v -1 1 -0
v -1 1 -1
v -1 1 -2
v -1 2 3
v -1 2 1
v -1 2 -0
v -1 2 -2
v 0 1 3
v 0 1 2
v 0 1 1
v 0 1 -0
v 0 1 -1
v 0 1 -2
v 0 2 3
v 0 2 1
v 0 2 -0
v 0 2 -2
v 2 1 1
v 2 1 -0
v 2 2 1
v 2 2 -0
v 3 0 4
v 3 0 -3
v 3 1 4
v 3 1 -3
v -4 0 4
v -4 1 4
v 3 0 4
v 3 1 4
v -1 1 3
v -1 2 3
v 0 1 3
v 0 2 3
v -3 1 1
v -3 2 1
v -2 1 1
v -1 1 1
v -1 2 1
v 0 1 1
v 0 2 1
v 1 1 1
v 2 1 1
v 2 2 1
v -3 1 -0
v -3 2 -0
v -2 1 -0
v -1 1 -0
v -1 2 -0
v 0 1 -0
v 0 2 -0
v 1 1 -0
v 2 1 -0
v 2 2 -0
v -1 1 -2
v -1 2 -2
v 0 1 -2
v 0 2 -2
v -4 0 -3
v -4 1 -3
v 3 0 -3
v 3 1 -3
v -4 0 4
v 3 0 4
v -3 0 3
v 2 0 3
v -2 0 2
v 1 0 2
v 1 0 1
v 2 0 1
v 1 0 -0
v 2 0 -0
v -2 0 -1
v 1 0 -1
v -3 0 -2
v 2 0 -2
v -4 0 -3
v 3 0 -3
v -4 1 4
v 3 1 4
v -3 1 3
v -1 1 3
v 0 1 3
v 2 1 3
v -2 1 2
v -1 1 2
v 0 1 2
v 1 1 2
v -3 1 1
v -2 1 1
v -1 1 1
v 0 1 1
v 1 1 1
v 2 1 1
v -3 1 -0
v -2 1 -0
v -1 1 -0
v 0 1 -0
v 1 1 -0
v 2 1 -0
v -2 1 -1
v -1 1 -1
v 0 1 -1
v 1 1 -1
v -3 1 -2
v -1 1 -2
v 0 1 -2
v 2 1 -2
v -4 1 -3
v 3 1 -3
v -1 2 3
v 0 2 3
v -3 2 1
v -1 2 1
v 0 2 1
v 2 2 1
v -3 2 -0
v -1 2 -0
v 0 2 -0
v 2 2 -0
v -1 2 -2
v 0 2 -2

# faces
f 3/2/1 2/2/1 1/2/1
f 4/2/1 2/2/1 3/2/1
f 7/1/1 6/1/1 5/1/1
f 8/1/1 6/1/1 7/1/1
f 15/1/1 10/1/1 9/1/1
f 15/1/1 11/1/1 10/1/1
f 16/1/1 11/1/1 15/1/1
f 17/1/1 14/1/1 13/1/1
f 17/1/1 13/1/1 12/1/1
f 18/1/1 14/1/1 17/1/1
f 19/1/2 20/1/2 25/1/2
f 20/1/2 21/1/2 25/1/2
f 25/1/2 21/1/2 26/1/2
f 23/1/2 24/1/2 27/1/2
f 22/1/2 23/1/2 27/1/2
f 27/1/2 24/1/2 28/1/2
f 29/1/2 30/1/2 31/1/2
f 31/1/2 30/1/2 32/1/2
f 33/2/2 34/2/2 35/2/2
f 35/2/2 34/2/2 36/2/2
f 39/2/3 38/2/3 37/2/3
f 40/2/3 38/2/3 39/2/3
f 43/1/3 42/1/3 41/1/3
f 44/1/3 42/1/3 43/1/3
f 47/1/3 46/1/3 45/1/3
f 48/1/3 46/1/3 47/1/3
f 49/1/3 46/1/3 48/1/3
f 52/1/3 51/1/3 50/1/3
f 53/1/3 51/1/3 52/1/3
f 54/1/3 51/1/3 53/1/3
f 55/1/4 56/1/4 57/1/4
f 57/1/4 56/1/4 58/1/4
f 58/1/4 56/1/4 59/1/4
f 60/1/4 61/1/4 62/1/4
f 62/1/4 61/1/4 63/1/4
f 63/1/4 61/1/4 64/1/4
f 65/1/4 66/1/4 67/1/4
f 67/1/4 66/1/4 68/1/4
f 69/2/4 70/2/4 71/2/4
f 71/2/4 70/2/4 72/2/4
f 75/2/5 74/2/5 73/2/5
f 76/2/5 74/2/5 75/2/5
f 77/1/5 76/1/5 75/1/5
f 78/1/5 76/1/5 77/1/5
f 79/2/5 78/2/5 77/2/5
f 79/1/5 76/1/5 78/1/5
f 80/2/5 74/2/5 76/2/5
f 80/1/5 76/1/5 79/1/5
f 81/2/5 79/2/5 77/2/5
f 81/2/5 80/2/5 79/2/5
f 82/2/5 74/2/5 80/2/5
f 82/2/5 80/2/5 81/2/5
f 83/2/5 81/2/5 77/2/5
f 83/1/5 77/1/5 75/1/5
f 84/1/5 82/1/5 81/1/5
f 84/2/5 81/2/5 83/2/5
f 85/2/5 75/2/5 73/2/5
f 85/1/5 83/1/5 75/1/5
f 85/1/5 84/1/5 83/1/5
f 86/1/5 82/1/5 84/1/5
f 86/1/5 84/1/5 85/1/5
f 86/2/5 74/2/5 82/2/5
f 87/2/5 85/2/5 73/2/5
f 87/2/5 86/2/5 85/2/5
f 88/2/5 74/2/5 86/2/5
f 88/2/5 86/2/5 87/2/5
f 89/2/6 90/2/6 91/2/6
f 91/2/6 90/2/6 92/2/6
f 92/2/6 90/2/6 93/2/6
f 93/2/6 90/2/6 94/2/6
f 91/1/6 92/1/6 95/1/6
f 95/1/6 92/1/6 96/1/6
f 93/1/6 94/1/6 97/1/6
f 97/1/6 94/1/6 98/1/6
f 89/2/6 91/2/6 99/2/6
f 91/1/6 95/1/6 99/1/6
f 95/2/6 96/2/6 100/2/6
f 99/1/6 95/1/6 100/1/6
f 100/2/6 96/2/6 101/2/6
f 97/2/6 98/2/6 102/2/6
f 98/1/6 94/1/6 103/1/6
f 102/2/6 98/2/6 103/2/6
f 94/2/6 90/2/6 104/2/6
f 103/1/6 94/1/6 104/1/6
f 89/2/6 99/2/6 105/2/6
f 104/2/6 90/2/6 110/2/6
f 105/1/6 106/1/6 111/1/6
f 106/2/6 107/2/6 111/2/6
f 111/2/6 107/2/6 112/2/6
f 108/2/6 109/2/6 113/2/6
f 109/1/6 110/1/6 114/1/6
f 113/2/6 109/2/6 114/2/6
f 111/1/6 112/1/6 115/1/6
f 89/2/6 105/2/6 115/2/6
f 105/1/6 111/1/6 115/1/6
f 115/1/6 112/1/6 116/1/6
f 113/1/6 114/1/6 117/1/6
f 114/1/6 110/1/6 118/1/6
f 110/2/6 90/2/6 118/2/6
f 117/1/6 114/1/6 118/1/6
f 116/2/6 117/2/6 119/2/6
f 115/2/6 116/2/6 119/2/6
f 117/2/6 118/2/6 119/2/6
f 89/2/6 115/2/6 119/2/6
f 118/2/6 90/2/6 120/2/6
f 119/2/6 118/2/6 120/2/6
f 121/1/6 122/1/6 124/1/6
f 124/1/6 122/1/6 125/1/6
f 123/1/6 124/1/6 127/1/6
f 125/1/6 126/1/6 127/1/6
f 124/1/6 125/1/6 127/1/6
f 127/1/6 126/1/6 128/1/6
f 128/1/6 126/1/6 129/1/6
f 129/1/6 126/1/6 130/1/6
f 128/1/6 129/1/6 131/1/6
f 131/1/6 129/1/6 132/1/6
