# MagicaVoxel @ Ephtracy

# material
mtllib H.mtl
usemtl palette

# normals
vn -1 0 0
vn 1 0 0
vn 0 0 1
vn 0 0 -1
vn 0 -1 0
vn 0 1 0

# texcoords
vt 0.0214844 0.5
vt 0.994141 0.5

# verts
v -0.5 0 1
v -0.5 0 -0
v -0.5 0 -1
v -0.5 8 1
v -0.5 8 -0
v -0.5 8 -1
v 3.5 0 1
v 3.5 0 -0
v 3.5 0 -1
v 3.5 4 1
v 3.5 4 -0
v 3.5 4 -1
v 3.5 5 1
v 3.5 5 -0
v 3.5 5 -1
v 3.5 8 1
v 3.5 8 -0
v 3.5 8 -1
v 1.5 0 1
v 1.5 0 -0
v 1.5 0 -1
v 1.5 4 1
v 1.5 4 -0
v 1.5 4 -1
v 1.5 5 1
v 1.5 5 -0
v 1.5 5 -1
v 1.5 8 1
v 1.5 8 -0
v 1.5 8 -1
v 4.5 0 1
v 4.5 0 -0
v 4.5 0 -1
v 4.5 8 1
v 4.5 8 -0
v 4.5 8 -1
v -0.5 0 1
v -0.5 8 1
v 1.5 0 1
v 1.5 4 1
v 1.5 5 1
v 1.5 8 1
v 3.5 0 1
v 3.5 4 1
v 3.5 5 1
v 3.5 8 1
v 4.5 0 1
v 4.5 8 1
v -0.5 0 -1
v -0.5 8 -1
v 1.5 0 -1
v 1.5 4 -1
v 1.5 5 -1
v 1.5 8 -1
v 3.5 0 -1
v 3.5 4 -1
v 3.5 5 -1
v 3.5 8 -1
v 4.5 0 -1
v 4.5 8 -1
v -0.5 0 1
v 1.5 0 1
v 3.5 0 1
v 4.5 0 1
v -0.5 0 -0
v 1.5 0 -0
v 3.5 0 -0
v 4.5 0 -0
v -0.5 0 -1
v 1.5 0 -1
v 3.5 0 -1
v 4.5 0 -1
v 1.5 4 1
v 3.5 4 1
v 1.5 4 -0
v 3.5 4 -0
v 1.5 4 -1
v 3.5 4 -1
v 1.5 5 1
v 3.5 5 1
v 1.5 5 -0
v 3.5 5 -0
v 1.5 5 -1
v 3.5 5 -1
v -0.5 8 1
v 1.5 8 1
v 3.5 8 1
v 4.5 8 1
v -0.5 8 -0
v 1.5 8 -0
v 3.5 8 -0
v 4.5 8 -0
v -0.5 8 -1
v 1.5 8 -1
v 3.5 8 -1
v 4.5 8 -1

# faces
f 4/1/1 2/1/1 1/1/1
f 5/2/1 3/2/1 2/2/1
f 5/1/1 2/1/1 4/1/1
f 6/2/1 3/2/1 5/2/1
f 10/1/1 8/1/1 7/1/1
f 11/2/1 9/2/1 8/2/1
f 11/1/1 8/1/1 10/1/1
f 12/2/1 9/2/1 11/2/1
f 16/1/1 14/1/1 13/1/1
f 17/2/1 15/2/1 14/2/1
f 17/1/1 14/1/1 16/1/1
f 18/2/1 15/2/1 17/2/1
f 19/1/2 20/1/2 22/1/2
f 20/2/2 21/2/2 23/2/2
f 22/1/2 20/1/2 23/1/2
f 23/2/2 21/2/2 24/2/2
f 25/1/2 26/1/2 28/1/2
f 26/2/2 27/2/2 29/2/2
f 28/1/2 26/1/2 29/1/2
f 29/2/2 27/2/2 30/2/2
f 31/1/2 32/1/2 34/1/2
f 32/2/2 33/2/2 35/2/2
f 34/1/2 32/1/2 35/1/2
f 35/2/2 33/2/2 36/2/2
f 39/1/3 38/1/3 37/1/3
f 40/1/3 38/1/3 39/1/3
f 41/1/3 38/1/3 40/1/3
f 42/1/3 38/1/3 41/1/3
f 44/1/3 41/1/3 40/1/3
f 45/1/3 41/1/3 44/1/3
f 47/1/3 44/1/3 43/1/3
f 47/1/3 46/1/3 45/1/3
f 47/1/3 45/1/3 44/1/3
f 48/1/3 46/1/3 47/1/3
f 49/2/4 50/2/4 51/2/4
f 51/2/4 50/2/4 52/2/4
f 52/2/4 50/2/4 53/2/4
f 53/2/4 50/2/4 54/2/4
f 52/2/4 53/2/4 56/2/4
f 56/2/4 53/2/4 57/2/4
f 55/2/4 56/2/4 59/2/4
f 57/2/4 58/2/4 59/2/4
f 56/2/4 57/2/4 59/2/4
f 59/2/4 58/2/4 60/2/4
f 65/1/5 62/1/5 61/1/5
f 66/1/5 62/1/5 65/1/5
f 67/1/5 64/1/5 63/1/5
f 68/1/5 64/1/5 67/1/5
f 69/2/5 66/2/5 65/2/5
f 70/2/5 66/2/5 69/2/5
f 71/2/5 68/2/5 67/2/5
f 72/2/5 68/2/5 71/2/5
f 75/1/5 74/1/5 73/1/5
f 76/1/5 74/1/5 75/1/5
f 77/2/5 76/2/5 75/2/5
f 78/2/5 76/2/5 77/2/5
f 79/1/6 80/1/6 81/1/6
f 81/1/6 80/1/6 82/1/6
f 81/2/6 82/2/6 83/2/6
f 83/2/6 82/2/6 84/2/6
f 85/1/6 86/1/6 89/1/6
f 89/1/6 86/1/6 90/1/6
f 87/1/6 88/1/6 91/1/6
f 91/1/6 88/1/6 92/1/6
f 89/2/6 90/2/6 93/2/6
f 93/2/6 90/2/6 94/2/6
f 91/2/6 92/2/6 95/2/6
f 95/2/6 92/2/6 96/2/6
