# MagicaVoxel @ Ephtracy

# material
mtllib ironman.mtl
usemtl palette

# normals
vn -1 0 0
vn 1 0 0
vn 0 0 1
vn 0 0 -1
vn 0 -1 0
vn 0 1 0

# texcoords
vt 0.0644531 0.5
vt 0.189453 0.5
vt 0.220703 0.5
vt 0.244141 0.5
vt 0.298828 0.5
vt 0.408203 0.5
vt 0.462891 0.5
vt 0.466797 0.5
vt 0.845703 0.5
vt 0.939453 0.5

# verts
v -5 10 3
v -5 10 2
v -5 10 -0
v -5 11 4
v -5 11 3
v -5 11 2
v -5 11 1
v -5 12 4
v -5 12 3
v -5 12 2
v -5 12 1
v -5 13 3
v -5 13 2
v -5 13 -0
v -4 8 3
v -4 8 2
v -4 8 1
v -4 9 5
v -4 9 4
v -4 9 3
v -4 9 2
v -4 9 1
v -4 9 -0
v -4 10 4
v -4 10 3
v -4 10 2
v -4 10 -0
v -4 10 -1
v -4 11 5
v -4 11 4
v -4 11 3
v -4 12 5
v -4 12 4
v -4 12 3
v -4 13 5
v -4 13 4
v -4 13 3
v -4 13 2
v -4 13 -0
v -4 14 4
v -4 14 3
v -4 14 -1
v -3 7 3
v -3 7 2
v -3 7 1
v -3 8 5
v -3 8 4
v -3 8 3
v -3 8 2
v -3 8 1
v -3 8 -0
v -3 9 6
v -3 9 5
v -3 9 4
v -3 9 3
v -3 9 1
v -3 9 -0
v -3 9 -1
v -3 10 6
v -3 10 5
v -3 10 -0
v -3 10 -1
v -3 10 -2
v -3 11 6
v -3 11 5
v -3 12 6
v -3 12 5
v -3 13 6
v -3 13 5
v -3 13 4
v -3 14 6
v -3 14 5
v -3 14 4
v -3 14 3
v -3 14 -1
v -3 15 5
v -3 15 4
v -3 15 3
v -3 15 -2
v -2 6 4
v -2 6 3
v -2 6 2
v -2 7 5
v -2 7 4
v -2 7 3
v -2 7 2
v -2 7 1
v -2 7 -0
v -2 8 6
v -2 8 5
v -2 8 4
v -2 8 3
v -2 8 1
v -2 8 -0
v -2 8 -1
v -2 9 6
v -2 9 5
v -2 9 -0
v -2 9 -1
v -2 15 4
v -2 15 3
v -2 15 -0
v -2 16 4
v -2 16 3
v -2 16 -0
v -1 6 5
v -1 6 4
v -1 6 2
v -1 6 1
v -1 7 5
v -1 7 4
v -1 7 2
v -1 7 1
v -1 11 6
v -1 11 5
v -1 12 6
v -1 12 5
v 1 13 6
v 1 13 5
v 1 14 6
v 1 14 5
v 1 14 4
v 1 15 5
v 1 15 4
v 1 15 3
v 1 15 -0
v 1 16 4
v 1 16 3
v 1 16 -0
v -1 13 6
v -1 13 5
v -1 14 6
v -1 14 5
v -1 14 4
v -1 15 5
v -1 15 4
v -1 15 3
v -1 15 -0
v -1 16 4
v -1 16 3
v -1 16 -0
v 1 6 5
v 1 6 4
v 1 6 2
v 1 6 1
v 1 7 5
v 1 7 4
v 1 7 2
v 1 7 1
v 1 11 6
v 1 11 5
v 1 12 6
v 1 12 5
v 2 6 4
v 2 6 3
v 2 6 2
v 2 7 5
v 2 7 4
v 2 7 3
v 2 7 2
v 2 7 1
v 2 7 -0
v 2 8 6
v 2 8 5
v 2 8 4
v 2 8 3
v 2 8 1
v 2 8 -0
v 2 8 -1
v 2 9 6
v 2 9 5
v 2 9 -0
v 2 9 -1
v 2 15 4
v 2 15 3
v 2 15 -0
v 2 16 4
v 2 16 3
v 2 16 -0
v 3 7 3
v 3 7 2
v 3 7 1
v 3 8 5
v 3 8 4
v 3 8 3
v 3 8 2
v 3 8 1
v 3 8 -0
v 3 9 6
v 3 9 5
v 3 9 4
v 3 9 3
v 3 9 1
v 3 9 -0
v 3 9 -1
v 3 10 6
v 3 10 5
v 3 10 4
v 3 10 -0
v 3 10 -1
v 3 10 -2
v 3 11 6
v 3 11 5
v 3 12 6
v 3 12 5
v 3 13 6
v 3 13 5
v 3 13 4
v 3 14 6
v 3 14 5
v 3 14 4
v 3 14 3
v 3 14 -1
v 3 15 5
v 3 15 4
v 3 15 3
v 3 15 -2
v 4 8 3
v 4 8 2
v 4 8 1
v 4 9 4
v 4 9 3
v 4 9 2
v 4 9 1
v 4 9 -0
v 4 10 5
v 4 10 4
v 4 10 3
v 4 10 2
v 4 10 -0
v 4 10 -1
v 4 11 5
v 4 11 4
v 4 11 3
v 4 12 5
v 4 12 4
v 4 12 3
v 4 13 5
v 4 13 4
v 4 13 3
v 4 13 2
v 4 13 -0
v 4 14 4
v 4 14 3
v 4 14 -1
v 5 10 3
v 5 10 2
v 5 10 -0
v 5 11 4
v 5 11 3
v 5 11 2
v 5 11 1
v 5 12 4
v 5 12 3
v 5 12 2
v 5 12 1
v 5 13 3
v 5 13 2
v 5 13 -0
v -3 9 6
v -3 10 6
v -3 11 6
v -3 12 6
v -3 13 6
v -3 14 6
v -2 8 6
v -2 9 6
v -2 13 6
v -2 14 6
v -1 8 6
v -1 9 6
v -1 10 6
v -1 11 6
v -1 12 6
v -1 13 6
v -1 14 6
v 1 8 6
v 1 9 6
v 1 10 6
v 1 11 6
v 1 12 6
v 1 13 6
v 1 14 6
v 2 8 6
v 2 9 6
v 2 13 6
v 2 14 6
v 3 9 6
v 3 10 6
v 3 11 6
v 3 12 6
v 3 13 6
v 3 14 6
v -4 9 5
v -4 11 5
v -4 12 5
v -4 13 5
v -3 8 5
v -3 9 5
v -3 10 5
v -3 11 5
v -3 12 5
v -3 13 5
v -3 14 5
v -3 15 5
v -2 7 5
v -2 8 5
v -2 9 5
v -2 11 5
v -2 12 5
v -2 14 5
v -2 15 5
v -1 6 5
v -1 7 5
v -1 8 5
v -1 11 5
v -1 12 5
v -1 13 5
v -1 14 5
v -1 15 5
v 1 6 5
v 1 7 5
v 1 8 5
v 1 11 5
v 1 12 5
v 1 13 5
v 1 14 5
v 1 15 5
v 2 7 5
v 2 8 5
v 2 9 5
v 2 11 5
v 2 12 5
v 2 14 5
v 2 15 5
v 3 8 5
v 3 9 5
v 3 10 5
v 3 11 5
v 3 12 5
v 3 13 5
v 3 14 5
v 3 15 5
v 4 10 5
v 4 11 5
v 4 12 5
v 4 13 5
v -5 11 4
v -5 12 4
v -4 11 4
v -4 12 4
v -4 13 4
v -4 14 4
v -3 13 4
v -3 14 4
v -2 6 4
v -2 7 4
v -2 15 4
v -2 16 4
v -1 6 4
v -1 7 4
v -1 14 4
v -1 15 4
v -1 16 4
v 1 6 4
v 1 7 4
v 1 14 4
v 1 15 4
v 1 16 4
v 2 6 4
v 2 7 4
v 2 15 4
v 2 16 4
v 3 9 4
v 3 10 4
v 3 13 4
v 3 14 4
v 4 9 4
v 4 10 4
v 4 11 4
v 4 12 4
v 4 13 4
v 4 14 4
v 5 11 4
v 5 12 4
v -5 10 3
v -5 11 3
v -5 12 3
v -5 13 3
v -4 8 3
v -4 9 3
v -4 10 3
v -4 11 3
v -4 12 3
v -4 13 3
v -3 7 3
v -3 8 3
v -3 9 3
v -2 7 3
v -2 8 3
v 2 7 3
v 2 8 3
v 3 7 3
v 3 8 3
v 3 9 3
v 4 8 3
v 4 9 3
v 4 10 3
v 4 11 3
v 4 12 3
v 4 13 3
v 5 10 3
v 5 11 3
v 5 12 3
v 5 13 3
v -2 6 2
v -2 7 2
v -1 6 2
v -1 7 2
v 1 6 2
v 1 7 2
v 2 6 2
v 2 7 2
v -4 8 1
v -4 9 1
v -3 7 1
v -3 8 1
v -3 9 1
v -2 7 1
v -2 8 1
v -1 6 1
v -1 7 1
v 1 6 1
v 1 7 1
v 2 7 1
v 2 8 1
v 3 7 1
v 3 8 1
v 3 9 1
v 4 8 1
v 4 9 1
v -5 10 -0
v -5 13 -0
v -4 9 -0
v -4 10 -0
v -4 13 -0
v -3 8 -0
v -3 9 -0
v -3 10 -0
v -2 7 -0
v -2 8 -0
v -2 9 -0
v -2 15 -0
v -2 16 -0
v -1 15 -0
v -1 16 -0
v 1 15 -0
v 1 16 -0
v 2 7 -0
v 2 8 -0
v 2 9 -0
v 2 15 -0
v 2 16 -0
v 3 8 -0
v 3 9 -0
v 3 10 -0
v 4 9 -0
v 4 10 -0
v 4 13 -0
v 5 10 -0
v 5 13 -0
v -4 10 -1
v -4 14 -1
v -3 9 -1
v -3 10 -1
v -3 14 -1
v -2 8 -1
v -2 9 -1
v 2 8 -1
v 2 9 -1
v 3 9 -1
v 3 10 -1
v 3 14 -1
v 4 10 -1
v 4 14 -1
v -3 10 -2
v -3 15 -2
v 3 10 -2
v 3 15 -2
v -1 6 5
v 1 6 5
v -2 6 4
v -1 6 4
v 1 6 4
v 2 6 4
v -2 6 3
v -1 6 3
v 1 6 3
v 2 6 3
v -2 6 2
v -1 6 2
v 1 6 2
v 2 6 2
v -1 6 1
v 1 6 1
v -2 7 5
v -1 7 5
v 1 7 5
v 2 7 5
v -2 7 4
v -1 7 4
v 1 7 4
v 2 7 4
v -3 7 3
v -2 7 3
v 2 7 3
v 3 7 3
v -3 7 2
v -2 7 2
v -1 7 2
v 1 7 2
v 2 7 2
v 3 7 2
v -3 7 1
v -2 7 1
v -1 7 1
v 1 7 1
v 2 7 1
v 3 7 1
v -2 7 -0
v 2 7 -0
v -2 8 6
v -1 8 6
v 1 8 6
v 2 8 6
v -3 8 5
v -2 8 5
v -1 8 5
v 1 8 5
v 2 8 5
v 3 8 5
v -3 8 4
v -2 8 4
v 2 8 4
v 3 8 4
v -4 8 3
v -3 8 3
v -2 8 3
v 2 8 3
v 3 8 3
v 4 8 3
v -4 8 2
v -3 8 2
v 3 8 2
v 4 8 2
v -4 8 1
v -3 8 1
v -2 8 1
v 2 8 1
v 3 8 1
v 4 8 1
v -3 8 -0
v -2 8 -0
v 2 8 -0
v 3 8 -0
v -2 8 -1
v 2 8 -1
v -3 9 6
v -2 9 6
v 2 9 6
v 3 9 6
v -4 9 5
v -3 9 5
v -2 9 5
v 2 9 5
v 3 9 5
v -4 9 4
v -3 9 4
v 3 9 4
v 4 9 4
v -4 9 3
v -3 9 3
v 3 9 3
v 4 9 3
v -4 9 1
v -3 9 1
v 3 9 1
v 4 9 1
v -4 9 -0
v -3 9 -0
v -2 9 -0
v 2 9 -0
v 3 9 -0
v 4 9 -0
v -3 9 -1
v -2 9 -1
v 2 9 -1
v 3 9 -1
v 3 10 5
v 4 10 5
v 3 10 4
v 4 10 4
v -5 10 3
v -4 10 3
v 4 10 3
v 5 10 3
v -5 10 2
v -4 10 2
v 4 10 2
v 5 10 2
v -5 10 -0
v -4 10 -0
v -3 10 -0
v 3 10 -0
v 4 10 -0
v 5 10 -0
v -4 10 -1
v -3 10 -1
v 3 10 -1
v 4 10 -1
v -3 10 -2
v 3 10 -2
v -5 11 4
v -4 11 4
v 4 11 4
v 5 11 4
v -5 11 3
v -4 11 3
v 4 11 3
v 5 11 3
v -3 12 6
v -1 12 6
v 1 12 6
v 3 12 6
v -3 12 5
v -2 12 5
v -1 12 5
v 1 12 5
v 2 12 5
v 3 12 5
v -3 11 6
v -1 11 6
v 1 11 6
v 3 11 6
v -3 11 5
v -2 11 5
v -1 11 5
v 1 11 5
v 2 11 5
v 3 11 5
v -5 12 4
v -4 12 4
v 4 12 4
v 5 12 4
v -5 12 3
v -4 12 3
v 4 12 3
v 5 12 3
v -1 13 6
v 1 13 6
v -4 13 5
v -3 13 5
v -1 13 5
v 1 13 5
v 3 13 5
v 4 13 5
v -4 13 4
v -3 13 4
v 3 13 4
v 4 13 4
v -5 13 3
v -4 13 3
v 4 13 3
v 5 13 3
v -5 13 2
v -4 13 2
v 4 13 2
v 5 13 2
v -5 13 -0
v -4 13 -0
v 4 13 -0
v 5 13 -0
v -3 14 6
v -2 14 6
v -1 14 6
v 1 14 6
v 2 14 6
v 3 14 6
v -3 14 5
v -2 14 5
v -1 14 5
v 1 14 5
v 2 14 5
v 3 14 5
v -4 14 4
v -3 14 4
v -1 14 4
v 1 14 4
v 3 14 4
v 4 14 4
v -4 14 3
v -3 14 3
v 3 14 3
v 4 14 3
v -4 14 -1
v -3 14 -1
v 3 14 -1
v 4 14 -1
v -3 15 5
v -2 15 5
v -1 15 5
v 1 15 5
v 2 15 5
v 3 15 5
v -3 15 4
v -2 15 4
v -1 15 4
v 1 15 4
v 2 15 4
v 3 15 4
v -3 15 3
v -2 15 3
v -1 15 3
v 1 15 3
v 2 15 3
v 3 15 3
v -2 15 -0
v -1 15 -0
v 1 15 -0
v 2 15 -0
v -3 15 -2
v 3 15 -2
v -2 16 4
v -1 16 4
v 1 16 4
v 2 16 4
v -2 16 3
v -1 16 3
v 1 16 3
v 2 16 3
v -2 16 -0
v -1 16 -0
v 1 16 -0
v 2 16 -0

# faces
f 5/10/1 2/10/1 1/10/1
f 6/2/1 3/2/1 2/2/1
f 6/10/1 2/10/1 5/10/1
f 7/2/1 3/2/1 6/2/1
f 8/9/1 5/9/1 4/9/1
f 9/10/1 6/10/1 5/10/1
f 9/9/1 5/9/1 8/9/1
f 9/10/1 7/10/1 6/10/1
f 10/10/1 7/10/1 9/10/1
f 11/2/1 3/2/1 7/2/1
f 11/10/1 7/10/1 10/10/1
f 12/10/1 10/10/1 9/10/1
f 13/2/1 11/2/1 10/2/1
f 13/10/1 10/10/1 12/10/1
f 14/2/1 3/2/1 11/2/1
f 14/2/1 11/2/1 13/2/1
f 20/10/1 16/10/1 15/10/1
f 21/2/1 17/2/1 16/2/1
f 21/10/1 16/10/1 20/10/1
f 22/2/1 17/2/1 21/2/1
f 24/1/1 19/1/1 18/1/1
f 24/3/1 20/3/1 19/3/1
f 25/2/1 23/2/1 22/2/1
f 25/3/1 20/3/1 24/3/1
f 25/2/1 22/2/1 21/2/1
f 25/2/1 21/2/1 20/2/1
f 26/2/1 23/2/1 25/2/1
f 27/2/1 23/2/1 26/2/1
f 29/1/1 24/1/1 18/1/1
f 29/1/1 25/1/1 24/1/1
f 30/1/1 25/1/1 29/1/1
f 31/1/1 25/1/1 30/1/1
f 32/4/1 30/4/1 29/4/1
f 33/4/1 30/4/1 32/4/1
f 35/1/1 33/1/1 32/1/1
f 35/1/1 34/1/1 33/1/1
f 36/1/1 34/1/1 35/1/1
f 37/1/1 34/1/1 36/1/1
f 39/2/1 28/2/1 27/2/1
f 40/3/1 37/3/1 36/3/1
f 41/2/1 38/2/1 37/2/1
f 41/3/1 37/3/1 40/3/1
f 41/2/1 39/2/1 38/2/1
f 42/2/1 28/2/1 39/2/1
f 42/2/1 39/2/1 41/2/1
f 48/10/1 44/10/1 43/10/1
f 49/2/1 45/2/1 44/2/1
f 49/10/1 44/10/1 48/10/1
f 50/2/1 45/2/1 49/2/1
f 53/1/1 47/1/1 46/1/1
f 54/3/1 48/3/1 47/3/1
f 54/1/1 47/1/1 53/1/1
f 55/3/1 48/3/1 54/3/1
f 56/2/1 51/2/1 50/2/1
f 57/2/1 51/2/1 56/2/1
f 59/1/1 53/1/1 52/1/1
f 60/1/1 53/1/1 59/1/1
f 61/2/1 58/2/1 57/2/1
f 62/2/1 58/2/1 61/2/1
f 64/3/1 60/3/1 59/3/1
f 65/3/1 60/3/1 64/3/1
f 68/4/1 67/4/1 66/4/1
f 69/4/1 67/4/1 68/4/1
f 71/9/1 69/9/1 68/9/1
f 71/9/1 70/9/1 69/9/1
f 72/9/1 70/9/1 71/9/1
f 73/9/1 70/9/1 72/9/1
f 75/2/1 63/2/1 62/2/1
f 76/9/1 73/9/1 72/9/1
f 77/3/1 74/3/1 73/3/1
f 77/9/1 73/9/1 76/9/1
f 78/2/1 75/2/1 74/2/1
f 78/3/1 74/3/1 77/3/1
f 79/2/1 63/2/1 75/2/1
f 79/2/1 75/2/1 78/2/1
f 84/10/1 81/10/1 80/10/1
f 85/2/1 82/2/1 81/2/1
f 85/10/1 81/10/1 84/10/1
f 86/2/1 82/2/1 85/2/1
f 90/1/1 84/1/1 83/1/1
f 91/3/1 85/3/1 84/3/1
f 91/1/1 84/1/1 90/1/1
f 92/3/1 85/3/1 91/3/1
f 93/2/1 88/2/1 87/2/1
f 94/2/1 88/2/1 93/2/1
f 96/9/1 90/9/1 89/9/1
f 97/9/1 90/9/1 96/9/1
f 98/2/1 95/2/1 94/2/1
f 99/2/1 95/2/1 98/2/1
f 103/4/1 101/4/1 100/4/1
f 104/1/1 102/1/1 101/1/1
f 104/4/1 101/4/1 103/4/1
f 105/1/1 102/1/1 104/1/1
f 110/1/1 107/1/1 106/1/1
f 111/1/1 107/1/1 110/1/1
f 112/2/1 109/2/1 108/2/1
f 113/2/1 109/2/1 112/2/1
f 116/9/1 115/9/1 114/9/1
f 117/9/1 115/9/1 116/9/1
f 120/4/1 119/4/1 118/4/1
f 121/4/1 119/4/1 120/4/1
f 123/4/1 122/4/1 121/4/1
f 124/4/1 122/4/1 123/4/1
f 127/4/1 125/4/1 124/4/1
f 128/1/1 126/1/1 125/1/1
f 128/4/1 125/4/1 127/4/1
f 129/1/1 126/1/1 128/1/1
f 130/4/2 131/4/2 132/4/2
f 132/4/2 131/4/2 133/4/2
f 133/4/2 134/4/2 135/4/2
f 135/4/2 134/4/2 136/4/2
f 136/4/2 137/4/2 139/4/2
f 137/1/2 138/1/2 140/1/2
f 139/4/2 137/4/2 140/4/2
f 140/1/2 138/1/2 141/1/2
f 142/1/2 143/1/2 146/1/2
f 146/1/2 143/1/2 147/1/2
f 144/2/2 145/2/2 148/2/2
f 148/2/2 145/2/2 149/2/2
f 150/9/2 151/9/2 152/9/2
f 152/9/2 151/9/2 153/9/2
f 154/10/2 155/10/2 158/10/2
f 155/2/2 156/2/2 159/2/2
f 158/10/2 155/10/2 159/10/2
f 159/2/2 156/2/2 160/2/2
f 157/1/2 158/1/2 164/1/2
f 158/3/2 159/3/2 165/3/2
f 164/1/2 158/1/2 165/1/2
f 165/3/2 159/3/2 166/3/2
f 161/2/2 162/2/2 167/2/2
f 167/2/2 162/2/2 168/2/2
f 163/9/2 164/9/2 170/9/2
f 170/9/2 164/9/2 171/9/2
f 168/2/2 169/2/2 172/2/2
f 172/2/2 169/2/2 173/2/2
f 174/4/2 175/4/2 177/4/2
f 175/1/2 176/1/2 178/1/2
f 177/4/2 175/4/2 178/4/2
f 178/1/2 176/1/2 179/1/2
f 180/10/2 181/10/2 185/10/2
f 181/2/2 182/2/2 186/2/2
f 185/10/2 181/10/2 186/10/2
f 186/2/2 182/2/2 187/2/2
f 183/1/2 184/1/2 190/1/2
f 184/3/2 185/3/2 191/3/2
f 190/1/2 184/1/2 191/1/2
f 191/3/2 185/3/2 192/3/2
f 187/2/2 188/2/2 193/2/2
f 193/2/2 188/2/2 194/2/2
f 189/1/2 190/1/2 196/1/2
f 190/3/2 191/3/2 197/3/2
f 196/1/2 190/1/2 197/1/2
f 197/3/2 191/3/2 198/3/2
f 194/2/2 195/2/2 199/2/2
f 199/2/2 195/2/2 200/2/2
f 196/3/2 197/3/2 202/3/2
f 202/3/2 197/3/2 203/3/2
f 204/4/2 205/4/2 206/4/2
f 206/4/2 205/4/2 207/4/2
f 206/9/2 207/9/2 209/9/2
f 207/9/2 208/9/2 209/9/2
f 209/9/2 208/9/2 210/9/2
f 210/9/2 208/9/2 211/9/2
f 200/2/2 201/2/2 213/2/2
f 210/9/2 211/9/2 214/9/2
f 211/3/2 212/3/2 215/3/2
f 214/9/2 211/9/2 215/9/2
f 212/2/2 213/2/2 216/2/2
f 215/3/2 212/3/2 216/3/2
f 213/2/2 201/2/2 217/2/2
f 216/2/2 213/2/2 217/2/2
f 218/10/2 219/10/2 222/10/2
f 219/2/2 220/2/2 223/2/2
f 222/10/2 219/10/2 223/10/2
f 223/2/2 220/2/2 224/2/2
f 221/3/2 222/3/2 227/3/2
f 224/2/2 225/2/2 228/2/2
f 222/2/2 223/2/2 228/2/2
f 227/3/2 222/3/2 228/3/2
f 223/2/2 224/2/2 228/2/2
f 228/2/2 225/2/2 229/2/2
f 229/2/2 225/2/2 230/2/2
f 226/1/2 227/1/2 232/1/2
f 227/1/2 228/1/2 232/1/2
f 232/1/2 228/1/2 233/1/2
f 233/1/2 228/1/2 234/1/2
f 232/4/2 233/4/2 235/4/2
f 235/4/2 233/4/2 236/4/2
f 235/1/2 236/1/2 238/1/2
f 236/1/2 237/1/2 238/1/2
f 238/1/2 237/1/2 239/1/2
f 239/1/2 237/1/2 240/1/2
f 230/2/2 231/2/2 242/2/2
f 239/3/2 240/3/2 243/3/2
f 240/2/2 241/2/2 244/2/2
f 243/3/2 240/3/2 244/3/2
f 241/2/2 242/2/2 244/2/2
f 242/2/2 231/2/2 245/2/2
f 244/2/2 242/2/2 245/2/2
f 246/10/2 247/10/2 250/10/2
f 247/2/2 248/2/2 251/2/2
f 250/10/2 247/10/2 251/10/2
f 251/2/2 248/2/2 252/2/2
f 249/9/2 250/9/2 253/9/2
f 250/10/2 251/10/2 254/10/2
f 253/9/2 250/9/2 254/9/2
f 251/10/2 252/10/2 254/10/2
f 254/10/2 252/10/2 255/10/2
f 252/2/2 248/2/2 256/2/2
f 255/10/2 252/10/2 256/10/2
f 254/10/2 255/10/2 257/10/2
f 255/2/2 256/2/2 258/2/2
f 257/10/2 255/10/2 258/10/2
f 256/2/2 248/2/2 259/2/2
f 258/2/2 256/2/2 259/2/2
f 267/1/3 261/1/3 260/1/3
f 268/9/3 265/9/3 264/9/3
f 268/4/3 264/4/3 263/4/3
f 269/9/3 265/9/3 268/9/3
f 270/9/3 267/9/3 266/9/3
f 271/1/3 261/1/3 267/1/3
f 271/9/3 267/9/3 270/9/3
f 272/3/3 262/3/3 261/3/3
f 272/1/3 261/1/3 271/1/3
f 273/3/3 262/3/3 272/3/3
f 274/4/3 268/4/3 263/4/3
f 274/4/3 269/4/3 268/4/3
f 275/4/3 269/4/3 274/4/3
f 276/4/3 269/4/3 275/4/3
f 277/1/3 271/1/3 270/1/3
f 277/1/3 273/1/3 272/1/3
f 277/1/3 272/1/3 271/1/3
f 278/1/3 273/1/3 277/1/3
f 279/1/3 273/1/3 278/1/3
f 280/9/3 274/9/3 273/9/3
f 280/1/3 273/1/3 279/1/3
f 281/4/3 275/4/3 274/4/3
f 281/9/3 274/9/3 280/9/3
f 282/4/3 275/4/3 281/4/3
f 284/9/3 278/9/3 277/9/3
f 285/1/3 279/1/3 278/1/3
f 285/9/3 278/9/3 284/9/3
f 286/4/3 283/4/3 282/4/3
f 286/4/3 282/4/3 281/4/3
f 287/4/3 283/4/3 286/4/3
f 288/1/3 279/1/3 285/1/3
f 289/3/3 280/3/3 279/3/3
f 289/1/3 279/1/3 288/1/3
f 290/3/3 280/3/3 289/3/3
f 291/4/3 286/4/3 281/4/3
f 292/9/3 287/9/3 286/9/3
f 292/4/3 286/4/3 291/4/3
f 293/9/3 287/9/3 292/9/3
f 299/1/3 295/1/3 294/1/3
f 300/1/3 295/1/3 299/1/3
f 301/4/3 296/4/3 295/4/3
f 301/1/3 295/1/3 300/1/3
f 302/1/3 297/1/3 296/1/3
f 302/4/3 296/4/3 301/4/3
f 303/1/3 297/1/3 302/1/3
f 307/1/3 299/1/3 298/1/3
f 308/1/3 299/1/3 307/1/3
f 309/7/3 302/7/3 301/7/3
f 310/7/3 302/7/3 309/7/3
f 311/9/3 305/9/3 304/9/3
f 312/9/3 305/9/3 311/9/3
f 314/1/3 307/1/3 306/1/3
f 315/1/3 307/1/3 314/1/3
f 316/8/3 310/8/3 309/8/3
f 317/8/3 310/8/3 316/8/3
f 319/4/3 312/4/3 311/4/3
f 320/4/3 312/4/3 319/4/3
f 321/1/3 314/1/3 313/1/3
f 322/5/3 315/5/3 314/5/3
f 322/1/3 314/1/3 321/1/3
f 323/5/3 315/5/3 322/5/3
f 326/5/3 319/5/3 318/5/3
f 327/5/3 319/5/3 326/5/3
f 329/1/3 323/1/3 322/1/3
f 330/1/3 323/1/3 329/1/3
f 332/8/3 325/8/3 324/8/3
f 333/8/3 325/8/3 332/8/3
f 334/4/3 328/4/3 327/4/3
f 335/4/3 328/4/3 334/4/3
f 336/1/3 331/1/3 330/1/3
f 337/1/3 331/1/3 336/1/3
f 339/7/3 333/7/3 332/7/3
f 340/7/3 333/7/3 339/7/3
f 342/9/3 335/9/3 334/9/3
f 343/9/3 335/9/3 342/9/3
f 344/1/3 339/1/3 338/1/3
f 345/4/3 340/4/3 339/4/3
f 345/1/3 339/1/3 344/1/3
f 346/1/3 341/1/3 340/1/3
f 346/4/3 340/4/3 345/4/3
f 347/1/3 341/1/3 346/1/3
f 350/9/3 349/9/3 348/9/3
f 351/9/3 349/9/3 350/9/3
f 354/3/3 353/3/3 352/3/3
f 355/3/3 353/3/3 354/3/3
f 360/10/3 357/10/3 356/10/3
f 361/10/3 357/10/3 360/10/3
f 363/4/3 359/4/3 358/4/3
f 364/4/3 359/4/3 363/4/3
f 367/6/3 363/6/3 362/6/3
f 368/6/3 363/6/3 367/6/3
f 370/10/3 366/10/3 365/10/3
f 371/10/3 366/10/3 370/10/3
f 372/4/3 369/4/3 368/4/3
f 373/4/3 369/4/3 372/4/3
f 378/3/3 375/3/3 374/3/3
f 379/3/3 375/3/3 378/3/3
f 382/3/3 377/3/3 376/3/3
f 383/3/3 377/3/3 382/3/3
f 384/9/3 381/9/3 380/9/3
f 385/9/3 381/9/3 384/9/3
f 392/10/3 387/10/3 386/10/3
f 393/10/3 387/10/3 392/10/3
f 394/10/3 389/10/3 388/10/3
f 395/10/3 389/10/3 394/10/3
f 397/10/3 391/10/3 390/10/3
f 398/10/3 391/10/3 397/10/3
f 399/10/3 397/10/3 396/10/3
f 400/10/3 397/10/3 399/10/3
f 403/10/3 402/10/3 401/10/3
f 404/10/3 402/10/3 403/10/3
f 406/10/3 405/10/3 404/10/3
f 407/10/3 405/10/3 406/10/3
f 412/10/3 409/10/3 408/10/3
f 413/10/3 409/10/3 412/10/3
f 414/10/3 411/10/3 410/10/3
f 415/10/3 411/10/3 414/10/3
f 416/2/4 417/2/4 418/2/4
f 418/2/4 417/2/4 419/2/4
f 420/2/4 421/2/4 422/2/4
f 422/2/4 421/2/4 423/2/4
f 424/2/4 425/2/4 427/2/4
f 427/2/4 425/2/4 428/2/4
f 426/2/4 427/2/4 429/2/4
f 429/2/4 427/2/4 430/2/4
f 431/2/4 432/2/4 433/2/4
f 433/2/4 432/2/4 434/2/4
f 435/2/4 436/2/4 437/2/4
f 437/2/4 436/2/4 438/2/4
f 438/2/4 439/2/4 440/2/4
f 440/2/4 439/2/4 441/2/4
f 442/2/4 443/2/4 445/2/4
f 445/2/4 443/2/4 446/2/4
f 444/2/4 445/2/4 448/2/4
f 448/2/4 445/2/4 449/2/4
f 447/2/4 448/2/4 451/2/4
f 451/2/4 448/2/4 452/2/4
f 453/1/4 454/1/4 455/1/4
f 455/1/4 454/1/4 456/1/4
f 450/2/4 451/2/4 459/2/4
f 459/2/4 451/2/4 460/2/4
f 457/1/4 458/1/4 462/1/4
f 462/1/4 458/1/4 463/1/4
f 460/2/4 461/2/4 464/2/4
f 464/2/4 461/2/4 465/2/4
f 465/2/4 466/2/4 467/2/4
f 467/2/4 466/2/4 468/2/4
f 468/2/4 469/2/4 470/2/4
f 470/2/4 469/2/4 471/2/4
f 472/2/4 473/2/4 475/2/4
f 475/2/4 473/2/4 476/2/4
f 474/2/4 475/2/4 478/2/4
f 477/2/4 478/2/4 479/2/4
f 478/2/4 475/2/4 480/2/4
f 479/2/4 478/2/4 480/2/4
f 480/2/4 475/2/4 481/2/4
f 481/2/4 475/2/4 482/2/4
f 482/2/4 483/2/4 484/2/4
f 484/2/4 483/2/4 485/2/4
f 486/2/4 487/2/4 488/2/4
f 488/2/4 487/2/4 489/2/4
f 493/1/5 491/1/5 490/1/5
f 494/1/5 491/1/5 493/1/5
f 496/10/5 493/10/5 492/10/5
f 497/6/5 494/6/5 493/6/5
f 497/10/5 493/10/5 496/10/5
f 498/10/5 495/10/5 494/10/5
f 498/6/5 494/6/5 497/6/5
f 499/10/5 495/10/5 498/10/5
f 500/2/5 497/2/5 496/2/5
f 500/2/5 498/2/5 497/2/5
f 500/2/5 499/2/5 498/2/5
f 501/2/5 499/2/5 500/2/5
f 502/2/5 499/2/5 501/2/5
f 503/2/5 499/2/5 502/2/5
f 504/2/5 502/2/5 501/2/5
f 505/2/5 502/2/5 504/2/5
f 510/1/5 507/1/5 506/1/5
f 511/1/5 507/1/5 510/1/5
f 512/1/5 509/1/5 508/1/5
f 513/1/5 509/1/5 512/1/5
f 518/10/5 515/10/5 514/10/5
f 519/10/5 515/10/5 518/10/5
f 522/10/5 517/10/5 516/10/5
f 523/10/5 517/10/5 522/10/5
f 524/2/5 520/2/5 519/2/5
f 524/2/5 519/2/5 518/2/5
f 525/2/5 520/2/5 524/2/5
f 526/2/5 520/2/5 525/2/5
f 527/2/5 523/2/5 522/2/5
f 527/2/5 522/2/5 521/2/5
f 528/2/5 523/2/5 527/2/5
f 529/2/5 523/2/5 528/2/5
f 530/2/5 526/2/5 525/2/5
f 530/2/5 528/2/5 527/2/5
f 530/2/5 527/2/5 526/2/5
f 531/2/5 528/2/5 530/2/5
f 537/9/5 533/9/5 532/9/5
f 538/1/5 534/1/5 533/1/5
f 538/9/5 533/9/5 537/9/5
f 539/9/5 535/9/5 534/9/5
f 539/1/5 534/1/5 538/1/5
f 540/9/5 535/9/5 539/9/5
f 542/1/5 537/1/5 536/1/5
f 543/1/5 537/1/5 542/1/5
f 544/1/5 541/1/5 540/1/5
f 545/1/5 541/1/5 544/1/5
f 547/3/5 543/3/5 542/3/5
f 548/3/5 543/3/5 547/3/5
f 549/3/5 545/3/5 544/3/5
f 550/3/5 545/3/5 549/3/5
f 552/10/5 547/10/5 546/10/5
f 553/10/5 547/10/5 552/10/5
f 554/10/5 551/10/5 550/10/5
f 555/10/5 551/10/5 554/10/5
f 556/2/5 553/2/5 552/2/5
f 557/2/5 553/2/5 556/2/5
f 560/2/5 555/2/5 554/2/5
f 561/2/5 555/2/5 560/2/5
f 562/2/5 558/2/5 557/2/5
f 563/2/5 558/2/5 562/2/5
f 564/2/5 560/2/5 559/2/5
f 565/2/5 560/2/5 564/2/5
f 566/2/5 564/2/5 563/2/5
f 567/2/5 564/2/5 566/2/5
f 573/1/5 569/1/5 568/1/5
f 574/1/5 569/1/5 573/1/5
f 575/1/5 571/1/5 570/1/5
f 576/1/5 571/1/5 575/1/5
f 577/1/5 573/1/5 572/1/5
f 578/1/5 573/1/5 577/1/5
f 581/3/5 578/3/5 577/3/5
f 582/3/5 578/3/5 581/3/5
f 583/3/5 580/3/5 579/3/5
f 584/3/5 580/3/5 583/3/5
f 589/2/5 586/2/5 585/2/5
f 590/2/5 586/2/5 589/2/5
f 593/2/5 588/2/5 587/2/5
f 594/2/5 588/2/5 593/2/5
f 595/2/5 591/2/5 590/2/5
f 596/2/5 591/2/5 595/2/5
f 597/2/5 593/2/5 592/2/5
f 598/2/5 593/2/5 597/2/5
f 601/1/5 600/1/5 599/1/5
f 602/1/5 600/1/5 601/1/5
f 607/10/5 604/10/5 603/10/5
f 608/10/5 604/10/5 607/10/5
f 609/10/5 606/10/5 605/10/5
f 610/10/5 606/10/5 609/10/5
f 611/2/5 608/2/5 607/2/5
f 612/2/5 608/2/5 611/2/5
f 615/2/5 610/2/5 609/2/5
f 616/2/5 610/2/5 615/2/5
f 617/2/5 613/2/5 612/2/5
f 618/2/5 613/2/5 617/2/5
f 619/2/5 615/2/5 614/2/5
f 620/2/5 615/2/5 619/2/5
f 621/2/5 619/2/5 618/2/5
f 622/2/5 619/2/5 621/2/5
f 627/9/5 624/9/5 623/9/5
f 628/9/5 624/9/5 627/9/5
f 629/9/5 626/9/5 625/9/5
f 630/9/5 626/9/5 629/9/5
f 635/4/5 632/4/5 631/4/5
f 636/4/5 632/4/5 635/4/5
f 637/4/5 632/4/5 636/4/5
f 638/4/5 634/4/5 633/4/5
f 639/4/5 634/4/5 638/4/5
f 640/4/5 634/4/5 639/4/5
f 641/3/6 642/3/6 645/3/6
f 645/3/6 642/3/6 646/3/6
f 646/3/6 642/3/6 647/3/6
f 643/3/6 644/3/6 648/3/6
f 648/3/6 644/3/6 649/3/6
f 649/3/6 644/3/6 650/3/6
f 651/9/6 652/9/6 655/9/6
f 655/9/6 652/9/6 656/9/6
f 653/9/6 654/9/6 657/9/6
f 657/9/6 654/9/6 658/9/6
f 659/4/6 660/4/6 663/4/6
f 663/4/6 660/4/6 664/4/6
f 661/1/6 662/1/6 667/1/6
f 667/1/6 662/1/6 668/1/6
f 665/1/6 666/1/6 669/1/6
f 669/1/6 666/1/6 670/1/6
f 671/10/6 672/10/6 675/10/6
f 675/10/6 672/10/6 676/10/6
f 673/10/6 674/10/6 677/10/6
f 677/10/6 674/10/6 678/10/6
f 675/2/6 676/2/6 679/2/6
f 679/2/6 676/2/6 680/2/6
f 677/2/6 678/2/6 681/2/6
f 681/2/6 678/2/6 682/2/6
f 683/9/6 684/9/6 689/9/6
f 684/4/6 685/4/6 690/4/6
f 689/9/6 684/9/6 690/9/6
f 690/4/6 685/4/6 691/4/6
f 686/4/6 687/4/6 692/4/6
f 687/9/6 688/9/6 693/9/6
f 692/4/6 687/4/6 693/4/6
f 693/9/6 688/9/6 694/9/6
f 691/5/6 692/5/6 697/5/6
f 697/5/6 692/5/6 698/5/6
f 695/3/6 696/3/6 701/3/6
f 701/3/6 696/3/6 702/3/6
f 699/3/6 700/3/6 703/3/6
f 703/3/6 700/3/6 704/3/6
f 701/2/6 702/2/6 705/2/6
f 705/2/6 702/2/6 706/2/6
f 703/2/6 704/2/6 707/2/6
f 707/2/6 704/2/6 708/2/6
f 709/9/6 710/9/6 715/9/6
f 710/4/6 711/4/6 716/4/6
f 715/9/6 710/9/6 716/9/6
f 716/4/6 711/4/6 717/4/6
f 712/4/6 713/4/6 718/4/6
f 713/9/6 714/9/6 719/9/6
f 718/4/6 713/4/6 719/4/6
f 719/9/6 714/9/6 720/9/6
f 715/3/6 716/3/6 721/3/6
f 721/3/6 716/3/6 722/3/6
f 717/6/6 718/6/6 723/6/6
f 723/6/6 718/6/6 724/6/6
f 719/3/6 720/3/6 725/3/6
f 725/3/6 720/3/6 726/3/6
f 721/2/6 722/2/6 727/2/6
f 723/2/6 724/2/6 728/2/6
f 728/2/6 724/2/6 729/2/6
f 725/2/6 726/2/6 730/2/6
f 721/2/6 727/2/6 731/2/6
f 729/2/6 730/2/6 731/2/6
f 728/2/6 729/2/6 731/2/6
f 727/2/6 728/2/6 731/2/6
f 730/2/6 726/2/6 732/2/6
f 731/2/6 730/2/6 732/2/6
f 733/4/6 734/4/6 737/4/6
f 737/4/6 734/4/6 738/4/6
f 735/4/6 736/4/6 739/4/6
f 739/4/6 736/4/6 740/4/6
f 737/1/6 738/1/6 741/1/6
f 741/1/6 738/1/6 742/1/6
f 739/1/6 740/1/6 743/1/6
f 743/1/6 740/1/6 744/1/6
