# MagicaVoxel @ Ephtracy

# material
mtllib nomNom.mtl
usemtl palette

# normals
vn -1 0 0
vn 1 0 0
vn 0 0 1
vn 0 0 -1
vn 0 -1 0
vn 0 1 0

# texcoords
vt 0.0136719 0.5
vt 0.0449219 0.5
vt 0.0644531 0.5
vt 0.0722656 0.5
vt 0.119141 0.5
vt 0.123047 0.5
vt 0.958984 0.5
vt 0.994141 0.5

# verts
v -8 1 3
v -8 1 -6
v -8 2 6
v -8 2 3
v -8 2 -6
v -8 2 -7
v -8 4 -5
v -8 4 -6
v -8 5 -5
v -8 5 -6
v -8 6 -5
v -8 6 -6
v -8 7 -3
v -8 7 -4
v -8 7 -5
v -8 7 -6
v -8 8 -3
v -8 8 -4
v -8 11 5
v -8 11 4
v -8 11 -3
v -8 11 -4
v -8 12 5
v -8 12 4
v -8 12 -1
v -8 12 -2
v -8 12 -3
v -8 12 -4
v -8 13 -1
v -8 13 -2
v -8 14 6
v -8 14 5
v -8 14 -6
v -8 14 -7
v -8 15 5
v -8 15 -6
v -7 1 5
v -7 1 3
v -7 1 -6
v -7 1 -7
v -7 2 5
v -7 2 3
v -7 2 -6
v -7 2 -7
v -7 14 6
v -7 14 5
v -7 14 -6
v -7 14 -7
v -7 15 6
v -7 15 5
v -7 15 -6
v -7 15 -7
v -6 1 6
v -6 1 5
v -6 2 6
v -6 2 5
v -6 2 1
v -6 2 -0
v -6 3 -0
v -6 3 -3
v -6 11 1
v -6 11 -3
v -5 3 -3
v -5 3 -4
v -5 4 -4
v -5 10 3
v -5 10 2
v -5 11 3
v -5 11 2
v -5 11 -3
v -5 11 -4
v -1 4 6
v -1 4 5
v -1 5 6
v -1 5 5
v -1 9 6
v -1 9 5
v -1 10 5
v -1 11 6
v -1 11 5
v 0 11 -3
v 0 11 -4
v 0 12 -3
v 0 12 -4
v 3 3 6
v 3 3 5
v 3 4 6
v 3 4 5
v 3 10 4
v 3 10 3
v 3 11 4
v 3 11 3
v 4 4 6
v 4 4 5
v 4 5 6
v 4 5 5
v 5 9 6
v 5 9 5
v 5 10 5
v 5 11 6
v 5 11 5
v -7 2 1
v -7 2 -0
v -7 3 -0
v -7 3 -3
v -7 11 1
v -7 11 -3
v -6 3 -3
v -6 3 -4
v -6 4 -4
v -6 10 3
v -6 10 2
v -6 11 3
v -6 11 2
v -6 11 -3
v -6 11 -4
v -3 9 6
v -3 9 5
v -3 11 6
v -3 11 5
v -2 4 6
v -2 4 5
v -2 5 6
v -2 5 5
v -1 3 6
v -1 3 5
v -1 4 6
v -1 4 5
v -1 11 -3
v -1 11 -4
v -1 12 -3
v -1 12 -4
v 2 10 4
v 2 10 3
v 2 11 4
v 2 11 3
v 3 4 6
v 3 4 5
v 3 5 6
v 3 5 5
v 3 9 6
v 3 9 5
v 3 11 6
v 3 11 5
v 7 1 6
v 7 1 5
v 7 1 -6
v 7 1 -7
v 7 2 6
v 7 2 5
v 7 2 -6
v 7 2 -7
v 7 14 6
v 7 14 5
v 7 14 -6
v 7 14 -7
v 7 15 6
v 7 15 5
v 7 15 -6
v 7 15 -7
v 8 1 5
v 8 1 -6
v 8 2 6
v 8 2 5
v 8 2 -2
v 8 2 -3
v 8 2 -6
v 8 2 -7
v 8 3 -2
v 8 3 -3
v 8 4 6
v 8 4 5
v 8 5 6
v 8 5 5
v 8 5 -0
v 8 5 -1
v 8 6 5
v 8 6 4
v 8 6 -0
v 8 6 -1
v 8 6 -6
v 8 6 -7
v 8 7 5
v 8 7 4
v 8 7 -0
v 8 7 -1
v 8 7 -6
v 8 7 -7
v 8 8 -0
v 8 8 -1
v 8 9 -4
v 8 9 -5
v 8 10 3
v 8 10 2
v 8 10 -4
v 8 10 -5
v 8 11 3
v 8 11 2
v 8 13 -0
v 8 13 -1
v 8 13 -4
v 8 13 -5
v 8 14 6
v 8 14 5
v 8 14 1
v 8 14 -0
v 8 14 -1
v 8 14 -4
v 8 14 -5
v 8 14 -6
v 8 14 -7
v 8 15 5
v 8 15 1
v 8 15 -0
v 8 15 -6
v -8 2 6
v -8 14 6
v -7 12 6
v -7 13 6
v -7 14 6
v -7 15 6
v -6 1 6
v -6 2 6
v -6 6 6
v -6 7 6
v -6 12 6
v -6 13 6
v -5 1 6
v -5 2 6
v -5 6 6
v -5 7 6
v -4 2 6
v -4 3 6
v -4 6 6
v -4 8 6
v -3 2 6
v -3 3 6
v -3 9 6
v -3 11 6
v -2 4 6
v -2 5 6
v -2 6 6
v -2 8 6
v -2 14 6
v -2 15 6
v -1 3 6
v -1 4 6
v -1 5 6
v -1 9 6
v -1 11 6
v -1 14 6
v -1 15 6
v 1 7 6
v 1 8 6
v 2 7 6
v 2 8 6
v 2 12 6
v 2 13 6
v 3 3 6
v 3 4 6
v 3 5 6
v 3 9 6
v 3 11 6
v 3 12 6
v 3 13 6
v 4 4 6
v 4 5 6
v 4 6 6
v 4 8 6
v 5 9 6
v 5 11 6
v 6 6 6
v 6 8 6
v 6 13 6
v 6 14 6
v 7 1 6
v 7 2 6
v 7 4 6
v 7 5 6
v 7 13 6
v 7 14 6
v 7 15 6
v 8 2 6
v 8 4 6
v 8 5 6
v 8 14 6
v -8 14 5
v -8 15 5
v -7 1 5
v -7 2 5
v -7 14 5
v -7 15 5
v -6 1 5
v -6 2 5
v -3 9 5
v -3 11 5
v -2 4 5
v -2 5 5
v -2 9 5
v -2 10 5
v -1 3 5
v -1 4 5
v -1 5 5
v -1 9 5
v -1 10 5
v -1 11 5
v 3 3 5
v 3 4 5
v 3 5 5
v 3 9 5
v 3 11 5
v 4 4 5
v 4 5 5
v 4 9 5
v 4 10 5
v 5 9 5
v 5 10 5
v 5 11 5
v 7 1 5
v 7 2 5
v 7 14 5
v 7 15 5
v 8 1 5
v 8 2 5
v 8 14 5
v 8 15 5
v -8 1 3
v -8 2 3
v -7 1 3
v -7 2 3
v 2 10 3
v 2 11 3
v 3 10 3
v 3 11 3
v -6 10 2
v -6 11 2
v -5 10 2
v -5 11 2
v -7 2 -0
v -7 3 -0
v -6 2 -0
v -6 3 -0
v -7 3 -3
v -7 11 -3
v -6 3 -3
v -6 11 -3
v -6 3 -4
v -6 4 -4
v -6 11 -4
v -5 3 -4
v -5 4 -4
v -5 11 -4
v -1 11 -4
v -1 12 -4
v 0 11 -4
v 0 12 -4
v 2 10 4
v 2 11 4
v 3 10 4
v 3 11 4
v -6 10 3
v -6 11 3
v -5 10 3
v -5 11 3
v -7 2 1
v -7 11 1
v -6 2 1
v -6 11 1
v -6 3 -3
v -6 11 -3
v -5 3 -3
v -5 11 -3
v -1 11 -3
v -1 12 -3
v 0 11 -3
v 0 12 -3
v -8 1 -6
v -8 2 -6
v -8 14 -6
v -8 15 -6
v -7 1 -6
v -7 2 -6
v -7 14 -6
v -7 15 -6
v 7 1 -6
v 7 2 -6
v 7 14 -6
v 7 15 -6
v 8 1 -6
v 8 2 -6
v 8 14 -6
v 8 15 -6
v -8 2 -7
v -8 14 -7
v -7 1 -7
v -7 2 -7
v -7 5 -7
v -7 12 -7
v -7 14 -7
v -7 15 -7
v -6 5 -7
v -6 10 -7
v -6 11 -7
v -6 12 -7
v -6 14 -7
v -6 15 -7
v -5 3 -7
v -5 4 -7
v -5 9 -7
v -5 10 -7
v -5 11 -7
v -5 14 -7
v -5 15 -7
v -4 3 -7
v -4 4 -7
v -4 9 -7
v -4 10 -7
v -4 11 -7
v -3 5 -7
v -3 10 -7
v -3 11 -7
v -3 12 -7
v -2 5 -7
v -2 12 -7
v -1 5 -7
v -1 12 -7
v 0 6 -7
v 0 11 -7
v 1 6 -7
v 1 11 -7
v 2 5 -7
v 2 12 -7
v 3 5 -7
v 3 12 -7
v 3 13 -7
v 3 14 -7
v 4 5 -7
v 4 6 -7
v 4 9 -7
v 4 12 -7
v 4 13 -7
v 4 14 -7
v 5 2 -7
v 5 3 -7
v 5 6 -7
v 5 8 -7
v 5 9 -7
v 5 11 -7
v 6 2 -7
v 6 3 -7
v 6 5 -7
v 6 8 -7
v 6 11 -7
v 6 12 -7
v 7 1 -7
v 7 2 -7
v 7 5 -7
v 7 6 -7
v 7 7 -7
v 7 12 -7
v 7 14 -7
v 7 15 -7
v 8 2 -7
v 8 6 -7
v 8 7 -7
v 8 14 -7
v -6 1 6
v -5 1 6
v 7 1 6
v -7 1 5
v -6 1 5
v -5 1 5
v 7 1 5
v 8 1 5
v -8 1 3
v -7 1 3
v -8 1 -6
v -7 1 -6
v 7 1 -6
v 8 1 -6
v -7 1 -7
v 7 1 -7
v -8 2 6
v -6 2 6
v 7 2 6
v 8 2 6
v -7 2 5
v -6 2 5
v 7 2 5
v 8 2 5
v -8 2 3
v -7 2 3
v -8 2 -6
v -7 2 -6
v 7 2 -6
v 8 2 -6
v -8 2 -7
v -7 2 -7
v 7 2 -7
v 8 2 -7
v -1 4 6
v 3 4 6
v -1 4 5
v 3 4 5
v -2 5 6
v -1 5 6
v 3 5 6
v 4 5 6
v -2 5 5
v -1 5 5
v 3 5 5
v 4 5 5
v -3 11 6
v -1 11 6
v 3 11 6
v 5 11 6
v -3 11 5
v -1 11 5
v 3 11 5
v 5 11 5
v 2 11 4
v 3 11 4
v -6 11 3
v -5 11 3
v 2 11 3
v 3 11 3
v -6 11 2
v -5 11 2
v -7 11 1
v -6 11 1
v -7 11 -3
v -6 11 -3
v -5 11 -3
v -6 11 -4
v -5 11 -4
v -1 12 -3
v 0 12 -3
v -1 12 -4
v 0 12 -4
v -7 2 1
v -6 2 1
v -7 2 -0
v -6 2 -0
v -1 3 6
v 3 3 6
v -1 3 5
v 3 3 5
v -7 3 -0
v -6 3 -0
v -7 3 -3
v -6 3 -3
v -5 3 -3
v -6 3 -4
v -5 3 -4
v -2 4 6
v -1 4 6
v 3 4 6
v 4 4 6
v -2 4 5
v -1 4 5
v 3 4 5
v 4 4 5
v -3 9 6
v -1 9 6
v 3 9 6
v 5 9 6
v -3 9 5
v -2 9 5
v -1 9 5
v 3 9 5
v 4 9 5
v 5 9 5
v 2 10 4
v 3 10 4
v -6 10 3
v -5 10 3
v 2 10 3
v 3 10 3
v -6 10 2
v -5 10 2
v -1 11 -3
v 0 11 -3
v -1 11 -4
v 0 11 -4
v -8 14 6
v -7 14 6
v 7 14 6
v 8 14 6
v -8 14 5
v -7 14 5
v 7 14 5
v 8 14 5
v -8 14 -6
v -7 14 -6
v 7 14 -6
v 8 14 -6
v -8 14 -7
v -7 14 -7
v 7 14 -7
v 8 14 -7
v -7 15 6
v -2 15 6
v -1 15 6
v 7 15 6
v -8 15 5
v -7 15 5
v -2 15 5
v -1 15 5
v 7 15 5
v 8 15 5
v -5 15 4
v -4 15 4
v 0 15 4
v 1 15 4
v -5 15 3
v -4 15 3
v 0 15 3
v 1 15 3
v 4 15 2
v 5 15 2
v 4 15 1
v 5 15 1
v 7 15 1
v 8 15 1
v 1 15 -0
v 2 15 -0
v 7 15 -0
v 8 15 -0
v -6 15 -1
v -5 15 -1
v 1 15 -1
v 2 15 -1
v -6 15 -2
v -5 15 -2
v -3 15 -4
v -2 15 -4
v 3 15 -4
v 4 15 -4
v -3 15 -5
v -2 15 -5
v 3 15 -5
v 4 15 -5
v -8 15 -6
v -7 15 -6
v -6 15 -6
v -5 15 -6
v 7 15 -6
v 8 15 -6
v -7 15 -7
v -6 15 -7
v -5 15 -7
v 7 15 -7

# faces
f 4/3/1 2/3/1 1/3/1
f 5/3/1 2/3/1 4/3/1
f 7/3/1 4/3/1 3/3/1
f 7/3/1 6/3/1 5/3/1
f 7/3/1 5/3/1 4/3/1
f 8/3/1 6/3/1 7/3/1
f 9/3/1 7/3/1 3/3/1
f 9/2/1 8/2/1 7/2/1
f 10/3/1 6/3/1 8/3/1
f 10/2/1 8/2/1 9/2/1
f 11/3/1 9/3/1 3/3/1
f 11/3/1 10/3/1 9/3/1
f 12/3/1 6/3/1 10/3/1
f 12/3/1 10/3/1 11/3/1
f 13/3/1 11/3/1 3/3/1
f 14/3/1 11/3/1 13/3/1
f 15/2/1 12/2/1 11/2/1
f 15/3/1 11/3/1 14/3/1
f 16/3/1 6/3/1 12/3/1
f 16/2/1 12/2/1 15/2/1
f 17/2/1 14/2/1 13/2/1
f 17/3/1 13/3/1 3/3/1
f 18/3/1 15/3/1 14/3/1
f 18/2/1 14/2/1 17/2/1
f 18/3/1 16/3/1 15/3/1
f 19/3/1 17/3/1 3/3/1
f 19/3/1 18/3/1 17/3/1
f 20/3/1 18/3/1 19/3/1
f 21/3/1 18/3/1 20/3/1
f 22/3/1 16/3/1 18/3/1
f 22/3/1 18/3/1 21/3/1
f 23/3/1 19/3/1 3/3/1
f 23/2/1 20/2/1 19/2/1
f 24/3/1 21/3/1 20/3/1
f 24/2/1 20/2/1 23/2/1
f 25/3/1 21/3/1 24/3/1
f 26/3/1 21/3/1 25/3/1
f 27/2/1 22/2/1 21/2/1
f 27/3/1 21/3/1 26/3/1
f 28/3/1 16/3/1 22/3/1
f 28/2/1 22/2/1 27/2/1
f 29/2/1 26/2/1 25/2/1
f 29/3/1 24/3/1 23/3/1
f 29/3/1 25/3/1 24/3/1
f 30/3/1 27/3/1 26/3/1
f 30/2/1 26/2/1 29/2/1
f 30/3/1 28/3/1 27/3/1
f 31/3/1 23/3/1 3/3/1
f 31/3/1 29/3/1 23/3/1
f 31/3/1 30/3/1 29/3/1
f 32/3/1 30/3/1 31/3/1
f 33/3/1 28/3/1 30/3/1
f 33/3/1 30/3/1 32/3/1
f 33/3/1 6/3/1 16/3/1
f 33/3/1 16/3/1 28/3/1
f 34/3/1 6/3/1 33/3/1
f 35/3/1 33/3/1 32/3/1
f 36/3/1 33/3/1 35/3/1
f 41/3/1 38/3/1 37/3/1
f 42/3/1 38/3/1 41/3/1
f 43/3/1 40/3/1 39/3/1
f 44/3/1 40/3/1 43/3/1
f 49/3/1 46/3/1 45/3/1
f 50/3/1 46/3/1 49/3/1
f 51/3/1 48/3/1 47/3/1
f 52/3/1 48/3/1 51/3/1
f 55/2/1 54/2/1 53/2/1
f 56/2/1 54/2/1 55/2/1
f 59/6/1 58/6/1 57/6/1
f 61/6/1 59/6/1 57/6/1
f 61/6/1 60/6/1 59/6/1
f 62/6/1 60/6/1 61/6/1
f 65/5/1 64/5/1 63/5/1
f 68/5/1 67/5/1 66/5/1
f 69/5/1 67/5/1 68/5/1
f 70/5/1 65/5/1 63/5/1
f 71/5/1 65/5/1 70/5/1
f 74/3/1 73/3/1 72/3/1
f 75/3/1 73/3/1 74/3/1
f 78/3/1 77/3/1 76/3/1
f 79/3/1 78/3/1 76/3/1
f 80/3/1 78/3/1 79/3/1
f 83/5/1 82/5/1 81/5/1
f 84/5/1 82/5/1 83/5/1
f 87/3/1 86/3/1 85/3/1
f 88/3/1 86/3/1 87/3/1
f 91/5/1 90/5/1 89/5/1
f 92/5/1 90/5/1 91/5/1
f 95/3/1 94/3/1 93/3/1
f 96/3/1 94/3/1 95/3/1
f 99/3/1 98/3/1 97/3/1
f 100/3/1 99/3/1 97/3/1
f 101/3/1 99/3/1 100/3/1
f 102/3/2 103/3/2 104/3/2
f 102/3/2 104/3/2 106/3/2
f 104/3/2 105/3/2 106/3/2
f 106/3/2 105/3/2 107/3/2
f 108/6/2 109/6/2 110/6/2
f 111/6/2 112/6/2 113/6/2
f 113/6/2 112/6/2 114/6/2
f 108/6/2 110/6/2 115/6/2
f 115/6/2 110/6/2 116/6/2
f 117/3/2 118/3/2 119/3/2
f 119/3/2 118/3/2 120/3/2
f 121/3/2 122/3/2 123/3/2
f 123/3/2 122/3/2 124/3/2
f 125/3/2 126/3/2 127/3/2
f 127/3/2 126/3/2 128/3/2
f 129/5/2 130/5/2 131/5/2
f 131/5/2 130/5/2 132/5/2
f 133/5/2 134/5/2 135/5/2
f 135/5/2 134/5/2 136/5/2
f 137/3/2 138/3/2 139/3/2
f 139/3/2 138/3/2 140/3/2
f 141/3/2 142/3/2 143/3/2
f 143/3/2 142/3/2 144/3/2
f 145/3/2 146/3/2 149/3/2
f 149/3/2 146/3/2 150/3/2
f 147/3/2 148/3/2 151/3/2
f 151/3/2 148/3/2 152/3/2
f 153/3/2 154/3/2 157/3/2
f 157/3/2 154/3/2 158/3/2
f 155/3/2 156/3/2 159/3/2
f 159/3/2 156/3/2 160/3/2
f 161/3/2 162/3/2 164/3/2
f 164/3/2 162/3/2 165/3/2
f 165/3/2 162/3/2 166/3/2
f 166/3/2 162/3/2 167/3/2
f 163/3/2 164/3/2 169/3/2
f 164/3/2 165/3/2 169/3/2
f 165/2/2 166/2/2 169/2/2
f 167/3/2 168/3/2 170/3/2
f 169/2/2 166/2/2 170/2/2
f 166/3/2 167/3/2 170/3/2
f 163/3/2 169/3/2 171/3/2
f 169/3/2 170/3/2 171/3/2
f 171/3/2 170/3/2 172/3/2
f 171/2/2 172/2/2 173/2/2
f 172/3/2 170/3/2 174/3/2
f 173/2/2 172/2/2 174/2/2
f 174/3/2 170/3/2 175/3/2
f 175/3/2 170/3/2 176/3/2
f 173/3/2 174/3/2 177/3/2
f 174/3/2 175/3/2 177/3/2
f 177/3/2 175/3/2 178/3/2
f 175/2/2 176/2/2 179/2/2
f 178/3/2 175/3/2 179/3/2
f 176/3/2 170/3/2 180/3/2
f 179/2/2 176/2/2 180/2/2
f 170/3/2 168/3/2 181/3/2
f 180/3/2 170/3/2 181/3/2
f 181/3/2 168/3/2 182/3/2
f 177/2/2 178/2/2 183/2/2
f 173/3/2 177/3/2 183/3/2
f 179/3/2 180/3/2 184/3/2
f 183/2/2 178/2/2 184/2/2
f 178/3/2 179/3/2 184/3/2
f 180/3/2 181/3/2 184/3/2
f 184/3/2 181/3/2 185/3/2
f 185/3/2 181/3/2 186/3/2
f 181/2/2 182/2/2 187/2/2
f 186/3/2 181/3/2 187/3/2
f 187/2/2 182/2/2 188/2/2
f 185/2/2 186/2/2 189/2/2
f 183/3/2 184/3/2 189/3/2
f 184/3/2 185/3/2 189/3/2
f 187/3/2 188/3/2 190/3/2
f 189/2/2 186/2/2 190/2/2
f 186/3/2 187/3/2 190/3/2
f 189/3/2 190/3/2 191/3/2
f 190/3/2 188/3/2 191/3/2
f 191/3/2 188/3/2 192/3/2
f 183/3/2 189/3/2 193/3/2
f 189/3/2 191/3/2 193/3/2
f 193/3/2 191/3/2 194/3/2
f 191/2/2 192/2/2 195/2/2
f 194/3/2 191/3/2 195/3/2
f 192/3/2 188/3/2 196/3/2
f 195/2/2 192/2/2 196/2/2
f 193/2/2 194/2/2 197/2/2
f 183/3/2 193/3/2 197/3/2
f 194/3/2 195/3/2 198/3/2
f 197/2/2 194/2/2 198/2/2
f 195/3/2 196/3/2 198/3/2
f 197/3/2 198/3/2 199/3/2
f 198/3/2 196/3/2 199/3/2
f 199/3/2 196/3/2 200/3/2
f 200/3/2 196/3/2 201/3/2
f 196/3/2 188/3/2 202/3/2
f 201/3/2 196/3/2 202/3/2
f 173/3/2 183/3/2 203/3/2
f 183/3/2 197/3/2 203/3/2
f 197/3/2 199/3/2 203/3/2
f 203/3/2 199/3/2 204/3/2
f 204/3/2 199/3/2 205/3/2
f 199/2/2 200/2/2 206/2/2
f 205/3/2 199/3/2 206/3/2
f 200/3/2 201/3/2 207/3/2
f 206/2/2 200/2/2 207/2/2
f 201/2/2 202/2/2 208/2/2
f 207/3/2 201/3/2 208/3/2
f 202/3/2 188/3/2 209/3/2
f 208/2/2 202/2/2 209/2/2
f 209/3/2 188/3/2 210/3/2
f 210/3/2 188/3/2 211/3/2
f 204/3/2 205/3/2 212/3/2
f 205/2/2 206/2/2 213/2/2
f 212/3/2 205/3/2 213/3/2
f 207/3/2 208/3/2 214/3/2
f 213/2/2 206/2/2 214/2/2
f 206/3/2 207/3/2 214/3/2
f 208/3/2 209/3/2 214/3/2
f 209/3/2 210/3/2 214/3/2
f 214/3/2 210/3/2 215/3/2
f 218/3/3 217/3/3 216/3/3
f 219/3/3 217/3/3 218/3/3
f 220/3/3 217/3/3 219/3/3
f 223/3/3 218/3/3 216/3/3
f 224/3/3 218/3/3 223/3/3
f 225/3/3 218/3/3 224/3/3
f 226/2/3 219/2/3 218/2/3
f 226/3/3 218/3/3 225/3/3
f 227/3/3 221/3/3 220/3/3
f 227/2/3 219/2/3 226/2/3
f 227/3/3 220/3/3 219/3/3
f 228/2/3 223/2/3 222/2/3
f 229/3/3 224/3/3 223/3/3
f 229/2/3 223/2/3 228/2/3
f 230/2/3 225/2/3 224/2/3
f 230/3/3 224/3/3 229/3/3
f 231/3/3 226/3/3 225/3/3
f 231/2/3 225/2/3 230/2/3
f 231/3/3 227/3/3 226/3/3
f 232/3/3 230/3/3 229/3/3
f 232/3/3 229/3/3 228/3/3
f 232/3/3 231/3/3 230/3/3
f 233/3/3 231/3/3 232/3/3
f 234/3/3 231/3/3 233/3/3
f 235/3/3 227/3/3 231/3/3
f 235/3/3 231/3/3 234/3/3
f 236/3/3 232/3/3 228/3/3
f 236/2/3 233/2/3 232/2/3
f 237/3/3 234/3/3 233/3/3
f 237/2/3 233/2/3 236/2/3
f 238/3/3 227/3/3 235/3/3
f 239/3/3 227/3/3 238/3/3
f 240/3/3 234/3/3 237/3/3
f 240/3/3 237/3/3 236/3/3
f 241/3/3 234/3/3 240/3/3
f 242/4/3 235/4/3 234/4/3
f 242/3/3 234/3/3 241/3/3
f 243/3/3 238/3/3 235/3/3
f 243/4/3 235/4/3 242/4/3
f 244/3/3 221/3/3 227/3/3
f 244/3/3 227/3/3 239/3/3
f 245/3/3 221/3/3 244/3/3
f 246/3/3 240/3/3 236/3/3
f 247/3/3 240/3/3 246/3/3
f 248/3/3 243/3/3 242/3/3
f 248/3/3 242/3/3 241/3/3
f 249/3/3 238/3/3 243/3/3
f 249/3/3 243/3/3 248/3/3
f 250/3/3 244/3/3 239/3/3
f 251/2/3 245/2/3 244/2/3
f 251/3/3 244/3/3 250/3/3
f 252/2/3 245/2/3 251/2/3
f 253/3/3 248/3/3 247/3/3
f 253/3/3 252/3/3 251/3/3
f 253/3/3 251/3/3 250/3/3
f 253/3/3 250/3/3 249/3/3
f 253/3/3 249/3/3 248/3/3
f 254/3/3 252/3/3 253/3/3
f 255/3/3 253/3/3 247/3/3
f 255/2/3 254/2/3 253/2/3
f 256/3/3 252/3/3 254/3/3
f 256/2/3 254/2/3 255/2/3
f 257/3/3 252/3/3 256/3/3
f 258/3/3 252/3/3 257/3/3
f 259/3/3 246/3/3 236/3/3
f 260/3/3 255/3/3 247/3/3
f 260/3/3 256/3/3 255/3/3
f 260/3/3 257/3/3 256/3/3
f 261/3/3 257/3/3 260/3/3
f 262/3/3 257/3/3 261/3/3
f 263/3/3 257/3/3 262/3/3
f 264/2/3 258/2/3 257/2/3
f 264/3/3 257/3/3 263/3/3
f 265/3/3 252/3/3 258/3/3
f 265/2/3 258/2/3 264/2/3
f 266/3/3 260/3/3 259/3/3
f 267/3/3 262/3/3 261/3/3
f 268/3/3 262/3/3 267/3/3
f 269/3/3 262/3/3 268/3/3
f 270/3/3 262/3/3 269/3/3
f 271/3/3 264/3/3 263/3/3
f 271/3/3 265/3/3 264/3/3
f 272/4/3 269/4/3 268/4/3
f 272/3/3 267/3/3 266/3/3
f 272/3/3 268/3/3 267/3/3
f 273/3/3 270/3/3 269/3/3
f 273/4/3 269/4/3 272/4/3
f 273/3/3 271/3/3 270/3/3
f 274/3/3 252/3/3 265/3/3
f 274/3/3 271/3/3 273/3/3
f 274/3/3 265/3/3 271/3/3
f 275/3/3 252/3/3 274/3/3
f 276/3/3 236/3/3 228/3/3
f 276/3/3 272/3/3 266/3/3
f 276/3/3 259/3/3 236/3/3
f 276/3/3 274/3/3 273/3/3
f 276/3/3 273/3/3 272/3/3
f 276/3/3 266/3/3 259/3/3
f 277/3/3 274/3/3 276/3/3
f 278/3/3 274/3/3 277/3/3
f 279/3/3 274/3/3 278/3/3
f 280/2/3 275/2/3 274/2/3
f 280/3/3 274/3/3 279/3/3
f 281/3/3 252/3/3 275/3/3
f 281/2/3 275/2/3 280/2/3
f 282/3/3 252/3/3 281/3/3
f 283/3/3 278/3/3 277/3/3
f 284/2/3 279/2/3 278/2/3
f 284/3/3 278/3/3 283/3/3
f 285/3/3 280/3/3 279/3/3
f 285/2/3 279/2/3 284/2/3
f 285/3/3 281/3/3 280/3/3
f 286/3/3 281/3/3 285/3/3
f 291/3/3 288/3/3 287/3/3
f 292/3/3 288/3/3 291/3/3
f 293/3/3 290/3/3 289/3/3
f 294/3/3 290/3/3 293/3/3
f 299/7/3 296/7/3 295/7/3
f 300/7/3 296/7/3 299/7/3
f 302/8/3 298/8/3 297/8/3
f 303/8/3 298/8/3 302/8/3
f 304/8/3 300/8/3 299/8/3
f 305/7/3 296/7/3 300/7/3
f 305/8/3 300/8/3 304/8/3
f 306/7/3 296/7/3 305/7/3
f 307/8/3 302/8/3 301/8/3
f 308/8/3 302/8/3 307/8/3
f 312/8/3 309/8/3 308/8/3
f 313/8/3 309/8/3 312/8/3
f 314/7/3 311/7/3 310/7/3
f 315/7/3 311/7/3 314/7/3
f 316/8/3 315/8/3 314/8/3
f 317/7/3 311/7/3 315/7/3
f 317/8/3 315/8/3 316/8/3
f 318/7/3 311/7/3 317/7/3
f 323/3/3 320/3/3 319/3/3
f 324/3/3 320/3/3 323/3/3
f 325/3/3 322/3/3 321/3/3
f 326/3/3 322/3/3 325/3/3
f 329/3/3 328/3/3 327/3/3
f 330/3/3 328/3/3 329/3/3
f 333/5/3 332/5/3 331/5/3
f 334/5/3 332/5/3 333/5/3
f 337/6/3 336/6/3 335/6/3
f 338/6/3 336/6/3 337/6/3
f 341/6/3 340/6/3 339/6/3
f 342/6/3 340/6/3 341/6/3
f 345/6/3 344/6/3 343/6/3
f 346/6/3 344/6/3 345/6/3
f 350/5/3 348/5/3 347/5/3
f 351/3/3 349/3/3 348/3/3
f 351/5/3 348/5/3 350/5/3
f 352/3/3 349/3/3 351/3/3
f 355/5/3 354/5/3 353/5/3
f 356/5/3 354/5/3 355/5/3
f 357/8/4 358/8/4 359/8/4
f 359/8/4 358/8/4 360/8/4
f 361/5/4 362/5/4 363/5/4
f 363/5/4 362/5/4 364/5/4
f 365/3/4 366/3/4 367/3/4
f 367/3/4 366/3/4 368/3/4
f 369/6/4 370/6/4 371/6/4
f 371/6/4 370/6/4 372/6/4
f 373/5/4 374/5/4 375/5/4
f 375/5/4 374/5/4 376/5/4
f 377/3/4 378/3/4 381/3/4
f 381/3/4 378/3/4 382/3/4
f 379/3/4 380/3/4 383/3/4
f 383/3/4 380/3/4 384/3/4
f 385/3/4 386/3/4 389/3/4
f 389/3/4 386/3/4 390/3/4
f 387/3/4 388/3/4 391/3/4
f 391/3/4 388/3/4 392/3/4
f 393/3/4 394/3/4 396/3/4
f 396/3/4 394/3/4 397/3/4
f 397/3/4 394/3/4 398/3/4
f 398/3/4 394/3/4 399/3/4
f 395/3/4 396/3/4 401/3/4
f 396/3/4 397/3/4 401/3/4
f 397/7/4 398/7/4 401/7/4
f 401/7/4 398/7/4 402/7/4
f 402/7/4 398/7/4 403/7/4
f 399/3/4 400/3/4 404/3/4
f 403/7/4 398/7/4 404/7/4
f 398/3/4 399/3/4 404/3/4
f 404/3/4 400/3/4 405/3/4
f 405/3/4 400/3/4 406/3/4
f 401/3/4 402/3/4 407/3/4
f 395/3/4 401/3/4 407/3/4
f 407/3/4 402/3/4 408/3/4
f 408/3/4 402/3/4 409/3/4
f 402/7/4 403/7/4 410/7/4
f 409/3/4 402/3/4 410/3/4
f 403/3/4 404/3/4 411/3/4
f 410/7/4 403/7/4 411/7/4
f 404/3/4 405/3/4 411/3/4
f 405/1/4 406/1/4 412/1/4
f 411/3/4 405/3/4 412/3/4
f 412/1/4 406/1/4 413/1/4
f 407/1/4 408/1/4 414/1/4
f 395/3/4 407/3/4 414/3/4
f 408/3/4 409/3/4 415/3/4
f 414/1/4 408/1/4 415/1/4
f 409/7/4 410/7/4 416/7/4
f 415/3/4 409/3/4 416/3/4
f 410/3/4 411/3/4 417/3/4
f 416/7/4 410/7/4 417/7/4
f 412/3/4 413/3/4 417/3/4
f 411/3/4 412/3/4 417/3/4
f 417/3/4 413/3/4 418/3/4
f 415/3/4 416/3/4 419/3/4
f 414/3/4 415/3/4 419/3/4
f 416/3/4 417/3/4 419/3/4
f 417/7/4 418/7/4 420/7/4
f 419/3/4 417/3/4 420/3/4
f 418/3/4 413/3/4 421/3/4
f 420/7/4 418/7/4 421/7/4
f 421/3/4 413/3/4 422/3/4
f 419/7/4 420/7/4 423/7/4
f 414/3/4 419/3/4 423/3/4
f 421/7/4 422/7/4 423/7/4
f 420/7/4 421/7/4 423/7/4
f 422/3/4 413/3/4 424/3/4
f 423/7/4 422/7/4 424/7/4
f 414/3/4 423/3/4 425/3/4
f 423/3/4 424/3/4 425/3/4
f 424/3/4 413/3/4 426/3/4
f 425/3/4 424/3/4 426/3/4
f 425/7/4 426/7/4 427/7/4
f 427/7/4 426/7/4 428/7/4
f 425/7/4 427/7/4 429/7/4
f 427/3/4 428/3/4 429/3/4
f 428/7/4 426/7/4 430/7/4
f 429/3/4 428/3/4 430/3/4
f 414/3/4 425/3/4 431/3/4
f 425/7/4 429/7/4 431/7/4
f 429/7/4 430/7/4 431/7/4
f 430/7/4 426/7/4 432/7/4
f 431/7/4 430/7/4 432/7/4
f 426/3/4 413/3/4 432/3/4
f 414/3/4 431/3/4 433/3/4
f 431/3/4 432/3/4 433/3/4
f 432/3/4 413/3/4 434/3/4
f 433/3/4 432/3/4 434/3/4
f 434/3/4 413/3/4 435/3/4
f 435/3/4 413/3/4 436/3/4
f 414/3/4 433/3/4 437/3/4
f 433/7/4 434/7/4 437/7/4
f 437/7/4 434/7/4 438/7/4
f 438/7/4 434/7/4 439/7/4
f 434/3/4 435/3/4 440/3/4
f 439/7/4 434/7/4 440/7/4
f 435/1/4 436/1/4 441/1/4
f 440/3/4 435/3/4 441/3/4
f 436/3/4 413/3/4 442/3/4
f 441/1/4 436/1/4 442/1/4
f 395/3/4 414/3/4 443/3/4
f 414/3/4 437/3/4 443/3/4
f 437/3/4 438/3/4 443/3/4
f 443/3/4 438/3/4 444/3/4
f 438/7/4 439/7/4 445/7/4
f 444/3/4 438/3/4 445/3/4
f 445/7/4 439/7/4 446/7/4
f 440/3/4 441/3/4 447/3/4
f 446/7/4 439/7/4 447/7/4
f 439/3/4 440/3/4 447/3/4
f 441/3/4 442/3/4 447/3/4
f 447/3/4 442/3/4 448/3/4
f 443/1/4 444/1/4 449/1/4
f 395/3/4 443/3/4 449/3/4
f 445/3/4 446/3/4 450/3/4
f 449/1/4 444/1/4 450/1/4
f 444/3/4 445/3/4 450/3/4
f 450/3/4 446/3/4 451/3/4
f 446/7/4 447/7/4 452/7/4
f 451/3/4 446/3/4 452/3/4
f 447/7/4 448/7/4 452/7/4
f 448/3/4 442/3/4 453/3/4
f 452/7/4 448/7/4 453/7/4
f 453/3/4 442/3/4 454/3/4
f 395/3/4 449/3/4 455/3/4
f 450/3/4 451/3/4 455/3/4
f 449/3/4 450/3/4 455/3/4
f 455/3/4 451/3/4 456/3/4
f 453/7/4 454/7/4 457/7/4
f 456/3/4 451/3/4 457/3/4
f 451/7/4 452/7/4 457/7/4
f 452/7/4 453/7/4 457/7/4
f 457/7/4 454/7/4 458/7/4
f 458/7/4 454/7/4 459/7/4
f 454/3/4 442/3/4 460/3/4
f 459/7/4 454/7/4 460/7/4
f 442/3/4 413/3/4 461/3/4
f 460/3/4 442/3/4 461/3/4
f 461/3/4 413/3/4 462/3/4
f 456/3/4 457/3/4 463/3/4
f 457/3/4 458/3/4 463/3/4
f 458/2/4 459/2/4 464/2/4
f 463/3/4 458/3/4 464/3/4
f 459/3/4 460/3/4 465/3/4
f 464/2/4 459/2/4 465/2/4
f 460/3/4 461/3/4 465/3/4
f 465/3/4 461/3/4 466/3/4
f 471/2/5 468/2/5 467/2/5
f 472/3/5 469/3/5 468/3/5
f 472/2/5 468/2/5 471/2/5
f 473/3/5 469/3/5 472/3/5
f 476/3/5 471/3/5 470/3/5
f 476/3/5 474/3/5 473/3/5
f 476/3/5 473/3/5 472/3/5
f 476/3/5 472/3/5 471/3/5
f 477/3/5 476/3/5 475/3/5
f 478/3/5 474/3/5 476/3/5
f 478/3/5 476/3/5 477/3/5
f 479/3/5 474/3/5 478/3/5
f 480/3/5 474/3/5 479/3/5
f 481/3/5 479/3/5 478/3/5
f 482/3/5 479/3/5 481/3/5
f 487/3/5 484/3/5 483/3/5
f 488/3/5 484/3/5 487/3/5
f 489/3/5 486/3/5 485/3/5
f 490/3/5 486/3/5 489/3/5
f 491/3/5 487/3/5 483/3/5
f 492/3/5 487/3/5 491/3/5
f 497/3/5 494/3/5 493/3/5
f 498/3/5 494/3/5 497/3/5
f 499/3/5 496/3/5 495/3/5
f 500/3/5 496/3/5 499/3/5
f 503/3/5 502/3/5 501/3/5
f 504/3/5 502/3/5 503/3/5
f 509/3/5 506/3/5 505/3/5
f 510/3/5 506/3/5 509/3/5
f 511/3/5 508/3/5 507/3/5
f 512/3/5 508/3/5 511/3/5
f 517/3/5 514/3/5 513/3/5
f 518/3/5 514/3/5 517/3/5
f 519/3/5 516/3/5 515/3/5
f 520/3/5 516/3/5 519/3/5
f 525/5/5 522/5/5 521/5/5
f 526/5/5 522/5/5 525/5/5
f 527/5/5 524/5/5 523/5/5
f 528/5/5 524/5/5 527/5/5
f 531/6/5 530/6/5 529/6/5
f 532/6/5 530/6/5 531/6/5
f 534/5/5 533/5/5 532/5/5
f 535/5/5 533/5/5 534/5/5
f 538/5/5 537/5/5 536/5/5
f 539/5/5 537/5/5 538/5/5
f 540/3/6 541/3/6 542/3/6
f 542/3/6 541/3/6 543/3/6
f 544/3/6 545/3/6 546/3/6
f 546/3/6 545/3/6 547/3/6
f 548/6/6 549/6/6 550/6/6
f 550/6/6 549/6/6 551/6/6
f 551/5/6 552/5/6 553/5/6
f 553/5/6 552/5/6 554/5/6
f 555/3/6 556/3/6 559/3/6
f 559/3/6 556/3/6 560/3/6
f 557/3/6 558/3/6 561/3/6
f 561/3/6 558/3/6 562/3/6
f 563/3/6 564/3/6 567/3/6
f 567/3/6 564/3/6 568/3/6
f 568/3/6 564/3/6 569/3/6
f 565/3/6 566/3/6 570/3/6
f 570/3/6 566/3/6 571/3/6
f 571/3/6 566/3/6 572/3/6
f 573/5/6 574/5/6 577/5/6
f 577/5/6 574/5/6 578/5/6
f 575/6/6 576/6/6 579/6/6
f 579/6/6 576/6/6 580/6/6
f 581/5/6 582/5/6 583/5/6
f 583/5/6 582/5/6 584/5/6
f 585/3/6 586/3/6 589/3/6
f 589/3/6 586/3/6 590/3/6
f 587/3/6 588/3/6 591/3/6
f 591/3/6 588/3/6 592/3/6
f 593/3/6 594/3/6 597/3/6
f 597/3/6 594/3/6 598/3/6
f 595/3/6 596/3/6 599/3/6
f 599/3/6 596/3/6 600/3/6
f 601/3/6 602/3/6 606/3/6
f 602/2/6 603/2/6 607/2/6
f 606/3/6 602/3/6 607/3/6
f 603/3/6 604/3/6 608/3/6
f 607/2/6 603/2/6 608/2/6
f 608/3/6 604/3/6 609/3/6
f 606/3/6 607/3/6 611/3/6
f 609/3/6 610/3/6 611/3/6
f 608/3/6 609/3/6 611/3/6
f 607/3/6 608/3/6 611/3/6
f 605/3/6 606/3/6 611/3/6
f 611/3/6 610/3/6 612/3/6
f 612/3/6 610/3/6 613/3/6
f 613/3/6 610/3/6 614/3/6
f 605/3/6 611/3/6 615/3/6
f 611/2/6 612/2/6 615/2/6
f 612/3/6 613/3/6 616/3/6
f 615/2/6 612/2/6 616/2/6
f 613/2/6 614/2/6 617/2/6
f 616/3/6 613/3/6 617/3/6
f 614/3/6 610/3/6 618/3/6
f 617/2/6 614/2/6 618/2/6
f 616/3/6 617/3/6 619/3/6
f 618/3/6 610/3/6 619/3/6
f 617/3/6 618/3/6 619/3/6
f 615/3/6 616/3/6 619/3/6
f 619/3/6 610/3/6 620/3/6
f 615/3/6 619/3/6 621/3/6
f 619/2/6 620/2/6 621/2/6
f 620/3/6 610/3/6 622/3/6
f 621/2/6 620/2/6 622/2/6
f 622/3/6 610/3/6 623/3/6
f 623/3/6 610/3/6 624/3/6
f 615/3/6 621/3/6 625/3/6
f 621/3/6 622/3/6 625/3/6
f 622/3/6 623/3/6 625/3/6
f 625/3/6 623/3/6 626/3/6
f 623/2/6 624/2/6 627/2/6
f 626/3/6 623/3/6 627/3/6
f 627/2/6 624/2/6 628/2/6
f 605/3/6 615/3/6 629/3/6
f 615/3/6 625/3/6 629/3/6
f 629/3/6 625/3/6 630/3/6
f 625/2/6 626/2/6 631/2/6
f 630/3/6 625/3/6 631/3/6
f 627/3/6 628/3/6 632/3/6
f 631/2/6 626/2/6 632/2/6
f 626/3/6 627/3/6 632/3/6
f 629/2/6 630/2/6 633/2/6
f 605/3/6 629/3/6 633/3/6
f 630/3/6 631/3/6 634/3/6
f 633/2/6 630/2/6 634/2/6
f 631/3/6 632/3/6 634/3/6
f 633/3/6 634/3/6 635/3/6
f 634/3/6 632/3/6 635/3/6
f 635/3/6 632/3/6 636/3/6
f 632/3/6 628/3/6 637/3/6
f 636/3/6 632/3/6 637/3/6
f 637/3/6 628/3/6 638/3/6
f 635/2/6 636/2/6 639/2/6
f 633/3/6 635/3/6 639/3/6
f 636/3/6 637/3/6 640/3/6
f 639/2/6 636/2/6 640/2/6
f 637/2/6 638/2/6 641/2/6
f 640/3/6 637/3/6 641/3/6
f 638/3/6 628/3/6 642/3/6
f 641/2/6 638/2/6 642/2/6
f 640/3/6 641/3/6 643/3/6
f 605/3/6 633/3/6 643/3/6
f 641/3/6 642/3/6 643/3/6
f 633/3/6 639/3/6 643/3/6
f 639/3/6 640/3/6 643/3/6
f 643/3/6 642/3/6 644/3/6
f 644/3/6 642/3/6 645/3/6
f 645/3/6 642/3/6 646/3/6
f 642/3/6 628/3/6 647/3/6
f 646/3/6 642/3/6 647/3/6
f 647/3/6 628/3/6 648/3/6
f 644/3/6 645/3/6 649/3/6
f 645/1/6 646/1/6 650/1/6
f 649/3/6 645/3/6 650/3/6
f 646/3/6 647/3/6 651/3/6
f 650/1/6 646/1/6 651/1/6
f 651/3/6 647/3/6 652/3/6
