# MagicaVoxel @ Ephtracy

# material
mtllib phoneTapToInteract.mtl
usemtl palette

# normals
vn -1 0 0
vn 1 0 0
vn 0 0 1
vn 0 0 -1
vn 0 -1 0
vn 0 1 0

# texcoords
vt 0.0839844 0.5
vt 0.720703 0.5
vt 0.841797 0.5
vt 0.853516 0.5
vt 0.880859 0.5
vt 0.896484 0.5
vt 0.958984 0.5
vt 0.982422 0.5
vt 0.986328 0.5
vt 0.990234 0.5
vt 0.994141 0.5

# verts
v -10 4 -9
v -10 4 -10
v -10 36 -9
v -10 36 -10
v -9 3 -9
v -9 3 -10
v -9 4 -8
v -9 4 -9
v -9 4 -10
v -9 36 -8
v -9 36 -9
v -9 36 -10
v -9 37 -9
v -9 37 -10
v -8 2 -9
v -8 2 -10
v -8 3 -8
v -8 3 -9
v -8 3 -10
v -8 4 -8
v -8 4 -9
v -8 25 -9
v -8 25 -10
v -8 28 -9
v -8 28 -10
v -8 36 -8
v -8 36 -9
v -8 37 -8
v -8 37 -9
v -8 37 -10
v -8 38 -9
v -8 38 -10
v -7 8 -8
v -7 8 -9
v -7 9 -8
v -7 9 -9
v -7 10 -8
v -7 10 -9
v -7 11 -8
v -7 11 -9
v -4 35 -8
v -4 35 -9
v -4 36 -8
v -4 36 -9
v -3 15 -8
v -3 15 -9
v -3 16 -8
v -3 16 -9
v -3 34 -8
v -3 34 -9
v -3 35 -8
v -3 35 -9
v -2 5 -8
v -2 5 -9
v -2 6 -8
v -2 6 -9
v -2 14 -8
v -2 14 -9
v -2 15 -8
v -2 15 -9
v -1 13 -8
v -1 13 -9
v -1 14 -8
v -1 14 -9
v -1 16 -8
v -1 16 -9
v -1 30 -8
v -1 30 -9
v 1 8 -8
v 1 8 -9
v 1 9 -8
v 1 9 -9
v 1 10 -8
v 1 10 -9
v 1 11 -8
v 1 11 -9
v 8 4 -8
v 8 4 -9
v 8 36 -8
v 8 36 -9
v -9 25 -9
v -9 25 -10
v -9 28 -9
v -9 28 -10
v -8 4 -8
v -8 4 -9
v -8 36 -8
v -8 36 -9
v -1 8 -8
v -1 8 -9
v -1 9 -8
v -1 9 -9
v -1 10 -8
v -1 10 -9
v -1 11 -8
v -1 11 -9
v 1 13 -8
v 1 13 -9
v 1 14 -8
v 1 14 -9
v 1 16 -8
v 1 16 -9
v 1 30 -8
v 1 30 -9
v 2 5 -8
v 2 5 -9
v 2 6 -8
v 2 6 -9
v 2 14 -8
v 2 14 -9
v 2 15 -8
v 2 15 -9
v 3 15 -8
v 3 15 -9
v 3 16 -8
v 3 16 -9
v 3 34 -8
v 3 34 -9
v 3 35 -8
v 3 35 -9
v 4 35 -8
v 4 35 -9
v 4 36 -8
v 4 36 -9
v 7 8 -8
v 7 8 -9
v 7 9 -8
v 7 9 -9
v 7 10 -8
v 7 10 -9
v 7 11 -8
v 7 11 -9
v 8 2 -9
v 8 2 -10
v 8 3 -8
v 8 3 -9
v 8 3 -10
v 8 4 -8
v 8 4 -9
v 8 36 -8
v 8 36 -9
v 8 37 -8
v 8 37 -9
v 8 37 -10
v 8 38 -9
v 8 38 -10
v 9 3 -9
v 9 3 -10
v 9 4 -8
v 9 4 -9
v 9 4 -10
v 9 36 -8
v 9 36 -9
v 9 36 -10
v 9 37 -9
v 9 37 -10
v 10 4 -9
v 10 4 -10
v 10 36 -9
v 10 36 -10
v -9 4 -8
v -9 36 -8
v -8 3 -8
v -8 4 -8
v -8 36 -8
v -8 37 -8
v -7 8 -8
v -7 9 -8
v -7 10 -8
v -7 11 -8
v -5 36 -8
v -5 37 -8
v -4 35 -8
v -4 36 -8
v -3 15 -8
v -3 16 -8
v -3 34 -8
v -3 35 -8
v -2 5 -8
v -2 6 -8
v -2 14 -8
v -2 15 -8
v -1 8 -8
v -1 9 -8
v -1 10 -8
v -1 11 -8
v -1 13 -8
v -1 14 -8
v -1 16 -8
v -1 30 -8
v 1 8 -8
v 1 9 -8
v 1 10 -8
v 1 11 -8
v 1 13 -8
v 1 14 -8
v 1 16 -8
v 1 30 -8
v 2 5 -8
v 2 6 -8
v 2 14 -8
v 2 15 -8
v 3 15 -8
v 3 16 -8
v 3 34 -8
v 3 35 -8
v 4 35 -8
v 4 36 -8
v 5 36 -8
v 5 37 -8
v 7 8 -8
v 7 9 -8
v 7 10 -8
v 7 11 -8
v 8 3 -8
v 8 4 -8
v 8 36 -8
v 8 37 -8
v 9 4 -8
v 9 36 -8
v -10 4 -9
v -10 36 -9
v -9 3 -9
v -9 4 -9
v -9 36 -9
v -9 37 -9
v -8 2 -9
v -8 3 -9
v -8 4 -9
v -8 36 -9
v -8 37 -9
v -8 38 -9
v -7 8 -9
v -7 9 -9
v -7 10 -9
v -7 11 -9
v -5 36 -9
v -5 37 -9
v -4 35 -9
v -4 36 -9
v -3 15 -9
v -3 16 -9
v -3 34 -9
v -3 35 -9
v -2 5 -9
v -2 6 -9
v -2 14 -9
v -2 15 -9
v -1 8 -9
v -1 9 -9
v -1 10 -9
v -1 11 -9
v -1 13 -9
v -1 14 -9
v -1 16 -9
v -1 30 -9
v 1 8 -9
v 1 9 -9
v 1 10 -9
v 1 11 -9
v 1 13 -9
v 1 14 -9
v 1 16 -9
v 1 30 -9
v 2 5 -9
v 2 6 -9
v 2 14 -9
v 2 15 -9
v 3 15 -9
v 3 16 -9
v 3 34 -9
v 3 35 -9
v 4 35 -9
v 4 36 -9
v 5 36 -9
v 5 37 -9
v 7 8 -9
v 7 9 -9
v 7 10 -9
v 7 11 -9
v 8 2 -9
v 8 3 -9
v 8 4 -9
v 8 36 -9
v 8 37 -9
v 8 38 -9
v 9 3 -9
v 9 4 -9
v 9 36 -9
v 9 37 -9
v 10 4 -9
v 10 36 -9
v -9 25 -9
v -9 28 -9
v -8 25 -9
v -8 28 -9
v -10 4 -10
v -10 36 -10
v -9 3 -10
v -9 4 -10
v -9 17 -10
v -9 25 -10
v -9 28 -10
v -9 36 -10
v -9 37 -10
v -8 2 -10
v -8 3 -10
v -8 4 -10
v -8 17 -10
v -8 25 -10
v -8 28 -10
v -8 36 -10
v -8 37 -10
v -8 38 -10
v -7 36 -10
v -7 37 -10
v 7 36 -10
v 7 37 -10
v 8 2 -10
v 8 3 -10
v 8 4 -10
v 8 36 -10
v 8 37 -10
v 8 38 -10
v 9 3 -10
v 9 4 -10
v 9 36 -10
v 9 37 -10
v 10 4 -10
v 10 36 -10
v -8 2 -9
v 8 2 -9
v -8 2 -10
v 8 2 -10
v -8 3 -8
v 8 3 -8
v -9 3 -9
v -8 3 -9
v 8 3 -9
v 9 3 -9
v -9 3 -10
v -8 3 -10
v 8 3 -10
v 9 3 -10
v -9 4 -8
v -8 4 -8
v 8 4 -8
v 9 4 -8
v -10 4 -9
v -9 4 -9
v -8 4 -9
v 8 4 -9
v 9 4 -9
v 10 4 -9
v -10 4 -10
v -9 4 -10
v 9 4 -10
v 10 4 -10
v -2 5 -8
v 2 5 -8
v -2 5 -9
v 2 5 -9
v -7 8 -8
v -1 8 -8
v 1 8 -8
v 7 8 -8
v -7 8 -9
v -1 8 -9
v 1 8 -9
v 7 8 -9
v -1 13 -8
v 1 13 -8
v -1 13 -9
v 1 13 -9
v -2 14 -8
v -1 14 -8
v 1 14 -8
v 2 14 -8
v -2 14 -9
v -1 14 -9
v 1 14 -9
v 2 14 -9
v -3 15 -8
v -2 15 -8
v 2 15 -8
v 3 15 -8
v -3 15 -9
v -2 15 -9
v 2 15 -9
v 3 15 -9
v -9 28 -9
v -8 28 -9
v -9 28 -10
v -8 28 -10
v -3 34 -8
v 3 34 -8
v -3 34 -9
v 3 34 -9
v -4 35 -8
v -3 35 -8
v 3 35 -8
v 4 35 -8
v -4 35 -9
v -3 35 -9
v 3 35 -9
v 4 35 -9
v -8 36 -8
v -5 36 -8
v -4 36 -8
v 4 36 -8
v 5 36 -8
v 8 36 -8
v -8 36 -9
v -5 36 -9
v -4 36 -9
v 4 36 -9
v 5 36 -9
v 8 36 -9
v -8 4 -8
v 8 4 -8
v -8 4 -9
v 8 4 -9
v -2 6 -8
v 2 6 -8
v -2 6 -9
v 2 6 -9
v -7 11 -8
v -1 11 -8
v 1 11 -8
v 7 11 -8
v -7 11 -9
v -1 11 -9
v 1 11 -9
v 7 11 -9
v -3 16 -8
v -1 16 -8
v 1 16 -8
v 3 16 -8
v -3 16 -9
v -1 16 -9
v 1 16 -9
v 3 16 -9
v -9 25 -9
v -8 25 -9
v -9 25 -10
v -8 25 -10
v -1 30 -8
v 1 30 -8
v -1 30 -9
v 1 30 -9
v -9 36 -8
v -8 36 -8
v 8 36 -8
v 9 36 -8
v -10 36 -9
v -9 36 -9
v -8 36 -9
v 8 36 -9
v 9 36 -9
v 10 36 -9
v -10 36 -10
v -9 36 -10
v 9 36 -10
v 10 36 -10
v -8 37 -8
v -5 37 -8
v 5 37 -8
v 8 37 -8
v -9 37 -9
v -8 37 -9
v -5 37 -9
v 5 37 -9
v 8 37 -9
v 9 37 -9
v -9 37 -10
v -8 37 -10
v 8 37 -10
v 9 37 -10
v -8 38 -9
v 8 38 -9
v -8 38 -10
v 8 38 -10

# faces
f 3/8/1 2/8/1 1/8/1
f 4/8/1 2/8/1 3/8/1
f 8/8/1 6/8/1 5/8/1
f 9/8/1 6/8/1 8/8/1
f 10/10/1 8/10/1 7/10/1
f 11/10/1 8/10/1 10/10/1
f 13/8/1 12/8/1 11/8/1
f 14/8/1 12/8/1 13/8/1
f 18/8/1 16/8/1 15/8/1
f 19/8/1 16/8/1 18/8/1
f 20/10/1 18/10/1 17/10/1
f 21/10/1 18/10/1 20/10/1
f 24/11/1 23/11/1 22/11/1
f 25/11/1 23/11/1 24/11/1
f 28/10/1 27/10/1 26/10/1
f 29/10/1 27/10/1 28/10/1
f 31/8/1 30/8/1 29/8/1
f 32/8/1 30/8/1 31/8/1
f 35/4/1 34/4/1 33/4/1
f 36/4/1 34/4/1 35/4/1
f 37/3/1 36/3/1 35/3/1
f 38/3/1 36/3/1 37/3/1
f 39/1/1 38/1/1 37/1/1
f 40/1/1 38/1/1 39/1/1
f 43/9/1 42/9/1 41/9/1
f 44/9/1 42/9/1 43/9/1
f 47/7/1 46/7/1 45/7/1
f 48/7/1 46/7/1 47/7/1
f 51/10/1 50/10/1 49/10/1
f 52/10/1 50/10/1 51/10/1
f 55/7/1 54/7/1 53/7/1
f 56/7/1 54/7/1 55/7/1
f 59/7/1 58/7/1 57/7/1
f 60/7/1 58/7/1 59/7/1
f 63/7/1 62/7/1 61/7/1
f 64/7/1 62/7/1 63/7/1
f 67/7/1 66/7/1 65/7/1
f 68/7/1 66/7/1 67/7/1
f 71/6/1 70/6/1 69/6/1
f 72/6/1 70/6/1 71/6/1
f 73/5/1 72/5/1 71/5/1
f 74/5/1 72/5/1 73/5/1
f 75/2/1 74/2/1 73/2/1
f 76/2/1 74/2/1 75/2/1
f 79/10/1 78/10/1 77/10/1
f 80/10/1 78/10/1 79/10/1
f 81/8/2 82/8/2 83/8/2
f 83/8/2 82/8/2 84/8/2
f 85/10/2 86/10/2 87/10/2
f 87/10/2 86/10/2 88/10/2
f 89/4/2 90/4/2 91/4/2
f 91/4/2 90/4/2 92/4/2
f 91/3/2 92/3/2 93/3/2
f 93/3/2 92/3/2 94/3/2
f 93/1/2 94/1/2 95/1/2
f 95/1/2 94/1/2 96/1/2
f 97/7/2 98/7/2 99/7/2
f 99/7/2 98/7/2 100/7/2
f 101/7/2 102/7/2 103/7/2
f 103/7/2 102/7/2 104/7/2
f 105/7/2 106/7/2 107/7/2
f 107/7/2 106/7/2 108/7/2
f 109/7/2 110/7/2 111/7/2
f 111/7/2 110/7/2 112/7/2
f 113/7/2 114/7/2 115/7/2
f 115/7/2 114/7/2 116/7/2
f 117/10/2 118/10/2 119/10/2
f 119/10/2 118/10/2 120/10/2
f 121/9/2 122/9/2 123/9/2
f 123/9/2 122/9/2 124/9/2
f 125/6/2 126/6/2 127/6/2
f 127/6/2 126/6/2 128/6/2
f 127/5/2 128/5/2 129/5/2
f 129/5/2 128/5/2 130/5/2
f 129/2/2 130/2/2 131/2/2
f 131/2/2 130/2/2 132/2/2
f 133/8/2 134/8/2 136/8/2
f 136/8/2 134/8/2 137/8/2
f 135/10/2 136/10/2 138/10/2
f 138/10/2 136/10/2 139/10/2
f 140/10/2 141/10/2 142/10/2
f 142/10/2 141/10/2 143/10/2
f 143/8/2 144/8/2 145/8/2
f 145/8/2 144/8/2 146/8/2
f 147/8/2 148/8/2 150/8/2
f 150/8/2 148/8/2 151/8/2
f 149/10/2 150/10/2 152/10/2
f 152/10/2 150/10/2 153/10/2
f 153/8/2 154/8/2 155/8/2
f 155/8/2 154/8/2 156/8/2
f 157/8/2 158/8/2 159/8/2
f 159/8/2 158/8/2 160/8/2
f 164/10/3 162/10/3 161/10/3
f 165/10/3 162/10/3 164/10/3
f 171/10/3 166/10/3 165/10/3
f 172/10/3 166/10/3 171/10/3
f 174/9/3 172/9/3 171/9/3
f 178/9/3 174/9/3 173/9/3
f 182/7/3 176/7/3 175/7/3
f 183/4/3 168/4/3 167/4/3
f 184/3/3 169/3/3 168/3/3
f 184/4/3 168/4/3 183/4/3
f 185/1/3 170/1/3 169/1/3
f 185/3/3 169/3/3 184/3/3
f 186/1/3 170/1/3 185/1/3
f 188/7/3 182/7/3 181/7/3
f 189/7/3 176/7/3 182/7/3
f 189/7/3 182/7/3 188/7/3
f 195/7/3 190/7/3 189/7/3
f 195/7/3 189/7/3 188/7/3
f 195/7/3 188/7/3 187/7/3
f 196/7/3 190/7/3 195/7/3
f 197/7/3 190/7/3 196/7/3
f 198/7/3 190/7/3 197/7/3
f 199/7/3 180/7/3 179/7/3
f 200/7/3 180/7/3 199/7/3
f 201/7/3 197/7/3 196/7/3
f 202/7/3 197/7/3 201/7/3
f 203/7/3 197/7/3 202/7/3
f 204/7/3 197/7/3 203/7/3
f 205/10/3 178/10/3 177/10/3
f 206/9/3 174/9/3 178/9/3
f 206/10/3 178/10/3 205/10/3
f 207/9/3 174/9/3 206/9/3
f 208/9/3 172/9/3 174/9/3
f 208/9/3 174/9/3 207/9/3
f 209/9/3 172/9/3 208/9/3
f 210/9/3 172/9/3 209/9/3
f 211/6/3 192/6/3 191/6/3
f 212/5/3 193/5/3 192/5/3
f 212/6/3 192/6/3 211/6/3
f 213/2/3 194/2/3 193/2/3
f 213/5/3 193/5/3 212/5/3
f 214/2/3 194/2/3 213/2/3
f 215/10/3 164/10/3 163/10/3
f 216/10/3 164/10/3 215/10/3
f 217/10/3 210/10/3 209/10/3
f 218/10/3 210/10/3 217/10/3
f 219/10/3 217/10/3 216/10/3
f 220/10/3 217/10/3 219/10/3
f 224/8/3 222/8/3 221/8/3
f 225/8/3 222/8/3 224/8/3
f 228/8/3 224/8/3 223/8/3
f 229/8/3 224/8/3 228/8/3
f 230/8/3 226/8/3 225/8/3
f 231/8/3 226/8/3 230/8/3
f 233/11/3 230/11/3 229/11/3
f 234/11/3 230/11/3 233/11/3
f 235/11/3 230/11/3 234/11/3
f 236/11/3 230/11/3 235/11/3
f 237/11/3 230/11/3 236/11/3
f 238/8/3 232/8/3 231/8/3
f 239/11/3 237/11/3 236/11/3
f 240/11/3 237/11/3 239/11/3
f 241/11/3 239/11/3 236/11/3
f 242/11/3 239/11/3 241/11/3
f 243/11/3 239/11/3 242/11/3
f 244/11/3 239/11/3 243/11/3
f 245/11/3 233/11/3 229/11/3
f 246/11/3 233/11/3 245/11/3
f 247/11/3 241/11/3 236/11/3
f 248/11/3 241/11/3 247/11/3
f 249/11/3 233/11/3 246/11/3
f 252/11/3 247/11/3 236/11/3
f 253/11/3 247/11/3 252/11/3
f 254/11/3 247/11/3 253/11/3
f 255/11/3 243/11/3 242/11/3
f 256/11/3 243/11/3 255/11/3
f 257/11/3 253/11/3 252/11/3
f 257/11/3 251/11/3 250/11/3
f 257/11/3 252/11/3 251/11/3
f 257/11/3 249/11/3 246/11/3
f 257/11/3 250/11/3 249/11/3
f 258/11/3 253/11/3 257/11/3
f 259/11/3 253/11/3 258/11/3
f 260/11/3 253/11/3 259/11/3
f 261/11/3 253/11/3 260/11/3
f 264/11/3 243/11/3 256/11/3
f 265/11/3 245/11/3 229/11/3
f 266/11/3 257/11/3 246/11/3
f 267/11/3 262/11/3 261/11/3
f 267/11/3 261/11/3 260/11/3
f 269/11/3 268/11/3 267/11/3
f 270/11/3 264/11/3 263/11/3
f 271/11/3 243/11/3 264/11/3
f 271/11/3 264/11/3 270/11/3
f 273/11/3 270/11/3 269/11/3
f 273/11/3 272/11/3 271/11/3
f 273/11/3 271/11/3 270/11/3
f 275/11/3 274/11/3 273/11/3
f 276/8/3 232/8/3 238/8/3
f 277/11/3 266/11/3 265/11/3
f 277/11/3 257/11/3 266/11/3
f 280/11/3 275/11/3 273/11/3
f 280/11/3 273/11/3 269/11/3
f 280/11/3 267/11/3 260/11/3
f 280/11/3 269/11/3 267/11/3
f 281/8/3 228/8/3 227/8/3
f 282/8/3 228/8/3 281/8/3
f 283/11/3 279/11/3 278/11/3
f 283/11/3 280/11/3 279/11/3
f 283/11/3 278/11/3 277/11/3
f 283/11/3 277/11/3 265/11/3
f 283/11/3 265/11/3 229/11/3
f 284/11/3 275/11/3 280/11/3
f 284/11/3 280/11/3 283/11/3
f 285/8/3 232/8/3 276/8/3
f 286/8/3 232/8/3 285/8/3
f 287/8/3 283/8/3 282/8/3
f 288/8/3 283/8/3 287/8/3
f 289/8/3 285/8/3 284/8/3
f 290/8/3 285/8/3 289/8/3
f 291/8/3 289/8/3 288/8/3
f 292/8/3 289/8/3 291/8/3
f 293/10/4 294/10/4 295/10/4
f 295/10/4 294/10/4 296/10/4
f 297/8/4 298/8/4 300/8/4
f 300/8/4 298/8/4 301/8/4
f 301/8/4 298/8/4 302/8/4
f 302/8/4 298/8/4 303/8/4
f 303/8/4 298/8/4 304/8/4
f 299/8/4 300/8/4 307/8/4
f 300/8/4 301/8/4 307/8/4
f 307/8/4 301/8/4 308/8/4
f 301/10/4 302/10/4 309/10/4
f 308/8/4 301/8/4 309/8/4
f 309/10/4 302/10/4 310/10/4
f 303/8/4 304/8/4 311/8/4
f 304/8/4 305/8/4 311/8/4
f 311/8/4 305/8/4 312/8/4
f 312/8/4 305/8/4 313/8/4
f 309/11/4 310/11/4 315/11/4
f 313/8/4 314/8/4 315/8/4
f 312/8/4 313/8/4 315/8/4
f 311/11/4 312/11/4 315/11/4
f 310/11/4 311/11/4 315/11/4
f 308/11/4 309/11/4 315/11/4
f 315/8/4 314/8/4 316/8/4
f 308/11/4 315/11/4 317/11/4
f 315/11/4 316/11/4 317/11/4
f 316/8/4 314/8/4 318/8/4
f 317/11/4 316/11/4 318/11/4
f 306/8/4 307/8/4 319/8/4
f 307/8/4 308/8/4 319/8/4
f 319/8/4 308/8/4 320/8/4
f 308/11/4 317/11/4 321/11/4
f 320/8/4 308/8/4 321/8/4
f 317/8/4 318/8/4 322/8/4
f 321/11/4 317/11/4 322/11/4
f 318/8/4 314/8/4 323/8/4
f 322/8/4 318/8/4 323/8/4
f 323/8/4 314/8/4 324/8/4
f 321/8/4 322/8/4 325/8/4
f 320/8/4 321/8/4 325/8/4
f 322/8/4 323/8/4 325/8/4
f 325/8/4 323/8/4 326/8/4
f 326/8/4 323/8/4 327/8/4
f 327/8/4 323/8/4 328/8/4
f 326/8/4 327/8/4 329/8/4
f 329/8/4 327/8/4 330/8/4
f 333/8/5 332/8/5 331/8/5
f 334/8/5 332/8/5 333/8/5
f 338/10/5 336/10/5 335/10/5
f 339/10/5 336/10/5 338/10/5
f 341/8/5 338/8/5 337/8/5
f 342/8/5 338/8/5 341/8/5
f 343/8/5 340/8/5 339/8/5
f 344/8/5 340/8/5 343/8/5
f 350/10/5 346/10/5 345/10/5
f 351/10/5 346/10/5 350/10/5
f 352/10/5 348/10/5 347/10/5
f 353/10/5 348/10/5 352/10/5
f 355/8/5 350/8/5 349/8/5
f 356/8/5 350/8/5 355/8/5
f 357/8/5 354/8/5 353/8/5
f 358/8/5 354/8/5 357/8/5
f 361/7/5 360/7/5 359/7/5
f 362/7/5 360/7/5 361/7/5
f 367/4/5 364/4/5 363/4/5
f 368/4/5 364/4/5 367/4/5
f 369/6/5 366/6/5 365/6/5
f 370/6/5 366/6/5 369/6/5
f 373/7/5 372/7/5 371/7/5
f 374/7/5 372/7/5 373/7/5
f 379/7/5 376/7/5 375/7/5
f 380/7/5 376/7/5 379/7/5
f 381/7/5 378/7/5 377/7/5
f 382/7/5 378/7/5 381/7/5
f 387/7/5 384/7/5 383/7/5
f 388/7/5 384/7/5 387/7/5
f 389/7/5 386/7/5 385/7/5
f 390/7/5 386/7/5 389/7/5
f 393/8/5 392/8/5 391/8/5
f 394/8/5 392/8/5 393/8/5
f 397/10/5 396/10/5 395/10/5
f 398/10/5 396/10/5 397/10/5
f 403/9/5 400/9/5 399/9/5
f 404/9/5 400/9/5 403/9/5
f 405/9/5 402/9/5 401/9/5
f 406/9/5 402/9/5 405/9/5
f 413/10/5 408/10/5 407/10/5
f 414/9/5 409/9/5 408/9/5
f 414/10/5 408/10/5 413/10/5
f 415/9/5 409/9/5 414/9/5
f 416/9/5 411/9/5 410/9/5
f 417/10/5 412/10/5 411/10/5
f 417/9/5 411/9/5 416/9/5
f 418/10/5 412/10/5 417/10/5
f 419/10/6 420/10/6 421/10/6
f 421/10/6 420/10/6 422/10/6
f 423/7/6 424/7/6 425/7/6
f 425/7/6 424/7/6 426/7/6
f 427/1/6 428/1/6 431/1/6
f 431/1/6 428/1/6 432/1/6
f 429/2/6 430/2/6 433/2/6
f 433/2/6 430/2/6 434/2/6
f 435/7/6 436/7/6 439/7/6
f 439/7/6 436/7/6 440/7/6
f 437/7/6 438/7/6 441/7/6
f 441/7/6 438/7/6 442/7/6
f 443/10/6 444/10/6 445/10/6
f 445/10/6 444/10/6 446/10/6
f 447/7/6 448/7/6 449/7/6
f 449/7/6 448/7/6 450/7/6
f 451/10/6 452/10/6 456/10/6
f 456/10/6 452/10/6 457/10/6
f 453/10/6 454/10/6 458/10/6
f 458/10/6 454/10/6 459/10/6
f 455/8/6 456/8/6 461/8/6
f 461/8/6 456/8/6 462/8/6
f 459/8/6 460/8/6 463/8/6
f 463/8/6 460/8/6 464/8/6
f 465/10/6 466/10/6 470/10/6
f 466/9/6 467/9/6 471/9/6
f 470/10/6 466/10/6 471/10/6
f 467/10/6 468/10/6 472/10/6
f 471/9/6 467/9/6 472/9/6
f 472/10/6 468/10/6 473/10/6
f 469/8/6 470/8/6 475/8/6
f 475/8/6 470/8/6 476/8/6
f 473/8/6 474/8/6 477/8/6
f 477/8/6 474/8/6 478/8/6
f 479/8/6 480/8/6 481/8/6
f 481/8/6 480/8/6 482/8/6
