# MagicaVoxel @ Ephtracy

# material
mtllib phoneScan.mtl
usemtl palette

# normals
vn -1 0 0
vn 1 0 0
vn 0 0 1
vn 0 0 -1
vn 0 -1 0
vn 0 1 0

# texcoords
vt 0.880859 0.5
vt 0.888672 0.5
vt 0.896484 0.5
vt 0.904297 0.5
vt 0.958984 0.5
vt 0.966797 0.5
vt 0.982422 0.5
vt 0.990234 0.5
vt 0.994141 0.5

# verts
v -10 4 -9
v -10 4 -10
v -10 36 -9
v -10 36 -10
v -9 3 -9
v -9 3 -10
v -9 4 -8
v -9 4 -9
v -9 4 -10
v -9 36 -8
v -9 36 -9
v -9 36 -10
v -9 37 -9
v -9 37 -10
v -8 2 -9
v -8 2 -10
v -8 3 -8
v -8 3 -9
v -8 3 -10
v -8 4 -8
v -8 4 -9
v -8 36 -8
v -8 36 -9
v -8 37 -8
v -8 37 -9
v -8 37 -10
v -8 38 -9
v -8 38 -10
v -6 12 -8
v -6 12 -9
v -6 15 -8
v -6 15 -9
v -6 25 -8
v -6 25 -9
v -6 27 -8
v -6 27 -9
v -4 20 -8
v -4 20 -9
v -4 23 -8
v -4 23 -9
v -4 35 -2
v -4 35 -3
v -4 35 -8
v -4 35 -9
v -4 36 -2
v -4 36 -3
v -4 36 -8
v -4 36 -9
v -3 17 -7
v -3 17 -8
v -3 23 -7
v -3 23 -8
v -3 23 -9
v -3 24 -8
v -3 24 -9
v -3 34 -8
v -3 34 -9
v -3 35 -4
v -3 35 -5
v -3 35 -8
v -3 35 -9
v -3 36 -4
v -3 36 -5
v -2 5 -8
v -2 5 -9
v -2 6 -8
v -2 6 -9
v -2 15 -8
v -2 15 -9
v -2 16 -7
v -2 16 -8
v -2 16 -9
v -2 17 -7
v -2 17 -8
v -2 20 -6
v -2 20 -7
v -2 22 -6
v -2 22 -7
v -2 35 -6
v -2 35 -7
v -2 36 -6
v -2 36 -7
v -1 17 -6
v -1 17 -7
v -1 18 -6
v -1 18 -7
v -1 19 -5
v -1 19 -7
v -1 20 -5
v -1 20 -6
v -1 20 -7
v 1 20 -6
v 1 20 -7
v 1 22 -6
v 1 22 -7
v 3 12 -8
v 3 12 -9
v 3 13 -8
v 3 13 -9
v 3 26 -8
v 3 26 -9
v 3 27 -8
v 3 27 -9
v 5 13 -8
v 5 13 -9
v 5 15 -8
v 5 15 -9
v 5 25 -8
v 5 25 -9
v 5 26 -8
v 5 26 -9
v 8 4 -8
v 8 4 -9
v 8 16 -8
v 8 16 -9
v 8 20 -8
v 8 20 -9
v 8 36 -8
v 8 36 -9
v -8 4 -8
v -8 4 -9
v -8 16 -8
v -8 16 -9
v -8 20 -8
v -8 20 -9
v -8 36 -8
v -8 36 -9
v -5 13 -8
v -5 13 -9
v -5 15 -8
v -5 15 -9
v -5 25 -8
v -5 25 -9
v -5 26 -8
v -5 26 -9
v -3 12 -8
v -3 12 -9
v -3 13 -8
v -3 13 -9
v -3 26 -8
v -3 26 -9
v -3 27 -8
v -3 27 -9
v -1 20 -6
v -1 20 -7
v -1 22 -6
v -1 22 -7
v 1 17 -6
v 1 17 -7
v 1 18 -6
v 1 18 -7
v 1 19 -5
v 1 19 -7
v 1 20 -5
v 1 20 -6
v 1 20 -7
v 2 5 -8
v 2 5 -9
v 2 6 -8
v 2 6 -9
v 2 15 -8
v 2 15 -9
v 2 16 -7
v 2 16 -8
v 2 16 -9
v 2 17 -7
v 2 17 -8
v 2 20 -6
v 2 20 -7
v 2 22 -6
v 2 22 -7
v 2 35 -6
v 2 35 -7
v 2 36 -6
v 2 36 -7
v 3 17 -7
v 3 17 -8
v 3 23 -7
v 3 23 -8
v 3 23 -9
v 3 24 -8
v 3 24 -9
v 3 34 -8
v 3 34 -9
v 3 35 -4
v 3 35 -5
v 3 35 -8
v 3 35 -9
v 3 36 -4
v 3 36 -5
v 4 20 -8
v 4 20 -9
v 4 23 -8
v 4 23 -9
v 4 35 -2
v 4 35 -3
v 4 35 -8
v 4 35 -9
v 4 36 -2
v 4 36 -3
v 4 36 -8
v 4 36 -9
v 6 12 -8
v 6 12 -9
v 6 15 -8
v 6 15 -9
v 6 25 -8
v 6 25 -9
v 6 27 -8
v 6 27 -9
v 8 2 -9
v 8 2 -10
v 8 3 -8
v 8 3 -9
v 8 3 -10
v 8 4 -8
v 8 4 -9
v 8 36 -8
v 8 36 -9
v 8 37 -8
v 8 37 -9
v 8 37 -10
v 8 38 -9
v 8 38 -10
v 9 3 -9
v 9 3 -10
v 9 4 -8
v 9 4 -9
v 9 4 -10
v 9 36 -8
v 9 36 -9
v 9 36 -10
v 9 37 -9
v 9 37 -10
v 10 4 -9
v 10 4 -10
v 10 36 -9
v 10 36 -10
v -4 35 -2
v -4 36 -2
v 4 35 -2
v 4 36 -2
v -3 35 -4
v -3 36 -4
v 3 35 -4
v 3 36 -4
v -1 19 -5
v -1 20 -5
v 1 19 -5
v 1 20 -5
v -2 20 -6
v -2 22 -6
v -2 35 -6
v -2 36 -6
v -1 17 -6
v -1 18 -6
v -1 20 -6
v -1 22 -6
v 1 17 -6
v 1 18 -6
v 1 20 -6
v 1 22 -6
v 2 20 -6
v 2 22 -6
v 2 35 -6
v 2 36 -6
v -3 17 -7
v -3 23 -7
v -2 16 -7
v -2 17 -7
v -2 20 -7
v -2 22 -7
v -1 17 -7
v -1 18 -7
v -1 19 -7
v -1 20 -7
v -1 22 -7
v 1 17 -7
v 1 18 -7
v 1 19 -7
v 1 20 -7
v 1 22 -7
v 2 16 -7
v 2 17 -7
v 2 20 -7
v 2 22 -7
v 3 17 -7
v 3 23 -7
v -9 4 -8
v -9 36 -8
v -8 3 -8
v -8 4 -8
v -8 16 -8
v -8 17 -8
v -8 18 -8
v -8 19 -8
v -8 20 -8
v -8 36 -8
v -8 37 -8
v -6 12 -8
v -6 15 -8
v -6 25 -8
v -6 27 -8
v -5 13 -8
v -5 15 -8
v -5 25 -8
v -5 26 -8
v -4 17 -8
v -4 18 -8
v -4 19 -8
v -4 20 -8
v -4 23 -8
v -4 35 -8
v -4 36 -8
v -3 12 -8
v -3 13 -8
v -3 16 -8
v -3 17 -8
v -3 23 -8
v -3 24 -8
v -3 26 -8
v -3 27 -8
v -3 34 -8
v -3 35 -8
v -2 5 -8
v -2 6 -8
v -2 15 -8
v -2 16 -8
v -2 17 -8
v -2 35 -8
v -2 36 -8
v 2 5 -8
v 2 6 -8
v 2 15 -8
v 2 16 -8
v 2 17 -8
v 2 35 -8
v 2 36 -8
v 3 12 -8
v 3 13 -8
v 3 16 -8
v 3 17 -8
v 3 23 -8
v 3 24 -8
v 3 26 -8
v 3 27 -8
v 3 34 -8
v 3 35 -8
v 4 17 -8
v 4 18 -8
v 4 19 -8
v 4 20 -8
v 4 23 -8
v 4 35 -8
v 4 36 -8
v 5 13 -8
v 5 15 -8
v 5 25 -8
v 5 26 -8
v 6 12 -8
v 6 15 -8
v 6 25 -8
v 6 27 -8
v 8 3 -8
v 8 4 -8
v 8 16 -8
v 8 17 -8
v 8 18 -8
v 8 19 -8
v 8 20 -8
v 8 36 -8
v 8 37 -8
v 9 4 -8
v 9 36 -8
v -10 4 -9
v -10 36 -9
v -9 3 -9
v -9 4 -9
v -9 36 -9
v -9 37 -9
v -8 2 -9
v -8 3 -9
v -8 4 -9
v -8 16 -9
v -8 20 -9
v -8 36 -9
v -8 37 -9
v -8 38 -9
v -6 12 -9
v -6 15 -9
v -6 25 -9
v -6 27 -9
v -5 13 -9
v -5 15 -9
v -5 25 -9
v -5 26 -9
v -4 20 -9
v -4 23 -9
v -4 35 -9
v -4 36 -9
v -3 12 -9
v -3 13 -9
v -3 16 -9
v -3 23 -9
v -3 24 -9
v -3 26 -9
v -3 27 -9
v -3 34 -9
v -3 35 -9
v -2 5 -9
v -2 6 -9
v -2 15 -9
v -2 16 -9
v 2 5 -9
v 2 6 -9
v 2 15 -9
v 2 16 -9
v 3 12 -9
v 3 13 -9
v 3 16 -9
v 3 23 -9
v 3 24 -9
v 3 26 -9
v 3 27 -9
v 3 34 -9
v 3 35 -9
v 4 20 -9
v 4 23 -9
v 4 35 -9
v 4 36 -9
v 5 13 -9
v 5 15 -9
v 5 25 -9
v 5 26 -9
v 6 12 -9
v 6 15 -9
v 6 25 -9
v 6 27 -9
v 8 2 -9
v 8 3 -9
v 8 4 -9
v 8 16 -9
v 8 20 -9
v 8 36 -9
v 8 37 -9
v 8 38 -9
v 9 3 -9
v 9 4 -9
v 9 36 -9
v 9 37 -9
v 10 4 -9
v 10 36 -9
v -4 35 -3
v -4 36 -3
v 4 35 -3
v 4 36 -3
v -3 35 -5
v -3 36 -5
v 3 35 -5
v 3 36 -5
v -2 35 -7
v -2 36 -7
v 2 35 -7
v 2 36 -7
v -10 4 -10
v -10 36 -10
v -9 3 -10
v -9 4 -10
v -9 36 -10
v -9 37 -10
v -8 2 -10
v -8 3 -10
v -8 4 -10
v -8 36 -10
v -8 37 -10
v -8 38 -10
v -4 17 -10
v -4 23 -10
v -3 16 -10
v -3 17 -10
v -3 23 -10
v -3 24 -10
v -2 15 -10
v -2 16 -10
v -2 17 -10
v 2 15 -10
v 2 16 -10
v 2 17 -10
v 3 16 -10
v 3 17 -10
v 3 23 -10
v 3 24 -10
v 4 17 -10
v 4 23 -10
v 8 2 -10
v 8 3 -10
v 8 4 -10
v 8 36 -10
v 8 37 -10
v 8 38 -10
v 9 3 -10
v 9 4 -10
v 9 36 -10
v 9 37 -10
v 10 4 -10
v 10 36 -10
v -8 2 -9
v 8 2 -9
v -8 2 -10
v 8 2 -10
v -8 3 -8
v 8 3 -8
v -9 3 -9
v -8 3 -9
v 8 3 -9
v 9 3 -9
v -9 3 -10
v -8 3 -10
v 8 3 -10
v 9 3 -10
v -9 4 -8
v -8 4 -8
v 8 4 -8
v 9 4 -8
v -10 4 -9
v -9 4 -9
v -8 4 -9
v 8 4 -9
v 9 4 -9
v 10 4 -9
v -10 4 -10
v -9 4 -10
v 9 4 -10
v 10 4 -10
v -2 5 -8
v 2 5 -8
v -2 5 -9
v 2 5 -9
v -6 12 -8
v -3 12 -8
v 3 12 -8
v 6 12 -8
v -6 12 -9
v -3 12 -9
v 3 12 -9
v 6 12 -9
v -2 15 -8
v 2 15 -8
v -2 15 -9
v 2 15 -9
v -2 16 -7
v 2 16 -7
v -8 16 -8
v -3 16 -8
v -2 16 -8
v 2 16 -8
v 3 16 -8
v 8 16 -8
v -8 16 -9
v -3 16 -9
v -2 16 -9
v 2 16 -9
v 3 16 -9
v 8 16 -9
v -1 17 -6
v 1 17 -6
v -3 17 -7
v -2 17 -7
v -1 17 -7
v 1 17 -7
v 2 17 -7
v 3 17 -7
v -3 17 -8
v -2 17 -8
v 2 17 -8
v 3 17 -8
v -1 19 -5
v 1 19 -5
v -1 19 -7
v 1 19 -7
v -2 20 -6
v -1 20 -6
v 1 20 -6
v 2 20 -6
v -2 20 -7
v -1 20 -7
v 1 20 -7
v 2 20 -7
v -6 25 -8
v -5 25 -8
v 5 25 -8
v 6 25 -8
v -6 25 -9
v -5 25 -9
v 5 25 -9
v 6 25 -9
v -5 26 -8
v -3 26 -8
v 3 26 -8
v 5 26 -8
v -5 26 -9
v -3 26 -9
v 3 26 -9
v 5 26 -9
v -3 34 -8
v 3 34 -8
v -3 34 -9
v 3 34 -9
v -4 35 -2
v 4 35 -2
v -4 35 -3
v 4 35 -3
v -3 35 -4
v 3 35 -4
v -3 35 -5
v 3 35 -5
v -2 35 -6
v 2 35 -6
v -2 35 -7
v 2 35 -7
v -4 35 -8
v -3 35 -8
v 3 35 -8
v 4 35 -8
v -4 35 -9
v -3 35 -9
v 3 35 -9
v 4 35 -9
v -8 36 -8
v -4 36 -8
v 4 36 -8
v 8 36 -8
v -8 36 -9
v -4 36 -9
v 4 36 -9
v 8 36 -9
v -8 4 -8
v 8 4 -8
v -8 4 -9
v 8 4 -9
v -2 6 -8
v 2 6 -8
v -2 6 -9
v 2 6 -9
v -5 13 -8
v -3 13 -8
v 3 13 -8
v 5 13 -8
v -5 13 -9
v -3 13 -9
v 3 13 -9
v 5 13 -9
v -6 15 -8
v -5 15 -8
v 5 15 -8
v 6 15 -8
v -6 15 -9
v -5 15 -9
v 5 15 -9
v 6 15 -9
v -1 18 -6
v 1 18 -6
v -1 18 -7
v 1 18 -7
v -1 20 -5
v 1 20 -5
v -1 20 -6
v 1 20 -6
v -1 20 -7
v 1 20 -7
v -8 20 -8
v -4 20 -8
v 4 20 -8
v 8 20 -8
v -8 20 -9
v -4 20 -9
v 4 20 -9
v 8 20 -9
v -2 22 -6
v -1 22 -6
v 1 22 -6
v 2 22 -6
v -2 22 -7
v -1 22 -7
v 1 22 -7
v 2 22 -7
v -3 23 -7
v 3 23 -7
v -4 23 -8
v -3 23 -8
v 3 23 -8
v 4 23 -8
v -4 23 -9
v -3 23 -9
v 3 23 -9
v 4 23 -9
v -3 24 -8
v 3 24 -8
v -3 24 -9
v 3 24 -9
v -6 27 -8
v -3 27 -8
v 3 27 -8
v 6 27 -8
v -6 27 -9
v -3 27 -9
v 3 27 -9
v 6 27 -9
v -4 36 -2
v 4 36 -2
v -4 36 -3
v 4 36 -3
v -3 36 -4
v 3 36 -4
v -3 36 -5
v 3 36 -5
v -2 36 -6
v 2 36 -6
v -2 36 -7
v 2 36 -7
v -9 36 -8
v -8 36 -8
v 8 36 -8
v 9 36 -8
v -10 36 -9
v -9 36 -9
v -8 36 -9
v 8 36 -9
v 9 36 -9
v 10 36 -9
v -10 36 -10
v -9 36 -10
v 9 36 -10
v 10 36 -10
v -8 37 -8
v 8 37 -8
v -9 37 -9
v -8 37 -9
v 8 37 -9
v 9 37 -9
v -9 37 -10
v -8 37 -10
v 8 37 -10
v 9 37 -10
v -8 38 -9
v 8 38 -9
v -8 38 -10
v 8 38 -10

# faces
f 3/7/1 2/7/1 1/7/1
f 4/7/1 2/7/1 3/7/1
f 8/7/1 6/7/1 5/7/1
f 9/7/1 6/7/1 8/7/1
f 10/8/1 8/8/1 7/8/1
f 11/8/1 8/8/1 10/8/1
f 13/7/1 12/7/1 11/7/1
f 14/7/1 12/7/1 13/7/1
f 18/7/1 16/7/1 15/7/1
f 19/7/1 16/7/1 18/7/1
f 20/8/1 18/8/1 17/8/1
f 21/8/1 18/8/1 20/8/1
f 24/8/1 23/8/1 22/8/1
f 25/8/1 23/8/1 24/8/1
f 27/7/1 26/7/1 25/7/1
f 28/7/1 26/7/1 27/7/1
f 31/5/1 30/5/1 29/5/1
f 32/5/1 30/5/1 31/5/1
f 35/5/1 34/5/1 33/5/1
f 36/5/1 34/5/1 35/5/1
f 39/6/1 38/6/1 37/6/1
f 40/6/1 38/6/1 39/6/1
f 45/1/1 42/1/1 41/1/1
f 46/1/1 42/1/1 45/1/1
f 47/8/1 44/8/1 43/8/1
f 48/8/1 44/8/1 47/8/1
f 51/5/1 50/5/1 49/5/1
f 52/5/1 50/5/1 51/5/1
f 54/6/1 53/6/1 52/6/1
f 55/6/1 53/6/1 54/6/1
f 60/8/1 57/8/1 56/8/1
f 61/8/1 57/8/1 60/8/1
f 62/2/1 59/2/1 58/2/1
f 63/2/1 59/2/1 62/2/1
f 66/5/1 65/5/1 64/5/1
f 67/5/1 65/5/1 66/5/1
f 71/6/1 69/6/1 68/6/1
f 72/6/1 69/6/1 71/6/1
f 73/5/1 71/5/1 70/5/1
f 74/5/1 71/5/1 73/5/1
f 77/9/1 76/9/1 75/9/1
f 78/9/1 76/9/1 77/9/1
f 81/3/1 80/3/1 79/3/1
f 82/3/1 80/3/1 81/3/1
f 85/9/1 84/9/1 83/9/1
f 86/9/1 84/9/1 85/9/1
f 89/5/1 88/5/1 87/5/1
f 90/5/1 88/5/1 89/5/1
f 91/5/1 88/5/1 90/5/1
f 94/9/1 93/9/1 92/9/1
f 95/9/1 93/9/1 94/9/1
f 98/5/1 97/5/1 96/5/1
f 99/5/1 97/5/1 98/5/1
f 102/5/1 101/5/1 100/5/1
f 103/5/1 101/5/1 102/5/1
f 106/5/1 105/5/1 104/5/1
f 107/5/1 105/5/1 106/5/1
f 110/5/1 109/5/1 108/5/1
f 111/5/1 109/5/1 110/5/1
f 114/8/1 113/8/1 112/8/1
f 115/8/1 113/8/1 114/8/1
f 118/8/1 117/8/1 116/8/1
f 119/8/1 117/8/1 118/8/1
f 120/8/2 121/8/2 122/8/2
f 122/8/2 121/8/2 123/8/2
f 124/8/2 125/8/2 126/8/2
f 126/8/2 125/8/2 127/8/2
f 128/5/2 129/5/2 130/5/2
f 130/5/2 129/5/2 131/5/2
f 132/5/2 133/5/2 134/5/2
f 134/5/2 133/5/2 135/5/2
f 136/5/2 137/5/2 138/5/2
f 138/5/2 137/5/2 139/5/2
f 140/5/2 141/5/2 142/5/2
f 142/5/2 141/5/2 143/5/2
f 144/9/2 145/9/2 146/9/2
f 146/9/2 145/9/2 147/9/2
f 148/9/2 149/9/2 150/9/2
f 150/9/2 149/9/2 151/9/2
f 152/5/2 153/5/2 154/5/2
f 154/5/2 153/5/2 155/5/2
f 155/5/2 153/5/2 156/5/2
f 157/5/2 158/5/2 159/5/2
f 159/5/2 158/5/2 160/5/2
f 161/6/2 162/6/2 164/6/2
f 164/6/2 162/6/2 165/6/2
f 163/5/2 164/5/2 166/5/2
f 166/5/2 164/5/2 167/5/2
f 168/9/2 169/9/2 170/9/2
f 170/9/2 169/9/2 171/9/2
f 172/3/2 173/3/2 174/3/2
f 174/3/2 173/3/2 175/3/2
f 176/5/2 177/5/2 178/5/2
f 178/5/2 177/5/2 179/5/2
f 179/6/2 180/6/2 181/6/2
f 181/6/2 180/6/2 182/6/2
f 183/8/2 184/8/2 187/8/2
f 187/8/2 184/8/2 188/8/2
f 185/2/2 186/2/2 189/2/2
f 189/2/2 186/2/2 190/2/2
f 191/6/2 192/6/2 193/6/2
f 193/6/2 192/6/2 194/6/2
f 195/1/2 196/1/2 199/1/2
f 199/1/2 196/1/2 200/1/2
f 197/8/2 198/8/2 201/8/2
f 201/8/2 198/8/2 202/8/2
f 203/5/2 204/5/2 205/5/2
f 205/5/2 204/5/2 206/5/2
f 207/5/2 208/5/2 209/5/2
f 209/5/2 208/5/2 210/5/2
f 211/7/2 212/7/2 214/7/2
f 214/7/2 212/7/2 215/7/2
f 213/8/2 214/8/2 216/8/2
f 216/8/2 214/8/2 217/8/2
f 218/8/2 219/8/2 220/8/2
f 220/8/2 219/8/2 221/8/2
f 221/7/2 222/7/2 223/7/2
f 223/7/2 222/7/2 224/7/2
f 225/7/2 226/7/2 228/7/2
f 228/7/2 226/7/2 229/7/2
f 227/8/2 228/8/2 230/8/2
f 230/8/2 228/8/2 231/8/2
f 231/7/2 232/7/2 233/7/2
f 233/7/2 232/7/2 234/7/2
f 235/7/2 236/7/2 237/7/2
f 237/7/2 236/7/2 238/7/2
f 241/1/3 240/1/3 239/1/3
f 242/1/3 240/1/3 241/1/3
f 245/2/3 244/2/3 243/2/3
f 246/2/3 244/2/3 245/2/3
f 249/5/3 248/5/3 247/5/3
f 250/5/3 248/5/3 249/5/3
f 257/9/3 252/9/3 251/9/3
f 258/9/3 252/9/3 257/9/3
f 259/9/3 256/9/3 255/9/3
f 260/9/3 256/9/3 259/9/3
f 263/9/3 262/9/3 261/9/3
f 264/9/3 262/9/3 263/9/3
f 265/3/3 254/3/3 253/3/3
f 266/3/3 254/3/3 265/3/3
f 270/5/3 268/5/3 267/5/3
f 271/5/3 268/5/3 270/5/3
f 272/5/3 268/5/3 271/5/3
f 273/5/3 270/5/3 269/5/3
f 273/5/3 271/5/3 270/5/3
f 274/5/3 271/5/3 273/5/3
f 275/5/3 271/5/3 274/5/3
f 276/5/3 271/5/3 275/5/3
f 277/5/3 268/5/3 272/5/3
f 278/5/3 273/5/3 269/5/3
f 279/5/3 275/5/3 274/5/3
f 280/5/3 275/5/3 279/5/3
f 281/5/3 277/5/3 276/5/3
f 282/5/3 268/5/3 277/5/3
f 282/5/3 277/5/3 281/5/3
f 283/5/3 280/5/3 279/5/3
f 283/5/3 281/5/3 280/5/3
f 283/5/3 278/5/3 269/5/3
f 283/5/3 279/5/3 278/5/3
f 284/5/3 281/5/3 283/5/3
f 285/5/3 281/5/3 284/5/3
f 286/5/3 268/5/3 282/5/3
f 287/5/3 285/5/3 284/5/3
f 287/5/3 286/5/3 285/5/3
f 288/5/3 268/5/3 286/5/3
f 288/5/3 286/5/3 287/5/3
f 292/8/3 290/8/3 289/8/3
f 293/8/3 290/8/3 292/8/3
f 294/8/3 290/8/3 293/8/3
f 295/8/3 290/8/3 294/8/3
f 296/8/3 290/8/3 295/8/3
f 297/8/3 290/8/3 296/8/3
f 298/8/3 290/8/3 297/8/3
f 304/5/3 301/5/3 300/5/3
f 305/5/3 301/5/3 304/5/3
f 306/5/3 303/5/3 302/5/3
f 307/5/3 303/5/3 306/5/3
f 308/4/3 294/4/3 293/4/3
f 308/3/3 295/3/3 294/3/3
f 309/2/3 296/2/3 295/2/3
f 309/3/3 295/3/3 308/3/3
f 310/1/3 297/1/3 296/1/3
f 310/2/3 296/2/3 309/2/3
f 311/1/3 297/1/3 310/1/3
f 314/8/3 299/8/3 298/8/3
f 315/5/3 304/5/3 300/5/3
f 316/5/3 304/5/3 315/5/3
f 317/4/3 308/4/3 293/4/3
f 318/6/3 312/6/3 311/6/3
f 318/4/3 308/4/3 317/4/3
f 318/6/3 309/6/3 308/6/3
f 318/6/3 310/6/3 309/6/3
f 318/6/3 311/6/3 310/6/3
f 319/6/3 312/6/3 318/6/3
f 321/5/3 303/5/3 307/5/3
f 322/5/3 303/5/3 321/5/3
f 324/8/3 314/8/3 313/8/3
f 328/6/3 318/6/3 317/6/3
f 329/6/3 318/6/3 328/6/3
f 330/8/3 324/8/3 323/8/3
f 330/8/3 314/8/3 324/8/3
f 331/8/3 299/8/3 314/8/3
f 331/8/3 314/8/3 330/8/3
f 332/5/3 326/5/3 325/5/3
f 333/5/3 326/5/3 332/5/3
f 334/6/3 328/6/3 327/6/3
f 335/6/3 328/6/3 334/6/3
f 337/8/3 330/8/3 323/8/3
f 337/4/3 331/4/3 330/4/3
f 338/8/3 299/8/3 331/8/3
f 338/4/3 331/4/3 337/4/3
f 341/6/3 336/6/3 335/6/3
f 342/6/3 336/6/3 341/6/3
f 343/6/3 320/6/3 319/6/3
f 344/6/3 320/6/3 343/6/3
f 347/8/3 337/8/3 323/8/3
f 347/8/3 338/8/3 337/8/3
f 348/8/3 338/8/3 347/8/3
f 349/4/3 342/4/3 341/4/3
f 349/6/3 343/6/3 342/6/3
f 350/6/3 343/6/3 349/6/3
f 351/6/3 343/6/3 350/6/3
f 352/6/3 343/6/3 351/6/3
f 353/6/3 343/6/3 352/6/3
f 354/8/3 338/8/3 348/8/3
f 355/8/3 299/8/3 338/8/3
f 355/8/3 338/8/3 354/8/3
f 356/5/3 340/5/3 339/5/3
f 359/5/3 346/5/3 345/5/3
f 360/5/3 357/5/3 356/5/3
f 360/5/3 356/5/3 339/5/3
f 361/5/3 357/5/3 360/5/3
f 362/5/3 359/5/3 358/5/3
f 363/5/3 346/5/3 359/5/3
f 363/5/3 359/5/3 362/5/3
f 364/8/3 292/8/3 291/8/3
f 365/8/3 292/8/3 364/8/3
f 366/4/3 349/4/3 341/4/3
f 367/3/3 350/3/3 349/3/3
f 367/4/3 349/4/3 366/4/3
f 368/2/3 351/2/3 350/2/3
f 368/3/3 350/3/3 367/3/3
f 369/1/3 352/1/3 351/1/3
f 369/2/3 351/2/3 368/2/3
f 370/1/3 352/1/3 369/1/3
f 371/8/3 299/8/3 355/8/3
f 372/8/3 299/8/3 371/8/3
f 373/8/3 370/8/3 369/8/3
f 373/8/3 369/8/3 368/8/3
f 373/8/3 371/8/3 370/8/3
f 373/8/3 368/8/3 367/8/3
f 373/8/3 366/8/3 365/8/3
f 373/8/3 367/8/3 366/8/3
f 374/8/3 371/8/3 373/8/3
f 378/7/3 376/7/3 375/7/3
f 379/7/3 376/7/3 378/7/3
f 382/7/3 378/7/3 377/7/3
f 383/7/3 378/7/3 382/7/3
f 386/7/3 380/7/3 379/7/3
f 387/7/3 380/7/3 386/7/3
f 389/9/3 384/9/3 383/9/3
f 390/9/3 384/9/3 389/9/3
f 391/9/3 386/9/3 385/9/3
f 392/9/3 386/9/3 391/9/3
f 394/9/3 384/9/3 390/9/3
f 395/9/3 391/9/3 385/9/3
f 397/9/3 395/9/3 385/9/3
f 397/9/3 396/9/3 395/9/3
f 398/9/3 396/9/3 397/9/3
f 399/9/3 386/9/3 392/9/3
f 400/9/3 386/9/3 399/9/3
f 401/9/3 389/9/3 383/9/3
f 402/9/3 394/9/3 393/9/3
f 403/9/3 384/9/3 394/9/3
f 403/9/3 394/9/3 402/9/3
f 404/9/3 396/9/3 398/9/3
f 405/9/3 396/9/3 404/9/3
f 406/9/3 396/9/3 405/9/3
f 407/9/3 399/9/3 392/9/3
f 408/9/3 399/9/3 407/9/3
f 409/9/3 399/9/3 408/9/3
f 410/9/3 401/9/3 383/9/3
f 410/9/3 403/9/3 402/9/3
f 410/9/3 402/9/3 401/9/3
f 411/9/3 403/9/3 410/9/3
f 412/9/3 403/9/3 411/9/3
f 413/9/3 403/9/3 412/9/3
f 414/9/3 410/9/3 383/9/3
f 415/9/3 412/9/3 411/9/3
f 416/9/3 412/9/3 415/9/3
f 418/9/3 415/9/3 414/9/3
f 418/9/3 417/9/3 416/9/3
f 418/9/3 416/9/3 415/9/3
f 419/9/3 417/9/3 418/9/3
f 420/9/3 417/9/3 419/9/3
f 422/9/3 408/9/3 407/9/3
f 422/9/3 407/9/3 406/9/3
f 422/9/3 406/9/3 405/9/3
f 423/9/3 408/9/3 422/9/3
f 424/9/3 408/9/3 423/9/3
f 425/9/3 408/9/3 424/9/3
f 428/9/3 422/9/3 421/9/3
f 428/9/3 423/9/3 422/9/3
f 429/9/3 426/9/3 425/9/3
f 429/9/3 425/9/3 424/9/3
f 431/9/3 420/9/3 419/9/3
f 432/9/3 420/9/3 431/9/3
f 433/9/3 428/9/3 427/9/3
f 433/9/3 423/9/3 428/9/3
f 434/9/3 423/9/3 433/9/3
f 435/9/3 418/9/3 414/9/3
f 436/9/3 420/9/3 432/9/3
f 437/9/3 433/9/3 427/9/3
f 438/9/3 429/9/3 424/9/3
f 438/9/3 430/9/3 429/9/3
f 439/7/3 382/7/3 381/7/3
f 440/7/3 382/7/3 439/7/3
f 441/9/3 435/9/3 414/9/3
f 441/9/3 414/9/3 383/9/3
f 441/9/3 436/9/3 435/9/3
f 442/9/3 420/9/3 436/9/3
f 442/9/3 436/9/3 441/9/3
f 443/9/3 438/9/3 437/9/3
f 443/9/3 437/9/3 427/9/3
f 444/9/3 430/9/3 438/9/3
f 444/9/3 438/9/3 443/9/3
f 445/7/3 388/7/3 387/7/3
f 446/7/3 388/7/3 445/7/3
f 447/7/3 441/7/3 440/7/3
f 448/7/3 441/7/3 447/7/3
f 449/7/3 445/7/3 444/7/3
f 450/7/3 445/7/3 449/7/3
f 451/7/3 449/7/3 448/7/3
f 452/7/3 449/7/3 451/7/3
f 453/1/4 454/1/4 455/1/4
f 455/1/4 454/1/4 456/1/4
f 457/2/4 458/2/4 459/2/4
f 459/2/4 458/2/4 460/2/4
f 461/3/4 462/3/4 463/3/4
f 463/3/4 462/3/4 464/3/4
f 465/7/4 466/7/4 468/7/4
f 468/7/4 466/7/4 469/7/4
f 467/7/4 468/7/4 472/7/4
f 469/7/4 470/7/4 472/7/4
f 468/7/4 469/7/4 472/7/4
f 472/7/4 470/7/4 473/7/4
f 473/7/4 470/7/4 474/7/4
f 474/7/4 470/7/4 475/7/4
f 473/9/4 474/9/4 477/9/4
f 477/9/4 474/9/4 478/9/4
f 473/9/4 477/9/4 479/9/4
f 477/5/4 478/5/4 480/5/4
f 479/9/4 477/9/4 480/9/4
f 478/9/4 474/9/4 481/9/4
f 480/5/4 478/5/4 481/5/4
f 481/9/4 474/9/4 482/9/4
f 473/9/4 479/9/4 483/9/4
f 479/5/4 480/5/4 484/5/4
f 483/9/4 479/9/4 484/9/4
f 480/9/4 481/9/4 485/9/4
f 484/5/4 480/5/4 485/5/4
f 473/9/4 483/9/4 486/9/4
f 483/5/4 484/5/4 486/5/4
f 484/9/4 485/9/4 487/9/4
f 486/5/4 484/5/4 487/5/4
f 485/9/4 481/9/4 488/9/4
f 487/9/4 485/9/4 488/9/4
f 486/9/4 487/9/4 489/9/4
f 487/5/4 488/5/4 489/5/4
f 488/9/4 481/9/4 490/9/4
f 489/5/4 488/5/4 490/5/4
f 481/5/4 482/5/4 491/5/4
f 490/9/4 481/9/4 491/9/4
f 482/9/4 474/9/4 492/9/4
f 491/5/4 482/5/4 492/5/4
f 490/5/4 491/5/4 493/5/4
f 489/9/4 490/9/4 493/9/4
f 491/9/4 492/9/4 494/9/4
f 493/5/4 491/5/4 494/5/4
f 471/7/4 472/7/4 495/7/4
f 472/7/4 473/7/4 495/7/4
f 495/7/4 473/7/4 496/7/4
f 493/9/4 494/9/4 497/9/4
f 496/7/4 473/7/4 497/7/4
f 486/9/4 489/9/4 497/9/4
f 473/9/4 486/9/4 497/9/4
f 489/9/4 493/9/4 497/9/4
f 494/9/4 492/9/4 498/9/4
f 497/9/4 494/9/4 498/9/4
f 475/7/4 476/7/4 498/7/4
f 492/9/4 474/9/4 498/9/4
f 474/7/4 475/7/4 498/7/4
f 498/7/4 476/7/4 499/7/4
f 499/7/4 476/7/4 500/7/4
f 496/7/4 497/7/4 501/7/4
f 498/7/4 499/7/4 501/7/4
f 497/7/4 498/7/4 501/7/4
f 501/7/4 499/7/4 502/7/4
f 502/7/4 499/7/4 503/7/4
f 503/7/4 499/7/4 504/7/4
f 502/7/4 503/7/4 505/7/4
f 505/7/4 503/7/4 506/7/4
f 509/7/5 508/7/5 507/7/5
f 510/7/5 508/7/5 509/7/5
f 514/8/5 512/8/5 511/8/5
f 515/8/5 512/8/5 514/8/5
f 517/7/5 514/7/5 513/7/5
f 518/7/5 514/7/5 517/7/5
f 519/7/5 516/7/5 515/7/5
f 520/7/5 516/7/5 519/7/5
f 526/8/5 522/8/5 521/8/5
f 527/8/5 522/8/5 526/8/5
f 528/8/5 524/8/5 523/8/5
f 529/8/5 524/8/5 528/8/5
f 531/7/5 526/7/5 525/7/5
f 532/7/5 526/7/5 531/7/5
f 533/7/5 530/7/5 529/7/5
f 534/7/5 530/7/5 533/7/5
f 537/5/5 536/5/5 535/5/5
f 538/5/5 536/5/5 537/5/5
f 543/5/5 540/5/5 539/5/5
f 544/5/5 540/5/5 543/5/5
f 545/5/5 542/5/5 541/5/5
f 546/5/5 542/5/5 545/5/5
f 549/6/5 548/6/5 547/6/5
f 550/6/5 548/6/5 549/6/5
f 555/5/5 552/5/5 551/5/5
f 556/5/5 552/5/5 555/5/5
f 559/4/5 554/4/5 553/4/5
f 560/6/5 555/6/5 554/6/5
f 560/4/5 554/4/5 559/4/5
f 561/6/5 555/6/5 560/6/5
f 562/6/5 557/6/5 556/6/5
f 563/4/5 558/4/5 557/4/5
f 563/6/5 557/6/5 562/6/5
f 564/4/5 558/4/5 563/4/5
f 569/9/5 566/9/5 565/9/5
f 570/9/5 566/9/5 569/9/5
f 573/5/5 568/5/5 567/5/5
f 574/5/5 568/5/5 573/5/5
f 575/5/5 572/5/5 571/5/5
f 576/5/5 572/5/5 575/5/5
f 579/5/5 578/5/5 577/5/5
f 580/5/5 578/5/5 579/5/5
f 585/9/5 582/9/5 581/9/5
f 586/9/5 582/9/5 585/9/5
f 587/9/5 584/9/5 583/9/5
f 588/9/5 584/9/5 587/9/5
f 593/5/5 590/5/5 589/5/5
f 594/5/5 590/5/5 593/5/5
f 595/5/5 592/5/5 591/5/5
f 596/5/5 592/5/5 595/5/5
f 601/5/5 598/5/5 597/5/5
f 602/5/5 598/5/5 601/5/5
f 603/5/5 600/5/5 599/5/5
f 604/5/5 600/5/5 603/5/5
f 607/8/5 606/8/5 605/8/5
f 608/8/5 606/8/5 607/8/5
f 611/1/5 610/1/5 609/1/5
f 612/1/5 610/1/5 611/1/5
f 615/2/5 614/2/5 613/2/5
f 616/2/5 614/2/5 615/2/5
f 619/3/5 618/3/5 617/3/5
f 620/3/5 618/3/5 619/3/5
f 625/8/5 622/8/5 621/8/5
f 626/8/5 622/8/5 625/8/5
f 627/8/5 624/8/5 623/8/5
f 628/8/5 624/8/5 627/8/5
f 633/8/5 630/8/5 629/8/5
f 634/8/5 630/8/5 633/8/5
f 635/8/5 632/8/5 631/8/5
f 636/8/5 632/8/5 635/8/5
f 637/8/6 638/8/6 639/8/6
f 639/8/6 638/8/6 640/8/6
f 641/5/6 642/5/6 643/5/6
f 643/5/6 642/5/6 644/5/6
f 645/5/6 646/5/6 649/5/6
f 649/5/6 646/5/6 650/5/6
f 647/5/6 648/5/6 651/5/6
f 651/5/6 648/5/6 652/5/6
f 653/5/6 654/5/6 657/5/6
f 657/5/6 654/5/6 658/5/6
f 655/5/6 656/5/6 659/5/6
f 659/5/6 656/5/6 660/5/6
f 661/9/6 662/9/6 663/9/6
f 663/9/6 662/9/6 664/9/6
f 665/5/6 666/5/6 667/5/6
f 667/5/6 666/5/6 668/5/6
f 667/5/6 668/5/6 669/5/6
f 669/5/6 668/5/6 670/5/6
f 671/1/6 672/1/6 675/1/6
f 675/1/6 672/1/6 676/1/6
f 673/1/6 674/1/6 677/1/6
f 677/1/6 674/1/6 678/1/6
f 679/9/6 680/9/6 683/9/6
f 683/9/6 680/9/6 684/9/6
f 681/9/6 682/9/6 685/9/6
f 685/9/6 682/9/6 686/9/6
f 687/5/6 688/5/6 690/5/6
f 690/5/6 688/5/6 691/5/6
f 689/6/6 690/6/6 693/6/6
f 693/6/6 690/6/6 694/6/6
f 691/6/6 692/6/6 695/6/6
f 695/6/6 692/6/6 696/6/6
f 697/6/6 698/6/6 699/6/6
f 699/6/6 698/6/6 700/6/6
f 701/5/6 702/5/6 705/5/6
f 705/5/6 702/5/6 706/5/6
f 703/5/6 704/5/6 707/5/6
f 707/5/6 704/5/6 708/5/6
f 709/1/6 710/1/6 711/1/6
f 711/1/6 710/1/6 712/1/6
f 713/2/6 714/2/6 715/2/6
f 715/2/6 714/2/6 716/2/6
f 717/3/6 718/3/6 719/3/6
f 719/3/6 718/3/6 720/3/6
f 721/8/6 722/8/6 726/8/6
f 726/8/6 722/8/6 727/8/6
f 723/8/6 724/8/6 728/8/6
f 728/8/6 724/8/6 729/8/6
f 725/7/6 726/7/6 731/7/6
f 731/7/6 726/7/6 732/7/6
f 729/7/6 730/7/6 733/7/6
f 733/7/6 730/7/6 734/7/6
f 735/8/6 736/8/6 738/8/6
f 738/8/6 736/8/6 739/8/6
f 737/7/6 738/7/6 741/7/6
f 741/7/6 738/7/6 742/7/6
f 739/7/6 740/7/6 743/7/6
f 743/7/6 740/7/6 744/7/6
f 745/7/6 746/7/6 747/7/6
f 747/7/6 746/7/6 748/7/6
