# MagicaVoxel @ Ephtracy

# material
mtllib PointCloud.mtl
usemtl palette

# normals
vn -1 0 0
vn 1 0 0
vn 0 0 1
vn 0 0 -1
vn 0 -1 0
vn 0 1 0

# texcoords
vt 0.587891 0.5
vt 0.935547 0.5
vt 0.958984 0.5

# verts
v -6 0 1
v -6 0 -1
v -6 1 1
v -6 1 -1
v -1 0 6
v -1 0 5
v -1 0 2
v -1 0 1
v -1 0 -1
v -1 0 -2
v -1 0 -5
v -1 0 -6
v -1 1 6
v -1 1 5
v -1 1 2
v -1 1 1
v -1 1 -1
v -1 1 -2
v -1 1 -5
v -1 1 -6
v -1 19 1
v -1 19 -1
v -1 20 1
v -1 20 -1
v -1 21 1
v -1 21 -1
v -1 22 1
v -1 22 -1
v 1 0 6
v 1 0 5
v 1 0 2
v 1 0 1
v 1 0 -1
v 1 0 -2
v 1 0 -5
v 1 0 -6
v 1 1 6
v 1 1 5
v 1 1 2
v 1 1 1
v 1 1 -1
v 1 1 -2
v 1 1 -5
v 1 1 -6
v 1 19 1
v 1 19 -1
v 1 20 1
v 1 20 -1
v 1 21 1
v 1 21 -1
v 1 22 1
v 1 22 -1
v 6 0 1
v 6 0 -1
v 6 1 1
v 6 1 -1
v -1 0 6
v -1 1 6
v 1 0 6
v 1 1 6
v -6 0 1
v -6 1 1
v -5 0 1
v -5 1 1
v -2 0 1
v -2 1 1
v -1 0 1
v -1 1 1
v -1 19 1
v -1 20 1
v -1 21 1
v -1 22 1
v 1 0 1
v 1 1 1
v 1 19 1
v 1 20 1
v 1 21 1
v 1 22 1
v 2 0 1
v 2 1 1
v 5 0 1
v 5 1 1
v 6 0 1
v 6 1 1
v -6 0 -1
v -6 1 -1
v -5 0 -1
v -5 1 -1
v -2 0 -1
v -2 1 -1
v -1 0 -1
v -1 1 -1
v -1 19 -1
v -1 20 -1
v -1 21 -1
v -1 22 -1
v 1 0 -1
v 1 1 -1
v 1 19 -1
v 1 20 -1
v 1 21 -1
v 1 22 -1
v 2 0 -1
v 2 1 -1
v 5 0 -1
v 5 1 -1
v 6 0 -1
v 6 1 -1
v -1 0 -6
v -1 1 -6
v 1 0 -6
v 1 1 -6
v -1 0 6
v 1 0 6
v -1 0 5
v 1 0 5
v -1 0 2
v 1 0 2
v -6 0 1
v -5 0 1
v -2 0 1
v -1 0 1
v 1 0 1
v 2 0 1
v 5 0 1
v 6 0 1
v -6 0 -1
v -5 0 -1
v -2 0 -1
v -1 0 -1
v 1 0 -1
v 2 0 -1
v 5 0 -1
v 6 0 -1
v -1 0 -2
v 1 0 -2
v -1 0 -5
v 1 0 -5
v -1 0 -6
v 1 0 -6
v -1 1 6
v 1 1 6
v -1 1 5
v 1 1 5
v -1 1 2
v 1 1 2
v -6 1 1
v -5 1 1
v -2 1 1
v -1 1 1
v 1 1 1
v 2 1 1
v 5 1 1
v 6 1 1
v -6 1 -1
v -5 1 -1
v -2 1 -1
v -1 1 -1
v 1 1 -1
v 2 1 -1
v 5 1 -1
v 6 1 -1
v -1 1 -2
v 1 1 -2
v -1 1 -5
v 1 1 -5
v -1 1 -6
v 1 1 -6
v -1 22 1
v 1 22 1
v -1 22 -1
v 1 22 -1

# faces
f 3/3/1 2/3/1 1/3/1
f 4/3/1 2/3/1 3/3/1
f 13/3/1 6/3/1 5/3/1
f 14/2/1 7/2/1 6/2/1
f 14/3/1 6/3/1 13/3/1
f 15/1/1 8/1/1 7/1/1
f 15/2/1 7/2/1 14/2/1
f 16/1/1 8/1/1 15/1/1
f 17/1/1 10/1/1 9/1/1
f 18/2/1 11/2/1 10/2/1
f 18/1/1 10/1/1 17/1/1
f 19/3/1 12/3/1 11/3/1
f 19/2/1 11/2/1 18/2/1
f 20/3/1 12/3/1 19/3/1
f 21/2/1 17/2/1 16/2/1
f 22/2/1 17/2/1 21/2/1
f 23/1/1 22/1/1 21/1/1
f 24/1/1 22/1/1 23/1/1
f 25/2/1 24/2/1 23/2/1
f 26/2/1 24/2/1 25/2/1
f 27/1/1 26/1/1 25/1/1
f 28/1/1 26/1/1 27/1/1
f 29/3/2 30/3/2 37/3/2
f 30/2/2 31/2/2 38/2/2
f 37/3/2 30/3/2 38/3/2
f 31/1/2 32/1/2 39/1/2
f 38/2/2 31/2/2 39/2/2
f 39/1/2 32/1/2 40/1/2
f 33/1/2 34/1/2 41/1/2
f 34/2/2 35/2/2 42/2/2
f 41/1/2 34/1/2 42/1/2
f 35/3/2 36/3/2 43/3/2
f 42/2/2 35/2/2 43/2/2
f 43/3/2 36/3/2 44/3/2
f 40/2/2 41/2/2 45/2/2
f 45/2/2 41/2/2 46/2/2
f 45/1/2 46/1/2 47/1/2
f 47/1/2 46/1/2 48/1/2
f 47/2/2 48/2/2 49/2/2
f 49/2/2 48/2/2 50/2/2
f 49/1/2 50/1/2 51/1/2
f 51/1/2 50/1/2 52/1/2
f 53/3/2 54/3/2 55/3/2
f 55/3/2 54/3/2 56/3/2
f 59/3/3 58/3/3 57/3/3
f 60/3/3 58/3/3 59/3/3
f 63/3/3 62/3/3 61/3/3
f 64/3/3 62/3/3 63/3/3
f 65/2/3 64/2/3 63/2/3
f 66/2/3 64/2/3 65/2/3
f 67/1/3 66/1/3 65/1/3
f 68/1/3 66/1/3 67/1/3
f 74/2/3 69/2/3 68/2/3
f 75/1/3 70/1/3 69/1/3
f 75/2/3 69/2/3 74/2/3
f 76/2/3 71/2/3 70/2/3
f 76/1/3 70/1/3 75/1/3
f 77/1/3 72/1/3 71/1/3
f 77/2/3 71/2/3 76/2/3
f 78/1/3 72/1/3 77/1/3
f 79/1/3 74/1/3 73/1/3
f 80/1/3 74/1/3 79/1/3
f 81/2/3 80/2/3 79/2/3
f 82/2/3 80/2/3 81/2/3
f 83/3/3 82/3/3 81/3/3
f 84/3/3 82/3/3 83/3/3
f 85/3/4 86/3/4 87/3/4
f 87/3/4 86/3/4 88/3/4
f 87/2/4 88/2/4 89/2/4
f 89/2/4 88/2/4 90/2/4
f 89/1/4 90/1/4 91/1/4
f 91/1/4 90/1/4 92/1/4
f 92/2/4 93/2/4 98/2/4
f 93/1/4 94/1/4 99/1/4
f 98/2/4 93/2/4 99/2/4
f 94/2/4 95/2/4 100/2/4
f 99/1/4 94/1/4 100/1/4
f 95/1/4 96/1/4 101/1/4
f 100/2/4 95/2/4 101/2/4
f 101/1/4 96/1/4 102/1/4
f 97/1/4 98/1/4 103/1/4
f 103/1/4 98/1/4 104/1/4
f 103/2/4 104/2/4 105/2/4
f 105/2/4 104/2/4 106/2/4
f 105/3/4 106/3/4 107/3/4
f 107/3/4 106/3/4 108/3/4
f 109/3/4 110/3/4 111/3/4
f 111/3/4 110/3/4 112/3/4
f 115/3/5 114/3/5 113/3/5
f 116/3/5 114/3/5 115/3/5
f 117/2/5 116/2/5 115/2/5
f 118/2/5 116/2/5 117/2/5
f 122/1/5 118/1/5 117/1/5
f 123/1/5 118/1/5 122/1/5
f 127/3/5 120/3/5 119/3/5
f 128/2/5 121/2/5 120/2/5
f 128/3/5 120/3/5 127/3/5
f 129/1/5 122/1/5 121/1/5
f 129/2/5 121/2/5 128/2/5
f 130/2/5 123/2/5 122/2/5
f 130/1/5 122/1/5 129/1/5
f 131/1/5 124/1/5 123/1/5
f 131/2/5 123/2/5 130/2/5
f 132/2/5 125/2/5 124/2/5
f 132/1/5 124/1/5 131/1/5
f 133/3/5 126/3/5 125/3/5
f 133/2/5 125/2/5 132/2/5
f 134/3/5 126/3/5 133/3/5
f 135/1/5 131/1/5 130/1/5
f 136/1/5 131/1/5 135/1/5
f 137/2/5 136/2/5 135/2/5
f 138/2/5 136/2/5 137/2/5
f 139/3/5 138/3/5 137/3/5
f 140/3/5 138/3/5 139/3/5
f 141/3/6 142/3/6 143/3/6
f 143/3/6 142/3/6 144/3/6
f 143/2/6 144/2/6 145/2/6
f 145/2/6 144/2/6 146/2/6
f 145/1/6 146/1/6 150/1/6
f 150/1/6 146/1/6 151/1/6
f 147/3/6 148/3/6 155/3/6
f 148/2/6 149/2/6 156/2/6
f 155/3/6 148/3/6 156/3/6
f 149/1/6 150/1/6 157/1/6
f 156/2/6 149/2/6 157/2/6
f 157/1/6 150/1/6 158/1/6
f 151/1/6 152/1/6 159/1/6
f 152/2/6 153/2/6 160/2/6
f 159/1/6 152/1/6 160/1/6
f 153/3/6 154/3/6 161/3/6
f 160/2/6 153/2/6 161/2/6
f 161/3/6 154/3/6 162/3/6
f 158/1/6 159/1/6 163/1/6
f 163/1/6 159/1/6 164/1/6
f 163/2/6 164/2/6 165/2/6
f 165/2/6 164/2/6 166/2/6
f 165/3/6 166/3/6 167/3/6
f 167/3/6 166/3/6 168/3/6
f 169/1/6 170/1/6 171/1/6
f 171/1/6 170/1/6 172/1/6
