# MagicaVoxel @ Ephtracy

# material
mtllib star.mtl
usemtl palette

# normals
vn -1 0 0
vn 1 0 0
vn 0 0 1
vn 0 0 -1
vn 0 -1 0
vn 0 1 0

# texcoords
vt 0.0566406 0.5
vt 0.333984 0.5
vt 0.423828 0.5
vt 0.482422 0.5
vt 0.759766 0.5
vt 0.958984 0.5

# verts
v -5 9 1
v -5 9 -1
v -5 10 1
v -5 10 -1
v -3 1 1
v -3 1 -1
v -3 3 3
v -3 3 1
v -3 3 -1
v -3 3 -3
v -3 4 4
v -3 4 3
v -3 4 -3
v -3 4 -4
v -3 5 7
v -3 5 4
v -3 5 2
v -3 5 -2
v -3 5 -4
v -3 5 -7
v -3 6 4
v -3 6 2
v -3 6 -2
v -3 6 -4
v -3 7 8
v -3 7 7
v -3 7 2
v -3 7 -2
v -3 7 -7
v -3 7 -8
v -3 8 9
v -3 8 8
v -3 8 4
v -3 8 -4
v -3 8 -8
v -3 8 -9
v -3 9 1
v -3 9 -1
v -3 10 3
v -3 10 1
v -3 10 -1
v -3 10 -3
v -3 12 9
v -3 12 8
v -3 12 -8
v -3 12 -9
v -3 13 8
v -3 13 7
v -3 13 3
v -3 13 1
v -3 13 -1
v -3 13 -3
v -3 13 -7
v -3 13 -8
v -3 14 3
v -3 14 1
v -3 14 -1
v -3 14 -3
v -3 15 7
v -3 15 3
v -3 15 -3
v -3 15 -7
v -3 17 3
v -3 17 1
v -3 17 -1
v -3 17 -3
v -3 19 1
v -3 19 -1
v -2 0 1
v -2 0 -1
v -2 1 1
v -2 1 -1
v -2 2 3
v -2 2 1
v -2 2 -1
v -2 2 -3
v -2 3 3
v -2 3 1
v -2 3 -1
v -2 3 -3
v -2 4 7
v -2 4 4
v -2 4 -4
v -2 4 -7
v -2 5 8
v -2 5 7
v -2 5 4
v -2 5 -4
v -2 5 -7
v -2 5 -8
v -2 7 9
v -2 7 8
v -2 7 7
v -2 7 -7
v -2 7 -8
v -2 7 -9
v -2 8 10
v -2 8 9
v -2 8 8
v -2 8 -8
v -2 8 -9
v -2 8 -10
v -2 10 3
v -2 10 2
v -2 10 1
v -2 10 -1
v -2 10 -2
v -2 10 -3
v -2 12 10
v -2 12 9
v -2 12 8
v -2 12 2
v -2 12 1
v -2 12 -1
v -2 12 -2
v -2 12 -8
v -2 12 -9
v -2 12 -10
v -2 13 9
v -2 13 8
v -2 13 7
v -2 13 3
v -2 13 1
v -2 13 -1
v -2 13 -3
v -2 13 -7
v -2 13 -8
v -2 13 -9
v -2 15 8
v -2 15 7
v -2 15 3
v -2 15 -3
v -2 15 -7
v -2 15 -8
v -2 16 7
v -2 16 3
v -2 16 -3
v -2 16 -7
v -2 17 3
v -2 17 1
v -2 17 -1
v -2 17 -3
v -2 18 3
v -2 18 1
v -2 18 -1
v -2 18 -3
v -2 19 1
v -2 19 -1
v -2 20 1
v -2 20 -1
v -1 5 2
v -1 5 -2
v -1 6 4
v -1 6 2
v -1 6 -2
v -1 6 -4
v -1 7 2
v -1 7 -2
v -1 8 4
v -1 8 -4
v 0 0 1
v 0 0 -1
v 0 1 1
v 0 1 -1
v 0 2 3
v 0 2 1
v 0 2 -1
v 0 2 -3
v 0 3 3
v 0 3 1
v 0 3 -1
v 0 3 -3
v 0 4 7
v 0 4 4
v 0 4 -4
v 0 4 -7
v 0 5 8
v 0 5 7
v 0 5 4
v 0 5 2
v 0 5 -2
v 0 5 -4
v 0 5 -7
v 0 5 -8
v 0 6 4
v 0 6 2
v 0 6 -2
v 0 6 -4
v 0 7 9
v 0 7 8
v 0 7 7
v 0 7 2
v 0 7 -2
v 0 7 -7
v 0 7 -8
v 0 7 -9
v 0 8 10
v 0 8 9
v 0 8 8
v 0 8 4
v 0 8 -4
v 0 8 -8
v 0 8 -9
v 0 8 -10
v 0 10 3
v 0 10 2
v 0 10 1
v 0 10 -1
v 0 10 -2
v 0 10 -3
v 0 12 10
v 0 12 9
v 0 12 8
v 0 12 2
v 0 12 1
v 0 12 -1
v 0 12 -2
v 0 12 -8
v 0 12 -9
v 0 12 -10
v 0 13 9
v 0 13 8
v 0 13 7
v 0 13 3
v 0 13 1
v 0 13 -1
v 0 13 -3
v 0 13 -7
v 0 13 -8
v 0 13 -9
v 0 15 8
v 0 15 7
v 0 15 3
v 0 15 -3
v 0 15 -7
v 0 15 -8
v 0 16 7
v 0 16 3
v 0 16 -3
v 0 16 -7
v 0 17 3
v 0 17 1
v 0 17 -1
v 0 17 -3
v 0 18 3
v 0 18 1
v 0 18 -1
v 0 18 -3
v 0 19 1
v 0 19 -1
v 0 20 1
v 0 20 -1
v 1 1 1
v 1 1 -1
v 1 3 3
v 1 3 1
v 1 3 -1
v 1 3 -3
v 1 4 4
v 1 4 3
v 1 4 -3
v 1 4 -4
v 1 5 7
v 1 5 4
v 1 5 2
v 1 5 -2
v 1 5 -4
v 1 5 -7
v 1 6 4
v 1 6 2
v 1 6 -2
v 1 6 -4
v 1 7 8
v 1 7 7
v 1 7 2
v 1 7 -2
v 1 7 -7
v 1 7 -8
v 1 8 9
v 1 8 8
v 1 8 4
v 1 8 -4
v 1 8 -8
v 1 8 -9
v 1 10 3
v 1 10 1
v 1 10 -1
v 1 10 -3
v 1 12 9
v 1 12 8
v 1 12 -8
v 1 12 -9
v 1 13 8
v 1 13 7
v 1 13 3
v 1 13 1
v 1 13 -1
v 1 13 -3
v 1 13 -7
v 1 13 -8
v 1 15 7
v 1 15 3
v 1 15 -3
v 1 15 -7
v 1 17 3
v 1 17 1
v 1 17 -1
v 1 17 -3
v 1 19 1
v 1 19 -1
v -2 8 10
v -2 12 10
v 0 8 10
v 0 12 10
v -3 8 9
v -3 12 9
v -2 7 9
v -2 8 9
v -2 12 9
v -2 13 9
v 0 7 9
v 0 8 9
v 0 12 9
v 0 13 9
v 1 8 9
v 1 12 9
v -3 7 8
v -3 8 8
v -3 12 8
v -3 13 8
v -2 5 8
v -2 7 8
v -2 8 8
v -2 12 8
v -2 13 8
v -2 15 8
v 0 5 8
v 0 7 8
v 0 8 8
v 0 12 8
v 0 13 8
v 0 15 8
v 1 7 8
v 1 8 8
v 1 12 8
v 1 13 8
v -3 5 7
v -3 7 7
v -3 13 7
v -3 15 7
v -2 4 7
v -2 5 7
v -2 7 7
v -2 13 7
v -2 15 7
v -2 16 7
v 0 4 7
v 0 5 7
v 0 7 7
v 0 13 7
v 0 15 7
v 0 16 7
v 1 5 7
v 1 7 7
v 1 13 7
v 1 15 7
v -3 4 4
v -3 5 4
v -2 4 4
v -2 5 4
v 0 4 4
v 0 5 4
v 1 4 4
v 1 5 4
v -3 3 3
v -3 4 3
v -3 15 3
v -3 17 3
v -2 2 3
v -2 3 3
v -2 15 3
v -2 16 3
v -2 17 3
v -2 18 3
v 0 2 3
v 0 3 3
v 0 15 3
v 0 16 3
v 0 17 3
v 0 18 3
v 1 3 3
v 1 4 3
v 1 15 3
v 1 17 3
v -3 6 2
v -3 7 2
v -1 6 2
v -1 7 2
v 0 6 2
v 0 7 2
v 1 6 2
v 1 7 2
v -5 9 1
v -5 10 1
v -3 1 1
v -3 3 1
v -3 9 1
v -3 10 1
v -3 13 1
v -3 17 1
v -3 19 1
v -2 0 1
v -2 1 1
v -2 2 1
v -2 3 1
v -2 10 1
v -2 12 1
v -2 13 1
v -2 17 1
v -2 18 1
v -2 19 1
v -2 20 1
v 0 0 1
v 0 1 1
v 0 2 1
v 0 3 1
v 0 10 1
v 0 12 1
v 0 13 1
v 0 17 1
v 0 18 1
v 0 19 1
v 0 20 1
v 1 1 1
v 1 3 1
v 1 10 1
v 1 13 1
v 1 17 1
v 1 19 1
v -3 5 -2
v -3 6 -2
v -1 5 -2
v -1 6 -2
v 0 5 -2
v 0 6 -2
v 1 5 -2
v 1 6 -2
v -3 10 -3
v -3 13 -3
v -2 10 -3
v -2 13 -3
v 0 10 -3
v 0 13 -3
v 1 10 -3
v 1 13 -3
v -3 6 -4
v -3 8 -4
v -1 6 -4
v -1 8 -4
v 0 6 -4
v 0 8 -4
v 1 6 -4
v 1 8 -4
v -3 6 4
v -3 8 4
v -1 6 4
v -1 8 4
v 0 6 4
v 0 8 4
v 1 6 4
v 1 8 4
v -3 10 3
v -3 13 3
v -2 10 3
v -2 13 3
v 0 10 3
v 0 13 3
v 1 10 3
v 1 13 3
v -3 5 2
v -3 6 2
v -1 5 2
v -1 6 2
v 0 5 2
v 0 6 2
v 1 5 2
v 1 6 2
v -5 9 -1
v -5 10 -1
v -3 1 -1
v -3 3 -1
v -3 9 -1
v -3 10 -1
v -3 13 -1
v -3 17 -1
v -3 19 -1
v -2 0 -1
v -2 1 -1
v -2 2 -1
v -2 3 -1
v -2 10 -1
v -2 12 -1
v -2 13 -1
v -2 17 -1
v -2 18 -1
v -2 19 -1
v -2 20 -1
v 0 0 -1
v 0 1 -1
v 0 2 -1
v 0 3 -1
v 0 10 -1
v 0 12 -1
v 0 13 -1
v 0 17 -1
v 0 18 -1
v 0 19 -1
v 0 20 -1
v 1 1 -1
v 1 3 -1
v 1 10 -1
v 1 13 -1
v 1 17 -1
v 1 19 -1
v -3 6 -2
v -3 7 -2
v -1 6 -2
v -1 7 -2
v 0 6 -2
v 0 7 -2
v 1 6 -2
v 1 7 -2
v -3 3 -3
v -3 4 -3
v -3 15 -3
v -3 17 -3
v -2 2 -3
v -2 3 -3
v -2 15 -3
v -2 16 -3
v -2 17 -3
v -2 18 -3
v 0 2 -3
v 0 3 -3
v 0 15 -3
v 0 16 -3
v 0 17 -3
v 0 18 -3
v 1 3 -3
v 1 4 -3
v 1 15 -3
v 1 17 -3
v -3 4 -4
v -3 5 -4
v -2 4 -4
v -2 5 -4
v 0 4 -4
v 0 5 -4
v 1 4 -4
v 1 5 -4
v -3 5 -7
v -3 7 -7
v -3 13 -7
v -3 15 -7
v -2 4 -7
v -2 5 -7
v -2 7 -7
v -2 13 -7
v -2 15 -7
v -2 16 -7
v 0 4 -7
v 0 5 -7
v 0 7 -7
v 0 13 -7
v 0 15 -7
v 0 16 -7
v 1 5 -7
v 1 7 -7
v 1 13 -7
v 1 15 -7
v -3 7 -8
v -3 8 -8
v -3 12 -8
v -3 13 -8
v -2 5 -8
v -2 7 -8
v -2 8 -8
v -2 12 -8
v -2 13 -8
v -2 15 -8
v 0 5 -8
v 0 7 -8
v 0 8 -8
v 0 12 -8
v 0 13 -8
v 0 15 -8
v 1 7 -8
v 1 8 -8
v 1 12 -8
v 1 13 -8
v -3 8 -9
v -3 12 -9
v -2 7 -9
v -2 8 -9
v -2 12 -9
v -2 13 -9
v 0 7 -9
v 0 8 -9
v 0 12 -9
v 0 13 -9
v 1 8 -9
v 1 12 -9
v -2 8 -10
v -2 12 -10
v 0 8 -10
v 0 12 -10
v -2 0 1
v 0 0 1
v -2 0 -1
v 0 0 -1
v -3 1 1
v -2 1 1
v 0 1 1
v 1 1 1
v -3 1 -1
v -2 1 -1
v 0 1 -1
v 1 1 -1
v -2 2 3
v 0 2 3
v -2 2 1
v 0 2 1
v -2 2 -1
v 0 2 -1
v -2 2 -3
v 0 2 -3
v -3 3 3
v -2 3 3
v 0 3 3
v 1 3 3
v -3 3 1
v -2 3 1
v 0 3 1
v 1 3 1
v -3 3 -1
v -2 3 -1
v 0 3 -1
v 1 3 -1
v -3 3 -3
v -2 3 -3
v 0 3 -3
v 1 3 -3
v -2 4 7
v 0 4 7
v -3 4 4
v -2 4 4
v 0 4 4
v 1 4 4
v -3 4 3
v 1 4 3
v -3 4 -3
v 1 4 -3
v -3 4 -4
v -2 4 -4
v 0 4 -4
v 1 4 -4
v -2 4 -7
v 0 4 -7
v -2 5 8
v 0 5 8
v -3 5 7
v -2 5 7
v 0 5 7
v 1 5 7
v -3 5 4
v -2 5 4
v 0 5 4
v 1 5 4
v -3 5 -4
v -2 5 -4
v 0 5 -4
v 1 5 -4
v -3 5 -7
v -2 5 -7
v 0 5 -7
v 1 5 -7
v -2 5 -8
v 0 5 -8
v -3 6 2
v -1 6 2
v 0 6 2
v 1 6 2
v -3 6 -2
v -1 6 -2
v 0 6 -2
v 1 6 -2
v -2 7 9
v 0 7 9
v -3 7 8
v -2 7 8
v 0 7 8
v 1 7 8
v -3 7 7
v -2 7 7
v 0 7 7
v 1 7 7
v -3 7 -7
v -2 7 -7
v 0 7 -7
v 1 7 -7
v -3 7 -8
v -2 7 -8
v 0 7 -8
v 1 7 -8
v -2 7 -9
v 0 7 -9
v -2 8 10
v 0 8 10
v -3 8 9
v -2 8 9
v 0 8 9
v 1 8 9
v -3 8 8
v -2 8 8
v 0 8 8
v 1 8 8
v -3 8 4
v -1 8 4
v 0 8 4
v 1 8 4
v -3 8 -4
v -1 8 -4
v 0 8 -4
v 1 8 -4
v -3 8 -8
v -2 8 -8
v 0 8 -8
v 1 8 -8
v -3 8 -9
v -2 8 -9
v 0 8 -9
v 1 8 -9
v -2 8 -10
v 0 8 -10
v -5 9 1
v -3 9 1
v -5 9 -1
v -3 9 -1
v -3 13 3
v -2 13 3
v 0 13 3
v 1 13 3
v -3 13 1
v -2 13 1
v 0 13 1
v 1 13 1
v -3 13 -1
v -2 13 -1
v 0 13 -1
v 1 13 -1
v -3 13 -3
v -2 13 -3
v 0 13 -3
v 1 13 -3
v -3 5 2
v -1 5 2
v 0 5 2
v 1 5 2
v -3 5 -2
v -1 5 -2
v 0 5 -2
v 1 5 -2
v -3 6 4
v -1 6 4
v 0 6 4
v 1 6 4
v -3 6 2
v -1 6 2
v 0 6 2
v 1 6 2
v -3 6 -2
v -1 6 -2
v 0 6 -2
v 1 6 -2
v -3 6 -4
v -1 6 -4
v 0 6 -4
v 1 6 -4
v -3 7 2
v -1 7 2
v 0 7 2
v 1 7 2
v -3 7 -2
v -1 7 -2
v 0 7 -2
v 1 7 -2
v -3 10 3
v -2 10 3
v 0 10 3
v 1 10 3
v -2 10 2
v 0 10 2
v -5 10 1
v -3 10 1
v -2 10 1
v 0 10 1
v 1 10 1
v -5 10 -1
v -3 10 -1
v -2 10 -1
v 0 10 -1
v 1 10 -1
v -2 10 -2
v 0 10 -2
v -3 10 -3
v -2 10 -3
v 0 10 -3
v 1 10 -3
v -2 12 10
v 0 12 10
v -3 12 9
v -2 12 9
v 0 12 9
v 1 12 9
v -3 12 8
v -2 12 8
v 0 12 8
v 1 12 8
v -3 12 -8
v -2 12 -8
v 0 12 -8
v 1 12 -8
v -3 12 -9
v -2 12 -9
v 0 12 -9
v 1 12 -9
v -2 12 -10
v 0 12 -10
v -2 13 9
v 0 13 9
v -3 13 8
v -2 13 8
v 0 13 8
v 1 13 8
v -3 13 7
v -2 13 7
v 0 13 7
v 1 13 7
v -3 13 -7
v -2 13 -7
v 0 13 -7
v 1 13 -7
v -3 13 -8
v -2 13 -8
v 0 13 -8
v 1 13 -8
v -2 13 -9
v 0 13 -9
v -2 15 8
v 0 15 8
v -3 15 7
v -2 15 7
v 0 15 7
v 1 15 7
v -3 15 3
v -2 15 3
v 0 15 3
v 1 15 3
v -3 15 -3
v -2 15 -3
v 0 15 -3
v 1 15 -3
v -3 15 -7
v -2 15 -7
v 0 15 -7
v 1 15 -7
v -2 15 -8
v 0 15 -8
v -2 16 7
v 0 16 7
v -2 16 3
v 0 16 3
v -2 16 -3
v 0 16 -3
v -2 16 -7
v 0 16 -7
v -3 17 3
v -2 17 3
v 0 17 3
v 1 17 3
v -3 17 1
v -2 17 1
v 0 17 1
v 1 17 1
v -3 17 -1
v -2 17 -1
v 0 17 -1
v 1 17 -1
v -3 17 -3
v -2 17 -3
v 0 17 -3
v 1 17 -3
v -2 18 3
v 0 18 3
v -2 18 1
v 0 18 1
v -2 18 -1
v 0 18 -1
v -2 18 -3
v 0 18 -3
v -3 19 1
v -2 19 1
v 0 19 1
v 1 19 1
v -3 19 -1
v -2 19 -1
v 0 19 -1
v 1 19 -1
v -2 20 1
v 0 20 1
v -2 20 -1
v 0 20 -1

# faces
f 3/4/1 2/4/1 1/4/1
f 4/4/1 2/4/1 3/4/1
f 8/3/1 6/3/1 5/3/1
f 9/3/1 6/3/1 8/3/1
f 12/3/1 8/3/1 7/3/1
f 12/3/1 10/3/1 9/3/1
f 12/3/1 9/3/1 8/3/1
f 13/3/1 10/3/1 12/3/1
f 16/3/1 12/3/1 11/3/1
f 16/3/1 14/3/1 13/3/1
f 16/3/1 13/3/1 12/3/1
f 17/3/1 14/3/1 16/3/1
f 18/3/1 14/3/1 17/3/1
f 19/3/1 14/3/1 18/3/1
f 21/3/1 16/3/1 15/3/1
f 21/3/1 17/3/1 16/3/1
f 22/3/1 17/3/1 21/3/1
f 23/3/1 20/3/1 19/3/1
f 23/3/1 19/3/1 18/3/1
f 24/3/1 20/3/1 23/3/1
f 26/3/1 21/3/1 15/3/1
f 27/1/1 23/1/1 22/1/1
f 28/1/1 23/1/1 27/1/1
f 29/3/1 20/3/1 24/3/1
f 32/3/1 26/3/1 25/3/1
f 33/3/1 21/3/1 26/3/1
f 33/3/1 26/3/1 32/3/1
f 34/3/1 30/3/1 29/3/1
f 34/3/1 29/3/1 24/3/1
f 35/3/1 30/3/1 34/3/1
f 37/3/1 33/3/1 32/3/1
f 37/3/1 36/3/1 35/3/1
f 37/3/1 35/3/1 34/3/1
f 37/3/1 34/3/1 33/3/1
f 37/3/1 32/3/1 31/3/1
f 38/3/1 36/3/1 37/3/1
f 39/3/1 37/3/1 31/3/1
f 40/3/1 37/3/1 39/3/1
f 41/3/1 36/3/1 38/3/1
f 42/3/1 36/3/1 41/3/1
f 43/3/1 39/3/1 31/3/1
f 44/3/1 39/3/1 43/3/1
f 45/3/1 36/3/1 42/3/1
f 46/3/1 36/3/1 45/3/1
f 47/3/1 39/3/1 44/3/1
f 48/3/1 39/3/1 47/3/1
f 49/3/1 39/3/1 48/3/1
f 50/3/1 41/3/1 40/3/1
f 51/3/1 41/3/1 50/3/1
f 52/3/1 45/3/1 42/3/1
f 53/3/1 45/3/1 52/3/1
f 54/3/1 45/3/1 53/3/1
f 55/3/1 49/3/1 48/3/1
f 55/2/1 50/2/1 49/2/1
f 56/3/1 51/3/1 50/3/1
f 56/2/1 50/2/1 55/2/1
f 57/2/1 52/2/1 51/2/1
f 57/3/1 51/3/1 56/3/1
f 58/3/1 53/3/1 52/3/1
f 58/2/1 52/2/1 57/2/1
f 59/3/1 55/3/1 48/3/1
f 59/3/1 57/3/1 56/3/1
f 59/3/1 58/3/1 57/3/1
f 59/3/1 56/3/1 55/3/1
f 60/3/1 58/3/1 59/3/1
f 61/3/1 53/3/1 58/3/1
f 61/3/1 58/3/1 60/3/1
f 62/3/1 53/3/1 61/3/1
f 63/3/1 61/3/1 60/3/1
f 64/3/1 61/3/1 63/3/1
f 65/3/1 61/3/1 64/3/1
f 66/3/1 61/3/1 65/3/1
f 67/3/1 65/3/1 64/3/1
f 68/3/1 65/3/1 67/3/1
f 71/4/1 70/4/1 69/4/1
f 72/4/1 70/4/1 71/4/1
f 77/4/1 74/4/1 73/4/1
f 78/4/1 74/4/1 77/4/1
f 79/4/1 76/4/1 75/4/1
f 80/4/1 76/4/1 79/4/1
f 86/4/1 82/4/1 81/4/1
f 87/4/1 82/4/1 86/4/1
f 88/4/1 84/4/1 83/4/1
f 89/4/1 84/4/1 88/4/1
f 92/4/1 86/4/1 85/4/1
f 93/4/1 86/4/1 92/4/1
f 94/4/1 90/4/1 89/4/1
f 95/4/1 90/4/1 94/4/1
f 98/4/1 92/4/1 91/4/1
f 99/4/1 92/4/1 98/4/1
f 100/4/1 96/4/1 95/4/1
f 101/4/1 96/4/1 100/4/1
f 109/4/1 98/4/1 97/4/1
f 110/4/1 98/4/1 109/4/1
f 112/6/1 104/6/1 103/6/1
f 112/5/1 105/5/1 104/5/1
f 113/5/1 105/5/1 112/5/1
f 114/5/1 107/5/1 106/5/1
f 115/6/1 108/6/1 107/6/1
f 115/5/1 107/5/1 114/5/1
f 117/4/1 102/4/1 101/4/1
f 118/4/1 102/4/1 117/4/1
f 119/4/1 111/4/1 110/4/1
f 120/4/1 111/4/1 119/4/1
f 122/6/1 113/6/1 112/6/1
f 122/6/1 112/6/1 103/6/1
f 123/6/1 113/6/1 122/6/1
f 124/6/1 115/6/1 114/6/1
f 125/6/1 108/6/1 115/6/1
f 125/6/1 115/6/1 124/6/1
f 127/4/1 117/4/1 116/4/1
f 128/4/1 117/4/1 127/4/1
f 129/4/1 121/4/1 120/4/1
f 130/4/1 121/4/1 129/4/1
f 133/4/1 127/4/1 126/4/1
f 134/4/1 127/4/1 133/4/1
f 135/4/1 131/4/1 130/4/1
f 136/4/1 131/4/1 135/4/1
f 137/4/1 133/4/1 132/4/1
f 138/4/1 133/4/1 137/4/1
f 143/4/1 140/4/1 139/4/1
f 144/4/1 140/4/1 143/4/1
f 145/4/1 142/4/1 141/4/1
f 146/4/1 142/4/1 145/4/1
f 149/4/1 148/4/1 147/4/1
f 150/4/1 148/4/1 149/4/1
f 154/1/1 152/1/1 151/1/1
f 155/1/1 152/1/1 154/1/1
f 157/1/1 154/1/1 153/1/1
f 158/1/1 156/1/1 155/1/1
f 159/1/1 157/1/1 153/1/1
f 159/1/1 158/1/1 157/1/1
f 160/1/1 156/1/1 158/1/1
f 160/1/1 158/1/1 159/1/1
f 161/4/2 162/4/2 163/4/2
f 163/4/2 162/4/2 164/4/2
f 165/4/2 166/4/2 169/4/2
f 169/4/2 166/4/2 170/4/2
f 167/4/2 168/4/2 171/4/2
f 171/4/2 168/4/2 172/4/2
f 173/4/2 174/4/2 178/4/2
f 178/4/2 174/4/2 179/4/2
f 175/4/2 176/4/2 182/4/2
f 182/4/2 176/4/2 183/4/2
f 180/1/2 181/1/2 186/1/2
f 186/1/2 181/1/2 187/1/2
f 177/4/2 178/4/2 190/4/2
f 190/4/2 178/4/2 191/4/2
f 185/1/2 186/1/2 192/1/2
f 187/1/2 188/1/2 193/1/2
f 183/4/2 184/4/2 194/4/2
f 194/4/2 184/4/2 195/4/2
f 189/4/2 190/4/2 198/4/2
f 198/4/2 190/4/2 199/4/2
f 185/1/2 192/1/2 200/1/2
f 192/1/2 193/1/2 200/1/2
f 193/1/2 188/1/2 201/1/2
f 200/1/2 193/1/2 201/1/2
f 195/4/2 196/4/2 202/4/2
f 202/4/2 196/4/2 203/4/2
f 197/4/2 198/4/2 211/4/2
f 211/4/2 198/4/2 212/4/2
f 205/6/2 206/6/2 214/6/2
f 206/5/2 207/5/2 214/5/2
f 214/5/2 207/5/2 215/5/2
f 208/5/2 209/5/2 216/5/2
f 209/6/2 210/6/2 217/6/2
f 216/5/2 209/5/2 217/5/2
f 203/4/2 204/4/2 219/4/2
f 219/4/2 204/4/2 220/4/2
f 212/4/2 213/4/2 221/4/2
f 221/4/2 213/4/2 222/4/2
f 214/6/2 215/6/2 224/6/2
f 205/6/2 214/6/2 224/6/2
f 224/6/2 215/6/2 225/6/2
f 216/6/2 217/6/2 226/6/2
f 217/6/2 210/6/2 227/6/2
f 226/6/2 217/6/2 227/6/2
f 218/4/2 219/4/2 229/4/2
f 229/4/2 219/4/2 230/4/2
f 222/4/2 223/4/2 231/4/2
f 231/4/2 223/4/2 232/4/2
f 228/4/2 229/4/2 235/4/2
f 235/4/2 229/4/2 236/4/2
f 232/4/2 233/4/2 237/4/2
f 237/4/2 233/4/2 238/4/2
f 234/4/2 235/4/2 239/4/2
f 239/4/2 235/4/2 240/4/2
f 241/4/2 242/4/2 245/4/2
f 245/4/2 242/4/2 246/4/2
f 243/4/2 244/4/2 247/4/2
f 247/4/2 244/4/2 248/4/2
f 249/4/2 250/4/2 251/4/2
f 251/4/2 250/4/2 252/4/2
f 253/3/2 254/3/2 256/3/2
f 256/3/2 254/3/2 257/3/2
f 255/3/2 256/3/2 260/3/2
f 257/3/2 258/3/2 260/3/2
f 256/3/2 257/3/2 260/3/2
f 260/3/2 258/3/2 261/3/2
f 259/3/2 260/3/2 264/3/2
f 261/3/2 262/3/2 264/3/2
f 260/3/2 261/3/2 264/3/2
f 264/3/2 262/3/2 265/3/2
f 265/3/2 262/3/2 266/3/2
f 266/3/2 262/3/2 267/3/2
f 263/3/2 264/3/2 269/3/2
f 264/3/2 265/3/2 269/3/2
f 269/3/2 265/3/2 270/3/2
f 267/3/2 268/3/2 271/3/2
f 266/3/2 267/3/2 271/3/2
f 271/3/2 268/3/2 272/3/2
f 263/3/2 269/3/2 274/3/2
f 270/1/2 271/1/2 275/1/2
f 275/1/2 271/1/2 276/1/2
f 272/3/2 268/3/2 277/3/2
f 273/3/2 274/3/2 280/3/2
f 274/3/2 269/3/2 281/3/2
f 280/3/2 274/3/2 281/3/2
f 277/3/2 278/3/2 282/3/2
f 272/3/2 277/3/2 282/3/2
f 282/3/2 278/3/2 283/3/2
f 280/3/2 281/3/2 285/3/2
f 283/3/2 284/3/2 285/3/2
f 282/3/2 283/3/2 285/3/2
f 281/3/2 282/3/2 285/3/2
f 279/3/2 280/3/2 285/3/2
f 285/3/2 284/3/2 286/3/2
f 286/3/2 284/3/2 287/3/2
f 287/3/2 284/3/2 288/3/2
f 279/3/2 285/3/2 289/3/2
f 289/3/2 285/3/2 290/3/2
f 288/3/2 284/3/2 291/3/2
f 291/3/2 284/3/2 292/3/2
f 290/3/2 285/3/2 293/3/2
f 293/3/2 285/3/2 294/3/2
f 294/3/2 285/3/2 295/3/2
f 286/3/2 287/3/2 296/3/2
f 296/3/2 287/3/2 297/3/2
f 288/3/2 291/3/2 298/3/2
f 298/3/2 291/3/2 299/3/2
f 299/3/2 291/3/2 300/3/2
f 294/3/2 295/3/2 301/3/2
f 296/3/2 297/3/2 301/3/2
f 298/3/2 299/3/2 301/3/2
f 297/3/2 298/3/2 301/3/2
f 295/3/2 296/3/2 301/3/2
f 301/3/2 299/3/2 302/3/2
f 302/3/2 299/3/2 303/3/2
f 303/3/2 299/3/2 304/3/2
f 302/3/2 303/3/2 305/3/2
f 305/3/2 303/3/2 306/3/2
f 306/3/2 303/3/2 307/3/2
f 307/3/2 303/3/2 308/3/2
f 306/3/2 307/3/2 309/3/2
f 309/3/2 307/3/2 310/3/2
f 313/4/3 312/4/3 311/4/3
f 314/4/3 312/4/3 313/4/3
f 318/3/3 316/3/3 315/3/3
f 319/3/3 316/3/3 318/3/3
f 321/4/3 318/4/3 317/4/3
f 322/4/3 318/4/3 321/4/3
f 323/4/3 320/4/3 319/4/3
f 324/4/3 320/4/3 323/4/3
f 325/3/3 323/3/3 322/3/3
f 326/3/3 323/3/3 325/3/3
f 332/3/3 328/3/3 327/3/3
f 333/3/3 328/3/3 332/3/3
f 334/3/3 330/3/3 329/3/3
f 335/3/3 330/3/3 334/3/3
f 337/4/3 332/4/3 331/4/3
f 338/4/3 332/4/3 337/4/3
f 341/4/3 336/4/3 335/4/3
f 342/4/3 336/4/3 341/4/3
f 343/3/3 339/3/3 338/3/3
f 344/3/3 339/3/3 343/3/3
f 345/3/3 341/3/3 340/3/3
f 346/3/3 341/3/3 345/3/3
f 352/3/3 348/3/3 347/3/3
f 353/3/3 348/3/3 352/3/3
f 354/3/3 350/3/3 349/3/3
f 355/3/3 350/3/3 354/3/3
f 357/4/3 352/4/3 351/4/3
f 358/4/3 352/4/3 357/4/3
f 361/4/3 356/4/3 355/4/3
f 362/4/3 356/4/3 361/4/3
f 363/3/3 359/3/3 358/3/3
f 364/3/3 359/3/3 363/3/3
f 365/3/3 361/3/3 360/3/3
f 366/3/3 361/3/3 365/3/3
f 369/3/3 368/3/3 367/3/3
f 370/3/3 368/3/3 369/3/3
f 373/3/3 372/3/3 371/3/3
f 374/3/3 372/3/3 373/3/3
f 380/3/3 376/3/3 375/3/3
f 381/3/3 378/3/3 377/3/3
f 382/3/3 378/3/3 381/3/3
f 383/3/3 378/3/3 382/3/3
f 385/4/3 380/4/3 379/4/3
f 386/3/3 376/3/3 380/3/3
f 386/4/3 380/4/3 385/4/3
f 388/3/3 383/3/3 382/3/3
f 389/4/3 384/4/3 383/4/3
f 389/3/3 383/3/3 388/3/3
f 390/4/3 384/4/3 389/4/3
f 391/3/3 376/3/3 386/3/3
f 392/3/3 376/3/3 391/3/3
f 393/3/3 388/3/3 387/3/3
f 393/3/3 389/3/3 388/3/3
f 394/3/3 389/3/3 393/3/3
f 397/1/3 396/1/3 395/1/3
f 398/1/3 396/1/3 397/1/3
f 401/1/3 400/1/3 399/1/3
f 402/1/3 400/1/3 401/1/3
f 407/4/3 404/4/3 403/4/3
f 408/4/3 404/4/3 407/4/3
f 413/3/3 406/3/3 405/3/3
f 414/3/3 406/3/3 413/3/3
f 415/3/3 406/3/3 414/3/3
f 416/3/3 409/3/3 408/3/3
f 417/3/3 409/3/3 416/3/3
f 418/3/3 409/3/3 417/3/3
f 419/3/3 411/3/3 410/3/3
f 420/3/3 411/3/3 419/3/3
f 421/3/3 411/3/3 420/3/3
f 423/4/3 413/4/3 412/4/3
f 424/3/3 414/3/3 413/3/3
f 424/4/3 413/4/3 423/4/3
f 425/3/3 414/3/3 424/3/3
f 431/3/3 421/3/3 420/3/3
f 432/4/3 422/4/3 421/4/3
f 432/3/3 421/3/3 431/3/3
f 433/4/3 422/4/3 432/4/3
f 434/3/3 425/3/3 424/3/3
f 434/3/3 426/3/3 425/3/3
f 435/3/3 426/3/3 434/3/3
f 436/3/3 429/3/3 428/3/3
f 436/3/3 428/3/3 427/3/3
f 437/3/3 429/3/3 436/3/3
f 438/3/3 431/3/3 430/3/3
f 438/3/3 432/3/3 431/3/3
f 439/3/3 432/3/3 438/3/3
f 442/3/3 441/3/3 440/3/3
f 443/3/3 441/3/3 442/3/3
f 446/3/3 445/3/3 444/3/3
f 447/3/3 445/3/3 446/3/3
f 450/3/3 449/3/3 448/3/3
f 451/3/3 449/3/3 450/3/3
f 454/3/3 453/3/3 452/3/3
f 455/3/3 453/3/3 454/3/3
f 458/3/3 457/3/3 456/3/3
f 459/3/3 457/3/3 458/3/3
f 462/3/3 461/3/3 460/3/3
f 463/3/3 461/3/3 462/3/3
f 464/3/4 465/3/4 466/3/4
f 466/3/4 465/3/4 467/3/4
f 468/3/4 469/3/4 470/3/4
f 470/3/4 469/3/4 471/3/4
f 472/3/4 473/3/4 474/3/4
f 474/3/4 473/3/4 475/3/4
f 476/3/4 477/3/4 478/3/4
f 478/3/4 477/3/4 479/3/4
f 480/3/4 481/3/4 482/3/4
f 482/3/4 481/3/4 483/3/4
f 484/3/4 485/3/4 486/3/4
f 486/3/4 485/3/4 487/3/4
f 488/4/4 489/4/4 492/4/4
f 492/4/4 489/4/4 493/4/4
f 490/3/4 491/3/4 498/3/4
f 498/3/4 491/3/4 499/3/4
f 499/3/4 491/3/4 500/3/4
f 493/3/4 494/3/4 501/3/4
f 501/3/4 494/3/4 502/3/4
f 502/3/4 494/3/4 503/3/4
f 495/3/4 496/3/4 504/3/4
f 504/3/4 496/3/4 505/3/4
f 505/3/4 496/3/4 506/3/4
f 497/4/4 498/4/4 508/4/4
f 498/3/4 499/3/4 509/3/4
f 508/4/4 498/4/4 509/4/4
f 509/3/4 499/3/4 510/3/4
f 505/3/4 506/3/4 516/3/4
f 506/4/4 507/4/4 517/4/4
f 516/3/4 506/3/4 517/3/4
f 517/4/4 507/4/4 518/4/4
f 509/3/4 510/3/4 519/3/4
f 510/3/4 511/3/4 519/3/4
f 519/3/4 511/3/4 520/3/4
f 513/3/4 514/3/4 521/3/4
f 512/3/4 513/3/4 521/3/4
f 521/3/4 514/3/4 522/3/4
f 515/3/4 516/3/4 523/3/4
f 516/3/4 517/3/4 523/3/4
f 523/3/4 517/3/4 524/3/4
f 525/1/4 526/1/4 527/1/4
f 527/1/4 526/1/4 528/1/4
f 529/1/4 530/1/4 531/1/4
f 531/1/4 530/1/4 532/1/4
f 533/3/4 534/3/4 538/3/4
f 535/3/4 536/3/4 539/3/4
f 539/3/4 536/3/4 540/3/4
f 540/3/4 536/3/4 541/3/4
f 537/4/4 538/4/4 543/4/4
f 538/3/4 534/3/4 544/3/4
f 543/4/4 538/4/4 544/4/4
f 540/3/4 541/3/4 546/3/4
f 541/4/4 542/4/4 547/4/4
f 546/3/4 541/3/4 547/3/4
f 547/4/4 542/4/4 548/4/4
f 544/3/4 534/3/4 549/3/4
f 549/3/4 534/3/4 550/3/4
f 545/3/4 546/3/4 551/3/4
f 546/3/4 547/3/4 551/3/4
f 551/3/4 547/3/4 552/3/4
f 553/3/4 554/3/4 555/3/4
f 555/3/4 554/3/4 556/3/4
f 557/3/4 558/3/4 559/3/4
f 559/3/4 558/3/4 560/3/4
f 561/3/4 562/3/4 566/3/4
f 566/3/4 562/3/4 567/3/4
f 563/3/4 564/3/4 568/3/4
f 568/3/4 564/3/4 569/3/4
f 565/4/4 566/4/4 571/4/4
f 571/4/4 566/4/4 572/4/4
f 569/4/4 570/4/4 575/4/4
f 575/4/4 570/4/4 576/4/4
f 572/3/4 573/3/4 577/3/4
f 577/3/4 573/3/4 578/3/4
f 574/3/4 575/3/4 579/3/4
f 579/3/4 575/3/4 580/3/4
f 581/3/4 582/3/4 586/3/4
f 586/3/4 582/3/4 587/3/4
f 583/3/4 584/3/4 588/3/4
f 588/3/4 584/3/4 589/3/4
f 585/4/4 586/4/4 591/4/4
f 591/4/4 586/4/4 592/4/4
f 589/4/4 590/4/4 595/4/4
f 595/4/4 590/4/4 596/4/4
f 592/3/4 593/3/4 597/3/4
f 597/3/4 593/3/4 598/3/4
f 594/3/4 595/3/4 599/3/4
f 599/3/4 595/3/4 600/3/4
f 601/3/4 602/3/4 604/3/4
f 604/3/4 602/3/4 605/3/4
f 603/4/4 604/4/4 607/4/4
f 607/4/4 604/4/4 608/4/4
f 605/4/4 606/4/4 609/4/4
f 609/4/4 606/4/4 610/4/4
f 608/3/4 609/3/4 611/3/4
f 611/3/4 609/3/4 612/3/4
f 613/4/4 614/4/4 615/4/4
f 615/4/4 614/4/4 616/4/4
f 619/4/5 618/4/5 617/4/5
f 620/4/5 618/4/5 619/4/5
f 625/3/5 622/3/5 621/3/5
f 626/3/5 622/3/5 625/3/5
f 627/3/5 624/3/5 623/3/5
f 628/3/5 624/3/5 627/3/5
f 631/4/5 630/4/5 629/4/5
f 632/4/5 630/4/5 631/4/5
f 635/4/5 634/4/5 633/4/5
f 636/4/5 634/4/5 635/4/5
f 641/3/5 638/3/5 637/3/5
f 642/3/5 638/3/5 641/3/5
f 643/3/5 640/3/5 639/3/5
f 644/3/5 640/3/5 643/3/5
f 649/3/5 646/3/5 645/3/5
f 650/3/5 646/3/5 649/3/5
f 651/3/5 648/3/5 647/3/5
f 652/3/5 648/3/5 651/3/5
f 656/4/5 654/4/5 653/4/5
f 657/4/5 654/4/5 656/4/5
f 659/3/5 656/3/5 655/3/5
f 659/3/5 658/3/5 657/3/5
f 659/3/5 657/3/5 656/3/5
f 660/3/5 658/3/5 659/3/5
f 663/3/5 662/3/5 661/3/5
f 664/3/5 662/3/5 663/3/5
f 665/3/5 662/3/5 664/3/5
f 666/3/5 662/3/5 665/3/5
f 667/4/5 665/4/5 664/4/5
f 668/4/5 665/4/5 667/4/5
f 672/4/5 670/4/5 669/4/5
f 673/4/5 670/4/5 672/4/5
f 675/3/5 672/3/5 671/3/5
f 676/3/5 672/3/5 675/3/5
f 677/3/5 674/3/5 673/3/5
f 678/3/5 674/3/5 677/3/5
f 683/3/5 680/3/5 679/3/5
f 684/3/5 680/3/5 683/3/5
f 685/3/5 682/3/5 681/3/5
f 686/3/5 682/3/5 685/3/5
f 687/4/5 685/4/5 684/4/5
f 688/4/5 685/4/5 687/4/5
f 693/1/5 690/1/5 689/1/5
f 694/1/5 690/1/5 693/1/5
f 695/1/5 692/1/5 691/1/5
f 696/1/5 692/1/5 695/1/5
f 700/4/5 698/4/5 697/4/5
f 701/4/5 698/4/5 700/4/5
f 703/3/5 700/3/5 699/3/5
f 704/3/5 700/3/5 703/3/5
f 705/3/5 702/3/5 701/3/5
f 706/3/5 702/3/5 705/3/5
f 711/3/5 708/3/5 707/3/5
f 712/3/5 708/3/5 711/3/5
f 713/3/5 710/3/5 709/3/5
f 714/3/5 710/3/5 713/3/5
f 715/4/5 713/4/5 712/4/5
f 716/4/5 713/4/5 715/4/5
f 720/4/5 718/4/5 717/4/5
f 721/4/5 718/4/5 720/4/5
f 723/3/5 720/3/5 719/3/5
f 724/3/5 720/3/5 723/3/5
f 725/3/5 722/3/5 721/3/5
f 726/3/5 722/3/5 725/3/5
f 731/3/5 728/3/5 727/3/5
f 732/3/5 728/3/5 731/3/5
f 733/3/5 730/3/5 729/3/5
f 734/3/5 730/3/5 733/3/5
f 739/3/5 736/3/5 735/3/5
f 740/3/5 736/3/5 739/3/5
f 741/3/5 738/3/5 737/3/5
f 742/3/5 738/3/5 741/3/5
f 743/4/5 741/4/5 740/4/5
f 744/4/5 741/4/5 743/4/5
f 747/4/5 746/4/5 745/4/5
f 748/4/5 746/4/5 747/4/5
f 753/2/5 750/2/5 749/2/5
f 754/2/5 750/2/5 753/2/5
f 755/3/5 752/3/5 751/3/5
f 756/3/5 752/3/5 755/3/5
f 761/2/5 758/2/5 757/2/5
f 762/2/5 758/2/5 761/2/5
f 763/3/5 760/3/5 759/3/5
f 764/3/5 760/3/5 763/3/5
f 765/3/6 766/3/6 769/3/6
f 769/3/6 766/3/6 770/3/6
f 767/3/6 768/3/6 771/3/6
f 771/3/6 768/3/6 772/3/6
f 773/3/6 774/3/6 777/3/6
f 777/3/6 774/3/6 778/3/6
f 775/3/6 776/3/6 779/3/6
f 779/3/6 776/3/6 780/3/6
f 781/3/6 782/3/6 785/3/6
f 785/3/6 782/3/6 786/3/6
f 783/3/6 784/3/6 787/3/6
f 787/3/6 784/3/6 788/3/6
f 789/1/6 790/1/6 793/1/6
f 793/1/6 790/1/6 794/1/6
f 791/1/6 792/1/6 795/1/6
f 795/1/6 792/1/6 796/1/6
f 797/3/6 798/3/6 801/3/6
f 799/3/6 800/3/6 802/3/6
f 797/3/6 801/3/6 804/3/6
f 804/3/6 801/3/6 805/3/6
f 802/3/6 800/3/6 806/3/6
f 806/3/6 800/3/6 807/3/6
f 803/4/6 804/4/6 808/4/6
f 808/4/6 804/4/6 809/4/6
f 809/3/6 810/3/6 813/3/6
f 811/3/6 812/3/6 814/3/6
f 809/3/6 813/3/6 815/3/6
f 815/3/6 813/3/6 816/3/6
f 814/3/6 812/3/6 817/3/6
f 817/3/6 812/3/6 818/3/6
f 819/4/6 820/4/6 822/4/6
f 822/4/6 820/4/6 823/4/6
f 821/3/6 822/3/6 825/3/6
f 825/3/6 822/3/6 826/3/6
f 823/3/6 824/3/6 827/3/6
f 827/3/6 824/3/6 828/3/6
f 829/3/6 830/3/6 833/3/6
f 833/3/6 830/3/6 834/3/6
f 831/3/6 832/3/6 835/3/6
f 835/3/6 832/3/6 836/3/6
f 834/4/6 835/4/6 837/4/6
f 837/4/6 835/4/6 838/4/6
f 839/4/6 840/4/6 842/4/6
f 842/4/6 840/4/6 843/4/6
f 841/3/6 842/3/6 845/3/6
f 845/3/6 842/3/6 846/3/6
f 843/3/6 844/3/6 847/3/6
f 847/3/6 844/3/6 848/3/6
f 849/3/6 850/3/6 853/3/6
f 853/3/6 850/3/6 854/3/6
f 851/3/6 852/3/6 855/3/6
f 855/3/6 852/3/6 856/3/6
f 854/4/6 855/4/6 857/4/6
f 857/4/6 855/4/6 858/4/6
f 859/4/6 860/4/6 862/4/6
f 862/4/6 860/4/6 863/4/6
f 861/3/6 862/3/6 865/3/6
f 865/3/6 862/3/6 866/3/6
f 863/3/6 864/3/6 867/3/6
f 867/3/6 864/3/6 868/3/6
f 869/3/6 870/3/6 873/3/6
f 873/3/6 870/3/6 874/3/6
f 871/3/6 872/3/6 875/3/6
f 875/3/6 872/3/6 876/3/6
f 874/4/6 875/4/6 877/4/6
f 877/4/6 875/4/6 878/4/6
f 879/4/6 880/4/6 881/4/6
f 881/4/6 880/4/6 882/4/6
f 883/4/6 884/4/6 885/4/6
f 885/4/6 884/4/6 886/4/6
f 887/3/6 888/3/6 891/3/6
f 891/3/6 888/3/6 892/3/6
f 889/3/6 890/3/6 893/3/6
f 893/3/6 890/3/6 894/3/6
f 895/3/6 896/3/6 899/3/6
f 899/3/6 896/3/6 900/3/6
f 897/3/6 898/3/6 901/3/6
f 901/3/6 898/3/6 902/3/6
f 903/4/6 904/4/6 905/4/6
f 905/4/6 904/4/6 906/4/6
f 907/4/6 908/4/6 909/4/6
f 909/4/6 908/4/6 910/4/6
f 911/3/6 912/3/6 915/3/6
f 915/3/6 912/3/6 916/3/6
f 913/3/6 914/3/6 917/3/6
f 917/3/6 914/3/6 918/3/6
f 919/4/6 920/4/6 921/4/6
f 921/4/6 920/4/6 922/4/6
