# MagicaVoxel @ Ephtracy

# material
mtllib Stars1.mtl
usemtl palette

# normals
vn -1 0 0
vn 1 0 0
vn 0 0 1
vn 0 0 -1
vn 0 -1 0
vn 0 1 0

# texcoords
vt 0.0644531 0.5
vt 0.373047 0.5
vt 0.958984 0.5
vt 0.994141 0.5

# verts
v -2 6 5
v -2 6 3
v -2 6 -3
v -2 6 -5
v -2 7 5
v -2 7 4
v -2 7 3
v -2 7 1
v -2 7 -1
v -2 7 -3
v -2 7 -4
v -2 7 -5
v -2 8 1
v -2 8 -1
v -2 9 4
v -2 9 3
v -2 9 1
v -2 9 -1
v -2 9 -3
v -2 9 -4
v -2 10 1
v -2 10 -1
v -2 11 4
v -2 11 3
v -2 11 2
v -2 11 1
v -2 11 -1
v -2 11 -2
v -2 11 -3
v -2 11 -4
v -2 12 5
v -2 12 4
v -2 12 -4
v -2 12 -5
v -2 13 7
v -2 13 5
v -2 13 2
v -2 13 1
v -2 13 -1
v -2 13 -2
v -2 13 -5
v -2 13 -7
v -2 14 7
v -2 14 2
v -2 14 -2
v -2 14 -7
v -2 16 2
v -2 16 1
v -2 16 -1
v -2 16 -2
v -2 18 1
v -2 18 -1
v -1 5 6
v -1 5 3
v -1 5 -4
v -1 5 -6
v -1 6 5
v -1 6 3
v -1 6 1
v -1 6 -1
v -1 6 -3
v -1 6 -4
v -1 6 -5
v -1 7 6
v -1 7 5
v -1 7 4
v -1 7 3
v -1 7 1
v -1 7 -1
v -1 7 -3
v -1 7 -4
v -1 7 -5
v -1 7 -6
v -1 8 1
v -1 8 -1
v -1 9 5
v -1 9 4
v -1 9 3
v -1 9 1
v -1 9 -1
v -1 9 -3
v -1 9 -4
v -1 9 -5
v -1 10 5
v -1 10 4
v -1 10 1
v -1 10 -1
v -1 10 -4
v -1 10 -5
v -1 11 6
v -1 11 5
v -1 11 4
v -1 11 3
v -1 11 2
v -1 11 1
v -1 11 -1
v -1 11 -2
v -1 11 -3
v -1 11 -4
v -1 11 -5
v -1 11 -6
v -1 12 7
v -1 12 6
v -1 12 5
v -1 12 4
v -1 12 2
v -1 12 1
v -1 12 -1
v -1 12 -2
v -1 12 -4
v -1 12 -5
v -1 12 -6
v -1 12 -7
v -1 13 8
v -1 13 7
v -1 13 5
v -1 13 2
v -1 13 1
v -1 13 -1
v -1 13 -2
v -1 13 -5
v -1 13 -7
v -1 13 -8
v -1 14 8
v -1 14 7
v -1 14 6
v -1 14 2
v -1 14 -2
v -1 14 -6
v -1 14 -7
v -1 14 -8
v -1 15 6
v -1 15 3
v -1 15 -3
v -1 15 -6
v -1 16 3
v -1 16 2
v -1 16 1
v -1 16 -1
v -1 16 -2
v -1 16 -3
v -1 18 2
v -1 18 1
v -1 18 -1
v -1 18 -2
v -1 19 1
v -1 19 -1
v 0 11 4
v 0 11 3
v 0 12 5
v 0 12 4
v 0 13 5
v 0 13 4
v 0 13 3
v 0 14 5
v 0 14 4
v -1 11 4
v -1 11 3
v -1 12 5
v -1 12 4
v -1 13 5
v -1 13 4
v -1 13 3
v -1 14 5
v -1 14 4
v 0 5 6
v 0 5 3
v 0 5 -4
v 0 5 -6
v 0 6 5
v 0 6 3
v 0 6 1
v 0 6 -1
v 0 6 -3
v 0 6 -4
v 0 6 -5
v 0 7 6
v 0 7 5
v 0 7 4
v 0 7 3
v 0 7 1
v 0 7 -1
v 0 7 -3
v 0 7 -4
v 0 7 -5
v 0 7 -6
v 0 8 1
v 0 8 -1
v 0 9 5
v 0 9 4
v 0 9 3
v 0 9 1
v 0 9 -1
v 0 9 -3
v 0 9 -4
v 0 9 -5
v 0 10 5
v 0 10 4
v 0 10 1
v 0 10 -1
v 0 10 -4
v 0 10 -5
v 0 11 6
v 0 11 5
v 0 11 4
v 0 11 3
v 0 11 2
v 0 11 1
v 0 11 -1
v 0 11 -2
v 0 11 -3
v 0 11 -4
v 0 11 -5
v 0 11 -6
v 0 12 7
v 0 12 6
v 0 12 5
v 0 12 4
v 0 12 2
v 0 12 1
v 0 12 -1
v 0 12 -2
v 0 12 -4
v 0 12 -5
v 0 12 -6
v 0 12 -7
v 0 13 8
v 0 13 7
v 0 13 5
v 0 13 2
v 0 13 1
v 0 13 -1
v 0 13 -2
v 0 13 -5
v 0 13 -7
v 0 13 -8
v 0 14 8
v 0 14 7
v 0 14 6
v 0 14 2
v 0 14 -2
v 0 14 -6
v 0 14 -7
v 0 14 -8
v 0 15 6
v 0 15 3
v 0 15 -3
v 0 15 -6
v 0 16 3
v 0 16 2
v 0 16 1
v 0 16 -1
v 0 16 -2
v 0 16 -3
v 0 18 2
v 0 18 1
v 0 18 -1
v 0 18 -2
v 0 19 1
v 0 19 -1
v 1 6 5
v 1 6 3
v 1 6 -3
v 1 6 -5
v 1 7 5
v 1 7 4
v 1 7 3
v 1 7 1
v 1 7 -1
v 1 7 -3
v 1 7 -4
v 1 7 -5
v 1 8 1
v 1 8 -1
v 1 9 4
v 1 9 3
v 1 9 1
v 1 9 -1
v 1 9 -3
v 1 9 -4
v 1 10 1
v 1 10 -1
v 1 11 4
v 1 11 3
v 1 11 2
v 1 11 1
v 1 11 -1
v 1 11 -2
v 1 11 -3
v 1 11 -4
v 1 12 5
v 1 12 4
v 1 12 -4
v 1 12 -5
v 1 13 7
v 1 13 5
v 1 13 2
v 1 13 1
v 1 13 -1
v 1 13 -2
v 1 13 -5
v 1 13 -7
v 1 14 7
v 1 14 2
v 1 14 -2
v 1 14 -7
v 1 16 2
v 1 16 1
v 1 16 -1
v 1 16 -2
v 1 18 1
v 1 18 -1
v -1 13 8
v -1 14 8
v 0 13 8
v 0 14 8
v -2 13 7
v -2 14 7
v -1 12 7
v -1 13 7
v -1 14 7
v 0 12 7
v 0 13 7
v 0 14 7
v 1 13 7
v 1 14 7
v -1 5 6
v -1 7 6
v -1 11 6
v -1 12 6
v -1 14 6
v -1 15 6
v 0 5 6
v 0 7 6
v 0 11 6
v 0 12 6
v 0 14 6
v 0 15 6
v -2 6 5
v -2 7 5
v -2 12 5
v -2 13 5
v -1 6 5
v -1 7 5
v -1 9 5
v -1 10 5
v -1 11 5
v -1 12 5
v -1 13 5
v 0 6 5
v 0 7 5
v 0 9 5
v 0 10 5
v 0 11 5
v 0 12 5
v 0 13 5
v 1 6 5
v 1 7 5
v 1 12 5
v 1 13 5
v -2 7 4
v -2 9 4
v -2 11 4
v -2 12 4
v -1 7 4
v -1 9 4
v -1 10 4
v -1 11 4
v -1 12 4
v -1 13 4
v -1 14 4
v 0 7 4
v 0 9 4
v 0 10 4
v 0 11 4
v 0 12 4
v 0 13 4
v 0 14 4
v 1 7 4
v 1 9 4
v 1 11 4
v 1 12 4
v -2 9 3
v -2 11 3
v -1 9 3
v -1 11 3
v -1 13 3
v -1 15 3
v -1 16 3
v 0 9 3
v 0 11 3
v 0 13 3
v 0 15 3
v 0 16 3
v 1 9 3
v 1 11 3
v -2 14 2
v -2 16 2
v -1 14 2
v -1 16 2
v -1 18 2
v 0 14 2
v 0 16 2
v 0 18 2
v 1 14 2
v 1 16 2
v -2 11 1
v -2 13 1
v -2 16 1
v -2 18 1
v -1 11 1
v -1 12 1
v -1 13 1
v -1 16 1
v -1 18 1
v -1 19 1
v 0 11 1
v 0 12 1
v 0 13 1
v 0 16 1
v 0 18 1
v 0 19 1
v 1 11 1
v 1 13 1
v 1 16 1
v 1 18 1
v -2 7 -1
v -2 8 -1
v -2 9 -1
v -2 10 -1
v -1 6 -1
v -1 7 -1
v -1 8 -1
v -1 9 -1
v -1 10 -1
v 0 6 -1
v 0 7 -1
v 0 8 -1
v 0 9 -1
v 0 10 -1
v 1 7 -1
v 1 8 -1
v 1 9 -1
v 1 10 -1
v -2 11 -2
v -2 13 -2
v -1 11 -2
v -1 12 -2
v -1 13 -2
v 0 11 -2
v 0 12 -2
v 0 13 -2
v 1 11 -2
v 1 13 -2
v -2 6 -3
v -2 7 -3
v -1 6 -3
v -1 7 -3
v 0 6 -3
v 0 7 -3
v 1 6 -3
v 1 7 -3
v -1 5 -4
v -1 6 -4
v 0 5 -4
v 0 6 -4
v -1 12 5
v -1 13 5
v -1 14 5
v 0 12 5
v 0 13 5
v 0 14 5
v -1 11 4
v -1 12 4
v 0 11 4
v 0 12 4
v -2 6 3
v -2 7 3
v -1 5 3
v -1 6 3
v -1 7 3
v 0 5 3
v 0 6 3
v 0 7 3
v 1 6 3
v 1 7 3
v -2 11 2
v -2 13 2
v -1 11 2
v -1 12 2
v -1 13 2
v 0 11 2
v 0 12 2
v 0 13 2
v 1 11 2
v 1 13 2
v -2 7 1
v -2 8 1
v -2 9 1
v -2 10 1
v -1 6 1
v -1 7 1
v -1 8 1
v -1 9 1
v -1 10 1
v 0 6 1
v 0 7 1
v 0 8 1
v 0 9 1
v 0 10 1
v 1 7 1
v 1 8 1
v 1 9 1
v 1 10 1
v -2 11 -1
v -2 13 -1
v -2 16 -1
v -2 18 -1
v -1 11 -1
v -1 12 -1
v -1 13 -1
v -1 16 -1
v -1 18 -1
v -1 19 -1
v 0 11 -1
v 0 12 -1
v 0 13 -1
v 0 16 -1
v 0 18 -1
v 0 19 -1
v 1 11 -1
v 1 13 -1
v 1 16 -1
v 1 18 -1
v -2 14 -2
v -2 16 -2
v -1 14 -2
v -1 16 -2
v -1 18 -2
v 0 14 -2
v 0 16 -2
v 0 18 -2
v 1 14 -2
v 1 16 -2
v -2 9 -3
v -2 11 -3
v -1 9 -3
v -1 11 -3
v -1 15 -3
v -1 16 -3
v 0 9 -3
v 0 11 -3
v 0 15 -3
v 0 16 -3
v 1 9 -3
v 1 11 -3
v -2 7 -4
v -2 9 -4
v -2 11 -4
v -2 12 -4
v -1 7 -4
v -1 9 -4
v -1 10 -4
v -1 11 -4
v -1 12 -4
v 0 7 -4
v 0 9 -4
v 0 10 -4
v 0 11 -4
v 0 12 -4
v 1 7 -4
v 1 9 -4
v 1 11 -4
v 1 12 -4
v -2 6 -5
v -2 7 -5
v -2 12 -5
v -2 13 -5
v -1 6 -5
v -1 7 -5
v -1 9 -5
v -1 10 -5
v -1 11 -5
v -1 12 -5
v -1 13 -5
v 0 6 -5
v 0 7 -5
v 0 9 -5
v 0 10 -5
v 0 11 -5
v 0 12 -5
v 0 13 -5
v 1 6 -5
v 1 7 -5
v 1 12 -5
v 1 13 -5
v -1 5 -6
v -1 7 -6
v -1 11 -6
v -1 12 -6
v -1 14 -6
v -1 15 -6
v 0 5 -6
v 0 7 -6
v 0 11 -6
v 0 12 -6
v 0 14 -6
v 0 15 -6
v -2 13 -7
v -2 14 -7
v -1 12 -7
v -1 13 -7
v -1 14 -7
v 0 12 -7
v 0 13 -7
v 0 14 -7
v 1 13 -7
v 1 14 -7
v -1 13 -8
v -1 14 -8
v 0 13 -8
v 0 14 -8
v -1 5 6
v 0 5 6
v -1 5 3
v 0 5 3
v -1 5 -4
v 0 5 -4
v -1 5 -6
v 0 5 -6
v -2 6 5
v -1 6 5
v 0 6 5
v 1 6 5
v -2 6 3
v -1 6 3
v 0 6 3
v 1 6 3
v -1 6 1
v 0 6 1
v -1 6 -1
v 0 6 -1
v -2 6 -3
v -1 6 -3
v 0 6 -3
v 1 6 -3
v -1 6 -4
v 0 6 -4
v -2 6 -5
v -1 6 -5
v 0 6 -5
v 1 6 -5
v -2 7 3
v -1 7 3
v 0 7 3
v 1 7 3
v -2 7 1
v -1 7 1
v 0 7 1
v 1 7 1
v -2 7 -1
v -1 7 -1
v 0 7 -1
v 1 7 -1
v -2 7 -3
v -1 7 -3
v 0 7 -3
v 1 7 -3
v -2 8 1
v -1 8 1
v 0 8 1
v 1 8 1
v -2 8 -1
v -1 8 -1
v 0 8 -1
v 1 8 -1
v -1 10 5
v 0 10 5
v -1 10 4
v 0 10 4
v -2 10 1
v -1 10 1
v 0 10 1
v 1 10 1
v -2 10 -1
v -1 10 -1
v 0 10 -1
v 1 10 -1
v -1 10 -4
v 0 10 -4
v -1 10 -5
v 0 10 -5
v -1 11 6
v 0 11 6
v -1 11 5
v 0 11 5
v -2 11 4
v -1 11 4
v 0 11 4
v 1 11 4
v -2 11 3
v -1 11 3
v 0 11 3
v 1 11 3
v -2 11 -3
v -1 11 -3
v 0 11 -3
v 1 11 -3
v -2 11 -4
v -1 11 -4
v 0 11 -4
v 1 11 -4
v -1 11 -5
v 0 11 -5
v -1 11 -6
v 0 11 -6
v -1 12 7
v 0 12 7
v -1 12 6
v 0 12 6
v -2 12 5
v -1 12 5
v 0 12 5
v 1 12 5
v -2 12 4
v -1 12 4
v 0 12 4
v 1 12 4
v -2 12 -4
v -1 12 -4
v 0 12 -4
v 1 12 -4
v -2 12 -5
v -1 12 -5
v 0 12 -5
v 1 12 -5
v -1 12 -6
v 0 12 -6
v -1 12 -7
v 0 12 -7
v -1 13 8
v 0 13 8
v -2 13 7
v -1 13 7
v 0 13 7
v 1 13 7
v -2 13 5
v -1 13 5
v 0 13 5
v 1 13 5
v -1 13 4
v 0 13 4
v -1 13 3
v 0 13 3
v -2 13 2
v -1 13 2
v 0 13 2
v 1 13 2
v -2 13 1
v -1 13 1
v 0 13 1
v 1 13 1
v -2 13 -1
v -1 13 -1
v 0 13 -1
v 1 13 -1
v -2 13 -2
v -1 13 -2
v 0 13 -2
v 1 13 -2
v -2 13 -5
v -1 13 -5
v 0 13 -5
v 1 13 -5
v -2 13 -7
v -1 13 -7
v 0 13 -7
v 1 13 -7
v -1 13 -8
v 0 13 -8
v -1 14 5
v 0 14 5
v -1 14 4
v 0 14 4
v -1 7 6
v 0 7 6
v -2 7 5
v -1 7 5
v 0 7 5
v 1 7 5
v -2 7 4
v -1 7 4
v 0 7 4
v 1 7 4
v -2 7 -4
v -1 7 -4
v 0 7 -4
v 1 7 -4
v -2 7 -5
v -1 7 -5
v 0 7 -5
v 1 7 -5
v -1 7 -6
v 0 7 -6
v -1 9 5
v 0 9 5
v -2 9 4
v -1 9 4
v 0 9 4
v 1 9 4
v -2 9 3
v -1 9 3
v 0 9 3
v 1 9 3
v -2 9 1
v -1 9 1
v 0 9 1
v 1 9 1
v -2 9 -1
v -1 9 -1
v 0 9 -1
v 1 9 -1
v -2 9 -3
v -1 9 -3
v 0 9 -3
v 1 9 -3
v -2 9 -4
v -1 9 -4
v 0 9 -4
v 1 9 -4
v -1 9 -5
v 0 9 -5
v -1 11 4
v 0 11 4
v -1 11 3
v 0 11 3
v -2 11 2
v -1 11 2
v 0 11 2
v 1 11 2
v -2 11 1
v -1 11 1
v 0 11 1
v 1 11 1
v -2 11 -1
v -1 11 -1
v 0 11 -1
v 1 11 -1
v -2 11 -2
v -1 11 -2
v 0 11 -2
v 1 11 -2
v -1 12 5
v 0 12 5
v -1 12 4
v 0 12 4
v -1 14 8
v 0 14 8
v -2 14 7
v -1 14 7
v 0 14 7
v 1 14 7
v -1 14 6
v 0 14 6
v -2 14 2
v -1 14 2
v 0 14 2
v 1 14 2
v -2 14 -2
v -1 14 -2
v 0 14 -2
v 1 14 -2
v -1 14 -6
v 0 14 -6
v -2 14 -7
v -1 14 -7
v 0 14 -7
v 1 14 -7
v -1 14 -8
v 0 14 -8
v -1 15 6
v 0 15 6
v -1 15 3
v 0 15 3
v -1 15 -3
v 0 15 -3
v -1 15 -6
v 0 15 -6
v -1 16 3
v 0 16 3
v -2 16 2
v -1 16 2
v 0 16 2
v 1 16 2
v -2 16 1
v -1 16 1
v 0 16 1
v 1 16 1
v -2 16 -1
v -1 16 -1
v 0 16 -1
v 1 16 -1
v -2 16 -2
v -1 16 -2
v 0 16 -2
v 1 16 -2
v -1 16 -3
v 0 16 -3
v -1 18 2
v 0 18 2
v -2 18 1
v -1 18 1
v 0 18 1
v 1 18 1
v -2 18 -1
v -1 18 -1
v 0 18 -1
v 1 18 -1
v -1 18 -2
v 0 18 -2
v -1 19 1
v 0 19 1
v -1 19 -1
v 0 19 -1

# faces
f 5/2/1 2/2/1 1/2/1
f 6/2/1 2/2/1 5/2/1
f 7/2/1 2/2/1 6/2/1
f 10/2/1 4/2/1 3/2/1
f 11/2/1 4/2/1 10/2/1
f 12/2/1 4/2/1 11/2/1
f 13/2/1 8/2/1 7/2/1
f 13/2/1 7/2/1 6/2/1
f 14/2/1 11/2/1 10/2/1
f 14/2/1 10/2/1 9/2/1
f 15/2/1 13/2/1 6/2/1
f 15/2/1 14/2/1 13/2/1
f 16/2/1 14/2/1 15/2/1
f 17/2/1 14/2/1 16/2/1
f 18/2/1 11/2/1 14/2/1
f 18/2/1 14/2/1 17/2/1
f 19/2/1 11/2/1 18/2/1
f 20/2/1 11/2/1 19/2/1
f 21/2/1 17/2/1 16/2/1
f 22/2/1 19/2/1 18/2/1
f 24/2/1 21/2/1 16/2/1
f 24/2/1 22/2/1 21/2/1
f 25/2/1 22/2/1 24/2/1
f 26/2/1 22/2/1 25/2/1
f 27/2/1 19/2/1 22/2/1
f 27/2/1 22/2/1 26/2/1
f 28/2/1 19/2/1 27/2/1
f 29/2/1 19/2/1 28/2/1
f 32/2/1 24/2/1 23/2/1
f 32/2/1 25/2/1 24/2/1
f 33/2/1 30/2/1 29/2/1
f 33/2/1 29/2/1 28/2/1
f 36/2/1 32/2/1 31/2/1
f 37/2/1 25/2/1 32/2/1
f 37/2/1 32/2/1 36/2/1
f 38/2/1 27/2/1 26/2/1
f 39/2/1 27/2/1 38/2/1
f 40/2/1 33/2/1 28/2/1
f 40/2/1 34/2/1 33/2/1
f 41/2/1 34/2/1 40/2/1
f 43/2/1 41/2/1 40/2/1
f 43/2/1 42/2/1 41/2/1
f 43/2/1 40/2/1 39/2/1
f 43/2/1 39/2/1 38/2/1
f 43/2/1 38/2/1 37/2/1
f 43/2/1 36/2/1 35/2/1
f 43/2/1 37/2/1 36/2/1
f 44/2/1 42/2/1 43/2/1
f 45/2/1 42/2/1 44/2/1
f 46/2/1 42/2/1 45/2/1
f 47/2/1 45/2/1 44/2/1
f 48/2/1 45/2/1 47/2/1
f 49/2/1 45/2/1 48/2/1
f 50/2/1 45/2/1 49/2/1
f 51/2/1 49/2/1 48/2/1
f 52/2/1 49/2/1 51/2/1
f 57/1/1 54/1/1 53/1/1
f 58/1/1 54/1/1 57/1/1
f 62/1/1 56/1/1 55/1/1
f 63/1/1 56/1/1 62/1/1
f 64/1/1 57/1/1 53/1/1
f 65/1/1 57/1/1 64/1/1
f 67/1/1 59/1/1 58/1/1
f 68/1/1 59/1/1 67/1/1
f 69/1/1 61/1/1 60/1/1
f 70/1/1 61/1/1 69/1/1
f 72/1/1 56/1/1 63/1/1
f 73/1/1 56/1/1 72/1/1
f 74/1/1 69/1/1 68/1/1
f 75/1/1 69/1/1 74/1/1
f 76/1/1 66/1/1 65/1/1
f 77/1/1 66/1/1 76/1/1
f 82/1/1 72/1/1 71/1/1
f 83/1/1 72/1/1 82/1/1
f 85/1/1 78/1/1 77/1/1
f 86/3/1 80/3/1 79/3/1
f 87/3/1 80/3/1 86/3/1
f 88/1/1 82/1/1 81/1/1
f 91/1/1 85/1/1 84/1/1
f 92/1/1 78/1/1 85/1/1
f 92/1/1 85/1/1 91/1/1
f 93/1/1 78/1/1 92/1/1
f 98/1/1 89/1/1 88/1/1
f 98/1/1 88/1/1 81/1/1
f 99/1/1 89/1/1 98/1/1
f 100/1/1 89/1/1 99/1/1
f 103/1/1 91/1/1 90/1/1
f 103/1/1 92/1/1 91/1/1
f 104/1/1 92/1/1 103/1/1
f 105/1/1 92/1/1 104/1/1
f 106/4/1 95/4/1 94/4/1
f 107/4/1 95/4/1 106/4/1
f 108/4/1 97/4/1 96/4/1
f 109/4/1 97/4/1 108/4/1
f 110/1/1 100/1/1 99/1/1
f 110/1/1 101/1/1 100/1/1
f 111/1/1 101/1/1 110/1/1
f 112/1/1 101/1/1 111/1/1
f 115/1/1 103/1/1 102/1/1
f 115/1/1 104/1/1 103/1/1
f 116/1/1 104/1/1 115/1/1
f 117/3/1 107/3/1 106/3/1
f 118/3/1 107/3/1 117/3/1
f 119/3/1 109/3/1 108/3/1
f 120/3/1 109/3/1 119/3/1
f 121/1/1 112/1/1 111/1/1
f 121/1/1 113/1/1 112/1/1
f 122/1/1 113/1/1 121/1/1
f 124/1/1 115/1/1 114/1/1
f 125/1/1 115/1/1 124/1/1
f 130/1/1 123/1/1 122/1/1
f 131/1/1 123/1/1 130/1/1
f 132/1/1 127/1/1 126/1/1
f 133/1/1 127/1/1 132/1/1
f 134/1/1 129/1/1 128/1/1
f 135/1/1 129/1/1 134/1/1
f 136/1/1 127/1/1 133/1/1
f 137/1/1 127/1/1 136/1/1
f 140/1/1 134/1/1 128/1/1
f 141/1/1 134/1/1 140/1/1
f 142/1/1 138/1/1 137/1/1
f 143/1/1 138/1/1 142/1/1
f 144/1/1 140/1/1 139/1/1
f 145/1/1 140/1/1 144/1/1
f 146/1/1 144/1/1 143/1/1
f 147/1/1 144/1/1 146/1/1
f 151/2/1 149/2/1 148/2/1
f 152/2/1 151/2/1 150/2/1
f 153/2/1 149/2/1 151/2/1
f 153/2/1 151/2/1 152/2/1
f 154/2/1 149/2/1 153/2/1
f 155/2/1 153/2/1 152/2/1
f 156/2/1 153/2/1 155/2/1
f 157/2/2 158/2/2 160/2/2
f 159/2/2 160/2/2 161/2/2
f 160/2/2 158/2/2 162/2/2
f 161/2/2 160/2/2 162/2/2
f 162/2/2 158/2/2 163/2/2
f 161/2/2 162/2/2 164/2/2
f 164/2/2 162/2/2 165/2/2
f 166/1/2 167/1/2 170/1/2
f 170/1/2 167/1/2 171/1/2
f 168/1/2 169/1/2 175/1/2
f 175/1/2 169/1/2 176/1/2
f 166/1/2 170/1/2 177/1/2
f 177/1/2 170/1/2 178/1/2
f 171/1/2 172/1/2 180/1/2
f 180/1/2 172/1/2 181/1/2
f 173/1/2 174/1/2 182/1/2
f 182/1/2 174/1/2 183/1/2
f 176/1/2 169/1/2 185/1/2
f 185/1/2 169/1/2 186/1/2
f 181/1/2 182/1/2 187/1/2
f 187/1/2 182/1/2 188/1/2
f 178/1/2 179/1/2 189/1/2
f 189/1/2 179/1/2 190/1/2
f 184/1/2 185/1/2 195/1/2
f 195/1/2 185/1/2 196/1/2
f 190/1/2 191/1/2 198/1/2
f 192/3/2 193/3/2 199/3/2
f 199/3/2 193/3/2 200/3/2
f 194/1/2 195/1/2 201/1/2
f 197/1/2 198/1/2 204/1/2
f 198/1/2 191/1/2 205/1/2
f 204/1/2 198/1/2 205/1/2
f 205/1/2 191/1/2 206/1/2
f 201/1/2 202/1/2 211/1/2
f 194/1/2 201/1/2 211/1/2
f 211/1/2 202/1/2 212/1/2
f 212/1/2 202/1/2 213/1/2
f 203/1/2 204/1/2 216/1/2
f 204/1/2 205/1/2 216/1/2
f 216/1/2 205/1/2 217/1/2
f 217/1/2 205/1/2 218/1/2
f 207/4/2 208/4/2 219/4/2
f 219/4/2 208/4/2 220/4/2
f 209/4/2 210/4/2 221/4/2
f 221/4/2 210/4/2 222/4/2
f 212/1/2 213/1/2 223/1/2
f 213/1/2 214/1/2 223/1/2
f 223/1/2 214/1/2 224/1/2
f 224/1/2 214/1/2 225/1/2
f 215/1/2 216/1/2 228/1/2
f 216/1/2 217/1/2 228/1/2
f 228/1/2 217/1/2 229/1/2
f 219/3/2 220/3/2 230/3/2
f 230/3/2 220/3/2 231/3/2
f 221/3/2 222/3/2 232/3/2
f 232/3/2 222/3/2 233/3/2
f 224/1/2 225/1/2 234/1/2
f 225/1/2 226/1/2 234/1/2
f 234/1/2 226/1/2 235/1/2
f 227/1/2 228/1/2 237/1/2
f 237/1/2 228/1/2 238/1/2
f 235/1/2 236/1/2 243/1/2
f 243/1/2 236/1/2 244/1/2
f 239/1/2 240/1/2 245/1/2
f 245/1/2 240/1/2 246/1/2
f 241/1/2 242/1/2 247/1/2
f 247/1/2 242/1/2 248/1/2
f 246/1/2 240/1/2 249/1/2
f 249/1/2 240/1/2 250/1/2
f 241/1/2 247/1/2 253/1/2
f 253/1/2 247/1/2 254/1/2
f 250/1/2 251/1/2 255/1/2
f 255/1/2 251/1/2 256/1/2
f 252/1/2 253/1/2 257/1/2
f 257/1/2 253/1/2 258/1/2
f 256/1/2 257/1/2 259/1/2
f 259/1/2 257/1/2 260/1/2
f 261/2/2 262/2/2 265/2/2
f 265/2/2 262/2/2 266/2/2
f 266/2/2 262/2/2 267/2/2
f 263/2/2 264/2/2 270/2/2
f 270/2/2 264/2/2 271/2/2
f 271/2/2 264/2/2 272/2/2
f 267/2/2 268/2/2 273/2/2
f 266/2/2 267/2/2 273/2/2
f 270/2/2 271/2/2 274/2/2
f 269/2/2 270/2/2 274/2/2
f 266/2/2 273/2/2 275/2/2
f 273/2/2 274/2/2 275/2/2
f 275/2/2 274/2/2 276/2/2
f 276/2/2 274/2/2 277/2/2
f 274/2/2 271/2/2 278/2/2
f 277/2/2 274/2/2 278/2/2
f 278/2/2 271/2/2 279/2/2
f 279/2/2 271/2/2 280/2/2
f 276/2/2 277/2/2 281/2/2
f 278/2/2 279/2/2 282/2/2
f 276/2/2 281/2/2 284/2/2
f 281/2/2 282/2/2 284/2/2
f 284/2/2 282/2/2 285/2/2
f 285/2/2 282/2/2 286/2/2
f 282/2/2 279/2/2 287/2/2
f 286/2/2 282/2/2 287/2/2
f 287/2/2 279/2/2 288/2/2
f 288/2/2 279/2/2 289/2/2
f 283/2/2 284/2/2 292/2/2
f 284/2/2 285/2/2 292/2/2
f 289/2/2 290/2/2 293/2/2
f 288/2/2 289/2/2 293/2/2
f 291/2/2 292/2/2 296/2/2
f 292/2/2 285/2/2 297/2/2
f 296/2/2 292/2/2 297/2/2
f 286/2/2 287/2/2 298/2/2
f 298/2/2 287/2/2 299/2/2
f 288/2/2 293/2/2 300/2/2
f 293/2/2 294/2/2 300/2/2
f 300/2/2 294/2/2 301/2/2
f 300/2/2 301/2/2 303/2/2
f 301/2/2 302/2/2 303/2/2
f 299/2/2 300/2/2 303/2/2
f 298/2/2 299/2/2 303/2/2
f 297/2/2 298/2/2 303/2/2
f 295/2/2 296/2/2 303/2/2
f 296/2/2 297/2/2 303/2/2
f 303/2/2 302/2/2 304/2/2
f 304/2/2 302/2/2 305/2/2
f 305/2/2 302/2/2 306/2/2
f 304/2/2 305/2/2 307/2/2
f 307/2/2 305/2/2 308/2/2
f 308/2/2 305/2/2 309/2/2
f 309/2/2 305/2/2 310/2/2
f 308/2/2 309/2/2 311/2/2
f 311/2/2 309/2/2 312/2/2
f 315/1/3 314/1/3 313/1/3
f 316/1/3 314/1/3 315/1/3
f 320/2/3 318/2/3 317/2/3
f 321/2/3 318/2/3 320/2/3
f 322/1/3 320/1/3 319/1/3
f 323/1/3 320/1/3 322/1/3
f 325/2/3 324/2/3 323/2/3
f 326/2/3 324/2/3 325/2/3
f 333/1/3 328/1/3 327/1/3
f 334/1/3 328/1/3 333/1/3
f 335/1/3 330/1/3 329/1/3
f 336/1/3 330/1/3 335/1/3
f 337/1/3 332/1/3 331/1/3
f 338/1/3 332/1/3 337/1/3
f 343/2/3 340/2/3 339/2/3
f 344/2/3 340/2/3 343/2/3
f 348/2/3 342/2/3 341/2/3
f 349/2/3 342/2/3 348/2/3
f 351/1/3 345/1/3 344/1/3
f 352/1/3 345/1/3 351/1/3
f 353/1/3 347/1/3 346/1/3
f 354/1/3 347/1/3 353/1/3
f 357/2/3 351/2/3 350/2/3
f 358/2/3 351/2/3 357/2/3
f 359/2/3 356/2/3 355/2/3
f 360/2/3 356/2/3 359/2/3
f 365/2/3 362/2/3 361/2/3
f 366/2/3 362/2/3 365/2/3
f 368/2/3 364/2/3 363/2/3
f 369/2/3 364/2/3 368/2/3
f 373/1/3 367/1/3 366/1/3
f 374/1/3 367/1/3 373/1/3
f 377/2/3 371/2/3 370/2/3
f 378/2/3 371/2/3 377/2/3
f 379/2/3 373/2/3 372/2/3
f 380/2/3 373/2/3 379/2/3
f 381/2/3 376/2/3 375/2/3
f 382/2/3 376/2/3 381/2/3
f 385/2/3 384/2/3 383/2/3
f 386/2/3 384/2/3 385/2/3
f 391/2/3 387/2/3 386/2/3
f 392/2/3 387/2/3 391/2/3
f 393/1/3 389/1/3 388/1/3
f 394/1/3 389/1/3 393/1/3
f 395/2/3 391/2/3 390/2/3
f 396/2/3 391/2/3 395/2/3
f 399/2/3 398/2/3 397/2/3
f 400/2/3 398/2/3 399/2/3
f 403/1/3 401/1/3 400/1/3
f 404/1/3 401/1/3 403/1/3
f 405/2/3 403/2/3 402/2/3
f 406/2/3 403/2/3 405/2/3
f 411/2/3 408/2/3 407/2/3
f 412/2/3 408/2/3 411/2/3
f 413/2/3 408/2/3 412/2/3
f 414/2/3 410/2/3 409/2/3
f 415/2/3 410/2/3 414/2/3
f 421/1/3 416/1/3 415/1/3
f 422/1/3 416/1/3 421/1/3
f 423/2/3 419/2/3 418/2/3
f 423/2/3 418/2/3 417/2/3
f 424/2/3 419/2/3 423/2/3
f 425/2/3 421/2/3 420/2/3
f 426/2/3 421/2/3 425/2/3
f 432/2/3 428/2/3 427/2/3
f 433/2/3 428/2/3 432/2/3
f 434/2/3 430/2/3 429/2/3
f 435/2/3 430/2/3 434/2/3
f 436/1/3 432/1/3 431/1/3
f 437/1/3 432/1/3 436/1/3
f 441/2/3 438/2/3 437/2/3
f 442/2/3 438/2/3 441/2/3
f 443/2/3 440/2/3 439/2/3
f 444/2/3 440/2/3 443/2/3
f 447/2/3 446/2/3 445/2/3
f 448/2/3 446/2/3 447/2/3
f 449/2/3 446/2/3 448/2/3
f 453/2/3 451/2/3 450/2/3
f 453/2/3 452/2/3 451/2/3
f 454/2/3 452/2/3 453/2/3
f 457/2/3 456/2/3 455/2/3
f 458/2/3 456/2/3 457/2/3
f 461/2/3 460/2/3 459/2/3
f 462/2/3 460/2/3 461/2/3
f 465/1/3 464/1/3 463/1/3
f 466/1/3 464/1/3 465/1/3
f 467/1/4 468/1/4 470/1/4
f 468/2/4 469/2/4 471/2/4
f 470/1/4 468/1/4 471/1/4
f 471/2/4 469/2/4 472/2/4
f 473/1/4 474/1/4 475/1/4
f 475/1/4 474/1/4 476/1/4
f 477/2/4 478/2/4 480/2/4
f 480/2/4 478/2/4 481/2/4
f 479/1/4 480/1/4 482/1/4
f 482/1/4 480/1/4 483/1/4
f 483/2/4 484/2/4 485/2/4
f 485/2/4 484/2/4 486/2/4
f 487/2/4 488/2/4 489/2/4
f 489/2/4 488/2/4 490/2/4
f 490/2/4 488/2/4 491/2/4
f 492/2/4 493/2/4 495/2/4
f 493/2/4 494/2/4 495/2/4
f 495/2/4 494/2/4 496/2/4
f 497/2/4 498/2/4 502/2/4
f 502/2/4 498/2/4 503/2/4
f 499/2/4 500/2/4 504/2/4
f 504/2/4 500/2/4 505/2/4
f 501/1/4 502/1/4 506/1/4
f 506/1/4 502/1/4 507/1/4
f 507/2/4 508/2/4 511/2/4
f 511/2/4 508/2/4 512/2/4
f 509/2/4 510/2/4 513/2/4
f 513/2/4 510/2/4 514/2/4
f 515/2/4 516/2/4 519/2/4
f 519/2/4 516/2/4 520/2/4
f 520/2/4 516/2/4 521/2/4
f 517/2/4 518/2/4 522/2/4
f 522/2/4 518/2/4 523/2/4
f 523/1/4 524/1/4 529/1/4
f 529/1/4 524/1/4 530/1/4
f 526/2/4 527/2/4 531/2/4
f 525/2/4 526/2/4 531/2/4
f 531/2/4 527/2/4 532/2/4
f 528/2/4 529/2/4 533/2/4
f 533/2/4 529/2/4 534/2/4
f 535/2/4 536/2/4 537/2/4
f 537/2/4 536/2/4 538/2/4
f 538/1/4 539/1/4 541/1/4
f 541/1/4 539/1/4 542/1/4
f 540/2/4 541/2/4 543/2/4
f 543/2/4 541/2/4 544/2/4
f 545/2/4 546/2/4 547/2/4
f 547/2/4 546/2/4 548/2/4
f 549/1/4 550/1/4 553/1/4
f 553/1/4 550/1/4 554/1/4
f 551/2/4 552/2/4 555/2/4
f 555/2/4 552/2/4 556/2/4
f 557/2/4 558/2/4 561/2/4
f 561/2/4 558/2/4 562/2/4
f 559/2/4 560/2/4 564/2/4
f 564/2/4 560/2/4 565/2/4
f 562/1/4 563/1/4 567/1/4
f 567/1/4 563/1/4 568/1/4
f 566/2/4 567/2/4 571/2/4
f 571/2/4 567/2/4 572/2/4
f 569/2/4 570/2/4 573/2/4
f 573/2/4 570/2/4 574/2/4
f 575/2/4 576/2/4 579/2/4
f 579/2/4 576/2/4 580/2/4
f 577/2/4 578/2/4 584/2/4
f 584/2/4 578/2/4 585/2/4
f 580/1/4 581/1/4 587/1/4
f 587/1/4 581/1/4 588/1/4
f 582/1/4 583/1/4 589/1/4
f 589/1/4 583/1/4 590/1/4
f 586/2/4 587/2/4 593/2/4
f 593/2/4 587/2/4 594/2/4
f 591/2/4 592/2/4 595/2/4
f 595/2/4 592/2/4 596/2/4
f 597/1/4 598/1/4 603/1/4
f 603/1/4 598/1/4 604/1/4
f 599/1/4 600/1/4 605/1/4
f 605/1/4 600/1/4 606/1/4
f 601/1/4 602/1/4 607/1/4
f 607/1/4 602/1/4 608/1/4
f 609/2/4 610/2/4 612/2/4
f 612/2/4 610/2/4 613/2/4
f 611/1/4 612/1/4 614/1/4
f 614/1/4 612/1/4 615/1/4
f 615/2/4 616/2/4 617/2/4
f 617/2/4 616/2/4 618/2/4
f 619/1/4 620/1/4 621/1/4
f 621/1/4 620/1/4 622/1/4
f 625/1/5 624/1/5 623/1/5
f 626/1/5 624/1/5 625/1/5
f 629/1/5 628/1/5 627/1/5
f 630/1/5 628/1/5 629/1/5
f 635/2/5 632/2/5 631/2/5
f 636/2/5 632/2/5 635/2/5
f 637/2/5 634/2/5 633/2/5
f 638/2/5 634/2/5 637/2/5
f 639/1/5 637/1/5 636/1/5
f 640/1/5 637/1/5 639/1/5
f 644/1/5 642/1/5 641/1/5
f 645/1/5 642/1/5 644/1/5
f 647/1/5 645/1/5 644/1/5
f 647/2/5 644/2/5 643/2/5
f 648/2/5 646/2/5 645/2/5
f 648/1/5 645/1/5 647/1/5
f 649/2/5 647/2/5 643/2/5
f 650/2/5 647/2/5 649/2/5
f 651/2/5 646/2/5 648/2/5
f 652/2/5 646/2/5 651/2/5
f 657/2/5 654/2/5 653/2/5
f 658/2/5 654/2/5 657/2/5
f 659/2/5 656/2/5 655/2/5
f 660/2/5 656/2/5 659/2/5
f 662/1/5 659/1/5 658/1/5
f 663/1/5 659/1/5 662/1/5
f 665/2/5 662/2/5 661/2/5
f 666/2/5 662/2/5 665/2/5
f 667/2/5 664/2/5 663/2/5
f 668/2/5 664/2/5 667/2/5
f 673/2/5 670/2/5 669/2/5
f 674/2/5 670/2/5 673/2/5
f 675/2/5 672/2/5 671/2/5
f 676/2/5 672/2/5 675/2/5
f 679/1/5 678/1/5 677/1/5
f 680/1/5 678/1/5 679/1/5
f 685/2/5 682/2/5 681/2/5
f 686/2/5 682/2/5 685/2/5
f 687/2/5 684/2/5 683/2/5
f 688/2/5 684/2/5 687/2/5
f 691/1/5 690/1/5 689/1/5
f 692/1/5 690/1/5 691/1/5
f 695/1/5 694/1/5 693/1/5
f 696/1/5 694/1/5 695/1/5
f 701/2/5 698/2/5 697/2/5
f 702/2/5 698/2/5 701/2/5
f 703/2/5 700/2/5 699/2/5
f 704/2/5 700/2/5 703/2/5
f 709/2/5 706/2/5 705/2/5
f 710/2/5 706/2/5 709/2/5
f 711/2/5 708/2/5 707/2/5
f 712/2/5 708/2/5 711/2/5
f 715/1/5 714/1/5 713/1/5
f 716/1/5 714/1/5 715/1/5
f 719/1/5 718/1/5 717/1/5
f 720/1/5 718/1/5 719/1/5
f 725/2/5 722/2/5 721/2/5
f 726/2/5 722/2/5 725/2/5
f 727/2/5 724/2/5 723/2/5
f 728/2/5 724/2/5 727/2/5
f 733/2/5 730/2/5 729/2/5
f 734/2/5 730/2/5 733/2/5
f 735/2/5 732/2/5 731/2/5
f 736/2/5 732/2/5 735/2/5
f 739/1/5 738/1/5 737/1/5
f 740/1/5 738/1/5 739/1/5
f 744/1/5 742/1/5 741/1/5
f 745/1/5 742/1/5 744/1/5
f 747/2/5 744/2/5 743/2/5
f 748/2/5 744/2/5 747/2/5
f 749/2/5 746/2/5 745/2/5
f 750/2/5 746/2/5 749/2/5
f 753/2/5 752/2/5 751/2/5
f 754/2/5 752/2/5 753/2/5
f 759/2/5 756/2/5 755/2/5
f 760/2/5 756/2/5 759/2/5
f 761/2/5 758/2/5 757/2/5
f 762/2/5 758/2/5 761/2/5
f 767/2/5 764/2/5 763/2/5
f 768/2/5 764/2/5 767/2/5
f 769/2/5 766/2/5 765/2/5
f 770/2/5 766/2/5 769/2/5
f 775/2/5 772/2/5 771/2/5
f 776/2/5 772/2/5 775/2/5
f 777/2/5 774/2/5 773/2/5
f 778/2/5 774/2/5 777/2/5
f 779/1/5 777/1/5 776/1/5
f 780/1/5 777/1/5 779/1/5
f 783/1/5 782/1/5 781/1/5
f 784/1/5 782/1/5 783/1/5
f 785/1/6 786/1/6 788/1/6
f 788/1/6 786/1/6 789/1/6
f 787/2/6 788/2/6 791/2/6
f 791/2/6 788/2/6 792/2/6
f 789/2/6 790/2/6 793/2/6
f 793/2/6 790/2/6 794/2/6
f 795/2/6 796/2/6 799/2/6
f 799/2/6 796/2/6 800/2/6
f 797/2/6 798/2/6 801/2/6
f 801/2/6 798/2/6 802/2/6
f 800/1/6 801/1/6 803/1/6
f 803/1/6 801/1/6 804/1/6
f 805/1/6 806/1/6 808/1/6
f 808/1/6 806/1/6 809/1/6
f 807/2/6 808/2/6 811/2/6
f 811/2/6 808/2/6 812/2/6
f 809/2/6 810/2/6 813/2/6
f 813/2/6 810/2/6 814/2/6
f 815/2/6 816/2/6 819/2/6
f 819/2/6 816/2/6 820/2/6
f 817/2/6 818/2/6 821/2/6
f 821/2/6 818/2/6 822/2/6
f 823/2/6 824/2/6 827/2/6
f 827/2/6 824/2/6 828/2/6
f 825/2/6 826/2/6 829/2/6
f 829/2/6 826/2/6 830/2/6
f 828/1/6 829/1/6 831/1/6
f 831/1/6 829/1/6 832/1/6
f 833/1/6 834/1/6 835/1/6
f 835/1/6 834/1/6 836/1/6
f 837/2/6 838/2/6 841/2/6
f 841/2/6 838/2/6 842/2/6
f 839/2/6 840/2/6 843/2/6
f 843/2/6 840/2/6 844/2/6
f 845/2/6 846/2/6 849/2/6
f 849/2/6 846/2/6 850/2/6
f 847/2/6 848/2/6 851/2/6
f 851/2/6 848/2/6 852/2/6
f 853/1/6 854/1/6 855/1/6
f 855/1/6 854/1/6 856/1/6
f 857/1/6 858/1/6 860/1/6
f 860/1/6 858/1/6 861/1/6
f 859/2/6 860/2/6 863/2/6
f 860/1/6 861/1/6 863/1/6
f 861/2/6 862/2/6 864/2/6
f 863/1/6 861/1/6 864/1/6
f 859/2/6 863/2/6 865/2/6
f 865/2/6 863/2/6 866/2/6
f 864/2/6 862/2/6 867/2/6
f 867/2/6 862/2/6 868/2/6
f 869/2/6 870/2/6 873/2/6
f 871/2/6 872/2/6 874/2/6
f 869/2/6 873/2/6 875/2/6
f 873/2/6 874/2/6 875/2/6
f 875/2/6 874/2/6 876/2/6
f 874/2/6 872/2/6 877/2/6
f 876/2/6 874/2/6 877/2/6
f 877/2/6 872/2/6 878/2/6
f 876/1/6 877/1/6 879/1/6
f 879/1/6 877/1/6 880/1/6
f 881/1/6 882/1/6 883/1/6
f 883/1/6 882/1/6 884/1/6
f 885/1/6 886/1/6 887/1/6
f 887/1/6 886/1/6 888/1/6
f 889/1/6 890/1/6 892/1/6
f 892/1/6 890/1/6 893/1/6
f 891/2/6 892/2/6 895/2/6
f 895/2/6 892/2/6 896/2/6
f 893/2/6 894/2/6 897/2/6
f 897/2/6 894/2/6 898/2/6
f 899/2/6 900/2/6 903/2/6
f 903/2/6 900/2/6 904/2/6
f 901/2/6 902/2/6 905/2/6
f 905/2/6 902/2/6 906/2/6
f 904/1/6 905/1/6 907/1/6
f 907/1/6 905/1/6 908/1/6
f 909/1/6 910/1/6 912/1/6
f 912/1/6 910/1/6 913/1/6
f 911/2/6 912/2/6 915/2/6
f 915/2/6 912/2/6 916/2/6
f 913/2/6 914/2/6 917/2/6
f 917/2/6 914/2/6 918/2/6
f 916/1/6 917/1/6 919/1/6
f 919/1/6 917/1/6 920/1/6
f 921/1/6 922/1/6 923/1/6
f 923/1/6 922/1/6 924/1/6
