# MagicaVoxel @ Ephtracy

# material
mtllib taco.mtl
usemtl palette

# normals
vn -1 0 0
vn 1 0 0
vn 0 0 1
vn 0 0 -1
vn 0 -1 0
vn 0 1 0

# texcoords
vt 0.0683594 0.5
vt 0.224609 0.5
vt 0.255859 0.5
vt 0.291016 0.5
vt 0.310547 0.5
vt 0.314453 0.5
vt 0.427734 0.5
vt 0.623047 0.5
vt 0.654297 0.5

# verts
v -4 1 9
v -4 1 -9
v -4 2 10
v -4 2 9
v -4 2 -9
v -4 2 -10
v -4 5 10
v -4 5 9
v -4 5 -9
v -4 5 -10
v -4 6 9
v -4 6 8
v -4 6 -8
v -4 6 -9
v -4 7 8
v -4 7 7
v -4 7 -7
v -4 7 -8
v -4 8 7
v -4 8 -7
v -3 1 10
v -3 1 9
v -3 1 -9
v -3 1 -10
v -3 2 10
v -3 2 9
v -3 2 -9
v -3 2 -10
v -2 0 10
v -2 0 9
v -2 0 -9
v -2 0 -10
v -2 1 10
v -2 1 9
v -2 1 -9
v -2 1 -10
v -2 4 9
v -2 4 8
v -2 4 -8
v -2 4 -9
v -2 5 8
v -2 5 7
v -2 5 -8
v -2 5 -9
v -2 6 9
v -2 6 8
v -2 6 7
v -2 6 3
v -2 6 2
v -2 6 -2
v -2 7 3
v -2 7 2
v -2 7 -2
v -1 2 10
v -1 2 9
v -1 3 10
v -1 3 9
v -1 4 10
v -1 4 9
v -1 4 -9
v -1 4 -10
v -1 5 -7
v -1 5 -8
v -1 5 -9
v -1 5 -10
v -1 6 5
v -1 6 3
v -1 6 -6
v -1 6 -7
v -1 6 -8
v -1 7 6
v -1 7 5
v -1 7 4
v -1 7 3
v -1 7 2
v -1 7 -1
v -1 7 -2
v -1 7 -4
v -1 7 -6
v -1 7 -7
v -1 8 6
v -1 8 4
v -1 8 -1
v -1 8 -4
v 0 7 -4
v 0 7 -7
v 0 8 -4
v 0 8 -7
v 1 5 -8
v 1 5 -9
v 1 6 8
v 1 6 7
v 1 6 -8
v 1 6 -9
v 1 7 8
v 1 7 7
v 2 6 1
v 2 6 -0
v 2 6 -1
v 2 6 -4
v 2 6 -6
v 2 6 -7
v 2 7 1
v 2 7 -0
v 2 7 -1
v 2 7 -4
v 2 7 -6
v 2 7 -7
v 3 3 10
v 3 3 9
v 3 3 -9
v 3 3 -10
v 3 4 -9
v 3 5 10
v 3 5 9
v 3 5 8
v 3 5 -9
v 3 5 -10
v 3 6 9
v 3 6 8
v 3 6 7
v 3 6 6
v 3 6 -1
v 3 6 -3
v 3 6 -7
v 3 6 -8
v 3 7 8
v 3 7 7
v 3 7 6
v 3 7 4
v 3 7 2
v 3 7 -0
v 3 7 -1
v 3 7 -3
v 3 7 -6
v 3 7 -7
v 3 7 -8
v 3 8 7
v 3 8 -7
v -3 3 10
v -3 3 9
v -3 4 9
v -3 4 8
v -3 4 -8
v -3 4 -10
v -3 5 10
v -3 5 9
v -3 5 8
v -3 5 7
v -3 5 -7
v -3 5 -8
v -3 5 -9
v -3 5 -10
v -3 6 9
v -3 6 8
v -3 6 7
v -3 6 6
v -3 6 4
v -3 6 -2
v -3 6 -6
v -3 6 -7
v -3 6 -8
v -3 6 -9
v -3 7 8
v -3 7 7
v -3 7 6
v -3 7 4
v -3 7 -2
v -3 7 -6
v -3 7 -7
v -3 7 -8
v -3 8 7
v -3 8 -7
v -2 2 10
v -2 2 9
v -2 3 10
v -2 3 9
v -2 6 5
v -2 6 4
v -2 7 5
v -2 7 4
v 0 5 9
v 0 5 8
v 0 6 9
v 0 6 8
v 0 7 5
v 0 7 4
v 0 7 2
v 0 7 -1
v 0 7 -4
v 0 8 5
v 0 8 4
v 0 8 2
v 0 8 -1
v 0 8 -4
v 1 3 -9
v 1 3 -10
v 1 4 -9
v 1 4 -10
v 1 5 -9
v 1 5 -10
v 1 6 1
v 1 6 -1
v 1 6 -4
v 1 6 -6
v 1 6 -7
v 1 7 6
v 1 7 5
v 1 7 2
v 1 7 1
v 1 7 -1
v 1 7 -4
v 1 7 -6
v 1 8 6
v 1 8 5
v 1 8 2
v 1 8 -1
v 1 8 -4
v 1 8 -7
v 2 0 10
v 2 0 9
v 2 0 -9
v 2 0 -10
v 2 1 10
v 2 1 9
v 2 1 -9
v 2 1 -10
v 2 3 10
v 2 3 9
v 2 4 10
v 2 4 9
v 2 6 8
v 2 6 7
v 2 6 -1
v 2 6 -3
v 2 7 8
v 2 7 7
v 2 7 -1
v 2 7 -3
v 3 1 10
v 3 1 9
v 3 1 -9
v 3 1 -10
v 3 2 10
v 3 2 9
v 3 2 -9
v 3 2 -10
v 4 1 9
v 4 1 -9
v 4 2 10
v 4 2 9
v 4 2 -9
v 4 2 -10
v 4 5 10
v 4 5 9
v 4 5 -9
v 4 5 -10
v 4 6 9
v 4 6 8
v 4 6 -8
v 4 6 -9
v 4 7 8
v 4 7 7
v 4 7 -7
v 4 7 -8
v 4 8 7
v 4 8 -7
v -4 2 10
v -4 5 10
v -3 1 10
v -3 2 10
v -3 3 10
v -3 5 10
v -2 0 10
v -2 1 10
v -2 2 10
v -2 3 10
v -1 1 10
v -1 2 10
v -1 3 10
v -1 4 10
v 1 1 10
v 1 2 10
v 1 3 10
v 1 4 10
v 2 0 10
v 2 1 10
v 2 2 10
v 2 3 10
v 2 4 10
v 3 1 10
v 3 2 10
v 3 3 10
v 3 5 10
v 4 2 10
v 4 5 10
v -4 1 9
v -4 2 9
v -4 5 9
v -4 6 9
v -3 1 9
v -3 2 9
v -3 3 9
v -3 4 9
v -3 5 9
v -3 6 9
v -2 2 9
v -2 3 9
v -2 4 9
v -2 6 9
v -1 2 9
v -1 3 9
v -1 4 9
v 0 5 9
v 0 6 9
v 1 4 9
v 2 3 9
v 2 4 9
v 3 1 9
v 3 2 9
v 3 3 9
v 3 5 9
v 3 6 9
v 4 1 9
v 4 2 9
v 4 5 9
v 4 6 9
v -4 6 8
v -4 7 8
v -3 4 8
v -3 5 8
v -3 6 8
v -3 7 8
v -2 4 8
v -2 5 8
v 0 5 8
v 0 6 8
v 1 5 8
v 1 6 8
v 1 7 8
v 2 6 8
v 2 7 8
v 3 5 8
v 3 6 8
v 3 7 8
v 4 6 8
v 4 7 8
v -4 7 7
v -4 8 7
v -3 5 7
v -3 6 7
v -3 7 7
v -3 8 7
v -2 5 7
v -2 6 7
v 3 7 7
v 3 8 7
v 4 7 7
v 4 8 7
v -3 6 6
v -3 7 6
v -2 6 6
v -1 6 6
v -1 7 6
v -1 8 6
v 0 6 6
v 0 7 6
v 1 7 6
v 1 8 6
v 2 6 6
v 2 7 6
v 3 6 6
v 3 7 6
v -2 6 3
v -2 7 3
v -1 6 3
v -1 7 3
v 0 7 2
v 0 8 2
v 1 7 2
v 1 8 2
v 1 6 -1
v 1 7 -1
v 2 6 -1
v 2 7 -1
v -3 6 -2
v -3 7 -2
v -2 6 -2
v -2 7 -2
v 2 6 -3
v 2 7 -3
v 3 6 -3
v 3 7 -3
v 0 7 -4
v 0 8 -4
v 1 7 -4
v 1 8 -4
v 1 6 7
v 1 7 7
v 2 6 7
v 2 7 7
v -2 6 5
v -2 7 5
v -1 6 5
v -1 7 5
v 0 7 5
v 0 8 5
v 1 7 5
v 1 8 5
v -3 6 4
v -3 7 4
v -2 6 4
v -2 7 4
v 1 6 1
v 1 7 1
v 2 6 1
v 2 7 1
v 0 7 -1
v 0 8 -1
v 1 7 -1
v 1 8 -1
v 2 6 -1
v 2 7 -1
v 3 6 -1
v 3 7 -1
v -1 7 -4
v -1 8 -4
v 0 7 -4
v 0 8 -4
v 1 6 -4
v 1 7 -4
v 2 6 -4
v 2 7 -4
v -3 6 -6
v -3 7 -6
v -2 6 -6
v -2 7 -6
v -1 6 -6
v -1 7 -6
v -4 7 -7
v -4 8 -7
v -3 5 -7
v -3 6 -7
v -3 7 -7
v -3 8 -7
v -1 5 -7
v -1 6 -7
v -1 7 -7
v 0 6 -7
v 0 7 -7
v 0 8 -7
v 1 6 -7
v 1 8 -7
v 2 6 -7
v 2 7 -7
v 3 6 -7
v 3 7 -7
v 3 8 -7
v 4 7 -7
v 4 8 -7
v -4 6 -8
v -4 7 -8
v -3 4 -8
v -3 5 -8
v -3 6 -8
v -3 7 -8
v -2 4 -8
v -2 5 -8
v -1 5 -8
v -1 6 -8
v 1 5 -8
v 1 6 -8
v 3 6 -8
v 3 7 -8
v 4 6 -8
v 4 7 -8
v -4 1 -9
v -4 2 -9
v -4 5 -9
v -4 6 -9
v -3 1 -9
v -3 2 -9
v -3 5 -9
v -3 6 -9
v -2 4 -9
v -2 5 -9
v -1 4 -9
v -1 5 -9
v 1 3 -9
v 1 4 -9
v 1 5 -9
v 1 6 -9
v 2 3 -9
v 2 4 -9
v 3 1 -9
v 3 2 -9
v 3 3 -9
v 3 4 -9
v 3 5 -9
v 3 6 -9
v 4 1 -9
v 4 2 -9
v 4 5 -9
v 4 6 -9
v -4 2 -10
v -4 5 -10
v -3 1 -10
v -3 2 -10
v -3 3 -10
v -3 4 -10
v -3 5 -10
v -2 0 -10
v -2 1 -10
v -2 2 -10
v -2 3 -10
v -2 4 -10
v -1 1 -10
v -1 2 -10
v -1 4 -10
v -1 5 -10
v 1 2 -10
v 1 3 -10
v 1 4 -10
v 1 5 -10
v 2 0 -10
v 2 1 -10
v 2 3 -10
v 3 1 -10
v 3 2 -10
v 3 3 -10
v 3 5 -10
v 4 2 -10
v 4 5 -10
v -2 0 10
v 2 0 10
v -2 0 9
v 2 0 9
v -2 0 -9
v 2 0 -9
v -2 0 -10
v 2 0 -10
v -3 1 10
v -2 1 10
v 2 1 10
v 3 1 10
v -4 1 9
v -3 1 9
v -2 1 9
v 2 1 9
v 3 1 9
v 4 1 9
v -4 1 -9
v -3 1 -9
v -2 1 -9
v 2 1 -9
v 3 1 -9
v 4 1 -9
v -3 1 -10
v -2 1 -10
v 2 1 -10
v 3 1 -10
v -4 2 10
v -3 2 10
v 3 2 10
v 4 2 10
v -4 2 9
v -3 2 9
v 3 2 9
v 4 2 9
v -4 2 -9
v -3 2 -9
v 3 2 -9
v 4 2 -9
v -4 2 -10
v -3 2 -10
v 3 2 -10
v 4 2 -10
v -2 2 10
v -1 2 10
v -2 2 9
v -1 2 9
v -3 3 10
v -2 3 10
v 2 3 10
v 3 3 10
v -3 3 9
v -2 3 9
v 2 3 9
v 3 3 9
v 1 3 -9
v 2 3 -9
v 3 3 -9
v 1 3 -10
v 2 3 -10
v 3 3 -10
v -1 4 10
v 1 4 10
v 2 4 10
v -3 4 9
v -2 4 9
v -1 4 9
v 1 4 9
v 2 4 9
v -3 4 8
v -2 4 8
v -3 4 -8
v -2 4 -8
v -2 4 -9
v -1 4 -9
v -3 4 -10
v -2 4 -10
v -1 4 -10
v -4 5 10
v -3 5 10
v 3 5 10
v 4 5 10
v -4 5 9
v -3 5 9
v 0 5 9
v 3 5 9
v 4 5 9
v -3 5 8
v -2 5 8
v 0 5 8
v 1 5 8
v 3 5 8
v -3 5 7
v -2 5 7
v -3 5 -7
v -1 5 -7
v -3 5 -8
v -2 5 -8
v -1 5 -8
v 1 5 -8
v -4 5 -9
v -3 5 -9
v -2 5 -9
v -1 5 -9
v 1 5 -9
v 3 5 -9
v 4 5 -9
v -4 5 -10
v -3 5 -10
v -1 5 -10
v 1 5 -10
v 3 5 -10
v 4 5 -10
v -4 6 9
v -3 6 9
v -2 6 9
v 0 6 9
v 3 6 9
v 4 6 9
v -4 6 8
v -3 6 8
v -2 6 8
v -1 6 8
v 0 6 8
v 1 6 8
v 2 6 8
v 3 6 8
v 4 6 8
v -3 6 7
v -2 6 7
v 1 6 7
v 2 6 7
v 3 6 7
v -3 6 6
v -2 6 6
v -1 6 6
v 0 6 6
v 2 6 6
v 3 6 6
v -2 6 5
v -1 6 5
v -3 6 4
v -2 6 4
v -2 6 3
v -1 6 3
v -2 6 2
v 1 6 1
v 2 6 1
v 2 6 -0
v 1 6 -1
v 2 6 -1
v 3 6 -1
v -3 6 -2
v -2 6 -2
v 2 6 -3
v 3 6 -3
v 1 6 -4
v 2 6 -4
v -3 6 -6
v -2 6 -6
v -1 6 -6
v 1 6 -6
v 2 6 -6
v -3 6 -7
v -1 6 -7
v 0 6 -7
v 1 6 -7
v 2 6 -7
v 3 6 -7
v -4 6 -8
v -3 6 -8
v -1 6 -8
v 1 6 -8
v 2 6 -8
v 3 6 -8
v 4 6 -8
v -4 6 -9
v -3 6 -9
v 1 6 -9
v 3 6 -9
v 4 6 -9
v -4 7 8
v -3 7 8
v 1 7 8
v 2 7 8
v 3 7 8
v 4 7 8
v -4 7 7
v -3 7 7
v 1 7 7
v 2 7 7
v 3 7 7
v 4 7 7
v -3 7 6
v -1 7 6
v 1 7 6
v 2 7 6
v 3 7 6
v -2 7 5
v -1 7 5
v 0 7 5
v 1 7 5
v 2 7 5
v -3 7 4
v -2 7 4
v 0 7 4
v 2 7 4
v 3 7 4
v -2 7 3
v -1 7 3
v -2 7 2
v -1 7 2
v 0 7 2
v 1 7 2
v 2 7 2
v 3 7 2
v 1 7 1
v 2 7 1
v 2 7 -0
v 3 7 -0
v -1 7 -1
v 0 7 -1
v 1 7 -1
v 2 7 -1
v 3 7 -1
v -3 7 -2
v -2 7 -2
v -1 7 -2
v 2 7 -3
v 3 7 -3
v -2 7 -4
v -1 7 -4
v 0 7 -4
v 1 7 -4
v 2 7 -4
v -3 7 -6
v -2 7 -6
v -1 7 -6
v 2 7 -6
v 3 7 -6
v -4 7 -7
v -3 7 -7
v -1 7 -7
v 0 7 -7
v 2 7 -7
v 3 7 -7
v 4 7 -7
v -4 7 -8
v -3 7 -8
v 3 7 -8
v 4 7 -8
v -4 8 7
v -3 8 7
v 3 8 7
v 4 8 7
v -1 8 6
v 1 8 6
v 0 8 5
v 1 8 5
v -1 8 4
v 0 8 4
v 0 8 2
v 1 8 2
v -1 8 -1
v 0 8 -1
v 1 8 -1
v -1 8 -4
v 0 8 -4
v 1 8 -4
v -4 8 -7
v -3 8 -7
v 0 8 -7
v 1 8 -7
v 3 8 -7
v 4 8 -7

# faces
f 4/6/1 2/6/1 1/6/1
f 5/6/1 2/6/1 4/6/1
f 7/6/1 4/6/1 3/6/1
f 7/6/1 6/6/1 5/6/1
f 7/6/1 5/6/1 4/6/1
f 8/6/1 6/6/1 7/6/1
f 9/6/1 6/6/1 8/6/1
f 10/6/1 6/6/1 9/6/1
f 11/6/1 9/6/1 8/6/1
f 12/6/1 9/6/1 11/6/1
f 13/6/1 9/6/1 12/6/1
f 14/6/1 9/6/1 13/6/1
f 15/6/1 13/6/1 12/6/1
f 16/6/1 13/6/1 15/6/1
f 17/6/1 13/6/1 16/6/1
f 18/6/1 13/6/1 17/6/1
f 19/6/1 17/6/1 16/6/1
f 20/6/1 17/6/1 19/6/1
f 25/6/1 22/6/1 21/6/1
f 26/6/1 22/6/1 25/6/1
f 27/6/1 24/6/1 23/6/1
f 28/6/1 24/6/1 27/6/1
f 33/6/1 30/6/1 29/6/1
f 34/1/1 31/1/1 30/1/1
f 34/6/1 30/6/1 33/6/1
f 35/6/1 32/6/1 31/6/1
f 35/1/1 31/1/1 34/1/1
f 36/6/1 32/6/1 35/6/1
f 41/7/1 38/7/1 37/7/1
f 43/7/1 40/7/1 39/7/1
f 44/7/1 40/7/1 43/7/1
f 45/7/1 41/7/1 37/7/1
f 46/9/1 42/9/1 41/9/1
f 46/7/1 41/7/1 45/7/1
f 47/9/1 42/9/1 46/9/1
f 51/8/1 49/8/1 48/8/1
f 52/9/1 50/9/1 49/9/1
f 52/8/1 49/8/1 51/8/1
f 53/9/1 50/9/1 52/9/1
f 56/2/1 55/2/1 54/2/1
f 57/2/1 55/2/1 56/2/1
f 58/4/1 57/4/1 56/4/1
f 59/4/1 57/4/1 58/4/1
f 64/7/1 61/7/1 60/7/1
f 65/7/1 61/7/1 64/7/1
f 69/8/1 63/8/1 62/8/1
f 70/8/1 63/8/1 69/8/1
f 72/8/1 67/8/1 66/8/1
f 73/8/1 67/8/1 72/8/1
f 74/8/1 67/8/1 73/8/1
f 79/8/1 69/8/1 68/8/1
f 80/8/1 69/8/1 79/8/1
f 81/8/1 72/8/1 71/8/1
f 81/8/1 73/8/1 72/8/1
f 82/9/1 74/9/1 73/9/1
f 82/8/1 73/8/1 81/8/1
f 82/9/1 75/9/1 74/9/1
f 82/9/1 76/9/1 75/9/1
f 83/8/1 78/8/1 77/8/1
f 83/9/1 76/9/1 82/9/1
f 83/8/1 77/8/1 76/8/1
f 84/8/1 78/8/1 83/8/1
f 87/9/1 86/9/1 85/9/1
f 88/9/1 86/9/1 87/9/1
f 93/8/1 90/8/1 89/8/1
f 94/8/1 90/8/1 93/8/1
f 95/7/1 92/7/1 91/7/1
f 96/7/1 92/7/1 95/7/1
f 103/8/1 98/8/1 97/8/1
f 104/9/1 99/9/1 98/9/1
f 104/8/1 98/8/1 103/8/1
f 105/9/1 99/9/1 104/9/1
f 106/8/1 101/8/1 100/8/1
f 107/9/1 102/9/1 101/9/1
f 107/8/1 101/8/1 106/8/1
f 108/9/1 102/9/1 107/9/1
f 113/6/1 112/6/1 111/6/1
f 114/6/1 110/6/1 109/6/1
f 115/6/1 110/6/1 114/6/1
f 117/6/1 112/6/1 113/6/1
f 118/6/1 112/6/1 117/6/1
f 119/6/1 116/6/1 115/6/1
f 120/6/1 116/6/1 119/6/1
f 127/6/1 121/6/1 120/6/1
f 127/6/1 122/6/1 121/6/1
f 128/6/1 122/6/1 127/6/1
f 129/6/1 122/6/1 128/6/1
f 133/6/1 124/6/1 123/6/1
f 134/6/1 124/6/1 133/6/1
f 136/6/1 126/6/1 125/6/1
f 137/6/1 126/6/1 136/6/1
f 138/6/1 135/6/1 134/6/1
f 138/6/1 132/6/1 131/6/1
f 138/6/1 136/6/1 135/6/1
f 138/6/1 134/6/1 133/6/1
f 138/6/1 133/6/1 132/6/1
f 138/6/1 129/6/1 128/6/1
f 138/6/1 131/6/1 130/6/1
f 138/6/1 130/6/1 129/6/1
f 139/6/1 136/6/1 138/6/1
f 140/6/2 141/6/2 142/6/2
f 140/6/2 142/6/2 146/6/2
f 142/6/2 143/6/2 146/6/2
f 146/6/2 143/6/2 147/6/2
f 147/6/2 143/6/2 148/6/2
f 144/6/2 145/6/2 151/6/2
f 151/6/2 145/6/2 152/6/2
f 152/6/2 145/6/2 153/6/2
f 148/6/2 149/6/2 154/6/2
f 147/6/2 148/6/2 154/6/2
f 154/6/2 149/6/2 155/6/2
f 155/6/2 149/6/2 156/6/2
f 151/6/2 152/6/2 161/6/2
f 150/6/2 151/6/2 161/6/2
f 161/6/2 152/6/2 162/6/2
f 162/6/2 152/6/2 163/6/2
f 156/6/2 157/6/2 164/6/2
f 155/6/2 156/6/2 164/6/2
f 164/6/2 157/6/2 165/6/2
f 165/6/2 157/6/2 166/6/2
f 158/6/2 159/6/2 167/6/2
f 167/6/2 159/6/2 168/6/2
f 161/6/2 162/6/2 169/6/2
f 160/6/2 161/6/2 169/6/2
f 169/6/2 162/6/2 170/6/2
f 170/6/2 162/6/2 171/6/2
f 165/6/2 166/6/2 172/6/2
f 167/6/2 168/6/2 172/6/2
f 169/6/2 170/6/2 172/6/2
f 168/6/2 169/6/2 172/6/2
f 166/6/2 167/6/2 172/6/2
f 172/6/2 170/6/2 173/6/2
f 174/6/2 175/6/2 176/6/2
f 176/6/2 175/6/2 177/6/2
f 178/8/2 179/8/2 180/8/2
f 180/8/2 179/8/2 181/8/2
f 182/7/2 183/7/2 184/7/2
f 184/7/2 183/7/2 185/7/2
f 186/8/2 187/8/2 191/8/2
f 187/9/2 188/9/2 192/9/2
f 191/8/2 187/8/2 192/8/2
f 192/9/2 188/9/2 193/9/2
f 189/8/2 190/8/2 194/8/2
f 194/8/2 190/8/2 195/8/2
f 196/3/2 197/3/2 198/3/2
f 198/3/2 197/3/2 199/3/2
f 198/7/2 199/7/2 200/7/2
f 200/7/2 199/7/2 201/7/2
f 202/8/2 203/8/2 210/8/2
f 210/8/2 203/8/2 211/8/2
f 204/8/2 205/8/2 212/8/2
f 205/9/2 206/9/2 213/9/2
f 212/8/2 205/8/2 213/8/2
f 207/8/2 208/8/2 214/8/2
f 214/8/2 208/8/2 215/8/2
f 210/8/2 211/8/2 216/8/2
f 209/8/2 210/8/2 216/8/2
f 216/8/2 211/8/2 217/8/2
f 212/9/2 213/9/2 218/9/2
f 213/9/2 206/9/2 219/9/2
f 218/9/2 213/9/2 219/9/2
f 220/6/2 221/6/2 224/6/2
f 221/1/2 222/1/2 225/1/2
f 224/6/2 221/6/2 225/6/2
f 222/6/2 223/6/2 226/6/2
f 225/1/2 222/1/2 226/1/2
f 226/6/2 223/6/2 227/6/2
f 228/7/2 229/7/2 230/7/2
f 230/7/2 229/7/2 231/7/2
f 232/7/2 233/7/2 236/7/2
f 236/7/2 233/7/2 237/7/2
f 234/8/2 235/8/2 238/8/2
f 238/8/2 235/8/2 239/8/2
f 240/6/2 241/6/2 244/6/2
f 244/6/2 241/6/2 245/6/2
f 242/6/2 243/6/2 246/6/2
f 246/6/2 243/6/2 247/6/2
f 248/6/2 249/6/2 251/6/2
f 251/6/2 249/6/2 252/6/2
f 250/6/2 251/6/2 254/6/2
f 252/6/2 253/6/2 254/6/2
f 251/6/2 252/6/2 254/6/2
f 254/6/2 253/6/2 255/6/2
f 255/6/2 253/6/2 256/6/2
f 256/6/2 253/6/2 257/6/2
f 255/6/2 256/6/2 258/6/2
f 258/6/2 256/6/2 259/6/2
f 259/6/2 256/6/2 260/6/2
f 260/6/2 256/6/2 261/6/2
f 259/6/2 260/6/2 262/6/2
f 262/6/2 260/6/2 263/6/2
f 263/6/2 260/6/2 264/6/2
f 264/6/2 260/6/2 265/6/2
f 263/6/2 264/6/2 266/6/2
f 266/6/2 264/6/2 267/6/2
f 271/6/3 269/6/3 268/6/3
f 272/6/3 269/6/3 271/6/3
f 273/6/3 269/6/3 272/6/3
f 275/6/3 271/6/3 270/6/3
f 275/6/3 272/6/3 271/6/3
f 276/6/3 272/6/3 275/6/3
f 277/6/3 272/6/3 276/6/3
f 278/6/3 275/6/3 274/6/3
f 278/3/3 276/3/3 275/3/3
f 279/3/3 276/3/3 278/3/3
f 282/2/3 280/2/3 279/2/3
f 282/6/3 278/6/3 274/6/3
f 282/2/3 279/2/3 278/2/3
f 283/2/3 280/2/3 282/2/3
f 284/4/3 281/4/3 280/4/3
f 284/2/3 280/2/3 283/2/3
f 285/4/3 281/4/3 284/4/3
f 286/6/3 282/6/3 274/6/3
f 287/5/3 283/5/3 282/5/3
f 287/6/3 282/6/3 286/6/3
f 288/3/3 284/3/3 283/3/3
f 288/5/3 283/5/3 287/5/3
f 289/7/3 285/7/3 284/7/3
f 289/3/3 284/3/3 288/3/3
f 290/7/3 285/7/3 289/7/3
f 291/6/3 288/6/3 287/6/3
f 291/6/3 289/6/3 288/6/3
f 292/6/3 289/6/3 291/6/3
f 293/6/3 289/6/3 292/6/3
f 295/6/3 293/6/3 292/6/3
f 295/6/3 294/6/3 293/6/3
f 296/6/3 294/6/3 295/6/3
f 301/6/3 298/6/3 297/6/3
f 302/6/3 298/6/3 301/6/3
f 305/6/3 300/6/3 299/6/3
f 306/6/3 300/6/3 305/6/3
f 308/7/3 304/7/3 303/7/3
f 309/7/3 304/7/3 308/7/3
f 311/5/3 308/5/3 307/5/3
f 312/7/3 310/7/3 309/7/3
f 312/5/3 308/5/3 311/5/3
f 312/7/3 309/7/3 308/7/3
f 313/7/3 310/7/3 312/7/3
f 314/7/3 310/7/3 313/7/3
f 315/7/3 310/7/3 314/7/3
f 316/7/3 314/7/3 313/7/3
f 318/7/3 314/7/3 316/7/3
f 321/7/3 318/7/3 317/7/3
f 322/7/3 314/7/3 318/7/3
f 322/7/3 318/7/3 321/7/3
f 324/6/3 320/6/3 319/6/3
f 325/6/3 320/6/3 324/6/3
f 326/6/3 323/6/3 322/6/3
f 327/6/3 323/6/3 326/6/3
f 332/6/3 329/6/3 328/6/3
f 333/6/3 329/6/3 332/6/3
f 334/7/3 331/7/3 330/7/3
f 335/7/3 331/7/3 334/7/3
f 338/8/3 337/8/3 336/8/3
f 339/8/3 337/8/3 338/8/3
f 341/9/3 339/9/3 338/9/3
f 341/7/3 340/7/3 339/7/3
f 342/7/3 340/7/3 341/7/3
f 343/9/3 341/9/3 338/9/3
f 344/9/3 341/9/3 343/9/3
f 346/6/3 345/6/3 344/6/3
f 347/6/3 345/6/3 346/6/3
f 352/6/3 349/6/3 348/6/3
f 353/6/3 349/6/3 352/6/3
f 354/8/3 351/8/3 350/8/3
f 355/8/3 351/8/3 354/8/3
f 358/6/3 357/6/3 356/6/3
f 359/6/3 357/6/3 358/6/3
f 362/8/3 361/8/3 360/8/3
f 363/8/3 361/8/3 362/8/3
f 364/8/3 361/8/3 363/8/3
f 366/8/3 364/8/3 363/8/3
f 366/8/3 365/8/3 364/8/3
f 367/8/3 365/8/3 366/8/3
f 368/9/3 367/9/3 366/9/3
f 368/8/3 365/8/3 367/8/3
f 369/8/3 365/8/3 368/8/3
f 370/9/3 368/9/3 366/9/3
f 371/9/3 368/9/3 370/9/3
f 372/8/3 371/8/3 370/8/3
f 373/8/3 371/8/3 372/8/3
f 376/8/3 375/8/3 374/8/3
f 377/8/3 375/8/3 376/8/3
f 380/8/3 379/8/3 378/8/3
f 381/8/3 379/8/3 380/8/3
f 384/8/3 383/8/3 382/8/3
f 385/8/3 383/8/3 384/8/3
f 388/8/3 387/8/3 386/8/3
f 389/8/3 387/8/3 388/8/3
f 392/8/3 391/8/3 390/8/3
f 393/8/3 391/8/3 392/8/3
f 396/9/3 395/9/3 394/9/3
f 397/9/3 395/9/3 396/9/3
f 398/7/4 399/7/4 400/7/4
f 400/7/4 399/7/4 401/7/4
f 402/8/4 403/8/4 404/8/4
f 404/8/4 403/8/4 405/8/4
f 406/8/4 407/8/4 408/8/4
f 408/8/4 407/8/4 409/8/4
f 410/8/4 411/8/4 412/8/4
f 412/8/4 411/8/4 413/8/4
f 414/8/4 415/8/4 416/8/4
f 416/8/4 415/8/4 417/8/4
f 418/8/4 419/8/4 420/8/4
f 420/8/4 419/8/4 421/8/4
f 422/9/4 423/9/4 424/9/4
f 424/9/4 423/9/4 425/9/4
f 426/8/4 427/8/4 428/8/4
f 428/8/4 427/8/4 429/8/4
f 430/8/4 431/8/4 432/8/4
f 432/8/4 431/8/4 433/8/4
f 434/8/4 435/8/4 436/8/4
f 436/8/4 435/8/4 437/8/4
f 436/9/4 437/9/4 438/9/4
f 438/9/4 437/9/4 439/9/4
f 440/6/4 441/6/4 444/6/4
f 444/6/4 441/6/4 445/6/4
f 442/8/4 443/8/4 446/8/4
f 446/8/4 443/8/4 447/8/4
f 447/8/4 448/8/4 449/8/4
f 449/8/4 448/8/4 450/8/4
f 449/9/4 450/9/4 452/9/4
f 450/9/4 451/9/4 452/9/4
f 452/9/4 451/9/4 453/9/4
f 454/9/4 455/9/4 456/9/4
f 456/9/4 455/9/4 457/9/4
f 457/6/4 458/6/4 459/6/4
f 459/6/4 458/6/4 460/6/4
f 461/6/4 462/6/4 465/6/4
f 465/6/4 462/6/4 466/6/4
f 463/7/4 464/7/4 467/7/4
f 467/7/4 464/7/4 468/7/4
f 469/8/4 470/8/4 471/8/4
f 471/8/4 470/8/4 472/8/4
f 473/6/4 474/6/4 475/6/4
f 475/6/4 474/6/4 476/6/4
f 477/6/4 478/6/4 481/6/4
f 481/6/4 478/6/4 482/6/4
f 479/6/4 480/6/4 483/6/4
f 483/6/4 480/6/4 484/6/4
f 485/7/4 486/7/4 487/7/4
f 487/7/4 486/7/4 488/7/4
f 489/3/4 490/3/4 493/3/4
f 490/7/4 491/7/4 494/7/4
f 493/3/4 490/3/4 494/3/4
f 493/5/4 494/5/4 497/5/4
f 494/7/4 491/7/4 498/7/4
f 497/5/4 494/5/4 498/5/4
f 491/8/4 492/8/4 499/8/4
f 498/7/4 491/7/4 499/7/4
f 499/8/4 492/8/4 500/8/4
f 495/6/4 496/6/4 501/6/4
f 501/6/4 496/6/4 502/6/4
f 499/6/4 500/6/4 503/6/4
f 503/6/4 500/6/4 504/6/4
f 505/6/4 506/6/4 508/6/4
f 508/6/4 506/6/4 509/6/4
f 509/6/4 506/6/4 510/6/4
f 510/6/4 506/6/4 511/6/4
f 507/6/4 508/6/4 513/6/4
f 508/6/4 509/6/4 513/6/4
f 513/6/4 509/6/4 514/6/4
f 509/3/4 510/3/4 515/3/4
f 514/6/4 509/6/4 515/6/4
f 515/3/4 510/3/4 516/3/4
f 513/3/4 514/3/4 517/3/4
f 512/6/4 513/6/4 517/6/4
f 515/5/4 516/5/4 518/5/4
f 517/3/4 514/3/4 518/3/4
f 514/5/4 515/5/4 518/5/4
f 518/5/4 516/5/4 519/5/4
f 518/3/4 519/3/4 521/3/4
f 517/5/4 518/5/4 521/5/4
f 521/3/4 519/3/4 522/3/4
f 519/7/4 520/7/4 523/7/4
f 522/3/4 519/3/4 523/3/4
f 523/7/4 520/7/4 524/7/4
f 512/6/4 517/6/4 525/6/4
f 521/5/4 522/5/4 526/5/4
f 525/6/4 517/6/4 526/6/4
f 517/5/4 521/5/4 526/5/4
f 526/5/4 522/5/4 527/5/4
f 526/6/4 527/6/4 528/6/4
f 528/6/4 527/6/4 529/6/4
f 529/6/4 527/6/4 530/6/4
f 529/6/4 530/6/4 532/6/4
f 530/6/4 531/6/4 532/6/4
f 532/6/4 531/6/4 533/6/4
f 536/6/5 535/6/5 534/6/5
f 537/6/5 535/6/5 536/6/5
f 538/1/5 537/1/5 536/1/5
f 539/1/5 537/1/5 538/1/5
f 540/6/5 539/6/5 538/6/5
f 541/6/5 539/6/5 540/6/5
f 547/6/5 543/6/5 542/6/5
f 548/6/5 543/6/5 547/6/5
f 549/6/5 545/6/5 544/6/5
f 550/6/5 545/6/5 549/6/5
f 552/6/5 547/6/5 546/6/5
f 553/1/5 548/1/5 547/1/5
f 553/6/5 547/6/5 552/6/5
f 554/1/5 548/1/5 553/1/5
f 555/1/5 550/1/5 549/1/5
f 556/6/5 551/6/5 550/6/5
f 556/1/5 550/1/5 555/1/5
f 557/6/5 551/6/5 556/6/5
f 558/6/5 554/6/5 553/6/5
f 559/6/5 554/6/5 558/6/5
f 560/6/5 556/6/5 555/6/5
f 561/6/5 556/6/5 560/6/5
f 566/6/5 563/6/5 562/6/5
f 567/6/5 563/6/5 566/6/5
f 568/6/5 565/6/5 564/6/5
f 569/6/5 565/6/5 568/6/5
f 574/6/5 571/6/5 570/6/5
f 575/6/5 571/6/5 574/6/5
f 576/6/5 573/6/5 572/6/5
f 577/6/5 573/6/5 576/6/5
f 578/3/6 579/3/6 580/3/6
f 580/3/6 579/3/6 581/3/6
f 582/6/6 583/6/6 586/6/6
f 586/6/6 583/6/6 587/6/6
f 584/6/6 585/6/6 588/6/6
f 588/6/6 585/6/6 589/6/6
f 590/5/6 591/5/6 593/5/6
f 591/6/6 592/6/6 594/6/6
f 593/5/6 591/5/6 594/5/6
f 594/6/6 592/6/6 595/6/6
f 596/4/6 597/4/6 601/4/6
f 597/7/6 598/7/6 602/7/6
f 601/4/6 597/4/6 602/4/6
f 602/7/6 598/7/6 603/7/6
f 599/7/6 600/7/6 604/7/6
f 604/7/6 600/7/6 605/7/6
f 606/3/6 607/3/6 608/3/6
f 606/3/6 608/3/6 610/3/6
f 608/5/6 609/5/6 611/5/6
f 610/3/6 608/3/6 611/3/6
f 611/5/6 609/5/6 612/5/6
f 613/6/6 614/6/6 617/6/6
f 617/6/6 614/6/6 618/6/6
f 615/6/6 616/6/6 620/6/6
f 620/6/6 616/6/6 621/6/6
f 619/7/6 620/7/6 624/7/6
f 624/7/6 620/7/6 625/7/6
f 625/7/6 620/7/6 626/7/6
f 622/7/6 623/7/6 627/7/6
f 627/7/6 623/7/6 628/7/6
f 629/7/6 630/7/6 631/7/6
f 631/7/6 630/7/6 632/7/6
f 632/7/6 630/7/6 633/7/6
f 633/7/6 634/7/6 637/7/6
f 632/7/6 633/7/6 637/7/6
f 637/7/6 634/7/6 638/7/6
f 638/7/6 634/7/6 639/7/6
f 635/6/6 636/6/6 642/6/6
f 642/6/6 636/6/6 643/6/6
f 638/7/6 639/7/6 644/7/6
f 644/7/6 639/7/6 645/7/6
f 640/6/6 641/6/6 646/6/6
f 646/6/6 641/6/6 647/6/6
f 648/6/6 649/6/6 654/6/6
f 654/6/6 649/6/6 655/6/6
f 650/7/6 651/7/6 656/7/6
f 656/7/6 651/7/6 657/7/6
f 657/7/6 651/7/6 658/7/6
f 652/6/6 653/6/6 661/6/6
f 661/6/6 653/6/6 662/6/6
f 656/9/6 657/9/6 664/9/6
f 658/8/6 659/8/6 665/8/6
f 657/8/6 658/8/6 665/8/6
f 660/9/6 661/9/6 666/9/6
f 666/9/6 661/9/6 667/9/6
f 663/8/6 664/8/6 668/8/6
f 664/9/6 657/9/6 669/9/6
f 668/8/6 664/8/6 669/8/6
f 657/8/6 665/8/6 670/8/6
f 669/9/6 657/9/6 670/9/6
f 665/8/6 666/8/6 670/8/6
f 666/8/6 667/8/6 670/8/6
f 670/8/6 667/8/6 671/8/6
f 671/8/6 667/8/6 672/8/6
f 672/8/6 667/8/6 673/8/6
f 674/8/6 675/8/6 677/8/6
f 677/8/6 675/8/6 678/8/6
f 676/8/6 677/8/6 678/8/6
f 678/8/6 675/8/6 679/8/6
f 676/8/6 678/8/6 680/8/6
f 681/8/6 682/8/6 683/8/6
f 681/8/6 683/8/6 684/8/6
f 684/8/6 683/8/6 685/8/6
f 676/8/6 680/8/6 687/8/6
f 687/8/6 680/8/6 688/8/6
f 685/8/6 686/8/6 689/8/6
f 689/8/6 686/8/6 690/8/6
f 691/8/6 692/8/6 696/8/6
f 696/8/6 692/8/6 697/8/6
f 694/8/6 695/8/6 698/8/6
f 693/8/6 694/8/6 698/8/6
f 698/8/6 695/8/6 699/8/6
f 696/8/6 697/8/6 701/8/6
f 701/8/6 697/8/6 702/8/6
f 701/8/6 702/8/6 706/8/6
f 699/8/6 700/8/6 706/8/6
f 700/8/6 701/8/6 706/8/6
f 706/8/6 702/8/6 707/8/6
f 702/9/6 703/9/6 708/9/6
f 707/8/6 702/8/6 708/8/6
f 708/9/6 703/9/6 709/9/6
f 704/6/6 705/6/6 711/6/6
f 711/6/6 705/6/6 712/6/6
f 708/8/6 709/8/6 713/8/6
f 707/8/6 708/8/6 713/8/6
f 709/6/6 710/6/6 714/6/6
f 713/8/6 709/8/6 714/8/6
f 714/6/6 710/6/6 715/6/6
f 716/6/6 717/6/6 722/6/6
f 722/6/6 717/6/6 723/6/6
f 718/7/6 719/7/6 724/7/6
f 724/7/6 719/7/6 725/7/6
f 720/6/6 721/6/6 726/6/6
f 726/6/6 721/6/6 727/6/6
f 728/8/6 729/8/6 733/8/6
f 733/8/6 729/8/6 734/8/6
f 730/9/6 731/9/6 736/9/6
f 731/8/6 732/8/6 737/8/6
f 736/9/6 731/9/6 737/9/6
f 728/8/6 733/8/6 738/8/6
f 738/8/6 733/8/6 739/8/6
f 735/8/6 736/8/6 740/8/6
f 736/8/6 737/8/6 740/8/6
f 737/8/6 732/8/6 741/8/6
f 740/8/6 737/8/6 741/8/6
f 741/8/6 732/8/6 742/8/6
f 743/8/6 744/8/6 745/8/6
f 745/8/6 744/8/6 746/8/6
f 740/8/6 741/8/6 747/8/6
f 747/8/6 741/8/6 748/8/6
f 741/9/6 742/9/6 749/9/6
f 748/8/6 741/8/6 749/8/6
f 749/9/6 742/9/6 750/9/6
f 748/8/6 749/8/6 751/8/6
f 749/8/6 750/8/6 751/8/6
f 751/8/6 750/8/6 752/8/6
f 752/8/6 750/8/6 753/8/6
f 753/8/6 750/8/6 754/8/6
f 745/9/6 746/9/6 755/9/6
f 753/9/6 754/9/6 758/9/6
f 758/9/6 754/9/6 759/9/6
f 745/9/6 755/9/6 761/9/6
f 761/9/6 755/9/6 762/9/6
f 756/8/6 757/8/6 763/8/6
f 757/8/6 758/8/6 763/8/6
f 761/8/6 762/8/6 765/8/6
f 760/8/6 761/8/6 765/8/6
f 765/8/6 762/8/6 766/8/6
f 763/8/6 764/8/6 767/8/6
f 756/8/6 763/8/6 767/8/6
f 767/8/6 764/8/6 768/8/6
f 768/8/6 764/8/6 769/8/6
f 760/8/6 765/8/6 770/8/6
f 765/9/6 766/9/6 771/9/6
f 770/8/6 765/8/6 771/8/6
f 766/8/6 767/8/6 772/8/6
f 771/9/6 766/9/6 772/9/6
f 769/8/6 764/8/6 773/8/6
f 773/8/6 764/8/6 774/8/6
f 772/8/6 767/8/6 777/8/6
f 777/8/6 767/8/6 778/8/6
f 773/9/6 774/9/6 779/9/6
f 779/9/6 774/9/6 780/9/6
f 775/6/6 776/6/6 782/6/6
f 782/6/6 776/6/6 783/6/6
f 780/6/6 781/6/6 784/6/6
f 784/6/6 781/6/6 785/6/6
f 790/8/6 791/8/6 792/8/6
f 792/8/6 791/8/6 793/8/6
f 790/8/6 792/8/6 794/8/6
f 794/8/6 792/8/6 795/8/6
f 794/9/6 795/9/6 796/9/6
f 794/9/6 796/9/6 798/9/6
f 796/8/6 797/8/6 799/8/6
f 798/9/6 796/9/6 799/9/6
f 799/8/6 797/8/6 800/8/6
f 798/8/6 799/8/6 801/8/6
f 801/8/6 799/8/6 802/8/6
f 786/6/6 787/6/6 804/6/6
f 804/6/6 787/6/6 805/6/6
f 802/9/6 803/9/6 806/9/6
f 806/9/6 803/9/6 807/9/6
f 788/6/6 789/6/6 808/6/6
f 808/6/6 789/6/6 809/6/6
