# MagicaVoxel @ Ephtracy

# material
mtllib yum.mtl
usemtl palette

# normals
vn -1 0 0
vn 1 0 0
vn 0 0 1
vn 0 0 -1
vn 0 -1 0
vn 0 1 0

# texcoords
vt 0.912109 0.5
vt 0.958984 0.5
vt 0.994141 0.5

# verts
v -3 10 8
v -3 10 7
v -3 10 6
v -3 10 5
v -3 10 4
v -3 10 3
v -3 10 2
v -3 10 -2
v -3 10 -4
v -3 10 -6
v -3 12 1
v -3 12 -1
v -3 12 -3
v -3 12 -4
v -3 12 -6
v -3 12 -8
v -3 13 -4
v -3 13 -6
v -3 14 7
v -3 14 6
v -3 14 5
v -3 14 4
v -3 16 8
v -3 16 3
v -3 16 2
v -3 16 1
v -3 16 -1
v -3 16 -2
v -3 16 -3
v -3 16 -4
v -3 16 -6
v -3 16 -8
v -2 2 6
v -2 2 5
v -2 3 6
v -2 3 5
v -2 3 3
v -2 4 5
v -2 4 4
v -2 4 3
v -2 4 2
v -2 5 5
v -2 5 4
v -2 5 2
v -2 5 1
v -2 6 7
v -2 6 5
v -2 6 1
v -2 6 -6
v -2 7 8
v -2 7 7
v -2 7 -6
v -2 7 -8
v -2 8 9
v -2 8 8
v -2 8 -8
v -2 8 -9
v -2 9 10
v -2 9 9
v -2 9 -9
v -2 9 -10
v -2 10 8
v -2 10 7
v -2 10 6
v -2 10 5
v -2 10 4
v -2 10 3
v -2 10 2
v -2 10 -2
v -2 10 -4
v -2 10 -6
v -2 12 1
v -2 12 -1
v -2 12 -3
v -2 12 -4
v -2 12 -6
v -2 12 -8
v -2 13 -4
v -2 13 -6
v -2 14 7
v -2 14 6
v -2 14 5
v -2 14 4
v -2 16 8
v -2 16 3
v -2 16 2
v -2 16 1
v -2 16 -1
v -2 16 -2
v -2 16 -3
v -2 16 -4
v -2 16 -6
v -2 16 -8
v -2 18 10
v -2 18 9
v -2 18 -9
v -2 18 -10
v -2 19 9
v -2 19 8
v -2 19 -8
v -2 19 -9
v -2 20 8
v -2 20 -8
v 2 2 6
v 2 2 5
v 2 3 6
v 2 3 5
v 2 3 3
v 2 4 5
v 2 4 4
v 2 4 3
v 2 4 2
v 2 5 5
v 2 5 4
v 2 5 2
v 2 5 1
v 2 6 7
v 2 6 5
v 2 6 1
v 2 6 -6
v 2 7 8
v 2 7 7
v 2 7 -6
v 2 7 -8
v 2 8 9
v 2 8 8
v 2 8 -8
v 2 8 -9
v 2 9 10
v 2 9 9
v 2 9 1
v 2 9 -2
v 2 9 -9
v 2 9 -10
v 2 11 1
v 2 11 -2
v 2 12 1
v 2 12 -2
v 2 18 10
v 2 18 9
v 2 18 1
v 2 18 -2
v 2 18 -9
v 2 18 -10
v 2 19 9
v 2 19 8
v 2 19 -8
v 2 19 -9
v 2 20 8
v 2 20 -8
v 3 9 1
v 3 9 -2
v 3 11 1
v 3 11 -2
v 3 12 1
v 3 12 -2
v 3 18 1
v 3 18 -2
v -2 9 10
v -2 18 10
v 2 9 10
v 2 18 10
v -2 8 9
v -2 9 9
v -2 18 9
v -2 19 9
v 2 8 9
v 2 9 9
v 2 18 9
v 2 19 9
v -3 10 8
v -3 16 8
v -2 7 8
v -2 8 8
v -2 10 8
v -2 16 8
v -2 19 8
v -2 20 8
v 2 7 8
v 2 8 8
v 2 19 8
v 2 20 8
v -2 6 7
v -2 7 7
v 2 6 7
v 2 7 7
v -3 10 6
v -3 14 6
v -2 2 6
v -2 3 6
v -2 10 6
v -2 14 6
v 2 2 6
v 2 3 6
v -2 3 5
v -2 4 5
v -2 5 5
v -2 6 5
v 2 3 5
v 2 4 5
v 2 5 5
v 2 6 5
v -3 10 4
v -3 14 4
v -2 4 4
v -2 5 4
v -2 10 4
v -2 14 4
v 2 4 4
v 2 5 4
v -3 10 2
v -3 16 2
v -2 10 2
v -2 16 2
v 2 9 1
v 2 11 1
v 2 12 1
v 2 18 1
v 3 9 1
v 3 11 1
v 3 12 1
v 3 18 1
v -3 12 -1
v -3 16 -1
v -2 12 -1
v -2 16 -1
v -3 12 -3
v -3 16 -3
v -2 12 -3
v -2 16 -3
v -3 10 -4
v -3 12 -4
v -2 10 -4
v -2 12 -4
v -3 13 -6
v -3 16 -6
v -2 13 -6
v -2 16 -6
v -3 10 7
v -3 14 7
v -2 10 7
v -2 14 7
v -3 10 5
v -3 14 5
v -2 2 5
v -2 3 5
v -2 10 5
v -2 14 5
v 2 2 5
v 2 3 5
v -3 10 3
v -3 16 3
v -2 3 3
v -2 4 3
v -2 10 3
v -2 16 3
v 2 3 3
v 2 4 3
v -2 4 2
v -2 5 2
v 2 4 2
v 2 5 2
v -3 12 1
v -3 16 1
v -2 5 1
v -2 6 1
v -2 12 1
v -2 16 1
v 2 5 1
v 2 6 1
v -3 10 -2
v -3 16 -2
v -2 10 -2
v -2 16 -2
v 2 9 -2
v 2 11 -2
v 2 12 -2
v 2 18 -2
v 3 9 -2
v 3 11 -2
v 3 12 -2
v 3 18 -2
v -3 13 -4
v -3 16 -4
v -2 13 -4
v -2 16 -4
v -3 10 -6
v -3 12 -6
v -2 6 -6
v -2 7 -6
v -2 10 -6
v -2 12 -6
v 2 6 -6
v 2 7 -6
v -3 12 -8
v -3 16 -8
v -2 7 -8
v -2 8 -8
v -2 12 -8
v -2 16 -8
v -2 19 -8
v -2 20 -8
v 2 7 -8
v 2 8 -8
v 2 19 -8
v 2 20 -8
v -2 8 -9
v -2 9 -9
v -2 18 -9
v -2 19 -9
v 2 8 -9
v 2 9 -9
v 2 18 -9
v 2 19 -9
v -2 9 -10
v -2 18 -10
v 2 9 -10
v 2 18 -10
v -2 2 6
v 2 2 6
v -2 2 5
v 2 2 5
v -2 3 5
v 2 3 5
v -2 3 3
v 2 3 3
v -2 4 3
v 2 4 3
v -2 4 2
v 2 4 2
v -2 5 5
v 2 5 5
v -2 5 4
v 2 5 4
v -2 5 2
v 2 5 2
v -2 5 1
v 2 5 1
v -2 6 7
v 2 6 7
v -2 6 5
v 2 6 5
v -2 6 1
v 2 6 1
v -2 6 -6
v 2 6 -6
v -2 7 8
v 2 7 8
v -2 7 7
v 2 7 7
v -2 7 -6
v 2 7 -6
v -2 7 -8
v 2 7 -8
v -2 8 9
v 2 8 9
v -2 8 8
v 2 8 8
v -2 8 -8
v 2 8 -8
v -2 8 -9
v 2 8 -9
v -2 9 10
v 2 9 10
v -2 9 9
v 2 9 9
v 2 9 1
v 3 9 1
v 2 9 -2
v 3 9 -2
v -2 9 -9
v 2 9 -9
v -2 9 -10
v 2 9 -10
v -3 10 8
v -2 10 8
v -3 10 7
v -2 10 7
v -3 10 6
v -2 10 6
v -3 10 5
v -2 10 5
v -3 10 4
v -2 10 4
v -3 10 3
v -2 10 3
v -3 10 2
v -2 10 2
v -3 10 -2
v -2 10 -2
v -3 10 -4
v -2 10 -4
v -3 10 -6
v -2 10 -6
v 2 12 1
v 3 12 1
v 2 12 -2
v 3 12 -2
v -3 12 -3
v -2 12 -3
v -3 12 -4
v -2 12 -4
v -3 12 -6
v -2 12 -6
v -3 12 -8
v -2 12 -8
v -3 14 7
v -2 14 7
v -3 14 6
v -2 14 6
v -3 14 5
v -2 14 5
v -3 14 4
v -2 14 4
v -2 3 6
v 2 3 6
v -2 3 5
v 2 3 5
v -2 4 5
v 2 4 5
v -2 4 4
v 2 4 4
v 2 11 1
v 3 11 1
v 2 11 -2
v 3 11 -2
v -3 12 1
v -2 12 1
v -3 12 -1
v -2 12 -1
v -3 13 -4
v -2 13 -4
v -3 13 -6
v -2 13 -6
v -3 16 8
v -2 16 8
v -3 16 3
v -2 16 3
v -3 16 2
v -2 16 2
v -3 16 1
v -2 16 1
v -3 16 -1
v -2 16 -1
v -3 16 -2
v -2 16 -2
v -3 16 -3
v -2 16 -3
v -3 16 -4
v -2 16 -4
v -3 16 -6
v -2 16 -6
v -3 16 -8
v -2 16 -8
v -2 18 10
v 2 18 10
v -2 18 9
v 2 18 9
v 2 18 1
v 3 18 1
v 2 18 -2
v 3 18 -2
v -2 18 -9
v 2 18 -9
v -2 18 -10
v 2 18 -10
v -2 19 9
v 2 19 9
v -2 19 8
v 2 19 8
v -2 19 -8
v 2 19 -8
v -2 19 -9
v 2 19 -9
v -2 20 8
v 2 20 8
v -2 20 -8
v 2 20 -8

# faces
f 11/3/1 8/3/1 7/3/1
f 12/3/1 8/3/1 11/3/1
f 14/3/1 10/3/1 9/3/1
f 15/3/1 10/3/1 14/3/1
f 17/3/1 16/3/1 15/3/1
f 17/3/1 15/3/1 14/3/1
f 17/3/1 14/3/1 13/3/1
f 18/3/1 16/3/1 17/3/1
f 19/3/1 2/3/1 1/3/1
f 20/3/1 4/3/1 3/3/1
f 21/3/1 4/3/1 20/3/1
f 22/3/1 6/3/1 5/3/1
f 23/3/1 19/3/1 1/3/1
f 23/3/1 22/3/1 21/3/1
f 23/3/1 21/3/1 20/3/1
f 23/3/1 20/3/1 19/3/1
f 24/3/1 6/3/1 22/3/1
f 24/3/1 22/3/1 23/3/1
f 25/3/1 11/3/1 7/3/1
f 26/3/1 11/3/1 25/3/1
f 27/3/1 8/3/1 12/3/1
f 28/3/1 8/3/1 27/3/1
f 29/3/1 17/3/1 13/3/1
f 30/3/1 17/3/1 29/3/1
f 31/3/1 16/3/1 18/3/1
f 32/3/1 16/3/1 31/3/1
f 35/1/1 34/1/1 33/1/1
f 36/1/1 34/1/1 35/1/1
f 38/1/1 37/1/1 36/1/1
f 39/1/1 37/1/1 38/1/1
f 40/1/1 37/1/1 39/1/1
f 43/1/1 41/1/1 40/1/1
f 43/1/1 40/1/1 39/1/1
f 44/1/1 41/1/1 43/1/1
f 47/1/1 43/1/1 42/1/1
f 47/1/1 45/1/1 44/1/1
f 47/1/1 44/1/1 43/1/1
f 48/1/1 45/1/1 47/1/1
f 51/1/1 47/1/1 46/1/1
f 51/1/1 49/1/1 48/1/1
f 51/1/1 48/1/1 47/1/1
f 52/1/1 49/1/1 51/1/1
f 55/1/1 51/1/1 50/1/1
f 55/1/1 53/1/1 52/1/1
f 55/1/1 52/1/1 51/1/1
f 56/1/1 53/1/1 55/1/1
f 59/1/1 55/1/1 54/1/1
f 59/1/1 57/1/1 56/1/1
f 59/1/1 56/1/1 55/1/1
f 60/1/1 57/1/1 59/1/1
f 62/1/1 59/1/1 58/1/1
f 62/1/1 61/1/1 60/1/1
f 62/1/1 60/1/1 59/1/1
f 63/1/1 61/1/1 62/1/1
f 64/1/1 61/1/1 63/1/1
f 65/1/1 61/1/1 64/1/1
f 66/1/1 61/1/1 65/1/1
f 67/1/1 61/1/1 66/1/1
f 68/1/1 61/1/1 67/1/1
f 69/1/1 61/1/1 68/1/1
f 70/1/1 61/1/1 69/1/1
f 71/1/1 61/1/1 70/1/1
f 74/1/1 70/1/1 69/1/1
f 75/1/1 70/1/1 74/1/1
f 76/1/1 61/1/1 71/1/1
f 77/1/1 61/1/1 76/1/1
f 80/1/1 64/1/1 63/1/1
f 81/1/1 64/1/1 80/1/1
f 82/1/1 66/1/1 65/1/1
f 83/1/1 66/1/1 82/1/1
f 84/1/1 62/1/1 58/1/1
f 85/1/1 68/1/1 67/1/1
f 86/1/1 68/1/1 85/1/1
f 87/1/1 73/1/1 72/1/1
f 88/1/1 73/1/1 87/1/1
f 89/1/1 74/1/1 69/1/1
f 90/1/1 74/1/1 89/1/1
f 91/1/1 79/1/1 78/1/1
f 92/1/1 79/1/1 91/1/1
f 93/1/1 61/1/1 77/1/1
f 94/1/1 84/1/1 58/1/1
f 94/1/1 93/1/1 92/1/1
f 94/1/1 92/1/1 91/1/1
f 94/1/1 90/1/1 89/1/1
f 94/1/1 91/1/1 90/1/1
f 94/1/1 86/1/1 85/1/1
f 94/1/1 89/1/1 88/1/1
f 94/1/1 88/1/1 87/1/1
f 94/1/1 87/1/1 86/1/1
f 94/1/1 85/1/1 84/1/1
f 95/1/1 93/1/1 94/1/1
f 96/1/1 61/1/1 93/1/1
f 96/1/1 93/1/1 95/1/1
f 97/1/1 61/1/1 96/1/1
f 98/1/1 96/1/1 95/1/1
f 99/1/1 96/1/1 98/1/1
f 100/1/1 96/1/1 99/1/1
f 101/1/1 96/1/1 100/1/1
f 102/1/1 100/1/1 99/1/1
f 103/1/1 100/1/1 102/1/1
f 104/1/2 105/1/2 106/1/2
f 106/1/2 105/1/2 107/1/2
f 107/1/2 108/1/2 109/1/2
f 109/1/2 108/1/2 110/1/2
f 110/1/2 108/1/2 111/1/2
f 111/1/2 112/1/2 114/1/2
f 110/1/2 111/1/2 114/1/2
f 114/1/2 112/1/2 115/1/2
f 113/1/2 114/1/2 118/1/2
f 115/1/2 116/1/2 118/1/2
f 114/1/2 115/1/2 118/1/2
f 118/1/2 116/1/2 119/1/2
f 117/1/2 118/1/2 122/1/2
f 119/1/2 120/1/2 122/1/2
f 118/1/2 119/1/2 122/1/2
f 122/1/2 120/1/2 123/1/2
f 121/1/2 122/1/2 126/1/2
f 123/1/2 124/1/2 126/1/2
f 122/1/2 123/1/2 126/1/2
f 126/1/2 124/1/2 127/1/2
f 125/1/2 126/1/2 130/1/2
f 127/1/2 128/1/2 130/1/2
f 126/1/2 127/1/2 130/1/2
f 130/1/2 128/1/2 131/1/2
f 131/1/2 128/1/2 132/1/2
f 132/1/2 128/1/2 133/1/2
f 129/1/2 130/1/2 135/1/2
f 130/1/2 131/1/2 135/1/2
f 133/1/2 134/1/2 136/1/2
f 132/1/2 133/1/2 136/1/2
f 129/1/2 135/1/2 137/1/2
f 135/2/2 136/2/2 137/2/2
f 136/1/2 134/1/2 138/1/2
f 137/2/2 136/2/2 138/2/2
f 129/1/2 137/1/2 139/1/2
f 139/1/2 137/1/2 140/1/2
f 140/1/2 137/1/2 141/1/2
f 138/1/2 134/1/2 142/1/2
f 142/1/2 134/1/2 143/1/2
f 143/1/2 134/1/2 144/1/2
f 140/1/2 141/1/2 145/1/2
f 142/1/2 143/1/2 145/1/2
f 141/1/2 142/1/2 145/1/2
f 145/1/2 143/1/2 146/1/2
f 146/1/2 143/1/2 147/1/2
f 147/1/2 143/1/2 148/1/2
f 146/1/2 147/1/2 149/1/2
f 149/1/2 147/1/2 150/1/2
f 151/3/2 152/3/2 153/3/2
f 153/3/2 152/3/2 154/3/2
f 155/3/2 156/3/2 157/3/2
f 157/3/2 156/3/2 158/3/2
f 161/1/3 160/1/3 159/1/3
f 162/1/3 160/1/3 161/1/3
f 167/1/3 164/1/3 163/1/3
f 168/1/3 164/1/3 167/1/3
f 169/1/3 166/1/3 165/1/3
f 170/1/3 166/1/3 169/1/3
f 175/3/3 172/3/3 171/3/3
f 176/3/3 172/3/3 175/3/3
f 179/1/3 174/1/3 173/1/3
f 180/1/3 174/1/3 179/1/3
f 181/1/3 178/1/3 177/1/3
f 182/1/3 178/1/3 181/1/3
f 185/1/3 184/1/3 183/1/3
f 186/1/3 184/1/3 185/1/3
f 191/3/3 188/3/3 187/3/3
f 192/3/3 188/3/3 191/3/3
f 193/1/3 190/1/3 189/1/3
f 194/1/3 190/1/3 193/1/3
f 199/1/3 196/1/3 195/1/3
f 200/1/3 196/1/3 199/1/3
f 201/1/3 198/1/3 197/1/3
f 202/1/3 198/1/3 201/1/3
f 207/3/3 204/3/3 203/3/3
f 208/3/3 204/3/3 207/3/3
f 209/1/3 206/1/3 205/1/3
f 210/1/3 206/1/3 209/1/3
f 213/3/3 212/3/3 211/3/3
f 214/3/3 212/3/3 213/3/3
f 219/3/3 216/3/3 215/3/3
f 220/3/3 216/3/3 219/3/3
f 221/3/3 218/3/3 217/3/3
f 222/3/3 218/3/3 221/3/3
f 225/3/3 224/3/3 223/3/3
f 226/3/3 224/3/3 225/3/3
f 229/3/3 228/3/3 227/3/3
f 230/3/3 228/3/3 229/3/3
f 233/3/3 232/3/3 231/3/3
f 234/3/3 232/3/3 233/3/3
f 237/3/3 236/3/3 235/3/3
f 238/3/3 236/3/3 237/3/3
f 239/3/4 240/3/4 241/3/4
f 241/3/4 240/3/4 242/3/4
f 243/3/4 244/3/4 247/3/4
f 247/3/4 244/3/4 248/3/4
f 245/1/4 246/1/4 249/1/4
f 249/1/4 246/1/4 250/1/4
f 251/3/4 252/3/4 255/3/4
f 255/3/4 252/3/4 256/3/4
f 253/1/4 254/1/4 257/1/4
f 257/1/4 254/1/4 258/1/4
f 259/1/4 260/1/4 261/1/4
f 261/1/4 260/1/4 262/1/4
f 263/3/4 264/3/4 267/3/4
f 267/3/4 264/3/4 268/3/4
f 265/1/4 266/1/4 269/1/4
f 269/1/4 266/1/4 270/1/4
f 271/3/4 272/3/4 273/3/4
f 273/3/4 272/3/4 274/3/4
f 275/3/4 276/3/4 279/3/4
f 279/3/4 276/3/4 280/3/4
f 277/3/4 278/3/4 281/3/4
f 281/3/4 278/3/4 282/3/4
f 283/3/4 284/3/4 285/3/4
f 285/3/4 284/3/4 286/3/4
f 287/3/4 288/3/4 291/3/4
f 291/3/4 288/3/4 292/3/4
f 289/1/4 290/1/4 293/1/4
f 293/1/4 290/1/4 294/1/4
f 295/3/4 296/3/4 299/3/4
f 299/3/4 296/3/4 300/3/4
f 297/1/4 298/1/4 303/1/4
f 303/1/4 298/1/4 304/1/4
f 301/1/4 302/1/4 305/1/4
f 305/1/4 302/1/4 306/1/4
f 307/1/4 308/1/4 311/1/4
f 311/1/4 308/1/4 312/1/4
f 309/1/4 310/1/4 313/1/4
f 313/1/4 310/1/4 314/1/4
f 315/1/4 316/1/4 317/1/4
f 317/1/4 316/1/4 318/1/4
f 321/1/5 320/1/5 319/1/5
f 322/1/5 320/1/5 321/1/5
f 325/1/5 324/1/5 323/1/5
f 326/1/5 324/1/5 325/1/5
f 329/1/5 328/1/5 327/1/5
f 330/1/5 328/1/5 329/1/5
f 333/1/5 332/1/5 331/1/5
f 334/1/5 332/1/5 333/1/5
f 337/1/5 336/1/5 335/1/5
f 338/1/5 336/1/5 337/1/5
f 341/1/5 340/1/5 339/1/5
f 342/1/5 340/1/5 341/1/5
f 345/1/5 344/1/5 343/1/5
f 346/1/5 344/1/5 345/1/5
f 349/1/5 348/1/5 347/1/5
f 350/1/5 348/1/5 349/1/5
f 353/1/5 352/1/5 351/1/5
f 354/1/5 352/1/5 353/1/5
f 357/1/5 356/1/5 355/1/5
f 358/1/5 356/1/5 357/1/5
f 361/1/5 360/1/5 359/1/5
f 362/1/5 360/1/5 361/1/5
f 365/1/5 364/1/5 363/1/5
f 366/1/5 364/1/5 365/1/5
f 369/3/5 368/3/5 367/3/5
f 370/3/5 368/3/5 369/3/5
f 373/1/5 372/1/5 371/1/5
f 374/1/5 372/1/5 373/1/5
f 377/3/5 376/3/5 375/3/5
f 378/3/5 376/3/5 377/3/5
f 381/3/5 380/3/5 379/3/5
f 382/3/5 380/3/5 381/3/5
f 385/3/5 384/3/5 383/3/5
f 386/3/5 384/3/5 385/3/5
f 389/3/5 388/3/5 387/3/5
f 390/3/5 388/3/5 389/3/5
f 393/3/5 392/3/5 391/3/5
f 394/3/5 392/3/5 393/3/5
f 397/3/5 396/3/5 395/3/5
f 398/3/5 396/3/5 397/3/5
f 401/3/5 400/3/5 399/3/5
f 402/3/5 400/3/5 401/3/5
f 405/3/5 404/3/5 403/3/5
f 406/3/5 404/3/5 405/3/5
f 409/3/5 408/3/5 407/3/5
f 410/3/5 408/3/5 409/3/5
f 413/3/5 412/3/5 411/3/5
f 414/3/5 412/3/5 413/3/5
f 415/1/6 416/1/6 417/1/6
f 417/1/6 416/1/6 418/1/6
f 419/1/6 420/1/6 421/1/6
f 421/1/6 420/1/6 422/1/6
f 423/3/6 424/3/6 425/3/6
f 425/3/6 424/3/6 426/3/6
f 427/3/6 428/3/6 429/3/6
f 429/3/6 428/3/6 430/3/6
f 431/3/6 432/3/6 433/3/6
f 433/3/6 432/3/6 434/3/6
f 435/3/6 436/3/6 437/3/6
f 437/3/6 436/3/6 438/3/6
f 439/3/6 440/3/6 441/3/6
f 441/3/6 440/3/6 442/3/6
f 443/3/6 444/3/6 445/3/6
f 445/3/6 444/3/6 446/3/6
f 447/3/6 448/3/6 449/3/6
f 449/3/6 448/3/6 450/3/6
f 451/3/6 452/3/6 453/3/6
f 453/3/6 452/3/6 454/3/6
f 455/1/6 456/1/6 457/1/6
f 457/1/6 456/1/6 458/1/6
f 459/3/6 460/3/6 461/3/6
f 461/3/6 460/3/6 462/3/6
f 463/1/6 464/1/6 465/1/6
f 465/1/6 464/1/6 466/1/6
f 467/1/6 468/1/6 469/1/6
f 469/1/6 468/1/6 470/1/6
f 471/1/6 472/1/6 473/1/6
f 473/1/6 472/1/6 474/1/6
f 475/1/6 476/1/6 477/1/6
f 477/1/6 476/1/6 478/1/6
