# MagicaVoxel @ Ephtracy

# material
mtllib Bridge09.mtl
usemtl palette

# normals
vn -1 0 0
vn 1 0 0
vn 0 0 1
vn 0 0 -1
vn 0 -1 0
vn 0 1 0

# texcoords
vt 0.970703 0.5
vt 0.990234 0.5

# verts
v -7.5 0 10.5
v -7.5 0 9.5
v -7.5 0 6.5
v -7.5 0 5.5
v -7.5 0 2.5
v -7.5 0 1.5
v -7.5 0 -1.5
v -7.5 0 -2.5
v -7.5 0 -5.5
v -7.5 0 -6.5
v -7.5 0 -9.5
v -7.5 0 -10.5
v -7.5 3 9.5
v -7.5 3 6.5
v -7.5 3 5.5
v -7.5 3 2.5
v -7.5 3 1.5
v -7.5 3 -1.5
v -7.5 3 -2.5
v -7.5 3 -5.5
v -7.5 3 -6.5
v -7.5 3 -9.5
v -7.5 4 10.5
v -7.5 4 -10.5
v -6.5 0 9.5
v -6.5 0 8.5
v -6.5 0 7.5
v -6.5 0 6.5
v -6.5 0 5.5
v -6.5 0 4.5
v -6.5 0 3.5
v -6.5 0 2.5
v -6.5 0 1.5
v -6.5 0 0.5
v -6.5 0 -0.5
v -6.5 0 -1.5
v -6.5 0 -2.5
v -6.5 0 -3.5
v -6.5 0 -4.5
v -6.5 0 -5.5
v -6.5 0 -6.5
v -6.5 0 -7.5
v -6.5 0 -8.5
v -6.5 0 -9.5
v -6.5 1 9.5
v -6.5 1 8.5
v -6.5 1 7.5
v -6.5 1 6.5
v -6.5 1 5.5
v -6.5 1 4.5
v -6.5 1 3.5
v -6.5 1 2.5
v -6.5 1 1.5
v -6.5 1 0.5
v -6.5 1 -0.5
v -6.5 1 -1.5
v -6.5 1 -2.5
v -6.5 1 -3.5
v -6.5 1 -4.5
v -6.5 1 -5.5
v -6.5 1 -6.5
v -6.5 1 -7.5
v -6.5 1 -8.5
v -6.5 1 -9.5
v 6.5 1 10.5
v 6.5 1 9.5
v 6.5 1 6.5
v 6.5 1 5.5
v 6.5 1 2.5
v 6.5 1 1.5
v 6.5 1 -1.5
v 6.5 1 -2.5
v 6.5 1 -5.5
v 6.5 1 -6.5
v 6.5 1 -9.5
v 6.5 1 -10.5
v 6.5 3 9.5
v 6.5 3 6.5
v 6.5 3 5.5
v 6.5 3 2.5
v 6.5 3 1.5
v 6.5 3 -1.5
v 6.5 3 -2.5
v 6.5 3 -5.5
v 6.5 3 -6.5
v 6.5 3 -9.5
v 6.5 4 10.5
v 6.5 4 -10.5
v -6.5 1 10.5
v -6.5 1 9.5
v -6.5 1 6.5
v -6.5 1 5.5
v -6.5 1 2.5
v -6.5 1 1.5
v -6.5 1 -1.5
v -6.5 1 -2.5
v -6.5 1 -5.5
v -6.5 1 -6.5
v -6.5 1 -9.5
v -6.5 1 -10.5
v -6.5 3 9.5
v -6.5 3 6.5
v -6.5 3 5.5
v -6.5 3 2.5
v -6.5 3 1.5
v -6.5 3 -1.5
v -6.5 3 -2.5
v -6.5 3 -5.5
v -6.5 3 -6.5
v -6.5 3 -9.5
v -6.5 4 10.5
v -6.5 4 -10.5
v 6.5 0 9.5
v 6.5 0 8.5
v 6.5 0 7.5
v 6.5 0 6.5
v 6.5 0 5.5
v 6.5 0 4.5
v 6.5 0 3.5
v 6.5 0 2.5
v 6.5 0 1.5
v 6.5 0 0.5
v 6.5 0 -0.5
v 6.5 0 -1.5
v 6.5 0 -2.5
v 6.5 0 -3.5
v 6.5 0 -4.5
v 6.5 0 -5.5
v 6.5 0 -6.5
v 6.5 0 -7.5
v 6.5 0 -8.5
v 6.5 0 -9.5
v 6.5 1 9.5
v 6.5 1 8.5
v 6.5 1 7.5
v 6.5 1 6.5
v 6.5 1 5.5
v 6.5 1 4.5
v 6.5 1 3.5
v 6.5 1 2.5
v 6.5 1 1.5
v 6.5 1 0.5
v 6.5 1 -0.5
v 6.5 1 -1.5
v 6.5 1 -2.5
v 6.5 1 -3.5
v 6.5 1 -4.5
v 6.5 1 -5.5
v 6.5 1 -6.5
v 6.5 1 -7.5
v 6.5 1 -8.5
v 6.5 1 -9.5
v 7.5 0 10.5
v 7.5 0 9.5
v 7.5 0 6.5
v 7.5 0 5.5
v 7.5 0 2.5
v 7.5 0 1.5
v 7.5 0 -1.5
v 7.5 0 -2.5
v 7.5 0 -5.5
v 7.5 0 -6.5
v 7.5 0 -9.5
v 7.5 0 -10.5
v 7.5 3 9.5
v 7.5 3 6.5
v 7.5 3 5.5
v 7.5 3 2.5
v 7.5 3 1.5
v 7.5 3 -1.5
v 7.5 3 -2.5
v 7.5 3 -5.5
v 7.5 3 -6.5
v 7.5 3 -9.5
v 7.5 4 10.5
v 7.5 4 -10.5
v -7.5 0 10.5
v -7.5 4 10.5
v -6.5 1 10.5
v -6.5 4 10.5
v 6.5 1 10.5
v 6.5 4 10.5
v 7.5 0 10.5
v 7.5 4 10.5
v -7.5 0 6.5
v -7.5 3 6.5
v -6.5 0 6.5
v -6.5 1 6.5
v -6.5 3 6.5
v 6.5 0 6.5
v 6.5 1 6.5
v 6.5 3 6.5
v 7.5 0 6.5
v 7.5 3 6.5
v -7.5 0 2.5
v -7.5 3 2.5
v -6.5 0 2.5
v -6.5 1 2.5
v -6.5 3 2.5
v 6.5 0 2.5
v 6.5 1 2.5
v 6.5 3 2.5
v 7.5 0 2.5
v 7.5 3 2.5
v -7.5 0 -1.5
v -7.5 3 -1.5
v -6.5 0 -1.5
v -6.5 1 -1.5
v -6.5 3 -1.5
v 6.5 0 -1.5
v 6.5 1 -1.5
v 6.5 3 -1.5
v 7.5 0 -1.5
v 7.5 3 -1.5
v -7.5 0 -5.5
v -7.5 3 -5.5
v -6.5 0 -5.5
v -6.5 1 -5.5
v -6.5 3 -5.5
v 6.5 0 -5.5
v 6.5 1 -5.5
v 6.5 3 -5.5
v 7.5 0 -5.5
v 7.5 3 -5.5
v -7.5 0 -9.5
v -7.5 3 -9.5
v -6.5 0 -9.5
v -6.5 1 -9.5
v -6.5 3 -9.5
v 6.5 0 -9.5
v 6.5 1 -9.5
v 6.5 3 -9.5
v 7.5 0 -9.5
v 7.5 3 -9.5
v -7.5 0 9.5
v -7.5 3 9.5
v -6.5 0 9.5
v -6.5 1 9.5
v -6.5 3 9.5
v 6.5 0 9.5
v 6.5 1 9.5
v 6.5 3 9.5
v 7.5 0 9.5
v 7.5 3 9.5
v -7.5 0 5.5
v -7.5 3 5.5
v -6.5 0 5.5
v -6.5 1 5.5
v -6.5 3 5.5
v 6.5 0 5.5
v 6.5 1 5.5
v 6.5 3 5.5
v 7.5 0 5.5
v 7.5 3 5.5
v -7.5 0 1.5
v -7.5 3 1.5
v -6.5 0 1.5
v -6.5 1 1.5
v -6.5 3 1.5
v 6.5 0 1.5
v 6.5 1 1.5
v 6.5 3 1.5
v 7.5 0 1.5
v 7.5 3 1.5
v -7.5 0 -2.5
v -7.5 3 -2.5
v -6.5 0 -2.5
v -6.5 1 -2.5
v -6.5 3 -2.5
v 6.5 0 -2.5
v 6.5 1 -2.5
v 6.5 3 -2.5
v 7.5 0 -2.5
v 7.5 3 -2.5
v -7.5 0 -6.5
v -7.5 3 -6.5
v -6.5 0 -6.5
v -6.5 1 -6.5
v -6.5 3 -6.5
v 6.5 0 -6.5
v 6.5 1 -6.5
v 6.5 3 -6.5
v 7.5 0 -6.5
v 7.5 3 -6.5
v -7.5 0 -10.5
v -7.5 4 -10.5
v -6.5 1 -10.5
v -6.5 4 -10.5
v 6.5 1 -10.5
v 6.5 4 -10.5
v 7.5 0 -10.5
v 7.5 4 -10.5
v -7.5 0 10.5
v 7.5 0 10.5
v -7.5 0 9.5
v -6.5 0 9.5
v 6.5 0 9.5
v 7.5 0 9.5
v -6.5 0 8.5
v 6.5 0 8.5
v -6.5 0 7.5
v 6.5 0 7.5
v -7.5 0 6.5
v -6.5 0 6.5
v 6.5 0 6.5
v 7.5 0 6.5
v -7.5 0 5.5
v -6.5 0 5.5
v 6.5 0 5.5
v 7.5 0 5.5
v -6.5 0 4.5
v 6.5 0 4.5
v -6.5 0 3.5
v 6.5 0 3.5
v -7.5 0 2.5
v -6.5 0 2.5
v 6.5 0 2.5
v 7.5 0 2.5
v -7.5 0 1.5
v -6.5 0 1.5
v 6.5 0 1.5
v 7.5 0 1.5
v -6.5 0 0.5
v 6.5 0 0.5
v -6.5 0 -0.5
v 6.5 0 -0.5
v -7.5 0 -1.5
v -6.5 0 -1.5
v 6.5 0 -1.5
v 7.5 0 -1.5
v -7.5 0 -2.5
v -6.5 0 -2.5
v 6.5 0 -2.5
v 7.5 0 -2.5
v -6.5 0 -3.5
v 6.5 0 -3.5
v -6.5 0 -4.5
v 6.5 0 -4.5
v -7.5 0 -5.5
v -6.5 0 -5.5
v 6.5 0 -5.5
v 7.5 0 -5.5
v -7.5 0 -6.5
v -6.5 0 -6.5
v 6.5 0 -6.5
v 7.5 0 -6.5
v -6.5 0 -7.5
v 6.5 0 -7.5
v -6.5 0 -8.5
v 6.5 0 -8.5
v -7.5 0 -9.5
v -6.5 0 -9.5
v 6.5 0 -9.5
v 7.5 0 -9.5
v -7.5 0 -10.5
v 7.5 0 -10.5
v -7.5 3 9.5
v -6.5 3 9.5
v 6.5 3 9.5
v 7.5 3 9.5
v -7.5 3 6.5
v -6.5 3 6.5
v 6.5 3 6.5
v 7.5 3 6.5
v -7.5 3 5.5
v -6.5 3 5.5
v 6.5 3 5.5
v 7.5 3 5.5
v -7.5 3 2.5
v -6.5 3 2.5
v 6.5 3 2.5
v 7.5 3 2.5
v -7.5 3 1.5
v -6.5 3 1.5
v 6.5 3 1.5
v 7.5 3 1.5
v -7.5 3 -1.5
v -6.5 3 -1.5
v 6.5 3 -1.5
v 7.5 3 -1.5
v -7.5 3 -2.5
v -6.5 3 -2.5
v 6.5 3 -2.5
v 7.5 3 -2.5
v -7.5 3 -5.5
v -6.5 3 -5.5
v 6.5 3 -5.5
v 7.5 3 -5.5
v -7.5 3 -6.5
v -6.5 3 -6.5
v 6.5 3 -6.5
v 7.5 3 -6.5
v -7.5 3 -9.5
v -6.5 3 -9.5
v 6.5 3 -9.5
v 7.5 3 -9.5
v -6.5 1 10.5
v 6.5 1 10.5
v -6.5 1 9.5
v 6.5 1 9.5
v -6.5 1 8.5
v 6.5 1 8.5
v -6.5 1 7.5
v 6.5 1 7.5
v -6.5 1 6.5
v 6.5 1 6.5
v -6.5 1 5.5
v 6.5 1 5.5
v -6.5 1 4.5
v 6.5 1 4.5
v -6.5 1 3.5
v 6.5 1 3.5
v -6.5 1 2.5
v 6.5 1 2.5
v -6.5 1 1.5
v 6.5 1 1.5
v -6.5 1 0.5
v 6.5 1 0.5
v -6.5 1 -0.5
v 6.5 1 -0.5
v -6.5 1 -1.5
v 6.5 1 -1.5
v -6.5 1 -2.5
v 6.5 1 -2.5
v -6.5 1 -3.5
v 6.5 1 -3.5
v -6.5 1 -4.5
v 6.5 1 -4.5
v -6.5 1 -5.5
v 6.5 1 -5.5
v -6.5 1 -6.5
v 6.5 1 -6.5
v -6.5 1 -7.5
v 6.5 1 -7.5
v -6.5 1 -8.5
v 6.5 1 -8.5
v -6.5 1 -9.5
v 6.5 1 -9.5
v -6.5 1 -10.5
v 6.5 1 -10.5
v -7.5 4 10.5
v -6.5 4 10.5
v 6.5 4 10.5
v 7.5 4 10.5
v -7.5 4 -10.5
v -6.5 4 -10.5
v 6.5 4 -10.5
v 7.5 4 -10.5

# faces
f 13/2/1 2/2/1 1/2/1
f 14/2/1 4/2/1 3/2/1
f 15/2/1 4/2/1 14/2/1
f 16/2/1 6/2/1 5/2/1
f 17/2/1 6/2/1 16/2/1
f 18/2/1 8/2/1 7/2/1
f 19/2/1 8/2/1 18/2/1
f 20/2/1 10/2/1 9/2/1
f 21/2/1 10/2/1 20/2/1
f 22/2/1 12/2/1 11/2/1
f 23/2/1 21/2/1 20/2/1
f 23/2/1 22/2/1 21/2/1
f 23/2/1 13/2/1 1/2/1
f 23/2/1 15/2/1 14/2/1
f 23/2/1 20/2/1 19/2/1
f 23/2/1 17/2/1 16/2/1
f 23/2/1 18/2/1 17/2/1
f 23/2/1 19/2/1 18/2/1
f 23/2/1 16/2/1 15/2/1
f 23/2/1 14/2/1 13/2/1
f 24/2/1 12/2/1 22/2/1
f 24/2/1 22/2/1 23/2/1
f 45/1/1 26/1/1 25/1/1
f 46/2/1 27/2/1 26/2/1
f 46/1/1 26/1/1 45/1/1
f 47/1/1 28/1/1 27/1/1
f 47/2/1 27/2/1 46/2/1
f 48/1/1 28/1/1 47/1/1
f 49/1/1 30/1/1 29/1/1
f 50/2/1 31/2/1 30/2/1
f 50/1/1 30/1/1 49/1/1
f 51/1/1 32/1/1 31/1/1
f 51/2/1 31/2/1 50/2/1
f 52/1/1 32/1/1 51/1/1
f 53/1/1 34/1/1 33/1/1
f 54/2/1 35/2/1 34/2/1
f 54/1/1 34/1/1 53/1/1
f 55/1/1 36/1/1 35/1/1
f 55/2/1 35/2/1 54/2/1
f 56/1/1 36/1/1 55/1/1
f 57/1/1 38/1/1 37/1/1
f 58/2/1 39/2/1 38/2/1
f 58/1/1 38/1/1 57/1/1
f 59/1/1 40/1/1 39/1/1
f 59/2/1 39/2/1 58/2/1
f 60/1/1 40/1/1 59/1/1
f 61/1/1 42/1/1 41/1/1
f 62/2/1 43/2/1 42/2/1
f 62/1/1 42/1/1 61/1/1
f 63/1/1 44/1/1 43/1/1
f 63/2/1 43/2/1 62/2/1
f 64/1/1 44/1/1 63/1/1
f 77/2/1 66/2/1 65/2/1
f 78/2/1 68/2/1 67/2/1
f 79/2/1 68/2/1 78/2/1
f 80/2/1 70/2/1 69/2/1
f 81/2/1 70/2/1 80/2/1
f 82/2/1 72/2/1 71/2/1
f 83/2/1 72/2/1 82/2/1
f 84/2/1 74/2/1 73/2/1
f 85/2/1 74/2/1 84/2/1
f 86/2/1 76/2/1 75/2/1
f 87/2/1 85/2/1 84/2/1
f 87/2/1 86/2/1 85/2/1
f 87/2/1 77/2/1 65/2/1
f 87/2/1 79/2/1 78/2/1
f 87/2/1 84/2/1 83/2/1
f 87/2/1 81/2/1 80/2/1
f 87/2/1 82/2/1 81/2/1
f 87/2/1 83/2/1 82/2/1
f 87/2/1 80/2/1 79/2/1
f 87/2/1 78/2/1 77/2/1
f 88/2/1 76/2/1 86/2/1
f 88/2/1 86/2/1 87/2/1
f 89/2/2 90/2/2 101/2/2
f 91/2/2 92/2/2 102/2/2
f 102/2/2 92/2/2 103/2/2
f 93/2/2 94/2/2 104/2/2
f 104/2/2 94/2/2 105/2/2
f 95/2/2 96/2/2 106/2/2
f 106/2/2 96/2/2 107/2/2
f 97/2/2 98/2/2 108/2/2
f 108/2/2 98/2/2 109/2/2
f 99/2/2 100/2/2 110/2/2
f 108/2/2 109/2/2 111/2/2
f 109/2/2 110/2/2 111/2/2
f 89/2/2 101/2/2 111/2/2
f 102/2/2 103/2/2 111/2/2
f 107/2/2 108/2/2 111/2/2
f 104/2/2 105/2/2 111/2/2
f 105/2/2 106/2/2 111/2/2
f 106/2/2 107/2/2 111/2/2
f 103/2/2 104/2/2 111/2/2
f 101/2/2 102/2/2 111/2/2
f 110/2/2 100/2/2 112/2/2
f 111/2/2 110/2/2 112/2/2
f 113/1/2 114/1/2 133/1/2
f 114/2/2 115/2/2 134/2/2
f 133/1/2 114/1/2 134/1/2
f 115/1/2 116/1/2 135/1/2
f 134/2/2 115/2/2 135/2/2
f 135/1/2 116/1/2 136/1/2
f 117/1/2 118/1/2 137/1/2
f 118/2/2 119/2/2 138/2/2
f 137/1/2 118/1/2 138/1/2
f 119/1/2 120/1/2 139/1/2
f 138/2/2 119/2/2 139/2/2
f 139/1/2 120/1/2 140/1/2
f 121/1/2 122/1/2 141/1/2
f 122/2/2 123/2/2 142/2/2
f 141/1/2 122/1/2 142/1/2
f 123/1/2 124/1/2 143/1/2
f 142/2/2 123/2/2 143/2/2
f 143/1/2 124/1/2 144/1/2
f 125/1/2 126/1/2 145/1/2
f 126/2/2 127/2/2 146/2/2
f 145/1/2 126/1/2 146/1/2
f 127/1/2 128/1/2 147/1/2
f 146/2/2 127/2/2 147/2/2
f 147/1/2 128/1/2 148/1/2
f 129/1/2 130/1/2 149/1/2
f 130/2/2 131/2/2 150/2/2
f 149/1/2 130/1/2 150/1/2
f 131/1/2 132/1/2 151/1/2
f 150/2/2 131/2/2 151/2/2
f 151/1/2 132/1/2 152/1/2
f 153/2/2 154/2/2 165/2/2
f 155/2/2 156/2/2 166/2/2
f 166/2/2 156/2/2 167/2/2
f 157/2/2 158/2/2 168/2/2
f 168/2/2 158/2/2 169/2/2
f 159/2/2 160/2/2 170/2/2
f 170/2/2 160/2/2 171/2/2
f 161/2/2 162/2/2 172/2/2
f 172/2/2 162/2/2 173/2/2
f 163/2/2 164/2/2 174/2/2
f 172/2/2 173/2/2 175/2/2
f 173/2/2 174/2/2 175/2/2
f 153/2/2 165/2/2 175/2/2
f 166/2/2 167/2/2 175/2/2
f 171/2/2 172/2/2 175/2/2
f 168/2/2 169/2/2 175/2/2
f 169/2/2 170/2/2 175/2/2
f 170/2/2 171/2/2 175/2/2
f 167/2/2 168/2/2 175/2/2
f 165/2/2 166/2/2 175/2/2
f 174/2/2 164/2/2 176/2/2
f 175/2/2 174/2/2 176/2/2
f 179/2/3 178/2/3 177/2/3
f 180/2/3 178/2/3 179/2/3
f 181/2/3 179/2/3 177/2/3
f 183/2/3 181/2/3 177/2/3
f 183/2/3 182/2/3 181/2/3
f 184/2/3 182/2/3 183/2/3
f 187/2/3 186/2/3 185/2/3
f 188/2/3 186/2/3 187/2/3
f 189/2/3 186/2/3 188/2/3
f 193/2/3 191/2/3 190/2/3
f 193/2/3 192/2/3 191/2/3
f 194/2/3 192/2/3 193/2/3
f 197/2/3 196/2/3 195/2/3
f 198/2/3 196/2/3 197/2/3
f 199/2/3 196/2/3 198/2/3
f 203/2/3 201/2/3 200/2/3
f 203/2/3 202/2/3 201/2/3
f 204/2/3 202/2/3 203/2/3
f 207/2/3 206/2/3 205/2/3
f 208/2/3 206/2/3 207/2/3
f 209/2/3 206/2/3 208/2/3
f 213/2/3 211/2/3 210/2/3
f 213/2/3 212/2/3 211/2/3
f 214/2/3 212/2/3 213/2/3
f 217/2/3 216/2/3 215/2/3
f 218/2/3 216/2/3 217/2/3
f 219/2/3 216/2/3 218/2/3
f 223/2/3 221/2/3 220/2/3
f 223/2/3 222/2/3 221/2/3
f 224/2/3 222/2/3 223/2/3
f 227/2/3 226/2/3 225/2/3
f 228/2/3 226/2/3 227/2/3
f 229/2/3 226/2/3 228/2/3
f 233/2/3 231/2/3 230/2/3
f 233/2/3 232/2/3 231/2/3
f 234/2/3 232/2/3 233/2/3
f 235/2/4 236/2/4 237/2/4
f 237/2/4 236/2/4 238/2/4
f 238/2/4 236/2/4 239/2/4
f 240/2/4 241/2/4 243/2/4
f 241/2/4 242/2/4 243/2/4
f 243/2/4 242/2/4 244/2/4
f 245/2/4 246/2/4 247/2/4
f 247/2/4 246/2/4 248/2/4
f 248/2/4 246/2/4 249/2/4
f 250/2/4 251/2/4 253/2/4
f 251/2/4 252/2/4 253/2/4
f 253/2/4 252/2/4 254/2/4
f 255/2/4 256/2/4 257/2/4
f 257/2/4 256/2/4 258/2/4
f 258/2/4 256/2/4 259/2/4
f 260/2/4 261/2/4 263/2/4
f 261/2/4 262/2/4 263/2/4
f 263/2/4 262/2/4 264/2/4
f 265/2/4 266/2/4 267/2/4
f 267/2/4 266/2/4 268/2/4
f 268/2/4 266/2/4 269/2/4
f 270/2/4 271/2/4 273/2/4
f 271/2/4 272/2/4 273/2/4
f 273/2/4 272/2/4 274/2/4
f 275/2/4 276/2/4 277/2/4
f 277/2/4 276/2/4 278/2/4
f 278/2/4 276/2/4 279/2/4
f 280/2/4 281/2/4 283/2/4
f 281/2/4 282/2/4 283/2/4
f 283/2/4 282/2/4 284/2/4
f 285/2/4 286/2/4 287/2/4
f 287/2/4 286/2/4 288/2/4
f 285/2/4 287/2/4 289/2/4
f 285/2/4 289/2/4 291/2/4
f 289/2/4 290/2/4 291/2/4
f 291/2/4 290/2/4 292/2/4
f 295/2/5 294/2/5 293/2/5
f 296/2/5 294/2/5 295/2/5
f 297/2/5 294/2/5 296/2/5
f 298/2/5 294/2/5 297/2/5
f 299/1/5 297/1/5 296/1/5
f 300/1/5 297/1/5 299/1/5
f 301/2/5 300/2/5 299/2/5
f 302/2/5 300/2/5 301/2/5
f 304/1/5 302/1/5 301/1/5
f 305/1/5 302/1/5 304/1/5
f 307/2/5 305/2/5 304/2/5
f 307/2/5 306/2/5 305/2/5
f 307/2/5 304/2/5 303/2/5
f 308/2/5 306/2/5 307/2/5
f 309/2/5 306/2/5 308/2/5
f 310/2/5 306/2/5 309/2/5
f 311/1/5 309/1/5 308/1/5
f 312/1/5 309/1/5 311/1/5
f 313/2/5 312/2/5 311/2/5
f 314/2/5 312/2/5 313/2/5
f 316/1/5 314/1/5 313/1/5
f 317/1/5 314/1/5 316/1/5
f 319/2/5 317/2/5 316/2/5
f 319/2/5 318/2/5 317/2/5
f 319/2/5 316/2/5 315/2/5
f 320/2/5 318/2/5 319/2/5
f 321/2/5 318/2/5 320/2/5
f 322/2/5 318/2/5 321/2/5
f 323/1/5 321/1/5 320/1/5
f 324/1/5 321/1/5 323/1/5
f 325/2/5 324/2/5 323/2/5
f 326/2/5 324/2/5 325/2/5
f 328/1/5 326/1/5 325/1/5
f 329/1/5 326/1/5 328/1/5
f 331/2/5 329/2/5 328/2/5
f 331/2/5 330/2/5 329/2/5
f 331/2/5 328/2/5 327/2/5
f 332/2/5 330/2/5 331/2/5
f 333/2/5 330/2/5 332/2/5
f 334/2/5 330/2/5 333/2/5
f 335/1/5 333/1/5 332/1/5
f 336/1/5 333/1/5 335/1/5
f 337/2/5 336/2/5 335/2/5
f 338/2/5 336/2/5 337/2/5
f 340/1/5 338/1/5 337/1/5
f 341/1/5 338/1/5 340/1/5
f 343/2/5 341/2/5 340/2/5
f 343/2/5 342/2/5 341/2/5
f 343/2/5 340/2/5 339/2/5
f 344/2/5 342/2/5 343/2/5
f 345/2/5 342/2/5 344/2/5
f 346/2/5 342/2/5 345/2/5
f 347/1/5 345/1/5 344/1/5
f 348/1/5 345/1/5 347/1/5
f 349/2/5 348/2/5 347/2/5
f 350/2/5 348/2/5 349/2/5
f 352/1/5 350/1/5 349/1/5
f 353/1/5 350/1/5 352/1/5
f 355/2/5 353/2/5 352/2/5
f 355/2/5 354/2/5 353/2/5
f 355/2/5 352/2/5 351/2/5
f 356/2/5 354/2/5 355/2/5
f 361/2/5 358/2/5 357/2/5
f 362/2/5 358/2/5 361/2/5
f 363/2/5 360/2/5 359/2/5
f 364/2/5 360/2/5 363/2/5
f 369/2/5 366/2/5 365/2/5
f 370/2/5 366/2/5 369/2/5
f 371/2/5 368/2/5 367/2/5
f 372/2/5 368/2/5 371/2/5
f 377/2/5 374/2/5 373/2/5
f 378/2/5 374/2/5 377/2/5
f 379/2/5 376/2/5 375/2/5
f 380/2/5 376/2/5 379/2/5
f 385/2/5 382/2/5 381/2/5
f 386/2/5 382/2/5 385/2/5
f 387/2/5 384/2/5 383/2/5
f 388/2/5 384/2/5 387/2/5
f 393/2/5 390/2/5 389/2/5
f 394/2/5 390/2/5 393/2/5
f 395/2/5 392/2/5 391/2/5
f 396/2/5 392/2/5 395/2/5
f 397/2/6 398/2/6 399/2/6
f 399/2/6 398/2/6 400/2/6
f 399/1/6 400/1/6 401/1/6
f 401/1/6 400/1/6 402/1/6
f 401/2/6 402/2/6 403/2/6
f 403/2/6 402/2/6 404/2/6
f 403/1/6 404/1/6 405/1/6
f 405/1/6 404/1/6 406/1/6
f 405/2/6 406/2/6 407/2/6
f 407/2/6 406/2/6 408/2/6
f 407/1/6 408/1/6 409/1/6
f 409/1/6 408/1/6 410/1/6
f 409/2/6 410/2/6 411/2/6
f 411/2/6 410/2/6 412/2/6
f 411/1/6 412/1/6 413/1/6
f 413/1/6 412/1/6 414/1/6
f 413/2/6 414/2/6 415/2/6
f 415/2/6 414/2/6 416/2/6
f 415/1/6 416/1/6 417/1/6
f 417/1/6 416/1/6 418/1/6
f 417/2/6 418/2/6 419/2/6
f 419/2/6 418/2/6 420/2/6
f 419/1/6 420/1/6 421/1/6
f 421/1/6 420/1/6 422/1/6
f 421/2/6 422/2/6 423/2/6
f 423/2/6 422/2/6 424/2/6
f 423/1/6 424/1/6 425/1/6
f 425/1/6 424/1/6 426/1/6
f 425/2/6 426/2/6 427/2/6
f 427/2/6 426/2/6 428/2/6
f 427/1/6 428/1/6 429/1/6
f 429/1/6 428/1/6 430/1/6
f 429/2/6 430/2/6 431/2/6
f 431/2/6 430/2/6 432/2/6
f 431/1/6 432/1/6 433/1/6
f 433/1/6 432/1/6 434/1/6
f 433/2/6 434/2/6 435/2/6
f 435/2/6 434/2/6 436/2/6
f 435/1/6 436/1/6 437/1/6
f 437/1/6 436/1/6 438/1/6
f 437/2/6 438/2/6 439/2/6
f 439/2/6 438/2/6 440/2/6
f 441/2/6 442/2/6 445/2/6
f 445/2/6 442/2/6 446/2/6
f 443/2/6 444/2/6 447/2/6
f 447/2/6 444/2/6 448/2/6
