# MagicaVoxel @ Ephtracy

# material
mtllib Building03.mtl
usemtl palette

# normals
vn -1 0 0
vn 1 0 0
vn 0 0 1
vn 0 0 -1
vn 0 -1 0
vn 0 1 0

# texcoords
vt 0.787109 0.5
vt 0.814453 0.5
vt 0.849609 0.5
vt 0.908203 0.5
vt 0.939453 0.5
vt 0.943359 0.5
vt 0.947266 0.5
vt 0.951172 0.5
vt 0.970703 0.5
vt 0.974609 0.5

# verts
v -15 0 4
v -15 0 -14
v -15 5 3
v -15 5 -13
v -15 18 3
v -15 18 -13
v -15 19 4
v -15 19 -14
v -14 0 5
v -14 0 4
v -14 0 -14
v -14 0 -15
v -14 5 3
v -14 5 -13
v -14 18 3
v -14 18 -13
v -14 19 5
v -14 19 4
v -14 19 -14
v -14 19 -15
v -14 20 4
v -14 20 -14
v -9 0 14
v -9 0 6
v -9 1 13
v -9 1 7
v -9 18 13
v -9 18 7
v -9 19 14
v -9 19 6
v -8 0 15
v -8 0 14
v -8 0 6
v -8 0 4
v -8 1 13
v -8 1 7
v -8 18 13
v -8 18 7
v -8 19 15
v -8 19 14
v -8 19 6
v -8 20 14
v -8 20 4
v -3 0 -14
v -3 0 -15
v -3 16 -14
v -3 16 -15
v -1 0 15
v -1 0 14
v -1 14 15
v -1 14 14
v 7 0 15
v 7 0 14
v 7 14 15
v 7 14 14
v 7 15 15
v 7 15 14
v 7 18 15
v 7 18 14
v 9 0 5
v 9 0 4
v 9 19 5
v 9 19 4
v 13 7 -14
v 13 7 -15
v 13 16 -14
v 13 16 -15
v 13 17 -14
v 13 17 -15
v 13 18 -14
v 13 18 -15
v 13 19 3
v 13 19 -13
v 13 20 3
v 13 20 -13
v -13 17 -14
v -13 17 -15
v -13 18 -14
v -13 18 -15
v -13 19 -9
v -13 19 -13
v -13 20 -9
v -13 20 -13
v -12 0 -14
v -12 0 -15
v -12 16 -14
v -12 16 -15
v -9 0 5
v -9 0 4
v -9 19 5
v -9 19 4
v -7 0 15
v -7 0 14
v -7 14 15
v -7 14 14
v -7 15 15
v -7 15 14
v -7 18 15
v -7 18 14
v -3 19 3
v -3 19 -5
v -3 19 -9
v -3 20 3
v -3 20 -5
v -3 20 -9
v -1 7 -14
v -1 7 -15
v -1 16 -14
v -1 16 -15
v 1 0 15
v 1 0 14
v 1 14 15
v 1 14 14
v 8 0 15
v 8 0 14
v 8 0 6
v 8 0 4
v 8 1 13
v 8 1 7
v 8 18 13
v 8 18 7
v 8 19 15
v 8 19 14
v 8 19 6
v 8 20 14
v 8 20 4
v 9 0 14
v 9 0 6
v 9 1 13
v 9 1 7
v 9 18 13
v 9 18 7
v 9 19 14
v 9 19 6
v 14 0 5
v 14 0 4
v 14 0 -14
v 14 0 -15
v 14 5 3
v 14 5 -13
v 14 18 3
v 14 18 -13
v 14 19 5
v 14 19 4
v 14 19 -14
v 14 19 -15
v 14 20 4
v 14 20 -14
v 15 0 4
v 15 0 -14
v 15 5 3
v 15 5 -13
v 15 18 3
v 15 18 -13
v 15 19 4
v 15 19 -14
v -8 0 15
v -8 19 15
v -7 0 15
v -7 14 15
v -7 15 15
v -7 18 15
v -1 0 15
v -1 14 15
v 1 0 15
v 1 14 15
v 7 0 15
v 7 14 15
v 7 15 15
v 7 18 15
v 8 0 15
v 8 19 15
v -9 0 14
v -9 19 14
v -8 0 14
v -8 19 14
v -8 20 14
v -7 0 14
v -7 14 14
v -7 15 14
v -7 18 14
v -1 0 14
v -1 14 14
v 1 0 14
v 1 14 14
v 7 0 14
v 7 14 14
v 7 15 14
v 7 18 14
v 8 0 14
v 8 19 14
v 8 20 14
v 9 0 14
v 9 19 14
v -9 1 7
v -9 18 7
v -8 1 7
v -8 18 7
v 8 1 7
v 8 18 7
v 9 1 7
v 9 18 7
v -14 0 5
v -14 19 5
v -9 0 5
v -9 19 5
v 9 0 5
v 9 19 5
v 14 0 5
v 14 19 5
v -15 0 4
v -15 19 4
v -14 0 4
v -14 19 4
v -14 20 4
v -9 0 4
v -9 19 4
v -8 0 4
v -8 20 4
v 8 0 4
v 8 20 4
v 9 0 4
v 9 19 4
v 14 0 4
v 14 19 4
v 14 20 4
v 15 0 4
v 15 19 4
v -15 5 -13
v -15 18 -13
v -14 5 -13
v -14 18 -13
v -13 19 -13
v -13 20 -13
v 13 19 -13
v 13 20 -13
v 14 5 -13
v 14 18 -13
v 15 5 -13
v 15 18 -13
v -9 1 13
v -9 18 13
v -8 1 13
v -8 18 13
v 8 1 13
v 8 18 13
v 9 1 13
v 9 18 13
v -9 0 6
v -9 19 6
v -8 0 6
v -8 19 6
v 8 0 6
v 8 19 6
v 9 0 6
v 9 19 6
v -15 5 3
v -15 18 3
v -14 5 3
v -14 18 3
v -3 19 3
v -3 20 3
v 7 19 3
v 7 20 3
v 13 19 3
v 13 20 3
v 14 5 3
v 14 18 3
v 15 5 3
v 15 18 3
v -13 19 -9
v -13 20 -9
v -3 19 -9
v -3 20 -9
v -15 0 -14
v -15 19 -14
v -14 0 -14
v -14 19 -14
v -14 20 -14
v -13 17 -14
v -13 18 -14
v -12 0 -14
v -12 16 -14
v -3 0 -14
v -3 16 -14
v -1 7 -14
v -1 16 -14
v 13 7 -14
v 13 16 -14
v 13 17 -14
v 13 18 -14
v 14 0 -14
v 14 19 -14
v 14 20 -14
v 15 0 -14
v 15 19 -14
v -14 0 -15
v -14 19 -15
v -13 17 -15
v -13 18 -15
v -12 0 -15
v -12 16 -15
v -3 0 -15
v -3 16 -15
v -1 7 -15
v -1 16 -15
v 13 7 -15
v 13 16 -15
v 13 17 -15
v 13 18 -15
v 14 0 -15
v 14 19 -15
v -8 0 15
v -7 0 15
v -1 0 15
v 1 0 15
v 7 0 15
v 8 0 15
v -9 0 14
v -8 0 14
v -7 0 14
v -1 0 14
v 1 0 14
v 7 0 14
v 8 0 14
v 9 0 14
v -7 0 13
v -1 0 13
v 1 0 13
v 7 0 13
v -9 0 6
v -8 0 6
v 8 0 6
v 9 0 6
v -14 0 5
v -9 0 5
v 9 0 5
v 14 0 5
v -15 0 4
v -14 0 4
v -9 0 4
v -8 0 4
v 8 0 4
v 9 0 4
v 14 0 4
v 15 0 4
v -12 0 -13
v -3 0 -13
v -15 0 -14
v -14 0 -14
v -12 0 -14
v -3 0 -14
v 14 0 -14
v 15 0 -14
v -14 0 -15
v -12 0 -15
v -3 0 -15
v 14 0 -15
v -7 14 15
v -1 14 15
v 1 14 15
v 7 14 15
v -7 14 14
v -1 14 14
v 1 14 14
v 7 14 14
v -12 16 -14
v -3 16 -14
v -1 16 -14
v 13 16 -14
v -12 16 -15
v -3 16 -15
v -1 16 -15
v 13 16 -15
v -7 18 15
v 7 18 15
v -7 18 14
v 7 18 14
v -9 18 13
v -8 18 13
v 8 18 13
v 9 18 13
v -9 18 7
v -8 18 7
v 8 18 7
v 9 18 7
v -15 18 3
v -14 18 3
v 14 18 3
v 15 18 3
v -15 18 -13
v -14 18 -13
v 14 18 -13
v 15 18 -13
v -13 18 -14
v 13 18 -14
v -13 18 -15
v 13 18 -15
v -9 1 13
v -8 1 13
v 8 1 13
v 9 1 13
v -9 1 7
v -8 1 7
v 8 1 7
v 9 1 7
v -15 5 3
v -14 5 3
v 14 5 3
v 15 5 3
v -15 5 -13
v -14 5 -13
v 14 5 -13
v 15 5 -13
v -1 7 -14
v 13 7 -14
v -1 7 -15
v 13 7 -15
v -7 15 15
v 7 15 15
v -7 15 14
v 7 15 14
v -13 17 -14
v 13 17 -14
v -13 17 -15
v 13 17 -15
v -8 19 15
v 8 19 15
v -9 19 14
v -8 19 14
v 8 19 14
v 9 19 14
v -9 19 6
v -8 19 6
v 8 19 6
v 9 19 6
v -14 19 5
v -9 19 5
v 9 19 5
v 14 19 5
v -15 19 4
v -14 19 4
v -9 19 4
v 9 19 4
v 14 19 4
v 15 19 4
v -3 19 3
v 7 19 3
v 13 19 3
v -3 19 -5
v -13 19 -9
v -3 19 -9
v -13 19 -13
v 13 19 -13
v -15 19 -14
v -14 19 -14
v 14 19 -14
v 15 19 -14
v -14 19 -15
v 14 19 -15
v -8 20 14
v 8 20 14
v -7 20 13
v -3 20 13
v 7 20 13
v -14 20 4
v -8 20 4
v 8 20 4
v 14 20 4
v -13 20 3
v -7 20 3
v -3 20 3
v 7 20 3
v 13 20 3
v -13 20 -5
v -3 20 -5
v -13 20 -9
v -3 20 -9
v -13 20 -13
v 13 20 -13
v -14 20 -14
v 14 20 -14

# faces
f 3/10/1 2/10/1 1/10/1
f 4/10/1 2/10/1 3/10/1
f 5/10/1 3/10/1 1/10/1
f 6/10/1 2/10/1 4/10/1
f 7/10/1 5/10/1 1/10/1
f 7/10/1 6/10/1 5/10/1
f 8/10/1 2/10/1 6/10/1
f 8/10/1 6/10/1 7/10/1
f 15/3/1 14/3/1 13/3/1
f 16/3/1 14/3/1 15/3/1
f 17/9/1 10/9/1 9/9/1
f 18/9/1 10/9/1 17/9/1
f 19/10/1 12/10/1 11/10/1
f 20/10/1 12/10/1 19/10/1
f 21/10/1 19/10/1 18/10/1
f 22/10/1 19/10/1 21/10/1
f 25/10/1 24/10/1 23/10/1
f 26/10/1 24/10/1 25/10/1
f 27/10/1 25/10/1 23/10/1
f 28/10/1 24/10/1 26/10/1
f 29/10/1 27/10/1 23/10/1
f 29/10/1 28/10/1 27/10/1
f 30/10/1 24/10/1 28/10/1
f 30/10/1 28/10/1 29/10/1
f 37/3/1 36/3/1 35/3/1
f 38/3/1 36/3/1 37/3/1
f 39/10/1 32/10/1 31/10/1
f 40/10/1 32/10/1 39/10/1
f 41/10/1 34/10/1 33/10/1
f 42/10/1 41/10/1 40/10/1
f 43/10/1 34/10/1 41/10/1
f 43/10/1 41/10/1 42/10/1
f 46/10/1 45/10/1 44/10/1
f 47/10/1 45/10/1 46/10/1
f 50/10/1 49/10/1 48/10/1
f 51/10/1 49/10/1 50/10/1
f 54/10/1 53/10/1 52/10/1
f 55/10/1 53/10/1 54/10/1
f 58/10/1 57/10/1 56/10/1
f 59/10/1 57/10/1 58/10/1
f 62/9/1 61/9/1 60/9/1
f 63/9/1 61/9/1 62/9/1
f 66/10/1 65/10/1 64/10/1
f 67/10/1 65/10/1 66/10/1
f 70/10/1 69/10/1 68/10/1
f 71/10/1 69/10/1 70/10/1
f 74/10/1 73/10/1 72/10/1
f 75/10/1 73/10/1 74/10/1
f 76/10/2 77/10/2 78/10/2
f 78/10/2 77/10/2 79/10/2
f 80/10/2 81/10/2 82/10/2
f 82/10/2 81/10/2 83/10/2
f 84/10/2 85/10/2 86/10/2
f 86/10/2 85/10/2 87/10/2
f 88/9/2 89/9/2 90/9/2
f 90/9/2 89/9/2 91/9/2
f 92/10/2 93/10/2 94/10/2
f 94/10/2 93/10/2 95/10/2
f 96/10/2 97/10/2 98/10/2
f 98/10/2 97/10/2 99/10/2
f 100/8/2 101/8/2 103/8/2
f 101/5/2 102/5/2 104/5/2
f 103/8/2 101/8/2 104/8/2
f 104/5/2 102/5/2 105/5/2
f 106/10/2 107/10/2 108/10/2
f 108/10/2 107/10/2 109/10/2
f 110/10/2 111/10/2 112/10/2
f 112/10/2 111/10/2 113/10/2
f 118/3/2 119/3/2 120/3/2
f 120/3/2 119/3/2 121/3/2
f 114/10/2 115/10/2 122/10/2
f 122/10/2 115/10/2 123/10/2
f 116/10/2 117/10/2 124/10/2
f 123/10/2 124/10/2 125/10/2
f 124/10/2 117/10/2 126/10/2
f 125/10/2 124/10/2 126/10/2
f 127/10/2 128/10/2 129/10/2
f 129/10/2 128/10/2 130/10/2
f 127/10/2 129/10/2 131/10/2
f 130/10/2 128/10/2 132/10/2
f 127/10/2 131/10/2 133/10/2
f 131/10/2 132/10/2 133/10/2
f 132/10/2 128/10/2 134/10/2
f 133/10/2 132/10/2 134/10/2
f 139/3/2 140/3/2 141/3/2
f 141/3/2 140/3/2 142/3/2
f 135/9/2 136/9/2 143/9/2
f 143/9/2 136/9/2 144/9/2
f 137/10/2 138/10/2 145/10/2
f 145/10/2 138/10/2 146/10/2
f 144/10/2 145/10/2 147/10/2
f 147/10/2 145/10/2 148/10/2
f 149/10/2 150/10/2 151/10/2
f 151/10/2 150/10/2 152/10/2
f 149/10/2 151/10/2 153/10/2
f 152/10/2 150/10/2 154/10/2
f 149/10/2 153/10/2 155/10/2
f 153/10/2 154/10/2 155/10/2
f 154/10/2 150/10/2 156/10/2
f 155/10/2 154/10/2 156/10/2
f 159/10/3 158/10/3 157/10/3
f 160/10/3 158/10/3 159/10/3
f 161/10/3 158/10/3 160/10/3
f 162/10/3 158/10/3 161/10/3
f 164/10/3 161/10/3 160/10/3
f 165/10/3 164/10/3 163/10/3
f 166/10/3 161/10/3 164/10/3
f 166/10/3 164/10/3 165/10/3
f 168/10/3 161/10/3 166/10/3
f 169/10/3 161/10/3 168/10/3
f 170/10/3 158/10/3 162/10/3
f 171/10/3 169/10/3 168/10/3
f 171/10/3 170/10/3 169/10/3
f 171/10/3 168/10/3 167/10/3
f 172/10/3 158/10/3 170/10/3
f 172/10/3 170/10/3 171/10/3
f 175/10/3 174/10/3 173/10/3
f 176/10/3 174/10/3 175/10/3
f 182/3/3 179/3/3 178/3/3
f 183/3/3 179/3/3 182/3/3
f 186/3/3 185/3/3 184/3/3
f 187/3/3 185/3/3 186/3/3
f 188/2/3 181/2/3 180/2/3
f 189/2/3 181/2/3 188/2/3
f 191/10/3 177/10/3 176/10/3
f 192/10/3 177/10/3 191/10/3
f 193/10/3 191/10/3 190/10/3
f 194/10/3 191/10/3 193/10/3
f 197/10/3 196/10/3 195/10/3
f 198/10/3 196/10/3 197/10/3
f 201/10/3 200/10/3 199/10/3
f 202/10/3 200/10/3 201/10/3
f 205/9/3 204/9/3 203/9/3
f 206/9/3 204/9/3 205/9/3
f 209/9/3 208/9/3 207/9/3
f 210/9/3 208/9/3 209/9/3
f 213/10/3 212/10/3 211/10/3
f 214/10/3 212/10/3 213/10/3
f 217/10/3 215/10/3 214/10/3
f 218/10/3 217/10/3 216/10/3
f 219/10/3 215/10/3 217/10/3
f 219/10/3 217/10/3 218/10/3
f 222/10/3 221/10/3 220/10/3
f 223/10/3 221/10/3 222/10/3
f 225/10/3 221/10/3 223/10/3
f 226/10/3 221/10/3 225/10/3
f 227/10/3 225/10/3 224/10/3
f 228/10/3 225/10/3 227/10/3
f 231/10/3 230/10/3 229/10/3
f 232/10/3 230/10/3 231/10/3
f 235/10/3 234/10/3 233/10/3
f 236/10/3 234/10/3 235/10/3
f 239/10/3 238/10/3 237/10/3
f 240/10/3 238/10/3 239/10/3
f 241/10/4 242/10/4 243/10/4
f 243/10/4 242/10/4 244/10/4
f 245/10/4 246/10/4 247/10/4
f 247/10/4 246/10/4 248/10/4
f 249/10/4 250/10/4 251/10/4
f 251/10/4 250/10/4 252/10/4
f 253/10/4 254/10/4 255/10/4
f 255/10/4 254/10/4 256/10/4
f 257/10/4 258/10/4 259/10/4
f 259/10/4 258/10/4 260/10/4
f 261/6/4 262/6/4 263/6/4
f 263/6/4 262/6/4 264/6/4
f 263/10/4 264/10/4 265/10/4
f 265/10/4 264/10/4 266/10/4
f 267/10/4 268/10/4 269/10/4
f 269/10/4 268/10/4 270/10/4
f 271/5/4 272/5/4 273/5/4
f 273/5/4 272/5/4 274/5/4
f 275/10/4 276/10/4 277/10/4
f 277/10/4 276/10/4 278/10/4
f 282/3/4 283/3/4 284/3/4
f 284/3/4 283/3/4 285/3/4
f 286/1/4 287/1/4 288/1/4
f 288/1/4 287/1/4 289/1/4
f 280/4/4 281/4/4 290/4/4
f 290/4/4 281/4/4 291/4/4
f 278/10/4 279/10/4 293/10/4
f 293/10/4 279/10/4 294/10/4
f 292/10/4 293/10/4 295/10/4
f 295/10/4 293/10/4 296/10/4
f 297/10/4 298/10/4 299/10/4
f 299/10/4 298/10/4 300/10/4
f 297/10/4 299/10/4 301/10/4
f 301/10/4 299/10/4 302/10/4
f 302/10/4 299/10/4 304/10/4
f 303/10/4 304/10/4 305/10/4
f 304/10/4 299/10/4 306/10/4
f 305/10/4 304/10/4 306/10/4
f 303/10/4 305/10/4 307/10/4
f 306/10/4 299/10/4 308/10/4
f 308/10/4 299/10/4 309/10/4
f 300/10/4 298/10/4 310/10/4
f 308/10/4 309/10/4 311/10/4
f 309/10/4 310/10/4 311/10/4
f 303/10/4 307/10/4 311/10/4
f 307/10/4 308/10/4 311/10/4
f 310/10/4 298/10/4 312/10/4
f 311/10/4 310/10/4 312/10/4
f 320/10/5 314/10/5 313/10/5
f 321/10/5 314/10/5 320/10/5
f 322/10/5 316/10/5 315/10/5
f 323/10/5 316/10/5 322/10/5
f 324/10/5 318/10/5 317/10/5
f 325/10/5 318/10/5 324/10/5
f 327/10/5 321/10/5 320/10/5
f 327/10/5 320/10/5 319/10/5
f 327/3/5 322/3/5 321/3/5
f 328/10/5 323/10/5 322/10/5
f 328/3/5 322/3/5 327/3/5
f 329/3/5 324/3/5 323/3/5
f 329/10/5 323/10/5 328/10/5
f 330/10/5 326/10/5 325/10/5
f 330/3/5 324/3/5 329/3/5
f 330/10/5 325/10/5 324/10/5
f 331/10/5 327/10/5 319/10/5
f 331/10/5 329/10/5 328/10/5
f 331/10/5 330/10/5 329/10/5
f 331/10/5 328/10/5 327/10/5
f 332/10/5 330/10/5 331/10/5
f 333/10/5 326/10/5 330/10/5
f 333/10/5 330/10/5 332/10/5
f 334/10/5 326/10/5 333/10/5
f 340/9/5 336/9/5 335/9/5
f 341/9/5 336/9/5 340/9/5
f 342/10/5 333/10/5 332/10/5
f 343/10/5 333/10/5 342/10/5
f 344/9/5 338/9/5 337/9/5
f 345/9/5 338/9/5 344/9/5
f 347/10/5 343/10/5 342/10/5
f 347/10/5 346/10/5 345/10/5
f 347/10/5 345/10/5 344/10/5
f 347/10/5 344/10/5 343/10/5
f 347/10/5 341/10/5 340/10/5
f 347/10/5 342/10/5 341/10/5
f 347/10/5 340/10/5 339/10/5
f 348/10/5 346/10/5 347/10/5
f 349/10/5 347/10/5 339/10/5
f 350/10/5 347/10/5 349/10/5
f 351/3/5 348/3/5 347/3/5
f 351/10/5 347/10/5 350/10/5
f 352/10/5 346/10/5 348/10/5
f 352/3/5 348/3/5 351/3/5
f 353/10/5 346/10/5 352/10/5
f 354/10/5 346/10/5 353/10/5
f 355/10/5 351/10/5 350/10/5
f 356/10/5 351/10/5 355/10/5
f 357/10/5 353/10/5 352/10/5
f 358/10/5 353/10/5 357/10/5
f 363/10/5 360/10/5 359/10/5
f 364/10/5 360/10/5 363/10/5
f 365/10/5 362/10/5 361/10/5
f 366/10/5 362/10/5 365/10/5
f 371/10/5 368/10/5 367/10/5
f 372/10/5 368/10/5 371/10/5
f 373/10/5 370/10/5 369/10/5
f 374/10/5 370/10/5 373/10/5
f 377/10/5 376/10/5 375/10/5
f 378/10/5 376/10/5 377/10/5
f 383/10/5 380/10/5 379/10/5
f 384/10/5 380/10/5 383/10/5
f 385/10/5 382/10/5 381/10/5
f 386/10/5 382/10/5 385/10/5
f 391/10/5 388/10/5 387/10/5
f 392/10/5 388/10/5 391/10/5
f 393/10/5 390/10/5 389/10/5
f 394/10/5 390/10/5 393/10/5
f 397/10/5 396/10/5 395/10/5
f 398/10/5 396/10/5 397/10/5
f 399/10/6 400/10/6 403/10/6
f 403/10/6 400/10/6 404/10/6
f 401/10/6 402/10/6 405/10/6
f 405/10/6 402/10/6 406/10/6
f 407/10/6 408/10/6 411/10/6
f 411/10/6 408/10/6 412/10/6
f 409/10/6 410/10/6 413/10/6
f 413/10/6 410/10/6 414/10/6
f 415/10/6 416/10/6 417/10/6
f 417/10/6 416/10/6 418/10/6
f 419/10/6 420/10/6 421/10/6
f 421/10/6 420/10/6 422/10/6
f 423/10/6 424/10/6 425/10/6
f 425/10/6 424/10/6 426/10/6
f 427/10/6 428/10/6 430/10/6
f 430/10/6 428/10/6 431/10/6
f 429/10/6 430/10/6 433/10/6
f 433/10/6 430/10/6 434/10/6
f 431/10/6 432/10/6 435/10/6
f 435/10/6 432/10/6 436/10/6
f 437/9/6 438/9/6 442/9/6
f 442/9/6 438/9/6 443/9/6
f 439/9/6 440/9/6 444/9/6
f 444/9/6 440/9/6 445/9/6
f 447/10/6 448/10/6 450/10/6
f 448/10/6 449/10/6 450/10/6
f 450/10/6 449/10/6 452/10/6
f 451/10/6 452/10/6 453/10/6
f 452/10/6 449/10/6 454/10/6
f 453/10/6 452/10/6 454/10/6
f 441/10/6 442/10/6 455/10/6
f 455/10/6 442/10/6 456/10/6
f 445/10/6 446/10/6 457/10/6
f 457/10/6 446/10/6 458/10/6
f 456/10/6 457/10/6 459/10/6
f 459/10/6 457/10/6 460/10/6
f 461/10/6 462/10/6 463/10/6
f 463/10/6 462/10/6 464/10/6
f 464/10/6 462/10/6 465/10/6
f 461/10/6 463/10/6 467/10/6
f 465/10/6 462/10/6 468/10/6
f 466/10/6 467/10/6 470/10/6
f 463/7/6 464/7/6 471/7/6
f 470/10/6 467/10/6 471/10/6
f 467/10/6 463/10/6 471/10/6
f 464/6/6 465/6/6 472/6/6
f 471/7/6 464/7/6 472/7/6
f 468/10/6 469/10/6 473/10/6
f 472/6/6 465/6/6 473/6/6
f 465/10/6 468/10/6 473/10/6
f 473/10/6 469/10/6 474/10/6
f 471/8/6 472/8/6 475/8/6
f 466/10/6 470/10/6 475/10/6
f 470/8/6 471/8/6 475/8/6
f 475/8/6 472/8/6 476/8/6
f 466/10/6 475/10/6 477/10/6
f 475/5/6 476/5/6 477/5/6
f 477/5/6 476/5/6 478/5/6
f 466/10/6 477/10/6 479/10/6
f 474/10/6 469/10/6 480/10/6
f 466/10/6 479/10/6 481/10/6
f 479/10/6 480/10/6 481/10/6
f 480/10/6 469/10/6 482/10/6
f 481/10/6 480/10/6 482/10/6
