# MagicaVoxel @ Ephtracy

# material
mtllib Building05.mtl
usemtl palette

# normals
vn -1 0 0
vn 1 0 0
vn 0 0 1
vn 0 0 -1
vn 0 -1 0
vn 0 1 0

# texcoords
vt 0.787109 0.5
vt 0.791016 0.5
vt 0.794922 0.5
vt 0.798828 0.5
vt 0.845703 0.5
vt 0.849609 0.5
vt 0.888672 0.5
vt 0.970703 0.5
vt 0.982422 0.5

# verts
v -4.5 0 10
v -4.5 0 -10
v -4.5 1 10
v -4.5 1 8
v -4.5 1 2
v -4.5 1 1
v -4.5 2 7
v -4.5 2 3
v -4.5 2 2
v -4.5 2 1
v -4.5 2 -3
v -4.5 2 -5
v -4.5 2 -9
v -4.5 7 7
v -4.5 7 3
v -4.5 7 1
v -4.5 7 -3
v -4.5 7 -4
v -4.5 7 -5
v -4.5 7 -9
v -4.5 8 -4
v -4.5 8 -5
v -4.5 9 8
v -4.5 9 -4
v -4.5 9 -8
v -4.5 9 -10
v -4.5 10 -4
v -4.5 10 -5
v -4.5 10 -7
v -4.5 10 -8
v -4.5 11 -5
v -4.5 11 -7
v -3.5 1 9
v -3.5 1 8
v -3.5 2 9
v -3.5 2 8
v -3.5 2 7
v -3.5 2 3
v -3.5 2 1
v -3.5 2 -3
v -3.5 2 -5
v -3.5 2 -9
v -3.5 7 7
v -3.5 7 3
v -3.5 7 1
v -3.5 7 -3
v -3.5 7 -5
v -3.5 7 -9
v -3.5 9 -3
v -3.5 9 -4
v -3.5 9 -8
v -3.5 9 -9
v -3.5 10 -4
v -3.5 10 -5
v -3.5 10 -7
v -3.5 10 -8
v -3.5 11 -3
v -3.5 11 -4
v -3.5 11 -5
v -3.5 11 -7
v -3.5 11 -8
v -3.5 11 -9
v -3.5 12 -4
v -3.5 12 -8
v -2.5 9 -2
v -2.5 9 -3
v -2.5 9 -9
v -2.5 9 -10
v -2.5 10 -2
v -2.5 10 -3
v -2.5 10 -9
v -2.5 10 -10
v -2.5 11 -3
v -2.5 11 -4
v -2.5 11 -8
v -2.5 11 -9
v -2.5 12 -3
v -2.5 12 -4
v -2.5 12 -5
v -2.5 12 -7
v -2.5 12 -8
v -2.5 12 -9
v -2.5 13 -5
v -2.5 13 -7
v -1.5 10 -2
v -1.5 10 -3
v -1.5 10 -9
v -1.5 10 -10
v -1.5 11 -2
v -1.5 11 -3
v -1.5 11 -9
v -1.5 11 -10
v -1.5 12 -4
v -1.5 12 -5
v -1.5 12 -7
v -1.5 12 -8
v -1.5 13 7
v -1.5 13 6
v -1.5 13 -4
v -1.5 13 -5
v -1.5 13 -7
v -1.5 13 -8
v -1.5 14 7
v -1.5 14 6
v -0.5 9 7
v -0.5 9 6
v -0.5 13 7
v -0.5 13 6
v -0.5 14 7
v -0.5 14 6
v -0.5 16 7
v -0.5 16 6
v 0.5 1 -9
v 0.5 1 -10
v 0.5 5 -9
v 0.5 5 -10
v 0.5 6 -9
v 0.5 6 -10
v 0.5 8 -9
v 0.5 8 -10
v 1.5 5 -9
v 1.5 5 -10
v 1.5 6 -9
v 1.5 6 -10
v 2.5 2 8
v 2.5 2 7
v 2.5 8 8
v 2.5 8 7
v -2.5 2 8
v -2.5 2 7
v -2.5 8 8
v -2.5 8 7
v -1.5 5 -9
v -1.5 5 -10
v -1.5 6 -9
v -1.5 6 -10
v -0.5 1 -9
v -0.5 1 -10
v -0.5 5 -9
v -0.5 5 -10
v -0.5 6 -9
v -0.5 6 -10
v -0.5 8 -9
v -0.5 8 -10
v 0.5 9 7
v 0.5 9 6
v 0.5 13 7
v 0.5 13 6
v 0.5 14 7
v 0.5 14 6
v 0.5 16 7
v 0.5 16 6
v 1.5 10 -2
v 1.5 10 -3
v 1.5 10 -9
v 1.5 10 -10
v 1.5 11 -2
v 1.5 11 -3
v 1.5 11 -9
v 1.5 11 -10
v 1.5 12 -4
v 1.5 12 -5
v 1.5 12 -7
v 1.5 12 -8
v 1.5 13 7
v 1.5 13 6
v 1.5 13 -4
v 1.5 13 -5
v 1.5 13 -7
v 1.5 13 -8
v 1.5 14 7
v 1.5 14 6
v 2.5 9 -2
v 2.5 9 -3
v 2.5 9 -9
v 2.5 9 -10
v 2.5 10 -2
v 2.5 10 -3
v 2.5 10 -9
v 2.5 10 -10
v 2.5 11 -3
v 2.5 11 -4
v 2.5 11 -8
v 2.5 11 -9
v 2.5 12 -3
v 2.5 12 -4
v 2.5 12 -5
v 2.5 12 -7
v 2.5 12 -8
v 2.5 12 -9
v 2.5 13 -5
v 2.5 13 -7
v 3.5 1 9
v 3.5 1 8
v 3.5 2 9
v 3.5 2 8
v 3.5 2 7
v 3.5 2 3
v 3.5 2 1
v 3.5 2 -3
v 3.5 2 -5
v 3.5 2 -9
v 3.5 3 7
v 3.5 4 7
v 3.5 7 7
v 3.5 7 3
v 3.5 7 1
v 3.5 7 -3
v 3.5 7 -5
v 3.5 7 -9
v 3.5 9 -3
v 3.5 9 -4
v 3.5 9 -8
v 3.5 9 -9
v 3.5 10 -4
v 3.5 10 -5
v 3.5 10 -7
v 3.5 10 -8
v 3.5 11 -3
v 3.5 11 -4
v 3.5 11 -5
v 3.5 11 -7
v 3.5 11 -8
v 3.5 11 -9
v 3.5 12 -4
v 3.5 12 -8
v 4.5 0 10
v 4.5 0 -10
v 4.5 1 10
v 4.5 1 8
v 4.5 1 -9
v 4.5 1 -10
v 4.5 2 7
v 4.5 2 3
v 4.5 2 1
v 4.5 2 -3
v 4.5 2 -5
v 4.5 2 -9
v 4.5 2 -10
v 4.5 3 8
v 4.5 3 7
v 4.5 4 8
v 4.5 4 7
v 4.5 7 7
v 4.5 7 3
v 4.5 7 1
v 4.5 7 -3
v 4.5 7 -5
v 4.5 7 -9
v 4.5 8 -1
v 4.5 8 -2
v 4.5 9 8
v 4.5 9 -1
v 4.5 9 -2
v 4.5 9 -4
v 4.5 9 -8
v 4.5 9 -10
v 4.5 10 -4
v 4.5 10 -5
v 4.5 10 -7
v 4.5 10 -8
v 4.5 11 -5
v 4.5 11 -7
v -4.5 0 10
v -4.5 1 10
v 2.5 0 10
v 2.5 1 10
v 3.5 0 10
v 3.5 1 10
v 4.5 0 10
v 4.5 1 10
v -3.5 1 9
v -3.5 2 9
v -2.5 1 9
v -2.5 2 9
v -1.5 1 9
v -1.5 2 9
v 2.5 1 9
v 3.5 1 9
v 3.5 2 9
v -4.5 1 8
v -4.5 9 8
v -3.5 1 8
v -3.5 2 8
v -2.5 2 8
v -2.5 8 8
v 2.5 2 8
v 2.5 8 8
v 3.5 1 8
v 3.5 2 8
v 3.5 3 8
v 3.5 4 8
v 4.5 1 8
v 4.5 3 8
v 4.5 4 8
v 4.5 9 8
v -2.5 2 7
v -2.5 8 7
v -1.5 13 7
v -1.5 14 7
v -0.5 9 7
v -0.5 13 7
v -0.5 14 7
v -0.5 16 7
v 0.5 9 7
v 0.5 13 7
v 0.5 14 7
v 0.5 16 7
v 1.5 13 7
v 1.5 14 7
v 2.5 2 7
v 2.5 8 7
v -4.5 2 3
v -4.5 7 3
v -3.5 2 3
v -3.5 7 3
v 3.5 2 3
v 3.5 7 3
v 4.5 2 3
v 4.5 7 3
v -2.5 9 -2
v -2.5 10 -2
v -1.5 10 -2
v -1.5 11 -2
v 1.5 10 -2
v 1.5 11 -2
v 2.5 9 -2
v 2.5 10 -2
v -4.5 2 -3
v -4.5 7 -3
v -3.5 2 -3
v -3.5 7 -3
v -3.5 9 -3
v -3.5 11 -3
v -2.5 9 -3
v -2.5 10 -3
v -2.5 11 -3
v -2.5 12 -3
v -1.5 10 -3
v -1.5 11 -3
v 1.5 10 -3
v 1.5 11 -3
v 2.5 9 -3
v 2.5 10 -3
v 2.5 11 -3
v 2.5 12 -3
v 3.5 2 -3
v 3.5 7 -3
v 3.5 9 -3
v 3.5 11 -3
v 4.5 2 -3
v 4.5 7 -3
v -4.5 9 -4
v -4.5 10 -4
v -3.5 9 -4
v -3.5 10 -4
v -3.5 11 -4
v -3.5 12 -4
v -2.5 11 -4
v -2.5 12 -4
v -1.5 12 -4
v -1.5 13 -4
v 1.5 12 -4
v 1.5 13 -4
v 2.5 11 -4
v 2.5 12 -4
v 3.5 9 -4
v 3.5 10 -4
v 3.5 11 -4
v 3.5 12 -4
v 4.5 9 -4
v 4.5 10 -4
v -4.5 10 -5
v -4.5 11 -5
v -3.5 10 -5
v -3.5 11 -5
v -2.5 12 -5
v -2.5 13 -5
v -1.5 12 -5
v -1.5 13 -5
v 1.5 12 -5
v 1.5 13 -5
v 2.5 12 -5
v 2.5 13 -5
v 3.5 10 -5
v 3.5 11 -5
v 4.5 10 -5
v 4.5 11 -5
v -4.5 2 -9
v -4.5 7 -9
v -3.5 2 -9
v -3.5 7 -9
v 3.5 2 -9
v 3.5 7 -9
v 4.5 2 -9
v 4.5 7 -9
v -4.5 2 7
v -4.5 7 7
v -3.5 2 7
v -3.5 7 7
v 3.5 2 7
v 3.5 3 7
v 3.5 4 7
v 3.5 7 7
v 4.5 2 7
v 4.5 3 7
v 4.5 4 7
v 4.5 7 7
v -1.5 13 6
v -1.5 14 6
v -0.5 9 6
v -0.5 13 6
v -0.5 14 6
v -0.5 16 6
v 0.5 9 6
v 0.5 13 6
v 0.5 14 6
v 0.5 16 6
v 1.5 13 6
v 1.5 14 6
v -4.5 2 1
v -4.5 7 1
v -3.5 2 1
v -3.5 7 1
v 3.5 2 1
v 3.5 7 1
v 4.5 2 1
v 4.5 7 1
v -4.5 2 -5
v -4.5 7 -5
v -3.5 2 -5
v -3.5 7 -5
v 3.5 2 -5
v 3.5 7 -5
v 4.5 2 -5
v 4.5 7 -5
v -4.5 10 -7
v -4.5 11 -7
v -3.5 10 -7
v -3.5 11 -7
v -2.5 12 -7
v -2.5 13 -7
v -1.5 12 -7
v -1.5 13 -7
v 1.5 12 -7
v 1.5 13 -7
v 2.5 12 -7
v 2.5 13 -7
v 3.5 10 -7
v 3.5 11 -7
v 4.5 10 -7
v 4.5 11 -7
v -4.5 9 -8
v -4.5 10 -8
v -3.5 9 -8
v -3.5 10 -8
v -3.5 11 -8
v -3.5 12 -8
v -2.5 11 -8
v -2.5 12 -8
v -1.5 12 -8
v -1.5 13 -8
v 1.5 12 -8
v 1.5 13 -8
v 2.5 11 -8
v 2.5 12 -8
v 3.5 9 -8
v 3.5 10 -8
v 3.5 11 -8
v 3.5 12 -8
v 4.5 9 -8
v 4.5 10 -8
v -3.5 9 -9
v -3.5 11 -9
v -2.5 9 -9
v -2.5 10 -9
v -2.5 11 -9
v -2.5 12 -9
v -1.5 5 -9
v -1.5 6 -9
v -1.5 10 -9
v -1.5 11 -9
v -0.5 1 -9
v -0.5 5 -9
v -0.5 6 -9
v -0.5 8 -9
v 0.5 1 -9
v 0.5 5 -9
v 0.5 6 -9
v 0.5 8 -9
v 1.5 5 -9
v 1.5 6 -9
v 1.5 10 -9
v 1.5 11 -9
v 2.5 9 -9
v 2.5 10 -9
v 2.5 11 -9
v 2.5 12 -9
v 3.5 9 -9
v 3.5 11 -9
v -4.5 0 -10
v -4.5 9 -10
v -2.5 2 -10
v -2.5 3 -10
v -2.5 9 -10
v -2.5 10 -10
v -1.5 2 -10
v -1.5 3 -10
v -1.5 5 -10
v -1.5 6 -10
v -1.5 10 -10
v -1.5 11 -10
v -0.5 1 -10
v -0.5 5 -10
v -0.5 6 -10
v -0.5 8 -10
v 0.5 1 -10
v 0.5 5 -10
v 0.5 6 -10
v 0.5 8 -10
v 1.5 5 -10
v 1.5 6 -10
v 1.5 10 -10
v 1.5 11 -10
v 2.5 9 -10
v 2.5 10 -10
v 3.5 1 -10
v 3.5 2 -10
v 4.5 0 -10
v 4.5 1 -10
v 4.5 2 -10
v 4.5 9 -10
v -4.5 0 10
v 2.5 0 10
v 3.5 0 10
v 4.5 0 10
v -3.5 0 9
v 2.5 0 9
v 3.5 0 9
v -3.5 0 -9
v 3.5 0 -9
v -4.5 0 -10
v 4.5 0 -10
v -1.5 6 -9
v -0.5 6 -9
v 0.5 6 -9
v 1.5 6 -9
v -1.5 6 -10
v -0.5 6 -10
v 0.5 6 -10
v 1.5 6 -10
v -4.5 7 7
v -3.5 7 7
v 3.5 7 7
v 4.5 7 7
v -4.5 7 3
v -3.5 7 3
v 3.5 7 3
v 4.5 7 3
v -4.5 7 1
v -3.5 7 1
v 3.5 7 1
v 4.5 7 1
v -4.5 7 -3
v -3.5 7 -3
v 3.5 7 -3
v 4.5 7 -3
v -4.5 7 -5
v -3.5 7 -5
v 3.5 7 -5
v 4.5 7 -5
v -4.5 7 -9
v -3.5 7 -9
v 3.5 7 -9
v 4.5 7 -9
v -2.5 8 8
v 2.5 8 8
v -2.5 8 7
v 2.5 8 7
v -0.5 8 -9
v 0.5 8 -9
v -0.5 8 -10
v 0.5 8 -10
v -1.5 13 7
v -0.5 13 7
v 0.5 13 7
v 1.5 13 7
v -1.5 13 6
v -0.5 13 6
v 0.5 13 6
v 1.5 13 6
v -4.5 1 10
v 2.5 1 10
v 3.5 1 10
v 4.5 1 10
v -3.5 1 9
v -2.5 1 9
v -1.5 1 9
v 2.5 1 9
v 3.5 1 9
v -4.5 1 8
v -3.5 1 8
v 3.5 1 8
v 4.5 1 8
v -0.5 1 -9
v 0.5 1 -9
v -0.5 1 -10
v 0.5 1 -10
v -3.5 2 9
v -2.5 2 9
v -1.5 2 9
v 3.5 2 9
v -3.5 2 8
v -2.5 2 8
v -1.5 2 8
v 2.5 2 8
v 3.5 2 8
v -4.5 2 7
v -3.5 2 7
v -2.5 2 7
v 2.5 2 7
v 3.5 2 7
v 4.5 2 7
v -4.5 2 3
v -3.5 2 3
v 3.5 2 3
v 4.5 2 3
v -4.5 2 1
v -3.5 2 1
v 3.5 2 1
v 4.5 2 1
v -4.5 2 -3
v -3.5 2 -3
v 3.5 2 -3
v 4.5 2 -3
v -4.5 2 -5
v -3.5 2 -5
v 3.5 2 -5
v 4.5 2 -5
v -4.5 2 -9
v -3.5 2 -9
v 3.5 2 -9
v 4.5 2 -9
v -1.5 5 -9
v -0.5 5 -9
v 0.5 5 -9
v 1.5 5 -9
v -1.5 5 -10
v -0.5 5 -10
v 0.5 5 -10
v 1.5 5 -10
v -4.5 9 8
v 4.5 9 8
v -0.5 9 7
v 0.5 9 7
v -0.5 9 6
v 0.5 9 6
v -2.5 9 3
v -1.5 9 3
v 0.5 9 3
v 1.5 9 3
v -2.5 9 2
v -1.5 9 2
v 0.5 9 2
v 1.5 9 2
v 3.5 9 -1
v 4.5 9 -1
v -2.5 9 -2
v 2.5 9 -2
v 3.5 9 -2
v 4.5 9 -2
v -3.5 9 -3
v -2.5 9 -3
v 2.5 9 -3
v 3.5 9 -3
v -4.5 9 -4
v -3.5 9 -4
v 3.5 9 -4
v 4.5 9 -4
v -4.5 9 -8
v -3.5 9 -8
v 3.5 9 -8
v 4.5 9 -8
v -3.5 9 -9
v -2.5 9 -9
v 2.5 9 -9
v 3.5 9 -9
v -4.5 9 -10
v -2.5 9 -10
v 2.5 9 -10
v 4.5 9 -10
v -2.5 10 -2
v -1.5 10 -2
v 1.5 10 -2
v 2.5 10 -2
v -2.5 10 -3
v -1.5 10 -3
v 1.5 10 -3
v 2.5 10 -3
v -4.5 10 -4
v -3.5 10 -4
v 3.5 10 -4
v 4.5 10 -4
v -4.5 10 -5
v -3.5 10 -5
v 3.5 10 -5
v 4.5 10 -5
v -4.5 10 -7
v -3.5 10 -7
v 3.5 10 -7
v 4.5 10 -7
v -4.5 10 -8
v -3.5 10 -8
v 3.5 10 -8
v 4.5 10 -8
v -2.5 10 -9
v -1.5 10 -9
v 1.5 10 -9
v 2.5 10 -9
v -2.5 10 -10
v -1.5 10 -10
v 1.5 10 -10
v 2.5 10 -10
v -1.5 11 -2
v 1.5 11 -2
v -3.5 11 -3
v -2.5 11 -3
v -1.5 11 -3
v 1.5 11 -3
v 2.5 11 -3
v 3.5 11 -3
v -3.5 11 -4
v -2.5 11 -4
v 2.5 11 -4
v 3.5 11 -4
v -4.5 11 -5
v -3.5 11 -5
v 3.5 11 -5
v 4.5 11 -5
v -4.5 11 -7
v -3.5 11 -7
v 3.5 11 -7
v 4.5 11 -7
v -3.5 11 -8
v -2.5 11 -8
v 2.5 11 -8
v 3.5 11 -8
v -3.5 11 -9
v -2.5 11 -9
v -1.5 11 -9
v 1.5 11 -9
v 2.5 11 -9
v 3.5 11 -9
v -1.5 11 -10
v 1.5 11 -10
v -2.5 12 -3
v 2.5 12 -3
v -3.5 12 -4
v -2.5 12 -4
v -1.5 12 -4
v 1.5 12 -4
v 2.5 12 -4
v 3.5 12 -4
v -2.5 12 -5
v -1.5 12 -5
v 1.5 12 -5
v 2.5 12 -5
v -2.5 12 -7
v -1.5 12 -7
v 1.5 12 -7
v 2.5 12 -7
v -3.5 12 -8
v -2.5 12 -8
v -1.5 12 -8
v 1.5 12 -8
v 2.5 12 -8
v 3.5 12 -8
v -2.5 12 -9
v 2.5 12 -9
v -1.5 13 -4
v 1.5 13 -4
v -2.5 13 -5
v -1.5 13 -5
v 1.5 13 -5
v 2.5 13 -5
v -2.5 13 -7
v -1.5 13 -7
v 1.5 13 -7
v 2.5 13 -7
v -1.5 13 -8
v 1.5 13 -8
v -1.5 14 7
v -0.5 14 7
v 0.5 14 7
v 1.5 14 7
v -1.5 14 6
v -0.5 14 6
v 0.5 14 6
v 1.5 14 6
v -0.5 16 7
v 0.5 16 7
v -0.5 16 6
v 0.5 16 6

# faces
f 3/4/1 2/4/1 1/4/1
f 4/4/1 2/4/1 3/4/1
f 5/4/1 2/4/1 4/4/1
f 6/4/1 2/4/1 5/4/1
f 7/4/1 5/4/1 4/4/1
f 8/4/1 5/4/1 7/4/1
f 9/2/1 6/2/1 5/2/1
f 9/4/1 5/4/1 8/4/1
f 10/4/1 2/4/1 6/4/1
f 10/2/1 6/2/1 9/2/1
f 11/4/1 2/4/1 10/4/1
f 12/4/1 2/4/1 11/4/1
f 13/4/1 2/4/1 12/4/1
f 14/4/1 7/4/1 4/4/1
f 15/4/1 9/4/1 8/4/1
f 15/4/1 10/4/1 9/4/1
f 16/4/1 10/4/1 15/4/1
f 17/4/1 12/4/1 11/4/1
f 18/4/1 12/4/1 17/4/1
f 19/4/1 12/4/1 18/4/1
f 20/4/1 2/4/1 13/4/1
f 21/3/1 19/3/1 18/3/1
f 21/4/1 16/4/1 15/4/1
f 21/4/1 15/4/1 14/4/1
f 21/4/1 17/4/1 16/4/1
f 21/4/1 18/4/1 17/4/1
f 22/4/1 20/4/1 19/4/1
f 22/3/1 19/3/1 21/3/1
f 23/4/1 14/4/1 4/4/1
f 23/4/1 21/4/1 14/4/1
f 23/4/1 22/4/1 21/4/1
f 24/4/1 22/4/1 23/4/1
f 25/4/1 20/4/1 22/4/1
f 25/4/1 22/4/1 24/4/1
f 26/4/1 2/4/1 20/4/1
f 26/4/1 20/4/1 25/4/1
f 27/5/1 25/5/1 24/5/1
f 28/5/1 25/5/1 27/5/1
f 29/5/1 25/5/1 28/5/1
f 30/5/1 25/5/1 29/5/1
f 31/5/1 29/5/1 28/5/1
f 32/5/1 29/5/1 31/5/1
f 35/4/1 34/4/1 33/4/1
f 36/4/1 34/4/1 35/4/1
f 43/6/1 38/6/1 37/6/1
f 44/6/1 38/6/1 43/6/1
f 45/6/1 40/6/1 39/6/1
f 46/6/1 40/6/1 45/6/1
f 47/6/1 42/6/1 41/6/1
f 48/6/1 42/6/1 47/6/1
f 53/5/1 50/5/1 49/5/1
f 56/5/1 52/5/1 51/5/1
f 57/5/1 54/5/1 53/5/1
f 57/5/1 53/5/1 49/5/1
f 58/5/1 54/5/1 57/5/1
f 59/5/1 54/5/1 58/5/1
f 60/5/1 56/5/1 55/5/1
f 61/5/1 52/5/1 56/5/1
f 61/5/1 56/5/1 60/5/1
f 62/5/1 52/5/1 61/5/1
f 63/5/1 59/5/1 58/5/1
f 63/5/1 60/5/1 59/5/1
f 63/5/1 61/5/1 60/5/1
f 64/5/1 61/5/1 63/5/1
f 69/5/1 66/5/1 65/5/1
f 70/5/1 66/5/1 69/5/1
f 71/5/1 68/5/1 67/5/1
f 72/5/1 68/5/1 71/5/1
f 77/5/1 74/5/1 73/5/1
f 78/5/1 74/5/1 77/5/1
f 81/5/1 76/5/1 75/5/1
f 82/5/1 76/5/1 81/5/1
f 83/5/1 80/5/1 79/5/1
f 84/5/1 80/5/1 83/5/1
f 89/5/1 86/5/1 85/5/1
f 90/5/1 86/5/1 89/5/1
f 91/5/1 88/5/1 87/5/1
f 92/5/1 88/5/1 91/5/1
f 99/5/1 94/5/1 93/5/1
f 100/5/1 94/5/1 99/5/1
f 101/5/1 96/5/1 95/5/1
f 102/5/1 96/5/1 101/5/1
f 103/7/1 98/7/1 97/7/1
f 104/7/1 98/7/1 103/7/1
f 107/7/1 106/7/1 105/7/1
f 108/7/1 106/7/1 107/7/1
f 111/7/1 110/7/1 109/7/1
f 112/7/1 110/7/1 111/7/1
f 115/4/1 114/4/1 113/4/1
f 116/4/1 114/4/1 115/4/1
f 119/4/1 118/4/1 117/4/1
f 120/4/1 118/4/1 119/4/1
f 123/4/1 122/4/1 121/4/1
f 124/4/1 122/4/1 123/4/1
f 127/4/1 126/4/1 125/4/1
f 128/4/1 126/4/1 127/4/1
f 129/4/2 130/4/2 131/4/2
f 131/4/2 130/4/2 132/4/2
f 133/4/2 134/4/2 135/4/2
f 135/4/2 134/4/2 136/4/2
f 137/4/2 138/4/2 139/4/2
f 139/4/2 138/4/2 140/4/2
f 141/4/2 142/4/2 143/4/2
f 143/4/2 142/4/2 144/4/2
f 145/7/2 146/7/2 147/7/2
f 147/7/2 146/7/2 148/7/2
f 149/7/2 150/7/2 151/7/2
f 151/7/2 150/7/2 152/7/2
f 153/5/2 154/5/2 157/5/2
f 157/5/2 154/5/2 158/5/2
f 155/5/2 156/5/2 159/5/2
f 159/5/2 156/5/2 160/5/2
f 161/5/2 162/5/2 167/5/2
f 167/5/2 162/5/2 168/5/2
f 163/5/2 164/5/2 169/5/2
f 169/5/2 164/5/2 170/5/2
f 165/7/2 166/7/2 171/7/2
f 171/7/2 166/7/2 172/7/2
f 173/5/2 174/5/2 177/5/2
f 177/5/2 174/5/2 178/5/2
f 175/5/2 176/5/2 179/5/2
f 179/5/2 176/5/2 180/5/2
f 181/5/2 182/5/2 185/5/2
f 185/5/2 182/5/2 186/5/2
f 183/5/2 184/5/2 189/5/2
f 189/5/2 184/5/2 190/5/2
f 187/5/2 188/5/2 191/5/2
f 191/5/2 188/5/2 192/5/2
f 193/4/2 194/4/2 195/4/2
f 195/4/2 194/4/2 196/4/2
f 197/6/2 198/6/2 203/6/2
f 203/6/2 198/6/2 204/6/2
f 204/6/2 198/6/2 205/6/2
f 205/6/2 198/6/2 206/6/2
f 199/6/2 200/6/2 207/6/2
f 207/6/2 200/6/2 208/6/2
f 201/6/2 202/6/2 209/6/2
f 209/6/2 202/6/2 210/6/2
f 211/5/2 212/5/2 215/5/2
f 213/5/2 214/5/2 218/5/2
f 215/5/2 216/5/2 219/5/2
f 211/5/2 215/5/2 219/5/2
f 219/5/2 216/5/2 220/5/2
f 220/5/2 216/5/2 221/5/2
f 217/5/2 218/5/2 222/5/2
f 218/5/2 214/5/2 223/5/2
f 222/5/2 218/5/2 223/5/2
f 223/5/2 214/5/2 224/5/2
f 220/5/2 221/5/2 225/5/2
f 221/5/2 222/5/2 225/5/2
f 222/5/2 223/5/2 225/5/2
f 225/5/2 223/5/2 226/5/2
f 227/4/2 228/4/2 229/4/2
f 229/4/2 228/4/2 230/4/2
f 230/4/2 228/4/2 231/4/2
f 231/4/2 228/4/2 232/4/2
f 230/4/2 231/4/2 233/4/2
f 233/4/2 231/4/2 234/4/2
f 234/4/2 231/4/2 235/4/2
f 235/4/2 231/4/2 236/4/2
f 236/4/2 231/4/2 237/4/2
f 231/2/2 232/2/2 238/2/2
f 237/4/2 231/4/2 238/4/2
f 238/2/2 232/2/2 239/2/2
f 230/4/2 233/4/2 240/4/2
f 240/4/2 233/4/2 241/4/2
f 240/1/2 241/1/2 242/1/2
f 242/1/2 241/1/2 243/1/2
f 242/4/2 243/4/2 244/4/2
f 234/4/2 235/4/2 245/4/2
f 245/4/2 235/4/2 246/4/2
f 236/4/2 237/4/2 247/4/2
f 247/4/2 237/4/2 248/4/2
f 238/4/2 239/4/2 249/4/2
f 245/4/2 246/4/2 250/4/2
f 248/4/2 249/4/2 250/4/2
f 247/4/2 248/4/2 250/4/2
f 244/4/2 245/4/2 250/4/2
f 246/4/2 247/4/2 250/4/2
f 250/4/2 249/4/2 251/4/2
f 242/4/2 244/4/2 252/4/2
f 244/4/2 250/4/2 252/4/2
f 250/2/2 251/2/2 253/2/2
f 252/4/2 250/4/2 253/4/2
f 251/4/2 249/4/2 254/4/2
f 253/2/2 251/2/2 254/2/2
f 254/4/2 249/4/2 255/4/2
f 255/4/2 249/4/2 256/4/2
f 249/4/2 239/4/2 257/4/2
f 256/4/2 249/4/2 257/4/2
f 255/5/2 256/5/2 258/5/2
f 258/5/2 256/5/2 259/5/2
f 259/5/2 256/5/2 260/5/2
f 260/5/2 256/5/2 261/5/2
f 259/5/2 260/5/2 262/5/2
f 262/5/2 260/5/2 263/5/2
f 266/4/3 265/4/3 264/4/3
f 267/4/3 265/4/3 266/4/3
f 268/1/3 267/1/3 266/1/3
f 269/1/3 267/1/3 268/1/3
f 270/4/3 269/4/3 268/4/3
f 271/4/3 269/4/3 270/4/3
f 274/4/3 273/4/3 272/4/3
f 275/4/3 273/4/3 274/4/3
f 276/2/3 275/2/3 274/2/3
f 277/2/3 275/2/3 276/2/3
f 278/4/3 277/4/3 276/4/3
f 279/4/3 277/4/3 278/4/3
f 280/4/3 277/4/3 279/4/3
f 283/4/3 282/4/3 281/4/3
f 284/4/3 282/4/3 283/4/3
f 285/4/3 282/4/3 284/4/3
f 286/4/3 282/4/3 285/4/3
f 288/4/3 282/4/3 286/4/3
f 290/4/3 288/4/3 287/4/3
f 291/4/3 288/4/3 290/4/3
f 292/4/3 288/4/3 291/4/3
f 293/4/3 290/4/3 289/4/3
f 293/4/3 291/4/3 290/4/3
f 294/1/3 292/1/3 291/1/3
f 294/4/3 291/4/3 293/4/3
f 295/4/3 288/4/3 292/4/3
f 295/1/3 292/1/3 294/1/3
f 296/4/3 282/4/3 288/4/3
f 296/4/3 288/4/3 295/4/3
f 302/7/3 300/7/3 299/7/3
f 303/7/3 300/7/3 302/7/3
f 305/7/3 302/7/3 301/7/3
f 305/7/3 304/7/3 303/7/3
f 305/7/3 303/7/3 302/7/3
f 306/7/3 304/7/3 305/7/3
f 307/7/3 304/7/3 306/7/3
f 308/7/3 304/7/3 307/7/3
f 309/7/3 307/7/3 306/7/3
f 310/7/3 307/7/3 309/7/3
f 311/5/3 298/5/3 297/5/3
f 312/5/3 298/5/3 311/5/3
f 315/4/3 314/4/3 313/4/3
f 316/4/3 314/4/3 315/4/3
f 319/4/3 318/4/3 317/4/3
f 320/4/3 318/4/3 319/4/3
f 323/5/3 322/5/3 321/5/3
f 325/5/3 323/5/3 321/5/3
f 325/5/3 324/5/3 323/5/3
f 326/5/3 324/5/3 325/5/3
f 327/5/3 325/5/3 321/5/3
f 328/5/3 325/5/3 327/5/3
f 331/4/3 330/4/3 329/4/3
f 332/4/3 330/4/3 331/4/3
f 335/5/3 334/5/3 333/5/3
f 336/5/3 334/5/3 335/5/3
f 337/5/3 334/5/3 336/5/3
f 339/5/3 338/5/3 337/5/3
f 339/5/3 337/5/3 336/5/3
f 340/5/3 338/5/3 339/5/3
f 342/5/3 338/5/3 340/5/3
f 344/5/3 342/5/3 341/5/3
f 345/5/3 338/5/3 342/5/3
f 345/5/3 342/5/3 344/5/3
f 346/5/3 338/5/3 345/5/3
f 349/5/3 344/5/3 343/5/3
f 349/5/3 345/5/3 344/5/3
f 350/5/3 345/5/3 349/5/3
f 351/4/3 348/4/3 347/4/3
f 352/4/3 348/4/3 351/4/3
f 355/5/3 354/5/3 353/5/3
f 356/5/3 354/5/3 355/5/3
f 359/5/3 358/5/3 357/5/3
f 360/5/3 358/5/3 359/5/3
f 363/5/3 362/5/3 361/5/3
f 364/5/3 362/5/3 363/5/3
f 369/5/3 366/5/3 365/5/3
f 370/5/3 366/5/3 369/5/3
f 371/5/3 368/5/3 367/5/3
f 372/5/3 368/5/3 371/5/3
f 375/5/3 374/5/3 373/5/3
f 376/5/3 374/5/3 375/5/3
f 379/5/3 378/5/3 377/5/3
f 380/5/3 378/5/3 379/5/3
f 383/5/3 382/5/3 381/5/3
f 384/5/3 382/5/3 383/5/3
f 387/5/3 386/5/3 385/5/3
f 388/5/3 386/5/3 387/5/3
f 391/4/3 390/4/3 389/4/3
f 392/4/3 390/4/3 391/4/3
f 395/4/3 394/4/3 393/4/3
f 396/4/3 394/4/3 395/4/3
f 397/4/4 398/4/4 399/4/4
f 399/4/4 398/4/4 400/4/4
f 401/4/4 402/4/4 405/4/4
f 402/1/4 403/1/4 406/1/4
f 405/4/4 402/4/4 406/4/4
f 403/4/4 404/4/4 407/4/4
f 406/1/4 403/1/4 407/1/4
f 407/4/4 404/4/4 408/4/4
f 409/7/4 410/7/4 412/7/4
f 412/7/4 410/7/4 413/7/4
f 411/7/4 412/7/4 415/7/4
f 413/7/4 414/7/4 415/7/4
f 412/7/4 413/7/4 415/7/4
f 415/7/4 414/7/4 416/7/4
f 416/7/4 414/7/4 417/7/4
f 417/7/4 414/7/4 418/7/4
f 416/7/4 417/7/4 419/7/4
f 419/7/4 417/7/4 420/7/4
f 421/4/4 422/4/4 423/4/4
f 423/4/4 422/4/4 424/4/4
f 425/4/4 426/4/4 427/4/4
f 427/4/4 426/4/4 428/4/4
f 429/4/4 430/4/4 431/4/4
f 431/4/4 430/4/4 432/4/4
f 433/4/4 434/4/4 435/4/4
f 435/4/4 434/4/4 436/4/4
f 437/5/4 438/5/4 439/5/4
f 439/5/4 438/5/4 440/5/4
f 441/5/4 442/5/4 443/5/4
f 443/5/4 442/5/4 444/5/4
f 445/5/4 446/5/4 447/5/4
f 447/5/4 446/5/4 448/5/4
f 449/5/4 450/5/4 451/5/4
f 451/5/4 450/5/4 452/5/4
f 453/5/4 454/5/4 455/5/4
f 455/5/4 454/5/4 456/5/4
f 457/5/4 458/5/4 459/5/4
f 459/5/4 458/5/4 460/5/4
f 461/5/4 462/5/4 463/5/4
f 463/5/4 462/5/4 464/5/4
f 465/5/4 466/5/4 469/5/4
f 469/5/4 466/5/4 470/5/4
f 467/5/4 468/5/4 471/5/4
f 471/5/4 468/5/4 472/5/4
f 473/5/4 474/5/4 475/5/4
f 475/5/4 474/5/4 476/5/4
f 476/5/4 474/5/4 477/5/4
f 477/5/4 478/5/4 481/5/4
f 476/5/4 477/5/4 481/5/4
f 481/5/4 478/5/4 482/5/4
f 479/7/4 480/7/4 484/7/4
f 484/7/4 480/7/4 485/7/4
f 483/7/4 484/7/4 487/7/4
f 485/7/4 486/7/4 487/7/4
f 484/7/4 485/7/4 487/7/4
f 487/7/4 486/7/4 488/7/4
f 488/7/4 486/7/4 489/7/4
f 489/7/4 486/7/4 490/7/4
f 488/7/4 489/7/4 491/7/4
f 491/7/4 489/7/4 492/7/4
f 482/5/4 478/5/4 494/5/4
f 493/5/4 494/5/4 496/5/4
f 494/5/4 478/5/4 497/5/4
f 496/5/4 494/5/4 497/5/4
f 497/5/4 478/5/4 498/5/4
f 495/5/4 496/5/4 499/5/4
f 496/5/4 497/5/4 499/5/4
f 499/5/4 497/5/4 500/5/4
f 501/4/4 502/4/4 503/4/4
f 503/4/4 502/4/4 504/4/4
f 504/4/4 502/4/4 505/4/4
f 501/4/4 503/4/4 507/4/4
f 503/2/4 504/2/4 507/2/4
f 504/4/4 505/4/4 508/4/4
f 507/2/4 504/2/4 508/2/4
f 508/4/4 505/4/4 509/4/4
f 509/4/4 505/4/4 510/4/4
f 505/5/4 506/5/4 511/5/4
f 501/4/4 507/4/4 513/4/4
f 507/4/4 508/4/4 513/4/4
f 508/4/4 509/4/4 513/4/4
f 513/4/4 509/4/4 514/4/4
f 510/4/4 505/4/4 515/4/4
f 515/4/4 505/4/4 516/4/4
f 501/4/4 513/4/4 517/4/4
f 516/4/4 505/4/4 520/4/4
f 517/4/4 518/4/4 521/4/4
f 519/4/4 520/4/4 522/4/4
f 511/5/4 512/5/4 523/5/4
f 505/5/4 511/5/4 523/5/4
f 523/5/4 512/5/4 524/5/4
f 521/4/4 522/4/4 525/4/4
f 522/4/4 520/4/4 525/4/4
f 505/5/4 523/5/4 525/5/4
f 520/4/4 505/4/4 525/4/4
f 525/5/4 523/5/4 526/5/4
f 517/4/4 521/4/4 527/4/4
f 501/4/4 517/4/4 527/4/4
f 521/4/4 525/4/4 527/4/4
f 527/4/4 525/4/4 528/4/4
f 501/4/4 527/4/4 529/4/4
f 527/2/4 528/2/4 530/2/4
f 529/4/4 527/4/4 530/4/4
f 528/4/4 525/4/4 531/4/4
f 530/2/4 528/2/4 531/2/4
f 531/4/4 525/4/4 532/4/4
f 537/4/5 534/4/5 533/4/5
f 538/1/5 535/1/5 534/1/5
f 538/4/5 534/4/5 537/4/5
f 539/4/5 536/4/5 535/4/5
f 539/1/5 535/1/5 538/1/5
f 540/9/5 538/9/5 537/9/5
f 540/4/5 537/4/5 533/4/5
f 540/9/5 539/9/5 538/9/5
f 541/4/5 536/4/5 539/4/5
f 541/9/5 539/9/5 540/9/5
f 542/4/5 540/4/5 533/4/5
f 542/4/5 541/4/5 540/4/5
f 543/4/5 536/4/5 541/4/5
f 543/4/5 541/4/5 542/4/5
f 548/4/5 545/4/5 544/4/5
f 549/4/5 545/4/5 548/4/5
f 550/4/5 547/4/5 546/4/5
f 551/4/5 547/4/5 550/4/5
f 556/4/5 553/4/5 552/4/5
f 557/4/5 553/4/5 556/4/5
f 558/4/5 555/4/5 554/4/5
f 559/4/5 555/4/5 558/4/5
f 564/4/5 561/4/5 560/4/5
f 565/4/5 561/4/5 564/4/5
f 566/4/5 563/4/5 562/4/5
f 567/4/5 563/4/5 566/4/5
f 572/4/5 569/4/5 568/4/5
f 573/4/5 569/4/5 572/4/5
f 574/4/5 571/4/5 570/4/5
f 575/4/5 571/4/5 574/4/5
f 578/4/5 577/4/5 576/4/5
f 579/4/5 577/4/5 578/4/5
f 582/4/5 581/4/5 580/4/5
f 583/4/5 581/4/5 582/4/5
f 588/7/5 585/7/5 584/7/5
f 589/7/5 585/7/5 588/7/5
f 590/7/5 587/7/5 586/7/5
f 591/7/5 587/7/5 590/7/5
f 592/4/6 593/4/6 596/4/6
f 596/4/6 593/4/6 597/4/6
f 597/4/6 593/4/6 598/4/6
f 593/1/6 594/1/6 599/1/6
f 598/4/6 593/4/6 599/4/6
f 594/4/6 595/4/6 600/4/6
f 599/1/6 594/1/6 600/1/6
f 592/4/6 596/4/6 601/4/6
f 601/4/6 596/4/6 602/4/6
f 600/4/6 595/4/6 603/4/6
f 603/4/6 595/4/6 604/4/6
f 605/4/6 606/4/6 607/4/6
f 607/4/6 606/4/6 608/4/6
f 609/4/6 610/4/6 613/4/6
f 610/2/6 611/2/6 614/2/6
f 613/4/6 610/4/6 614/4/6
f 611/4/6 612/4/6 615/4/6
f 614/2/6 611/2/6 615/2/6
f 615/4/6 612/4/6 616/4/6
f 616/4/6 612/4/6 617/4/6
f 614/4/6 615/4/6 620/4/6
f 615/4/6 616/4/6 620/4/6
f 620/4/6 616/4/6 621/4/6
f 618/4/6 619/4/6 624/4/6
f 624/4/6 619/4/6 625/4/6
f 622/4/6 623/4/6 626/4/6
f 626/4/6 623/4/6 627/4/6
f 628/4/6 629/4/6 632/4/6
f 632/4/6 629/4/6 633/4/6
f 630/4/6 631/4/6 634/4/6
f 634/4/6 631/4/6 635/4/6
f 636/4/6 637/4/6 640/4/6
f 640/4/6 637/4/6 641/4/6
f 638/4/6 639/4/6 642/4/6
f 642/4/6 639/4/6 643/4/6
f 644/4/6 645/4/6 648/4/6
f 648/4/6 645/4/6 649/4/6
f 646/4/6 647/4/6 650/4/6
f 650/4/6 647/4/6 651/4/6
f 652/4/6 653/4/6 654/4/6
f 654/4/6 653/4/6 655/4/6
f 652/4/6 654/4/6 656/4/6
f 655/4/6 653/4/6 657/4/6
f 652/4/6 656/4/6 658/4/6
f 656/4/6 657/4/6 658/4/6
f 658/4/6 657/4/6 659/4/6
f 657/4/6 653/4/6 660/4/6
f 659/4/6 657/4/6 660/4/6
f 660/4/6 653/4/6 661/4/6
f 658/3/6 659/3/6 662/3/6
f 652/4/6 658/4/6 662/4/6
f 659/4/6 660/4/6 663/4/6
f 662/3/6 659/3/6 663/3/6
f 660/3/6 661/3/6 664/3/6
f 663/4/6 660/4/6 664/4/6
f 661/4/6 653/4/6 665/4/6
f 664/3/6 661/3/6 665/3/6
f 663/4/6 664/4/6 666/4/6
f 665/4/6 653/4/6 666/4/6
f 664/4/6 665/4/6 666/4/6
f 662/4/6 663/4/6 666/4/6
f 666/4/6 653/4/6 667/4/6
f 652/4/6 662/4/6 668/4/6
f 662/4/6 666/4/6 668/4/6
f 668/4/6 666/4/6 669/4/6
f 666/2/6 667/2/6 670/2/6
f 669/4/6 666/4/6 670/4/6
f 670/2/6 667/2/6 671/2/6
f 652/4/6 668/4/6 672/4/6
f 672/4/6 668/4/6 673/4/6
f 670/4/6 671/4/6 674/4/6
f 669/4/6 670/4/6 674/4/6
f 674/4/6 671/4/6 675/4/6
f 652/4/6 672/4/6 676/4/6
f 676/4/6 672/4/6 677/4/6
f 675/4/6 671/4/6 678/4/6
f 678/4/6 671/4/6 679/4/6
f 680/4/6 681/4/6 684/4/6
f 682/4/6 683/4/6 687/4/6
f 684/4/6 685/4/6 688/4/6
f 680/4/6 684/4/6 688/4/6
f 688/4/6 685/4/6 689/4/6
f 686/4/6 687/4/6 690/4/6
f 687/4/6 683/4/6 691/4/6
f 690/4/6 687/4/6 691/4/6
f 692/5/6 693/5/6 696/5/6
f 696/5/6 693/5/6 697/5/6
f 694/5/6 695/5/6 698/5/6
f 698/5/6 695/5/6 699/5/6
f 700/5/6 701/5/6 704/5/6
f 704/5/6 701/5/6 705/5/6
f 702/5/6 703/5/6 706/5/6
f 706/5/6 703/5/6 707/5/6
f 708/5/6 709/5/6 712/5/6
f 712/5/6 709/5/6 713/5/6
f 710/5/6 711/5/6 714/5/6
f 714/5/6 711/5/6 715/5/6
f 716/5/6 717/5/6 720/5/6
f 720/5/6 717/5/6 721/5/6
f 718/5/6 719/5/6 722/5/6
f 722/5/6 719/5/6 723/5/6
f 724/5/6 725/5/6 728/5/6
f 728/5/6 725/5/6 729/5/6
f 726/5/6 727/5/6 732/5/6
f 732/5/6 727/5/6 733/5/6
f 730/5/6 731/5/6 734/5/6
f 734/5/6 731/5/6 735/5/6
f 736/5/6 737/5/6 740/5/6
f 740/5/6 737/5/6 741/5/6
f 738/5/6 739/5/6 742/5/6
f 742/5/6 739/5/6 743/5/6
f 744/5/6 745/5/6 748/5/6
f 748/5/6 745/5/6 749/5/6
f 746/5/6 747/5/6 752/5/6
f 752/5/6 747/5/6 753/5/6
f 750/5/6 751/5/6 754/5/6
f 754/5/6 751/5/6 755/5/6
f 756/5/6 757/5/6 759/5/6
f 759/5/6 757/5/6 760/5/6
f 760/5/6 757/5/6 761/5/6
f 761/5/6 757/5/6 762/5/6
f 758/5/6 759/5/6 764/5/6
f 759/5/6 760/5/6 764/5/6
f 764/5/6 760/5/6 765/5/6
f 762/5/6 763/5/6 766/5/6
f 761/5/6 762/5/6 766/5/6
f 766/5/6 763/5/6 767/5/6
f 758/5/6 764/5/6 768/5/6
f 767/5/6 763/5/6 771/5/6
f 768/5/6 769/5/6 772/5/6
f 758/5/6 768/5/6 772/5/6
f 772/5/6 769/5/6 773/5/6
f 773/5/6 769/5/6 774/5/6
f 770/5/6 771/5/6 775/5/6
f 771/5/6 763/5/6 776/5/6
f 775/5/6 771/5/6 776/5/6
f 776/5/6 763/5/6 777/5/6
f 773/5/6 774/5/6 778/5/6
f 774/5/6 775/5/6 778/5/6
f 775/5/6 776/5/6 778/5/6
f 778/5/6 776/5/6 779/5/6
f 780/5/6 781/5/6 783/5/6
f 783/5/6 781/5/6 784/5/6
f 782/5/6 783/5/6 786/5/6
f 784/5/6 785/5/6 786/5/6
f 783/5/6 784/5/6 786/5/6
f 786/5/6 785/5/6 787/5/6
f 787/5/6 785/5/6 788/5/6
f 788/5/6 785/5/6 789/5/6
f 787/5/6 788/5/6 790/5/6
f 790/5/6 788/5/6 791/5/6
f 792/7/6 793/7/6 796/7/6
f 796/7/6 793/7/6 797/7/6
f 794/7/6 795/7/6 798/7/6
f 798/7/6 795/7/6 799/7/6
f 800/7/6 801/7/6 802/7/6
f 802/7/6 801/7/6 803/7/6
