# MagicaVoxel @ Ephtracy

# material
mtllib Construction04.mtl
usemtl palette

# normals
vn -1 0 0
vn 1 0 0
vn 0 0 1
vn 0 0 -1
vn 0 -1 0
vn 0 1 0

# texcoords
vt 0.970703 0.5
vt 0.990234 0.5

# verts
v -10 0 10
v -10 0 9
v -10 0 -9
v -10 0 -10
v -10 3 9
v -10 3 -9
v -10 4 9
v -10 4 -9
v -10 9 9
v -10 9 -9
v -10 10 9
v -10 10 -9
v -10 15 9
v -10 15 -9
v -10 16 9
v -10 16 -9
v -10 21 9
v -10 21 -9
v -10 22 9
v -10 22 -9
v -10 27 9
v -10 27 -9
v -10 28 9
v -10 28 -9
v -10 33 9
v -10 33 -9
v -10 34 9
v -10 34 -9
v -10 39 9
v -10 39 -9
v -10 39 -10
v -10 40 10
v -10 40 -10
v 9 0 10
v 9 0 9
v 9 0 -9
v 9 0 -10
v 9 3 10
v 9 3 9
v 9 3 -9
v 9 3 -10
v 9 4 10
v 9 4 9
v 9 4 -9
v 9 4 -10
v 9 9 10
v 9 9 9
v 9 9 -9
v 9 9 -10
v 9 10 10
v 9 10 9
v 9 10 -9
v 9 10 -10
v 9 15 10
v 9 15 9
v 9 15 -9
v 9 15 -10
v 9 16 10
v 9 16 9
v 9 16 -9
v 9 16 -10
v 9 21 10
v 9 21 9
v 9 21 -9
v 9 21 -10
v 9 22 10
v 9 22 9
v 9 22 -9
v 9 22 -10
v 9 27 10
v 9 27 9
v 9 27 -9
v 9 27 -10
v 9 28 10
v 9 28 9
v 9 28 -9
v 9 28 -10
v 9 33 10
v 9 33 9
v 9 33 -9
v 9 33 -10
v 9 34 10
v 9 34 9
v 9 34 -9
v 9 34 -10
v 9 39 10
v 9 39 9
v 9 39 -9
v 9 39 -10
v -9 0 10
v -9 0 9
v -9 0 -9
v -9 0 -10
v -9 3 10
v -9 3 9
v -9 3 -9
v -9 3 -10
v -9 4 10
v -9 4 9
v -9 4 -9
v -9 4 -10
v -9 9 10
v -9 9 9
v -9 9 -9
v -9 9 -10
v -9 10 10
v -9 10 9
v -9 10 -9
v -9 10 -10
v -9 15 10
v -9 15 9
v -9 15 -9
v -9 15 -10
v -9 16 10
v -9 16 9
v -9 16 -9
v -9 16 -10
v -9 21 10
v -9 21 9
v -9 21 -9
v -9 21 -10
v -9 22 10
v -9 22 9
v -9 22 -9
v -9 22 -10
v -9 27 10
v -9 27 9
v -9 27 -9
v -9 27 -10
v -9 28 10
v -9 28 9
v -9 28 -9
v -9 28 -10
v -9 33 10
v -9 33 9
v -9 33 -9
v -9 33 -10
v -9 34 10
v -9 34 9
v -9 34 -9
v -9 34 -10
v -9 39 10
v -9 39 9
v -9 39 -9
v -9 39 -10
v 10 0 10
v 10 0 9
v 10 0 -9
v 10 0 -10
v 10 3 9
v 10 3 -9
v 10 4 9
v 10 4 -9
v 10 9 9
v 10 9 -9
v 10 10 9
v 10 10 -9
v 10 15 9
v 10 15 -9
v 10 16 9
v 10 16 -9
v 10 21 9
v 10 21 -9
v 10 22 9
v 10 22 -9
v 10 27 9
v 10 27 -9
v 10 28 9
v 10 28 -9
v 10 33 9
v 10 33 -9
v 10 34 9
v 10 34 -9
v 10 39 9
v 10 39 -9
v 10 39 -10
v 10 40 10
v 10 40 -10
v -10 0 10
v -10 40 10
v -9 0 10
v -9 3 10
v -9 4 10
v -9 9 10
v -9 10 10
v -9 15 10
v -9 16 10
v -9 21 10
v -9 22 10
v -9 27 10
v -9 28 10
v -9 33 10
v -9 34 10
v -9 39 10
v 9 0 10
v 9 3 10
v 9 4 10
v 9 9 10
v 9 10 10
v 9 15 10
v 9 16 10
v 9 21 10
v 9 22 10
v 9 27 10
v 9 28 10
v 9 33 10
v 9 34 10
v 9 39 10
v 10 0 10
v 10 40 10
v -10 0 -9
v -10 3 -9
v -10 4 -9
v -10 9 -9
v -10 10 -9
v -10 15 -9
v -10 16 -9
v -10 21 -9
v -10 22 -9
v -10 27 -9
v -10 28 -9
v -10 33 -9
v -10 34 -9
v -10 39 -9
v -9 0 -9
v -9 3 -9
v -9 4 -9
v -9 9 -9
v -9 10 -9
v -9 15 -9
v -9 16 -9
v -9 21 -9
v -9 22 -9
v -9 27 -9
v -9 28 -9
v -9 33 -9
v -9 34 -9
v -9 39 -9
v 9 0 -9
v 9 3 -9
v 9 4 -9
v 9 9 -9
v 9 10 -9
v 9 15 -9
v 9 16 -9
v 9 21 -9
v 9 22 -9
v 9 27 -9
v 9 28 -9
v 9 33 -9
v 9 34 -9
v 9 39 -9
v 10 0 -9
v 10 3 -9
v 10 4 -9
v 10 9 -9
v 10 10 -9
v 10 15 -9
v 10 16 -9
v 10 21 -9
v 10 22 -9
v 10 27 -9
v 10 28 -9
v 10 33 -9
v 10 34 -9
v 10 39 -9
v -10 0 9
v -10 3 9
v -10 4 9
v -10 9 9
v -10 10 9
v -10 15 9
v -10 16 9
v -10 21 9
v -10 22 9
v -10 27 9
v -10 28 9
v -10 33 9
v -10 34 9
v -10 39 9
v -9 0 9
v -9 3 9
v -9 4 9
v -9 9 9
v -9 10 9
v -9 15 9
v -9 16 9
v -9 21 9
v -9 22 9
v -9 27 9
v -9 28 9
v -9 33 9
v -9 34 9
v -9 39 9
v 9 0 9
v 9 3 9
v 9 4 9
v 9 9 9
v 9 10 9
v 9 15 9
v 9 16 9
v 9 21 9
v 9 22 9
v 9 27 9
v 9 28 9
v 9 33 9
v 9 34 9
v 9 39 9
v 10 0 9
v 10 3 9
v 10 4 9
v 10 9 9
v 10 10 9
v 10 15 9
v 10 16 9
v 10 21 9
v 10 22 9
v 10 27 9
v 10 28 9
v 10 33 9
v 10 34 9
v 10 39 9
v -10 0 -10
v -10 39 -10
v -10 40 -10
v -9 0 -10
v -9 3 -10
v -9 4 -10
v -9 9 -10
v -9 10 -10
v -9 15 -10
v -9 16 -10
v -9 21 -10
v -9 22 -10
v -9 27 -10
v -9 28 -10
v -9 33 -10
v -9 34 -10
v -9 39 -10
v 9 0 -10
v 9 3 -10
v 9 4 -10
v 9 9 -10
v 9 10 -10
v 9 15 -10
v 9 16 -10
v 9 21 -10
v 9 22 -10
v 9 27 -10
v 9 28 -10
v 9 33 -10
v 9 34 -10
v 9 39 -10
v 10 0 -10
v 10 39 -10
v 10 40 -10
v -10 0 10
v -9 0 10
v 9 0 10
v 10 0 10
v -10 0 9
v -9 0 9
v 9 0 9
v 10 0 9
v -10 0 -9
v -9 0 -9
v 9 0 -9
v 10 0 -9
v -10 0 -10
v -9 0 -10
v 9 0 -10
v 10 0 -10
v -9 3 10
v 9 3 10
v -10 3 9
v -9 3 9
v 9 3 9
v 10 3 9
v -10 3 -9
v -9 3 -9
v 9 3 -9
v 10 3 -9
v -9 3 -10
v 9 3 -10
v -9 9 10
v 9 9 10
v -10 9 9
v -9 9 9
v 9 9 9
v 10 9 9
v -10 9 -9
v -9 9 -9
v 9 9 -9
v 10 9 -9
v -9 9 -10
v 9 9 -10
v -9 15 10
v 9 15 10
v -10 15 9
v -9 15 9
v 9 15 9
v 10 15 9
v -10 15 -9
v -9 15 -9
v 9 15 -9
v 10 15 -9
v -9 15 -10
v 9 15 -10
v -9 21 10
v 9 21 10
v -10 21 9
v -9 21 9
v 9 21 9
v 10 21 9
v -10 21 -9
v -9 21 -9
v 9 21 -9
v 10 21 -9
v -9 21 -10
v 9 21 -10
v -9 27 10
v 9 27 10
v -10 27 9
v -9 27 9
v 9 27 9
v 10 27 9
v -10 27 -9
v -9 27 -9
v 9 27 -9
v 10 27 -9
v -9 27 -10
v 9 27 -10
v -9 33 10
v 9 33 10
v -10 33 9
v -9 33 9
v 9 33 9
v 10 33 9
v -10 33 -9
v -9 33 -9
v 9 33 -9
v 10 33 -9
v -9 33 -10
v 9 33 -10
v -9 39 10
v 9 39 10
v -10 39 9
v -9 39 9
v 9 39 9
v 10 39 9
v -10 39 -9
v -9 39 -9
v 9 39 -9
v 10 39 -9
v -9 39 -10
v 9 39 -10
v -9 4 10
v 9 4 10
v -10 4 9
v -9 4 9
v 9 4 9
v 10 4 9
v -10 4 -9
v -9 4 -9
v 9 4 -9
v 10 4 -9
v -9 4 -10
v 9 4 -10
v -9 10 10
v 9 10 10
v -10 10 9
v -9 10 9
v 9 10 9
v 10 10 9
v -10 10 -9
v -9 10 -9
v 9 10 -9
v 10 10 -9
v -9 10 -10
v 9 10 -10
v -9 16 10
v 9 16 10
v -10 16 9
v -9 16 9
v 9 16 9
v 10 16 9
v -10 16 -9
v -9 16 -9
v 9 16 -9
v 10 16 -9
v -9 16 -10
v 9 16 -10
v -9 22 10
v 9 22 10
v -10 22 9
v -9 22 9
v 9 22 9
v 10 22 9
v -10 22 -9
v -9 22 -9
v 9 22 -9
v 10 22 -9
v -9 22 -10
v 9 22 -10
v -9 28 10
v 9 28 10
v -10 28 9
v -9 28 9
v 9 28 9
v 10 28 9
v -10 28 -9
v -9 28 -9
v 9 28 -9
v 10 28 -9
v -9 28 -10
v 9 28 -10
v -9 34 10
v 9 34 10
v -10 34 9
v -9 34 9
v 9 34 9
v 10 34 9
v -10 34 -9
v -9 34 -9
v 9 34 -9
v 10 34 -9
v -9 34 -10
v 9 34 -10
v -10 40 10
v 10 40 10
v -10 40 -10
v 10 40 -10

# faces
f 5/2/1 2/2/1 1/2/1
f 6/1/1 4/1/1 3/1/1
f 7/2/1 5/2/1 1/2/1
f 7/2/1 6/2/1 5/2/1
f 8/1/1 4/1/1 6/1/1
f 8/2/1 6/2/1 7/2/1
f 9/2/1 7/2/1 1/2/1
f 10/1/1 4/1/1 8/1/1
f 11/2/1 9/2/1 1/2/1
f 11/2/1 10/2/1 9/2/1
f 12/1/1 4/1/1 10/1/1
f 12/2/1 10/2/1 11/2/1
f 13/2/1 11/2/1 1/2/1
f 14/1/1 4/1/1 12/1/1
f 15/2/1 13/2/1 1/2/1
f 15/2/1 14/2/1 13/2/1
f 16/1/1 4/1/1 14/1/1
f 16/2/1 14/2/1 15/2/1
f 17/2/1 15/2/1 1/2/1
f 18/1/1 4/1/1 16/1/1
f 19/2/1 17/2/1 1/2/1
f 19/2/1 18/2/1 17/2/1
f 20/1/1 4/1/1 18/1/1
f 20/2/1 18/2/1 19/2/1
f 21/2/1 19/2/1 1/2/1
f 22/1/1 4/1/1 20/1/1
f 23/2/1 21/2/1 1/2/1
f 23/2/1 22/2/1 21/2/1
f 24/1/1 4/1/1 22/1/1
f 24/2/1 22/2/1 23/2/1
f 25/2/1 23/2/1 1/2/1
f 26/1/1 4/1/1 24/1/1
f 27/2/1 25/2/1 1/2/1
f 27/2/1 26/2/1 25/2/1
f 28/1/1 4/1/1 26/1/1
f 28/2/1 26/2/1 27/2/1
f 29/2/1 27/2/1 1/2/1
f 30/1/1 4/1/1 28/1/1
f 31/1/1 4/1/1 30/1/1
f 32/2/1 29/2/1 1/2/1
f 32/2/1 30/2/1 29/2/1
f 32/2/1 31/2/1 30/2/1
f 33/2/1 31/2/1 32/2/1
f 38/2/1 35/2/1 34/2/1
f 39/2/1 35/2/1 38/2/1
f 40/1/1 37/1/1 36/1/1
f 41/1/1 37/1/1 40/1/1
f 46/2/1 43/2/1 42/2/1
f 47/2/1 43/2/1 46/2/1
f 48/1/1 45/1/1 44/1/1
f 49/1/1 45/1/1 48/1/1
f 54/2/1 51/2/1 50/2/1
f 55/2/1 51/2/1 54/2/1
f 56/1/1 53/1/1 52/1/1
f 57/1/1 53/1/1 56/1/1
f 62/2/1 59/2/1 58/2/1
f 63/2/1 59/2/1 62/2/1
f 64/1/1 61/1/1 60/1/1
f 65/1/1 61/1/1 64/1/1
f 70/2/1 67/2/1 66/2/1
f 71/2/1 67/2/1 70/2/1
f 72/1/1 69/1/1 68/1/1
f 73/1/1 69/1/1 72/1/1
f 78/2/1 75/2/1 74/2/1
f 79/2/1 75/2/1 78/2/1
f 80/1/1 77/1/1 76/1/1
f 81/1/1 77/1/1 80/1/1
f 86/2/1 83/2/1 82/2/1
f 87/2/1 83/2/1 86/2/1
f 88/1/1 85/1/1 84/1/1
f 89/1/1 85/1/1 88/1/1
f 90/2/2 91/2/2 94/2/2
f 94/2/2 91/2/2 95/2/2
f 92/1/2 93/1/2 96/1/2
f 96/1/2 93/1/2 97/1/2
f 98/2/2 99/2/2 102/2/2
f 102/2/2 99/2/2 103/2/2
f 100/1/2 101/1/2 104/1/2
f 104/1/2 101/1/2 105/1/2
f 106/2/2 107/2/2 110/2/2
f 110/2/2 107/2/2 111/2/2
f 108/1/2 109/1/2 112/1/2
f 112/1/2 109/1/2 113/1/2
f 114/2/2 115/2/2 118/2/2
f 118/2/2 115/2/2 119/2/2
f 116/1/2 117/1/2 120/1/2
f 120/1/2 117/1/2 121/1/2
f 122/2/2 123/2/2 126/2/2
f 126/2/2 123/2/2 127/2/2
f 124/1/2 125/1/2 128/1/2
f 128/1/2 125/1/2 129/1/2
f 130/2/2 131/2/2 134/2/2
f 134/2/2 131/2/2 135/2/2
f 132/1/2 133/1/2 136/1/2
f 136/1/2 133/1/2 137/1/2
f 138/2/2 139/2/2 142/2/2
f 142/2/2 139/2/2 143/2/2
f 140/1/2 141/1/2 144/1/2
f 144/1/2 141/1/2 145/1/2
f 146/2/2 147/2/2 150/2/2
f 148/1/2 149/1/2 151/1/2
f 146/2/2 150/2/2 152/2/2
f 150/2/2 151/2/2 152/2/2
f 151/1/2 149/1/2 153/1/2
f 152/2/2 151/2/2 153/2/2
f 146/2/2 152/2/2 154/2/2
f 153/1/2 149/1/2 155/1/2
f 146/2/2 154/2/2 156/2/2
f 154/2/2 155/2/2 156/2/2
f 155/1/2 149/1/2 157/1/2
f 156/2/2 155/2/2 157/2/2
f 146/2/2 156/2/2 158/2/2
f 157/1/2 149/1/2 159/1/2
f 146/2/2 158/2/2 160/2/2
f 158/2/2 159/2/2 160/2/2
f 159/1/2 149/1/2 161/1/2
f 160/2/2 159/2/2 161/2/2
f 146/2/2 160/2/2 162/2/2
f 161/1/2 149/1/2 163/1/2
f 146/2/2 162/2/2 164/2/2
f 162/2/2 163/2/2 164/2/2
f 163/1/2 149/1/2 165/1/2
f 164/2/2 163/2/2 165/2/2
f 146/2/2 164/2/2 166/2/2
f 165/1/2 149/1/2 167/1/2
f 146/2/2 166/2/2 168/2/2
f 166/2/2 167/2/2 168/2/2
f 167/1/2 149/1/2 169/1/2
f 168/2/2 167/2/2 169/2/2
f 146/2/2 168/2/2 170/2/2
f 169/1/2 149/1/2 171/1/2
f 146/2/2 170/2/2 172/2/2
f 170/2/2 171/2/2 172/2/2
f 171/1/2 149/1/2 173/1/2
f 172/2/2 171/2/2 173/2/2
f 146/2/2 172/2/2 174/2/2
f 173/1/2 149/1/2 175/1/2
f 175/1/2 149/1/2 176/1/2
f 146/2/2 174/2/2 177/2/2
f 174/2/2 175/2/2 177/2/2
f 175/2/2 176/2/2 177/2/2
f 177/2/2 176/2/2 178/2/2
f 181/2/3 180/2/3 179/2/3
f 182/2/3 180/2/3 181/2/3
f 183/2/3 180/2/3 182/2/3
f 184/2/3 180/2/3 183/2/3
f 185/2/3 180/2/3 184/2/3
f 186/2/3 180/2/3 185/2/3
f 187/2/3 180/2/3 186/2/3
f 188/2/3 180/2/3 187/2/3
f 189/2/3 180/2/3 188/2/3
f 190/2/3 180/2/3 189/2/3
f 191/2/3 180/2/3 190/2/3
f 192/2/3 180/2/3 191/2/3
f 193/2/3 180/2/3 192/2/3
f 194/2/3 180/2/3 193/2/3
f 196/2/3 183/2/3 182/2/3
f 197/2/3 183/2/3 196/2/3
f 198/2/3 185/2/3 184/2/3
f 199/2/3 185/2/3 198/2/3
f 200/2/3 187/2/3 186/2/3
f 201/2/3 187/2/3 200/2/3
f 202/2/3 189/2/3 188/2/3
f 203/2/3 189/2/3 202/2/3
f 204/2/3 191/2/3 190/2/3
f 205/2/3 191/2/3 204/2/3
f 206/2/3 193/2/3 192/2/3
f 207/2/3 193/2/3 206/2/3
f 208/2/3 180/2/3 194/2/3
f 209/2/3 207/2/3 206/2/3
f 209/2/3 208/2/3 207/2/3
f 209/2/3 201/2/3 200/2/3
f 209/2/3 205/2/3 204/2/3
f 209/2/3 206/2/3 205/2/3
f 209/2/3 197/2/3 196/2/3
f 209/2/3 204/2/3 203/2/3
f 209/2/3 203/2/3 202/2/3
f 209/2/3 202/2/3 201/2/3
f 209/2/3 199/2/3 198/2/3
f 209/2/3 200/2/3 199/2/3
f 209/2/3 196/2/3 195/2/3
f 209/2/3 198/2/3 197/2/3
f 210/2/3 180/2/3 208/2/3
f 210/2/3 208/2/3 209/2/3
f 225/1/3 212/1/3 211/1/3
f 226/1/3 212/1/3 225/1/3
f 227/1/3 214/1/3 213/1/3
f 228/1/3 214/1/3 227/1/3
f 229/1/3 216/1/3 215/1/3
f 230/1/3 216/1/3 229/1/3
f 231/1/3 218/1/3 217/1/3
f 232/1/3 218/1/3 231/1/3
f 233/1/3 220/1/3 219/1/3
f 234/1/3 220/1/3 233/1/3
f 235/1/3 222/1/3 221/1/3
f 236/1/3 222/1/3 235/1/3
f 237/1/3 224/1/3 223/1/3
f 238/1/3 224/1/3 237/1/3
f 253/1/3 240/1/3 239/1/3
f 254/1/3 240/1/3 253/1/3
f 255/1/3 242/1/3 241/1/3
f 256/1/3 242/1/3 255/1/3
f 257/1/3 244/1/3 243/1/3
f 258/1/3 244/1/3 257/1/3
f 259/1/3 246/1/3 245/1/3
f 260/1/3 246/1/3 259/1/3
f 261/1/3 248/1/3 247/1/3
f 262/1/3 248/1/3 261/1/3
f 263/1/3 250/1/3 249/1/3
f 264/1/3 250/1/3 263/1/3
f 265/1/3 252/1/3 251/1/3
f 266/1/3 252/1/3 265/1/3
f 267/2/4 268/2/4 281/2/4
f 281/2/4 268/2/4 282/2/4
f 269/2/4 270/2/4 283/2/4
f 283/2/4 270/2/4 284/2/4
f 271/2/4 272/2/4 285/2/4
f 285/2/4 272/2/4 286/2/4
f 273/2/4 274/2/4 287/2/4
f 287/2/4 274/2/4 288/2/4
f 275/2/4 276/2/4 289/2/4
f 289/2/4 276/2/4 290/2/4
f 277/2/4 278/2/4 291/2/4
f 291/2/4 278/2/4 292/2/4
f 279/2/4 280/2/4 293/2/4
f 293/2/4 280/2/4 294/2/4
f 295/2/4 296/2/4 309/2/4
f 309/2/4 296/2/4 310/2/4
f 297/2/4 298/2/4 311/2/4
f 311/2/4 298/2/4 312/2/4
f 299/2/4 300/2/4 313/2/4
f 313/2/4 300/2/4 314/2/4
f 301/2/4 302/2/4 315/2/4
f 315/2/4 302/2/4 316/2/4
f 303/2/4 304/2/4 317/2/4
f 317/2/4 304/2/4 318/2/4
f 305/2/4 306/2/4 319/2/4
f 319/2/4 306/2/4 320/2/4
f 307/2/4 308/2/4 321/2/4
f 321/2/4 308/2/4 322/2/4
f 323/1/4 324/1/4 326/1/4
f 326/1/4 324/1/4 327/1/4
f 327/1/4 324/1/4 328/1/4
f 328/1/4 324/1/4 329/1/4
f 329/1/4 324/1/4 330/1/4
f 330/1/4 324/1/4 331/1/4
f 331/1/4 324/1/4 332/1/4
f 332/1/4 324/1/4 333/1/4
f 333/1/4 324/1/4 334/1/4
f 334/1/4 324/1/4 335/1/4
f 335/1/4 324/1/4 336/1/4
f 336/1/4 324/1/4 337/1/4
f 337/1/4 324/1/4 338/1/4
f 324/2/4 325/2/4 339/2/4
f 338/1/4 324/1/4 339/1/4
f 327/2/4 328/2/4 341/2/4
f 341/2/4 328/2/4 342/2/4
f 329/2/4 330/2/4 343/2/4
f 343/2/4 330/2/4 344/2/4
f 331/2/4 332/2/4 345/2/4
f 345/2/4 332/2/4 346/2/4
f 333/2/4 334/2/4 347/2/4
f 347/2/4 334/2/4 348/2/4
f 335/2/4 336/2/4 349/2/4
f 349/2/4 336/2/4 350/2/4
f 337/2/4 338/2/4 351/2/4
f 351/2/4 338/2/4 352/2/4
f 339/2/4 325/2/4 353/2/4
f 349/1/4 350/1/4 354/1/4
f 352/1/4 353/1/4 354/1/4
f 351/1/4 352/1/4 354/1/4
f 343/1/4 344/1/4 354/1/4
f 350/1/4 351/1/4 354/1/4
f 347/1/4 348/1/4 354/1/4
f 348/1/4 349/1/4 354/1/4
f 341/1/4 342/1/4 354/1/4
f 346/1/4 347/1/4 354/1/4
f 345/1/4 346/1/4 354/1/4
f 344/1/4 345/1/4 354/1/4
f 340/1/4 341/1/4 354/1/4
f 342/1/4 343/1/4 354/1/4
f 353/2/4 325/2/4 355/2/4
f 354/1/4 353/1/4 355/1/4
f 355/2/4 325/2/4 356/2/4
f 361/2/5 358/2/5 357/2/5
f 362/2/5 358/2/5 361/2/5
f 363/2/5 360/2/5 359/2/5
f 364/2/5 360/2/5 363/2/5
f 369/1/5 366/1/5 365/1/5
f 370/1/5 366/1/5 369/1/5
f 371/1/5 368/1/5 367/1/5
f 372/1/5 368/1/5 371/1/5
f 376/2/5 374/2/5 373/2/5
f 377/2/5 374/2/5 376/2/5
f 379/2/5 376/2/5 375/2/5
f 379/2/5 378/2/5 377/2/5
f 379/2/5 377/2/5 376/2/5
f 380/2/5 378/2/5 379/2/5
f 381/2/5 378/2/5 380/2/5
f 382/2/5 378/2/5 381/2/5
f 383/2/5 381/2/5 380/2/5
f 384/2/5 381/2/5 383/2/5
f 388/2/5 386/2/5 385/2/5
f 389/2/5 386/2/5 388/2/5
f 391/2/5 388/2/5 387/2/5
f 391/2/5 390/2/5 389/2/5
f 391/2/5 389/2/5 388/2/5
f 392/2/5 390/2/5 391/2/5
f 393/2/5 390/2/5 392/2/5
f 394/2/5 390/2/5 393/2/5
f 395/2/5 393/2/5 392/2/5
f 396/2/5 393/2/5 395/2/5
f 400/2/5 398/2/5 397/2/5
f 401/2/5 398/2/5 400/2/5
f 403/2/5 400/2/5 399/2/5
f 403/2/5 402/2/5 401/2/5
f 403/2/5 401/2/5 400/2/5
f 404/2/5 402/2/5 403/2/5
f 405/2/5 402/2/5 404/2/5
f 406/2/5 402/2/5 405/2/5
f 407/2/5 405/2/5 404/2/5
f 408/2/5 405/2/5 407/2/5
f 412/2/5 410/2/5 409/2/5
f 413/2/5 410/2/5 412/2/5
f 415/2/5 412/2/5 411/2/5
f 415/2/5 414/2/5 413/2/5
f 415/2/5 413/2/5 412/2/5
f 416/2/5 414/2/5 415/2/5
f 417/2/5 414/2/5 416/2/5
f 418/2/5 414/2/5 417/2/5
f 419/2/5 417/2/5 416/2/5
f 420/2/5 417/2/5 419/2/5
f 424/2/5 422/2/5 421/2/5
f 425/2/5 422/2/5 424/2/5
f 427/2/5 424/2/5 423/2/5
f 427/2/5 426/2/5 425/2/5
f 427/2/5 425/2/5 424/2/5
f 428/2/5 426/2/5 427/2/5
f 429/2/5 426/2/5 428/2/5
f 430/2/5 426/2/5 429/2/5
f 431/2/5 429/2/5 428/2/5
f 432/2/5 429/2/5 431/2/5
f 436/2/5 434/2/5 433/2/5
f 437/2/5 434/2/5 436/2/5
f 439/2/5 436/2/5 435/2/5
f 439/2/5 438/2/5 437/2/5
f 439/2/5 437/2/5 436/2/5
f 440/2/5 438/2/5 439/2/5
f 441/2/5 438/2/5 440/2/5
f 442/2/5 438/2/5 441/2/5
f 443/2/5 441/2/5 440/2/5
f 444/2/5 441/2/5 443/2/5
f 448/2/5 446/2/5 445/2/5
f 449/2/5 446/2/5 448/2/5
f 451/2/5 448/2/5 447/2/5
f 451/2/5 450/2/5 449/2/5
f 451/2/5 449/2/5 448/2/5
f 452/2/5 450/2/5 451/2/5
f 453/2/5 450/2/5 452/2/5
f 454/2/5 450/2/5 453/2/5
f 455/2/5 453/2/5 452/2/5
f 456/2/5 453/2/5 455/2/5
f 457/2/6 458/2/6 460/2/6
f 460/2/6 458/2/6 461/2/6
f 459/2/6 460/2/6 463/2/6
f 461/2/6 462/2/6 463/2/6
f 460/2/6 461/2/6 463/2/6
f 463/2/6 462/2/6 464/2/6
f 464/2/6 462/2/6 465/2/6
f 465/2/6 462/2/6 466/2/6
f 464/2/6 465/2/6 467/2/6
f 467/2/6 465/2/6 468/2/6
f 469/2/6 470/2/6 472/2/6
f 472/2/6 470/2/6 473/2/6
f 471/2/6 472/2/6 475/2/6
f 473/2/6 474/2/6 475/2/6
f 472/2/6 473/2/6 475/2/6
f 475/2/6 474/2/6 476/2/6
f 476/2/6 474/2/6 477/2/6
f 477/2/6 474/2/6 478/2/6
f 476/2/6 477/2/6 479/2/6
f 479/2/6 477/2/6 480/2/6
f 481/2/6 482/2/6 484/2/6
f 484/2/6 482/2/6 485/2/6
f 483/2/6 484/2/6 487/2/6
f 485/2/6 486/2/6 487/2/6
f 484/2/6 485/2/6 487/2/6
f 487/2/6 486/2/6 488/2/6
f 488/2/6 486/2/6 489/2/6
f 489/2/6 486/2/6 490/2/6
f 488/2/6 489/2/6 491/2/6
f 491/2/6 489/2/6 492/2/6
f 493/2/6 494/2/6 496/2/6
f 496/2/6 494/2/6 497/2/6
f 495/2/6 496/2/6 499/2/6
f 497/2/6 498/2/6 499/2/6
f 496/2/6 497/2/6 499/2/6
f 499/2/6 498/2/6 500/2/6
f 500/2/6 498/2/6 501/2/6
f 501/2/6 498/2/6 502/2/6
f 500/2/6 501/2/6 503/2/6
f 503/2/6 501/2/6 504/2/6
f 505/2/6 506/2/6 508/2/6
f 508/2/6 506/2/6 509/2/6
f 507/2/6 508/2/6 511/2/6
f 509/2/6 510/2/6 511/2/6
f 508/2/6 509/2/6 511/2/6
f 511/2/6 510/2/6 512/2/6
f 512/2/6 510/2/6 513/2/6
f 513/2/6 510/2/6 514/2/6
f 512/2/6 513/2/6 515/2/6
f 515/2/6 513/2/6 516/2/6
f 517/2/6 518/2/6 520/2/6
f 520/2/6 518/2/6 521/2/6
f 519/2/6 520/2/6 523/2/6
f 521/2/6 522/2/6 523/2/6
f 520/2/6 521/2/6 523/2/6
f 523/2/6 522/2/6 524/2/6
f 524/2/6 522/2/6 525/2/6
f 525/2/6 522/2/6 526/2/6
f 524/2/6 525/2/6 527/2/6
f 527/2/6 525/2/6 528/2/6
f 529/2/6 530/2/6 531/2/6
f 531/2/6 530/2/6 532/2/6
