# MagicaVoxel @ Ephtracy

# material
mtllib Building07.mtl
usemtl palette

# normals
vn -1 0 0
vn 1 0 0
vn 0 0 1
vn 0 0 -1
vn 0 -1 0
vn 0 1 0

# texcoords
vt 0.798828 0.5
vt 0.849609 0.5
vt 0.888672 0.5
vt 0.939453 0.5
vt 0.943359 0.5
vt 0.947266 0.5
vt 0.951172 0.5
vt 0.970703 0.5
vt 0.982422 0.5

# verts
v -10 0 -0
v -10 0 -10
v -10 1 -0
v -10 1 -10
v -10 3 -2
v -10 3 -8
v -10 9 -2
v -10 9 -8
v -10 10 -0
v -10 10 -10
v -10 11 -0
v -10 11 -10
v -9 3 -2
v -9 3 -8
v -9 9 -2
v -9 9 -8
v -2 0 9
v -2 0 1
v -2 1 9
v -2 1 1
v -2 3 -0
v -2 3 -1
v -2 9 -0
v -2 9 -1
v -1 3 -9
v -1 3 -10
v -1 9 -9
v -1 9 -10
v 0 0 10
v 0 0 9
v 0 0 1
v 0 0 -0
v 0 1 10
v 0 1 9
v 0 1 8
v 0 1 2
v 0 1 1
v 0 1 -0
v 0 9 8
v 0 9 2
v 0 10 10
v 0 10 -0
v 0 11 10
v 0 11 -0
v 1 1 8
v 1 1 2
v 1 9 8
v 1 9 2
v 8 3 10
v 8 3 9
v 8 3 -9
v 8 3 -10
v 8 9 10
v 8 9 9
v 8 9 -9
v 8 9 -10
v -8 3 -0
v -8 3 -1
v -8 3 -9
v -8 3 -10
v -8 9 -0
v -8 9 -1
v -8 9 -9
v -8 9 -10
v 1 3 -9
v 1 3 -10
v 1 9 -9
v 1 9 -10
v 2 3 10
v 2 3 9
v 2 9 10
v 2 9 9
v 9 3 8
v 9 3 1
v 9 3 -1
v 9 3 -8
v 9 9 8
v 9 9 1
v 9 9 -1
v 9 9 -8
v 10 0 10
v 10 0 -10
v 10 1 10
v 10 1 -10
v 10 3 8
v 10 3 1
v 10 3 -1
v 10 3 -8
v 10 9 8
v 10 9 1
v 10 9 -1
v 10 9 -8
v 10 10 10
v 10 10 -10
v 10 11 10
v 10 11 -10
v 0 0 10
v 0 1 10
v 0 10 10
v 0 11 10
v 2 3 10
v 2 9 10
v 8 3 10
v 8 9 10
v 10 0 10
v 10 1 10
v 10 10 10
v 10 11 10
v -2 0 9
v -2 1 9
v 0 0 9
v 0 1 9
v 2 3 9
v 2 9 9
v 8 3 9
v 8 9 9
v 0 1 2
v 0 9 2
v 1 1 2
v 1 9 2
v 9 3 1
v 9 9 1
v 10 3 1
v 10 9 1
v -10 0 -0
v -10 1 -0
v -10 10 -0
v -10 11 -0
v -8 3 -0
v -8 9 -0
v -2 3 -0
v -2 9 -0
v 0 0 -0
v 0 1 -0
v 0 10 -0
v 0 11 -0
v -8 3 -1
v -8 9 -1
v -2 3 -1
v -2 9 -1
v -10 3 -8
v -10 9 -8
v -9 3 -8
v -9 9 -8
v 9 3 -8
v 9 9 -8
v 10 3 -8
v 10 9 -8
v 0 1 8
v 0 9 8
v 1 1 8
v 1 9 8
v 9 3 8
v 9 9 8
v 10 3 8
v 10 9 8
v -2 0 1
v -2 1 1
v 0 0 1
v 0 1 1
v 9 3 -1
v 9 9 -1
v 10 3 -1
v 10 9 -1
v -10 3 -2
v -10 9 -2
v -9 3 -2
v -9 9 -2
v -8 3 -9
v -8 9 -9
v -1 3 -9
v -1 9 -9
v 1 3 -9
v 1 9 -9
v 8 3 -9
v 8 9 -9
v -10 0 -10
v -10 1 -10
v -10 10 -10
v -10 11 -10
v -8 3 -10
v -8 9 -10
v -1 3 -10
v -1 9 -10
v 1 3 -10
v 1 9 -10
v 8 3 -10
v 8 9 -10
v 10 0 -10
v 10 1 -10
v 10 10 -10
v 10 11 -10
v 0 0 10
v 10 0 10
v -2 0 9
v 0 0 9
v 9 0 9
v -1 0 8
v 0 0 8
v 1 0 8
v -1 0 2
v 0 0 2
v 1 0 2
v -2 0 1
v 0 0 1
v 1 0 1
v -10 0 -0
v 0 0 -0
v 1 0 -0
v -9 0 -1
v 0 0 -1
v -9 0 -9
v 9 0 -9
v -10 0 -10
v 10 0 -10
v 2 9 10
v 8 9 10
v 2 9 9
v 8 9 9
v 0 9 8
v 1 9 8
v 9 9 8
v 10 9 8
v 0 9 2
v 1 9 2
v 9 9 1
v 10 9 1
v -8 9 -0
v -2 9 -0
v -8 9 -1
v -2 9 -1
v 9 9 -1
v 10 9 -1
v -10 9 -2
v -9 9 -2
v -10 9 -8
v -9 9 -8
v 9 9 -8
v 10 9 -8
v -8 9 -9
v -1 9 -9
v 1 9 -9
v 8 9 -9
v -8 9 -10
v -1 9 -10
v 1 9 -10
v 8 9 -10
v -2 1 9
v 0 1 9
v -1 1 8
v 0 1 8
v 1 1 8
v -1 1 2
v 0 1 2
v 1 1 2
v -2 1 1
v 0 1 1
v 2 3 10
v 8 3 10
v 2 3 9
v 8 3 9
v 9 3 8
v 10 3 8
v 9 3 1
v 10 3 1
v -8 3 -0
v -2 3 -0
v -8 3 -1
v -2 3 -1
v 9 3 -1
v 10 3 -1
v -10 3 -2
v -9 3 -2
v -10 3 -8
v -9 3 -8
v 9 3 -8
v 10 3 -8
v -8 3 -9
v -1 3 -9
v 1 3 -9
v 8 3 -9
v -8 3 -10
v -1 3 -10
v 1 3 -10
v 8 3 -10
v 0 11 10
v 10 11 10
v 1 11 9
v 9 11 9
v -10 11 -0
v 0 11 -0
v -9 11 -1
v -3 11 -1
v 1 11 -1
v -3 11 -5
v 1 11 -5
v 9 11 -5
v -9 11 -9
v -3 11 -9
v 9 11 -9
v -10 11 -10
v 10 11 -10

# faces
f 3/3/1 2/3/1 1/3/1
f 4/3/1 2/3/1 3/3/1
f 5/1/1 4/1/1 3/1/1
f 6/1/1 4/1/1 5/1/1
f 7/1/1 5/1/1 3/1/1
f 8/1/1 4/1/1 6/1/1
f 9/1/1 7/1/1 3/1/1
f 9/1/1 8/1/1 7/1/1
f 10/1/1 4/1/1 8/1/1
f 10/1/1 8/1/1 9/1/1
f 11/8/1 10/8/1 9/8/1
f 12/8/1 10/8/1 11/8/1
f 15/2/1 14/2/1 13/2/1
f 16/2/1 14/2/1 15/2/1
f 19/3/1 18/3/1 17/3/1
f 20/3/1 18/3/1 19/3/1
f 23/1/1 22/1/1 21/1/1
f 24/1/1 22/1/1 23/1/1
f 27/1/1 26/1/1 25/1/1
f 28/1/1 26/1/1 27/1/1
f 33/3/1 30/3/1 29/3/1
f 34/3/1 30/3/1 33/3/1
f 37/1/1 32/1/1 31/1/1
f 38/1/1 32/1/1 37/1/1
f 39/1/1 35/1/1 34/1/1
f 39/1/1 34/1/1 33/1/1
f 40/1/1 38/1/1 37/1/1
f 40/1/1 37/1/1 36/1/1
f 41/1/1 39/1/1 33/1/1
f 41/1/1 40/1/1 39/1/1
f 42/1/1 38/1/1 40/1/1
f 42/1/1 40/1/1 41/1/1
f 43/8/1 42/8/1 41/8/1
f 44/8/1 42/8/1 43/8/1
f 47/2/1 46/2/1 45/2/1
f 48/2/1 46/2/1 47/2/1
f 53/1/1 50/1/1 49/1/1
f 54/1/1 50/1/1 53/1/1
f 55/1/1 52/1/1 51/1/1
f 56/1/1 52/1/1 55/1/1
f 57/1/2 58/1/2 61/1/2
f 61/1/2 58/1/2 62/1/2
f 59/1/2 60/1/2 63/1/2
f 63/1/2 60/1/2 64/1/2
f 65/1/2 66/1/2 67/1/2
f 67/1/2 66/1/2 68/1/2
f 69/1/2 70/1/2 71/1/2
f 71/1/2 70/1/2 72/1/2
f 73/2/2 74/2/2 77/2/2
f 77/2/2 74/2/2 78/2/2
f 75/2/2 76/2/2 79/2/2
f 79/2/2 76/2/2 80/2/2
f 81/3/2 82/3/2 83/3/2
f 83/3/2 82/3/2 84/3/2
f 83/1/2 84/1/2 85/1/2
f 85/1/2 84/1/2 86/1/2
f 86/1/2 84/1/2 87/1/2
f 87/1/2 84/1/2 88/1/2
f 83/1/2 85/1/2 89/1/2
f 86/1/2 87/1/2 90/1/2
f 90/1/2 87/1/2 91/1/2
f 88/1/2 84/1/2 92/1/2
f 90/1/2 91/1/2 93/1/2
f 91/1/2 92/1/2 93/1/2
f 83/1/2 89/1/2 93/1/2
f 89/1/2 90/1/2 93/1/2
f 92/1/2 84/1/2 94/1/2
f 93/1/2 92/1/2 94/1/2
f 93/8/2 94/8/2 95/8/2
f 95/8/2 94/8/2 96/8/2
f 101/1/3 99/1/3 98/1/3
f 102/1/3 99/1/3 101/1/3
f 103/1/3 101/1/3 98/1/3
f 104/1/3 99/1/3 102/1/3
f 105/3/3 98/3/3 97/3/3
f 106/1/3 104/1/3 103/1/3
f 106/3/3 98/3/3 105/3/3
f 106/1/3 103/1/3 98/1/3
f 107/8/3 100/8/3 99/8/3
f 107/1/3 104/1/3 106/1/3
f 107/1/3 99/1/3 104/1/3
f 108/8/3 100/8/3 107/8/3
f 111/3/3 110/3/3 109/3/3
f 112/3/3 110/3/3 111/3/3
f 115/2/3 114/2/3 113/2/3
f 116/2/3 114/2/3 115/2/3
f 119/1/3 118/1/3 117/1/3
f 120/1/3 118/1/3 119/1/3
f 123/1/3 122/1/3 121/1/3
f 124/1/3 122/1/3 123/1/3
f 129/1/3 127/1/3 126/1/3
f 130/1/3 127/1/3 129/1/3
f 131/1/3 129/1/3 126/1/3
f 132/1/3 127/1/3 130/1/3
f 133/3/3 126/3/3 125/3/3
f 134/1/3 132/1/3 131/1/3
f 134/3/3 126/3/3 133/3/3
f 134/1/3 131/1/3 126/1/3
f 135/8/3 128/8/3 127/8/3
f 135/1/3 132/1/3 134/1/3
f 135/1/3 127/1/3 132/1/3
f 136/8/3 128/8/3 135/8/3
f 139/2/3 138/2/3 137/2/3
f 140/2/3 138/2/3 139/2/3
f 143/1/3 142/1/3 141/1/3
f 144/1/3 142/1/3 143/1/3
f 147/1/3 146/1/3 145/1/3
f 148/1/3 146/1/3 147/1/3
f 149/1/4 150/1/4 151/1/4
f 151/1/4 150/1/4 152/1/4
f 153/1/4 154/1/4 155/1/4
f 155/1/4 154/1/4 156/1/4
f 157/3/4 158/3/4 159/3/4
f 159/3/4 158/3/4 160/3/4
f 161/1/4 162/1/4 163/1/4
f 163/1/4 162/1/4 164/1/4
f 165/1/4 166/1/4 167/1/4
f 167/1/4 166/1/4 168/1/4
f 169/2/4 170/2/4 171/2/4
f 171/2/4 170/2/4 172/2/4
f 173/2/4 174/2/4 175/2/4
f 175/2/4 174/2/4 176/2/4
f 178/1/4 179/1/4 181/1/4
f 181/1/4 179/1/4 182/1/4
f 178/1/4 181/1/4 183/1/4
f 182/1/4 179/1/4 184/1/4
f 178/1/4 183/1/4 185/1/4
f 183/1/4 184/1/4 185/1/4
f 184/1/4 179/1/4 186/1/4
f 185/1/4 184/1/4 186/1/4
f 178/1/4 185/1/4 187/1/4
f 186/1/4 179/1/4 188/1/4
f 177/3/4 178/3/4 189/3/4
f 187/1/4 188/1/4 190/1/4
f 189/3/4 178/3/4 190/3/4
f 178/1/4 187/1/4 190/1/4
f 179/8/4 180/8/4 191/8/4
f 190/1/4 188/1/4 191/1/4
f 188/1/4 179/1/4 191/1/4
f 191/8/4 180/8/4 192/8/4
f 196/3/5 194/3/5 193/3/5
f 197/3/5 194/3/5 196/3/5
f 198/3/5 196/3/5 195/3/5
f 199/9/5 197/9/5 196/9/5
f 199/3/5 196/3/5 198/3/5
f 200/9/5 197/9/5 199/9/5
f 201/3/5 198/3/5 195/3/5
f 201/1/5 199/1/5 198/1/5
f 201/1/5 200/1/5 199/1/5
f 202/1/5 200/1/5 201/1/5
f 203/9/5 197/9/5 200/9/5
f 203/1/5 200/1/5 202/1/5
f 204/3/5 202/3/5 201/3/5
f 204/3/5 201/3/5 195/3/5
f 205/9/5 203/9/5 202/9/5
f 205/3/5 202/3/5 204/3/5
f 206/9/5 197/9/5 203/9/5
f 206/9/5 203/9/5 205/9/5
f 208/1/5 206/1/5 205/1/5
f 209/9/5 197/9/5 206/9/5
f 209/1/5 206/1/5 208/1/5
f 210/3/5 208/3/5 207/3/5
f 211/9/5 209/9/5 208/9/5
f 211/3/5 208/3/5 210/3/5
f 212/3/5 210/3/5 207/3/5
f 212/9/5 211/9/5 210/9/5
f 213/3/5 194/3/5 197/3/5
f 213/9/5 211/9/5 212/9/5
f 213/9/5 197/9/5 209/9/5
f 213/9/5 209/9/5 211/9/5
f 214/3/5 212/3/5 207/3/5
f 214/3/5 213/3/5 212/3/5
f 215/3/5 194/3/5 213/3/5
f 215/3/5 213/3/5 214/3/5
f 218/1/5 217/1/5 216/1/5
f 219/1/5 217/1/5 218/1/5
f 224/1/5 221/1/5 220/1/5
f 225/1/5 221/1/5 224/1/5
f 226/1/5 223/1/5 222/1/5
f 227/1/5 223/1/5 226/1/5
f 230/1/5 229/1/5 228/1/5
f 231/1/5 229/1/5 230/1/5
f 236/1/5 235/1/5 234/1/5
f 237/1/5 235/1/5 236/1/5
f 238/1/5 233/1/5 232/1/5
f 239/1/5 233/1/5 238/1/5
f 244/1/5 241/1/5 240/1/5
f 245/1/5 241/1/5 244/1/5
f 246/1/5 243/1/5 242/1/5
f 247/1/5 243/1/5 246/1/5
f 248/3/6 249/3/6 250/3/6
f 250/3/6 249/3/6 251/3/6
f 248/3/6 250/3/6 253/3/6
f 251/1/6 252/1/6 253/1/6
f 250/1/6 251/1/6 253/1/6
f 253/1/6 252/1/6 254/1/6
f 254/1/6 252/1/6 255/1/6
f 248/3/6 253/3/6 256/3/6
f 253/3/6 254/3/6 256/3/6
f 256/3/6 254/3/6 257/3/6
f 258/1/6 259/1/6 260/1/6
f 260/1/6 259/1/6 261/1/6
f 262/1/6 263/1/6 264/1/6
f 264/1/6 263/1/6 265/1/6
f 266/1/6 267/1/6 268/1/6
f 268/1/6 267/1/6 269/1/6
f 272/1/6 273/1/6 274/1/6
f 274/1/6 273/1/6 275/1/6
f 270/1/6 271/1/6 276/1/6
f 276/1/6 271/1/6 277/1/6
f 278/1/6 279/1/6 282/1/6
f 282/1/6 279/1/6 283/1/6
f 280/1/6 281/1/6 284/1/6
f 284/1/6 281/1/6 285/1/6
f 286/8/6 287/8/6 288/8/6
f 288/8/6 287/8/6 289/8/6
f 286/8/6 288/8/6 291/8/6
f 290/8/6 291/8/6 292/8/6
f 292/8/6 291/8/6 293/8/6
f 288/7/6 289/7/6 294/7/6
f 293/8/6 291/8/6 294/8/6
f 291/8/6 288/8/6 294/8/6
f 292/5/6 293/5/6 295/5/6
f 293/4/6 294/4/6 295/4/6
f 294/7/6 289/7/6 296/7/6
f 295/4/6 294/4/6 296/4/6
f 289/8/6 287/8/6 297/8/6
f 296/7/6 289/7/6 297/7/6
f 292/5/6 295/5/6 298/5/6
f 290/8/6 292/8/6 298/8/6
f 295/6/6 296/6/6 299/6/6
f 298/5/6 295/5/6 299/5/6
f 296/6/6 297/6/6 299/6/6
f 297/8/6 287/8/6 300/8/6
f 299/6/6 297/6/6 300/6/6
f 290/8/6 298/8/6 301/8/6
f 298/8/6 299/8/6 301/8/6
f 299/8/6 300/8/6 301/8/6
f 300/8/6 287/8/6 302/8/6
f 301/8/6 300/8/6 302/8/6
