# MagicaVoxel @ Ephtracy

# material
mtllib House06.mtl
usemtl palette

# normals
vn -1 0 0
vn 1 0 0
vn 0 0 1
vn 0 0 -1
vn 0 -1 0
vn 0 1 0

# texcoords
vt 0.783203 0.5
vt 0.787109 0.5
vt 0.794922 0.5
vt 0.849609 0.5
vt 0.943359 0.5
vt 0.947266 0.5
vt 0.951172 0.5
vt 0.982422 0.5
vt 0.986328 0.5
vt 0.990234 0.5

# verts
v -15 0 -1
v -15 0 -7
v -15 3 -1
v -15 3 -4
v -15 5 -1
v -15 5 -4
v -15 5 -7
v -15 12 10
v -15 12 -10
v -15 13 10
v -15 13 -10
v -14 0 9
v -14 0 -1
v -14 0 -7
v -14 0 -9
v -14 3 -1
v -14 5 -1
v -14 5 -4
v -14 5 -7
v -14 12 9
v -14 12 -9
v -14 13 9
v -14 13 -9
v -14 14 9
v -14 14 -9
v -13 0 -9
v -13 0 -10
v -13 3 -9
v -13 3 -10
v -13 14 8
v -13 14 4
v -13 14 2
v -13 14 -8
v -13 15 8
v -13 15 4
v -13 15 2
v -13 15 -8
v -12 15 7
v -12 15 5
v -12 15 1
v -12 15 -7
v -12 16 7
v -12 16 5
v -12 16 1
v -12 16 -7
v -11 16 -0
v -11 16 -6
v -11 17 -0
v -11 17 -6
v -10 17 -1
v -10 17 -5
v -10 18 -1
v -10 18 -5
v -9 18 -2
v -9 18 -4
v -9 19 -2
v -9 19 -4
v -6 4 -8
v -6 4 -9
v -6 11 -8
v -6 11 -9
v -2 0 9
v -2 0 8
v -2 10 9
v -2 10 8
v 1 0 4
v 1 0 3
v 1 1 4
v 1 1 3
v 4 4 -8
v 4 4 -9
v 4 11 -8
v 4 11 -9
v 7 1 3
v 7 1 2
v 7 11 3
v 7 11 2
v 9 0 4
v 9 0 3
v 9 4 4
v 9 4 3
v 13 4 -8
v 13 4 -9
v 13 5 3
v 13 5 2
v 13 11 3
v 13 11 2
v 13 11 -8
v 13 11 -9
v -13 4 -8
v -13 4 -9
v -13 11 -8
v -13 11 -9
v -12 0 9
v -12 0 8
v -12 10 9
v -12 10 8
v -5 4 -8
v -5 4 -9
v -5 11 -8
v -5 11 -9
v -2 15 7
v -2 15 5
v -2 16 7
v -2 16 5
v -1 2 8
v -1 2 4
v -1 11 8
v -1 11 4
v -1 14 8
v -1 14 4
v -1 15 8
v -1 15 4
v 0 0 9
v 0 0 3
v 0 2 8
v 0 2 4
v 0 11 8
v 0 11 4
v 0 12 9
v 0 12 3
v 0 13 9
v 0 13 3
v 0 14 9
v 0 14 3
v 1 12 10
v 1 12 4
v 1 13 10
v 1 13 4
v 2 1 3
v 2 1 2
v 2 11 3
v 2 11 2
v 5 4 -8
v 5 4 -9
v 5 11 -8
v 5 11 -9
v 8 0 4
v 8 0 3
v 8 1 4
v 8 1 3
v 8 5 3
v 8 5 2
v 8 11 3
v 8 11 2
v 9 18 -2
v 9 18 -4
v 9 19 -2
v 9 19 -4
v 10 17 -1
v 10 17 -5
v 10 18 -1
v 10 18 -5
v 11 16 -0
v 11 16 -6
v 11 17 -0
v 11 17 -6
v 12 15 1
v 12 15 -7
v 12 16 1
v 12 16 -7
v 13 0 -9
v 13 0 -10
v 13 3 -9
v 13 3 -10
v 13 14 2
v 13 14 -8
v 13 15 2
v 13 15 -8
v 14 0 -8
v 14 0 -9
v 14 4 3
v 14 4 2
v 14 4 -8
v 14 11 2
v 14 11 -2
v 14 11 -8
v 14 12 3
v 14 12 -9
v 14 13 3
v 14 13 -9
v 14 14 3
v 14 14 -9
v 15 0 4
v 15 0 -8
v 15 4 4
v 15 4 2
v 15 4 -2
v 15 4 -8
v 15 11 2
v 15 11 -2
v 15 11 -8
v 15 12 4
v 15 12 -10
v 15 13 4
v 15 13 -10
v -15 12 10
v -15 13 10
v 1 12 10
v 1 13 10
v -14 0 9
v -14 12 9
v -14 13 9
v -14 14 9
v -13 0 9
v -13 11 9
v -12 0 9
v -12 10 9
v -2 0 9
v -2 10 9
v -1 0 9
v -1 11 9
v 0 0 9
v 0 12 9
v 0 13 9
v 0 14 9
v -13 14 8
v -13 15 8
v -12 0 8
v -12 10 8
v -2 0 8
v -2 10 8
v -1 14 8
v -1 15 8
v -12 15 7
v -12 16 7
v -2 15 7
v -2 16 7
v -1 2 4
v -1 11 4
v 0 2 4
v 0 11 4
v 1 0 4
v 1 1 4
v 1 12 4
v 1 13 4
v 8 0 4
v 8 1 4
v 9 0 4
v 9 4 4
v 15 0 4
v 15 4 4
v 15 12 4
v 15 13 4
v 0 0 3
v 0 12 3
v 0 13 3
v 0 14 3
v 1 0 3
v 1 1 3
v 2 1 3
v 2 11 3
v 7 1 3
v 7 11 3
v 8 0 3
v 8 1 3
v 8 5 3
v 8 11 3
v 9 0 3
v 9 4 3
v 13 5 3
v 13 11 3
v 14 4 3
v 14 12 3
v 14 13 3
v 14 14 3
v -13 14 2
v -13 15 2
v 2 1 2
v 2 11 2
v 7 1 2
v 7 11 2
v 8 5 2
v 8 11 2
v 13 5 2
v 13 11 2
v 13 14 2
v 13 15 2
v 14 4 2
v 14 11 2
v 15 4 2
v 15 11 2
v -12 15 1
v -12 16 1
v 12 15 1
v 12 16 1
v -11 16 -0
v -11 17 -0
v 11 16 -0
v 11 17 -0
v -15 0 -1
v -15 3 -1
v -15 5 -1
v -14 0 -1
v -14 3 -1
v -14 5 -1
v -10 17 -1
v -10 18 -1
v 10 17 -1
v 10 18 -1
v -9 18 -2
v -9 19 -2
v 9 18 -2
v 9 19 -2
v -1 2 8
v -1 11 8
v 0 2 8
v 0 11 8
v -12 15 5
v -12 16 5
v -2 15 5
v -2 16 5
v -13 14 4
v -13 15 4
v -1 14 4
v -1 15 4
v -9 18 -4
v -9 19 -4
v 9 18 -4
v 9 19 -4
v -10 17 -5
v -10 18 -5
v 10 17 -5
v 10 18 -5
v -11 16 -6
v -11 17 -6
v 11 16 -6
v 11 17 -6
v -15 0 -7
v -15 5 -7
v -14 0 -7
v -14 5 -7
v -12 15 -7
v -12 16 -7
v 12 15 -7
v 12 16 -7
v -13 4 -8
v -13 11 -8
v -13 14 -8
v -13 15 -8
v -6 4 -8
v -6 11 -8
v -5 4 -8
v -5 11 -8
v 4 4 -8
v 4 11 -8
v 5 4 -8
v 5 11 -8
v 13 4 -8
v 13 11 -8
v 13 14 -8
v 13 15 -8
v 14 0 -8
v 14 4 -8
v 14 11 -8
v 15 0 -8
v 15 4 -8
v 15 11 -8
v -14 0 -9
v -14 12 -9
v -14 13 -9
v -14 14 -9
v -13 0 -9
v -13 3 -9
v -13 4 -9
v -13 11 -9
v -6 4 -9
v -6 11 -9
v -5 3 -9
v -5 4 -9
v -5 11 -9
v 4 3 -9
v 4 4 -9
v 4 11 -9
v 5 4 -9
v 5 11 -9
v 13 0 -9
v 13 3 -9
v 13 4 -9
v 13 11 -9
v 14 0 -9
v 14 12 -9
v 14 13 -9
v 14 14 -9
v -15 12 -10
v -15 13 -10
v -13 0 -10
v -13 3 -10
v -5 0 -10
v -5 3 -10
v 4 0 -10
v 4 3 -10
v 13 0 -10
v 13 3 -10
v 15 12 -10
v 15 13 -10
v -14 0 9
v -13 0 9
v -12 0 9
v -2 0 9
v -1 0 9
v 0 0 9
v -13 0 8
v -12 0 8
v -2 0 8
v -1 0 8
v -12 0 7
v -2 0 7
v 1 0 4
v 8 0 4
v 9 0 4
v 15 0 4
v 0 0 3
v 1 0 3
v 8 0 3
v 9 0 3
v 14 0 3
v -15 0 -1
v -14 0 -1
v -15 0 -7
v -14 0 -7
v 14 0 -8
v 15 0 -8
v -14 0 -9
v -13 0 -9
v -5 0 -9
v 4 0 -9
v 13 0 -9
v 14 0 -9
v -13 0 -10
v -5 0 -10
v 4 0 -10
v 13 0 -10
v -12 10 9
v -2 10 9
v -12 10 8
v -2 10 8
v -1 11 8
v 0 11 8
v -1 11 4
v 0 11 4
v 2 11 3
v 7 11 3
v 8 11 3
v 13 11 3
v 2 11 2
v 7 11 2
v 8 11 2
v 13 11 2
v -13 11 -8
v -6 11 -8
v -5 11 -8
v 4 11 -8
v 5 11 -8
v 13 11 -8
v -13 11 -9
v -6 11 -9
v -5 11 -9
v 4 11 -9
v 5 11 -9
v 13 11 -9
v -15 12 10
v 1 12 10
v -14 12 9
v 0 12 9
v 1 12 4
v 15 12 4
v 0 12 3
v 14 12 3
v -14 12 -9
v 14 12 -9
v -15 12 -10
v 15 12 -10
v 1 1 4
v 8 1 4
v 1 1 3
v 2 1 3
v 7 1 3
v 8 1 3
v 2 1 2
v 7 1 2
v -1 2 8
v 0 2 8
v -1 2 4
v 0 2 4
v -13 3 -9
v -5 3 -9
v 4 3 -9
v 13 3 -9
v -13 3 -10
v -5 3 -10
v 4 3 -10
v 13 3 -10
v 9 4 4
v 15 4 4
v 9 4 3
v 14 4 3
v 14 4 2
v 15 4 2
v -13 4 -8
v -6 4 -8
v -5 4 -8
v 4 4 -8
v 5 4 -8
v 13 4 -8
v -13 4 -9
v -6 4 -9
v -5 4 -9
v 4 4 -9
v 5 4 -9
v 13 4 -9
v 8 5 3
v 13 5 3
v 8 5 2
v 13 5 2
v -15 5 -1
v -14 5 -1
v -15 5 -4
v -14 5 -4
v -15 5 -7
v -14 5 -7
v 14 11 2
v 15 11 2
v 14 11 -2
v 15 11 -2
v 14 11 -8
v 15 11 -8
v -15 13 10
v 1 13 10
v -14 13 9
v 0 13 9
v 1 13 4
v 15 13 4
v 0 13 3
v 14 13 3
v -14 13 -9
v 14 13 -9
v -15 13 -10
v 15 13 -10
v -14 14 9
v 0 14 9
v -13 14 8
v -1 14 8
v -13 14 4
v -1 14 4
v 0 14 3
v 14 14 3
v -13 14 2
v 13 14 2
v -13 14 -8
v 13 14 -8
v -14 14 -9
v 14 14 -9
v -13 15 8
v -1 15 8
v -12 15 7
v -2 15 7
v -12 15 5
v -2 15 5
v -13 15 4
v -1 15 4
v -13 15 2
v 13 15 2
v -12 15 1
v 12 15 1
v -12 15 -7
v 12 15 -7
v -13 15 -8
v 13 15 -8
v -12 16 7
v -2 16 7
v -12 16 5
v -2 16 5
v -12 16 1
v 12 16 1
v -11 16 -0
v 11 16 -0
v -11 16 -6
v 11 16 -6
v -12 16 -7
v 12 16 -7
v -11 17 -0
v 11 17 -0
v -10 17 -1
v 10 17 -1
v -10 17 -5
v 10 17 -5
v -11 17 -6
v 11 17 -6
v -10 18 -1
v 10 18 -1
v -9 18 -2
v 9 18 -2
v -9 18 -4
v 9 18 -4
v -10 18 -5
v 10 18 -5
v -9 19 -2
v 9 19 -2
v -9 19 -4
v 9 19 -4

# faces
f 3/10/1 2/10/1 1/10/1
f 4/10/1 2/10/1 3/10/1
f 5/9/1 4/9/1 3/9/1
f 6/10/1 2/10/1 4/10/1
f 6/9/1 4/9/1 5/9/1
f 7/10/1 2/10/1 6/10/1
f 10/3/1 9/3/1 8/3/1
f 11/3/1 9/3/1 10/3/1
f 16/1/1 13/1/1 12/1/1
f 17/1/1 16/1/1 12/1/1
f 19/1/1 15/1/1 14/1/1
f 20/1/1 18/1/1 17/1/1
f 20/1/1 19/1/1 18/1/1
f 20/1/1 17/1/1 12/1/1
f 21/1/1 15/1/1 19/1/1
f 21/1/1 19/1/1 20/1/1
f 24/3/1 23/3/1 22/3/1
f 25/3/1 23/3/1 24/3/1
f 28/7/1 27/7/1 26/7/1
f 29/7/1 27/7/1 28/7/1
f 34/2/1 31/2/1 30/2/1
f 35/2/1 31/2/1 34/2/1
f 36/2/1 33/2/1 32/2/1
f 37/2/1 33/2/1 36/2/1
f 42/3/1 39/3/1 38/3/1
f 43/3/1 39/3/1 42/3/1
f 44/3/1 41/3/1 40/3/1
f 45/3/1 41/3/1 44/3/1
f 48/2/1 47/2/1 46/2/1
f 49/2/1 47/2/1 48/2/1
f 52/3/1 51/3/1 50/3/1
f 53/3/1 51/3/1 52/3/1
f 56/2/1 55/2/1 54/2/1
f 57/2/1 55/2/1 56/2/1
f 60/1/1 59/1/1 58/1/1
f 61/1/1 59/1/1 60/1/1
f 64/10/1 63/10/1 62/10/1
f 65/10/1 63/10/1 64/10/1
f 68/1/1 67/1/1 66/1/1
f 69/1/1 67/1/1 68/1/1
f 72/1/1 71/1/1 70/1/1
f 73/1/1 71/1/1 72/1/1
f 76/1/1 75/1/1 74/1/1
f 77/1/1 75/1/1 76/1/1
f 80/5/1 79/5/1 78/5/1
f 81/5/1 79/5/1 80/5/1
f 86/1/1 85/1/1 84/1/1
f 87/1/1 85/1/1 86/1/1
f 88/1/1 83/1/1 82/1/1
f 89/1/1 83/1/1 88/1/1
f 90/1/2 91/1/2 92/1/2
f 92/1/2 91/1/2 93/1/2
f 94/10/2 95/10/2 96/10/2
f 96/10/2 95/10/2 97/10/2
f 98/1/2 99/1/2 100/1/2
f 100/1/2 99/1/2 101/1/2
f 102/3/2 103/3/2 104/3/2
f 104/3/2 103/3/2 105/3/2
f 106/4/2 107/4/2 108/4/2
f 108/4/2 107/4/2 109/4/2
f 110/2/2 111/2/2 112/2/2
f 112/2/2 111/2/2 113/2/2
f 114/1/2 115/1/2 116/1/2
f 116/1/2 115/1/2 117/1/2
f 114/1/2 116/1/2 118/1/2
f 117/1/2 115/1/2 119/1/2
f 114/1/2 118/1/2 120/1/2
f 118/1/2 119/1/2 120/1/2
f 119/1/2 115/1/2 121/1/2
f 120/1/2 119/1/2 121/1/2
f 122/3/2 123/3/2 124/3/2
f 124/3/2 123/3/2 125/3/2
f 126/3/2 127/3/2 128/3/2
f 128/3/2 127/3/2 129/3/2
f 130/1/2 131/1/2 132/1/2
f 132/1/2 131/1/2 133/1/2
f 134/1/2 135/1/2 136/1/2
f 136/1/2 135/1/2 137/1/2
f 138/1/2 139/1/2 140/1/2
f 140/1/2 139/1/2 141/1/2
f 142/1/2 143/1/2 144/1/2
f 144/1/2 143/1/2 145/1/2
f 146/2/2 147/2/2 148/2/2
f 148/2/2 147/2/2 149/2/2
f 150/3/2 151/3/2 152/3/2
f 152/3/2 151/3/2 153/3/2
f 154/2/2 155/2/2 156/2/2
f 156/2/2 155/2/2 157/2/2
f 158/3/2 159/3/2 160/3/2
f 160/3/2 159/3/2 161/3/2
f 162/5/2 163/5/2 164/5/2
f 164/5/2 163/5/2 165/5/2
f 166/2/2 167/2/2 168/2/2
f 168/2/2 167/2/2 169/2/2
f 170/1/2 171/1/2 174/1/2
f 172/1/2 173/1/2 175/1/2
f 174/1/2 171/1/2 177/1/2
f 175/1/2 176/1/2 178/1/2
f 176/1/2 177/1/2 178/1/2
f 172/1/2 175/1/2 178/1/2
f 177/1/2 171/1/2 179/1/2
f 178/1/2 177/1/2 179/1/2
f 180/3/2 181/3/2 182/3/2
f 182/3/2 181/3/2 183/3/2
f 184/5/2 185/5/2 186/5/2
f 186/5/2 185/5/2 187/5/2
f 187/5/2 185/5/2 188/5/2
f 188/5/2 185/5/2 189/5/2
f 187/6/2 188/6/2 190/6/2
f 188/7/2 189/7/2 191/7/2
f 190/6/2 188/6/2 191/6/2
f 191/7/2 189/7/2 192/7/2
f 193/3/2 194/3/2 195/3/2
f 195/3/2 194/3/2 196/3/2
f 199/3/3 198/3/3 197/3/3
f 200/3/3 198/3/3 199/3/3
f 205/1/3 202/1/3 201/1/3
f 206/1/3 202/1/3 205/1/3
f 207/10/3 206/10/3 205/10/3
f 208/10/3 206/10/3 207/10/3
f 210/10/3 206/10/3 208/10/3
f 211/10/3 210/10/3 209/10/3
f 212/1/3 202/1/3 206/1/3
f 212/10/3 210/10/3 211/10/3
f 212/10/3 206/10/3 210/10/3
f 213/1/3 212/1/3 211/1/3
f 214/1/3 202/1/3 212/1/3
f 214/1/3 212/1/3 213/1/3
f 215/3/3 204/3/3 203/3/3
f 216/3/3 204/3/3 215/3/3
f 221/8/3 220/8/3 219/8/3
f 222/8/3 220/8/3 221/8/3
f 223/2/3 218/2/3 217/2/3
f 224/2/3 218/2/3 223/2/3
f 227/3/3 226/3/3 225/3/3
f 228/3/3 226/3/3 227/3/3
f 231/1/3 230/1/3 229/1/3
f 232/1/3 230/1/3 231/1/3
f 237/1/3 234/1/3 233/1/3
f 238/1/3 234/1/3 237/1/3
f 241/5/3 240/5/3 239/5/3
f 242/5/3 240/5/3 241/5/3
f 243/3/3 236/3/3 235/3/3
f 244/3/3 236/3/3 243/3/3
f 249/1/3 246/1/3 245/1/3
f 250/1/3 246/1/3 249/1/3
f 251/1/3 246/1/3 250/1/3
f 252/1/3 246/1/3 251/1/3
f 254/1/3 246/1/3 252/1/3
f 256/1/3 254/1/3 253/1/3
f 257/1/3 254/1/3 256/1/3
f 258/1/3 246/1/3 254/1/3
f 258/1/3 254/1/3 257/1/3
f 259/1/3 257/1/3 256/1/3
f 259/1/3 256/1/3 255/1/3
f 260/1/3 257/1/3 259/1/3
f 261/1/3 257/1/3 260/1/3
f 262/1/3 246/1/3 258/1/3
f 263/1/3 261/1/3 260/1/3
f 263/1/3 262/1/3 261/1/3
f 264/1/3 246/1/3 262/1/3
f 264/1/3 262/1/3 263/1/3
f 265/3/3 248/3/3 247/3/3
f 266/3/3 248/3/3 265/3/3
f 271/4/3 270/4/3 269/4/3
f 272/4/3 270/4/3 271/4/3
f 275/4/3 274/4/3 273/4/3
f 276/4/3 274/4/3 275/4/3
f 277/2/3 268/2/3 267/2/3
f 278/2/3 268/2/3 277/2/3
f 281/6/3 280/6/3 279/6/3
f 282/6/3 280/6/3 281/6/3
f 285/3/3 284/3/3 283/3/3
f 286/3/3 284/3/3 285/3/3
f 289/2/3 288/2/3 287/2/3
f 290/2/3 288/2/3 289/2/3
f 294/10/3 292/10/3 291/10/3
f 295/9/3 293/9/3 292/9/3
f 295/10/3 292/10/3 294/10/3
f 296/9/3 293/9/3 295/9/3
f 299/3/3 298/3/3 297/3/3
f 300/3/3 298/3/3 299/3/3
f 303/2/3 302/2/3 301/2/3
f 304/2/3 302/2/3 303/2/3
f 305/1/4 306/1/4 307/1/4
f 307/1/4 306/1/4 308/1/4
f 309/3/4 310/3/4 311/3/4
f 311/3/4 310/3/4 312/3/4
f 313/2/4 314/2/4 315/2/4
f 315/2/4 314/2/4 316/2/4
f 317/2/4 318/2/4 319/2/4
f 319/2/4 318/2/4 320/2/4
f 321/3/4 322/3/4 323/3/4
f 323/3/4 322/3/4 324/3/4
f 325/2/4 326/2/4 327/2/4
f 327/2/4 326/2/4 328/2/4
f 329/10/4 330/10/4 331/10/4
f 331/10/4 330/10/4 332/10/4
f 333/3/4 334/3/4 335/3/4
f 335/3/4 334/3/4 336/3/4
f 337/1/4 338/1/4 341/1/4
f 341/1/4 338/1/4 342/1/4
f 343/1/4 344/1/4 345/1/4
f 345/1/4 344/1/4 346/1/4
f 347/1/4 348/1/4 349/1/4
f 349/1/4 348/1/4 350/1/4
f 339/2/4 340/2/4 351/2/4
f 351/2/4 340/2/4 352/2/4
f 353/5/4 354/5/4 356/5/4
f 354/7/4 355/7/4 357/7/4
f 356/5/4 354/5/4 357/5/4
f 357/7/4 355/7/4 358/7/4
f 359/1/4 360/1/4 363/1/4
f 363/1/4 360/1/4 364/1/4
f 364/1/4 360/1/4 365/1/4
f 365/1/4 360/1/4 366/1/4
f 364/1/4 365/1/4 367/1/4
f 366/1/4 360/1/4 368/1/4
f 364/1/4 367/1/4 369/1/4
f 367/1/4 368/1/4 369/1/4
f 369/1/4 368/1/4 370/1/4
f 368/1/4 360/1/4 371/1/4
f 370/1/4 368/1/4 371/1/4
f 369/1/4 370/1/4 372/1/4
f 372/1/4 370/1/4 373/1/4
f 371/1/4 360/1/4 374/1/4
f 372/1/4 373/1/4 375/1/4
f 373/1/4 374/1/4 375/1/4
f 374/1/4 360/1/4 376/1/4
f 375/1/4 374/1/4 376/1/4
f 372/1/4 375/1/4 378/1/4
f 378/1/4 375/1/4 379/1/4
f 376/1/4 360/1/4 380/1/4
f 378/1/4 379/1/4 381/1/4
f 379/1/4 380/1/4 381/1/4
f 377/1/4 378/1/4 381/1/4
f 380/1/4 360/1/4 382/1/4
f 381/1/4 380/1/4 382/1/4
f 361/3/4 362/3/4 383/3/4
f 383/3/4 362/3/4 384/3/4
f 387/7/4 388/7/4 389/7/4
f 389/7/4 388/7/4 390/7/4
f 389/6/4 390/6/4 391/6/4
f 391/6/4 390/6/4 392/6/4
f 391/5/4 392/5/4 393/5/4
f 393/5/4 392/5/4 394/5/4
f 385/3/4 386/3/4 395/3/4
f 395/3/4 386/3/4 396/3/4
f 403/1/5 398/1/5 397/1/5
f 403/10/5 399/10/5 398/10/5
f 404/10/5 399/10/5 403/10/5
f 405/10/5 401/10/5 400/10/5
f 406/1/5 402/1/5 401/1/5
f 406/10/5 401/10/5 405/10/5
f 407/8/5 405/8/5 404/8/5
f 407/1/5 404/1/5 403/1/5
f 408/1/5 406/1/5 405/1/5
f 408/8/5 405/8/5 407/8/5
f 413/1/5 402/1/5 406/1/5
f 413/1/5 408/1/5 407/1/5
f 413/1/5 406/1/5 408/1/5
f 414/1/5 410/1/5 409/1/5
f 415/1/5 410/1/5 414/1/5
f 416/5/5 412/5/5 411/5/5
f 417/5/5 412/5/5 416/5/5
f 419/1/5 415/1/5 414/1/5
f 419/1/5 407/1/5 403/1/5
f 419/1/5 417/1/5 416/1/5
f 419/1/5 416/1/5 415/1/5
f 419/1/5 403/1/5 397/1/5
f 419/1/5 414/1/5 413/1/5
f 419/1/5 413/1/5 407/1/5
f 420/10/5 419/10/5 418/10/5
f 421/1/5 417/1/5 419/1/5
f 421/10/5 419/10/5 420/10/5
f 422/5/5 412/5/5 417/5/5
f 422/1/5 417/1/5 421/1/5
f 423/5/5 412/5/5 422/5/5
f 424/1/5 422/1/5 421/1/5
f 425/1/5 422/1/5 424/1/5
f 426/1/5 422/1/5 425/1/5
f 427/1/5 422/1/5 426/1/5
f 428/1/5 422/1/5 427/1/5
f 429/1/5 422/1/5 428/1/5
f 430/7/5 426/7/5 425/7/5
f 431/6/5 427/6/5 426/6/5
f 431/7/5 426/7/5 430/7/5
f 432/5/5 428/5/5 427/5/5
f 432/6/5 427/6/5 431/6/5
f 433/5/5 428/5/5 432/5/5
f 436/10/5 435/10/5 434/10/5
f 437/10/5 435/10/5 436/10/5
f 440/1/5 439/1/5 438/1/5
f 441/1/5 439/1/5 440/1/5
f 446/1/5 443/1/5 442/1/5
f 447/1/5 443/1/5 446/1/5
f 448/1/5 445/1/5 444/1/5
f 449/1/5 445/1/5 448/1/5
f 456/1/5 451/1/5 450/1/5
f 457/1/5 451/1/5 456/1/5
f 458/1/5 453/1/5 452/1/5
f 459/1/5 453/1/5 458/1/5
f 460/1/5 455/1/5 454/1/5
f 461/1/5 455/1/5 460/1/5
f 464/3/5 463/3/5 462/3/5
f 465/3/5 463/3/5 464/3/5
f 466/3/5 463/3/5 465/3/5
f 468/3/5 466/3/5 465/3/5
f 468/3/5 467/3/5 466/3/5
f 469/3/5 467/3/5 468/3/5
f 470/3/5 464/3/5 462/3/5
f 471/3/5 467/3/5 469/3/5
f 472/3/5 470/3/5 462/3/5
f 472/3/5 471/3/5 470/3/5
f 473/3/5 467/3/5 471/3/5
f 473/3/5 471/3/5 472/3/5
f 474/1/6 475/1/6 476/1/6
f 476/1/6 475/1/6 477/1/6
f 477/1/6 475/1/6 478/1/6
f 478/1/6 475/1/6 479/1/6
f 477/1/6 478/1/6 480/1/6
f 480/1/6 478/1/6 481/1/6
f 482/1/6 483/1/6 484/1/6
f 484/1/6 483/1/6 485/1/6
f 486/7/6 487/7/6 490/7/6
f 487/6/6 488/6/6 491/6/6
f 490/7/6 487/7/6 491/7/6
f 488/5/6 489/5/6 492/5/6
f 491/6/6 488/6/6 492/6/6
f 492/5/6 489/5/6 493/5/6
f 494/5/6 495/5/6 496/5/6
f 496/5/6 495/5/6 497/5/6
f 497/5/6 495/5/6 498/5/6
f 498/5/6 495/5/6 499/5/6
f 500/1/6 501/1/6 506/1/6
f 506/1/6 501/1/6 507/1/6
f 502/1/6 503/1/6 508/1/6
f 508/1/6 503/1/6 509/1/6
f 504/1/6 505/1/6 510/1/6
f 510/1/6 505/1/6 511/1/6
f 512/1/6 513/1/6 514/1/6
f 514/1/6 513/1/6 515/1/6
f 516/9/6 517/9/6 518/9/6
f 518/9/6 517/9/6 519/9/6
f 518/10/6 519/10/6 520/10/6
f 520/10/6 519/10/6 521/10/6
f 522/6/6 523/6/6 524/6/6
f 524/6/6 523/6/6 525/6/6
f 524/7/6 525/7/6 526/7/6
f 526/7/6 525/7/6 527/7/6
f 528/3/6 529/3/6 530/3/6
f 530/3/6 529/3/6 531/3/6
f 531/3/6 529/3/6 532/3/6
f 531/3/6 532/3/6 534/3/6
f 532/3/6 533/3/6 534/3/6
f 534/3/6 533/3/6 535/3/6
f 528/3/6 530/3/6 536/3/6
f 535/3/6 533/3/6 537/3/6
f 528/3/6 536/3/6 538/3/6
f 536/3/6 537/3/6 538/3/6
f 537/3/6 533/3/6 539/3/6
f 538/3/6 537/3/6 539/3/6
f 540/3/6 541/3/6 542/3/6
f 542/3/6 541/3/6 543/3/6
f 540/3/6 542/3/6 544/3/6
f 543/3/6 541/3/6 545/3/6
f 545/3/6 541/3/6 546/3/6
f 544/3/6 545/3/6 546/3/6
f 540/3/6 544/3/6 548/3/6
f 546/3/6 547/3/6 548/3/6
f 544/3/6 546/3/6 548/3/6
f 548/3/6 547/3/6 549/3/6
f 540/3/6 548/3/6 550/3/6
f 549/3/6 547/3/6 551/3/6
f 540/3/6 550/3/6 552/3/6
f 550/3/6 551/3/6 552/3/6
f 551/3/6 547/3/6 553/3/6
f 552/3/6 551/3/6 553/3/6
f 554/2/6 555/2/6 556/2/6
f 556/2/6 555/2/6 557/2/6
f 554/2/6 556/2/6 558/2/6
f 557/2/6 555/2/6 559/2/6
f 554/2/6 558/2/6 560/2/6
f 558/2/6 559/2/6 560/2/6
f 559/2/6 555/2/6 561/2/6
f 560/2/6 559/2/6 561/2/6
f 562/2/6 563/2/6 564/2/6
f 564/2/6 563/2/6 565/2/6
f 562/2/6 564/2/6 566/2/6
f 565/2/6 563/2/6 567/2/6
f 562/2/6 566/2/6 568/2/6
f 566/2/6 567/2/6 568/2/6
f 567/2/6 563/2/6 569/2/6
f 568/2/6 567/2/6 569/2/6
f 570/3/6 571/3/6 572/3/6
f 572/3/6 571/3/6 573/3/6
f 574/3/6 575/3/6 576/3/6
f 576/3/6 575/3/6 577/3/6
f 574/3/6 576/3/6 578/3/6
f 577/3/6 575/3/6 579/3/6
f 574/3/6 578/3/6 580/3/6
f 578/3/6 579/3/6 580/3/6
f 579/3/6 575/3/6 581/3/6
f 580/3/6 579/3/6 581/3/6
f 582/2/6 583/2/6 584/2/6
f 584/2/6 583/2/6 585/2/6
f 582/2/6 584/2/6 586/2/6
f 585/2/6 583/2/6 587/2/6
f 582/2/6 586/2/6 588/2/6
f 586/2/6 587/2/6 588/2/6
f 587/2/6 583/2/6 589/2/6
f 588/2/6 587/2/6 589/2/6
f 590/3/6 591/3/6 592/3/6
f 592/3/6 591/3/6 593/3/6
f 590/3/6 592/3/6 594/3/6
f 593/3/6 591/3/6 595/3/6
f 590/3/6 594/3/6 596/3/6
f 594/3/6 595/3/6 596/3/6
f 595/3/6 591/3/6 597/3/6
f 596/3/6 595/3/6 597/3/6
f 598/2/6 599/2/6 600/2/6
f 600/2/6 599/2/6 601/2/6
