# MagicaVoxel @ Ephtracy

# material
mtllib PlaneHangar01.mtl
usemtl palette

# normals
vn -1 0 0
vn 1 0 0
vn 0 0 1
vn 0 0 -1
vn 0 -1 0
vn 0 1 0

# texcoords
vt 0.970703 0.5
vt 0.990234 0.5

# verts
v -23.5 0 23.5
v -23.5 0 -23.5
v -23.5 1 22.5
v -23.5 1 17.5
v -23.5 1 12.5
v -23.5 1 7.5
v -23.5 1 2.5
v -23.5 1 -2.5
v -23.5 1 -7.5
v -23.5 1 -12.5
v -23.5 1 -17.5
v -23.5 1 -22.5
v -23.5 19 22.5
v -23.5 19 17.5
v -23.5 19 12.5
v -23.5 19 7.5
v -23.5 19 2.5
v -23.5 19 -2.5
v -23.5 19 -7.5
v -23.5 19 -12.5
v -23.5 19 -17.5
v -23.5 19 -22.5
v -23.5 20 23.5
v -23.5 20 -23.5
v -22.5 20 23.5
v -22.5 20 22.5
v -22.5 20 -22.5
v -22.5 20 -23.5
v -22.5 21 23.5
v -22.5 21 22.5
v -22.5 21 -22.5
v -22.5 21 -23.5
v -21.5 21 23.5
v -21.5 21 22.5
v -21.5 21 -22.5
v -21.5 21 -23.5
v -21.5 22 23.5
v -21.5 22 22.5
v -21.5 22 -22.5
v -21.5 22 -23.5
v -20.5 22 23.5
v -20.5 22 22.5
v -20.5 22 -22.5
v -20.5 22 -23.5
v -20.5 23 23.5
v -20.5 23 22.5
v -20.5 23 -22.5
v -20.5 23 -23.5
v -19.5 23 23.5
v -19.5 23 22.5
v -19.5 23 -22.5
v -19.5 23 -23.5
v -19.5 24 23.5
v -19.5 24 22.5
v -19.5 24 -22.5
v -19.5 24 -23.5
v -18.5 24 23.5
v -18.5 24 22.5
v -18.5 24 -22.5
v -18.5 24 -23.5
v -18.5 25 23.5
v -18.5 25 22.5
v -18.5 25 -22.5
v -18.5 25 -23.5
v -17.5 25 23.5
v -17.5 25 22.5
v -17.5 25 -22.5
v -17.5 25 -23.5
v -17.5 26 23.5
v -17.5 26 22.5
v -17.5 26 -22.5
v -17.5 26 -23.5
v -16.5 26 23.5
v -16.5 26 22.5
v -16.5 26 -22.5
v -16.5 26 -23.5
v -16.5 27 23.5
v -16.5 27 -23.5
v 7.5 19 23.5
v 7.5 19 22.5
v 7.5 19 -22.5
v 7.5 19 -23.5
v 7.5 26 23.5
v 7.5 26 22.5
v 7.5 26 -22.5
v 7.5 26 -23.5
v 22.5 0 23.5
v 22.5 0 -23.5
v 22.5 1 22.5
v 22.5 1 17.5
v 22.5 1 12.5
v 22.5 1 7.5
v 22.5 1 2.5
v 22.5 1 -2.5
v 22.5 1 -7.5
v 22.5 1 -12.5
v 22.5 1 -17.5
v 22.5 1 -22.5
v 22.5 19 23.5
v 22.5 19 22.5
v 22.5 19 17.5
v 22.5 19 12.5
v 22.5 19 7.5
v 22.5 19 2.5
v 22.5 19 -2.5
v 22.5 19 -7.5
v 22.5 19 -12.5
v 22.5 19 -17.5
v 22.5 19 -22.5
v 22.5 19 -23.5
v -22.5 0 23.5
v -22.5 0 -23.5
v -22.5 1 22.5
v -22.5 1 17.5
v -22.5 1 12.5
v -22.5 1 7.5
v -22.5 1 2.5
v -22.5 1 -2.5
v -22.5 1 -7.5
v -22.5 1 -12.5
v -22.5 1 -17.5
v -22.5 1 -22.5
v -22.5 19 23.5
v -22.5 19 22.5
v -22.5 19 17.5
v -22.5 19 12.5
v -22.5 19 7.5
v -22.5 19 2.5
v -22.5 19 -2.5
v -22.5 19 -7.5
v -22.5 19 -12.5
v -22.5 19 -17.5
v -22.5 19 -22.5
v -22.5 19 -23.5
v -7.5 19 23.5
v -7.5 19 22.5
v -7.5 19 -22.5
v -7.5 19 -23.5
v -7.5 26 23.5
v -7.5 26 22.5
v -7.5 26 -22.5
v -7.5 26 -23.5
v 16.5 26 23.5
v 16.5 26 22.5
v 16.5 26 -22.5
v 16.5 26 -23.5
v 16.5 27 23.5
v 16.5 27 -23.5
v 17.5 25 23.5
v 17.5 25 22.5
v 17.5 25 -22.5
v 17.5 25 -23.5
v 17.5 26 23.5
v 17.5 26 22.5
v 17.5 26 -22.5
v 17.5 26 -23.5
v 18.5 24 23.5
v 18.5 24 22.5
v 18.5 24 -22.5
v 18.5 24 -23.5
v 18.5 25 23.5
v 18.5 25 22.5
v 18.5 25 -22.5
v 18.5 25 -23.5
v 19.5 23 23.5
v 19.5 23 22.5
v 19.5 23 -22.5
v 19.5 23 -23.5
v 19.5 24 23.5
v 19.5 24 22.5
v 19.5 24 -22.5
v 19.5 24 -23.5
v 20.5 22 23.5
v 20.5 22 22.5
v 20.5 22 -22.5
v 20.5 22 -23.5
v 20.5 23 23.5
v 20.5 23 22.5
v 20.5 23 -22.5
v 20.5 23 -23.5
v 21.5 21 23.5
v 21.5 21 22.5
v 21.5 21 -22.5
v 21.5 21 -23.5
v 21.5 22 23.5
v 21.5 22 22.5
v 21.5 22 -22.5
v 21.5 22 -23.5
v 22.5 20 23.5
v 22.5 20 22.5
v 22.5 20 -22.5
v 22.5 20 -23.5
v 22.5 21 23.5
v 22.5 21 22.5
v 22.5 21 -22.5
v 22.5 21 -23.5
v 23.5 0 23.5
v 23.5 0 -23.5
v 23.5 1 22.5
v 23.5 1 17.5
v 23.5 1 12.5
v 23.5 1 7.5
v 23.5 1 2.5
v 23.5 1 -2.5
v 23.5 1 -7.5
v 23.5 1 -12.5
v 23.5 1 -17.5
v 23.5 1 -22.5
v 23.5 19 22.5
v 23.5 19 17.5
v 23.5 19 12.5
v 23.5 19 7.5
v 23.5 19 2.5
v 23.5 19 -2.5
v 23.5 19 -7.5
v 23.5 19 -12.5
v 23.5 19 -17.5
v 23.5 19 -22.5
v 23.5 20 23.5
v 23.5 20 -23.5
v -23.5 0 23.5
v -23.5 20 23.5
v -22.5 0 23.5
v -22.5 19 23.5
v -22.5 20 23.5
v -22.5 21 23.5
v -21.5 20 23.5
v -21.5 21 23.5
v -21.5 22 23.5
v -20.5 21 23.5
v -20.5 22 23.5
v -20.5 23 23.5
v -19.5 22 23.5
v -19.5 23 23.5
v -19.5 24 23.5
v -18.5 23 23.5
v -18.5 24 23.5
v -18.5 25 23.5
v -17.5 24 23.5
v -17.5 25 23.5
v -17.5 26 23.5
v -16.5 25 23.5
v -16.5 26 23.5
v -16.5 27 23.5
v -8.5 20 23.5
v -8.5 26 23.5
v -7.5 19 23.5
v -7.5 26 23.5
v 7.5 19 23.5
v 7.5 26 23.5
v 8.5 20 23.5
v 8.5 26 23.5
v 16.5 25 23.5
v 16.5 26 23.5
v 16.5 27 23.5
v 17.5 24 23.5
v 17.5 25 23.5
v 17.5 26 23.5
v 18.5 23 23.5
v 18.5 24 23.5
v 18.5 25 23.5
v 19.5 22 23.5
v 19.5 23 23.5
v 19.5 24 23.5
v 20.5 21 23.5
v 20.5 22 23.5
v 20.5 23 23.5
v 21.5 20 23.5
v 21.5 21 23.5
v 21.5 22 23.5
v 22.5 0 23.5
v 22.5 19 23.5
v 22.5 20 23.5
v 22.5 21 23.5
v 23.5 0 23.5
v 23.5 20 23.5
v -23.5 0 -23.5
v -23.5 20 -23.5
v -22.5 0 -23.5
v -22.5 19 -23.5
v -22.5 20 -23.5
v -22.5 21 -23.5
v -21.5 20 -23.5
v -21.5 21 -23.5
v -21.5 22 -23.5
v -20.5 21 -23.5
v -20.5 22 -23.5
v -20.5 23 -23.5
v -19.5 22 -23.5
v -19.5 23 -23.5
v -19.5 24 -23.5
v -18.5 23 -23.5
v -18.5 24 -23.5
v -18.5 25 -23.5
v -17.5 24 -23.5
v -17.5 25 -23.5
v -17.5 26 -23.5
v -16.5 25 -23.5
v -16.5 26 -23.5
v -16.5 27 -23.5
v -8.5 20 -23.5
v -8.5 26 -23.5
v -7.5 19 -23.5
v -7.5 26 -23.5
v 7.5 19 -23.5
v 7.5 26 -23.5
v 8.5 20 -23.5
v 8.5 26 -23.5
v 16.5 25 -23.5
v 16.5 26 -23.5
v 16.5 27 -23.5
v 17.5 24 -23.5
v 17.5 25 -23.5
v 17.5 26 -23.5
v 18.5 23 -23.5
v 18.5 24 -23.5
v 18.5 25 -23.5
v 19.5 22 -23.5
v 19.5 23 -23.5
v 19.5 24 -23.5
v 20.5 21 -23.5
v 20.5 22 -23.5
v 20.5 23 -23.5
v 21.5 20 -23.5
v 21.5 21 -23.5
v 21.5 22 -23.5
v 22.5 0 -23.5
v 22.5 19 -23.5
v 22.5 20 -23.5
v 22.5 21 -23.5
v 23.5 0 -23.5
v 23.5 20 -23.5
v -23.5 0 23.5
v -22.5 0 23.5
v 22.5 0 23.5
v 23.5 0 23.5
v -23.5 0 -23.5
v -22.5 0 -23.5
v 22.5 0 -23.5
v 23.5 0 -23.5
v -22.5 19 23.5
v -7.5 19 23.5
v 7.5 19 23.5
v 22.5 19 23.5
v -22.5 19 22.5
v -7.5 19 22.5
v 7.5 19 22.5
v 22.5 19 22.5
v -22.5 19 17.5
v 22.5 19 17.5
v -22.5 19 12.5
v 22.5 19 12.5
v -22.5 19 7.5
v 22.5 19 7.5
v -22.5 19 2.5
v 22.5 19 2.5
v -22.5 19 -2.5
v 22.5 19 -2.5
v -22.5 19 -7.5
v 22.5 19 -7.5
v -22.5 19 -12.5
v 22.5 19 -12.5
v -22.5 19 -17.5
v 22.5 19 -17.5
v -22.5 19 -22.5
v -7.5 19 -22.5
v 7.5 19 -22.5
v 22.5 19 -22.5
v -22.5 19 -23.5
v -7.5 19 -23.5
v 7.5 19 -23.5
v 22.5 19 -23.5
v -7.5 26 23.5
v 7.5 26 23.5
v -7.5 26 22.5
v 7.5 26 22.5
v -7.5 26 -22.5
v 7.5 26 -22.5
v -7.5 26 -23.5
v 7.5 26 -23.5
v -23.5 20 23.5
v -22.5 20 23.5
v 22.5 20 23.5
v 23.5 20 23.5
v -22.5 20 22.5
v 22.5 20 22.5
v -22.5 20 -22.5
v 22.5 20 -22.5
v -23.5 20 -23.5
v -22.5 20 -23.5
v 22.5 20 -23.5
v 23.5 20 -23.5
v -22.5 21 23.5
v -21.5 21 23.5
v 21.5 21 23.5
v 22.5 21 23.5
v -22.5 21 22.5
v -21.5 21 22.5
v 21.5 21 22.5
v 22.5 21 22.5
v -22.5 21 -22.5
v -21.5 21 -22.5
v 21.5 21 -22.5
v 22.5 21 -22.5
v -22.5 21 -23.5
v -21.5 21 -23.5
v 21.5 21 -23.5
v 22.5 21 -23.5
v -21.5 22 23.5
v -20.5 22 23.5
v 20.5 22 23.5
v 21.5 22 23.5
v -21.5 22 22.5
v -20.5 22 22.5
v 20.5 22 22.5
v 21.5 22 22.5
v -21.5 22 -22.5
v -20.5 22 -22.5
v 20.5 22 -22.5
v 21.5 22 -22.5
v -21.5 22 -23.5
v -20.5 22 -23.5
v 20.5 22 -23.5
v 21.5 22 -23.5
v -20.5 23 23.5
v -19.5 23 23.5
v 19.5 23 23.5
v 20.5 23 23.5
v -20.5 23 22.5
v -19.5 23 22.5
v 19.5 23 22.5
v 20.5 23 22.5
v -20.5 23 -22.5
v -19.5 23 -22.5
v 19.5 23 -22.5
v 20.5 23 -22.5
v -20.5 23 -23.5
v -19.5 23 -23.5
v 19.5 23 -23.5
v 20.5 23 -23.5
v -19.5 24 23.5
v -18.5 24 23.5
v 18.5 24 23.5
v 19.5 24 23.5
v -19.5 24 22.5
v -18.5 24 22.5
v 18.5 24 22.5
v 19.5 24 22.5
v -19.5 24 -22.5
v -18.5 24 -22.5
v 18.5 24 -22.5
v 19.5 24 -22.5
v -19.5 24 -23.5
v -18.5 24 -23.5
v 18.5 24 -23.5
v 19.5 24 -23.5
v -18.5 25 23.5
v -17.5 25 23.5
v 17.5 25 23.5
v 18.5 25 23.5
v -18.5 25 22.5
v -17.5 25 22.5
v 17.5 25 22.5
v 18.5 25 22.5
v -18.5 25 -22.5
v -17.5 25 -22.5
v 17.5 25 -22.5
v 18.5 25 -22.5
v -18.5 25 -23.5
v -17.5 25 -23.5
v 17.5 25 -23.5
v 18.5 25 -23.5
v -17.5 26 23.5
v -16.5 26 23.5
v 16.5 26 23.5
v 17.5 26 23.5
v -17.5 26 22.5
v -16.5 26 22.5
v 16.5 26 22.5
v 17.5 26 22.5
v -17.5 26 -22.5
v -16.5 26 -22.5
v 16.5 26 -22.5
v 17.5 26 -22.5
v -17.5 26 -23.5
v -16.5 26 -23.5
v 16.5 26 -23.5
v 17.5 26 -23.5
v -16.5 27 23.5
v 16.5 27 23.5
v -15.5 27 22.5
v 15.5 27 22.5
v -15.5 27 -22.5
v 15.5 27 -22.5
v -16.5 27 -23.5
v 16.5 27 -23.5

# faces
f 3/1/1 2/1/1 1/1/1
f 4/1/1 2/1/1 3/1/1
f 5/1/1 2/1/1 4/1/1
f 6/1/1 2/1/1 5/1/1
f 7/1/1 2/1/1 6/1/1
f 8/1/1 2/1/1 7/1/1
f 9/1/1 2/1/1 8/1/1
f 10/1/1 2/1/1 9/1/1
f 11/1/1 2/1/1 10/1/1
f 12/1/1 2/1/1 11/1/1
f 13/1/1 3/1/1 1/1/1
f 13/2/1 4/2/1 3/2/1
f 14/1/1 5/1/1 4/1/1
f 14/2/1 4/2/1 13/2/1
f 15/2/1 6/2/1 5/2/1
f 15/1/1 5/1/1 14/1/1
f 16/1/1 7/1/1 6/1/1
f 16/2/1 6/2/1 15/2/1
f 17/2/1 8/2/1 7/2/1
f 17/1/1 7/1/1 16/1/1
f 18/1/1 9/1/1 8/1/1
f 18/2/1 8/2/1 17/2/1
f 19/2/1 10/2/1 9/2/1
f 19/1/1 9/1/1 18/1/1
f 20/1/1 11/1/1 10/1/1
f 20/2/1 10/2/1 19/2/1
f 21/2/1 12/2/1 11/2/1
f 21/1/1 11/1/1 20/1/1
f 22/1/1 2/1/1 12/1/1
f 22/2/1 12/2/1 21/2/1
f 23/1/1 21/1/1 20/1/1
f 23/1/1 20/1/1 19/1/1
f 23/1/1 22/1/1 21/1/1
f 23/1/1 19/1/1 18/1/1
f 23/1/1 18/1/1 17/1/1
f 23/1/1 17/1/1 16/1/1
f 23/1/1 16/1/1 15/1/1
f 23/1/1 15/1/1 14/1/1
f 23/1/1 14/1/1 13/1/1
f 23/1/1 13/1/1 1/1/1
f 24/1/1 2/1/1 22/1/1
f 24/1/1 22/1/1 23/1/1
f 29/1/1 26/1/1 25/1/1
f 30/2/1 27/2/1 26/2/1
f 30/1/1 26/1/1 29/1/1
f 31/1/1 28/1/1 27/1/1
f 31/2/1 27/2/1 30/2/1
f 32/1/1 28/1/1 31/1/1
f 37/1/1 34/1/1 33/1/1
f 38/2/1 35/2/1 34/2/1
f 38/1/1 34/1/1 37/1/1
f 39/1/1 36/1/1 35/1/1
f 39/2/1 35/2/1 38/2/1
f 40/1/1 36/1/1 39/1/1
f 45/1/1 42/1/1 41/1/1
f 46/2/1 43/2/1 42/2/1
f 46/1/1 42/1/1 45/1/1
f 47/1/1 44/1/1 43/1/1
f 47/2/1 43/2/1 46/2/1
f 48/1/1 44/1/1 47/1/1
f 53/1/1 50/1/1 49/1/1
f 54/2/1 51/2/1 50/2/1
f 54/1/1 50/1/1 53/1/1
f 55/1/1 52/1/1 51/1/1
f 55/2/1 51/2/1 54/2/1
f 56/1/1 52/1/1 55/1/1
f 61/1/1 58/1/1 57/1/1
f 62/2/1 59/2/1 58/2/1
f 62/1/1 58/1/1 61/1/1
f 63/1/1 60/1/1 59/1/1
f 63/2/1 59/2/1 62/2/1
f 64/1/1 60/1/1 63/1/1
f 69/1/1 66/1/1 65/1/1
f 70/2/1 67/2/1 66/2/1
f 70/1/1 66/1/1 69/1/1
f 71/1/1 68/1/1 67/1/1
f 71/2/1 67/2/1 70/2/1
f 72/1/1 68/1/1 71/1/1
f 77/1/1 74/1/1 73/1/1
f 77/1/1 76/1/1 75/1/1
f 77/1/1 75/1/1 74/1/1
f 78/1/1 76/1/1 77/1/1
f 83/1/1 80/1/1 79/1/1
f 84/2/1 81/2/1 80/2/1
f 84/1/1 80/1/1 83/1/1
f 85/1/1 82/1/1 81/1/1
f 85/2/1 81/2/1 84/2/1
f 86/1/1 82/1/1 85/1/1
f 89/1/1 88/1/1 87/1/1
f 90/1/1 88/1/1 89/1/1
f 91/1/1 88/1/1 90/1/1
f 92/1/1 88/1/1 91/1/1
f 93/1/1 88/1/1 92/1/1
f 94/1/1 88/1/1 93/1/1
f 95/1/1 88/1/1 94/1/1
f 96/1/1 88/1/1 95/1/1
f 97/1/1 88/1/1 96/1/1
f 98/1/1 88/1/1 97/1/1
f 99/1/1 89/1/1 87/1/1
f 100/2/1 90/2/1 89/2/1
f 100/1/1 89/1/1 99/1/1
f 101/1/1 91/1/1 90/1/1
f 101/2/1 90/2/1 100/2/1
f 102/2/1 92/2/1 91/2/1
f 102/1/1 91/1/1 101/1/1
f 103/1/1 93/1/1 92/1/1
f 103/2/1 92/2/1 102/2/1
f 104/2/1 94/2/1 93/2/1
f 104/1/1 93/1/1 103/1/1
f 105/1/1 95/1/1 94/1/1
f 105/2/1 94/2/1 104/2/1
f 106/2/1 96/2/1 95/2/1
f 106/1/1 95/1/1 105/1/1
f 107/1/1 97/1/1 96/1/1
f 107/2/1 96/2/1 106/2/1
f 108/2/1 98/2/1 97/2/1
f 108/1/1 97/1/1 107/1/1
f 109/1/1 88/1/1 98/1/1
f 109/2/1 98/2/1 108/2/1
f 110/1/1 88/1/1 109/1/1
f 111/1/2 112/1/2 113/1/2
f 113/1/2 112/1/2 114/1/2
f 114/1/2 112/1/2 115/1/2
f 115/1/2 112/1/2 116/1/2
f 116/1/2 112/1/2 117/1/2
f 117/1/2 112/1/2 118/1/2
f 118/1/2 112/1/2 119/1/2
f 119/1/2 112/1/2 120/1/2
f 120/1/2 112/1/2 121/1/2
f 121/1/2 112/1/2 122/1/2
f 111/1/2 113/1/2 123/1/2
f 113/2/2 114/2/2 124/2/2
f 123/1/2 113/1/2 124/1/2
f 114/1/2 115/1/2 125/1/2
f 124/2/2 114/2/2 125/2/2
f 115/2/2 116/2/2 126/2/2
f 125/1/2 115/1/2 126/1/2
f 116/1/2 117/1/2 127/1/2
f 126/2/2 116/2/2 127/2/2
f 117/2/2 118/2/2 128/2/2
f 127/1/2 117/1/2 128/1/2
f 118/1/2 119/1/2 129/1/2
f 128/2/2 118/2/2 129/2/2
f 119/2/2 120/2/2 130/2/2
f 129/1/2 119/1/2 130/1/2
f 120/1/2 121/1/2 131/1/2
f 130/2/2 120/2/2 131/2/2
f 121/2/2 122/2/2 132/2/2
f 131/1/2 121/1/2 132/1/2
f 122/1/2 112/1/2 133/1/2
f 132/2/2 122/2/2 133/2/2
f 133/1/2 112/1/2 134/1/2
f 135/1/2 136/1/2 139/1/2
f 136/2/2 137/2/2 140/2/2
f 139/1/2 136/1/2 140/1/2
f 137/1/2 138/1/2 141/1/2
f 140/2/2 137/2/2 141/2/2
f 141/1/2 138/1/2 142/1/2
f 143/1/2 144/1/2 147/1/2
f 145/1/2 146/1/2 147/1/2
f 144/1/2 145/1/2 147/1/2
f 147/1/2 146/1/2 148/1/2
f 149/1/2 150/1/2 153/1/2
f 150/2/2 151/2/2 154/2/2
f 153/1/2 150/1/2 154/1/2
f 151/1/2 152/1/2 155/1/2
f 154/2/2 151/2/2 155/2/2
f 155/1/2 152/1/2 156/1/2
f 157/1/2 158/1/2 161/1/2
f 158/2/2 159/2/2 162/2/2
f 161/1/2 158/1/2 162/1/2
f 159/1/2 160/1/2 163/1/2
f 162/2/2 159/2/2 163/2/2
f 163/1/2 160/1/2 164/1/2
f 165/1/2 166/1/2 169/1/2
f 166/2/2 167/2/2 170/2/2
f 169/1/2 166/1/2 170/1/2
f 167/1/2 168/1/2 171/1/2
f 170/2/2 167/2/2 171/2/2
f 171/1/2 168/1/2 172/1/2
f 173/1/2 174/1/2 177/1/2
f 174/2/2 175/2/2 178/2/2
f 177/1/2 174/1/2 178/1/2
f 175/1/2 176/1/2 179/1/2
f 178/2/2 175/2/2 179/2/2
f 179/1/2 176/1/2 180/1/2
f 181/1/2 182/1/2 185/1/2
f 182/2/2 183/2/2 186/2/2
f 185/1/2 182/1/2 186/1/2
f 183/1/2 184/1/2 187/1/2
f 186/2/2 183/2/2 187/2/2
f 187/1/2 184/1/2 188/1/2
f 189/1/2 190/1/2 193/1/2
f 190/2/2 191/2/2 194/2/2
f 193/1/2 190/1/2 194/1/2
f 191/1/2 192/1/2 195/1/2
f 194/2/2 191/2/2 195/2/2
f 195/1/2 192/1/2 196/1/2
f 197/1/2 198/1/2 199/1/2
f 199/1/2 198/1/2 200/1/2
f 200/1/2 198/1/2 201/1/2
f 201/1/2 198/1/2 202/1/2
f 202/1/2 198/1/2 203/1/2
f 203/1/2 198/1/2 204/1/2
f 204/1/2 198/1/2 205/1/2
f 205/1/2 198/1/2 206/1/2
f 206/1/2 198/1/2 207/1/2
f 207/1/2 198/1/2 208/1/2
f 197/1/2 199/1/2 209/1/2
f 199/2/2 200/2/2 209/2/2
f 200/1/2 201/1/2 210/1/2
f 209/2/2 200/2/2 210/2/2
f 201/2/2 202/2/2 211/2/2
f 210/1/2 201/1/2 211/1/2
f 202/1/2 203/1/2 212/1/2
f 211/2/2 202/2/2 212/2/2
f 203/2/2 204/2/2 213/2/2
f 212/1/2 203/1/2 213/1/2
f 204/1/2 205/1/2 214/1/2
f 213/2/2 204/2/2 214/2/2
f 205/2/2 206/2/2 215/2/2
f 214/1/2 205/1/2 215/1/2
f 206/1/2 207/1/2 216/1/2
f 215/2/2 206/2/2 216/2/2
f 207/2/2 208/2/2 217/2/2
f 216/1/2 207/1/2 217/1/2
f 208/1/2 198/1/2 218/1/2
f 217/2/2 208/2/2 218/2/2
f 216/1/2 217/1/2 219/1/2
f 215/1/2 216/1/2 219/1/2
f 217/1/2 218/1/2 219/1/2
f 214/1/2 215/1/2 219/1/2
f 213/1/2 214/1/2 219/1/2
f 212/1/2 213/1/2 219/1/2
f 211/1/2 212/1/2 219/1/2
f 210/1/2 211/1/2 219/1/2
f 209/1/2 210/1/2 219/1/2
f 197/1/2 209/1/2 219/1/2
f 218/1/2 198/1/2 220/1/2
f 219/1/2 218/1/2 220/1/2
f 223/1/3 222/1/3 221/1/3
f 224/1/3 222/1/3 223/1/3
f 225/1/3 222/1/3 224/1/3
f 227/1/3 226/1/3 225/1/3
f 227/1/3 225/1/3 224/1/3
f 228/1/3 226/1/3 227/1/3
f 230/2/3 228/2/3 227/2/3
f 230/1/3 229/1/3 228/1/3
f 231/1/3 229/1/3 230/1/3
f 233/2/3 231/2/3 230/2/3
f 233/1/3 232/1/3 231/1/3
f 234/1/3 232/1/3 233/1/3
f 236/2/3 234/2/3 233/2/3
f 236/1/3 235/1/3 234/1/3
f 237/1/3 235/1/3 236/1/3
f 239/2/3 237/2/3 236/2/3
f 239/1/3 238/1/3 237/1/3
f 240/1/3 238/1/3 239/1/3
f 242/2/3 240/2/3 239/2/3
f 242/1/3 241/1/3 240/1/3
f 243/1/3 241/1/3 242/1/3
f 245/1/3 227/1/3 224/1/3
f 245/2/3 230/2/3 227/2/3
f 245/2/3 243/2/3 242/2/3
f 245/2/3 242/2/3 239/2/3
f 245/2/3 239/2/3 236/2/3
f 245/2/3 236/2/3 233/2/3
f 245/2/3 233/2/3 230/2/3
f 246/1/3 244/1/3 243/1/3
f 246/2/3 243/2/3 245/2/3
f 247/1/3 245/1/3 224/1/3
f 247/1/3 246/1/3 245/1/3
f 248/1/3 244/1/3 246/1/3
f 248/1/3 246/1/3 247/1/3
f 250/1/3 244/1/3 248/1/3
f 251/1/3 250/1/3 249/1/3
f 252/1/3 244/1/3 250/1/3
f 252/1/3 250/1/3 251/1/3
f 253/2/3 252/2/3 251/2/3
f 254/1/3 244/1/3 252/1/3
f 254/2/3 252/2/3 253/2/3
f 255/1/3 244/1/3 254/1/3
f 256/2/3 253/2/3 251/2/3
f 257/1/3 254/1/3 253/1/3
f 257/2/3 253/2/3 256/2/3
f 258/1/3 254/1/3 257/1/3
f 259/2/3 256/2/3 251/2/3
f 260/1/3 257/1/3 256/1/3
f 260/2/3 256/2/3 259/2/3
f 261/1/3 257/1/3 260/1/3
f 262/2/3 259/2/3 251/2/3
f 263/1/3 260/1/3 259/1/3
f 263/2/3 259/2/3 262/2/3
f 264/1/3 260/1/3 263/1/3
f 265/2/3 262/2/3 251/2/3
f 266/1/3 263/1/3 262/1/3
f 266/2/3 262/2/3 265/2/3
f 267/1/3 263/1/3 266/1/3
f 268/1/3 251/1/3 249/1/3
f 268/2/3 265/2/3 251/2/3
f 269/1/3 266/1/3 265/1/3
f 269/2/3 265/2/3 268/2/3
f 270/1/3 266/1/3 269/1/3
f 272/1/3 268/1/3 249/1/3
f 272/1/3 269/1/3 268/1/3
f 273/1/3 269/1/3 272/1/3
f 274/1/3 269/1/3 273/1/3
f 275/1/3 272/1/3 271/1/3
f 275/1/3 273/1/3 272/1/3
f 276/1/3 273/1/3 275/1/3
f 277/1/4 278/1/4 279/1/4
f 279/1/4 278/1/4 280/1/4
f 280/1/4 278/1/4 281/1/4
f 281/1/4 282/1/4 283/1/4
f 280/1/4 281/1/4 283/1/4
f 283/1/4 282/1/4 284/1/4
f 283/2/4 284/2/4 286/2/4
f 284/1/4 285/1/4 286/1/4
f 286/1/4 285/1/4 287/1/4
f 286/2/4 287/2/4 289/2/4
f 287/1/4 288/1/4 289/1/4
f 289/1/4 288/1/4 290/1/4
f 289/2/4 290/2/4 292/2/4
f 290/1/4 291/1/4 292/1/4
f 292/1/4 291/1/4 293/1/4
f 292/2/4 293/2/4 295/2/4
f 293/1/4 294/1/4 295/1/4
f 295/1/4 294/1/4 296/1/4
f 295/2/4 296/2/4 298/2/4
f 296/1/4 297/1/4 298/1/4
f 298/1/4 297/1/4 299/1/4
f 280/1/4 283/1/4 301/1/4
f 283/2/4 286/2/4 301/2/4
f 298/2/4 299/2/4 301/2/4
f 295/2/4 298/2/4 301/2/4
f 292/2/4 295/2/4 301/2/4
f 289/2/4 292/2/4 301/2/4
f 286/2/4 289/2/4 301/2/4
f 299/1/4 300/1/4 302/1/4
f 301/2/4 299/2/4 302/2/4
f 280/1/4 301/1/4 303/1/4
f 301/1/4 302/1/4 303/1/4
f 302/1/4 300/1/4 304/1/4
f 303/1/4 302/1/4 304/1/4
f 304/1/4 300/1/4 306/1/4
f 305/1/4 306/1/4 307/1/4
f 306/1/4 300/1/4 308/1/4
f 307/1/4 306/1/4 308/1/4
f 307/2/4 308/2/4 309/2/4
f 308/1/4 300/1/4 310/1/4
f 309/2/4 308/2/4 310/2/4
f 310/1/4 300/1/4 311/1/4
f 307/2/4 309/2/4 312/2/4
f 309/1/4 310/1/4 313/1/4
f 312/2/4 309/2/4 313/2/4
f 313/1/4 310/1/4 314/1/4
f 307/2/4 312/2/4 315/2/4
f 312/1/4 313/1/4 316/1/4
f 315/2/4 312/2/4 316/2/4
f 316/1/4 313/1/4 317/1/4
f 307/2/4 315/2/4 318/2/4
f 315/1/4 316/1/4 319/1/4
f 318/2/4 315/2/4 319/2/4
f 319/1/4 316/1/4 320/1/4
f 307/2/4 318/2/4 321/2/4
f 318/1/4 319/1/4 322/1/4
f 321/2/4 318/2/4 322/2/4
f 322/1/4 319/1/4 323/1/4
f 305/1/4 307/1/4 324/1/4
f 307/2/4 321/2/4 324/2/4
f 321/1/4 322/1/4 325/1/4
f 324/2/4 321/2/4 325/2/4
f 325/1/4 322/1/4 326/1/4
f 305/1/4 324/1/4 328/1/4
f 324/1/4 325/1/4 328/1/4
f 328/1/4 325/1/4 329/1/4
f 329/1/4 325/1/4 330/1/4
f 327/1/4 328/1/4 331/1/4
f 328/1/4 329/1/4 331/1/4
f 331/1/4 329/1/4 332/1/4
f 337/1/5 334/1/5 333/1/5
f 338/1/5 334/1/5 337/1/5
f 339/1/5 336/1/5 335/1/5
f 340/1/5 336/1/5 339/1/5
f 345/1/5 342/1/5 341/1/5
f 346/1/5 342/1/5 345/1/5
f 347/1/5 344/1/5 343/1/5
f 348/1/5 344/1/5 347/1/5
f 349/2/5 346/2/5 345/2/5
f 350/2/5 348/2/5 347/2/5
f 351/2/5 346/2/5 349/2/5
f 352/2/5 350/2/5 347/2/5
f 353/2/5 346/2/5 351/2/5
f 354/2/5 352/2/5 347/2/5
f 355/2/5 346/2/5 353/2/5
f 356/2/5 354/2/5 347/2/5
f 357/2/5 346/2/5 355/2/5
f 358/2/5 356/2/5 347/2/5
f 359/2/5 346/2/5 357/2/5
f 360/2/5 358/2/5 347/2/5
f 361/2/5 346/2/5 359/2/5
f 362/2/5 360/2/5 347/2/5
f 363/2/5 346/2/5 361/2/5
f 364/2/5 362/2/5 347/2/5
f 365/2/5 346/2/5 363/2/5
f 366/2/5 346/2/5 365/2/5
f 367/2/5 364/2/5 347/2/5
f 368/2/5 364/2/5 367/2/5
f 369/1/5 366/1/5 365/1/5
f 370/1/5 366/1/5 369/1/5
f 371/1/5 368/1/5 367/1/5
f 372/1/5 368/1/5 371/1/5
f 375/1/5 374/1/5 373/1/5
f 376/1/5 374/1/5 375/1/5
f 377/2/5 376/2/5 375/2/5
f 378/2/5 376/2/5 377/2/5
f 379/1/5 378/1/5 377/1/5
f 380/1/5 378/1/5 379/1/5
f 381/1/6 382/1/6 385/1/6
f 383/1/6 384/1/6 386/1/6
f 381/1/6 385/1/6 387/1/6
f 386/1/6 384/1/6 388/1/6
f 381/1/6 387/1/6 389/1/6
f 389/1/6 387/1/6 390/1/6
f 388/1/6 384/1/6 391/1/6
f 391/1/6 384/1/6 392/1/6
f 393/1/6 394/1/6 397/1/6
f 397/1/6 394/1/6 398/1/6
f 395/1/6 396/1/6 399/1/6
f 399/1/6 396/1/6 400/1/6
f 397/2/6 398/2/6 401/2/6
f 401/2/6 398/2/6 402/2/6
f 399/2/6 400/2/6 403/2/6
f 403/2/6 400/2/6 404/2/6
f 401/1/6 402/1/6 405/1/6
f 405/1/6 402/1/6 406/1/6
f 403/1/6 404/1/6 407/1/6
f 407/1/6 404/1/6 408/1/6
f 409/1/6 410/1/6 413/1/6
f 413/1/6 410/1/6 414/1/6
f 411/1/6 412/1/6 415/1/6
f 415/1/6 412/1/6 416/1/6
f 413/2/6 414/2/6 417/2/6
f 417/2/6 414/2/6 418/2/6
f 415/2/6 416/2/6 419/2/6
f 419/2/6 416/2/6 420/2/6
f 417/1/6 418/1/6 421/1/6
f 421/1/6 418/1/6 422/1/6
f 419/1/6 420/1/6 423/1/6
f 423/1/6 420/1/6 424/1/6
f 425/1/6 426/1/6 429/1/6
f 429/1/6 426/1/6 430/1/6
f 427/1/6 428/1/6 431/1/6
f 431/1/6 428/1/6 432/1/6
f 429/2/6 430/2/6 433/2/6
f 433/2/6 430/2/6 434/2/6
f 431/2/6 432/2/6 435/2/6
f 435/2/6 432/2/6 436/2/6
f 433/1/6 434/1/6 437/1/6
f 437/1/6 434/1/6 438/1/6
f 435/1/6 436/1/6 439/1/6
f 439/1/6 436/1/6 440/1/6
f 441/1/6 442/1/6 445/1/6
f 445/1/6 442/1/6 446/1/6
f 443/1/6 444/1/6 447/1/6
f 447/1/6 444/1/6 448/1/6
f 445/2/6 446/2/6 449/2/6
f 449/2/6 446/2/6 450/2/6
f 447/2/6 448/2/6 451/2/6
f 451/2/6 448/2/6 452/2/6
f 449/1/6 450/1/6 453/1/6
f 453/1/6 450/1/6 454/1/6
f 451/1/6 452/1/6 455/1/6
f 455/1/6 452/1/6 456/1/6
f 457/1/6 458/1/6 461/1/6
f 461/1/6 458/1/6 462/1/6
f 459/1/6 460/1/6 463/1/6
f 463/1/6 460/1/6 464/1/6
f 461/2/6 462/2/6 465/2/6
f 465/2/6 462/2/6 466/2/6
f 463/2/6 464/2/6 467/2/6
f 467/2/6 464/2/6 468/2/6
f 465/1/6 466/1/6 469/1/6
f 469/1/6 466/1/6 470/1/6
f 467/1/6 468/1/6 471/1/6
f 471/1/6 468/1/6 472/1/6
f 473/1/6 474/1/6 477/1/6
f 477/1/6 474/1/6 478/1/6
f 475/1/6 476/1/6 479/1/6
f 479/1/6 476/1/6 480/1/6
f 477/2/6 478/2/6 481/2/6
f 481/2/6 478/2/6 482/2/6
f 479/2/6 480/2/6 483/2/6
f 483/2/6 480/2/6 484/2/6
f 481/1/6 482/1/6 485/1/6
f 485/1/6 482/1/6 486/1/6
f 483/1/6 484/1/6 487/1/6
f 487/1/6 484/1/6 488/1/6
f 489/1/6 490/1/6 491/1/6
f 491/1/6 490/1/6 492/1/6
f 489/1/6 491/1/6 493/1/6
f 491/2/6 492/2/6 493/2/6
f 492/1/6 490/1/6 494/1/6
f 493/2/6 492/2/6 494/2/6
f 489/1/6 493/1/6 495/1/6
f 493/1/6 494/1/6 495/1/6
f 494/1/6 490/1/6 496/1/6
f 495/1/6 494/1/6 496/1/6
