# MagicaVoxel @ Ephtracy

# material
mtllib Store01.mtl
usemtl palette

# normals
vn -1 0 0
vn 1 0 0
vn 0 0 1
vn 0 0 -1
vn 0 -1 0
vn 0 1 0

# texcoords
vt 0.814453 0.5
vt 0.849609 0.5
vt 0.912109 0.5
vt 0.943359 0.5
vt 0.947266 0.5
vt 0.970703 0.5
vt 0.974609 0.5
vt 0.982422 0.5

# verts
v -10 0 10
v -10 0 1
v -10 0 -9
v -10 1 10
v -10 1 9
v -10 1 1
v -10 3 -0
v -10 3 -8
v -10 12 9
v -10 12 3
v -10 12 1
v -10 12 -0
v -10 12 -8
v -10 13 10
v -10 13 3
v -10 13 2
v -10 13 -8
v -10 15 2
v -10 15 -8
v -10 16 3
v -10 16 -9
v -9 3 -0
v -9 3 -8
v -9 12 -0
v -9 12 -8
v -9 13 2
v -9 13 -8
v -9 15 2
v -9 15 -8
v -2 0 -8
v -2 0 -9
v -2 12 -8
v -2 12 -9
v 2 0 -9
v 2 0 -10
v 2 3 1
v 2 3 -0
v 2 5 -9
v 2 5 -10
v 2 11 1
v 2 11 -0
v 3 15 2
v 3 15 -2
v 3 16 2
v 3 16 -2
v 9 0 10
v 9 0 9
v 9 0 1
v 9 0 -0
v 9 8 -8
v 9 8 -9
v 9 11 1
v 9 11 -0
v 9 12 10
v 9 12 9
v 9 12 -8
v 9 12 -9
v 9 13 3
v 9 13 2
v 9 14 -8
v 9 14 -9
v 9 15 3
v 9 15 2
v 9 15 -8
v 9 15 -9
v -9 0 -8
v -9 0 -9
v -9 1 10
v -9 1 9
v -9 3 1
v -9 3 -0
v -9 11 1
v -9 11 -0
v -9 12 10
v -9 12 9
v -9 12 -8
v -9 12 -9
v -9 13 3
v -9 13 2
v -9 14 -8
v -9 14 -9
v -9 15 3
v -9 15 2
v -9 15 -2
v -9 15 -8
v -9 15 -9
v -9 16 2
v -9 16 -2
v 2 8 -8
v 2 8 -9
v 2 12 -8
v 2 12 -9
v 3 0 10
v 3 0 1
v 3 0 -0
v 3 1 10
v 3 1 1
v 3 11 1
v 3 11 -0
v 9 0 -9
v 9 0 -10
v 9 1 -9
v 9 1 -10
v 9 5 -9
v 9 5 -10
v 9 13 2
v 9 13 -8
v 9 15 2
v 9 15 -8
v 10 0 10
v 10 0 9
v 10 0 1
v 10 0 -9
v 10 12 9
v 10 12 3
v 10 12 1
v 10 13 10
v 10 13 3
v 10 13 2
v 10 13 -8
v 10 15 2
v 10 15 -8
v 10 16 3
v 10 16 -9
v -10 0 10
v -10 1 10
v -10 13 10
v -9 1 10
v -9 12 10
v -9 13 10
v -7 12 10
v -7 13 10
v -5 12 10
v -5 13 10
v -3 12 10
v -3 13 10
v -1 12 10
v -1 13 10
v 1 12 10
v 1 13 10
v 3 0 10
v 3 1 10
v 3 12 10
v 3 13 10
v 5 12 10
v 5 13 10
v 7 12 10
v 7 13 10
v 9 0 10
v 9 12 10
v 9 13 10
v 10 0 10
v 10 13 10
v -10 13 3
v -10 16 3
v -9 13 3
v -9 15 3
v 9 13 3
v 9 15 3
v 10 13 3
v 10 16 3
v -9 13 2
v -9 15 2
v -7 13 2
v -5 13 2
v -3 13 2
v -1 13 2
v 1 13 2
v 3 13 2
v 5 13 2
v 7 13 2
v 9 13 2
v 9 15 2
v -10 1 1
v -10 12 1
v -9 3 1
v -9 11 1
v 2 3 1
v 2 11 1
v 3 1 1
v 3 11 1
v 9 0 1
v 9 11 1
v 10 0 1
v 10 12 1
v -9 3 -0
v -9 11 -0
v 2 3 -0
v 2 11 -0
v 3 0 -0
v 3 11 -0
v 9 0 -0
v 9 11 -0
v -9 15 -2
v -9 16 -2
v 3 15 -2
v 3 16 -2
v -10 3 -8
v -10 12 -8
v -10 13 -8
v -10 15 -8
v -9 3 -8
v -9 12 -8
v -9 13 -8
v -9 15 -8
v 9 13 -8
v 9 15 -8
v 10 13 -8
v 10 15 -8
v -10 1 9
v -10 12 9
v -9 1 9
v -9 12 9
v 9 0 9
v 9 12 9
v 10 0 9
v 10 12 9
v -10 13 2
v -10 15 2
v -9 13 2
v -9 15 2
v -9 16 2
v 3 15 2
v 3 16 2
v 9 13 2
v 9 15 2
v 10 13 2
v 10 15 2
v -10 3 -0
v -10 12 -0
v -9 3 -0
v -9 12 -0
v -9 0 -8
v -9 12 -8
v -9 14 -8
v -9 15 -8
v -2 0 -8
v -2 12 -8
v 2 8 -8
v 2 12 -8
v 9 8 -8
v 9 12 -8
v 9 14 -8
v 9 15 -8
v -10 0 -9
v -10 16 -9
v -9 0 -9
v -9 12 -9
v -9 14 -9
v -9 15 -9
v -2 0 -9
v -2 12 -9
v 2 0 -9
v 2 5 -9
v 2 8 -9
v 2 12 -9
v 4 5 -9
v 9 0 -9
v 9 1 -9
v 9 5 -9
v 9 8 -9
v 9 12 -9
v 9 14 -9
v 9 15 -9
v 10 0 -9
v 10 16 -9
v 2 0 -10
v 2 5 -10
v 4 1 -10
v 4 5 -10
v 9 0 -10
v 9 1 -10
v 9 5 -10
v -10 0 10
v 3 0 10
v 9 0 10
v 10 0 10
v 9 0 9
v 10 0 9
v -10 0 1
v 3 0 1
v 9 0 1
v 10 0 1
v -9 0 -0
v 3 0 -0
v 9 0 -0
v -9 0 -8
v -2 0 -8
v 9 0 -8
v -10 0 -9
v -9 0 -9
v -2 0 -9
v 2 0 -9
v 9 0 -9
v 10 0 -9
v 2 0 -10
v 9 0 -10
v -9 11 1
v 2 11 1
v 3 11 1
v 9 11 1
v -9 11 -0
v 2 11 -0
v 3 11 -0
v 9 11 -0
v -9 12 10
v -7 12 10
v -5 12 10
v -3 12 10
v -1 12 10
v 1 12 10
v 3 12 10
v 5 12 10
v 7 12 10
v 9 12 10
v -10 12 9
v -9 12 9
v 9 12 9
v 10 12 9
v -10 12 3
v -9 12 3
v 9 12 3
v 10 12 3
v -9 12 2
v -7 12 2
v -5 12 2
v -3 12 2
v -1 12 2
v 1 12 2
v 3 12 2
v 5 12 2
v 7 12 2
v 9 12 2
v -10 12 1
v 10 12 1
v -10 12 -0
v -9 12 -0
v -10 12 -8
v -9 12 -8
v -2 12 -8
v 2 12 -8
v 9 12 -8
v -9 12 -9
v -2 12 -9
v 2 12 -9
v 9 12 -9
v -9 15 3
v 9 15 3
v -10 15 2
v -9 15 2
v 9 15 2
v 10 15 2
v -10 15 -8
v -9 15 -8
v 9 15 -8
v 10 15 -8
v -9 15 -9
v 9 15 -9
v -9 1 10
v 3 1 10
v -10 1 9
v -9 1 9
v -10 1 1
v 3 1 1
v -9 3 1
v 2 3 1
v -10 3 -0
v -9 3 -0
v 2 3 -0
v -10 3 -8
v -9 3 -8
v 2 5 -9
v 4 5 -9
v 9 5 -9
v 2 5 -10
v 4 5 -10
v 9 5 -10
v 2 8 -8
v 9 8 -8
v 2 8 -9
v 9 8 -9
v -10 13 10
v -9 13 10
v -7 13 10
v -5 13 10
v -3 13 10
v -1 13 10
v 1 13 10
v 3 13 10
v 5 13 10
v 7 13 10
v 9 13 10
v 10 13 10
v -10 13 3
v -9 13 3
v 9 13 3
v 10 13 3
v -10 13 2
v -9 13 2
v -7 13 2
v -5 13 2
v -3 13 2
v -1 13 2
v 1 13 2
v 3 13 2
v 5 13 2
v 7 13 2
v 9 13 2
v 10 13 2
v -10 13 -8
v -9 13 -8
v 9 13 -8
v 10 13 -8
v -9 14 -8
v 9 14 -8
v -9 14 -9
v 9 14 -9
v -9 15 2
v 3 15 2
v -9 15 -2
v 3 15 -2
v -10 16 3
v 10 16 3
v -9 16 2
v 3 16 2
v 9 16 2
v -9 16 -2
v 3 16 -2
v -9 16 -8
v 3 16 -8
v 9 16 -8
v -10 16 -9
v 10 16 -9

# faces
f 4/4/1 2/4/1 1/4/1
f 5/4/1 2/4/1 4/4/1
f 6/8/1 3/8/1 2/8/1
f 6/4/1 2/4/1 5/4/1
f 7/8/1 3/8/1 6/8/1
f 8/8/1 3/8/1 7/8/1
f 9/1/1 5/1/1 4/1/1
f 11/8/1 7/8/1 6/8/1
f 12/8/1 7/8/1 11/8/1
f 13/8/1 3/8/1 8/8/1
f 14/1/1 10/1/1 9/1/1
f 14/1/1 9/1/1 4/1/1
f 15/8/1 12/8/1 11/8/1
f 15/1/1 10/1/1 14/1/1
f 15/8/1 13/8/1 12/8/1
f 15/8/1 11/8/1 10/8/1
f 16/8/1 13/8/1 15/8/1
f 17/8/1 3/8/1 13/8/1
f 17/8/1 13/8/1 16/8/1
f 18/8/1 16/8/1 15/8/1
f 19/8/1 3/8/1 17/8/1
f 20/8/1 18/8/1 15/8/1
f 20/8/1 19/8/1 18/8/1
f 21/8/1 3/8/1 19/8/1
f 21/8/1 19/8/1 20/8/1
f 24/7/1 23/7/1 22/7/1
f 25/7/1 23/7/1 24/7/1
f 28/7/1 27/7/1 26/7/1
f 29/7/1 27/7/1 28/7/1
f 32/8/1 31/8/1 30/8/1
f 33/8/1 31/8/1 32/8/1
f 38/2/1 35/2/1 34/2/1
f 39/2/1 35/2/1 38/2/1
f 40/8/1 37/8/1 36/8/1
f 41/8/1 37/8/1 40/8/1
f 44/4/1 43/4/1 42/4/1
f 45/4/1 43/4/1 44/4/1
f 52/8/1 49/8/1 48/8/1
f 53/8/1 49/8/1 52/8/1
f 54/1/1 47/1/1 46/1/1
f 55/1/1 47/1/1 54/1/1
f 56/8/1 51/8/1 50/8/1
f 57/8/1 51/8/1 56/8/1
f 62/8/1 59/8/1 58/8/1
f 63/8/1 59/8/1 62/8/1
f 64/8/1 61/8/1 60/8/1
f 65/8/1 61/8/1 64/8/1
f 70/8/2 71/8/2 72/8/2
f 72/8/2 71/8/2 73/8/2
f 68/1/2 69/1/2 74/1/2
f 74/1/2 69/1/2 75/1/2
f 66/8/2 67/8/2 76/8/2
f 76/8/2 67/8/2 77/8/2
f 78/8/2 79/8/2 82/8/2
f 82/8/2 79/8/2 83/8/2
f 80/8/2 81/8/2 85/8/2
f 85/8/2 81/8/2 86/8/2
f 83/8/2 84/8/2 87/8/2
f 87/8/2 84/8/2 88/8/2
f 89/8/2 90/8/2 91/8/2
f 91/8/2 90/8/2 92/8/2
f 93/4/2 94/4/2 96/4/2
f 94/8/2 95/8/2 97/8/2
f 96/4/2 94/4/2 97/4/2
f 97/8/2 95/8/2 98/8/2
f 98/8/2 95/8/2 99/8/2
f 100/2/2 101/2/2 102/2/2
f 102/2/2 101/2/2 103/2/2
f 102/7/2 103/7/2 104/7/2
f 104/7/2 103/7/2 105/7/2
f 106/7/2 107/7/2 108/7/2
f 108/7/2 107/7/2 109/7/2
f 110/1/2 111/1/2 114/1/2
f 112/8/2 113/8/2 116/8/2
f 114/1/2 115/1/2 117/1/2
f 110/1/2 114/1/2 117/1/2
f 115/8/2 116/8/2 118/8/2
f 117/1/2 115/1/2 118/1/2
f 118/8/2 116/8/2 119/8/2
f 116/8/2 113/8/2 120/8/2
f 119/8/2 116/8/2 120/8/2
f 118/8/2 119/8/2 121/8/2
f 120/8/2 113/8/2 122/8/2
f 118/8/2 121/8/2 123/8/2
f 121/8/2 122/8/2 123/8/2
f 122/8/2 113/8/2 124/8/2
f 123/8/2 122/8/2 124/8/2
f 128/4/3 126/4/3 125/4/3
f 128/1/3 127/1/3 126/1/3
f 129/1/3 127/1/3 128/1/3
f 130/1/3 127/1/3 129/1/3
f 131/6/3 130/6/3 129/6/3
f 132/6/3 130/6/3 131/6/3
f 133/1/3 132/1/3 131/1/3
f 134/1/3 132/1/3 133/1/3
f 135/6/3 134/6/3 133/6/3
f 136/6/3 134/6/3 135/6/3
f 137/1/3 136/1/3 135/1/3
f 138/1/3 136/1/3 137/1/3
f 139/6/3 138/6/3 137/6/3
f 140/6/3 138/6/3 139/6/3
f 141/4/3 128/4/3 125/4/3
f 142/4/3 128/4/3 141/4/3
f 143/1/3 140/1/3 139/1/3
f 144/1/3 140/1/3 143/1/3
f 145/6/3 144/6/3 143/6/3
f 146/6/3 144/6/3 145/6/3
f 147/1/3 146/1/3 145/1/3
f 148/1/3 146/1/3 147/1/3
f 150/6/3 148/6/3 147/6/3
f 151/6/3 148/6/3 150/6/3
f 152/1/3 150/1/3 149/1/3
f 152/1/3 151/1/3 150/1/3
f 153/1/3 151/1/3 152/1/3
f 156/8/3 155/8/3 154/8/3
f 157/8/3 155/8/3 156/8/3
f 159/8/3 155/8/3 157/8/3
f 160/8/3 159/8/3 158/8/3
f 161/8/3 155/8/3 159/8/3
f 161/8/3 159/8/3 160/8/3
f 164/7/3 163/7/3 162/7/3
f 165/7/3 163/7/3 164/7/3
f 166/7/3 163/7/3 165/7/3
f 167/7/3 163/7/3 166/7/3
f 168/7/3 163/7/3 167/7/3
f 169/7/3 163/7/3 168/7/3
f 170/7/3 163/7/3 169/7/3
f 171/7/3 163/7/3 170/7/3
f 172/7/3 163/7/3 171/7/3
f 173/7/3 163/7/3 172/7/3
f 176/8/3 175/8/3 174/8/3
f 177/8/3 175/8/3 176/8/3
f 178/8/3 176/8/3 174/8/3
f 179/8/3 175/8/3 177/8/3
f 180/8/3 178/8/3 174/8/3
f 180/8/3 179/8/3 178/8/3
f 181/8/3 175/8/3 179/8/3
f 181/8/3 179/8/3 180/8/3
f 183/8/3 175/8/3 181/8/3
f 184/8/3 183/8/3 182/8/3
f 185/8/3 175/8/3 183/8/3
f 185/8/3 183/8/3 184/8/3
f 188/7/3 187/7/3 186/7/3
f 189/7/3 187/7/3 188/7/3
f 192/7/3 191/7/3 190/7/3
f 193/7/3 191/7/3 192/7/3
f 196/5/3 195/5/3 194/5/3
f 197/5/3 195/5/3 196/5/3
f 202/8/3 199/8/3 198/8/3
f 203/8/3 199/8/3 202/8/3
f 204/8/3 201/8/3 200/8/3
f 205/8/3 201/8/3 204/8/3
f 208/8/3 207/8/3 206/8/3
f 209/8/3 207/8/3 208/8/3
f 210/1/4 211/1/4 212/1/4
f 212/1/4 211/1/4 213/1/4
f 214/1/4 215/1/4 216/1/4
f 216/1/4 215/1/4 217/1/4
f 218/8/4 219/8/4 220/8/4
f 220/8/4 219/8/4 221/8/4
f 221/8/4 222/8/4 223/8/4
f 223/8/4 222/8/4 224/8/4
f 225/8/4 226/8/4 227/8/4
f 227/8/4 226/8/4 228/8/4
f 229/8/4 230/8/4 231/8/4
f 231/8/4 230/8/4 232/8/4
f 233/7/4 234/7/4 237/7/4
f 237/7/4 234/7/4 238/7/4
f 239/3/4 240/3/4 241/3/4
f 241/3/4 240/3/4 242/3/4
f 235/7/4 236/7/4 243/7/4
f 243/7/4 236/7/4 244/7/4
f 245/8/4 246/8/4 247/8/4
f 247/8/4 246/8/4 248/8/4
f 248/8/4 246/8/4 249/8/4
f 249/8/4 246/8/4 250/8/4
f 248/8/4 249/8/4 252/8/4
f 251/8/4 252/8/4 253/8/4
f 253/8/4 252/8/4 254/8/4
f 254/8/4 252/8/4 255/8/4
f 252/8/4 249/8/4 256/8/4
f 255/8/4 252/8/4 256/8/4
f 254/8/4 255/8/4 257/8/4
f 257/8/4 255/8/4 260/8/4
f 260/8/4 255/8/4 261/8/4
f 256/8/4 249/8/4 262/8/4
f 262/8/4 249/8/4 263/8/4
f 250/8/4 246/8/4 264/8/4
f 262/8/4 263/8/4 265/8/4
f 263/8/4 264/8/4 265/8/4
f 260/8/4 261/8/4 265/8/4
f 258/8/4 259/8/4 265/8/4
f 261/8/4 262/8/4 265/8/4
f 259/8/4 260/8/4 265/8/4
f 264/8/4 246/8/4 266/8/4
f 265/8/4 264/8/4 266/8/4
f 267/2/4 268/2/4 269/2/4
f 269/2/4 268/2/4 270/2/4
f 267/2/4 269/2/4 271/2/4
f 269/7/4 270/7/4 272/7/4
f 271/2/4 269/2/4 272/2/4
f 272/7/4 270/7/4 273/7/4
f 278/1/5 277/1/5 276/1/5
f 279/1/5 277/1/5 278/1/5
f 280/4/5 275/4/5 274/4/5
f 281/4/5 275/4/5 280/4/5
f 284/8/5 281/8/5 280/8/5
f 285/8/5 281/8/5 284/8/5
f 286/8/5 283/8/5 282/8/5
f 287/7/5 285/7/5 284/7/5
f 287/7/5 286/7/5 285/7/5
f 287/8/5 284/8/5 280/8/5
f 288/7/5 286/7/5 287/7/5
f 289/8/5 283/8/5 286/8/5
f 289/7/5 286/7/5 288/7/5
f 290/8/5 287/8/5 280/8/5
f 291/8/5 287/8/5 290/8/5
f 292/8/5 289/8/5 288/8/5
f 293/8/5 289/8/5 292/8/5
f 294/8/5 283/8/5 289/8/5
f 294/8/5 289/8/5 293/8/5
f 295/8/5 283/8/5 294/8/5
f 296/2/5 294/2/5 293/2/5
f 297/2/5 294/2/5 296/2/5
f 302/8/5 299/8/5 298/8/5
f 303/8/5 299/8/5 302/8/5
f 304/8/5 301/8/5 300/8/5
f 305/8/5 301/8/5 304/8/5
f 317/6/5 307/6/5 306/6/5
f 318/6/5 315/6/5 314/6/5
f 320/1/5 317/1/5 316/1/5
f 321/6/5 307/6/5 317/6/5
f 321/1/5 317/1/5 320/1/5
f 322/1/5 319/1/5 318/1/5
f 322/6/5 318/6/5 314/6/5
f 323/1/5 319/1/5 322/1/5
f 324/6/5 307/6/5 321/6/5
f 324/8/5 321/8/5 320/8/5
f 325/1/5 308/1/5 307/1/5
f 325/6/5 307/6/5 324/6/5
f 326/6/5 309/6/5 308/6/5
f 326/1/5 308/1/5 325/1/5
f 327/1/5 310/1/5 309/1/5
f 327/6/5 309/6/5 326/6/5
f 328/6/5 311/6/5 310/6/5
f 328/1/5 310/1/5 327/1/5
f 329/1/5 312/1/5 311/1/5
f 329/6/5 311/6/5 328/6/5
f 330/6/5 313/6/5 312/6/5
f 330/1/5 312/1/5 329/1/5
f 331/1/5 314/1/5 313/1/5
f 331/6/5 313/6/5 330/6/5
f 332/6/5 322/6/5 314/6/5
f 332/1/5 314/1/5 331/1/5
f 333/8/5 323/8/5 322/8/5
f 333/6/5 322/6/5 332/6/5
f 334/8/5 324/8/5 320/8/5
f 334/8/5 325/8/5 324/8/5
f 334/8/5 333/8/5 332/8/5
f 334/8/5 331/8/5 330/8/5
f 334/8/5 332/8/5 331/8/5
f 334/8/5 326/8/5 325/8/5
f 334/8/5 327/8/5 326/8/5
f 334/8/5 330/8/5 329/8/5
f 334/8/5 329/8/5 328/8/5
f 334/8/5 328/8/5 327/8/5
f 335/8/5 323/8/5 333/8/5
f 335/8/5 333/8/5 334/8/5
f 338/8/5 337/8/5 336/8/5
f 339/8/5 337/8/5 338/8/5
f 343/8/5 340/8/5 339/8/5
f 344/8/5 340/8/5 343/8/5
f 345/8/5 342/8/5 341/8/5
f 346/8/5 342/8/5 345/8/5
f 350/8/5 348/8/5 347/8/5
f 351/8/5 348/8/5 350/8/5
f 353/8/5 350/8/5 349/8/5
f 354/8/5 350/8/5 353/8/5
f 355/8/5 352/8/5 351/8/5
f 356/8/5 352/8/5 355/8/5
f 357/8/5 355/8/5 354/8/5
f 358/8/5 355/8/5 357/8/5
f 359/4/6 360/4/6 362/4/6
f 361/4/6 362/4/6 363/4/6
f 362/4/6 360/4/6 364/4/6
f 363/4/6 362/4/6 364/4/6
f 365/8/6 366/8/6 368/8/6
f 368/8/6 366/8/6 369/8/6
f 367/8/6 368/8/6 370/8/6
f 370/8/6 368/8/6 371/8/6
f 372/2/6 373/2/6 375/2/6
f 373/7/6 374/7/6 376/7/6
f 375/2/6 373/2/6 376/2/6
f 376/7/6 374/7/6 377/7/6
f 378/8/6 379/8/6 380/8/6
f 380/8/6 379/8/6 381/8/6
f 382/1/6 383/1/6 394/1/6
f 383/6/6 384/6/6 395/6/6
f 394/1/6 383/1/6 395/1/6
f 392/1/6 393/1/6 396/1/6
f 391/6/6 392/6/6 396/6/6
f 396/1/6 393/1/6 397/1/6
f 395/6/6 384/6/6 399/6/6
f 384/1/6 385/1/6 400/1/6
f 399/6/6 384/6/6 400/6/6
f 385/6/6 386/6/6 401/6/6
f 400/1/6 385/1/6 401/1/6
f 386/1/6 387/1/6 402/1/6
f 401/6/6 386/6/6 402/6/6
f 387/6/6 388/6/6 403/6/6
f 402/1/6 387/1/6 403/1/6
f 388/1/6 389/1/6 404/1/6
f 403/6/6 388/6/6 404/6/6
f 389/6/6 390/6/6 405/6/6
f 404/1/6 389/1/6 405/1/6
f 390/1/6 391/1/6 406/1/6
f 405/6/6 390/6/6 406/6/6
f 391/6/6 396/6/6 407/6/6
f 406/1/6 391/1/6 407/1/6
f 407/6/6 396/6/6 408/6/6
f 398/8/6 399/8/6 410/8/6
f 410/8/6 399/8/6 411/8/6
f 408/8/6 409/8/6 412/8/6
f 412/8/6 409/8/6 413/8/6
f 414/8/6 415/8/6 416/8/6
f 416/8/6 415/8/6 417/8/6
f 418/7/6 419/7/6 420/7/6
f 420/7/6 419/7/6 421/7/6
f 422/8/6 423/8/6 424/8/6
f 424/8/6 423/8/6 425/8/6
f 425/8/6 423/8/6 426/8/6
f 422/8/6 424/8/6 427/8/6
f 425/4/6 426/4/6 428/4/6
f 422/8/6 427/8/6 429/8/6
f 427/5/6 428/5/6 429/5/6
f 428/4/6 426/4/6 430/4/6
f 429/5/6 428/5/6 430/5/6
f 426/8/6 423/8/6 431/8/6
f 430/4/6 426/4/6 431/4/6
f 429/8/6 430/8/6 432/8/6
f 422/8/6 429/8/6 432/8/6
f 430/8/6 431/8/6 432/8/6
f 431/8/6 423/8/6 433/8/6
f 432/8/6 431/8/6 433/8/6
