# MagicaVoxel @ Ephtracy

# material
mtllib Store02.mtl
usemtl palette

# normals
vn -1 0 0
vn 1 0 0
vn 0 0 1
vn 0 0 -1
vn 0 -1 0
vn 0 1 0

# texcoords
vt 0.814453 0.5
vt 0.970703 0.5
vt 0.974609 0.5
vt 0.978516 0.5
vt 0.982422 0.5
vt 0.986328 0.5

# verts
v -15 2 2.5
v -15 2 -1.5
v -15 5 -1.5
v -15 5 -2.5
v -15 6 2.5
v -15 6 -2.5
v -15 9 6.5
v -15 9 5.5
v -15 9 -5.5
v -15 9 -6.5
v -15 10 6.5
v -15 10 5.5
v -15 10 4.5
v -15 10 -4.5
v -15 10 -5.5
v -15 10 -6.5
v -15 11 5.5
v -15 11 4.5
v -15 11 3.5
v -15 11 -3.5
v -15 11 -4.5
v -15 11 -5.5
v -15 12 4.5
v -15 12 3.5
v -15 12 2.5
v -15 12 -2.5
v -15 12 -3.5
v -15 12 -4.5
v -15 13 3.5
v -15 13 2.5
v -15 13 1.5
v -15 13 -1.5
v -15 13 -2.5
v -15 13 -3.5
v -15 14 2.5
v -15 14 1.5
v -15 14 0.5
v -15 14 -0.5
v -15 14 -1.5
v -15 14 -2.5
v -15 15 1.5
v -15 15 0.5
v -15 15 -0.5
v -15 15 -1.5
v -15 16 0.5
v -15 16 -0.5
v -14 0 5.5
v -14 0 -5.5
v -14 2 2.5
v -14 2 -1.5
v -14 5 -1.5
v -14 5 -2.5
v -14 6 2.5
v -14 6 -2.5
v -14 9 5.5
v -14 9 -5.5
v -14 10 5.5
v -14 10 4.5
v -14 10 -4.5
v -14 10 -5.5
v -14 11 4.5
v -14 11 3.5
v -14 11 -3.5
v -14 11 -4.5
v -14 12 3.5
v -14 12 2.5
v -14 12 -2.5
v -14 12 -3.5
v -14 13 2.5
v -14 13 1.5
v -14 13 -1.5
v -14 13 -2.5
v -14 14 1.5
v -14 14 0.5
v -14 14 -0.5
v -14 14 -1.5
v -14 15 0.5
v -14 15 -0.5
v -13 12 4.5
v -13 12 3.5
v -13 13 3.5
v -13 18 4.5
v -13 18 3.5
v -9 2 -4.5
v -9 2 -5.5
v -9 8 -4.5
v -9 8 -5.5
v -8 5 5.5
v -8 5 4.5
v -8 8 5.5
v -8 8 4.5
v -4 12 4.5
v -4 12 3.5
v -4 13 3.5
v -4 15 4.5
v -4 15 3.5
v -2 5 5.5
v -2 5 4.5
v -2 8 5.5
v -2 8 4.5
v 8 2 -4.5
v 8 2 -5.5
v 8 8 -4.5
v 8 8 -5.5
v 13 0 5.5
v 13 0 4.5
v 13 2 -4.5
v 13 2 -5.5
v 13 8 5.5
v 13 8 4.5
v 13 8 -4.5
v 13 8 -5.5
v -13 2 -4.5
v -13 2 -5.5
v -13 5 5.5
v -13 5 4.5
v -13 8 5.5
v -13 8 4.5
v -13 8 -4.5
v -13 8 -5.5
v -12 12 4.5
v -12 12 3.5
v -12 13 3.5
v -12 18 4.5
v -12 18 3.5
v -8 2 -4.5
v -8 2 -5.5
v -8 8 -4.5
v -8 8 -5.5
v -7 5 5.5
v -7 5 4.5
v -7 8 5.5
v -7 8 4.5
v -1 0 5.5
v -1 0 4.5
v -1 8 5.5
v -1 8 4.5
v 4 12 4.5
v 4 12 3.5
v 4 13 3.5
v 4 15 4.5
v 4 15 3.5
v 9 2 -4.5
v 9 2 -5.5
v 9 8 -4.5
v 9 8 -5.5
v 14 0 5.5
v 14 0 -5.5
v 14 9 5.5
v 14 9 -5.5
v 14 10 5.5
v 14 10 4.5
v 14 10 -4.5
v 14 10 -5.5
v 14 11 4.5
v 14 11 3.5
v 14 11 -3.5
v 14 11 -4.5
v 14 12 3.5
v 14 12 2.5
v 14 12 -2.5
v 14 12 -3.5
v 14 13 2.5
v 14 13 1.5
v 14 13 -1.5
v 14 13 -2.5
v 14 14 1.5
v 14 14 0.5
v 14 14 -0.5
v 14 14 -1.5
v 14 15 0.5
v 14 15 -0.5
v 15 9 6.5
v 15 9 5.5
v 15 9 -5.5
v 15 9 -6.5
v 15 10 6.5
v 15 10 5.5
v 15 10 4.5
v 15 10 -4.5
v 15 10 -5.5
v 15 10 -6.5
v 15 11 5.5
v 15 11 4.5
v 15 11 3.5
v 15 11 -3.5
v 15 11 -4.5
v 15 11 -5.5
v 15 12 4.5
v 15 12 3.5
v 15 12 2.5
v 15 12 -2.5
v 15 12 -3.5
v 15 12 -4.5
v 15 13 3.5
v 15 13 2.5
v 15 13 1.5
v 15 13 -1.5
v 15 13 -2.5
v 15 13 -3.5
v 15 14 2.5
v 15 14 1.5
v 15 14 0.5
v 15 14 -0.5
v 15 14 -1.5
v 15 14 -2.5
v 15 15 1.5
v 15 15 0.5
v 15 15 -0.5
v 15 15 -1.5
v 15 16 0.5
v 15 16 -0.5
v -15 9 6.5
v -15 10 6.5
v 15 9 6.5
v 15 10 6.5
v -15 10 5.5
v -15 11 5.5
v -14 0 5.5
v -14 9 5.5
v -13 5 5.5
v -13 8 5.5
v -8 5 5.5
v -8 8 5.5
v -7 5 5.5
v -7 8 5.5
v -2 5 5.5
v -2 8 5.5
v -1 0 5.5
v -1 8 5.5
v 13 0 5.5
v 13 8 5.5
v 14 0 5.5
v 14 9 5.5
v 15 10 5.5
v 15 11 5.5
v -15 11 4.5
v -15 12 4.5
v -13 5 4.5
v -13 8 4.5
v -13 12 4.5
v -13 18 4.5
v -12 12 4.5
v -12 18 4.5
v -8 5 4.5
v -8 8 4.5
v -7 5 4.5
v -7 8 4.5
v -4 12 4.5
v -4 15 4.5
v -2 5 4.5
v -2 8 4.5
v -1 0 4.5
v -1 8 4.5
v 4 12 4.5
v 4 15 4.5
v 13 0 4.5
v 13 8 4.5
v 15 11 4.5
v 15 12 4.5
v -15 12 3.5
v -15 13 3.5
v -13 12 3.5
v -13 13 3.5
v -12 12 3.5
v -12 13 3.5
v -4 12 3.5
v -4 13 3.5
v 4 12 3.5
v 4 13 3.5
v 15 12 3.5
v 15 13 3.5
v -15 2 2.5
v -15 6 2.5
v -15 13 2.5
v -15 14 2.5
v -14 2 2.5
v -14 6 2.5
v 15 13 2.5
v 15 14 2.5
v -15 14 1.5
v -15 15 1.5
v 15 14 1.5
v 15 15 1.5
v -15 15 0.5
v -15 16 0.5
v 15 15 0.5
v 15 16 0.5
v -15 14 -0.5
v -15 15 -0.5
v -14 14 -0.5
v -14 15 -0.5
v 14 14 -0.5
v 14 15 -0.5
v 15 14 -0.5
v 15 15 -0.5
v -15 13 -1.5
v -15 14 -1.5
v -14 13 -1.5
v -14 14 -1.5
v 14 13 -1.5
v 14 14 -1.5
v 15 13 -1.5
v 15 14 -1.5
v -15 12 -2.5
v -15 13 -2.5
v -14 12 -2.5
v -14 13 -2.5
v 14 12 -2.5
v 14 13 -2.5
v 15 12 -2.5
v 15 13 -2.5
v -15 11 -3.5
v -15 12 -3.5
v -14 11 -3.5
v -14 12 -3.5
v 14 11 -3.5
v 14 12 -3.5
v 15 11 -3.5
v 15 12 -3.5
v -15 10 -4.5
v -15 11 -4.5
v -14 10 -4.5
v -14 11 -4.5
v 14 10 -4.5
v 14 11 -4.5
v 15 10 -4.5
v 15 11 -4.5
v -15 9 -5.5
v -15 10 -5.5
v -14 9 -5.5
v -14 10 -5.5
v 14 9 -5.5
v 14 10 -5.5
v 15 9 -5.5
v 15 10 -5.5
v -15 9 5.5
v -15 10 5.5
v -14 9 5.5
v -14 10 5.5
v 14 9 5.5
v 14 10 5.5
v 15 9 5.5
v 15 10 5.5
v -15 10 4.5
v -15 11 4.5
v -14 10 4.5
v -14 11 4.5
v 14 10 4.5
v 14 11 4.5
v 15 10 4.5
v 15 11 4.5
v -15 11 3.5
v -15 12 3.5
v -14 11 3.5
v -14 12 3.5
v -13 13 3.5
v -13 18 3.5
v -12 13 3.5
v -12 18 3.5
v -4 13 3.5
v -4 15 3.5
v 4 13 3.5
v 4 15 3.5
v 14 11 3.5
v 14 12 3.5
v 15 11 3.5
v 15 12 3.5
v -15 12 2.5
v -15 13 2.5
v -14 12 2.5
v -14 13 2.5
v 14 12 2.5
v 14 13 2.5
v 15 12 2.5
v 15 13 2.5
v -15 13 1.5
v -15 14 1.5
v -14 13 1.5
v -14 14 1.5
v 14 13 1.5
v 14 14 1.5
v 15 13 1.5
v 15 14 1.5
v -15 14 0.5
v -15 15 0.5
v -14 14 0.5
v -14 15 0.5
v 14 14 0.5
v 14 15 0.5
v 15 14 0.5
v 15 15 0.5
v -15 15 -0.5
v -15 16 -0.5
v 15 15 -0.5
v 15 16 -0.5
v -15 2 -1.5
v -15 5 -1.5
v -15 14 -1.5
v -15 15 -1.5
v -14 2 -1.5
v -14 5 -1.5
v 15 14 -1.5
v 15 15 -1.5
v -15 5 -2.5
v -15 6 -2.5
v -15 13 -2.5
v -15 14 -2.5
v -14 5 -2.5
v -14 6 -2.5
v 15 13 -2.5
v 15 14 -2.5
v -15 12 -3.5
v -15 13 -3.5
v 15 12 -3.5
v 15 13 -3.5
v -15 11 -4.5
v -15 12 -4.5
v -13 2 -4.5
v -13 8 -4.5
v -9 2 -4.5
v -9 8 -4.5
v -8 2 -4.5
v -8 8 -4.5
v 8 2 -4.5
v 8 8 -4.5
v 9 2 -4.5
v 9 8 -4.5
v 13 2 -4.5
v 13 8 -4.5
v 15 11 -4.5
v 15 12 -4.5
v -15 10 -5.5
v -15 11 -5.5
v -14 0 -5.5
v -14 9 -5.5
v -13 2 -5.5
v -13 8 -5.5
v -9 2 -5.5
v -9 8 -5.5
v -8 2 -5.5
v -8 8 -5.5
v 8 2 -5.5
v 8 8 -5.5
v 9 2 -5.5
v 9 8 -5.5
v 13 2 -5.5
v 13 8 -5.5
v 14 0 -5.5
v 14 9 -5.5
v 15 10 -5.5
v 15 11 -5.5
v -15 9 -6.5
v -15 10 -6.5
v 15 9 -6.5
v 15 10 -6.5
v -14 0 5.5
v -1 0 5.5
v 13 0 5.5
v 14 0 5.5
v -1 0 4.5
v 13 0 4.5
v -1 0 3.5
v 13 0 3.5
v -14 0 -5.5
v 14 0 -5.5
v -15 2 2.5
v -14 2 2.5
v -15 2 -1.5
v -14 2 -1.5
v -15 5 -1.5
v -14 5 -1.5
v -15 5 -2.5
v -14 5 -2.5
v -13 8 5.5
v -8 8 5.5
v -7 8 5.5
v -2 8 5.5
v -1 8 5.5
v 13 8 5.5
v -13 8 4.5
v -8 8 4.5
v -7 8 4.5
v -2 8 4.5
v -1 8 4.5
v 13 8 4.5
v -13 8 -4.5
v -9 8 -4.5
v -8 8 -4.5
v 8 8 -4.5
v 9 8 -4.5
v 13 8 -4.5
v -13 8 -5.5
v -9 8 -5.5
v -8 8 -5.5
v 8 8 -5.5
v 9 8 -5.5
v 13 8 -5.5
v -15 9 6.5
v 15 9 6.5
v -15 9 5.5
v -14 9 5.5
v 14 9 5.5
v 15 9 5.5
v -15 9 -5.5
v -14 9 -5.5
v 14 9 -5.5
v 15 9 -5.5
v -15 9 -6.5
v 15 9 -6.5
v -15 10 5.5
v -14 10 5.5
v 14 10 5.5
v 15 10 5.5
v -15 10 4.5
v -14 10 4.5
v 14 10 4.5
v 15 10 4.5
v -15 10 -4.5
v -14 10 -4.5
v 14 10 -4.5
v 15 10 -4.5
v -15 10 -5.5
v -14 10 -5.5
v 14 10 -5.5
v 15 10 -5.5
v -15 11 4.5
v -14 11 4.5
v 14 11 4.5
v 15 11 4.5
v -15 11 3.5
v -14 11 3.5
v 14 11 3.5
v 15 11 3.5
v -15 11 -3.5
v -14 11 -3.5
v 14 11 -3.5
v 15 11 -3.5
v -15 11 -4.5
v -14 11 -4.5
v 14 11 -4.5
v 15 11 -4.5
v -15 12 3.5
v -14 12 3.5
v 14 12 3.5
v 15 12 3.5
v -15 12 2.5
v -14 12 2.5
v 14 12 2.5
v 15 12 2.5
v -15 12 -2.5
v -14 12 -2.5
v 14 12 -2.5
v 15 12 -2.5
v -15 12 -3.5
v -14 12 -3.5
v 14 12 -3.5
v 15 12 -3.5
v -15 13 2.5
v -14 13 2.5
v 14 13 2.5
v 15 13 2.5
v -15 13 1.5
v -14 13 1.5
v 14 13 1.5
v 15 13 1.5
v -15 13 -1.5
v -14 13 -1.5
v 14 13 -1.5
v 15 13 -1.5
v -15 13 -2.5
v -14 13 -2.5
v 14 13 -2.5
v 15 13 -2.5
v -15 14 1.5
v -14 14 1.5
v 14 14 1.5
v 15 14 1.5
v -15 14 0.5
v -14 14 0.5
v 14 14 0.5
v 15 14 0.5
v -15 14 -0.5
v -14 14 -0.5
v 14 14 -0.5
v 15 14 -0.5
v -15 14 -1.5
v -14 14 -1.5
v 14 14 -1.5
v 15 14 -1.5
v -15 15 0.5
v -14 15 0.5
v 14 15 0.5
v 15 15 0.5
v -15 15 -0.5
v -14 15 -0.5
v 14 15 -0.5
v 15 15 -0.5
v -13 2 -4.5
v -9 2 -4.5
v -8 2 -4.5
v 8 2 -4.5
v 9 2 -4.5
v 13 2 -4.5
v -13 2 -5.5
v -9 2 -5.5
v -8 2 -5.5
v 8 2 -5.5
v 9 2 -5.5
v 13 2 -5.5
v -13 5 5.5
v -8 5 5.5
v -7 5 5.5
v -2 5 5.5
v -13 5 4.5
v -8 5 4.5
v -7 5 4.5
v -2 5 4.5
v -15 6 2.5
v -14 6 2.5
v -15 6 -2.5
v -14 6 -2.5
v -15 10 6.5
v 15 10 6.5
v -15 10 5.5
v 15 10 5.5
v -15 10 -5.5
v 15 10 -5.5
v -15 10 -6.5
v 15 10 -6.5
v -15 11 5.5
v 15 11 5.5
v -15 11 4.5
v 15 11 4.5
v -15 11 -4.5
v 15 11 -4.5
v -15 11 -5.5
v 15 11 -5.5
v -15 12 4.5
v -13 12 4.5
v -12 12 4.5
v -4 12 4.5
v 4 12 4.5
v 15 12 4.5
v -15 12 3.5
v -13 12 3.5
v -12 12 3.5
v -4 12 3.5
v 4 12 3.5
v 15 12 3.5
v -15 12 -3.5
v 15 12 -3.5
v -15 12 -4.5
v 15 12 -4.5
v -15 13 3.5
v -13 13 3.5
v -12 13 3.5
v -4 13 3.5
v 4 13 3.5
v 15 13 3.5
v -15 13 2.5
v 15 13 2.5
v -15 13 -2.5
v 15 13 -2.5
v -15 13 -3.5
v 15 13 -3.5
v -15 14 2.5
v 15 14 2.5
v -15 14 1.5
v 15 14 1.5
v -15 14 -1.5
v 15 14 -1.5
v -15 14 -2.5
v 15 14 -2.5
v -4 15 4.5
v 4 15 4.5
v -4 15 3.5
v 4 15 3.5
v -15 15 1.5
v 15 15 1.5
v -15 15 0.5
v 15 15 0.5
v -15 15 -0.5
v 15 15 -0.5
v -15 15 -1.5
v 15 15 -1.5
v -15 16 0.5
v 15 16 0.5
v -15 16 -0.5
v 15 16 -0.5
v -13 18 4.5
v -12 18 4.5
v -13 18 3.5
v -12 18 3.5

# faces
f 3/1/1 2/1/1 1/1/1
f 5/1/1 3/1/1 1/1/1
f 5/1/1 4/1/1 3/1/1
f 6/1/1 4/1/1 5/1/1
f 11/1/1 8/1/1 7/1/1
f 12/1/1 8/1/1 11/1/1
f 15/1/1 10/1/1 9/1/1
f 16/1/1 10/1/1 15/1/1
f 17/1/1 13/1/1 12/1/1
f 18/1/1 13/1/1 17/1/1
f 21/1/1 15/1/1 14/1/1
f 22/1/1 15/1/1 21/1/1
f 23/1/1 19/1/1 18/1/1
f 24/1/1 19/1/1 23/1/1
f 27/1/1 21/1/1 20/1/1
f 28/1/1 21/1/1 27/1/1
f 29/1/1 25/1/1 24/1/1
f 30/1/1 25/1/1 29/1/1
f 33/1/1 27/1/1 26/1/1
f 34/1/1 27/1/1 33/1/1
f 35/1/1 31/1/1 30/1/1
f 36/1/1 31/1/1 35/1/1
f 39/1/1 33/1/1 32/1/1
f 40/1/1 33/1/1 39/1/1
f 41/1/1 37/1/1 36/1/1
f 42/1/1 37/1/1 41/1/1
f 43/1/1 39/1/1 38/1/1
f 44/1/1 39/1/1 43/1/1
f 45/1/1 43/1/1 42/1/1
f 46/1/1 43/1/1 45/1/1
f 49/5/1 48/5/1 47/5/1
f 50/5/1 48/5/1 49/5/1
f 51/5/1 48/5/1 50/5/1
f 52/5/1 48/5/1 51/5/1
f 53/5/1 49/5/1 47/5/1
f 54/5/1 48/5/1 52/5/1
f 55/5/1 53/5/1 47/5/1
f 55/5/1 54/5/1 53/5/1
f 56/5/1 48/5/1 54/5/1
f 56/5/1 54/5/1 55/5/1
f 57/5/1 56/5/1 55/5/1
f 58/5/1 56/5/1 57/5/1
f 59/5/1 56/5/1 58/5/1
f 60/5/1 56/5/1 59/5/1
f 61/5/1 59/5/1 58/5/1
f 62/5/1 59/5/1 61/5/1
f 63/5/1 59/5/1 62/5/1
f 64/5/1 59/5/1 63/5/1
f 65/5/1 63/5/1 62/5/1
f 66/5/1 63/5/1 65/5/1
f 67/5/1 63/5/1 66/5/1
f 68/5/1 63/5/1 67/5/1
f 69/5/1 67/5/1 66/5/1
f 70/5/1 67/5/1 69/5/1
f 71/5/1 67/5/1 70/5/1
f 72/5/1 67/5/1 71/5/1
f 73/5/1 71/5/1 70/5/1
f 74/5/1 71/5/1 73/5/1
f 75/5/1 71/5/1 74/5/1
f 76/5/1 71/5/1 75/5/1
f 77/5/1 75/5/1 74/5/1
f 78/5/1 75/5/1 77/5/1
f 81/6/1 80/6/1 79/6/1
f 82/6/1 81/6/1 79/6/1
f 83/6/1 81/6/1 82/6/1
f 86/5/1 85/5/1 84/5/1
f 87/5/1 85/5/1 86/5/1
f 90/5/1 89/5/1 88/5/1
f 91/5/1 89/5/1 90/5/1
f 94/2/1 93/2/1 92/2/1
f 95/2/1 94/2/1 92/2/1
f 96/2/1 94/2/1 95/2/1
f 99/5/1 98/5/1 97/5/1
f 100/5/1 98/5/1 99/5/1
f 103/5/1 102/5/1 101/5/1
f 104/5/1 102/5/1 103/5/1
f 109/5/1 106/5/1 105/5/1
f 110/5/1 106/5/1 109/5/1
f 111/5/1 108/5/1 107/5/1
f 112/5/1 108/5/1 111/5/1
f 115/5/2 116/5/2 117/5/2
f 117/5/2 116/5/2 118/5/2
f 113/5/2 114/5/2 119/5/2
f 119/5/2 114/5/2 120/5/2
f 121/6/2 122/6/2 123/6/2
f 121/6/2 123/6/2 124/6/2
f 124/6/2 123/6/2 125/6/2
f 126/5/2 127/5/2 128/5/2
f 128/5/2 127/5/2 129/5/2
f 130/5/2 131/5/2 132/5/2
f 132/5/2 131/5/2 133/5/2
f 134/5/2 135/5/2 136/5/2
f 136/5/2 135/5/2 137/5/2
f 138/2/2 139/2/2 140/2/2
f 138/2/2 140/2/2 141/2/2
f 141/2/2 140/2/2 142/2/2
f 143/5/2 144/5/2 145/5/2
f 145/5/2 144/5/2 146/5/2
f 147/5/2 148/5/2 149/5/2
f 149/5/2 148/5/2 150/5/2
f 149/5/2 150/5/2 151/5/2
f 151/5/2 150/5/2 152/5/2
f 152/5/2 150/5/2 153/5/2
f 153/5/2 150/5/2 154/5/2
f 152/5/2 153/5/2 155/5/2
f 155/5/2 153/5/2 156/5/2
f 156/5/2 153/5/2 157/5/2
f 157/5/2 153/5/2 158/5/2
f 156/5/2 157/5/2 159/5/2
f 159/5/2 157/5/2 160/5/2
f 160/5/2 157/5/2 161/5/2
f 161/5/2 157/5/2 162/5/2
f 160/5/2 161/5/2 163/5/2
f 163/5/2 161/5/2 164/5/2
f 164/5/2 161/5/2 165/5/2
f 165/5/2 161/5/2 166/5/2
f 164/5/2 165/5/2 167/5/2
f 167/5/2 165/5/2 168/5/2
f 168/5/2 165/5/2 169/5/2
f 169/5/2 165/5/2 170/5/2
f 168/5/2 169/5/2 171/5/2
f 171/5/2 169/5/2 172/5/2
f 173/1/2 174/1/2 177/1/2
f 177/1/2 174/1/2 178/1/2
f 175/1/2 176/1/2 181/1/2
f 181/1/2 176/1/2 182/1/2
f 178/1/2 179/1/2 183/1/2
f 183/1/2 179/1/2 184/1/2
f 180/1/2 181/1/2 187/1/2
f 187/1/2 181/1/2 188/1/2
f 184/1/2 185/1/2 189/1/2
f 189/1/2 185/1/2 190/1/2
f 186/1/2 187/1/2 193/1/2
f 193/1/2 187/1/2 194/1/2
f 190/1/2 191/1/2 195/1/2
f 195/1/2 191/1/2 196/1/2
f 192/1/2 193/1/2 199/1/2
f 199/1/2 193/1/2 200/1/2
f 196/1/2 197/1/2 201/1/2
f 201/1/2 197/1/2 202/1/2
f 198/1/2 199/1/2 205/1/2
f 205/1/2 199/1/2 206/1/2
f 202/1/2 203/1/2 207/1/2
f 207/1/2 203/1/2 208/1/2
f 204/1/2 205/1/2 209/1/2
f 209/1/2 205/1/2 210/1/2
f 208/1/2 209/1/2 211/1/2
f 211/1/2 209/1/2 212/1/2
f 215/1/3 214/1/3 213/1/3
f 216/1/3 214/1/3 215/1/3
f 221/5/3 220/5/3 219/5/3
f 222/5/3 220/5/3 221/5/3
f 223/5/3 221/5/3 219/5/3
f 224/5/3 220/5/3 222/5/3
f 225/5/3 223/5/3 219/5/3
f 225/5/3 224/5/3 223/5/3
f 226/5/3 220/5/3 224/5/3
f 226/5/3 224/5/3 225/5/3
f 227/5/3 225/5/3 219/5/3
f 228/5/3 220/5/3 226/5/3
f 229/5/3 227/5/3 219/5/3
f 229/5/3 228/5/3 227/5/3
f 230/5/3 220/5/3 228/5/3
f 230/5/3 228/5/3 229/5/3
f 232/5/3 220/5/3 230/5/3
f 233/5/3 232/5/3 231/5/3
f 234/5/3 220/5/3 232/5/3
f 234/5/3 232/5/3 233/5/3
f 235/1/3 218/1/3 217/1/3
f 236/1/3 218/1/3 235/1/3
f 241/1/3 238/1/3 237/1/3
f 243/1/3 241/1/3 237/1/3
f 243/6/3 242/6/3 241/6/3
f 244/6/3 242/6/3 243/6/3
f 245/3/3 240/3/3 239/3/3
f 246/3/3 240/3/3 245/3/3
f 249/1/3 243/1/3 237/1/3
f 251/3/3 248/3/3 247/3/3
f 252/3/3 248/3/3 251/3/3
f 255/2/3 250/2/3 249/2/3
f 255/1/3 249/1/3 237/1/3
f 256/2/3 250/2/3 255/2/3
f 257/3/3 254/3/3 253/3/3
f 258/3/3 254/3/3 257/3/3
f 259/1/3 255/1/3 237/1/3
f 260/1/3 255/1/3 259/1/3
f 263/1/3 262/1/3 261/1/3
f 264/1/3 262/1/3 263/1/3
f 267/1/3 266/1/3 265/1/3
f 268/1/3 266/1/3 267/1/3
f 271/1/3 270/1/3 269/1/3
f 272/1/3 270/1/3 271/1/3
f 277/1/3 274/1/3 273/1/3
f 278/1/3 274/1/3 277/1/3
f 279/1/3 276/1/3 275/1/3
f 280/1/3 276/1/3 279/1/3
f 283/1/3 282/1/3 281/1/3
f 284/1/3 282/1/3 283/1/3
f 287/1/3 286/1/3 285/1/3
f 288/1/3 286/1/3 287/1/3
f 291/1/3 290/1/3 289/1/3
f 292/1/3 290/1/3 291/1/3
f 295/1/3 294/1/3 293/1/3
f 296/1/3 294/1/3 295/1/3
f 299/1/3 298/1/3 297/1/3
f 300/1/3 298/1/3 299/1/3
f 303/1/3 302/1/3 301/1/3
f 304/1/3 302/1/3 303/1/3
f 307/1/3 306/1/3 305/1/3
f 308/1/3 306/1/3 307/1/3
f 311/1/3 310/1/3 309/1/3
f 312/1/3 310/1/3 311/1/3
f 315/1/3 314/1/3 313/1/3
f 316/1/3 314/1/3 315/1/3
f 319/1/3 318/1/3 317/1/3
f 320/1/3 318/1/3 319/1/3
f 323/1/3 322/1/3 321/1/3
f 324/1/3 322/1/3 323/1/3
f 327/1/3 326/1/3 325/1/3
f 328/1/3 326/1/3 327/1/3
f 331/1/3 330/1/3 329/1/3
f 332/1/3 330/1/3 331/1/3
f 335/1/3 334/1/3 333/1/3
f 336/1/3 334/1/3 335/1/3
f 337/1/4 338/1/4 339/1/4
f 339/1/4 338/1/4 340/1/4
f 341/1/4 342/1/4 343/1/4
f 343/1/4 342/1/4 344/1/4
f 345/1/4 346/1/4 347/1/4
f 347/1/4 346/1/4 348/1/4
f 349/1/4 350/1/4 351/1/4
f 351/1/4 350/1/4 352/1/4
f 353/1/4 354/1/4 355/1/4
f 355/1/4 354/1/4 356/1/4
f 357/6/4 358/6/4 359/6/4
f 359/6/4 358/6/4 360/6/4
f 361/2/4 362/2/4 363/2/4
f 363/2/4 362/2/4 364/2/4
f 365/1/4 366/1/4 367/1/4
f 367/1/4 366/1/4 368/1/4
f 369/1/4 370/1/4 371/1/4
f 371/1/4 370/1/4 372/1/4
f 373/1/4 374/1/4 375/1/4
f 375/1/4 374/1/4 376/1/4
f 377/1/4 378/1/4 379/1/4
f 379/1/4 378/1/4 380/1/4
f 381/1/4 382/1/4 383/1/4
f 383/1/4 382/1/4 384/1/4
f 385/1/4 386/1/4 387/1/4
f 387/1/4 386/1/4 388/1/4
f 389/1/4 390/1/4 391/1/4
f 391/1/4 390/1/4 392/1/4
f 393/1/4 394/1/4 395/1/4
f 395/1/4 394/1/4 396/1/4
f 397/1/4 398/1/4 401/1/4
f 401/1/4 398/1/4 402/1/4
f 399/1/4 400/1/4 403/1/4
f 403/1/4 400/1/4 404/1/4
f 405/1/4 406/1/4 409/1/4
f 409/1/4 406/1/4 410/1/4
f 407/1/4 408/1/4 411/1/4
f 411/1/4 408/1/4 412/1/4
f 413/1/4 414/1/4 415/1/4
f 415/1/4 414/1/4 416/1/4
f 419/4/4 420/4/4 421/4/4
f 421/4/4 420/4/4 422/4/4
f 423/4/4 424/4/4 425/4/4
f 425/4/4 424/4/4 426/4/4
f 427/4/4 428/4/4 429/4/4
f 429/4/4 428/4/4 430/4/4
f 417/1/4 418/1/4 431/1/4
f 431/1/4 418/1/4 432/1/4
f 435/5/4 436/5/4 437/5/4
f 437/5/4 436/5/4 438/5/4
f 435/5/4 437/5/4 439/5/4
f 438/5/4 436/5/4 440/5/4
f 435/5/4 439/5/4 441/5/4
f 439/5/4 440/5/4 441/5/4
f 440/5/4 436/5/4 442/5/4
f 441/5/4 440/5/4 442/5/4
f 435/5/4 441/5/4 443/5/4
f 442/5/4 436/5/4 444/5/4
f 435/5/4 443/5/4 445/5/4
f 443/5/4 444/5/4 445/5/4
f 444/5/4 436/5/4 446/5/4
f 445/5/4 444/5/4 446/5/4
f 435/5/4 445/5/4 447/5/4
f 446/5/4 436/5/4 448/5/4
f 435/5/4 447/5/4 449/5/4
f 447/5/4 448/5/4 449/5/4
f 448/5/4 436/5/4 450/5/4
f 449/5/4 448/5/4 450/5/4
f 433/1/4 434/1/4 451/1/4
f 451/1/4 434/1/4 452/1/4
f 453/1/4 454/1/4 455/1/4
f 455/1/4 454/1/4 456/1/4
f 461/5/5 458/5/5 457/5/5
f 462/5/5 460/5/5 459/5/5
f 463/5/5 461/5/5 457/5/5
f 463/3/5 462/3/5 461/3/5
f 464/5/5 460/5/5 462/5/5
f 464/3/5 462/3/5 463/3/5
f 465/5/5 463/5/5 457/5/5
f 465/5/5 464/5/5 463/5/5
f 466/5/5 460/5/5 464/5/5
f 466/5/5 464/5/5 465/5/5
f 469/1/5 468/1/5 467/1/5
f 470/1/5 468/1/5 469/1/5
f 473/1/5 472/1/5 471/1/5
f 474/1/5 472/1/5 473/1/5
f 481/5/5 476/5/5 475/5/5
f 482/5/5 476/5/5 481/5/5
f 483/5/5 478/5/5 477/5/5
f 484/5/5 478/5/5 483/5/5
f 485/5/5 480/5/5 479/5/5
f 486/5/5 480/5/5 485/5/5
f 493/5/5 488/5/5 487/5/5
f 494/5/5 488/5/5 493/5/5
f 495/5/5 490/5/5 489/5/5
f 496/5/5 490/5/5 495/5/5
f 497/5/5 492/5/5 491/5/5
f 498/5/5 492/5/5 497/5/5
f 501/1/5 500/1/5 499/1/5
f 502/1/5 500/1/5 501/1/5
f 503/1/5 500/1/5 502/1/5
f 504/1/5 500/1/5 503/1/5
f 509/1/5 506/1/5 505/1/5
f 509/1/5 508/1/5 507/1/5
f 509/1/5 507/1/5 506/1/5
f 510/1/5 508/1/5 509/1/5
f 515/1/5 512/1/5 511/1/5
f 516/1/5 512/1/5 515/1/5
f 517/1/5 514/1/5 513/1/5
f 518/1/5 514/1/5 517/1/5
f 523/1/5 520/1/5 519/1/5
f 524/1/5 520/1/5 523/1/5
f 525/1/5 522/1/5 521/1/5
f 526/1/5 522/1/5 525/1/5
f 531/1/5 528/1/5 527/1/5
f 532/1/5 528/1/5 531/1/5
f 533/1/5 530/1/5 529/1/5
f 534/1/5 530/1/5 533/1/5
f 539/1/5 536/1/5 535/1/5
f 540/1/5 536/1/5 539/1/5
f 541/1/5 538/1/5 537/1/5
f 542/1/5 538/1/5 541/1/5
f 547/1/5 544/1/5 543/1/5
f 548/1/5 544/1/5 547/1/5
f 549/1/5 546/1/5 545/1/5
f 550/1/5 546/1/5 549/1/5
f 555/1/5 552/1/5 551/1/5
f 556/1/5 552/1/5 555/1/5
f 557/1/5 554/1/5 553/1/5
f 558/1/5 554/1/5 557/1/5
f 563/1/5 560/1/5 559/1/5
f 564/1/5 560/1/5 563/1/5
f 565/1/5 562/1/5 561/1/5
f 566/1/5 562/1/5 565/1/5
f 571/1/5 568/1/5 567/1/5
f 572/1/5 568/1/5 571/1/5
f 573/1/5 570/1/5 569/1/5
f 574/1/5 570/1/5 573/1/5
f 579/1/5 576/1/5 575/1/5
f 580/1/5 576/1/5 579/1/5
f 581/1/5 578/1/5 577/1/5
f 582/1/5 578/1/5 581/1/5
f 587/1/5 584/1/5 583/1/5
f 588/1/5 584/1/5 587/1/5
f 589/1/5 586/1/5 585/1/5
f 590/1/5 586/1/5 589/1/5
f 595/1/5 592/1/5 591/1/5
f 596/1/5 592/1/5 595/1/5
f 597/1/5 594/1/5 593/1/5
f 598/1/5 594/1/5 597/1/5
f 599/5/6 600/5/6 605/5/6
f 605/5/6 600/5/6 606/5/6
f 601/5/6 602/5/6 607/5/6
f 607/5/6 602/5/6 608/5/6
f 603/5/6 604/5/6 609/5/6
f 609/5/6 604/5/6 610/5/6
f 611/5/6 612/5/6 615/5/6
f 615/5/6 612/5/6 616/5/6
f 613/5/6 614/5/6 617/5/6
f 617/5/6 614/5/6 618/5/6
f 619/1/6 620/1/6 621/1/6
f 621/1/6 620/1/6 622/1/6
f 623/1/6 624/1/6 625/1/6
f 625/1/6 624/1/6 626/1/6
f 627/1/6 628/1/6 629/1/6
f 629/1/6 628/1/6 630/1/6
f 631/1/6 632/1/6 633/1/6
f 633/1/6 632/1/6 634/1/6
f 635/1/6 636/1/6 637/1/6
f 637/1/6 636/1/6 638/1/6
f 639/1/6 640/1/6 645/1/6
f 645/1/6 640/1/6 646/1/6
f 641/1/6 642/1/6 647/1/6
f 647/1/6 642/1/6 648/1/6
f 643/1/6 644/1/6 649/1/6
f 649/1/6 644/1/6 650/1/6
f 651/1/6 652/1/6 653/1/6
f 653/1/6 652/1/6 654/1/6
f 655/1/6 656/1/6 661/1/6
f 659/1/6 660/1/6 661/1/6
f 658/1/6 659/1/6 661/1/6
f 657/1/6 658/1/6 661/1/6
f 656/1/6 657/1/6 661/1/6
f 661/1/6 660/1/6 662/1/6
f 663/1/6 664/1/6 665/1/6
f 665/1/6 664/1/6 666/1/6
f 667/1/6 668/1/6 669/1/6
f 669/1/6 668/1/6 670/1/6
f 671/1/6 672/1/6 673/1/6
f 673/1/6 672/1/6 674/1/6
f 675/2/6 676/2/6 677/2/6
f 677/2/6 676/2/6 678/2/6
f 679/1/6 680/1/6 681/1/6
f 681/1/6 680/1/6 682/1/6
f 683/1/6 684/1/6 685/1/6
f 685/1/6 684/1/6 686/1/6
f 687/1/6 688/1/6 689/1/6
f 689/1/6 688/1/6 690/1/6
f 691/6/6 692/6/6 693/6/6
f 693/6/6 692/6/6 694/6/6
