# MagicaVoxel @ Ephtracy

# material
mtllib BusStop01.mtl
usemtl palette

# normals
vn -1 0 0
vn 1 0 0
vn 0 0 1
vn 0 0 -1
vn 0 -1 0
vn 0 1 0

# texcoords
vt 0.849609 0.5
vt 0.888672 0.5
vt 0.970703 0.5
vt 0.974609 0.5
vt 0.990234 0.5

# verts
v -6.5 0 1
v -6.5 0 -0
v -6.5 1 3
v -6.5 1 1
v -6.5 1 -0
v -6.5 1 -3
v -6.5 2 2
v -6.5 2 -2
v -6.5 7 2
v -6.5 7 -2
v -6.5 8 3
v -6.5 8 1
v -6.5 8 -1
v -6.5 8 -3
v -6.5 9 3
v -6.5 9 1
v -6.5 9 -1
v -6.5 9 -3
v -6.5 10 3
v -6.5 10 -3
v -3.5 0 1
v -3.5 0 -0
v -3.5 0 -1
v -3.5 0 -2
v -3.5 1 -0
v -3.5 1 -1
v -3.5 2 1
v -3.5 2 -1
v -3.5 4 -1
v -3.5 4 -2
v 3.5 0 1
v 3.5 0 -0
v 3.5 0 -1
v 3.5 0 -2
v 3.5 1 1
v 3.5 1 -0
v 3.5 1 -1
v 3.5 1 -2
v 5.5 0 3
v 5.5 0 2
v 5.5 0 -2
v 5.5 0 -3
v 5.5 9 3
v 5.5 9 2
v 5.5 9 -2
v 5.5 9 -3
v -5.5 0 1
v -5.5 0 -0
v -5.5 1 3
v -5.5 1 1
v -5.5 1 -0
v -5.5 1 -3
v -5.5 2 2
v -5.5 2 -2
v -5.5 7 2
v -5.5 7 -2
v -5.5 8 3
v -5.5 8 1
v -5.5 8 -1
v -5.5 8 -3
v -5.5 9 1
v -5.5 9 -1
v -2.5 0 1
v -2.5 0 -0
v -2.5 0 -1
v -2.5 0 -2
v -2.5 1 1
v -2.5 1 -0
v -2.5 1 -1
v -2.5 1 -2
v 4.5 0 1
v 4.5 0 -0
v 4.5 0 -1
v 4.5 0 -2
v 4.5 1 -0
v 4.5 1 -1
v 4.5 2 1
v 4.5 2 -1
v 4.5 4 -1
v 4.5 4 -2
v 6.5 0 3
v 6.5 0 2
v 6.5 0 -2
v 6.5 0 -3
v 6.5 9 3
v 6.5 9 2
v 6.5 9 -2
v 6.5 9 -3
v 6.5 10 3
v 6.5 10 -3
v -6.5 1 3
v -6.5 8 3
v -6.5 9 3
v -6.5 10 3
v -5.5 1 3
v -5.5 8 3
v 5.5 0 3
v 5.5 9 3
v 6.5 0 3
v 6.5 9 3
v 6.5 10 3
v -6.5 0 1
v -6.5 1 1
v -6.5 8 1
v -6.5 9 1
v -5.5 0 1
v -5.5 1 1
v -5.5 8 1
v -5.5 9 1
v -3.5 0 1
v -3.5 2 1
v -2.5 0 1
v -2.5 1 1
v 3.5 0 1
v 3.5 1 1
v 4.5 0 1
v 4.5 2 1
v -3.5 0 -1
v -3.5 1 -1
v -3.5 2 -1
v -3.5 4 -1
v -2.5 0 -1
v -2.5 1 -1
v 3.5 0 -1
v 3.5 1 -1
v 4.5 0 -1
v 4.5 1 -1
v 4.5 2 -1
v 4.5 4 -1
v 5.5 0 -2
v 5.5 9 -2
v 6.5 0 -2
v 6.5 9 -2
v 5.5 0 2
v 5.5 9 2
v 6.5 0 2
v 6.5 9 2
v -6.5 0 -0
v -6.5 1 -0
v -5.5 0 -0
v -5.5 1 -0
v -3.5 0 -0
v -3.5 1 -0
v -2.5 0 -0
v -2.5 1 -0
v 3.5 0 -0
v 3.5 1 -0
v 4.5 0 -0
v 4.5 1 -0
v -6.5 8 -1
v -6.5 9 -1
v -5.5 8 -1
v -5.5 9 -1
v -3.5 0 -2
v -3.5 4 -2
v -2.5 0 -2
v -2.5 1 -2
v 3.5 0 -2
v 3.5 1 -2
v 4.5 0 -2
v 4.5 4 -2
v -6.5 1 -3
v -6.5 8 -3
v -6.5 9 -3
v -6.5 10 -3
v -5.5 1 -3
v -5.5 8 -3
v 5.5 0 -3
v 5.5 9 -3
v 6.5 0 -3
v 6.5 9 -3
v 6.5 10 -3
v 5.5 0 3
v 6.5 0 3
v 5.5 0 2
v 6.5 0 2
v -6.5 0 1
v -5.5 0 1
v -3.5 0 1
v -2.5 0 1
v 3.5 0 1
v 4.5 0 1
v -6.5 0 -0
v -5.5 0 -0
v -3.5 0 -0
v -2.5 0 -0
v 3.5 0 -0
v 4.5 0 -0
v -3.5 0 -1
v -2.5 0 -1
v 3.5 0 -1
v 4.5 0 -1
v -3.5 0 -2
v -2.5 0 -2
v 3.5 0 -2
v 4.5 0 -2
v 5.5 0 -2
v 6.5 0 -2
v 5.5 0 -3
v 6.5 0 -3
v -6.5 1 3
v -5.5 1 3
v -6.5 1 1
v -5.5 1 1
v -2.5 1 1
v 3.5 1 1
v -6.5 1 -0
v -5.5 1 -0
v -3.5 1 -0
v -2.5 1 -0
v 3.5 1 -0
v 4.5 1 -0
v -3.5 1 -1
v -2.5 1 -1
v 3.5 1 -1
v 4.5 1 -1
v -2.5 1 -2
v 3.5 1 -2
v -6.5 1 -3
v -5.5 1 -3
v -6.5 9 3
v 5.5 9 3
v 5.5 9 2
v 6.5 9 2
v -6.5 9 1
v -5.5 9 1
v 5.5 9 1
v -6.5 9 -1
v -5.5 9 -1
v 5.5 9 -1
v 5.5 9 -2
v 6.5 9 -2
v -6.5 9 -3
v 5.5 9 -3
v -3.5 2 1
v 4.5 2 1
v -3.5 2 -1
v 4.5 2 -1
v -3.5 4 -1
v 4.5 4 -1
v -3.5 4 -2
v 4.5 4 -2
v -6.5 8 3
v -5.5 8 3
v -6.5 8 1
v -5.5 8 1
v -6.5 8 -1
v -5.5 8 -1
v -6.5 8 -3
v -5.5 8 -3
v -6.5 10 3
v 6.5 10 3
v -5.5 10 1
v 5.5 10 1
v -5.5 10 -1
v 5.5 10 -1
v -6.5 10 -3
v 6.5 10 -3

# faces
f 4/3/1 2/3/1 1/3/1
f 5/3/1 2/3/1 4/3/1
f 7/3/1 4/3/1 3/3/1
f 7/3/1 6/3/1 5/3/1
f 7/3/1 5/3/1 4/3/1
f 8/3/1 6/3/1 7/3/1
f 9/3/1 7/3/1 3/3/1
f 9/1/1 8/1/1 7/1/1
f 10/3/1 6/3/1 8/3/1
f 10/1/1 8/1/1 9/1/1
f 11/3/1 9/3/1 3/3/1
f 11/3/1 10/3/1 9/3/1
f 12/3/1 10/3/1 11/3/1
f 13/3/1 10/3/1 12/3/1
f 14/3/1 6/3/1 10/3/1
f 14/3/1 10/3/1 13/3/1
f 16/3/1 13/3/1 12/3/1
f 17/3/1 13/3/1 16/3/1
f 19/3/1 16/3/1 15/3/1
f 19/3/1 18/3/1 17/3/1
f 19/3/1 17/3/1 16/3/1
f 20/3/1 18/3/1 19/3/1
f 25/2/1 22/2/1 21/2/1
f 26/2/1 24/2/1 23/2/1
f 27/2/1 25/2/1 21/2/1
f 27/2/1 26/2/1 25/2/1
f 28/2/1 24/2/1 26/2/1
f 28/2/1 26/2/1 27/2/1
f 29/2/1 24/2/1 28/2/1
f 30/2/1 24/2/1 29/2/1
f 35/2/1 32/2/1 31/2/1
f 36/2/1 32/2/1 35/2/1
f 37/2/1 34/2/1 33/2/1
f 38/2/1 34/2/1 37/2/1
f 43/5/1 40/5/1 39/5/1
f 44/5/1 40/5/1 43/5/1
f 45/5/1 42/5/1 41/5/1
f 46/5/1 42/5/1 45/5/1
f 47/3/2 48/3/2 50/3/2
f 50/3/2 48/3/2 51/3/2
f 49/3/2 50/3/2 53/3/2
f 51/3/2 52/3/2 53/3/2
f 50/3/2 51/3/2 53/3/2
f 53/3/2 52/3/2 54/3/2
f 49/3/2 53/3/2 55/3/2
f 53/1/2 54/1/2 55/1/2
f 54/3/2 52/3/2 56/3/2
f 55/1/2 54/1/2 56/1/2
f 49/3/2 55/3/2 57/3/2
f 55/3/2 56/3/2 57/3/2
f 57/3/2 56/3/2 58/3/2
f 58/3/2 56/3/2 59/3/2
f 56/3/2 52/3/2 60/3/2
f 59/3/2 56/3/2 60/3/2
f 58/3/2 59/3/2 61/3/2
f 61/3/2 59/3/2 62/3/2
f 63/2/2 64/2/2 67/2/2
f 67/2/2 64/2/2 68/2/2
f 65/2/2 66/2/2 69/2/2
f 69/2/2 66/2/2 70/2/2
f 71/2/2 72/2/2 75/2/2
f 73/2/2 74/2/2 76/2/2
f 71/2/2 75/2/2 77/2/2
f 75/2/2 76/2/2 77/2/2
f 76/2/2 74/2/2 78/2/2
f 77/2/2 76/2/2 78/2/2
f 78/2/2 74/2/2 79/2/2
f 79/2/2 74/2/2 80/2/2
f 81/5/2 82/5/2 85/5/2
f 85/5/2 82/5/2 86/5/2
f 83/5/2 84/5/2 87/5/2
f 87/5/2 84/5/2 88/5/2
f 85/3/2 86/3/2 89/3/2
f 86/3/2 87/3/2 89/3/2
f 87/3/2 88/3/2 89/3/2
f 89/3/2 88/3/2 90/3/2
f 95/3/3 92/3/3 91/3/3
f 96/3/3 92/3/3 95/3/3
f 98/3/3 94/3/3 93/3/3
f 99/5/3 98/5/3 97/5/3
f 100/3/3 94/3/3 98/3/3
f 100/5/3 98/5/3 99/5/3
f 101/3/3 94/3/3 100/3/3
f 106/3/3 103/3/3 102/3/3
f 107/3/3 103/3/3 106/3/3
f 108/3/3 105/3/3 104/3/3
f 109/3/3 105/3/3 108/3/3
f 112/2/3 111/2/3 110/2/3
f 113/2/3 111/2/3 112/2/3
f 115/2/3 111/2/3 113/2/3
f 116/2/3 115/2/3 114/2/3
f 117/2/3 111/2/3 115/2/3
f 117/2/3 115/2/3 116/2/3
f 122/2/3 119/2/3 118/2/3
f 123/2/3 119/2/3 122/2/3
f 126/2/3 125/2/3 124/2/3
f 127/2/3 125/2/3 126/2/3
f 128/2/3 121/2/3 120/2/3
f 129/2/3 121/2/3 128/2/3
f 132/5/3 131/5/3 130/5/3
f 133/5/3 131/5/3 132/5/3
f 134/5/4 135/5/4 136/5/4
f 136/5/4 135/5/4 137/5/4
f 138/3/4 139/3/4 140/3/4
f 140/3/4 139/3/4 141/3/4
f 142/2/4 143/2/4 144/2/4
f 144/2/4 143/2/4 145/2/4
f 146/2/4 147/2/4 148/2/4
f 148/2/4 147/2/4 149/2/4
f 150/3/4 151/3/4 152/3/4
f 152/3/4 151/3/4 153/3/4
f 154/2/4 155/2/4 156/2/4
f 156/2/4 155/2/4 157/2/4
f 157/2/4 155/2/4 159/2/4
f 158/2/4 159/2/4 160/2/4
f 159/2/4 155/2/4 161/2/4
f 160/2/4 159/2/4 161/2/4
f 162/3/4 163/3/4 166/3/4
f 166/3/4 163/3/4 167/3/4
f 164/3/4 165/3/4 169/3/4
f 168/5/4 169/5/4 170/5/4
f 169/3/4 165/3/4 171/3/4
f 170/5/4 169/5/4 171/5/4
f 171/3/4 165/3/4 172/3/4
f 175/5/5 174/5/5 173/5/5
f 176/5/5 174/5/5 175/5/5
f 183/3/5 178/3/5 177/3/5
f 184/3/5 178/3/5 183/3/5
f 185/2/5 180/2/5 179/2/5
f 186/2/5 180/2/5 185/2/5
f 187/2/5 182/2/5 181/2/5
f 188/2/5 182/2/5 187/2/5
f 193/2/5 190/2/5 189/2/5
f 194/2/5 190/2/5 193/2/5
f 195/2/5 192/2/5 191/2/5
f 196/2/5 192/2/5 195/2/5
f 199/5/5 198/5/5 197/5/5
f 200/5/5 198/5/5 199/5/5
f 203/3/5 202/3/5 201/3/5
f 204/3/5 202/3/5 203/3/5
f 210/2/5 206/2/5 205/2/5
f 211/2/5 206/2/5 210/2/5
f 213/2/5 210/2/5 209/2/5
f 213/2/5 212/2/5 211/2/5
f 213/2/5 211/2/5 210/2/5
f 214/2/5 212/2/5 213/2/5
f 215/2/5 212/2/5 214/2/5
f 216/2/5 212/2/5 215/2/5
f 217/2/5 215/2/5 214/2/5
f 218/2/5 215/2/5 217/2/5
f 219/3/5 208/3/5 207/3/5
f 220/3/5 208/3/5 219/3/5
f 223/3/5 222/3/5 221/3/5
f 225/3/5 223/3/5 221/3/5
f 225/3/5 224/3/5 223/3/5
f 226/3/5 224/3/5 225/3/5
f 227/3/5 224/3/5 226/3/5
f 229/4/5 227/4/5 226/4/5
f 230/3/5 224/3/5 227/3/5
f 230/4/5 227/4/5 229/4/5
f 231/3/5 229/3/5 228/3/5
f 231/3/5 224/3/5 230/3/5
f 231/3/5 230/3/5 229/3/5
f 232/3/5 224/3/5 231/3/5
f 233/3/5 231/3/5 228/3/5
f 234/3/5 231/3/5 233/3/5
f 235/2/6 236/2/6 237/2/6
f 237/2/6 236/2/6 238/2/6
f 239/2/6 240/2/6 241/2/6
f 241/2/6 240/2/6 242/2/6
f 243/3/6 244/3/6 245/3/6
f 245/3/6 244/3/6 246/3/6
f 247/3/6 248/3/6 249/3/6
f 249/3/6 248/3/6 250/3/6
f 251/3/6 252/3/6 253/3/6
f 253/3/6 252/3/6 254/3/6
f 251/3/6 253/3/6 255/3/6
f 253/4/6 254/4/6 255/4/6
f 254/3/6 252/3/6 256/3/6
f 255/4/6 254/4/6 256/4/6
f 251/3/6 255/3/6 257/3/6
f 255/3/6 256/3/6 257/3/6
f 256/3/6 252/3/6 258/3/6
f 257/3/6 256/3/6 258/3/6
