# MagicaVoxel @ Ephtracy

# material
mtllib Chair02.mtl
usemtl palette

# normals
vn -1 0 0
vn 1 0 0
vn 0 0 1
vn 0 0 -1
vn 0 -1 0
vn 0 1 0

# texcoords
vt 0.884766 0.5
vt 0.888672 0.5

# verts
v -5.5 0 2.5
v -5.5 0 1.5
v -5.5 0 -1.5
v -5.5 0 -2.5
v -5.5 2 1.5
v -5.5 2 0.5
v -5.5 2 -0.5
v -5.5 2 -1.5
v -5.5 3 2.5
v -5.5 3 0.5
v -5.5 3 -0.5
v -5.5 3 -2.5
v -5.5 4 2.5
v -5.5 4 -2.5
v -5.5 5 2.5
v -5.5 5 -1.5
v -5.5 5 -2.5
v -5.5 6 -1.5
v -5.5 6 -2.5
v -5.5 7 -1.5
v -5.5 7 -2.5
v 4.5 0 2.5
v 4.5 0 1.5
v 4.5 0 -1.5
v 4.5 0 -2.5
v 4.5 2 2.5
v 4.5 2 1.5
v 4.5 2 -1.5
v 4.5 2 -2.5
v 4.5 3 2.5
v 4.5 3 1.5
v 4.5 3 0.5
v 4.5 3 -0.5
v 4.5 3 -1.5
v 4.5 4 2.5
v 4.5 4 -1.5
v 4.5 5 2.5
v 4.5 5 -1.5
v -4.5 0 2.5
v -4.5 0 1.5
v -4.5 0 -1.5
v -4.5 0 -2.5
v -4.5 2 2.5
v -4.5 2 1.5
v -4.5 2 -1.5
v -4.5 2 -2.5
v -4.5 3 2.5
v -4.5 3 1.5
v -4.5 3 0.5
v -4.5 3 -0.5
v -4.5 3 -1.5
v -4.5 4 2.5
v -4.5 4 -1.5
v -4.5 5 2.5
v -4.5 5 -1.5
v 5.5 0 2.5
v 5.5 0 1.5
v 5.5 0 -1.5
v 5.5 0 -2.5
v 5.5 2 1.5
v 5.5 2 0.5
v 5.5 2 -0.5
v 5.5 2 -1.5
v 5.5 3 2.5
v 5.5 3 0.5
v 5.5 3 -0.5
v 5.5 3 -2.5
v 5.5 4 2.5
v 5.5 4 -2.5
v 5.5 5 2.5
v 5.5 5 -1.5
v 5.5 5 -2.5
v 5.5 6 -1.5
v 5.5 6 -2.5
v 5.5 7 -1.5
v 5.5 7 -2.5
v -5.5 0 2.5
v -5.5 3 2.5
v -5.5 4 2.5
v -5.5 5 2.5
v -4.5 0 2.5
v -4.5 2 2.5
v -4.5 3 2.5
v -4.5 4 2.5
v -4.5 5 2.5
v 4.5 0 2.5
v 4.5 2 2.5
v 4.5 3 2.5
v 4.5 4 2.5
v 4.5 5 2.5
v 5.5 0 2.5
v 5.5 3 2.5
v 5.5 4 2.5
v 5.5 5 2.5
v -5.5 0 -1.5
v -5.5 2 -1.5
v -5.5 5 -1.5
v -5.5 6 -1.5
v -5.5 7 -1.5
v -4.5 0 -1.5
v -4.5 2 -1.5
v -4.5 3 -1.5
v -4.5 4 -1.5
v -4.5 5 -1.5
v 4.5 0 -1.5
v 4.5 2 -1.5
v 4.5 3 -1.5
v 4.5 4 -1.5
v 4.5 5 -1.5
v 5.5 0 -1.5
v 5.5 2 -1.5
v 5.5 5 -1.5
v 5.5 6 -1.5
v 5.5 7 -1.5
v -5.5 0 1.5
v -5.5 2 1.5
v -4.5 0 1.5
v -4.5 2 1.5
v 4.5 0 1.5
v 4.5 2 1.5
v 5.5 0 1.5
v 5.5 2 1.5
v -5.5 0 -2.5
v -5.5 3 -2.5
v -5.5 4 -2.5
v -5.5 5 -2.5
v -5.5 6 -2.5
v -5.5 7 -2.5
v -4.5 0 -2.5
v -4.5 2 -2.5
v 4.5 0 -2.5
v 4.5 2 -2.5
v 5.5 0 -2.5
v 5.5 3 -2.5
v 5.5 4 -2.5
v 5.5 5 -2.5
v 5.5 6 -2.5
v 5.5 7 -2.5
v -5.5 0 2.5
v -4.5 0 2.5
v 4.5 0 2.5
v 5.5 0 2.5
v -5.5 0 1.5
v -4.5 0 1.5
v 4.5 0 1.5
v 5.5 0 1.5
v -5.5 0 -1.5
v -4.5 0 -1.5
v 4.5 0 -1.5
v 5.5 0 -1.5
v -5.5 0 -2.5
v -4.5 0 -2.5
v 4.5 0 -2.5
v 5.5 0 -2.5
v -4.5 2 2.5
v 4.5 2 2.5
v -5.5 2 1.5
v -4.5 2 1.5
v 4.5 2 1.5
v 5.5 2 1.5
v -5.5 2 0.5
v 5.5 2 0.5
v -5.5 2 -0.5
v 5.5 2 -0.5
v -5.5 2 -1.5
v -4.5 2 -1.5
v 4.5 2 -1.5
v 5.5 2 -1.5
v -4.5 2 -2.5
v 4.5 2 -2.5
v -4.5 3 2.5
v 4.5 3 2.5
v -4.5 3 1.5
v 4.5 3 1.5
v -4.5 3 0.5
v 4.5 3 0.5
v -4.5 3 -0.5
v 4.5 3 -0.5
v -4.5 3 -1.5
v 4.5 3 -1.5
v -5.5 5 2.5
v -4.5 5 2.5
v 4.5 5 2.5
v 5.5 5 2.5
v -5.5 5 -1.5
v -4.5 5 -1.5
v 4.5 5 -1.5
v 5.5 5 -1.5
v -5.5 7 -1.5
v 5.5 7 -1.5
v -5.5 7 -2.5
v 5.5 7 -2.5

# faces
f 5/2/1 2/2/1 1/2/1
f 8/2/1 4/2/1 3/2/1
f 9/2/1 5/2/1 1/2/1
f 9/2/1 6/2/1 5/2/1
f 10/1/1 7/1/1 6/1/1
f 10/2/1 6/2/1 9/2/1
f 11/2/1 8/2/1 7/2/1
f 11/1/1 7/1/1 10/1/1
f 12/2/1 4/2/1 8/2/1
f 12/2/1 8/2/1 11/2/1
f 13/1/1 10/1/1 9/1/1
f 13/1/1 11/1/1 10/1/1
f 13/1/1 12/1/1 11/1/1
f 14/1/1 12/1/1 13/1/1
f 15/2/1 14/2/1 13/2/1
f 16/2/1 14/2/1 15/2/1
f 17/2/1 14/2/1 16/2/1
f 18/1/1 17/1/1 16/1/1
f 19/1/1 17/1/1 18/1/1
f 20/2/1 19/2/1 18/2/1
f 21/2/1 19/2/1 20/2/1
f 26/2/1 23/2/1 22/2/1
f 27/2/1 23/2/1 26/2/1
f 28/2/1 25/2/1 24/2/1
f 29/2/1 25/2/1 28/2/1
f 35/1/1 31/1/1 30/1/1
f 35/1/1 34/1/1 33/1/1
f 35/1/1 33/1/1 32/1/1
f 35/1/1 32/1/1 31/1/1
f 36/1/1 34/1/1 35/1/1
f 37/2/1 36/2/1 35/2/1
f 38/2/1 36/2/1 37/2/1
f 39/2/2 40/2/2 43/2/2
f 43/2/2 40/2/2 44/2/2
f 41/2/2 42/2/2 45/2/2
f 45/2/2 42/2/2 46/2/2
f 47/1/2 48/1/2 52/1/2
f 50/1/2 51/1/2 52/1/2
f 49/1/2 50/1/2 52/1/2
f 48/1/2 49/1/2 52/1/2
f 52/1/2 51/1/2 53/1/2
f 52/2/2 53/2/2 54/2/2
f 54/2/2 53/2/2 55/2/2
f 56/2/2 57/2/2 60/2/2
f 58/2/2 59/2/2 63/2/2
f 56/2/2 60/2/2 64/2/2
f 60/2/2 61/2/2 64/2/2
f 61/1/2 62/1/2 65/1/2
f 64/2/2 61/2/2 65/2/2
f 62/2/2 63/2/2 66/2/2
f 65/1/2 62/1/2 66/1/2
f 63/2/2 59/2/2 67/2/2
f 66/2/2 63/2/2 67/2/2
f 64/1/2 65/1/2 68/1/2
f 65/1/2 66/1/2 68/1/2
f 66/1/2 67/1/2 68/1/2
f 68/1/2 67/1/2 69/1/2
f 68/2/2 69/2/2 70/2/2
f 70/2/2 69/2/2 71/2/2
f 71/2/2 69/2/2 72/2/2
f 71/1/2 72/1/2 73/1/2
f 73/1/2 72/1/2 74/1/2
f 73/2/2 74/2/2 75/2/2
f 75/2/2 74/2/2 76/2/2
f 81/2/3 78/2/3 77/2/3
f 82/2/3 78/2/3 81/2/3
f 83/1/3 79/1/3 78/1/3
f 83/2/3 78/2/3 82/2/3
f 84/2/3 80/2/3 79/2/3
f 84/1/3 79/1/3 83/1/3
f 85/2/3 80/2/3 84/2/3
f 87/1/3 83/1/3 82/1/3
f 88/1/3 83/1/3 87/1/3
f 91/2/3 87/2/3 86/2/3
f 91/2/3 88/2/3 87/2/3
f 92/1/3 89/1/3 88/1/3
f 92/2/3 88/2/3 91/2/3
f 93/2/3 90/2/3 89/2/3
f 93/1/3 89/1/3 92/1/3
f 94/2/3 90/2/3 93/2/3
f 100/2/3 96/2/3 95/2/3
f 101/2/3 96/2/3 100/2/3
f 104/1/3 98/1/3 97/1/3
f 107/1/3 103/1/3 102/1/3
f 108/2/3 104/2/3 103/2/3
f 108/1/3 103/1/3 107/1/3
f 109/1/3 98/1/3 104/1/3
f 109/2/3 104/2/3 108/2/3
f 110/2/3 106/2/3 105/2/3
f 111/2/3 106/2/3 110/2/3
f 112/1/3 98/1/3 109/1/3
f 113/2/3 99/2/3 98/2/3
f 113/1/3 98/1/3 112/1/3
f 114/2/3 99/2/3 113/2/3
f 115/2/4 116/2/4 117/2/4
f 117/2/4 116/2/4 118/2/4
f 119/2/4 120/2/4 121/2/4
f 121/2/4 120/2/4 122/2/4
f 123/2/4 124/2/4 129/2/4
f 129/2/4 124/2/4 130/2/4
f 130/2/4 124/2/4 132/2/4
f 131/2/4 132/2/4 133/2/4
f 124/1/4 125/1/4 134/1/4
f 133/2/4 132/2/4 134/2/4
f 132/2/4 124/2/4 134/2/4
f 125/2/4 126/2/4 135/2/4
f 134/1/4 125/1/4 135/1/4
f 126/1/4 127/1/4 136/1/4
f 135/2/4 126/2/4 136/2/4
f 127/2/4 128/2/4 137/2/4
f 136/1/4 127/1/4 137/1/4
f 137/2/4 128/2/4 138/2/4
f 143/2/5 140/2/5 139/2/5
f 144/2/5 140/2/5 143/2/5
f 145/2/5 142/2/5 141/2/5
f 146/2/5 142/2/5 145/2/5
f 151/2/5 148/2/5 147/2/5
f 152/2/5 148/2/5 151/2/5
f 153/2/5 150/2/5 149/2/5
f 154/2/5 150/2/5 153/2/5
f 158/1/5 156/1/5 155/1/5
f 159/1/5 156/1/5 158/1/5
f 161/2/5 158/2/5 157/2/5
f 161/2/5 160/2/5 159/2/5
f 161/2/5 159/2/5 158/2/5
f 162/2/5 160/2/5 161/2/5
f 163/1/5 162/1/5 161/1/5
f 164/1/5 162/1/5 163/1/5
f 165/2/5 164/2/5 163/2/5
f 166/2/5 164/2/5 165/2/5
f 167/2/5 164/2/5 166/2/5
f 168/2/5 164/2/5 167/2/5
f 169/2/5 167/2/5 166/2/5
f 170/2/5 167/2/5 169/2/5
f 171/1/6 172/1/6 173/1/6
f 173/1/6 172/1/6 174/1/6
f 173/2/6 174/2/6 175/2/6
f 175/2/6 174/2/6 176/2/6
f 175/1/6 176/1/6 177/1/6
f 177/1/6 176/1/6 178/1/6
f 177/2/6 178/2/6 179/2/6
f 179/2/6 178/2/6 180/2/6
f 181/2/6 182/2/6 185/2/6
f 185/2/6 182/2/6 186/2/6
f 183/2/6 184/2/6 187/2/6
f 187/2/6 184/2/6 188/2/6
f 189/2/6 190/2/6 191/2/6
f 191/2/6 190/2/6 192/2/6
