# MagicaVoxel @ Ephtracy

# material
mtllib Chair04.mtl
usemtl palette

# normals
vn -1 0 0
vn 1 0 0
vn 0 0 1
vn 0 0 -1
vn 0 -1 0
vn 0 1 0

# texcoords
vt 0.884766 0.5
vt 0.888672 0.5

# verts
v -4 6 3
v -4 6 1
v -4 6 -1
v -4 6 -4
v -4 7 3
v -4 7 1
v -4 7 -1
v -4 7 -3
v -4 14 -3
v -4 14 -4
v -3 6 4
v -3 6 3
v -3 7 4
v -3 7 3
v -1 0 1
v -1 0 -1
v -1 6 1
v -1 6 -1
v 1 0 1
v 1 0 -1
v 1 6 1
v 1 6 -1
v 3 6 4
v 3 6 3
v 3 7 4
v 3 7 3
v 4 6 3
v 4 6 1
v 4 6 -1
v 4 6 -4
v 4 7 3
v 4 7 1
v 4 7 -1
v 4 7 -3
v 4 14 -3
v 4 14 -4
v -3 6 4
v -3 7 4
v -1 6 4
v -1 7 4
v 1 6 4
v 1 7 4
v 3 6 4
v 3 7 4
v -4 6 3
v -4 7 3
v -3 6 3
v -3 7 3
v 3 6 3
v 3 7 3
v 4 6 3
v 4 7 3
v -1 0 1
v -1 6 1
v 1 0 1
v 1 6 1
v -4 7 -3
v -4 14 -3
v -1 7 -3
v -1 14 -3
v 1 7 -3
v 1 14 -3
v 4 7 -3
v 4 14 -3
v -1 0 -1
v -1 6 -1
v 1 0 -1
v 1 6 -1
v -4 6 -4
v -4 14 -4
v -1 6 -4
v -1 14 -4
v 1 6 -4
v 1 14 -4
v 4 6 -4
v 4 14 -4
v -1 0 1
v 1 0 1
v -1 0 -1
v 1 0 -1
v -3 6 4
v -1 6 4
v 1 6 4
v 3 6 4
v -4 6 3
v -3 6 3
v 3 6 3
v 4 6 3
v -4 6 1
v -1 6 1
v 1 6 1
v 4 6 1
v -4 6 -1
v -1 6 -1
v 1 6 -1
v 4 6 -1
v -4 6 -4
v -1 6 -4
v 1 6 -4
v 4 6 -4
v -3 7 4
v -1 7 4
v 1 7 4
v 3 7 4
v -4 7 3
v -3 7 3
v 3 7 3
v 4 7 3
v -4 7 1
v -1 7 1
v 1 7 1
v 4 7 1
v -4 7 -1
v -1 7 -1
v 1 7 -1
v 4 7 -1
v -4 7 -3
v -1 7 -3
v 1 7 -3
v 4 7 -3
v -4 14 -3
v -1 14 -3
v 1 14 -3
v 4 14 -3
v -4 14 -4
v -1 14 -4
v 1 14 -4
v 4 14 -4

# faces
f 5/1/1 2/1/1 1/1/1
f 6/2/1 3/2/1 2/2/1
f 6/1/1 2/1/1 5/1/1
f 7/1/1 4/1/1 3/1/1
f 7/2/1 3/2/1 6/2/1
f 8/1/1 4/1/1 7/1/1
f 9/1/1 4/1/1 8/1/1
f 10/1/1 4/1/1 9/1/1
f 13/1/1 12/1/1 11/1/1
f 14/1/1 12/1/1 13/1/1
f 17/1/1 16/1/1 15/1/1
f 18/1/1 16/1/1 17/1/1
f 19/1/2 20/1/2 21/1/2
f 21/1/2 20/1/2 22/1/2
f 23/1/2 24/1/2 25/1/2
f 25/1/2 24/1/2 26/1/2
f 27/1/2 28/1/2 31/1/2
f 28/2/2 29/2/2 32/2/2
f 31/1/2 28/1/2 32/1/2
f 29/1/2 30/1/2 33/1/2
f 32/2/2 29/2/2 33/2/2
f 33/1/2 30/1/2 34/1/2
f 34/1/2 30/1/2 35/1/2
f 35/1/2 30/1/2 36/1/2
f 39/1/3 38/1/3 37/1/3
f 40/1/3 38/1/3 39/1/3
f 41/2/3 40/2/3 39/2/3
f 42/2/3 40/2/3 41/2/3
f 43/1/3 42/1/3 41/1/3
f 44/1/3 42/1/3 43/1/3
f 47/1/3 46/1/3 45/1/3
f 48/1/3 46/1/3 47/1/3
f 51/1/3 50/1/3 49/1/3
f 52/1/3 50/1/3 51/1/3
f 55/1/3 54/1/3 53/1/3
f 56/1/3 54/1/3 55/1/3
f 59/1/3 58/1/3 57/1/3
f 60/1/3 58/1/3 59/1/3
f 61/2/3 60/2/3 59/2/3
f 62/2/3 60/2/3 61/2/3
f 63/1/3 62/1/3 61/1/3
f 64/1/3 62/1/3 63/1/3
f 65/1/4 66/1/4 67/1/4
f 67/1/4 66/1/4 68/1/4
f 69/1/4 70/1/4 71/1/4
f 71/1/4 70/1/4 72/1/4
f 71/2/4 72/2/4 73/2/4
f 73/2/4 72/2/4 74/2/4
f 73/1/4 74/1/4 75/1/4
f 75/1/4 74/1/4 76/1/4
f 79/1/5 78/1/5 77/1/5
f 80/1/5 78/1/5 79/1/5
f 86/1/5 82/1/5 81/1/5
f 87/1/5 84/1/5 83/1/5
f 89/1/5 86/1/5 85/1/5
f 90/2/5 83/2/5 82/2/5
f 90/1/5 86/1/5 89/1/5
f 90/1/5 82/1/5 86/1/5
f 91/1/5 88/1/5 87/1/5
f 91/2/5 83/2/5 90/2/5
f 91/1/5 87/1/5 83/1/5
f 92/1/5 88/1/5 91/1/5
f 93/2/5 90/2/5 89/2/5
f 94/2/5 90/2/5 93/2/5
f 95/2/5 92/2/5 91/2/5
f 96/2/5 92/2/5 95/2/5
f 97/1/5 94/1/5 93/1/5
f 98/2/5 95/2/5 94/2/5
f 98/1/5 94/1/5 97/1/5
f 99/1/5 96/1/5 95/1/5
f 99/2/5 95/2/5 98/2/5
f 100/1/5 96/1/5 99/1/5
f 101/1/6 102/1/6 106/1/6
f 103/1/6 104/1/6 107/1/6
f 105/1/6 106/1/6 109/1/6
f 102/2/6 103/2/6 110/2/6
f 109/1/6 106/1/6 110/1/6
f 106/1/6 102/1/6 110/1/6
f 107/1/6 108/1/6 111/1/6
f 110/2/6 103/2/6 111/2/6
f 103/1/6 107/1/6 111/1/6
f 111/1/6 108/1/6 112/1/6
f 109/2/6 110/2/6 113/2/6
f 110/2/6 111/2/6 113/2/6
f 111/2/6 112/2/6 113/2/6
f 113/2/6 112/2/6 114/2/6
f 114/2/6 112/2/6 115/2/6
f 115/2/6 112/2/6 116/2/6
f 113/1/6 114/1/6 117/1/6
f 114/2/6 115/2/6 118/2/6
f 117/1/6 114/1/6 118/1/6
f 115/1/6 116/1/6 119/1/6
f 118/2/6 115/2/6 119/2/6
f 119/1/6 116/1/6 120/1/6
f 121/1/6 122/1/6 125/1/6
f 122/2/6 123/2/6 126/2/6
f 125/1/6 122/1/6 126/1/6
f 123/1/6 124/1/6 127/1/6
f 126/2/6 123/2/6 127/2/6
f 127/1/6 124/1/6 128/1/6
