# MagicaVoxel @ Ephtracy

# material
mtllib Container01.mtl
usemtl palette

# normals
vn -1 0 0
vn 1 0 0
vn 0 0 1
vn 0 0 -1
vn 0 -1 0
vn 0 1 0

# texcoords
vt 0.849609 0.5
vt 0.853516 0.5
vt 0.970703 0.5

# verts
v -5 0 12
v -5 0 5
v -5 0 3
v -5 0 -1
v -5 0 -3
v -5 0 -11
v -5 1 11
v -5 1 10
v -5 1 9
v -5 1 8
v -5 1 7
v -5 1 6
v -5 1 5
v -5 1 4
v -5 1 3
v -5 1 2
v -5 1 1
v -5 1 -0
v -5 1 -1
v -5 1 -2
v -5 1 -3
v -5 1 -4
v -5 1 -5
v -5 1 -6
v -5 1 -7
v -5 1 -8
v -5 1 -9
v -5 1 -10
v -5 10 12
v -5 10 11
v -5 10 10
v -5 10 9
v -5 10 8
v -5 10 7
v -5 10 6
v -5 10 5
v -5 10 4
v -5 10 3
v -5 10 2
v -5 10 1
v -5 10 -0
v -5 10 -1
v -5 10 -2
v -5 10 -3
v -5 10 -4
v -5 10 -5
v -5 10 -6
v -5 10 -7
v -5 10 -8
v -5 10 -9
v -5 10 -10
v -5 10 -11
v -4 0 -11
v -4 0 -12
v -4 10 -11
v -4 10 -12
v -2 0 -11
v -2 0 -12
v -2 10 -11
v -2 10 -12
v 1 0 -11
v 1 0 -12
v 1 10 -11
v 1 10 -12
v 3 0 -11
v 3 0 -12
v 3 10 -11
v 3 10 -12
v 4 1 12
v 4 1 11
v 4 9 12
v 4 9 11
v -4 1 12
v -4 1 11
v -4 9 12
v -4 9 11
v -3 0 -11
v -3 0 -12
v -3 10 -11
v -3 10 -12
v -1 0 -11
v -1 0 -12
v -1 10 -11
v -1 10 -12
v 2 0 -11
v 2 0 -12
v 2 10 -11
v 2 10 -12
v 4 0 -11
v 4 0 -12
v 4 10 -11
v 4 10 -12
v 5 0 12
v 5 0 5
v 5 0 3
v 5 0 -1
v 5 0 -3
v 5 0 -11
v 5 1 11
v 5 1 10
v 5 1 9
v 5 1 8
v 5 1 7
v 5 1 6
v 5 1 5
v 5 1 4
v 5 1 3
v 5 1 2
v 5 1 1
v 5 1 -0
v 5 1 -1
v 5 1 -2
v 5 1 -3
v 5 1 -4
v 5 1 -5
v 5 1 -6
v 5 1 -7
v 5 1 -8
v 5 1 -9
v 5 1 -10
v 5 10 12
v 5 10 11
v 5 10 10
v 5 10 9
v 5 10 8
v 5 10 7
v 5 10 6
v 5 10 5
v 5 10 4
v 5 10 3
v 5 10 2
v 5 10 1
v 5 10 -0
v 5 10 -1
v 5 10 -2
v 5 10 -3
v 5 10 -4
v 5 10 -5
v 5 10 -6
v 5 10 -7
v 5 10 -8
v 5 10 -9
v 5 10 -10
v 5 10 -11
v -5 0 12
v -5 10 12
v -4 1 12
v -4 9 12
v 4 1 12
v 4 9 12
v 5 0 12
v 5 10 12
v -4 1 11
v -4 9 11
v 4 1 11
v 4 9 11
v -5 0 3
v -5 1 3
v 5 0 3
v 5 1 3
v -5 0 -3
v -5 1 -3
v 5 0 -3
v 5 1 -3
v -5 0 5
v -5 1 5
v -4 1 5
v 4 1 5
v 5 0 5
v 5 1 5
v -5 0 -1
v -5 1 -1
v -4 1 -1
v 4 1 -1
v 5 0 -1
v 5 1 -1
v -5 0 -11
v -5 10 -11
v -4 0 -11
v -4 10 -11
v -3 0 -11
v -3 10 -11
v -2 0 -11
v -2 10 -11
v -1 0 -11
v -1 10 -11
v 1 0 -11
v 1 10 -11
v 2 0 -11
v 2 10 -11
v 3 0 -11
v 3 10 -11
v 4 0 -11
v 4 10 -11
v 5 0 -11
v 5 10 -11
v -4 0 -12
v -4 10 -12
v -3 0 -12
v -3 10 -12
v -2 0 -12
v -2 10 -12
v -1 0 -12
v -1 10 -12
v 1 0 -12
v 1 10 -12
v 2 0 -12
v 2 10 -12
v 3 0 -12
v 3 10 -12
v 4 0 -12
v 4 10 -12
v -5 0 12
v 5 0 12
v -5 0 5
v 5 0 5
v -5 0 3
v 5 0 3
v -5 0 -1
v 5 0 -1
v -5 0 -3
v 5 0 -3
v -5 0 -11
v -4 0 -11
v -3 0 -11
v -2 0 -11
v -1 0 -11
v 1 0 -11
v 2 0 -11
v 3 0 -11
v 4 0 -11
v 5 0 -11
v -4 0 -12
v -3 0 -12
v -2 0 -12
v -1 0 -12
v 1 0 -12
v 2 0 -12
v 3 0 -12
v 4 0 -12
v -5 1 5
v -4 1 5
v 4 1 5
v 5 1 5
v -5 1 4
v -4 1 4
v 4 1 4
v 5 1 4
v -5 1 3
v 5 1 3
v -5 1 -1
v -4 1 -1
v 4 1 -1
v 5 1 -1
v -5 1 -2
v -4 1 -2
v 4 1 -2
v 5 1 -2
v -5 1 -3
v 5 1 -3
v -4 9 12
v 4 9 12
v -4 9 11
v 4 9 11
v -4 1 12
v 4 1 12
v -4 1 11
v 4 1 11
v -5 10 12
v 5 10 12
v -5 10 11
v 5 10 11
v -5 10 10
v 5 10 10
v -5 10 9
v 5 10 9
v -5 10 8
v 5 10 8
v -5 10 7
v 5 10 7
v -5 10 6
v 5 10 6
v -5 10 5
v 5 10 5
v -5 10 4
v 5 10 4
v -5 10 3
v 5 10 3
v -5 10 2
v 5 10 2
v -5 10 1
v 5 10 1
v -5 10 -0
v 5 10 -0
v -5 10 -1
v 5 10 -1
v -5 10 -2
v 5 10 -2
v -5 10 -3
v 5 10 -3
v -5 10 -4
v 5 10 -4
v -5 10 -5
v 5 10 -5
v -5 10 -6
v 5 10 -6
v -5 10 -7
v 5 10 -7
v -5 10 -8
v 5 10 -8
v -5 10 -9
v 5 10 -9
v -5 10 -10
v 5 10 -10
v -5 10 -11
v -4 10 -11
v -3 10 -11
v -2 10 -11
v -1 10 -11
v 1 10 -11
v 2 10 -11
v 3 10 -11
v 4 10 -11
v 5 10 -11
v -4 10 -12
v -3 10 -12
v -2 10 -12
v -1 10 -12
v 1 10 -12
v 2 10 -12
v 3 10 -12
v 4 10 -12

# faces
f 7/1/1 2/1/1 1/1/1
f 8/1/1 2/1/1 7/1/1
f 9/1/1 2/1/1 8/1/1
f 10/1/1 2/1/1 9/1/1
f 11/1/1 2/1/1 10/1/1
f 12/1/1 2/1/1 11/1/1
f 13/1/1 2/1/1 12/1/1
f 15/1/1 4/1/1 3/1/1
f 16/1/1 4/1/1 15/1/1
f 17/1/1 4/1/1 16/1/1
f 18/1/1 4/1/1 17/1/1
f 19/1/1 4/1/1 18/1/1
f 21/1/1 6/1/1 5/1/1
f 22/1/1 6/1/1 21/1/1
f 23/1/1 6/1/1 22/1/1
f 24/1/1 6/1/1 23/1/1
f 25/1/1 6/1/1 24/1/1
f 26/1/1 6/1/1 25/1/1
f 27/1/1 6/1/1 26/1/1
f 28/1/1 6/1/1 27/1/1
f 29/1/1 7/1/1 1/1/1
f 30/2/1 8/2/1 7/2/1
f 30/1/1 7/1/1 29/1/1
f 31/1/1 9/1/1 8/1/1
f 31/2/1 8/2/1 30/2/1
f 32/2/1 10/2/1 9/2/1
f 32/1/1 9/1/1 31/1/1
f 33/1/1 11/1/1 10/1/1
f 33/2/1 10/2/1 32/2/1
f 34/2/1 12/2/1 11/2/1
f 34/1/1 11/1/1 33/1/1
f 35/1/1 13/1/1 12/1/1
f 35/2/1 12/2/1 34/2/1
f 36/2/1 14/2/1 13/2/1
f 36/1/1 13/1/1 35/1/1
f 37/1/1 15/1/1 14/1/1
f 37/2/1 14/2/1 36/2/1
f 38/2/1 16/2/1 15/2/1
f 38/1/1 15/1/1 37/1/1
f 39/1/1 17/1/1 16/1/1
f 39/2/1 16/2/1 38/2/1
f 40/2/1 18/2/1 17/2/1
f 40/1/1 17/1/1 39/1/1
f 41/1/1 19/1/1 18/1/1
f 41/2/1 18/2/1 40/2/1
f 42/2/1 20/2/1 19/2/1
f 42/1/1 19/1/1 41/1/1
f 43/1/1 21/1/1 20/1/1
f 43/2/1 20/2/1 42/2/1
f 44/2/1 22/2/1 21/2/1
f 44/1/1 21/1/1 43/1/1
f 45/1/1 23/1/1 22/1/1
f 45/2/1 22/2/1 44/2/1
f 46/2/1 24/2/1 23/2/1
f 46/1/1 23/1/1 45/1/1
f 47/1/1 25/1/1 24/1/1
f 47/2/1 24/2/1 46/2/1
f 48/2/1 26/2/1 25/2/1
f 48/1/1 25/1/1 47/1/1
f 49/1/1 27/1/1 26/1/1
f 49/2/1 26/2/1 48/2/1
f 50/2/1 28/2/1 27/2/1
f 50/1/1 27/1/1 49/1/1
f 51/1/1 6/1/1 28/1/1
f 51/2/1 28/2/1 50/2/1
f 52/1/1 6/1/1 51/1/1
f 55/3/1 54/3/1 53/3/1
f 56/3/1 54/3/1 55/3/1
f 59/3/1 58/3/1 57/3/1
f 60/3/1 58/3/1 59/3/1
f 63/3/1 62/3/1 61/3/1
f 64/3/1 62/3/1 63/3/1
f 67/3/1 66/3/1 65/3/1
f 68/3/1 66/3/1 67/3/1
f 71/1/1 70/1/1 69/1/1
f 72/1/1 70/1/1 71/1/1
f 73/1/2 74/1/2 75/1/2
f 75/1/2 74/1/2 76/1/2
f 77/3/2 78/3/2 79/3/2
f 79/3/2 78/3/2 80/3/2
f 81/3/2 82/3/2 83/3/2
f 83/3/2 82/3/2 84/3/2
f 85/3/2 86/3/2 87/3/2
f 87/3/2 86/3/2 88/3/2
f 89/3/2 90/3/2 91/3/2
f 91/3/2 90/3/2 92/3/2
f 93/1/2 94/1/2 99/1/2
f 99/1/2 94/1/2 100/1/2
f 100/1/2 94/1/2 101/1/2
f 101/1/2 94/1/2 102/1/2
f 102/1/2 94/1/2 103/1/2
f 103/1/2 94/1/2 104/1/2
f 104/1/2 94/1/2 105/1/2
f 95/1/2 96/1/2 107/1/2
f 107/1/2 96/1/2 108/1/2
f 108/1/2 96/1/2 109/1/2
f 109/1/2 96/1/2 110/1/2
f 110/1/2 96/1/2 111/1/2
f 97/1/2 98/1/2 113/1/2
f 113/1/2 98/1/2 114/1/2
f 114/1/2 98/1/2 115/1/2
f 115/1/2 98/1/2 116/1/2
f 116/1/2 98/1/2 117/1/2
f 117/1/2 98/1/2 118/1/2
f 118/1/2 98/1/2 119/1/2
f 119/1/2 98/1/2 120/1/2
f 93/1/2 99/1/2 121/1/2
f 99/2/2 100/2/2 122/2/2
f 121/1/2 99/1/2 122/1/2
f 100/1/2 101/1/2 123/1/2
f 122/2/2 100/2/2 123/2/2
f 101/2/2 102/2/2 124/2/2
f 123/1/2 101/1/2 124/1/2
f 102/1/2 103/1/2 125/1/2
f 124/2/2 102/2/2 125/2/2
f 103/2/2 104/2/2 126/2/2
f 125/1/2 103/1/2 126/1/2
f 104/1/2 105/1/2 127/1/2
f 126/2/2 104/2/2 127/2/2
f 105/2/2 106/2/2 128/2/2
f 127/1/2 105/1/2 128/1/2
f 106/1/2 107/1/2 129/1/2
f 128/2/2 106/2/2 129/2/2
f 107/2/2 108/2/2 130/2/2
f 129/1/2 107/1/2 130/1/2
f 108/1/2 109/1/2 131/1/2
f 130/2/2 108/2/2 131/2/2
f 109/2/2 110/2/2 132/2/2
f 131/1/2 109/1/2 132/1/2
f 110/1/2 111/1/2 133/1/2
f 132/2/2 110/2/2 133/2/2
f 111/2/2 112/2/2 134/2/2
f 133/1/2 111/1/2 134/1/2
f 112/1/2 113/1/2 135/1/2
f 134/2/2 112/2/2 135/2/2
f 113/2/2 114/2/2 136/2/2
f 135/1/2 113/1/2 136/1/2
f 114/1/2 115/1/2 137/1/2
f 136/2/2 114/2/2 137/2/2
f 115/2/2 116/2/2 138/2/2
f 137/1/2 115/1/2 138/1/2
f 116/1/2 117/1/2 139/1/2
f 138/2/2 116/2/2 139/2/2
f 117/2/2 118/2/2 140/2/2
f 139/1/2 117/1/2 140/1/2
f 118/1/2 119/1/2 141/1/2
f 140/2/2 118/2/2 141/2/2
f 119/2/2 120/2/2 142/2/2
f 141/1/2 119/1/2 142/1/2
f 120/1/2 98/1/2 143/1/2
f 142/2/2 120/2/2 143/2/2
f 143/1/2 98/1/2 144/1/2
f 147/1/3 146/1/3 145/1/3
f 148/1/3 146/1/3 147/1/3
f 149/1/3 147/1/3 145/1/3
f 150/1/3 146/1/3 148/1/3
f 151/1/3 149/1/3 145/1/3
f 151/1/3 150/1/3 149/1/3
f 152/1/3 146/1/3 150/1/3
f 152/1/3 150/1/3 151/1/3
f 155/2/3 154/2/3 153/2/3
f 156/2/3 154/2/3 155/2/3
f 159/1/3 158/1/3 157/1/3
f 160/1/3 158/1/3 159/1/3
f 163/1/3 162/1/3 161/1/3
f 164/1/3 162/1/3 163/1/3
f 165/1/4 166/1/4 167/1/4
f 165/1/4 167/1/4 168/1/4
f 165/1/4 168/1/4 169/1/4
f 169/1/4 168/1/4 170/1/4
f 171/1/4 172/1/4 173/1/4
f 171/1/4 173/1/4 174/1/4
f 171/1/4 174/1/4 175/1/4
f 175/1/4 174/1/4 176/1/4
f 177/1/4 178/1/4 179/1/4
f 179/1/4 178/1/4 180/1/4
f 181/1/4 182/1/4 183/1/4
f 183/1/4 182/1/4 184/1/4
f 185/1/4 186/1/4 187/1/4
f 187/1/4 186/1/4 188/1/4
f 189/1/4 190/1/4 191/1/4
f 191/1/4 190/1/4 192/1/4
f 193/1/4 194/1/4 195/1/4
f 195/1/4 194/1/4 196/1/4
f 197/3/4 198/3/4 199/3/4
f 199/3/4 198/3/4 200/3/4
f 201/3/4 202/3/4 203/3/4
f 203/3/4 202/3/4 204/3/4
f 205/3/4 206/3/4 207/3/4
f 207/3/4 206/3/4 208/3/4
f 209/3/4 210/3/4 211/3/4
f 211/3/4 210/3/4 212/3/4
f 215/1/5 214/1/5 213/1/5
f 216/1/5 214/1/5 215/1/5
f 219/1/5 218/1/5 217/1/5
f 220/1/5 218/1/5 219/1/5
f 223/1/5 222/1/5 221/1/5
f 224/1/5 222/1/5 223/1/5
f 225/1/5 222/1/5 224/1/5
f 226/1/5 222/1/5 225/1/5
f 227/1/5 222/1/5 226/1/5
f 228/1/5 222/1/5 227/1/5
f 229/1/5 222/1/5 228/1/5
f 230/1/5 222/1/5 229/1/5
f 231/1/5 222/1/5 230/1/5
f 232/1/5 222/1/5 231/1/5
f 233/3/5 225/3/5 224/3/5
f 234/3/5 225/3/5 233/3/5
f 235/3/5 227/3/5 226/3/5
f 236/3/5 227/3/5 235/3/5
f 237/3/5 229/3/5 228/3/5
f 238/3/5 229/3/5 237/3/5
f 239/3/5 231/3/5 230/3/5
f 240/3/5 231/3/5 239/3/5
f 245/2/5 242/2/5 241/2/5
f 246/1/5 243/1/5 242/1/5
f 246/2/5 242/2/5 245/2/5
f 247/2/5 244/2/5 243/2/5
f 247/1/5 243/1/5 246/1/5
f 248/2/5 244/2/5 247/2/5
f 249/1/5 246/1/5 245/1/5
f 249/1/5 247/1/5 246/1/5
f 249/1/5 248/1/5 247/1/5
f 250/1/5 248/1/5 249/1/5
f 255/2/5 252/2/5 251/2/5
f 256/1/5 253/1/5 252/1/5
f 256/2/5 252/2/5 255/2/5
f 257/2/5 254/2/5 253/2/5
f 257/1/5 253/1/5 256/1/5
f 258/2/5 254/2/5 257/2/5
f 259/1/5 256/1/5 255/1/5
f 259/1/5 257/1/5 256/1/5
f 259/1/5 258/1/5 257/1/5
f 260/1/5 258/1/5 259/1/5
f 263/1/5 262/1/5 261/1/5
f 264/1/5 262/1/5 263/1/5
f 265/1/6 266/1/6 267/1/6
f 267/1/6 266/1/6 268/1/6
f 269/1/6 270/1/6 271/1/6
f 271/1/6 270/1/6 272/1/6
f 271/2/6 272/2/6 273/2/6
f 273/2/6 272/2/6 274/2/6
f 273/1/6 274/1/6 275/1/6
f 275/1/6 274/1/6 276/1/6
f 275/2/6 276/2/6 277/2/6
f 277/2/6 276/2/6 278/2/6
f 277/1/6 278/1/6 279/1/6
f 279/1/6 278/1/6 280/1/6
f 279/2/6 280/2/6 281/2/6
f 281/2/6 280/2/6 282/2/6
f 281/1/6 282/1/6 283/1/6
f 283/1/6 282/1/6 284/1/6
f 283/2/6 284/2/6 285/2/6
f 285/2/6 284/2/6 286/2/6
f 285/1/6 286/1/6 287/1/6
f 287/1/6 286/1/6 288/1/6
f 287/2/6 288/2/6 289/2/6
f 289/2/6 288/2/6 290/2/6
f 289/1/6 290/1/6 291/1/6
f 291/1/6 290/1/6 292/1/6
f 291/2/6 292/2/6 293/2/6
f 293/2/6 292/2/6 294/2/6
f 293/1/6 294/1/6 295/1/6
f 295/1/6 294/1/6 296/1/6
f 295/2/6 296/2/6 297/2/6
f 297/2/6 296/2/6 298/2/6
f 297/1/6 298/1/6 299/1/6
f 299/1/6 298/1/6 300/1/6
f 299/2/6 300/2/6 301/2/6
f 301/2/6 300/2/6 302/2/6
f 301/1/6 302/1/6 303/1/6
f 303/1/6 302/1/6 304/1/6
f 303/2/6 304/2/6 305/2/6
f 305/2/6 304/2/6 306/2/6
f 305/1/6 306/1/6 307/1/6
f 307/1/6 306/1/6 308/1/6
f 307/2/6 308/2/6 309/2/6
f 309/2/6 308/2/6 310/2/6
f 309/1/6 310/1/6 311/1/6
f 311/1/6 310/1/6 312/1/6
f 311/2/6 312/2/6 313/2/6
f 313/2/6 312/2/6 314/2/6
f 313/1/6 314/1/6 315/1/6
f 315/1/6 314/1/6 316/1/6
f 316/1/6 314/1/6 317/1/6
f 317/1/6 314/1/6 318/1/6
f 318/1/6 314/1/6 319/1/6
f 319/1/6 314/1/6 320/1/6
f 320/1/6 314/1/6 321/1/6
f 321/1/6 314/1/6 322/1/6
f 322/1/6 314/1/6 323/1/6
f 323/1/6 314/1/6 324/1/6
f 316/3/6 317/3/6 325/3/6
f 325/3/6 317/3/6 326/3/6
f 318/3/6 319/3/6 327/3/6
f 327/3/6 319/3/6 328/3/6
f 320/3/6 321/3/6 329/3/6
f 329/3/6 321/3/6 330/3/6
f 322/3/6 323/3/6 331/3/6
f 331/3/6 323/3/6 332/3/6
