# MagicaVoxel @ Ephtracy

# material
mtllib Dock01.mtl
usemtl palette

# normals
vn -1 0 0
vn 1 0 0
vn 0 0 1
vn 0 0 -1
vn 0 -1 0
vn 0 1 0

# texcoords
vt 0.876953 0.5
vt 0.880859 0.5
vt 0.884766 0.5

# verts
v -4 0 5
v -4 0 4
v -4 0 -3
v -4 0 -4
v -4 1 7
v -4 1 6
v -4 1 5
v -4 1 4
v -4 1 3
v -4 1 2
v -4 1 1
v -4 1 -0
v -4 1 -1
v -4 1 -2
v -4 1 -3
v -4 1 -4
v -4 1 -5
v -4 1 -6
v -4 1 -7
v -4 2 7
v -4 2 6
v -4 2 5
v -4 2 4
v -4 2 3
v -4 2 2
v -4 2 1
v -4 2 -0
v -4 2 -1
v -4 2 -2
v -4 2 -3
v -4 2 -4
v -4 2 -5
v -4 2 -6
v -4 2 -7
v -4 3 7
v -4 3 6
v 3 0 5
v 3 0 4
v 3 0 -3
v 3 0 -4
v 3 1 5
v 3 1 4
v 3 1 -3
v 3 1 -4
v 3 2 7
v 3 2 6
v 3 3 7
v 3 3 6
v -3 0 5
v -3 0 4
v -3 0 -3
v -3 0 -4
v -3 1 5
v -3 1 4
v -3 1 -3
v -3 1 -4
v -3 2 7
v -3 2 6
v -3 3 7
v -3 3 6
v 4 0 5
v 4 0 4
v 4 0 -3
v 4 0 -4
v 4 1 7
v 4 1 6
v 4 1 5
v 4 1 4
v 4 1 3
v 4 1 2
v 4 1 1
v 4 1 -0
v 4 1 -1
v 4 1 -2
v 4 1 -3
v 4 1 -4
v 4 1 -5
v 4 1 -6
v 4 1 -7
v 4 2 7
v 4 2 6
v 4 2 5
v 4 2 4
v 4 2 3
v 4 2 2
v 4 2 1
v 4 2 -0
v 4 2 -1
v 4 2 -2
v 4 2 -3
v 4 2 -4
v 4 2 -5
v 4 2 -6
v 4 2 -7
v 4 3 7
v 4 3 6
v -4 1 7
v -4 2 7
v -4 3 7
v -3 2 7
v -3 3 7
v 3 2 7
v 3 3 7
v 4 1 7
v 4 2 7
v 4 3 7
v -4 0 5
v -4 1 5
v -3 0 5
v -3 1 5
v 3 0 5
v 3 1 5
v 4 0 5
v 4 1 5
v -4 0 -3
v -4 1 -3
v -3 0 -3
v -3 1 -3
v 3 0 -3
v 3 1 -3
v 4 0 -3
v 4 1 -3
v -4 2 6
v -4 3 6
v -3 2 6
v -3 3 6
v 3 2 6
v 3 3 6
v 4 2 6
v 4 3 6
v -4 0 4
v -4 1 4
v -3 0 4
v -3 1 4
v 3 0 4
v 3 1 4
v 4 0 4
v 4 1 4
v -4 0 -4
v -4 1 -4
v -3 0 -4
v -3 1 -4
v 3 0 -4
v 3 1 -4
v 4 0 -4
v 4 1 -4
v -4 1 -7
v -4 2 -7
v 4 1 -7
v 4 2 -7
v -4 0 5
v -3 0 5
v 3 0 5
v 4 0 5
v -4 0 4
v -3 0 4
v 3 0 4
v 4 0 4
v -4 0 -3
v -3 0 -3
v 3 0 -3
v 4 0 -3
v -4 0 -4
v -3 0 -4
v 3 0 -4
v 4 0 -4
v -4 1 7
v 4 1 7
v -4 1 6
v 4 1 6
v -4 1 5
v -3 1 5
v 3 1 5
v 4 1 5
v -4 1 4
v -3 1 4
v 3 1 4
v 4 1 4
v -4 1 3
v 4 1 3
v -4 1 2
v 4 1 2
v -4 1 1
v 4 1 1
v -4 1 -0
v 4 1 -0
v -4 1 -1
v 4 1 -1
v -4 1 -2
v 4 1 -2
v -4 1 -3
v -3 1 -3
v 3 1 -3
v 4 1 -3
v -4 1 -4
v -3 1 -4
v 3 1 -4
v 4 1 -4
v -4 1 -5
v 4 1 -5
v -4 1 -6
v 4 1 -6
v -4 1 -7
v 4 1 -7
v -3 2 7
v 3 2 7
v -4 2 6
v -3 2 6
v 3 2 6
v 4 2 6
v -4 2 5
v 4 2 5
v -4 2 4
v 4 2 4
v -4 2 3
v 4 2 3
v -4 2 2
v 4 2 2
v -4 2 1
v 4 2 1
v -4 2 -0
v 4 2 -0
v -4 2 -1
v 4 2 -1
v -4 2 -2
v 4 2 -2
v -4 2 -3
v 4 2 -3
v -4 2 -4
v 4 2 -4
v -4 2 -5
v 4 2 -5
v -4 2 -6
v 4 2 -6
v -4 2 -7
v 4 2 -7
v -4 3 7
v -3 3 7
v 3 3 7
v 4 3 7
v -4 3 6
v -3 3 6
v 3 3 6
v 4 3 6

# faces
f 7/1/1 2/1/1 1/1/1
f 8/1/1 2/1/1 7/1/1
f 15/1/1 4/1/1 3/1/1
f 16/1/1 4/1/1 15/1/1
f 20/3/1 6/3/1 5/3/1
f 21/2/1 7/2/1 6/2/1
f 21/3/1 6/3/1 20/3/1
f 22/3/1 8/3/1 7/3/1
f 22/2/1 7/2/1 21/2/1
f 23/2/1 9/2/1 8/2/1
f 23/3/1 8/3/1 22/3/1
f 24/3/1 10/3/1 9/3/1
f 24/2/1 9/2/1 23/2/1
f 25/2/1 11/2/1 10/2/1
f 25/3/1 10/3/1 24/3/1
f 26/3/1 12/3/1 11/3/1
f 26/2/1 11/2/1 25/2/1
f 27/2/1 13/2/1 12/2/1
f 27/3/1 12/3/1 26/3/1
f 28/3/1 14/3/1 13/3/1
f 28/2/1 13/2/1 27/2/1
f 29/2/1 15/2/1 14/2/1
f 29/3/1 14/3/1 28/3/1
f 30/3/1 16/3/1 15/3/1
f 30/2/1 15/2/1 29/2/1
f 31/2/1 17/2/1 16/2/1
f 31/3/1 16/3/1 30/3/1
f 32/3/1 18/3/1 17/3/1
f 32/2/1 17/2/1 31/2/1
f 33/2/1 19/2/1 18/2/1
f 33/3/1 18/3/1 32/3/1
f 34/2/1 19/2/1 33/2/1
f 35/1/1 21/1/1 20/1/1
f 36/1/1 21/1/1 35/1/1
f 41/1/1 38/1/1 37/1/1
f 42/1/1 38/1/1 41/1/1
f 43/1/1 40/1/1 39/1/1
f 44/1/1 40/1/1 43/1/1
f 47/1/1 46/1/1 45/1/1
f 48/1/1 46/1/1 47/1/1
f 49/1/2 50/1/2 53/1/2
f 53/1/2 50/1/2 54/1/2
f 51/1/2 52/1/2 55/1/2
f 55/1/2 52/1/2 56/1/2
f 57/1/2 58/1/2 59/1/2
f 59/1/2 58/1/2 60/1/2
f 61/1/2 62/1/2 67/1/2
f 67/1/2 62/1/2 68/1/2
f 63/1/2 64/1/2 75/1/2
f 75/1/2 64/1/2 76/1/2
f 65/3/2 66/3/2 80/3/2
f 66/2/2 67/2/2 81/2/2
f 80/3/2 66/3/2 81/3/2
f 67/3/2 68/3/2 82/3/2
f 81/2/2 67/2/2 82/2/2
f 68/2/2 69/2/2 83/2/2
f 82/3/2 68/3/2 83/3/2
f 69/3/2 70/3/2 84/3/2
f 83/2/2 69/2/2 84/2/2
f 70/2/2 71/2/2 85/2/2
f 84/3/2 70/3/2 85/3/2
f 71/3/2 72/3/2 86/3/2
f 85/2/2 71/2/2 86/2/2
f 72/2/2 73/2/2 87/2/2
f 86/3/2 72/3/2 87/3/2
f 73/3/2 74/3/2 88/3/2
f 87/2/2 73/2/2 88/2/2
f 74/2/2 75/2/2 89/2/2
f 88/3/2 74/3/2 89/3/2
f 75/3/2 76/3/2 90/3/2
f 89/2/2 75/2/2 90/2/2
f 76/2/2 77/2/2 91/2/2
f 90/3/2 76/3/2 91/3/2
f 77/3/2 78/3/2 92/3/2
f 91/2/2 77/2/2 92/2/2
f 78/2/2 79/2/2 93/2/2
f 92/3/2 78/3/2 93/3/2
f 93/2/2 79/2/2 94/2/2
f 80/1/2 81/1/2 95/1/2
f 95/1/2 81/1/2 96/1/2
f 100/3/3 98/3/3 97/3/3
f 100/1/3 99/1/3 98/1/3
f 101/1/3 99/1/3 100/1/3
f 102/3/3 100/3/3 97/3/3
f 104/3/3 102/3/3 97/3/3
f 105/1/3 103/1/3 102/1/3
f 105/3/3 102/3/3 104/3/3
f 106/1/3 103/1/3 105/1/3
f 109/1/3 108/1/3 107/1/3
f 110/1/3 108/1/3 109/1/3
f 113/1/3 112/1/3 111/1/3
f 114/1/3 112/1/3 113/1/3
f 117/1/3 116/1/3 115/1/3
f 118/1/3 116/1/3 117/1/3
f 121/1/3 120/1/3 119/1/3
f 122/1/3 120/1/3 121/1/3
f 123/1/4 124/1/4 125/1/4
f 125/1/4 124/1/4 126/1/4
f 127/1/4 128/1/4 129/1/4
f 129/1/4 128/1/4 130/1/4
f 131/1/4 132/1/4 133/1/4
f 133/1/4 132/1/4 134/1/4
f 135/1/4 136/1/4 137/1/4
f 137/1/4 136/1/4 138/1/4
f 139/1/4 140/1/4 141/1/4
f 141/1/4 140/1/4 142/1/4
f 143/1/4 144/1/4 145/1/4
f 145/1/4 144/1/4 146/1/4
f 147/2/4 148/2/4 149/2/4
f 149/2/4 148/2/4 150/2/4
f 155/1/5 152/1/5 151/1/5
f 156/1/5 152/1/5 155/1/5
f 157/1/5 154/1/5 153/1/5
f 158/1/5 154/1/5 157/1/5
f 163/1/5 160/1/5 159/1/5
f 164/1/5 160/1/5 163/1/5
f 165/1/5 162/1/5 161/1/5
f 166/1/5 162/1/5 165/1/5
f 169/3/5 168/3/5 167/3/5
f 170/3/5 168/3/5 169/3/5
f 171/2/5 170/2/5 169/2/5
f 172/2/5 170/2/5 171/2/5
f 173/2/5 170/2/5 172/2/5
f 174/2/5 170/2/5 173/2/5
f 176/3/5 173/3/5 172/3/5
f 177/3/5 173/3/5 176/3/5
f 179/2/5 176/2/5 175/2/5
f 179/2/5 178/2/5 177/2/5
f 179/2/5 177/2/5 176/2/5
f 180/2/5 178/2/5 179/2/5
f 181/3/5 180/3/5 179/3/5
f 182/3/5 180/3/5 181/3/5
f 183/2/5 182/2/5 181/2/5
f 184/2/5 182/2/5 183/2/5
f 185/3/5 184/3/5 183/3/5
f 186/3/5 184/3/5 185/3/5
f 187/2/5 186/2/5 185/2/5
f 188/2/5 186/2/5 187/2/5
f 189/3/5 188/3/5 187/3/5
f 190/3/5 188/3/5 189/3/5
f 191/2/5 190/2/5 189/2/5
f 192/2/5 190/2/5 191/2/5
f 193/2/5 190/2/5 192/2/5
f 194/2/5 190/2/5 193/2/5
f 196/3/5 193/3/5 192/3/5
f 197/3/5 193/3/5 196/3/5
f 199/2/5 196/2/5 195/2/5
f 199/2/5 198/2/5 197/2/5
f 199/2/5 197/2/5 196/2/5
f 200/2/5 198/2/5 199/2/5
f 201/3/5 200/3/5 199/3/5
f 202/3/5 200/3/5 201/3/5
f 203/2/5 202/2/5 201/2/5
f 204/2/5 202/2/5 203/2/5
f 205/3/6 206/3/6 208/3/6
f 208/3/6 206/3/6 209/3/6
f 207/2/6 208/2/6 211/2/6
f 209/2/6 210/2/6 211/2/6
f 208/2/6 209/2/6 211/2/6
f 211/2/6 210/2/6 212/2/6
f 211/3/6 212/3/6 213/3/6
f 213/3/6 212/3/6 214/3/6
f 213/2/6 214/2/6 215/2/6
f 215/2/6 214/2/6 216/2/6
f 215/3/6 216/3/6 217/3/6
f 217/3/6 216/3/6 218/3/6
f 217/2/6 218/2/6 219/2/6
f 219/2/6 218/2/6 220/2/6
f 219/3/6 220/3/6 221/3/6
f 221/3/6 220/3/6 222/3/6
f 221/2/6 222/2/6 223/2/6
f 223/2/6 222/2/6 224/2/6
f 223/3/6 224/3/6 225/3/6
f 225/3/6 224/3/6 226/3/6
f 225/2/6 226/2/6 227/2/6
f 227/2/6 226/2/6 228/2/6
f 227/3/6 228/3/6 229/3/6
f 229/3/6 228/3/6 230/3/6
f 229/2/6 230/2/6 231/2/6
f 231/2/6 230/2/6 232/2/6
f 231/3/6 232/3/6 233/3/6
f 233/3/6 232/3/6 234/3/6
f 233/2/6 234/2/6 235/2/6
f 235/2/6 234/2/6 236/2/6
f 237/1/6 238/1/6 241/1/6
f 241/1/6 238/1/6 242/1/6
f 239/1/6 240/1/6 243/1/6
f 243/1/6 240/1/6 244/1/6
