# MagicaVoxel @ Ephtracy

# material
mtllib DogHouse01.mtl
usemtl palette

# normals
vn -1 0 0
vn 1 0 0
vn 0 0 1
vn 0 0 -1
vn 0 -1 0
vn 0 1 0

# texcoords
vt 0.943359 0.5
vt 0.970703 0.5
vt 0.974609 0.5
vt 0.990234 0.5

# verts
v -5 7 7
v -5 7 -7
v -5 8 7
v -5 8 -7
v -4 0 6
v -4 0 -6
v -4 3 5
v -4 3 -5
v -4 6 5
v -4 6 -5
v -4 7 6
v -4 7 -6
v -4 8 7
v -4 8 6
v -4 8 -6
v -4 8 -7
v -4 9 7
v -4 9 6
v -4 9 -6
v -4 9 -7
v -3 3 5
v -3 3 -5
v -3 6 5
v -3 6 -5
v -3 9 7
v -3 9 6
v -3 9 -6
v -3 9 -7
v -3 10 7
v -3 10 6
v -3 10 -6
v -3 10 -7
v -2 10 7
v -2 10 6
v -2 10 -6
v -2 10 -7
v -2 11 7
v -2 11 6
v -2 11 -6
v -2 11 -7
v -1 11 7
v -1 11 6
v -1 11 -6
v -1 11 -7
v -1 12 7
v -1 12 -7
v 1 8 6
v 1 8 5
v 1 9 6
v 1 9 5
v 1 10 7
v 1 10 6
v 1 10 -6
v 1 10 -7
v 1 11 7
v 1 11 6
v 1 11 -6
v 1 11 -7
v 2 0 6
v 2 0 5
v 2 5 -5
v 2 5 -6
v 2 8 6
v 2 8 5
v 2 8 -5
v 2 8 -6
v 2 9 7
v 2 9 6
v 2 9 -6
v 2 9 -7
v 2 10 7
v 2 10 6
v 2 10 -6
v 2 10 -7
v 3 8 7
v 3 8 6
v 3 8 -6
v 3 8 -7
v 3 9 7
v 3 9 6
v 3 9 -6
v 3 9 -7
v 4 7 7
v 4 7 6
v 4 7 -6
v 4 7 -7
v 4 8 7
v 4 8 6
v 4 8 -6
v 4 8 -7
v -4 7 7
v -4 7 6
v -4 7 -6
v -4 7 -7
v -4 8 7
v -4 8 6
v -4 8 -6
v -4 8 -7
v -3 8 7
v -3 8 6
v -3 8 -6
v -3 8 -7
v -3 9 7
v -3 9 6
v -3 9 -6
v -3 9 -7
v -2 0 6
v -2 0 5
v -2 5 -5
v -2 5 -6
v -2 8 6
v -2 8 5
v -2 8 -5
v -2 8 -6
v -2 9 7
v -2 9 6
v -2 9 -6
v -2 9 -7
v -2 10 7
v -2 10 6
v -2 10 -6
v -2 10 -7
v -1 8 6
v -1 8 5
v -1 9 6
v -1 9 5
v -1 10 7
v -1 10 6
v -1 10 -6
v -1 10 -7
v -1 11 7
v -1 11 6
v -1 11 -6
v -1 11 -7
v 1 11 7
v 1 11 6
v 1 11 -6
v 1 11 -7
v 1 12 7
v 1 12 -7
v 2 10 7
v 2 10 6
v 2 10 -6
v 2 10 -7
v 2 11 7
v 2 11 6
v 2 11 -6
v 2 11 -7
v 3 3 5
v 3 3 -5
v 3 6 5
v 3 6 -5
v 3 9 7
v 3 9 6
v 3 9 -6
v 3 9 -7
v 3 10 7
v 3 10 6
v 3 10 -6
v 3 10 -7
v 4 0 6
v 4 0 -6
v 4 3 5
v 4 3 -5
v 4 6 5
v 4 6 -5
v 4 7 6
v 4 7 -6
v 4 8 7
v 4 8 6
v 4 8 -6
v 4 8 -7
v 4 9 7
v 4 9 6
v 4 9 -6
v 4 9 -7
v 5 7 7
v 5 7 -7
v 5 8 7
v 5 8 -7
v -5 7 7
v -5 8 7
v -4 7 7
v -4 8 7
v -4 9 7
v -3 8 7
v -3 9 7
v -3 10 7
v -2 9 7
v -2 10 7
v -2 11 7
v -1 10 7
v -1 11 7
v -1 12 7
v 1 10 7
v 1 11 7
v 1 12 7
v 2 9 7
v 2 10 7
v 2 11 7
v 3 8 7
v 3 9 7
v 3 10 7
v 4 7 7
v 4 8 7
v 4 9 7
v 5 7 7
v 5 8 7
v -4 0 6
v -4 7 6
v -4 8 6
v -3 8 6
v -3 9 6
v -2 0 6
v -2 8 6
v -2 9 6
v -2 10 6
v -1 8 6
v -1 9 6
v -1 10 6
v -1 11 6
v 1 8 6
v 1 9 6
v 1 10 6
v 1 11 6
v 2 0 6
v 2 8 6
v 2 9 6
v 2 10 6
v 3 8 6
v 3 9 6
v 4 0 6
v 4 7 6
v 4 8 6
v -2 0 5
v -2 8 5
v -1 8 5
v -1 9 5
v 1 8 5
v 1 9 5
v 2 0 5
v 2 8 5
v -4 3 -5
v -4 6 -5
v -3 3 -5
v -3 6 -5
v 3 3 -5
v 3 6 -5
v 4 3 -5
v 4 6 -5
v -4 3 5
v -4 6 5
v -3 3 5
v -3 6 5
v 3 3 5
v 3 6 5
v 4 3 5
v 4 6 5
v -2 5 -5
v -2 8 -5
v 2 5 -5
v 2 8 -5
v -4 0 -6
v -4 7 -6
v -4 8 -6
v -3 8 -6
v -3 9 -6
v -2 5 -6
v -2 8 -6
v -2 9 -6
v -2 10 -6
v -1 10 -6
v -1 11 -6
v 1 10 -6
v 1 11 -6
v 2 5 -6
v 2 8 -6
v 2 9 -6
v 2 10 -6
v 3 8 -6
v 3 9 -6
v 4 0 -6
v 4 7 -6
v 4 8 -6
v -5 7 -7
v -5 8 -7
v -4 7 -7
v -4 8 -7
v -4 9 -7
v -3 8 -7
v -3 9 -7
v -3 10 -7
v -2 9 -7
v -2 10 -7
v -2 11 -7
v -1 10 -7
v -1 11 -7
v -1 12 -7
v 1 10 -7
v 1 11 -7
v 1 12 -7
v 2 9 -7
v 2 10 -7
v 2 11 -7
v 3 8 -7
v 3 9 -7
v 3 10 -7
v 4 7 -7
v 4 8 -7
v 4 9 -7
v 5 7 -7
v 5 8 -7
v -4 0 6
v -2 0 6
v 2 0 6
v 4 0 6
v -2 0 5
v 2 0 5
v -2 0 4
v 2 0 4
v -4 0 -6
v 4 0 -6
v -4 6 5
v -3 6 5
v 3 6 5
v 4 6 5
v -4 6 -5
v -3 6 -5
v 3 6 -5
v 4 6 -5
v -5 7 7
v -4 7 7
v 4 7 7
v 5 7 7
v -4 7 6
v 4 7 6
v -4 7 -6
v 4 7 -6
v -5 7 -7
v -4 7 -7
v 4 7 -7
v 5 7 -7
v -4 8 7
v -3 8 7
v 3 8 7
v 4 8 7
v -4 8 6
v -3 8 6
v -2 8 6
v -1 8 6
v 1 8 6
v 2 8 6
v 3 8 6
v 4 8 6
v -2 8 5
v -1 8 5
v 1 8 5
v 2 8 5
v -2 8 -5
v 2 8 -5
v -4 8 -6
v -3 8 -6
v -2 8 -6
v 2 8 -6
v 3 8 -6
v 4 8 -6
v -4 8 -7
v -3 8 -7
v 3 8 -7
v 4 8 -7
v -3 9 7
v -2 9 7
v 2 9 7
v 3 9 7
v -3 9 6
v -2 9 6
v -1 9 6
v 1 9 6
v 2 9 6
v 3 9 6
v -1 9 5
v 1 9 5
v -3 9 -6
v -2 9 -6
v 2 9 -6
v 3 9 -6
v -3 9 -7
v -2 9 -7
v 2 9 -7
v 3 9 -7
v -2 10 7
v -1 10 7
v 1 10 7
v 2 10 7
v -2 10 6
v -1 10 6
v 1 10 6
v 2 10 6
v -2 10 -6
v -1 10 -6
v 1 10 -6
v 2 10 -6
v -2 10 -7
v -1 10 -7
v 1 10 -7
v 2 10 -7
v -1 11 7
v 1 11 7
v -1 11 6
v 1 11 6
v -1 11 -6
v 1 11 -6
v -1 11 -7
v 1 11 -7
v -4 3 5
v -3 3 5
v 3 3 5
v 4 3 5
v -4 3 -5
v -3 3 -5
v 3 3 -5
v 4 3 -5
v -2 5 -5
v 2 5 -5
v -2 5 -6
v 2 5 -6
v -5 8 7
v -4 8 7
v 4 8 7
v 5 8 7
v -4 8 6
v 4 8 6
v -4 8 -6
v 4 8 -6
v -5 8 -7
v -4 8 -7
v 4 8 -7
v 5 8 -7
v -4 9 7
v -3 9 7
v 3 9 7
v 4 9 7
v -4 9 6
v -3 9 6
v 3 9 6
v 4 9 6
v -4 9 -6
v -3 9 -6
v 3 9 -6
v 4 9 -6
v -4 9 -7
v -3 9 -7
v 3 9 -7
v 4 9 -7
v -3 10 7
v -2 10 7
v 2 10 7
v 3 10 7
v -3 10 6
v -2 10 6
v 2 10 6
v 3 10 6
v -3 10 -6
v -2 10 -6
v 2 10 -6
v 3 10 -6
v -3 10 -7
v -2 10 -7
v 2 10 -7
v 3 10 -7
v -2 11 7
v -1 11 7
v 1 11 7
v 2 11 7
v -2 11 6
v -1 11 6
v 1 11 6
v 2 11 6
v -2 11 -6
v -1 11 -6
v 1 11 -6
v 2 11 -6
v -2 11 -7
v -1 11 -7
v 1 11 -7
v 2 11 -7
v -1 12 7
v 1 12 7
v -1 12 -7
v 1 12 -7

# faces
f 3/4/1 2/4/1 1/4/1
f 4/4/1 2/4/1 3/4/1
f 7/3/1 6/3/1 5/3/1
f 8/3/1 6/3/1 7/3/1
f 9/3/1 7/3/1 5/3/1
f 10/3/1 6/3/1 8/3/1
f 11/3/1 9/3/1 5/3/1
f 11/3/1 10/3/1 9/3/1
f 12/3/1 6/3/1 10/3/1
f 12/3/1 10/3/1 11/3/1
f 17/4/1 14/4/1 13/4/1
f 18/1/1 15/1/1 14/1/1
f 18/4/1 14/4/1 17/4/1
f 19/4/1 16/4/1 15/4/1
f 19/1/1 15/1/1 18/1/1
f 20/4/1 16/4/1 19/4/1
f 23/2/1 22/2/1 21/2/1
f 24/2/1 22/2/1 23/2/1
f 29/4/1 26/4/1 25/4/1
f 30/1/1 27/1/1 26/1/1
f 30/4/1 26/4/1 29/4/1
f 31/4/1 28/4/1 27/4/1
f 31/1/1 27/1/1 30/1/1
f 32/4/1 28/4/1 31/4/1
f 37/4/1 34/4/1 33/4/1
f 38/1/1 35/1/1 34/1/1
f 38/4/1 34/4/1 37/4/1
f 39/4/1 36/4/1 35/4/1
f 39/1/1 35/1/1 38/1/1
f 40/4/1 36/4/1 39/4/1
f 45/4/1 42/4/1 41/4/1
f 45/4/1 44/4/1 43/4/1
f 45/4/1 43/4/1 42/4/1
f 46/4/1 44/4/1 45/4/1
f 49/3/1 48/3/1 47/3/1
f 50/3/1 48/3/1 49/3/1
f 55/4/1 52/4/1 51/4/1
f 56/4/1 52/4/1 55/4/1
f 57/4/1 54/4/1 53/4/1
f 58/4/1 54/4/1 57/4/1
f 63/3/1 60/3/1 59/3/1
f 64/3/1 60/3/1 63/3/1
f 65/3/1 62/3/1 61/3/1
f 66/3/1 62/3/1 65/3/1
f 71/4/1 68/4/1 67/4/1
f 72/4/1 68/4/1 71/4/1
f 73/4/1 70/4/1 69/4/1
f 74/4/1 70/4/1 73/4/1
f 79/4/1 76/4/1 75/4/1
f 80/4/1 76/4/1 79/4/1
f 81/4/1 78/4/1 77/4/1
f 82/4/1 78/4/1 81/4/1
f 87/4/1 84/4/1 83/4/1
f 88/4/1 84/4/1 87/4/1
f 89/4/1 86/4/1 85/4/1
f 90/4/1 86/4/1 89/4/1
f 91/4/2 92/4/2 95/4/2
f 95/4/2 92/4/2 96/4/2
f 93/4/2 94/4/2 97/4/2
f 97/4/2 94/4/2 98/4/2
f 99/4/2 100/4/2 103/4/2
f 103/4/2 100/4/2 104/4/2
f 101/4/2 102/4/2 105/4/2
f 105/4/2 102/4/2 106/4/2
f 107/3/2 108/3/2 111/3/2
f 111/3/2 108/3/2 112/3/2
f 109/3/2 110/3/2 113/3/2
f 113/3/2 110/3/2 114/3/2
f 115/4/2 116/4/2 119/4/2
f 119/4/2 116/4/2 120/4/2
f 117/4/2 118/4/2 121/4/2
f 121/4/2 118/4/2 122/4/2
f 123/3/2 124/3/2 125/3/2
f 125/3/2 124/3/2 126/3/2
f 127/4/2 128/4/2 131/4/2
f 131/4/2 128/4/2 132/4/2
f 129/4/2 130/4/2 133/4/2
f 133/4/2 130/4/2 134/4/2
f 135/4/2 136/4/2 139/4/2
f 137/4/2 138/4/2 139/4/2
f 136/4/2 137/4/2 139/4/2
f 139/4/2 138/4/2 140/4/2
f 141/4/2 142/4/2 145/4/2
f 142/1/2 143/1/2 146/1/2
f 145/4/2 142/4/2 146/4/2
f 143/4/2 144/4/2 147/4/2
f 146/1/2 143/1/2 147/1/2
f 147/4/2 144/4/2 148/4/2
f 149/2/2 150/2/2 151/2/2
f 151/2/2 150/2/2 152/2/2
f 153/4/2 154/4/2 157/4/2
f 154/1/2 155/1/2 158/1/2
f 157/4/2 154/4/2 158/4/2
f 155/4/2 156/4/2 159/4/2
f 158/1/2 155/1/2 159/1/2
f 159/4/2 156/4/2 160/4/2
f 161/3/2 162/3/2 163/3/2
f 163/3/2 162/3/2 164/3/2
f 161/3/2 163/3/2 165/3/2
f 164/3/2 162/3/2 166/3/2
f 161/3/2 165/3/2 167/3/2
f 165/3/2 166/3/2 167/3/2
f 166/3/2 162/3/2 168/3/2
f 167/3/2 166/3/2 168/3/2
f 169/4/2 170/4/2 173/4/2
f 170/1/2 171/1/2 174/1/2
f 173/4/2 170/4/2 174/4/2
f 171/4/2 172/4/2 175/4/2
f 174/1/2 171/1/2 175/1/2
f 175/4/2 172/4/2 176/4/2
f 177/4/2 178/4/2 179/4/2
f 179/4/2 178/4/2 180/4/2
f 183/4/3 182/4/3 181/4/3
f 184/4/3 182/4/3 183/4/3
f 186/4/3 185/4/3 184/4/3
f 187/4/3 185/4/3 186/4/3
f 189/4/3 188/4/3 187/4/3
f 190/4/3 188/4/3 189/4/3
f 192/4/3 191/4/3 190/4/3
f 193/4/3 191/4/3 192/4/3
f 196/4/3 194/4/3 193/4/3
f 197/4/3 194/4/3 196/4/3
f 199/4/3 196/4/3 195/4/3
f 200/4/3 196/4/3 199/4/3
f 202/4/3 199/4/3 198/4/3
f 203/4/3 199/4/3 202/4/3
f 205/4/3 202/4/3 201/4/3
f 206/4/3 202/4/3 205/4/3
f 207/4/3 205/4/3 204/4/3
f 208/4/3 205/4/3 207/4/3
f 212/3/3 210/3/3 209/3/3
f 212/3/3 211/3/3 210/3/3
f 214/3/3 212/3/3 209/3/3
f 214/3/3 213/3/3 212/3/3
f 215/3/3 213/3/3 214/3/3
f 216/3/3 213/3/3 215/3/3
f 218/3/3 217/3/3 216/3/3
f 218/3/3 216/3/3 215/3/3
f 219/3/3 217/3/3 218/3/3
f 220/3/3 217/3/3 219/3/3
f 223/3/3 221/3/3 220/3/3
f 223/3/3 220/3/3 219/3/3
f 224/3/3 221/3/3 223/3/3
f 225/3/3 221/3/3 224/3/3
f 227/3/3 223/3/3 222/3/3
f 227/3/3 224/3/3 223/3/3
f 228/3/3 224/3/3 227/3/3
f 229/3/3 224/3/3 228/3/3
f 230/3/3 227/3/3 226/3/3
f 230/3/3 228/3/3 227/3/3
f 231/3/3 228/3/3 230/3/3
f 232/3/3 230/3/3 226/3/3
f 233/3/3 230/3/3 232/3/3
f 234/3/3 230/3/3 233/3/3
f 237/4/3 236/4/3 235/4/3
f 239/4/3 237/4/3 235/4/3
f 239/4/3 238/4/3 237/4/3
f 240/4/3 238/4/3 239/4/3
f 241/4/3 239/4/3 235/4/3
f 242/4/3 239/4/3 241/4/3
f 245/3/3 244/3/3 243/3/3
f 246/3/3 244/3/3 245/3/3
f 249/3/3 248/3/3 247/3/3
f 250/3/3 248/3/3 249/3/3
f 251/3/4 252/3/4 253/3/4
f 253/3/4 252/3/4 254/3/4
f 255/3/4 256/3/4 257/3/4
f 257/3/4 256/3/4 258/3/4
f 259/4/4 260/4/4 261/4/4
f 261/4/4 260/4/4 262/4/4
f 263/3/4 264/3/4 266/3/4
f 264/3/4 265/3/4 266/3/4
f 263/3/4 266/3/4 268/3/4
f 266/3/4 267/3/4 268/3/4
f 268/3/4 267/3/4 269/3/4
f 269/3/4 267/3/4 270/3/4
f 270/3/4 271/3/4 272/3/4
f 269/3/4 270/3/4 272/3/4
f 269/3/4 272/3/4 274/3/4
f 272/3/4 273/3/4 274/3/4
f 274/3/4 273/3/4 275/3/4
f 263/3/4 268/3/4 276/3/4
f 269/3/4 274/3/4 277/3/4
f 277/3/4 274/3/4 278/3/4
f 278/3/4 274/3/4 279/3/4
f 276/3/4 277/3/4 280/3/4
f 277/3/4 278/3/4 280/3/4
f 280/3/4 278/3/4 281/3/4
f 263/3/4 276/3/4 282/3/4
f 276/3/4 280/3/4 282/3/4
f 282/3/4 280/3/4 283/3/4
f 283/3/4 280/3/4 284/3/4
f 285/4/4 286/4/4 287/4/4
f 287/4/4 286/4/4 288/4/4
f 288/4/4 289/4/4 290/4/4
f 290/4/4 289/4/4 291/4/4
f 291/4/4 292/4/4 293/4/4
f 293/4/4 292/4/4 294/4/4
f 294/4/4 295/4/4 296/4/4
f 296/4/4 295/4/4 297/4/4
f 297/4/4 298/4/4 300/4/4
f 300/4/4 298/4/4 301/4/4
f 299/4/4 300/4/4 303/4/4
f 303/4/4 300/4/4 304/4/4
f 302/4/4 303/4/4 306/4/4
f 306/4/4 303/4/4 307/4/4
f 305/4/4 306/4/4 309/4/4
f 309/4/4 306/4/4 310/4/4
f 308/4/4 309/4/4 311/4/4
f 311/4/4 309/4/4 312/4/4
f 317/3/5 314/3/5 313/3/5
f 318/3/5 316/3/5 315/3/5
f 319/3/5 317/3/5 313/3/5
f 319/4/5 318/4/5 317/4/5
f 320/3/5 316/3/5 318/3/5
f 320/4/5 318/4/5 319/4/5
f 321/3/5 319/3/5 313/3/5
f 321/3/5 320/3/5 319/3/5
f 322/3/5 316/3/5 320/3/5
f 322/3/5 320/3/5 321/3/5
f 327/3/5 324/3/5 323/3/5
f 328/3/5 324/3/5 327/3/5
f 329/3/5 326/3/5 325/3/5
f 330/3/5 326/3/5 329/3/5
f 335/4/5 332/4/5 331/4/5
f 336/4/5 334/4/5 333/4/5
f 337/4/5 335/4/5 331/4/5
f 338/4/5 334/4/5 336/4/5
f 339/4/5 337/4/5 331/4/5
f 340/4/5 337/4/5 339/4/5
f 341/4/5 334/4/5 338/4/5
f 342/4/5 334/4/5 341/4/5
f 347/4/5 344/4/5 343/4/5
f 348/4/5 344/4/5 347/4/5
f 353/4/5 346/4/5 345/4/5
f 354/4/5 346/4/5 353/4/5
f 355/3/5 350/3/5 349/3/5
f 356/3/5 350/3/5 355/3/5
f 357/3/5 352/3/5 351/3/5
f 358/3/5 352/3/5 357/3/5
f 363/3/5 360/3/5 359/3/5
f 364/3/5 360/3/5 363/3/5
f 367/4/5 362/4/5 361/4/5
f 368/4/5 362/4/5 367/4/5
f 369/4/5 366/4/5 365/4/5
f 370/4/5 366/4/5 369/4/5
f 375/4/5 372/4/5 371/4/5
f 376/4/5 372/4/5 375/4/5
f 379/4/5 374/4/5 373/4/5
f 380/4/5 374/4/5 379/4/5
f 381/3/5 378/3/5 377/3/5
f 382/3/5 378/3/5 381/3/5
f 387/4/5 384/4/5 383/4/5
f 388/4/5 384/4/5 387/4/5
f 389/4/5 386/4/5 385/4/5
f 390/4/5 386/4/5 389/4/5
f 395/4/5 392/4/5 391/4/5
f 396/4/5 392/4/5 395/4/5
f 397/4/5 394/4/5 393/4/5
f 398/4/5 394/4/5 397/4/5
f 403/4/5 400/4/5 399/4/5
f 404/4/5 400/4/5 403/4/5
f 405/4/5 402/4/5 401/4/5
f 406/4/5 402/4/5 405/4/5
f 409/4/5 408/4/5 407/4/5
f 410/4/5 408/4/5 409/4/5
f 413/4/5 412/4/5 411/4/5
f 414/4/5 412/4/5 413/4/5
f 415/3/6 416/3/6 419/3/6
f 419/3/6 416/3/6 420/3/6
f 417/3/6 418/3/6 421/3/6
f 421/3/6 418/3/6 422/3/6
f 423/3/6 424/3/6 425/3/6
f 425/3/6 424/3/6 426/3/6
f 427/4/6 428/4/6 431/4/6
f 429/4/6 430/4/6 432/4/6
f 427/4/6 431/4/6 433/4/6
f 432/4/6 430/4/6 434/4/6
f 427/4/6 433/4/6 435/4/6
f 435/4/6 433/4/6 436/4/6
f 434/4/6 430/4/6 437/4/6
f 437/4/6 430/4/6 438/4/6
f 439/4/6 440/4/6 443/4/6
f 443/4/6 440/4/6 444/4/6
f 441/4/6 442/4/6 445/4/6
f 445/4/6 442/4/6 446/4/6
f 443/1/6 444/1/6 447/1/6
f 447/1/6 444/1/6 448/1/6
f 445/1/6 446/1/6 449/1/6
f 449/1/6 446/1/6 450/1/6
f 447/4/6 448/4/6 451/4/6
f 451/4/6 448/4/6 452/4/6
f 449/4/6 450/4/6 453/4/6
f 453/4/6 450/4/6 454/4/6
f 455/4/6 456/4/6 459/4/6
f 459/4/6 456/4/6 460/4/6
f 457/4/6 458/4/6 461/4/6
f 461/4/6 458/4/6 462/4/6
f 459/1/6 460/1/6 463/1/6
f 463/1/6 460/1/6 464/1/6
f 461/1/6 462/1/6 465/1/6
f 465/1/6 462/1/6 466/1/6
f 463/4/6 464/4/6 467/4/6
f 467/4/6 464/4/6 468/4/6
f 465/4/6 466/4/6 469/4/6
f 469/4/6 466/4/6 470/4/6
f 471/4/6 472/4/6 475/4/6
f 475/4/6 472/4/6 476/4/6
f 473/4/6 474/4/6 477/4/6
f 477/4/6 474/4/6 478/4/6
f 475/1/6 476/1/6 479/1/6
f 479/1/6 476/1/6 480/1/6
f 477/1/6 478/1/6 481/1/6
f 481/1/6 478/1/6 482/1/6
f 479/4/6 480/4/6 483/4/6
f 483/4/6 480/4/6 484/4/6
f 481/4/6 482/4/6 485/4/6
f 485/4/6 482/4/6 486/4/6
f 487/4/6 488/4/6 489/4/6
f 489/4/6 488/4/6 490/4/6
