# MagicaVoxel @ Ephtracy

# material
mtllib EolicTurbine01.mtl
usemtl palette

# normals
vn -1 0 0
vn 1 0 0
vn 0 0 1
vn 0 0 -1
vn 0 -1 0
vn 0 1 0

# texcoords
vt 0.970703 0.5
vt 0.986328 0.5
vt 0.990234 0.5

# verts
v -1 0 1
v -1 0 -0
v -1 12 1
v -1 12 -0
v 0 0 -0
v 0 0 -1
v 0 1 -0
v 0 1 -1
v 0 3 -0
v 0 3 -1
v 0 3 1
v 0 3 -0
v 0 12 1
v 0 12 -0
v 1 0 1
v 1 0 -1
v 1 1 -0
v 1 1 -1
v 1 3 1
v 1 3 -0
v 1 3 -1
v -1 0 1
v -1 12 1
v 0 0 1
v 0 3 1
v 0 12 1
v 1 0 1
v 1 3 1
v -1 0 -0
v -1 12 -0
v 0 0 -0
v 0 1 -0
v 0 3 -0
v 0 12 -0
v 0 0 -1
v 0 1 -1
v 0 3 -1
v 1 0 -1
v 1 1 -1
v 1 3 -1
v -1 0 1
v 0 0 1
v 1 0 1
v -1 0 -0
v 0 0 -0
v 0 0 -1
v 1 0 -1
v 0 3 1
v 1 3 1
v 0 3 -0
v 1 3 -0
v 0 3 -1
v 1 3 -1
v -1 12 1
v 0 12 1
v -1 12 -0
v 0 12 -0

# faces
f 3/3/1 2/3/1 1/3/1
f 4/3/1 2/3/1 3/3/1
f 7/1/1 6/1/1 5/1/1
f 8/1/1 6/1/1 7/1/1
f 9/2/1 8/2/1 7/2/1
f 10/2/1 8/2/1 9/2/1
f 11/3/2 12/3/2 13/3/2
f 13/3/2 12/3/2 14/3/2
f 15/1/2 16/1/2 17/1/2
f 17/1/2 16/1/2 18/1/2
f 15/1/2 17/1/2 19/1/2
f 17/2/2 18/2/2 20/2/2
f 19/1/2 17/1/2 20/1/2
f 20/2/2 18/2/2 21/2/2
f 24/3/3 23/3/3 22/3/3
f 25/3/3 23/3/3 24/3/3
f 26/3/3 23/3/3 25/3/3
f 27/1/3 25/1/3 24/1/3
f 28/1/3 25/1/3 27/1/3
f 29/3/4 30/3/4 31/3/4
f 31/3/4 30/3/4 32/3/4
f 32/3/4 30/3/4 33/3/4
f 33/3/4 30/3/4 34/3/4
f 35/1/4 36/1/4 38/1/4
f 36/2/4 37/2/4 39/2/4
f 38/1/4 36/1/4 39/1/4
f 39/2/4 37/2/4 40/2/4
f 44/3/5 42/3/5 41/3/5
f 45/1/5 43/1/5 42/1/5
f 45/3/5 42/3/5 44/3/5
f 46/1/5 43/1/5 45/1/5
f 47/1/5 43/1/5 46/1/5
f 48/1/6 49/1/6 50/1/6
f 50/1/6 49/1/6 51/1/6
f 50/2/6 51/2/6 52/2/6
f 52/2/6 51/2/6 53/2/6
f 54/3/6 55/3/6 56/3/6
f 56/3/6 55/3/6 57/3/6
