# MagicaVoxel @ Ephtracy

# material
mtllib Fence04.mtl
usemtl palette

# normals
vn -1 0 0
vn 1 0 0
vn 0 0 1
vn 0 0 -1
vn 0 -1 0
vn 0 1 0

# texcoords
vt 0.982422 0.5
vt 0.990234 0.5

# verts
v -0.5 0 5
v -0.5 0 4
v -0.5 0 3
v -0.5 0 2
v -0.5 0 1
v -0.5 0 -0
v -0.5 0 -1
v -0.5 0 -2
v -0.5 0 -3
v -0.5 0 -4
v -0.5 1 5
v -0.5 1 4
v -0.5 1 3
v -0.5 1 2
v -0.5 1 1
v -0.5 1 -0
v -0.5 1 -1
v -0.5 1 -2
v -0.5 1 -3
v -0.5 1 -4
v -0.5 1 -5
v -0.5 2 4
v -0.5 2 3
v -0.5 2 2
v -0.5 2 1
v -0.5 2 -0
v -0.5 2 -1
v -0.5 2 -2
v -0.5 2 -3
v -0.5 2 -4
v -0.5 2 -5
v -0.5 3 4
v -0.5 3 3
v -0.5 3 2
v -0.5 3 1
v -0.5 3 -0
v -0.5 3 -1
v -0.5 3 -2
v -0.5 3 -3
v -0.5 3 -4
v -0.5 3 -5
v -0.5 4 5
v -0.5 4 4
v -0.5 4 3
v -0.5 4 2
v -0.5 4 1
v -0.5 4 -0
v -0.5 4 -1
v -0.5 4 -2
v -0.5 4 -3
v -0.5 4 -4
v -0.5 4 -5
v -0.5 5 5
v -0.5 5 4
v -0.5 5 3
v -0.5 5 2
v -0.5 5 1
v -0.5 5 -0
v -0.5 5 -1
v -0.5 5 -2
v -0.5 5 -3
v -0.5 5 -4
v -0.5 5 -5
v -0.5 6 5
v -0.5 6 2
v -0.5 6 1
v -0.5 6 -4
v -0.5 6 -5
v 0.5 0 5
v 0.5 0 4
v 0.5 0 3
v 0.5 0 2
v 0.5 0 1
v 0.5 0 -0
v 0.5 0 -1
v 0.5 0 -2
v 0.5 0 -3
v 0.5 0 -4
v 0.5 1 5
v 0.5 1 4
v 0.5 1 3
v 0.5 1 2
v 0.5 1 1
v 0.5 1 -0
v 0.5 1 -1
v 0.5 1 -2
v 0.5 1 -3
v 0.5 1 -4
v 0.5 1 -5
v 0.5 2 4
v 0.5 2 3
v 0.5 2 2
v 0.5 2 1
v 0.5 2 -0
v 0.5 2 -1
v 0.5 2 -2
v 0.5 2 -3
v 0.5 2 -4
v 0.5 2 -5
v 0.5 3 4
v 0.5 3 3
v 0.5 3 2
v 0.5 3 1
v 0.5 3 -0
v 0.5 3 -1
v 0.5 3 -2
v 0.5 3 -3
v 0.5 3 -4
v 0.5 3 -5
v 0.5 4 5
v 0.5 4 4
v 0.5 4 3
v 0.5 4 2
v 0.5 4 1
v 0.5 4 -0
v 0.5 4 -1
v 0.5 4 -2
v 0.5 4 -3
v 0.5 4 -4
v 0.5 4 -5
v 0.5 5 5
v 0.5 5 4
v 0.5 5 3
v 0.5 5 2
v 0.5 5 1
v 0.5 5 -0
v 0.5 5 -1
v 0.5 5 -2
v 0.5 5 -3
v 0.5 5 -4
v 0.5 5 -5
v 0.5 6 5
v 0.5 6 2
v 0.5 6 1
v 0.5 6 -4
v 0.5 6 -5
v -0.5 0 5
v -0.5 1 5
v -0.5 4 5
v -0.5 5 5
v -0.5 6 5
v 0.5 0 5
v 0.5 1 5
v 0.5 4 5
v 0.5 5 5
v 0.5 6 5
v -0.5 0 3
v -0.5 1 3
v -0.5 2 3
v -0.5 3 3
v -0.5 4 3
v -0.5 5 3
v 0.5 0 3
v 0.5 1 3
v 0.5 2 3
v 0.5 3 3
v 0.5 4 3
v 0.5 5 3
v -0.5 0 1
v -0.5 1 1
v -0.5 2 1
v -0.5 3 1
v -0.5 4 1
v -0.5 5 1
v 0.5 0 1
v 0.5 1 1
v 0.5 2 1
v 0.5 3 1
v 0.5 4 1
v 0.5 5 1
v -0.5 0 -1
v -0.5 1 -1
v -0.5 2 -1
v -0.5 3 -1
v -0.5 4 -1
v -0.5 5 -1
v 0.5 0 -1
v 0.5 1 -1
v 0.5 2 -1
v 0.5 3 -1
v 0.5 4 -1
v 0.5 5 -1
v -0.5 0 -3
v -0.5 1 -3
v -0.5 2 -3
v -0.5 3 -3
v -0.5 4 -3
v -0.5 5 -3
v 0.5 0 -3
v 0.5 1 -3
v 0.5 2 -3
v 0.5 3 -3
v 0.5 4 -3
v 0.5 5 -3
v -0.5 0 4
v -0.5 1 4
v -0.5 2 4
v -0.5 3 4
v -0.5 4 4
v -0.5 5 4
v 0.5 0 4
v 0.5 1 4
v 0.5 2 4
v 0.5 3 4
v 0.5 4 4
v 0.5 5 4
v -0.5 0 2
v -0.5 1 2
v -0.5 2 2
v -0.5 3 2
v -0.5 4 2
v -0.5 5 2
v 0.5 0 2
v 0.5 1 2
v 0.5 2 2
v 0.5 3 2
v 0.5 4 2
v 0.5 5 2
v -0.5 0 -0
v -0.5 1 -0
v -0.5 2 -0
v -0.5 3 -0
v -0.5 4 -0
v -0.5 5 -0
v 0.5 0 -0
v 0.5 1 -0
v 0.5 2 -0
v 0.5 3 -0
v 0.5 4 -0
v 0.5 5 -0
v -0.5 0 -2
v -0.5 1 -2
v -0.5 2 -2
v -0.5 3 -2
v -0.5 4 -2
v -0.5 5 -2
v 0.5 0 -2
v 0.5 1 -2
v 0.5 2 -2
v 0.5 3 -2
v 0.5 4 -2
v 0.5 5 -2
v -0.5 0 -4
v -0.5 1 -4
v -0.5 2 -4
v -0.5 3 -4
v -0.5 4 -4
v -0.5 5 -4
v 0.5 0 -4
v 0.5 1 -4
v 0.5 2 -4
v 0.5 3 -4
v 0.5 4 -4
v 0.5 5 -4
v -0.5 1 -5
v -0.5 2 -5
v -0.5 3 -5
v -0.5 4 -5
v -0.5 5 -5
v -0.5 6 -5
v 0.5 1 -5
v 0.5 2 -5
v 0.5 3 -5
v 0.5 4 -5
v 0.5 5 -5
v 0.5 6 -5
v -0.5 0 5
v 0.5 0 5
v -0.5 0 4
v 0.5 0 4
v -0.5 0 3
v 0.5 0 3
v -0.5 0 2
v 0.5 0 2
v -0.5 0 1
v 0.5 0 1
v -0.5 0 -0
v 0.5 0 -0
v -0.5 0 -1
v 0.5 0 -1
v -0.5 0 -2
v 0.5 0 -2
v -0.5 0 -3
v 0.5 0 -3
v -0.5 0 -4
v 0.5 0 -4
v -0.5 1 4
v 0.5 1 4
v -0.5 1 3
v 0.5 1 3
v -0.5 1 2
v 0.5 1 2
v -0.5 1 1
v 0.5 1 1
v -0.5 1 -0
v 0.5 1 -0
v -0.5 1 -1
v 0.5 1 -1
v -0.5 1 -2
v 0.5 1 -2
v -0.5 1 -3
v 0.5 1 -3
v -0.5 1 -4
v 0.5 1 -4
v -0.5 1 -5
v 0.5 1 -5
v -0.5 3 4
v 0.5 3 4
v -0.5 3 3
v 0.5 3 3
v -0.5 3 2
v 0.5 3 2
v -0.5 3 1
v 0.5 3 1
v -0.5 3 -0
v 0.5 3 -0
v -0.5 3 -1
v 0.5 3 -1
v -0.5 3 -2
v 0.5 3 -2
v -0.5 3 -3
v 0.5 3 -3
v -0.5 3 -4
v 0.5 3 -4
v -0.5 3 -5
v 0.5 3 -5
v -0.5 5 4
v 0.5 5 4
v -0.5 5 3
v 0.5 5 3
v -0.5 5 2
v 0.5 5 2
v -0.5 5 1
v 0.5 5 1
v -0.5 5 -0
v 0.5 5 -0
v -0.5 5 -1
v 0.5 5 -1
v -0.5 5 -2
v 0.5 5 -2
v -0.5 5 -3
v 0.5 5 -3
v -0.5 5 -4
v 0.5 5 -4
v -0.5 5 -5
v 0.5 5 -5
v -0.5 2 4
v 0.5 2 4
v -0.5 2 3
v 0.5 2 3
v -0.5 2 2
v 0.5 2 2
v -0.5 2 1
v 0.5 2 1
v -0.5 2 -0
v 0.5 2 -0
v -0.5 2 -1
v 0.5 2 -1
v -0.5 2 -2
v 0.5 2 -2
v -0.5 2 -3
v 0.5 2 -3
v -0.5 2 -4
v 0.5 2 -4
v -0.5 2 -5
v 0.5 2 -5
v -0.5 4 4
v 0.5 4 4
v -0.5 4 3
v 0.5 4 3
v -0.5 4 2
v 0.5 4 2
v -0.5 4 1
v 0.5 4 1
v -0.5 4 -0
v 0.5 4 -0
v -0.5 4 -1
v 0.5 4 -1
v -0.5 4 -2
v 0.5 4 -2
v -0.5 4 -3
v 0.5 4 -3
v -0.5 4 -4
v 0.5 4 -4
v -0.5 4 -5
v 0.5 4 -5
v -0.5 6 5
v 0.5 6 5
v -0.5 6 2
v 0.5 6 2
v -0.5 6 1
v 0.5 6 1
v -0.5 6 -4
v 0.5 6 -4
v -0.5 6 -5
v 0.5 6 -5

# faces
f 11/1/1 2/1/1 1/1/1
f 12/1/1 2/1/1 11/1/1
f 13/2/1 4/2/1 3/2/1
f 14/2/1 4/2/1 13/2/1
f 15/2/1 6/2/1 5/2/1
f 16/2/1 6/2/1 15/2/1
f 17/2/1 8/2/1 7/2/1
f 18/2/1 8/2/1 17/2/1
f 19/2/1 10/2/1 9/2/1
f 20/2/1 10/2/1 19/2/1
f 22/2/1 12/2/1 11/2/1
f 22/2/1 14/2/1 13/2/1
f 22/2/1 13/2/1 12/2/1
f 23/2/1 14/2/1 22/2/1
f 24/1/1 15/1/1 14/1/1
f 24/2/1 14/2/1 23/2/1
f 25/2/1 18/2/1 17/2/1
f 25/1/1 15/1/1 24/1/1
f 25/2/1 16/2/1 15/2/1
f 25/2/1 19/2/1 18/2/1
f 25/2/1 17/2/1 16/2/1
f 26/2/1 19/2/1 25/2/1
f 27/2/1 19/2/1 26/2/1
f 28/2/1 19/2/1 27/2/1
f 29/1/1 20/1/1 19/1/1
f 29/2/1 19/2/1 28/2/1
f 30/2/1 21/2/1 20/2/1
f 30/1/1 20/1/1 29/1/1
f 31/2/1 21/2/1 30/2/1
f 32/2/1 22/2/1 11/2/1
f 33/2/1 24/2/1 23/2/1
f 34/2/1 24/2/1 33/2/1
f 35/2/1 26/2/1 25/2/1
f 36/2/1 26/2/1 35/2/1
f 37/2/1 28/2/1 27/2/1
f 38/2/1 28/2/1 37/2/1
f 39/2/1 30/2/1 29/2/1
f 40/2/1 30/2/1 39/2/1
f 42/2/1 32/2/1 11/2/1
f 42/2/1 36/2/1 35/2/1
f 42/2/1 34/2/1 33/2/1
f 42/2/1 33/2/1 32/2/1
f 42/2/1 35/2/1 34/2/1
f 42/2/1 37/2/1 36/2/1
f 43/2/1 37/2/1 42/2/1
f 44/2/1 37/2/1 43/2/1
f 45/2/1 37/2/1 44/2/1
f 46/2/1 37/2/1 45/2/1
f 47/2/1 37/2/1 46/2/1
f 48/1/1 38/1/1 37/1/1
f 48/2/1 37/2/1 47/2/1
f 49/2/1 41/2/1 40/2/1
f 49/1/1 38/1/1 48/1/1
f 49/2/1 40/2/1 39/2/1
f 49/2/1 39/2/1 38/2/1
f 50/2/1 41/2/1 49/2/1
f 51/2/1 41/2/1 50/2/1
f 52/2/1 41/2/1 51/2/1
f 53/1/1 43/1/1 42/1/1
f 54/1/1 43/1/1 53/1/1
f 55/2/1 45/2/1 44/2/1
f 56/2/1 45/2/1 55/2/1
f 57/2/1 47/2/1 46/2/1
f 58/2/1 47/2/1 57/2/1
f 59/2/1 49/2/1 48/2/1
f 60/2/1 49/2/1 59/2/1
f 61/2/1 51/2/1 50/2/1
f 62/2/1 51/2/1 61/2/1
f 64/2/1 56/2/1 55/2/1
f 64/2/1 54/2/1 53/2/1
f 64/2/1 55/2/1 54/2/1
f 65/1/1 57/1/1 56/1/1
f 65/2/1 56/2/1 64/2/1
f 66/2/1 60/2/1 59/2/1
f 66/1/1 57/1/1 65/1/1
f 66/2/1 62/2/1 61/2/1
f 66/2/1 58/2/1 57/2/1
f 66/2/1 59/2/1 58/2/1
f 66/2/1 61/2/1 60/2/1
f 67/1/1 63/1/1 62/1/1
f 67/2/1 62/2/1 66/2/1
f 68/1/1 63/1/1 67/1/1
f 69/1/2 70/1/2 79/1/2
f 79/1/2 70/1/2 80/1/2
f 71/2/2 72/2/2 81/2/2
f 81/2/2 72/2/2 82/2/2
f 73/2/2 74/2/2 83/2/2
f 83/2/2 74/2/2 84/2/2
f 75/2/2 76/2/2 85/2/2
f 85/2/2 76/2/2 86/2/2
f 77/2/2 78/2/2 87/2/2
f 87/2/2 78/2/2 88/2/2
f 79/2/2 80/2/2 90/2/2
f 81/2/2 82/2/2 90/2/2
f 80/2/2 81/2/2 90/2/2
f 90/2/2 82/2/2 91/2/2
f 82/1/2 83/1/2 92/1/2
f 91/2/2 82/2/2 92/2/2
f 85/2/2 86/2/2 93/2/2
f 92/1/2 83/1/2 93/1/2
f 83/2/2 84/2/2 93/2/2
f 86/2/2 87/2/2 93/2/2
f 84/2/2 85/2/2 93/2/2
f 93/2/2 87/2/2 94/2/2
f 94/2/2 87/2/2 95/2/2
f 95/2/2 87/2/2 96/2/2
f 87/1/2 88/1/2 97/1/2
f 96/2/2 87/2/2 97/2/2
f 88/2/2 89/2/2 98/2/2
f 97/1/2 88/1/2 98/1/2
f 98/2/2 89/2/2 99/2/2
f 79/2/2 90/2/2 100/2/2
f 91/2/2 92/2/2 101/2/2
f 101/2/2 92/2/2 102/2/2
f 93/2/2 94/2/2 103/2/2
f 103/2/2 94/2/2 104/2/2
f 95/2/2 96/2/2 105/2/2
f 105/2/2 96/2/2 106/2/2
f 97/2/2 98/2/2 107/2/2
f 107/2/2 98/2/2 108/2/2
f 79/2/2 100/2/2 110/2/2
f 103/2/2 104/2/2 110/2/2
f 101/2/2 102/2/2 110/2/2
f 100/2/2 101/2/2 110/2/2
f 102/2/2 103/2/2 110/2/2
f 104/2/2 105/2/2 110/2/2
f 110/2/2 105/2/2 111/2/2
f 111/2/2 105/2/2 112/2/2
f 112/2/2 105/2/2 113/2/2
f 113/2/2 105/2/2 114/2/2
f 114/2/2 105/2/2 115/2/2
f 105/1/2 106/1/2 116/1/2
f 115/2/2 105/2/2 116/2/2
f 108/2/2 109/2/2 117/2/2
f 116/1/2 106/1/2 117/1/2
f 107/2/2 108/2/2 117/2/2
f 106/2/2 107/2/2 117/2/2
f 117/2/2 109/2/2 118/2/2
f 118/2/2 109/2/2 119/2/2
f 119/2/2 109/2/2 120/2/2
f 110/1/2 111/1/2 121/1/2
f 121/1/2 111/1/2 122/1/2
f 112/2/2 113/2/2 123/2/2
f 123/2/2 113/2/2 124/2/2
f 114/2/2 115/2/2 125/2/2
f 125/2/2 115/2/2 126/2/2
f 116/2/2 117/2/2 127/2/2
f 127/2/2 117/2/2 128/2/2
f 118/2/2 119/2/2 129/2/2
f 129/2/2 119/2/2 130/2/2
f 123/2/2 124/2/2 132/2/2
f 121/2/2 122/2/2 132/2/2
f 122/2/2 123/2/2 132/2/2
f 124/1/2 125/1/2 133/1/2
f 132/2/2 124/2/2 133/2/2
f 127/2/2 128/2/2 134/2/2
f 133/1/2 125/1/2 134/1/2
f 129/2/2 130/2/2 134/2/2
f 125/2/2 126/2/2 134/2/2
f 126/2/2 127/2/2 134/2/2
f 128/2/2 129/2/2 134/2/2
f 130/1/2 131/1/2 135/1/2
f 134/2/2 130/2/2 135/2/2
f 135/1/2 131/1/2 136/1/2
f 142/1/3 138/1/3 137/1/3
f 143/2/3 139/2/3 138/2/3
f 143/1/3 138/1/3 142/1/3
f 144/1/3 140/1/3 139/1/3
f 144/2/3 139/2/3 143/2/3
f 145/2/3 141/2/3 140/2/3
f 145/1/3 140/1/3 144/1/3
f 146/2/3 141/2/3 145/2/3
f 153/2/3 148/2/3 147/2/3
f 154/2/3 148/2/3 153/2/3
f 155/2/3 150/2/3 149/2/3
f 156/2/3 150/2/3 155/2/3
f 157/2/3 152/2/3 151/2/3
f 158/2/3 152/2/3 157/2/3
f 165/2/3 160/2/3 159/2/3
f 166/2/3 160/2/3 165/2/3
f 167/2/3 162/2/3 161/2/3
f 168/2/3 162/2/3 167/2/3
f 169/2/3 164/2/3 163/2/3
f 170/2/3 164/2/3 169/2/3
f 177/2/3 172/2/3 171/2/3
f 178/2/3 172/2/3 177/2/3
f 179/2/3 174/2/3 173/2/3
f 180/2/3 174/2/3 179/2/3
f 181/2/3 176/2/3 175/2/3
f 182/2/3 176/2/3 181/2/3
f 189/2/3 184/2/3 183/2/3
f 190/2/3 184/2/3 189/2/3
f 191/2/3 186/2/3 185/2/3
f 192/2/3 186/2/3 191/2/3
f 193/2/3 188/2/3 187/2/3
f 194/2/3 188/2/3 193/2/3
f 195/1/4 196/1/4 201/1/4
f 201/1/4 196/1/4 202/1/4
f 197/2/4 198/2/4 203/2/4
f 203/2/4 198/2/4 204/2/4
f 199/1/4 200/1/4 205/1/4
f 205/1/4 200/1/4 206/1/4
f 207/2/4 208/2/4 213/2/4
f 213/2/4 208/2/4 214/2/4
f 209/2/4 210/2/4 215/2/4
f 215/2/4 210/2/4 216/2/4
f 211/2/4 212/2/4 217/2/4
f 217/2/4 212/2/4 218/2/4
f 219/2/4 220/2/4 225/2/4
f 225/2/4 220/2/4 226/2/4
f 221/2/4 222/2/4 227/2/4
f 227/2/4 222/2/4 228/2/4
f 223/2/4 224/2/4 229/2/4
f 229/2/4 224/2/4 230/2/4
f 231/2/4 232/2/4 237/2/4
f 237/2/4 232/2/4 238/2/4
f 233/2/4 234/2/4 239/2/4
f 239/2/4 234/2/4 240/2/4
f 235/2/4 236/2/4 241/2/4
f 241/2/4 236/2/4 242/2/4
f 243/2/4 244/2/4 249/2/4
f 249/2/4 244/2/4 250/2/4
f 245/2/4 246/2/4 251/2/4
f 251/2/4 246/2/4 252/2/4
f 247/2/4 248/2/4 253/2/4
f 253/2/4 248/2/4 254/2/4
f 255/2/4 256/2/4 261/2/4
f 261/2/4 256/2/4 262/2/4
f 257/2/4 258/2/4 263/2/4
f 263/2/4 258/2/4 264/2/4
f 259/1/4 260/1/4 265/1/4
f 265/1/4 260/1/4 266/1/4
f 269/1/5 268/1/5 267/1/5
f 270/1/5 268/1/5 269/1/5
f 273/2/5 272/2/5 271/2/5
f 274/2/5 272/2/5 273/2/5
f 277/2/5 276/2/5 275/2/5
f 278/2/5 276/2/5 277/2/5
f 281/2/5 280/2/5 279/2/5
f 282/2/5 280/2/5 281/2/5
f 285/2/5 284/2/5 283/2/5
f 286/2/5 284/2/5 285/2/5
f 289/2/5 288/2/5 287/2/5
f 290/2/5 288/2/5 289/2/5
f 293/1/5 292/1/5 291/1/5
f 294/1/5 292/1/5 293/1/5
f 297/2/5 296/2/5 295/2/5
f 298/2/5 296/2/5 297/2/5
f 301/2/5 300/2/5 299/2/5
f 302/2/5 300/2/5 301/2/5
f 305/2/5 304/2/5 303/2/5
f 306/2/5 304/2/5 305/2/5
f 309/2/5 308/2/5 307/2/5
f 310/2/5 308/2/5 309/2/5
f 313/2/5 312/2/5 311/2/5
f 314/2/5 312/2/5 313/2/5
f 317/2/5 316/2/5 315/2/5
f 318/2/5 316/2/5 317/2/5
f 321/2/5 320/2/5 319/2/5
f 322/2/5 320/2/5 321/2/5
f 325/2/5 324/2/5 323/2/5
f 326/2/5 324/2/5 325/2/5
f 329/2/5 328/2/5 327/2/5
f 330/2/5 328/2/5 329/2/5
f 333/1/5 332/1/5 331/1/5
f 334/1/5 332/1/5 333/1/5
f 337/2/5 336/2/5 335/2/5
f 338/2/5 336/2/5 337/2/5
f 341/2/5 340/2/5 339/2/5
f 342/2/5 340/2/5 341/2/5
f 345/1/5 344/1/5 343/1/5
f 346/1/5 344/1/5 345/1/5
f 347/2/6 348/2/6 349/2/6
f 349/2/6 348/2/6 350/2/6
f 351/1/6 352/1/6 353/1/6
f 353/1/6 352/1/6 354/1/6
f 355/2/6 356/2/6 357/2/6
f 357/2/6 356/2/6 358/2/6
f 359/2/6 360/2/6 361/2/6
f 361/2/6 360/2/6 362/2/6
f 363/2/6 364/2/6 365/2/6
f 365/2/6 364/2/6 366/2/6
f 367/2/6 368/2/6 369/2/6
f 369/2/6 368/2/6 370/2/6
f 371/2/6 372/2/6 373/2/6
f 373/2/6 372/2/6 374/2/6
f 375/2/6 376/2/6 377/2/6
f 377/2/6 376/2/6 378/2/6
f 379/2/6 380/2/6 381/2/6
f 381/2/6 380/2/6 382/2/6
f 383/2/6 384/2/6 385/2/6
f 385/2/6 384/2/6 386/2/6
f 387/2/6 388/2/6 389/2/6
f 389/2/6 388/2/6 390/2/6
f 389/1/6 390/1/6 391/1/6
f 391/1/6 390/1/6 392/1/6
f 391/2/6 392/2/6 393/2/6
f 393/2/6 392/2/6 394/2/6
f 393/1/6 394/1/6 395/1/6
f 395/1/6 394/1/6 396/1/6
