# MagicaVoxel @ Ephtracy

# material
mtllib Fence02.mtl
usemtl palette

# normals
vn -1 0 0
vn 1 0 0
vn 0 0 1
vn 0 0 -1
vn 0 -1 0
vn 0 1 0

# texcoords
vt 0.876953 0.5
vt 0.880859 0.5
vt 0.884766 0.5
vt 0.888672 0.5

# verts
v -0.5 0 5.5
v -0.5 0 4.5
v -0.5 0 1.5
v -0.5 0 0.5
v -0.5 0 -2.5
v -0.5 0 -3.5
v -0.5 1 5.5
v -0.5 1 4.5
v -0.5 2 4.5
v -0.5 2 3.5
v -0.5 2 2.5
v -0.5 2 1.5
v -0.5 2 0.5
v -0.5 2 -0.5
v -0.5 2 -1.5
v -0.5 2 -2.5
v -0.5 2 -3.5
v -0.5 2 -5.5
v -0.5 3 4.5
v -0.5 3 3.5
v -0.5 3 2.5
v -0.5 3 1.5
v -0.5 3 0.5
v -0.5 3 -0.5
v -0.5 3 -1.5
v -0.5 3 -2.5
v -0.5 3 -3.5
v -0.5 3 -5.5
v -0.5 4 4.5
v -0.5 4 3.5
v -0.5 4 1.5
v -0.5 4 0.5
v -0.5 4 -0.5
v -0.5 4 -1.5
v -0.5 4 -2.5
v -0.5 4 -3.5
v -0.5 4 -5.5
v -0.5 5 5.5
v -0.5 5 4.5
v -0.5 5 3.5
v -0.5 5 1.5
v -0.5 5 0.5
v -0.5 5 -0.5
v -0.5 5 -1.5
v -0.5 5 -2.5
v -0.5 5 -3.5
v -0.5 5 -5.5
v -0.5 6 5.5
v -0.5 6 4.5
v -0.5 6 1.5
v -0.5 6 0.5
v -0.5 6 -2.5
v -0.5 6 -3.5
v 0.5 0 5.5
v 0.5 0 4.5
v 0.5 0 1.5
v 0.5 0 0.5
v 0.5 0 -2.5
v 0.5 0 -3.5
v 0.5 1 5.5
v 0.5 1 4.5
v 0.5 2 4.5
v 0.5 2 3.5
v 0.5 2 2.5
v 0.5 2 1.5
v 0.5 2 0.5
v 0.5 2 -0.5
v 0.5 2 -1.5
v 0.5 2 -2.5
v 0.5 2 -3.5
v 0.5 2 -5.5
v 0.5 3 4.5
v 0.5 3 3.5
v 0.5 3 2.5
v 0.5 3 1.5
v 0.5 3 0.5
v 0.5 3 -0.5
v 0.5 3 -1.5
v 0.5 3 -2.5
v 0.5 3 -3.5
v 0.5 3 -5.5
v 0.5 4 4.5
v 0.5 4 3.5
v 0.5 4 1.5
v 0.5 4 0.5
v 0.5 4 -0.5
v 0.5 4 -1.5
v 0.5 4 -2.5
v 0.5 4 -3.5
v 0.5 4 -5.5
v 0.5 5 5.5
v 0.5 5 4.5
v 0.5 5 3.5
v 0.5 5 1.5
v 0.5 5 0.5
v 0.5 5 -0.5
v 0.5 5 -1.5
v 0.5 5 -2.5
v 0.5 5 -3.5
v 0.5 5 -5.5
v 0.5 6 5.5
v 0.5 6 4.5
v 0.5 6 1.5
v 0.5 6 0.5
v 0.5 6 -2.5
v 0.5 6 -3.5
v -0.5 0 5.5
v -0.5 1 5.5
v -0.5 5 5.5
v -0.5 6 5.5
v 0.5 0 5.5
v 0.5 1 5.5
v 0.5 5 5.5
v 0.5 6 5.5
v -0.5 0 1.5
v -0.5 2 1.5
v -0.5 3 1.5
v -0.5 4 1.5
v -0.5 5 1.5
v -0.5 6 1.5
v 0.5 0 1.5
v 0.5 2 1.5
v 0.5 3 1.5
v 0.5 4 1.5
v 0.5 5 1.5
v 0.5 6 1.5
v -0.5 0 -2.5
v -0.5 2 -2.5
v -0.5 3 -2.5
v -0.5 4 -2.5
v -0.5 5 -2.5
v -0.5 6 -2.5
v 0.5 0 -2.5
v 0.5 2 -2.5
v 0.5 3 -2.5
v 0.5 4 -2.5
v 0.5 5 -2.5
v 0.5 6 -2.5
v -0.5 0 4.5
v -0.5 1 4.5
v -0.5 2 4.5
v -0.5 3 4.5
v -0.5 4 4.5
v -0.5 5 4.5
v -0.5 6 4.5
v 0.5 0 4.5
v 0.5 1 4.5
v 0.5 2 4.5
v 0.5 3 4.5
v 0.5 4 4.5
v 0.5 5 4.5
v 0.5 6 4.5
v -0.5 0 0.5
v -0.5 2 0.5
v -0.5 3 0.5
v -0.5 4 0.5
v -0.5 5 0.5
v -0.5 6 0.5
v 0.5 0 0.5
v 0.5 2 0.5
v 0.5 3 0.5
v 0.5 4 0.5
v 0.5 5 0.5
v 0.5 6 0.5
v -0.5 0 -3.5
v -0.5 2 -3.5
v -0.5 3 -3.5
v -0.5 4 -3.5
v -0.5 5 -3.5
v -0.5 6 -3.5
v 0.5 0 -3.5
v 0.5 2 -3.5
v 0.5 3 -3.5
v 0.5 4 -3.5
v 0.5 5 -3.5
v 0.5 6 -3.5
v -0.5 2 -5.5
v -0.5 3 -5.5
v -0.5 4 -5.5
v -0.5 5 -5.5
v 0.5 2 -5.5
v 0.5 3 -5.5
v 0.5 4 -5.5
v 0.5 5 -5.5
v -0.5 0 5.5
v 0.5 0 5.5
v -0.5 0 4.5
v 0.5 0 4.5
v -0.5 0 1.5
v 0.5 0 1.5
v -0.5 0 0.5
v 0.5 0 0.5
v -0.5 0 -2.5
v 0.5 0 -2.5
v -0.5 0 -3.5
v 0.5 0 -3.5
v -0.5 2 4.5
v 0.5 2 4.5
v -0.5 2 3.5
v 0.5 2 3.5
v -0.5 2 2.5
v 0.5 2 2.5
v -0.5 2 1.5
v 0.5 2 1.5
v -0.5 2 0.5
v 0.5 2 0.5
v -0.5 2 -0.5
v 0.5 2 -0.5
v -0.5 2 -1.5
v 0.5 2 -1.5
v -0.5 2 -2.5
v 0.5 2 -2.5
v -0.5 2 -3.5
v 0.5 2 -3.5
v -0.5 2 -5.5
v 0.5 2 -5.5
v -0.5 4 4.5
v 0.5 4 4.5
v -0.5 4 3.5
v 0.5 4 3.5
v -0.5 4 1.5
v 0.5 4 1.5
v -0.5 4 0.5
v 0.5 4 0.5
v -0.5 4 -0.5
v 0.5 4 -0.5
v -0.5 4 -1.5
v 0.5 4 -1.5
v -0.5 4 -2.5
v 0.5 4 -2.5
v -0.5 4 -3.5
v 0.5 4 -3.5
v -0.5 4 -5.5
v 0.5 4 -5.5
v -0.5 3 4.5
v 0.5 3 4.5
v -0.5 3 3.5
v 0.5 3 3.5
v -0.5 3 2.5
v 0.5 3 2.5
v -0.5 3 1.5
v 0.5 3 1.5
v -0.5 3 0.5
v 0.5 3 0.5
v -0.5 3 -0.5
v 0.5 3 -0.5
v -0.5 3 -1.5
v 0.5 3 -1.5
v -0.5 3 -2.5
v 0.5 3 -2.5
v -0.5 3 -3.5
v 0.5 3 -3.5
v -0.5 3 -5.5
v 0.5 3 -5.5
v -0.5 5 4.5
v 0.5 5 4.5
v -0.5 5 3.5
v 0.5 5 3.5
v -0.5 5 1.5
v 0.5 5 1.5
v -0.5 5 0.5
v 0.5 5 0.5
v -0.5 5 -0.5
v 0.5 5 -0.5
v -0.5 5 -1.5
v 0.5 5 -1.5
v -0.5 5 -2.5
v 0.5 5 -2.5
v -0.5 5 -3.5
v 0.5 5 -3.5
v -0.5 5 -5.5
v 0.5 5 -5.5
v -0.5 6 5.5
v 0.5 6 5.5
v -0.5 6 4.5
v 0.5 6 4.5
v -0.5 6 1.5
v 0.5 6 1.5
v -0.5 6 0.5
v 0.5 6 0.5
v -0.5 6 -2.5
v 0.5 6 -2.5
v -0.5 6 -3.5
v 0.5 6 -3.5

# faces
f 7/2/1 2/2/1 1/2/1
f 8/2/1 2/2/1 7/2/1
f 9/4/1 8/4/1 7/4/1
f 12/4/1 4/4/1 3/4/1
f 13/4/1 4/4/1 12/4/1
f 16/4/1 6/4/1 5/4/1
f 17/4/1 6/4/1 16/4/1
f 19/4/1 9/4/1 7/4/1
f 19/4/1 10/4/1 9/4/1
f 20/3/1 11/3/1 10/3/1
f 20/4/1 10/4/1 19/4/1
f 21/4/1 12/4/1 11/4/1
f 21/3/1 11/3/1 20/3/1
f 21/4/1 13/4/1 12/4/1
f 21/4/1 14/4/1 13/4/1
f 22/4/1 14/4/1 21/4/1
f 23/4/1 14/4/1 22/4/1
f 24/3/1 15/3/1 14/3/1
f 24/4/1 14/4/1 23/4/1
f 25/4/1 18/4/1 17/4/1
f 25/3/1 15/3/1 24/3/1
f 25/4/1 17/4/1 16/4/1
f 25/4/1 16/4/1 15/4/1
f 26/4/1 18/4/1 25/4/1
f 27/4/1 18/4/1 26/4/1
f 28/4/1 18/4/1 27/4/1
f 29/4/1 19/4/1 7/4/1
f 31/4/1 23/4/1 22/4/1
f 32/4/1 23/4/1 31/4/1
f 35/3/1 27/3/1 26/3/1
f 36/3/1 27/3/1 35/3/1
f 38/4/1 29/4/1 7/4/1
f 39/1/1 30/1/1 29/1/1
f 39/4/1 29/4/1 38/4/1
f 40/4/1 31/4/1 30/4/1
f 40/1/1 30/1/1 39/1/1
f 40/4/1 32/4/1 31/4/1
f 40/4/1 33/4/1 32/4/1
f 41/4/1 33/4/1 40/4/1
f 42/4/1 33/4/1 41/4/1
f 43/2/1 34/2/1 33/2/1
f 43/4/1 33/4/1 42/4/1
f 44/4/1 37/4/1 36/4/1
f 44/2/1 34/2/1 43/2/1
f 44/4/1 36/4/1 35/4/1
f 44/4/1 35/4/1 34/4/1
f 45/4/1 37/4/1 44/4/1
f 46/4/1 37/4/1 45/4/1
f 47/4/1 37/4/1 46/4/1
f 48/3/1 39/3/1 38/3/1
f 49/3/1 39/3/1 48/3/1
f 50/4/1 42/4/1 41/4/1
f 51/4/1 42/4/1 50/4/1
f 52/4/1 46/4/1 45/4/1
f 53/4/1 46/4/1 52/4/1
f 54/2/2 55/2/2 60/2/2
f 60/2/2 55/2/2 61/2/2
f 60/4/2 61/4/2 62/4/2
f 56/4/2 57/4/2 65/4/2
f 65/4/2 57/4/2 66/4/2
f 58/4/2 59/4/2 69/4/2
f 69/4/2 59/4/2 70/4/2
f 60/4/2 62/4/2 72/4/2
f 62/4/2 63/4/2 72/4/2
f 63/3/2 64/3/2 73/3/2
f 72/4/2 63/4/2 73/4/2
f 64/4/2 65/4/2 74/4/2
f 73/3/2 64/3/2 74/3/2
f 65/4/2 66/4/2 74/4/2
f 66/4/2 67/4/2 74/4/2
f 74/4/2 67/4/2 75/4/2
f 75/4/2 67/4/2 76/4/2
f 67/3/2 68/3/2 77/3/2
f 76/4/2 67/4/2 77/4/2
f 70/4/2 71/4/2 78/4/2
f 77/3/2 68/3/2 78/3/2
f 69/4/2 70/4/2 78/4/2
f 68/4/2 69/4/2 78/4/2
f 78/4/2 71/4/2 79/4/2
f 79/4/2 71/4/2 80/4/2
f 80/4/2 71/4/2 81/4/2
f 60/4/2 72/4/2 82/4/2
f 75/4/2 76/4/2 84/4/2
f 84/4/2 76/4/2 85/4/2
f 79/3/2 80/3/2 88/3/2
f 88/3/2 80/3/2 89/3/2
f 60/4/2 82/4/2 91/4/2
f 82/1/2 83/1/2 92/1/2
f 91/4/2 82/4/2 92/4/2
f 83/4/2 84/4/2 93/4/2
f 92/1/2 83/1/2 93/1/2
f 84/4/2 85/4/2 93/4/2
f 85/4/2 86/4/2 93/4/2
f 93/4/2 86/4/2 94/4/2
f 94/4/2 86/4/2 95/4/2
f 86/2/2 87/2/2 96/2/2
f 95/4/2 86/4/2 96/4/2
f 89/4/2 90/4/2 97/4/2
f 96/2/2 87/2/2 97/2/2
f 88/4/2 89/4/2 97/4/2
f 87/4/2 88/4/2 97/4/2
f 97/4/2 90/4/2 98/4/2
f 98/4/2 90/4/2 99/4/2
f 99/4/2 90/4/2 100/4/2
f 91/3/2 92/3/2 101/3/2
f 101/3/2 92/3/2 102/3/2
f 94/4/2 95/4/2 103/4/2
f 103/4/2 95/4/2 104/4/2
f 98/4/2 99/4/2 105/4/2
f 105/4/2 99/4/2 106/4/2
f 111/2/3 108/2/3 107/2/3
f 112/4/3 109/4/3 108/4/3
f 112/2/3 108/2/3 111/2/3
f 113/3/3 110/3/3 109/3/3
f 113/4/3 109/4/3 112/4/3
f 114/3/3 110/3/3 113/3/3
f 121/4/3 116/4/3 115/4/3
f 122/4/3 116/4/3 121/4/3
f 123/4/3 118/4/3 117/4/3
f 124/4/3 118/4/3 123/4/3
f 125/4/3 120/4/3 119/4/3
f 126/4/3 120/4/3 125/4/3
f 133/4/3 128/4/3 127/4/3
f 134/4/3 128/4/3 133/4/3
f 135/3/3 130/3/3 129/3/3
f 136/3/3 130/3/3 135/3/3
f 137/4/3 132/4/3 131/4/3
f 138/4/3 132/4/3 137/4/3
f 139/2/4 140/2/4 146/2/4
f 140/4/4 141/4/4 147/4/4
f 146/2/4 140/2/4 147/2/4
f 147/4/4 141/4/4 148/4/4
f 142/4/4 143/4/4 149/4/4
f 149/4/4 143/4/4 150/4/4
f 144/3/4 145/3/4 151/3/4
f 151/3/4 145/3/4 152/3/4
f 153/4/4 154/4/4 159/4/4
f 159/4/4 154/4/4 160/4/4
f 155/4/4 156/4/4 161/4/4
f 161/4/4 156/4/4 162/4/4
f 157/4/4 158/4/4 163/4/4
f 163/4/4 158/4/4 164/4/4
f 165/4/4 166/4/4 171/4/4
f 171/4/4 166/4/4 172/4/4
f 167/3/4 168/3/4 173/3/4
f 173/3/4 168/3/4 174/3/4
f 169/4/4 170/4/4 175/4/4
f 175/4/4 170/4/4 176/4/4
f 177/4/4 178/4/4 181/4/4
f 181/4/4 178/4/4 182/4/4
f 179/4/4 180/4/4 183/4/4
f 183/4/4 180/4/4 184/4/4
f 187/2/5 186/2/5 185/2/5
f 188/2/5 186/2/5 187/2/5
f 191/4/5 190/4/5 189/4/5
f 192/4/5 190/4/5 191/4/5
f 195/4/5 194/4/5 193/4/5
f 196/4/5 194/4/5 195/4/5
f 199/4/5 198/4/5 197/4/5
f 200/4/5 198/4/5 199/4/5
f 201/3/5 200/3/5 199/3/5
f 202/3/5 200/3/5 201/3/5
f 203/4/5 202/4/5 201/4/5
f 204/4/5 202/4/5 203/4/5
f 207/4/5 206/4/5 205/4/5
f 208/4/5 206/4/5 207/4/5
f 209/3/5 208/3/5 207/3/5
f 210/3/5 208/3/5 209/3/5
f 211/4/5 210/4/5 209/4/5
f 212/4/5 210/4/5 211/4/5
f 215/4/5 214/4/5 213/4/5
f 216/4/5 214/4/5 215/4/5
f 219/1/5 218/1/5 217/1/5
f 220/1/5 218/1/5 219/1/5
f 221/4/5 220/4/5 219/4/5
f 222/4/5 220/4/5 221/4/5
f 225/4/5 224/4/5 223/4/5
f 226/4/5 224/4/5 225/4/5
f 227/2/5 226/2/5 225/2/5
f 228/2/5 226/2/5 227/2/5
f 229/4/5 228/4/5 227/4/5
f 230/4/5 228/4/5 229/4/5
f 233/4/5 232/4/5 231/4/5
f 234/4/5 232/4/5 233/4/5
f 235/4/6 236/4/6 237/4/6
f 237/4/6 236/4/6 238/4/6
f 237/3/6 238/3/6 239/3/6
f 239/3/6 238/3/6 240/3/6
f 239/4/6 240/4/6 241/4/6
f 241/4/6 240/4/6 242/4/6
f 243/4/6 244/4/6 245/4/6
f 245/4/6 244/4/6 246/4/6
f 245/3/6 246/3/6 247/3/6
f 247/3/6 246/3/6 248/3/6
f 247/4/6 248/4/6 249/4/6
f 249/4/6 248/4/6 250/4/6
f 251/4/6 252/4/6 253/4/6
f 253/4/6 252/4/6 254/4/6
f 255/1/6 256/1/6 257/1/6
f 257/1/6 256/1/6 258/1/6
f 257/4/6 258/4/6 259/4/6
f 259/4/6 258/4/6 260/4/6
f 261/4/6 262/4/6 263/4/6
f 263/4/6 262/4/6 264/4/6
f 263/2/6 264/2/6 265/2/6
f 265/2/6 264/2/6 266/2/6
f 265/4/6 266/4/6 267/4/6
f 267/4/6 266/4/6 268/4/6
f 269/4/6 270/4/6 271/4/6
f 271/4/6 270/4/6 272/4/6
f 273/3/6 274/3/6 275/3/6
f 275/3/6 274/3/6 276/3/6
f 277/4/6 278/4/6 279/4/6
f 279/4/6 278/4/6 280/4/6
f 281/4/6 282/4/6 283/4/6
f 283/4/6 282/4/6 284/4/6
