# MagicaVoxel @ Ephtracy

# material
mtllib Fence05.mtl
usemtl palette

# normals
vn -1 0 0
vn 1 0 0
vn 0 0 1
vn 0 0 -1
vn 0 -1 0
vn 0 1 0

# texcoords
vt 0.912109 0.5
vt 0.990234 0.5

# verts
v -1 2 3.5
v -1 2 -3.5
v -1 3 3.5
v -1 3 -3.5
v -1 4 3.5
v -1 4 -3.5
v -1 5 3.5
v -1 5 -3.5
v 0 0 2.5
v 0 0 1.5
v 0 0 -1.5
v 0 0 -2.5
v 0 2 2.5
v 0 2 1.5
v 0 2 -1.5
v 0 2 -2.5
v 0 3 2.5
v 0 3 1.5
v 0 3 -1.5
v 0 3 -2.5
v 0 4 2.5
v 0 4 1.5
v 0 4 -1.5
v 0 4 -2.5
v 0 5 2.5
v 0 5 1.5
v 0 5 -1.5
v 0 5 -2.5
v 0 6 2.5
v 0 6 1.5
v 0 6 -1.5
v 0 6 -2.5
v 0 2 3.5
v 0 2 2.5
v 0 2 1.5
v 0 2 -1.5
v 0 2 -2.5
v 0 2 -3.5
v 0 3 3.5
v 0 3 2.5
v 0 3 1.5
v 0 3 -1.5
v 0 3 -2.5
v 0 3 -3.5
v 0 4 3.5
v 0 4 2.5
v 0 4 1.5
v 0 4 -1.5
v 0 4 -2.5
v 0 4 -3.5
v 0 5 3.5
v 0 5 2.5
v 0 5 1.5
v 0 5 -1.5
v 0 5 -2.5
v 0 5 -3.5
v 1 0 2.5
v 1 0 1.5
v 1 0 -1.5
v 1 0 -2.5
v 1 6 2.5
v 1 6 1.5
v 1 6 -1.5
v 1 6 -2.5
v -1 2 3.5
v -1 3 3.5
v -1 4 3.5
v -1 5 3.5
v 0 2 3.5
v 0 3 3.5
v 0 4 3.5
v 0 5 3.5
v 0 0 2.5
v 0 2 2.5
v 0 3 2.5
v 0 4 2.5
v 0 5 2.5
v 0 6 2.5
v 1 0 2.5
v 1 6 2.5
v 0 0 -1.5
v 0 2 -1.5
v 0 3 -1.5
v 0 4 -1.5
v 0 5 -1.5
v 0 6 -1.5
v 1 0 -1.5
v 1 6 -1.5
v 0 0 1.5
v 0 2 1.5
v 0 3 1.5
v 0 4 1.5
v 0 5 1.5
v 0 6 1.5
v 1 0 1.5
v 1 6 1.5
v 0 0 -2.5
v 0 2 -2.5
v 0 3 -2.5
v 0 4 -2.5
v 0 5 -2.5
v 0 6 -2.5
v 1 0 -2.5
v 1 6 -2.5
v -1 2 -3.5
v -1 3 -3.5
v -1 4 -3.5
v -1 5 -3.5
v 0 2 -3.5
v 0 3 -3.5
v 0 4 -3.5
v 0 5 -3.5
v 0 0 2.5
v 1 0 2.5
v 0 0 1.5
v 1 0 1.5
v 0 0 -1.5
v 1 0 -1.5
v 0 0 -2.5
v 1 0 -2.5
v -1 2 3.5
v 0 2 3.5
v 0 2 2.5
v 0 2 1.5
v 0 2 -1.5
v 0 2 -2.5
v -1 2 -3.5
v 0 2 -3.5
v -1 4 3.5
v 0 4 3.5
v 0 4 2.5
v 0 4 1.5
v 0 4 -1.5
v 0 4 -2.5
v -1 4 -3.5
v 0 4 -3.5
v -1 3 3.5
v 0 3 3.5
v 0 3 2.5
v 0 3 1.5
v 0 3 -1.5
v 0 3 -2.5
v -1 3 -3.5
v 0 3 -3.5
v -1 5 3.5
v 0 5 3.5
v 0 5 2.5
v 0 5 1.5
v 0 5 -1.5
v 0 5 -2.5
v -1 5 -3.5
v 0 5 -3.5
v 0 6 2.5
v 1 6 2.5
v 0 6 1.5
v 1 6 1.5
v 0 6 -1.5
v 1 6 -1.5
v 0 6 -2.5
v 1 6 -2.5

# faces
f 3/1/1 2/1/1 1/1/1
f 4/1/1 2/1/1 3/1/1
f 7/1/1 6/1/1 5/1/1
f 8/1/1 6/1/1 7/1/1
f 13/2/1 10/2/1 9/2/1
f 14/2/1 10/2/1 13/2/1
f 15/2/1 12/2/1 11/2/1
f 16/2/1 12/2/1 15/2/1
f 21/2/1 18/2/1 17/2/1
f 22/2/1 18/2/1 21/2/1
f 23/2/1 20/2/1 19/2/1
f 24/2/1 20/2/1 23/2/1
f 29/2/1 26/2/1 25/2/1
f 30/2/1 26/2/1 29/2/1
f 31/2/1 28/2/1 27/2/1
f 32/2/1 28/2/1 31/2/1
f 33/1/2 34/1/2 39/1/2
f 39/1/2 34/1/2 40/1/2
f 35/1/2 36/1/2 41/1/2
f 41/1/2 36/1/2 42/1/2
f 37/1/2 38/1/2 43/1/2
f 43/1/2 38/1/2 44/1/2
f 45/1/2 46/1/2 51/1/2
f 51/1/2 46/1/2 52/1/2
f 47/1/2 48/1/2 53/1/2
f 53/1/2 48/1/2 54/1/2
f 49/1/2 50/1/2 55/1/2
f 55/1/2 50/1/2 56/1/2
f 57/2/2 58/2/2 61/2/2
f 61/2/2 58/2/2 62/2/2
f 59/2/2 60/2/2 63/2/2
f 63/2/2 60/2/2 64/2/2
f 69/1/3 66/1/3 65/1/3
f 70/1/3 66/1/3 69/1/3
f 71/1/3 68/1/3 67/1/3
f 72/1/3 68/1/3 71/1/3
f 79/2/3 74/2/3 73/2/3
f 79/2/3 78/2/3 77/2/3
f 79/2/3 77/2/3 76/2/3
f 79/2/3 76/2/3 75/2/3
f 79/2/3 75/2/3 74/2/3
f 80/2/3 78/2/3 79/2/3
f 87/2/3 82/2/3 81/2/3
f 87/2/3 86/2/3 85/2/3
f 87/2/3 85/2/3 84/2/3
f 87/2/3 84/2/3 83/2/3
f 87/2/3 83/2/3 82/2/3
f 88/2/3 86/2/3 87/2/3
f 89/2/4 90/2/4 95/2/4
f 93/2/4 94/2/4 95/2/4
f 92/2/4 93/2/4 95/2/4
f 91/2/4 92/2/4 95/2/4
f 90/2/4 91/2/4 95/2/4
f 95/2/4 94/2/4 96/2/4
f 97/2/4 98/2/4 103/2/4
f 101/2/4 102/2/4 103/2/4
f 100/2/4 101/2/4 103/2/4
f 99/2/4 100/2/4 103/2/4
f 98/2/4 99/2/4 103/2/4
f 103/2/4 102/2/4 104/2/4
f 105/1/4 106/1/4 109/1/4
f 109/1/4 106/1/4 110/1/4
f 107/1/4 108/1/4 111/1/4
f 111/1/4 108/1/4 112/1/4
f 115/2/5 114/2/5 113/2/5
f 116/2/5 114/2/5 115/2/5
f 119/2/5 118/2/5 117/2/5
f 120/2/5 118/2/5 119/2/5
f 123/1/5 122/1/5 121/1/5
f 124/1/5 123/1/5 121/1/5
f 125/1/5 124/1/5 121/1/5
f 126/1/5 125/1/5 121/1/5
f 127/1/5 126/1/5 121/1/5
f 128/1/5 126/1/5 127/1/5
f 131/1/5 130/1/5 129/1/5
f 132/1/5 131/1/5 129/1/5
f 133/1/5 132/1/5 129/1/5
f 134/1/5 133/1/5 129/1/5
f 135/1/5 134/1/5 129/1/5
f 136/1/5 134/1/5 135/1/5
f 137/1/6 138/1/6 139/1/6
f 137/1/6 139/1/6 140/1/6
f 137/1/6 140/1/6 141/1/6
f 137/1/6 141/1/6 142/1/6
f 137/1/6 142/1/6 143/1/6
f 143/1/6 142/1/6 144/1/6
f 145/1/6 146/1/6 147/1/6
f 145/1/6 147/1/6 148/1/6
f 145/1/6 148/1/6 149/1/6
f 145/1/6 149/1/6 150/1/6
f 145/1/6 150/1/6 151/1/6
f 151/1/6 150/1/6 152/1/6
f 153/2/6 154/2/6 155/2/6
f 155/2/6 154/2/6 156/2/6
f 157/2/6 158/2/6 159/2/6
f 159/2/6 158/2/6 160/2/6
