# MagicaVoxel @ Ephtracy

# material
mtllib Flag01.mtl
usemtl palette

# normals
vn -1 0 0
vn 1 0 0
vn 0 0 1
vn 0 0 -1
vn 0 -1 0
vn 0 1 0

# texcoords
vt 0.970703 0.5
vt 0.974609 0.5
vt 0.986328 0.5
vt 0.990234 0.5

# verts
v -2 0 0.5
v -2 0 -0.5
v -2 7 0.5
v -2 7 -0.5
v -2 10 0.5
v -2 10 -0.5
v -2 11 0.5
v -2 11 -0.5
v -1 0 0.5
v -1 0 -0.5
v -1 7 0.5
v -1 7 -0.5
v -1 10 0.5
v -1 10 -0.5
v -1 11 0.5
v -1 11 -0.5
v 2 7 0.5
v 2 7 -0.5
v 2 10 0.5
v 2 10 -0.5
v -2 0 0.5
v -2 7 0.5
v -2 10 0.5
v -2 11 0.5
v -1 0 0.5
v -1 7 0.5
v -1 10 0.5
v -1 11 0.5
v 2 7 0.5
v 2 10 0.5
v -2 0 -0.5
v -2 7 -0.5
v -2 10 -0.5
v -2 11 -0.5
v -1 0 -0.5
v -1 7 -0.5
v -1 10 -0.5
v -1 11 -0.5
v 2 7 -0.5
v 2 10 -0.5
v -2 0 0.5
v -1 0 0.5
v -2 0 -0.5
v -1 0 -0.5
v -1 7 0.5
v 2 7 0.5
v -1 7 -0.5
v 2 7 -0.5
v -1 10 0.5
v 2 10 0.5
v -1 10 -0.5
v 2 10 -0.5
v -2 11 0.5
v -1 11 0.5
v -2 11 -0.5
v -1 11 -0.5

# faces
f 3/3/1 2/3/1 1/3/1
f 4/3/1 2/3/1 3/3/1
f 5/4/1 4/4/1 3/4/1
f 6/4/1 4/4/1 5/4/1
f 7/2/1 6/2/1 5/2/1
f 8/2/1 6/2/1 7/2/1
f 9/3/2 10/3/2 11/3/2
f 11/3/2 10/3/2 12/3/2
f 13/2/2 14/2/2 15/2/2
f 15/2/2 14/2/2 16/2/2
f 17/1/2 18/1/2 19/1/2
f 19/1/2 18/1/2 20/1/2
f 25/3/3 22/3/3 21/3/3
f 26/4/3 23/4/3 22/4/3
f 26/3/3 22/3/3 25/3/3
f 27/2/3 24/2/3 23/2/3
f 27/4/3 23/4/3 26/4/3
f 28/2/3 24/2/3 27/2/3
f 29/1/3 27/1/3 26/1/3
f 30/1/3 27/1/3 29/1/3
f 31/3/4 32/3/4 35/3/4
f 32/4/4 33/4/4 36/4/4
f 35/3/4 32/3/4 36/3/4
f 33/2/4 34/2/4 37/2/4
f 36/4/4 33/4/4 37/4/4
f 37/2/4 34/2/4 38/2/4
f 36/1/4 37/1/4 39/1/4
f 39/1/4 37/1/4 40/1/4
f 43/3/5 42/3/5 41/3/5
f 44/3/5 42/3/5 43/3/5
f 47/1/5 46/1/5 45/1/5
f 48/1/5 46/1/5 47/1/5
f 49/1/6 50/1/6 51/1/6
f 51/1/6 50/1/6 52/1/6
f 53/2/6 54/2/6 55/2/6
f 55/2/6 54/2/6 56/2/6
