# MagicaVoxel @ Ephtracy

# material
mtllib Lamp01.mtl
usemtl palette

# normals
vn -1 0 0
vn 1 0 0
vn 0 0 1
vn 0 0 -1
vn 0 -1 0
vn 0 1 0

# texcoords
vt 0.908203 0.5
vt 0.986328 0.5
vt 0.990234 0.5

# verts
v -2 8 0.5
v -2 8 -0.5
v -2 9 0.5
v -2 9 -0.5
v -2 10 0.5
v -2 10 -0.5
v 1 0 0.5
v 1 0 -0.5
v 1 9 0.5
v 1 9 -0.5
v 1 10 0.5
v 1 10 -0.5
v 1 11 0.5
v 1 11 -0.5
v -1 8 0.5
v -1 8 -0.5
v -1 9 0.5
v -1 9 -0.5
v 2 0 0.5
v 2 0 -0.5
v 2 9 0.5
v 2 9 -0.5
v 2 10 0.5
v 2 10 -0.5
v 2 11 0.5
v 2 11 -0.5
v -2 8 0.5
v -2 9 0.5
v -2 10 0.5
v -1 8 0.5
v -1 9 0.5
v 1 0 0.5
v 1 9 0.5
v 1 10 0.5
v 1 11 0.5
v 2 0 0.5
v 2 9 0.5
v 2 10 0.5
v 2 11 0.5
v -2 8 -0.5
v -2 9 -0.5
v -2 10 -0.5
v -1 8 -0.5
v -1 9 -0.5
v 1 0 -0.5
v 1 9 -0.5
v 1 10 -0.5
v 1 11 -0.5
v 2 0 -0.5
v 2 9 -0.5
v 2 10 -0.5
v 2 11 -0.5
v 1 0 0.5
v 2 0 0.5
v 1 0 -0.5
v 2 0 -0.5
v -2 8 0.5
v -1 8 0.5
v -2 8 -0.5
v -1 8 -0.5
v -1 9 0.5
v 1 9 0.5
v -1 9 -0.5
v 1 9 -0.5
v -2 10 0.5
v 1 10 0.5
v -2 10 -0.5
v 1 10 -0.5
v 1 11 0.5
v 2 11 0.5
v 1 11 -0.5
v 2 11 -0.5

# faces
f 3/1/1 2/1/1 1/1/1
f 4/1/1 2/1/1 3/1/1
f 5/3/1 4/3/1 3/3/1
f 6/3/1 4/3/1 5/3/1
f 9/2/1 8/2/1 7/2/1
f 10/2/1 8/2/1 9/2/1
f 13/2/1 12/2/1 11/2/1
f 14/2/1 12/2/1 13/2/1
f 15/1/2 16/1/2 17/1/2
f 17/1/2 16/1/2 18/1/2
f 19/2/2 20/2/2 21/2/2
f 21/2/2 20/2/2 22/2/2
f 21/3/2 22/3/2 23/3/2
f 23/3/2 22/3/2 24/3/2
f 23/2/2 24/2/2 25/2/2
f 25/2/2 24/2/2 26/2/2
f 30/1/3 28/1/3 27/1/3
f 31/3/3 29/3/3 28/3/3
f 31/1/3 28/1/3 30/1/3
f 33/3/3 29/3/3 31/3/3
f 34/3/3 29/3/3 33/3/3
f 36/2/3 33/2/3 32/2/3
f 37/3/3 34/3/3 33/3/3
f 37/2/3 33/2/3 36/2/3
f 38/2/3 35/2/3 34/2/3
f 38/3/3 34/3/3 37/3/3
f 39/2/3 35/2/3 38/2/3
f 40/1/4 41/1/4 43/1/4
f 41/3/4 42/3/4 44/3/4
f 43/1/4 41/1/4 44/1/4
f 44/3/4 42/3/4 46/3/4
f 46/3/4 42/3/4 47/3/4
f 45/2/4 46/2/4 49/2/4
f 46/3/4 47/3/4 50/3/4
f 49/2/4 46/2/4 50/2/4
f 47/2/4 48/2/4 51/2/4
f 50/3/4 47/3/4 51/3/4
f 51/2/4 48/2/4 52/2/4
f 55/2/5 54/2/5 53/2/5
f 56/2/5 54/2/5 55/2/5
f 59/1/5 58/1/5 57/1/5
f 60/1/5 58/1/5 59/1/5
f 63/3/5 62/3/5 61/3/5
f 64/3/5 62/3/5 63/3/5
f 65/3/6 66/3/6 67/3/6
f 67/3/6 66/3/6 68/3/6
f 69/2/6 70/2/6 71/2/6
f 71/2/6 70/2/6 72/2/6
