# MagicaVoxel @ Ephtracy

# material
mtllib Lamp03.mtl
usemtl palette

# normals
vn -1 0 0
vn 1 0 0
vn 0 0 1
vn 0 0 -1
vn 0 -1 0
vn 0 1 0

# texcoords
vt 0.908203 0.5
vt 0.986328 0.5
vt 0.990234 0.5

# verts
v -2 9 0.5
v -2 9 -0.5
v -2 10 0.5
v -2 10 -0.5
v 1 0 0.5
v 1 0 -0.5
v 1 9 0.5
v 1 9 -0.5
v 1 10 0.5
v 1 10 -0.5
v 1 11 0.5
v 1 11 -0.5
v 2 0 0.5
v 2 0 -0.5
v 2 9 0.5
v 2 9 -0.5
v 2 10 0.5
v 2 10 -0.5
v 2 11 0.5
v 2 11 -0.5
v -2 9 0.5
v -2 10 0.5
v -1 9 0.5
v -1 10 0.5
v 1 0 0.5
v 1 9 0.5
v 1 10 0.5
v 1 11 0.5
v 2 0 0.5
v 2 9 0.5
v 2 10 0.5
v 2 11 0.5
v -2 9 -0.5
v -2 10 -0.5
v -1 9 -0.5
v -1 10 -0.5
v 1 0 -0.5
v 1 9 -0.5
v 1 10 -0.5
v 1 11 -0.5
v 2 0 -0.5
v 2 9 -0.5
v 2 10 -0.5
v 2 11 -0.5
v 1 0 0.5
v 2 0 0.5
v 1 0 -0.5
v 2 0 -0.5
v -2 9 0.5
v -1 9 0.5
v 1 9 0.5
v -2 9 -0.5
v -1 9 -0.5
v 1 9 -0.5
v -2 10 0.5
v -1 10 0.5
v 1 10 0.5
v -2 10 -0.5
v -1 10 -0.5
v 1 10 -0.5
v 1 11 0.5
v 2 11 0.5
v 1 11 -0.5
v 2 11 -0.5

# faces
f 3/1/1 2/1/1 1/1/1
f 4/1/1 2/1/1 3/1/1
f 7/2/1 6/2/1 5/2/1
f 8/2/1 6/2/1 7/2/1
f 11/2/1 10/2/1 9/2/1
f 12/2/1 10/2/1 11/2/1
f 13/2/2 14/2/2 15/2/2
f 15/2/2 14/2/2 16/2/2
f 15/3/2 16/3/2 17/3/2
f 17/3/2 16/3/2 18/3/2
f 17/2/2 18/2/2 19/2/2
f 19/2/2 18/2/2 20/2/2
f 23/1/3 22/1/3 21/1/3
f 24/1/3 22/1/3 23/1/3
f 26/3/3 24/3/3 23/3/3
f 27/3/3 24/3/3 26/3/3
f 29/2/3 26/2/3 25/2/3
f 30/3/3 27/3/3 26/3/3
f 30/2/3 26/2/3 29/2/3
f 31/2/3 28/2/3 27/2/3
f 31/3/3 27/3/3 30/3/3
f 32/2/3 28/2/3 31/2/3
f 33/1/4 34/1/4 35/1/4
f 35/1/4 34/1/4 36/1/4
f 35/3/4 36/3/4 38/3/4
f 38/3/4 36/3/4 39/3/4
f 37/2/4 38/2/4 41/2/4
f 38/3/4 39/3/4 42/3/4
f 41/2/4 38/2/4 42/2/4
f 39/2/4 40/2/4 43/2/4
f 42/3/4 39/3/4 43/3/4
f 43/2/4 40/2/4 44/2/4
f 47/2/5 46/2/5 45/2/5
f 48/2/5 46/2/5 47/2/5
f 52/1/5 50/1/5 49/1/5
f 53/3/5 51/3/5 50/3/5
f 53/1/5 50/1/5 52/1/5
f 54/3/5 51/3/5 53/3/5
f 55/1/6 56/1/6 58/1/6
f 56/3/6 57/3/6 59/3/6
f 58/1/6 56/1/6 59/1/6
f 59/3/6 57/3/6 60/3/6
f 61/2/6 62/2/6 63/2/6
f 63/2/6 62/2/6 64/2/6
