# MagicaVoxel @ Ephtracy

# material
mtllib Pool01.mtl
usemtl palette

# normals
vn -1 0 0
vn 1 0 0
vn 0 0 1
vn 0 0 -1
vn 0 -1 0
vn 0 1 0

# texcoords
vt 0.849609 0.5
vt 0.970703 0.5
vt 0.990234 0.5

# verts
v -12 0 7
v -12 0 -7
v -12 2 7
v -12 2 -7
v -9 2 -4
v -9 2 -5
v -9 3 -4
v -9 3 -5
v -7 2 -4
v -7 2 -5
v -7 3 -4
v -7 3 -5
v 3 2 5
v 3 2 4
v 3 3 5
v 3 3 4
v 6 2 5
v 6 2 4
v 6 3 5
v 6 3 4
v 9 1 4
v 9 1 -4
v 9 2 4
v 9 2 -4
v -9 1 4
v -9 1 -4
v -9 2 4
v -9 2 -4
v -8 2 -4
v -8 2 -5
v -8 3 -4
v -8 3 -5
v -6 2 -4
v -6 2 -5
v -6 3 -4
v -6 3 -5
v 4 2 5
v 4 2 4
v 4 3 5
v 4 3 4
v 7 2 5
v 7 2 4
v 7 3 5
v 7 3 4
v 12 0 7
v 12 0 -7
v 12 2 7
v 12 2 -7
v -12 0 7
v -12 2 7
v 12 0 7
v 12 2 7
v 3 2 5
v 3 3 5
v 4 2 5
v 4 3 5
v 6 2 5
v 6 3 5
v 7 2 5
v 7 3 5
v -9 1 -4
v -9 2 -4
v -9 3 -4
v -8 2 -4
v -8 3 -4
v -7 2 -4
v -7 3 -4
v -6 2 -4
v -6 3 -4
v 9 1 -4
v 9 2 -4
v -9 1 4
v -9 2 4
v 3 1 4
v 3 2 4
v 3 3 4
v 4 1 4
v 4 2 4
v 4 3 4
v 6 1 4
v 6 2 4
v 6 3 4
v 7 1 4
v 7 2 4
v 7 3 4
v 9 1 4
v 9 2 4
v -9 2 -5
v -9 3 -5
v -8 2 -5
v -8 3 -5
v -7 2 -5
v -7 3 -5
v -6 2 -5
v -6 3 -5
v -12 0 -7
v -12 2 -7
v 12 0 -7
v 12 2 -7
v -12 0 7
v 12 0 7
v -9 0 4
v 9 0 4
v -9 0 -4
v 9 0 -4
v -12 0 -7
v 12 0 -7
v -9 1 4
v 3 1 4
v 4 1 4
v 6 1 4
v 7 1 4
v 9 1 4
v -9 1 -4
v 9 1 -4
v -12 2 7
v 12 2 7
v -11 2 6
v 11 2 6
v -10 2 5
v 3 2 5
v 4 2 5
v 6 2 5
v 7 2 5
v 10 2 5
v -9 2 4
v 3 2 4
v 4 2 4
v 6 2 4
v 7 2 4
v 9 2 4
v -9 2 -4
v -8 2 -4
v -7 2 -4
v -6 2 -4
v 9 2 -4
v -10 2 -5
v -9 2 -5
v -8 2 -5
v -7 2 -5
v -6 2 -5
v 10 2 -5
v -11 2 -6
v 11 2 -6
v -12 2 -7
v 12 2 -7
v 3 3 5
v 4 3 5
v 6 3 5
v 7 3 5
v 3 3 4
v 4 3 4
v 6 3 4
v 7 3 4
v -9 3 -4
v -8 3 -4
v -7 3 -4
v -6 3 -4
v -9 3 -5
v -8 3 -5
v -7 3 -5
v -6 3 -5

# faces
f 3/3/1 2/3/1 1/3/1
f 4/3/1 2/3/1 3/3/1
f 7/3/1 6/3/1 5/3/1
f 8/3/1 6/3/1 7/3/1
f 11/3/1 10/3/1 9/3/1
f 12/3/1 10/3/1 11/3/1
f 15/3/1 14/3/1 13/3/1
f 16/3/1 14/3/1 15/3/1
f 19/3/1 18/3/1 17/3/1
f 20/3/1 18/3/1 19/3/1
f 23/3/1 22/3/1 21/3/1
f 24/3/1 22/3/1 23/3/1
f 25/3/2 26/3/2 27/3/2
f 27/3/2 26/3/2 28/3/2
f 29/3/2 30/3/2 31/3/2
f 31/3/2 30/3/2 32/3/2
f 33/3/2 34/3/2 35/3/2
f 35/3/2 34/3/2 36/3/2
f 37/3/2 38/3/2 39/3/2
f 39/3/2 38/3/2 40/3/2
f 41/3/2 42/3/2 43/3/2
f 43/3/2 42/3/2 44/3/2
f 45/3/2 46/3/2 47/3/2
f 47/3/2 46/3/2 48/3/2
f 51/3/3 50/3/3 49/3/3
f 52/3/3 50/3/3 51/3/3
f 55/3/3 54/3/3 53/3/3
f 56/3/3 54/3/3 55/3/3
f 59/3/3 58/3/3 57/3/3
f 60/3/3 58/3/3 59/3/3
f 64/3/3 62/3/3 61/3/3
f 64/3/3 63/3/3 62/3/3
f 65/3/3 63/3/3 64/3/3
f 66/3/3 64/3/3 61/3/3
f 68/3/3 66/3/3 61/3/3
f 68/3/3 67/3/3 66/3/3
f 69/3/3 67/3/3 68/3/3
f 70/3/3 68/3/3 61/3/3
f 71/3/3 68/3/3 70/3/3
f 72/3/4 73/3/4 74/3/4
f 74/3/4 73/3/4 75/3/4
f 74/2/4 75/2/4 77/2/4
f 75/3/4 76/3/4 78/3/4
f 77/2/4 75/2/4 78/2/4
f 78/3/4 76/3/4 79/3/4
f 77/3/4 78/3/4 80/3/4
f 80/3/4 78/3/4 81/3/4
f 80/2/4 81/2/4 83/2/4
f 81/3/4 82/3/4 84/3/4
f 83/2/4 81/2/4 84/2/4
f 84/3/4 82/3/4 85/3/4
f 83/3/4 84/3/4 86/3/4
f 86/3/4 84/3/4 87/3/4
f 88/3/4 89/3/4 90/3/4
f 90/3/4 89/3/4 91/3/4
f 92/3/4 93/3/4 94/3/4
f 94/3/4 93/3/4 95/3/4
f 96/3/4 97/3/4 98/3/4
f 98/3/4 97/3/4 99/3/4
f 102/3/5 101/3/5 100/3/5
f 103/3/5 101/3/5 102/3/5
f 104/3/5 102/3/5 100/3/5
f 104/1/5 103/1/5 102/1/5
f 105/3/5 101/3/5 103/3/5
f 105/1/5 103/1/5 104/1/5
f 106/3/5 104/3/5 100/3/5
f 106/3/5 105/3/5 104/3/5
f 107/3/5 101/3/5 105/3/5
f 107/3/5 105/3/5 106/3/5
f 108/1/6 109/1/6 114/1/6
f 112/1/6 113/1/6 114/1/6
f 111/1/6 112/1/6 114/1/6
f 110/1/6 111/1/6 114/1/6
f 109/1/6 110/1/6 114/1/6
f 114/1/6 113/1/6 115/1/6
f 116/3/6 117/3/6 118/3/6
f 118/3/6 117/3/6 119/3/6
f 118/2/6 119/2/6 120/2/6
f 120/2/6 119/2/6 121/2/6
f 121/2/6 119/2/6 122/2/6
f 122/2/6 119/2/6 123/2/6
f 123/2/6 119/2/6 124/2/6
f 124/2/6 119/2/6 125/2/6
f 120/3/6 121/3/6 126/3/6
f 126/3/6 121/3/6 127/3/6
f 122/3/6 123/3/6 128/3/6
f 128/3/6 123/3/6 129/3/6
f 124/3/6 125/3/6 130/3/6
f 130/3/6 125/3/6 131/3/6
f 120/3/6 126/3/6 132/3/6
f 131/3/6 125/3/6 136/3/6
f 118/2/6 120/2/6 137/2/6
f 120/3/6 132/3/6 137/3/6
f 137/3/6 132/3/6 138/3/6
f 133/3/6 134/3/6 139/3/6
f 139/3/6 134/3/6 140/3/6
f 135/3/6 136/3/6 141/3/6
f 125/2/6 119/2/6 142/2/6
f 136/3/6 125/3/6 142/3/6
f 141/3/6 136/3/6 142/3/6
f 116/3/6 118/3/6 143/3/6
f 139/2/6 140/2/6 143/2/6
f 141/2/6 142/2/6 143/2/6
f 138/2/6 139/2/6 143/2/6
f 140/2/6 141/2/6 143/2/6
f 118/2/6 137/2/6 143/2/6
f 137/2/6 138/2/6 143/2/6
f 142/2/6 119/2/6 144/2/6
f 143/2/6 142/2/6 144/2/6
f 119/3/6 117/3/6 144/3/6
f 116/3/6 143/3/6 145/3/6
f 143/3/6 144/3/6 145/3/6
f 144/3/6 117/3/6 146/3/6
f 145/3/6 144/3/6 146/3/6
f 147/3/6 148/3/6 151/3/6
f 151/3/6 148/3/6 152/3/6
f 149/3/6 150/3/6 153/3/6
f 153/3/6 150/3/6 154/3/6
f 155/3/6 156/3/6 159/3/6
f 159/3/6 156/3/6 160/3/6
f 157/3/6 158/3/6 161/3/6
f 161/3/6 158/3/6 162/3/6
