# MagicaVoxel @ Ephtracy

# material
mtllib Stairs01.mtl
usemtl palette

# normals
vn -1 0 0
vn 1 0 0
vn 0 0 1
vn 0 0 -1
vn 0 -1 0
vn 0 1 0

# texcoords
vt 0.908203 0.5
vt 0.970703 0.5
vt 0.982422 0.5
vt 0.986328 0.5

# verts
v -4.5 6 5
v -4.5 6 4
v -4.5 6 -4
v -4.5 6 -5
v -4.5 7 5
v -4.5 7 4
v -4.5 7 -4
v -4.5 7 -5
v -4.5 9 5
v -4.5 9 4
v -4.5 9 -4
v -4.5 9 -5
v -4.5 10 5
v -4.5 10 4
v -4.5 10 -4
v -4.5 10 -5
v -4.5 12 5
v -4.5 12 4
v -4.5 12 -4
v -4.5 12 -5
v -3.5 5 5
v -3.5 5 4
v -3.5 5 -4
v -3.5 5 -5
v -3.5 6 5
v -3.5 6 4
v -3.5 6 -4
v -3.5 6 -5
v -2.5 4 5
v -2.5 4 4
v -2.5 4 -4
v -2.5 4 -5
v -2.5 5 5
v -2.5 5 4
v -2.5 5 -4
v -2.5 5 -5
v -2.5 9 5
v -2.5 9 4
v -2.5 9 -4
v -2.5 9 -5
v -2.5 10 5
v -2.5 10 4
v -2.5 10 -4
v -2.5 10 -5
v -1.5 3 5
v -1.5 3 4
v -1.5 3 -4
v -1.5 3 -5
v -1.5 4 5
v -1.5 4 4
v -1.5 4 -4
v -1.5 4 -5
v -1.5 8 5
v -1.5 8 4
v -1.5 8 -4
v -1.5 8 -5
v -1.5 9 5
v -1.5 9 4
v -1.5 9 -4
v -1.5 9 -5
v -0.5 2 5
v -0.5 2 4
v -0.5 2 -4
v -0.5 2 -5
v -0.5 3 5
v -0.5 3 4
v -0.5 3 -4
v -0.5 3 -5
v -0.5 7 5
v -0.5 7 4
v -0.5 7 -4
v -0.5 7 -5
v -0.5 8 5
v -0.5 8 4
v -0.5 8 -4
v -0.5 8 -5
v 0.5 1 5
v 0.5 1 4
v 0.5 1 -4
v 0.5 1 -5
v 0.5 2 5
v 0.5 2 4
v 0.5 2 -4
v 0.5 2 -5
v 0.5 6 5
v 0.5 6 4
v 0.5 6 -4
v 0.5 6 -5
v 0.5 7 5
v 0.5 7 4
v 0.5 7 -4
v 0.5 7 -5
v 1.5 0 5
v 1.5 0 4
v 1.5 0 -4
v 1.5 0 -5
v 1.5 1 5
v 1.5 1 4
v 1.5 1 -4
v 1.5 1 -5
v 1.5 5 5
v 1.5 5 4
v 1.5 5 -4
v 1.5 5 -5
v 1.5 6 5
v 1.5 6 4
v 1.5 6 -4
v 1.5 6 -5
v 2.5 4 5
v 2.5 4 4
v 2.5 4 -4
v 2.5 4 -5
v 2.5 5 5
v 2.5 5 4
v 2.5 5 -4
v 2.5 5 -5
v 3.5 3 5
v 3.5 3 4
v 3.5 3 -4
v 3.5 3 -5
v 3.5 4 5
v 3.5 4 4
v 3.5 4 -4
v 3.5 4 -5
v -3.5 8 4
v -3.5 8 -4
v -3.5 9 5
v -3.5 9 4
v -3.5 9 -4
v -3.5 9 -5
v -3.5 10 5
v -3.5 10 4
v -3.5 10 -4
v -3.5 10 -5
v -3.5 11 5
v -3.5 11 4
v -3.5 11 -4
v -3.5 11 -5
v -3.5 12 5
v -3.5 12 4
v -3.5 12 -4
v -3.5 12 -5
v -2.5 7 4
v -2.5 7 -4
v -2.5 8 5
v -2.5 8 4
v -2.5 8 -4
v -2.5 8 -5
v -2.5 9 5
v -2.5 9 4
v -2.5 9 -4
v -2.5 9 -5
v -2.5 10 5
v -2.5 10 4
v -2.5 10 -4
v -2.5 10 -5
v -2.5 11 5
v -2.5 11 4
v -2.5 11 -4
v -2.5 11 -5
v -1.5 6 4
v -1.5 6 -4
v -1.5 7 5
v -1.5 7 4
v -1.5 7 -4
v -1.5 7 -5
v -1.5 8 5
v -1.5 8 4
v -1.5 8 -4
v -1.5 8 -5
v -1.5 9 5
v -1.5 9 4
v -1.5 9 -4
v -1.5 9 -5
v -1.5 10 5
v -1.5 10 4
v -1.5 10 -4
v -1.5 10 -5
v -0.5 5 4
v -0.5 5 -4
v -0.5 6 5
v -0.5 6 4
v -0.5 6 -4
v -0.5 6 -5
v -0.5 7 5
v -0.5 7 4
v -0.5 7 -4
v -0.5 7 -5
v -0.5 8 5
v -0.5 8 4
v -0.5 8 -4
v -0.5 8 -5
v -0.5 9 5
v -0.5 9 4
v -0.5 9 -4
v -0.5 9 -5
v 0.5 4 4
v 0.5 4 -4
v 0.5 5 5
v 0.5 5 4
v 0.5 5 -4
v 0.5 5 -5
v 0.5 6 5
v 0.5 6 4
v 0.5 6 -4
v 0.5 6 -5
v 0.5 7 5
v 0.5 7 4
v 0.5 7 -4
v 0.5 7 -5
v 0.5 8 5
v 0.5 8 4
v 0.5 8 -4
v 0.5 8 -5
v 1.5 3 4
v 1.5 3 -4
v 1.5 4 5
v 1.5 4 4
v 1.5 4 -4
v 1.5 4 -5
v 1.5 5 5
v 1.5 5 4
v 1.5 5 -4
v 1.5 5 -5
v 1.5 6 5
v 1.5 6 4
v 1.5 6 -4
v 1.5 6 -5
v 1.5 7 5
v 1.5 7 4
v 1.5 7 -4
v 1.5 7 -5
v 2.5 2 4
v 2.5 2 -4
v 2.5 3 5
v 2.5 3 4
v 2.5 3 -4
v 2.5 3 -5
v 2.5 4 5
v 2.5 4 4
v 2.5 4 -4
v 2.5 4 -5
v 2.5 5 5
v 2.5 5 4
v 2.5 5 -4
v 2.5 5 -5
v 2.5 6 5
v 2.5 6 4
v 2.5 6 -4
v 2.5 6 -5
v 3.5 1 4
v 3.5 1 -4
v 3.5 2 4
v 3.5 2 -4
v 3.5 4 5
v 3.5 4 4
v 3.5 4 -4
v 3.5 4 -5
v 3.5 5 5
v 3.5 5 4
v 3.5 5 -4
v 3.5 5 -5
v 4.5 0 5
v 4.5 0 4
v 4.5 0 -4
v 4.5 0 -5
v 4.5 1 5
v 4.5 1 4
v 4.5 1 -4
v 4.5 1 -5
v 4.5 2 5
v 4.5 2 4
v 4.5 2 -4
v 4.5 2 -5
v 4.5 4 5
v 4.5 4 4
v 4.5 4 -4
v 4.5 4 -5
v -4.5 6 5
v -4.5 7 5
v -4.5 9 5
v -4.5 10 5
v -4.5 12 5
v -3.5 5 5
v -3.5 6 5
v -3.5 7 5
v -3.5 8 5
v -3.5 9 5
v -3.5 10 5
v -3.5 11 5
v -3.5 12 5
v -2.5 4 5
v -2.5 5 5
v -2.5 6 5
v -2.5 7 5
v -2.5 8 5
v -2.5 9 5
v -2.5 10 5
v -2.5 11 5
v -1.5 3 5
v -1.5 4 5
v -1.5 5 5
v -1.5 6 5
v -1.5 7 5
v -1.5 8 5
v -1.5 9 5
v -1.5 10 5
v -0.5 2 5
v -0.5 3 5
v -0.5 4 5
v -0.5 5 5
v -0.5 6 5
v -0.5 7 5
v -0.5 8 5
v -0.5 9 5
v 0.5 1 5
v 0.5 2 5
v 0.5 3 5
v 0.5 4 5
v 0.5 5 5
v 0.5 6 5
v 0.5 7 5
v 0.5 8 5
v 1.5 0 5
v 1.5 1 5
v 1.5 2 5
v 1.5 3 5
v 1.5 4 5
v 1.5 5 5
v 1.5 6 5
v 1.5 7 5
v 2.5 0 5
v 2.5 1 5
v 2.5 2 5
v 2.5 3 5
v 2.5 4 5
v 2.5 5 5
v 2.5 6 5
v 3.5 1 5
v 3.5 2 5
v 3.5 3 5
v 3.5 4 5
v 3.5 5 5
v 4.5 0 5
v 4.5 1 5
v 4.5 2 5
v 4.5 4 5
v -4.5 9 -4
v -4.5 10 -4
v -4.5 12 -4
v -3.5 8 -4
v -3.5 9 -4
v -3.5 10 -4
v -3.5 11 -4
v -3.5 12 -4
v -2.5 7 -4
v -2.5 8 -4
v -2.5 9 -4
v -2.5 10 -4
v -2.5 11 -4
v -1.5 6 -4
v -1.5 7 -4
v -1.5 8 -4
v -1.5 9 -4
v -1.5 10 -4
v -0.5 5 -4
v -0.5 6 -4
v -0.5 7 -4
v -0.5 8 -4
v -0.5 9 -4
v 0.5 4 -4
v 0.5 5 -4
v 0.5 6 -4
v 0.5 7 -4
v 0.5 8 -4
v 1.5 3 -4
v 1.5 4 -4
v 1.5 5 -4
v 1.5 6 -4
v 1.5 7 -4
v 2.5 2 -4
v 2.5 3 -4
v 2.5 4 -4
v 2.5 5 -4
v 2.5 6 -4
v 3.5 1 -4
v 3.5 2 -4
v 3.5 3 -4
v 3.5 4 -4
v 3.5 5 -4
v 4.5 1 -4
v 4.5 2 -4
v 4.5 4 -4
v -4.5 9 4
v -4.5 10 4
v -4.5 12 4
v -3.5 8 4
v -3.5 9 4
v -3.5 10 4
v -3.5 11 4
v -3.5 12 4
v -2.5 7 4
v -2.5 8 4
v -2.5 9 4
v -2.5 10 4
v -2.5 11 4
v -1.5 6 4
v -1.5 7 4
v -1.5 8 4
v -1.5 9 4
v -1.5 10 4
v -0.5 5 4
v -0.5 6 4
v -0.5 7 4
v -0.5 8 4
v -0.5 9 4
v 0.5 4 4
v 0.5 5 4
v 0.5 6 4
v 0.5 7 4
v 0.5 8 4
v 1.5 3 4
v 1.5 4 4
v 1.5 5 4
v 1.5 6 4
v 1.5 7 4
v 2.5 2 4
v 2.5 3 4
v 2.5 4 4
v 2.5 5 4
v 2.5 6 4
v 3.5 1 4
v 3.5 2 4
v 3.5 3 4
v 3.5 4 4
v 3.5 5 4
v 4.5 1 4
v 4.5 2 4
v 4.5 4 4
v -4.5 6 -5
v -4.5 7 -5
v -4.5 9 -5
v -4.5 10 -5
v -4.5 12 -5
v -3.5 5 -5
v -3.5 6 -5
v -3.5 7 -5
v -3.5 8 -5
v -3.5 9 -5
v -3.5 10 -5
v -3.5 11 -5
v -3.5 12 -5
v -2.5 4 -5
v -2.5 5 -5
v -2.5 6 -5
v -2.5 7 -5
v -2.5 8 -5
v -2.5 9 -5
v -2.5 10 -5
v -2.5 11 -5
v -1.5 3 -5
v -1.5 4 -5
v -1.5 5 -5
v -1.5 6 -5
v -1.5 7 -5
v -1.5 8 -5
v -1.5 9 -5
v -1.5 10 -5
v -0.5 2 -5
v -0.5 3 -5
v -0.5 4 -5
v -0.5 5 -5
v -0.5 6 -5
v -0.5 7 -5
v -0.5 8 -5
v -0.5 9 -5
v 0.5 1 -5
v 0.5 2 -5
v 0.5 3 -5
v 0.5 4 -5
v 0.5 5 -5
v 0.5 6 -5
v 0.5 7 -5
v 0.5 8 -5
v 1.5 0 -5
v 1.5 1 -5
v 1.5 2 -5
v 1.5 3 -5
v 1.5 4 -5
v 1.5 5 -5
v 1.5 6 -5
v 1.5 7 -5
v 2.5 0 -5
v 2.5 1 -5
v 2.5 2 -5
v 2.5 3 -5
v 2.5 4 -5
v 2.5 5 -5
v 2.5 6 -5
v 3.5 1 -5
v 3.5 2 -5
v 3.5 3 -5
v 3.5 4 -5
v 3.5 5 -5
v 4.5 0 -5
v 4.5 1 -5
v 4.5 2 -5
v 4.5 4 -5
v 1.5 0 5
v 2.5 0 5
v 4.5 0 5
v 1.5 0 4
v 2.5 0 4
v 3.5 0 4
v 4.5 0 4
v 1.5 0 -4
v 2.5 0 -4
v 3.5 0 -4
v 4.5 0 -4
v 1.5 0 -5
v 2.5 0 -5
v 4.5 0 -5
v 0.5 1 5
v 1.5 1 5
v 0.5 1 4
v 1.5 1 4
v 0.5 1 -4
v 1.5 1 -4
v 0.5 1 -5
v 1.5 1 -5
v -0.5 2 5
v 0.5 2 5
v -0.5 2 4
v 0.5 2 4
v -0.5 2 -4
v 0.5 2 -4
v -0.5 2 -5
v 0.5 2 -5
v -1.5 3 5
v -0.5 3 5
v -1.5 3 4
v -0.5 3 4
v -1.5 3 -4
v -0.5 3 -4
v -1.5 3 -5
v -0.5 3 -5
v -2.5 4 5
v -1.5 4 5
v 2.5 4 5
v 3.5 4 5
v -2.5 4 4
v -1.5 4 4
v 2.5 4 4
v 3.5 4 4
v -2.5 4 -4
v -1.5 4 -4
v 2.5 4 -4
v 3.5 4 -4
v -2.5 4 -5
v -1.5 4 -5
v 2.5 4 -5
v 3.5 4 -5
v -3.5 5 5
v -2.5 5 5
v 1.5 5 5
v 2.5 5 5
v -3.5 5 4
v -2.5 5 4
v 1.5 5 4
v 2.5 5 4
v -3.5 5 -4
v -2.5 5 -4
v 1.5 5 -4
v 2.5 5 -4
v -3.5 5 -5
v -2.5 5 -5
v 1.5 5 -5
v 2.5 5 -5
v -4.5 6 5
v -3.5 6 5
v 0.5 6 5
v 1.5 6 5
v -4.5 6 4
v -3.5 6 4
v 0.5 6 4
v 1.5 6 4
v -4.5 6 -4
v -3.5 6 -4
v 0.5 6 -4
v 1.5 6 -4
v -4.5 6 -5
v -3.5 6 -5
v 0.5 6 -5
v 1.5 6 -5
v -0.5 7 5
v 0.5 7 5
v -0.5 7 4
v 0.5 7 4
v -0.5 7 -4
v 0.5 7 -4
v -0.5 7 -5
v 0.5 7 -5
v -1.5 8 5
v -0.5 8 5
v -1.5 8 4
v -0.5 8 4
v -1.5 8 -4
v -0.5 8 -4
v -1.5 8 -5
v -0.5 8 -5
v -2.5 9 5
v -1.5 9 5
v -2.5 9 4
v -1.5 9 4
v -2.5 9 -4
v -1.5 9 -4
v -2.5 9 -5
v -1.5 9 -5
v -3.5 10 5
v -2.5 10 5
v -3.5 10 4
v -2.5 10 4
v -3.5 10 -4
v -2.5 10 -4
v -3.5 10 -5
v -2.5 10 -5
v 3.5 1 4
v 4.5 1 4
v 3.5 1 -4
v 4.5 1 -4
v 2.5 2 4
v 3.5 2 4
v 2.5 2 -4
v 3.5 2 -4
v 2.5 3 5
v 3.5 3 5
v 1.5 3 4
v 2.5 3 4
v 3.5 3 4
v 1.5 3 -4
v 2.5 3 -4
v 3.5 3 -4
v 2.5 3 -5
v 3.5 3 -5
v 1.5 4 5
v 2.5 4 5
v 3.5 4 5
v 4.5 4 5
v 0.5 4 4
v 1.5 4 4
v 2.5 4 4
v 3.5 4 4
v 4.5 4 4
v 0.5 4 -4
v 1.5 4 -4
v 2.5 4 -4
v 3.5 4 -4
v 4.5 4 -4
v 1.5 4 -5
v 2.5 4 -5
v 3.5 4 -5
v 4.5 4 -5
v 0.5 5 5
v 1.5 5 5
v 2.5 5 5
v 3.5 5 5
v -0.5 5 4
v 0.5 5 4
v 1.5 5 4
v 2.5 5 4
v 3.5 5 4
v -0.5 5 -4
v 0.5 5 -4
v 1.5 5 -4
v 2.5 5 -4
v 3.5 5 -4
v 0.5 5 -5
v 1.5 5 -5
v 2.5 5 -5
v 3.5 5 -5
v -0.5 6 5
v 0.5 6 5
v 1.5 6 5
v 2.5 6 5
v -1.5 6 4
v -0.5 6 4
v 0.5 6 4
v 1.5 6 4
v 2.5 6 4
v -1.5 6 -4
v -0.5 6 -4
v 0.5 6 -4
v 1.5 6 -4
v 2.5 6 -4
v -0.5 6 -5
v 0.5 6 -5
v 1.5 6 -5
v 2.5 6 -5
v -1.5 7 5
v -0.5 7 5
v 0.5 7 5
v 1.5 7 5
v -2.5 7 4
v -1.5 7 4
v -0.5 7 4
v 0.5 7 4
v 1.5 7 4
v -2.5 7 -4
v -1.5 7 -4
v -0.5 7 -4
v 0.5 7 -4
v 1.5 7 -4
v -1.5 7 -5
v -0.5 7 -5
v 0.5 7 -5
v 1.5 7 -5
v -2.5 8 5
v -1.5 8 5
v -0.5 8 5
v 0.5 8 5
v -3.5 8 4
v -2.5 8 4
v -1.5 8 4
v -0.5 8 4
v 0.5 8 4
v -3.5 8 -4
v -2.5 8 -4
v -1.5 8 -4
v -0.5 8 -4
v 0.5 8 -4
v -2.5 8 -5
v -1.5 8 -5
v -0.5 8 -5
v 0.5 8 -5
v -3.5 9 5
v -2.5 9 5
v -1.5 9 5
v -0.5 9 5
v -4.5 9 4
v -3.5 9 4
v -2.5 9 4
v -1.5 9 4
v -0.5 9 4
v -4.5 9 -4
v -3.5 9 -4
v -2.5 9 -4
v -1.5 9 -4
v -0.5 9 -4
v -3.5 9 -5
v -2.5 9 -5
v -1.5 9 -5
v -0.5 9 -5
v -2.5 10 5
v -1.5 10 5
v -2.5 10 4
v -1.5 10 4
v -2.5 10 -4
v -1.5 10 -4
v -2.5 10 -5
v -1.5 10 -5
v -3.5 11 5
v -2.5 11 5
v -3.5 11 4
v -2.5 11 4
v -3.5 11 -4
v -2.5 11 -4
v -3.5 11 -5
v -2.5 11 -5
v -4.5 12 5
v -3.5 12 5
v -4.5 12 4
v -3.5 12 4
v -4.5 12 -4
v -3.5 12 -4
v -4.5 12 -5
v -3.5 12 -5

# faces
f 5/4/1 2/4/1 1/4/1
f 6/1/1 3/1/1 2/1/1
f 6/4/1 2/4/1 5/4/1
f 7/4/1 4/4/1 3/4/1
f 7/1/1 3/1/1 6/1/1
f 8/4/1 4/4/1 7/4/1
f 9/1/1 6/1/1 5/1/1
f 10/3/1 7/3/1 6/3/1
f 10/1/1 6/1/1 9/1/1
f 11/1/1 8/1/1 7/1/1
f 11/3/1 7/3/1 10/3/1
f 12/1/1 8/1/1 11/1/1
f 13/4/1 10/4/1 9/4/1
f 14/4/1 10/4/1 13/4/1
f 15/4/1 12/4/1 11/4/1
f 16/4/1 12/4/1 15/4/1
f 17/2/1 14/2/1 13/2/1
f 18/2/1 14/2/1 17/2/1
f 19/2/1 16/2/1 15/2/1
f 20/2/1 16/2/1 19/2/1
f 25/4/1 22/4/1 21/4/1
f 26/1/1 23/1/1 22/1/1
f 26/4/1 22/4/1 25/4/1
f 27/4/1 24/4/1 23/4/1
f 27/1/1 23/1/1 26/1/1
f 28/4/1 24/4/1 27/4/1
f 33/4/1 30/4/1 29/4/1
f 34/1/1 31/1/1 30/1/1
f 34/4/1 30/4/1 33/4/1
f 35/4/1 32/4/1 31/4/1
f 35/1/1 31/1/1 34/1/1
f 36/4/1 32/4/1 35/4/1
f 41/2/1 38/2/1 37/2/1
f 42/2/1 38/2/1 41/2/1
f 43/2/1 40/2/1 39/2/1
f 44/2/1 40/2/1 43/2/1
f 49/4/1 46/4/1 45/4/1
f 50/1/1 47/1/1 46/1/1
f 50/4/1 46/4/1 49/4/1
f 51/4/1 48/4/1 47/4/1
f 51/1/1 47/1/1 50/1/1
f 52/4/1 48/4/1 51/4/1
f 57/2/1 54/2/1 53/2/1
f 58/2/1 54/2/1 57/2/1
f 59/2/1 56/2/1 55/2/1
f 60/2/1 56/2/1 59/2/1
f 65/4/1 62/4/1 61/4/1
f 66/1/1 63/1/1 62/1/1
f 66/4/1 62/4/1 65/4/1
f 67/4/1 64/4/1 63/4/1
f 67/1/1 63/1/1 66/1/1
f 68/4/1 64/4/1 67/4/1
f 73/2/1 70/2/1 69/2/1
f 74/2/1 70/2/1 73/2/1
f 75/2/1 72/2/1 71/2/1
f 76/2/1 72/2/1 75/2/1
f 81/4/1 78/4/1 77/4/1
f 82/1/1 79/1/1 78/1/1
f 82/4/1 78/4/1 81/4/1
f 83/4/1 80/4/1 79/4/1
f 83/1/1 79/1/1 82/1/1
f 84/4/1 80/4/1 83/4/1
f 89/2/1 86/2/1 85/2/1
f 90/2/1 86/2/1 89/2/1
f 91/2/1 88/2/1 87/2/1
f 92/2/1 88/2/1 91/2/1
f 97/4/1 94/4/1 93/4/1
f 98/1/1 95/1/1 94/1/1
f 98/4/1 94/4/1 97/4/1
f 99/4/1 96/4/1 95/4/1
f 99/1/1 95/1/1 98/1/1
f 100/4/1 96/4/1 99/4/1
f 105/2/1 102/2/1 101/2/1
f 106/2/1 102/2/1 105/2/1
f 107/2/1 104/2/1 103/2/1
f 108/2/1 104/2/1 107/2/1
f 113/2/1 110/2/1 109/2/1
f 114/2/1 110/2/1 113/2/1
f 115/2/1 112/2/1 111/2/1
f 116/2/1 112/2/1 115/2/1
f 121/2/1 118/2/1 117/2/1
f 122/2/1 118/2/1 121/2/1
f 123/2/1 120/2/1 119/2/1
f 124/2/1 120/2/1 123/2/1
f 125/3/2 126/3/2 128/3/2
f 128/3/2 126/3/2 129/3/2
f 127/4/2 128/4/2 131/4/2
f 131/4/2 128/4/2 132/4/2
f 129/4/2 130/4/2 133/4/2
f 133/4/2 130/4/2 134/4/2
f 135/2/2 136/2/2 139/2/2
f 139/2/2 136/2/2 140/2/2
f 137/2/2 138/2/2 141/2/2
f 141/2/2 138/2/2 142/2/2
f 143/3/2 144/3/2 146/3/2
f 146/3/2 144/3/2 147/3/2
f 145/4/2 146/4/2 149/4/2
f 149/4/2 146/4/2 150/4/2
f 147/4/2 148/4/2 151/4/2
f 151/4/2 148/4/2 152/4/2
f 153/2/2 154/2/2 157/2/2
f 157/2/2 154/2/2 158/2/2
f 155/2/2 156/2/2 159/2/2
f 159/2/2 156/2/2 160/2/2
f 161/3/2 162/3/2 164/3/2
f 164/3/2 162/3/2 165/3/2
f 163/4/2 164/4/2 167/4/2
f 167/4/2 164/4/2 168/4/2
f 165/4/2 166/4/2 169/4/2
f 169/4/2 166/4/2 170/4/2
f 171/2/2 172/2/2 175/2/2
f 175/2/2 172/2/2 176/2/2
f 173/2/2 174/2/2 177/2/2
f 177/2/2 174/2/2 178/2/2
f 179/3/2 180/3/2 182/3/2
f 182/3/2 180/3/2 183/3/2
f 181/4/2 182/4/2 185/4/2
f 185/4/2 182/4/2 186/4/2
f 183/4/2 184/4/2 187/4/2
f 187/4/2 184/4/2 188/4/2
f 189/2/2 190/2/2 193/2/2
f 193/2/2 190/2/2 194/2/2
f 191/2/2 192/2/2 195/2/2
f 195/2/2 192/2/2 196/2/2
f 197/3/2 198/3/2 200/3/2
f 200/3/2 198/3/2 201/3/2
f 199/4/2 200/4/2 203/4/2
f 203/4/2 200/4/2 204/4/2
f 201/4/2 202/4/2 205/4/2
f 205/4/2 202/4/2 206/4/2
f 207/2/2 208/2/2 211/2/2
f 211/2/2 208/2/2 212/2/2
f 209/2/2 210/2/2 213/2/2
f 213/2/2 210/2/2 214/2/2
f 215/3/2 216/3/2 218/3/2
f 218/3/2 216/3/2 219/3/2
f 217/4/2 218/4/2 221/4/2
f 221/4/2 218/4/2 222/4/2
f 219/4/2 220/4/2 223/4/2
f 223/4/2 220/4/2 224/4/2
f 225/2/2 226/2/2 229/2/2
f 229/2/2 226/2/2 230/2/2
f 227/2/2 228/2/2 231/2/2
f 231/2/2 228/2/2 232/2/2
f 233/3/2 234/3/2 236/3/2
f 236/3/2 234/3/2 237/3/2
f 235/4/2 236/4/2 239/4/2
f 239/4/2 236/4/2 240/4/2
f 237/4/2 238/4/2 241/4/2
f 241/4/2 238/4/2 242/4/2
f 243/2/2 244/2/2 247/2/2
f 247/2/2 244/2/2 248/2/2
f 245/2/2 246/2/2 249/2/2
f 249/2/2 246/2/2 250/2/2
f 251/3/2 252/3/2 253/3/2
f 253/3/2 252/3/2 254/3/2
f 255/2/2 256/2/2 259/2/2
f 259/2/2 256/2/2 260/2/2
f 257/2/2 258/2/2 261/2/2
f 261/2/2 258/2/2 262/2/2
f 263/1/2 264/1/2 267/1/2
f 264/2/2 265/2/2 268/2/2
f 267/1/2 264/1/2 268/1/2
f 265/1/2 266/1/2 269/1/2
f 268/2/2 265/2/2 269/2/2
f 269/1/2 266/1/2 270/1/2
f 267/4/2 268/4/2 271/4/2
f 271/4/2 268/4/2 272/4/2
f 269/4/2 270/4/2 273/4/2
f 273/4/2 270/4/2 274/4/2
f 271/2/2 272/2/2 275/2/2
f 275/2/2 272/2/2 276/2/2
f 273/2/2 274/2/2 277/2/2
f 277/2/2 274/2/2 278/2/2
f 285/4/3 280/4/3 279/4/3
f 286/1/3 281/1/3 280/1/3
f 286/4/3 280/4/3 285/4/3
f 287/1/3 281/1/3 286/1/3
f 288/4/3 282/4/3 281/4/3
f 288/1/3 281/1/3 287/1/3
f 289/2/3 283/2/3 282/2/3
f 289/4/3 282/4/3 288/4/3
f 290/2/3 283/2/3 289/2/3
f 291/2/3 283/2/3 290/2/3
f 293/4/3 285/4/3 284/4/3
f 294/1/3 287/1/3 286/1/3
f 294/1/3 286/1/3 285/1/3
f 294/4/3 285/4/3 293/4/3
f 295/1/3 287/1/3 294/1/3
f 296/4/3 288/4/3 287/4/3
f 296/1/3 287/1/3 295/1/3
f 297/4/3 288/4/3 296/4/3
f 298/2/3 290/2/3 289/2/3
f 299/2/3 290/2/3 298/2/3
f 301/4/3 293/4/3 292/4/3
f 302/1/3 295/1/3 294/1/3
f 302/1/3 294/1/3 293/1/3
f 302/4/3 293/4/3 301/4/3
f 303/1/3 295/1/3 302/1/3
f 304/4/3 296/4/3 295/4/3
f 304/1/3 295/1/3 303/1/3
f 305/4/3 296/4/3 304/4/3
f 306/2/3 298/2/3 297/2/3
f 307/2/3 298/2/3 306/2/3
f 309/4/3 301/4/3 300/4/3
f 310/1/3 303/1/3 302/1/3
f 310/1/3 302/1/3 301/1/3
f 310/4/3 301/4/3 309/4/3
f 311/1/3 303/1/3 310/1/3
f 312/4/3 304/4/3 303/4/3
f 312/1/3 303/1/3 311/1/3
f 313/4/3 304/4/3 312/4/3
f 314/2/3 306/2/3 305/2/3
f 315/2/3 306/2/3 314/2/3
f 317/4/3 309/4/3 308/4/3
f 318/1/3 311/1/3 310/1/3
f 318/1/3 310/1/3 309/1/3
f 318/4/3 309/4/3 317/4/3
f 319/1/3 311/1/3 318/1/3
f 320/4/3 312/4/3 311/4/3
f 320/1/3 311/1/3 319/1/3
f 321/4/3 312/4/3 320/4/3
f 322/2/3 314/2/3 313/2/3
f 323/2/3 314/2/3 322/2/3
f 325/4/3 317/4/3 316/4/3
f 326/1/3 319/1/3 318/1/3
f 326/1/3 318/1/3 317/1/3
f 326/4/3 317/4/3 325/4/3
f 327/1/3 319/1/3 326/1/3
f 328/4/3 320/4/3 319/4/3
f 328/1/3 319/1/3 327/1/3
f 329/4/3 320/4/3 328/4/3
f 330/2/3 322/2/3 321/2/3
f 331/2/3 322/2/3 330/2/3
f 332/4/3 325/4/3 324/4/3
f 333/1/3 327/1/3 326/1/3
f 333/4/3 325/4/3 332/4/3
f 333/1/3 326/1/3 325/1/3
f 334/1/3 327/1/3 333/1/3
f 335/4/3 328/4/3 327/4/3
f 335/1/3 327/1/3 334/1/3
f 336/4/3 328/4/3 335/4/3
f 337/2/3 330/2/3 329/2/3
f 338/2/3 330/2/3 337/2/3
f 339/1/3 334/1/3 333/1/3
f 339/1/3 333/1/3 332/1/3
f 340/4/3 335/4/3 334/4/3
f 340/1/3 334/1/3 339/1/3
f 341/4/3 335/4/3 340/4/3
f 342/2/3 337/2/3 336/2/3
f 343/2/3 337/2/3 342/2/3
f 344/1/3 339/1/3 332/1/3
f 345/4/3 340/4/3 339/4/3
f 345/1/3 339/1/3 344/1/3
f 346/2/3 341/2/3 340/2/3
f 346/4/3 340/4/3 345/4/3
f 346/2/3 342/2/3 341/2/3
f 347/2/3 342/2/3 346/2/3
f 352/4/3 349/4/3 348/4/3
f 353/2/3 350/2/3 349/2/3
f 353/4/3 349/4/3 352/4/3
f 354/2/3 350/2/3 353/2/3
f 355/2/3 350/2/3 354/2/3
f 357/4/3 352/4/3 351/4/3
f 358/4/3 352/4/3 357/4/3
f 359/2/3 354/2/3 353/2/3
f 360/2/3 354/2/3 359/2/3
f 362/4/3 357/4/3 356/4/3
f 363/4/3 357/4/3 362/4/3
f 364/2/3 359/2/3 358/2/3
f 365/2/3 359/2/3 364/2/3
f 367/4/3 362/4/3 361/4/3
f 368/4/3 362/4/3 367/4/3
f 369/2/3 364/2/3 363/2/3
f 370/2/3 364/2/3 369/2/3
f 372/4/3 367/4/3 366/4/3
f 373/4/3 367/4/3 372/4/3
f 374/2/3 369/2/3 368/2/3
f 375/2/3 369/2/3 374/2/3
f 377/4/3 372/4/3 371/4/3
f 378/4/3 372/4/3 377/4/3
f 379/2/3 374/2/3 373/2/3
f 380/2/3 374/2/3 379/2/3
f 382/4/3 377/4/3 376/4/3
f 383/4/3 377/4/3 382/4/3
f 384/2/3 379/2/3 378/2/3
f 385/2/3 379/2/3 384/2/3
f 387/4/3 382/4/3 381/4/3
f 388/4/3 382/4/3 387/4/3
f 389/2/3 384/2/3 383/2/3
f 390/2/3 384/2/3 389/2/3
f 391/4/3 387/4/3 386/4/3
f 392/2/3 388/2/3 387/2/3
f 392/4/3 387/4/3 391/4/3
f 392/2/3 389/2/3 388/2/3
f 393/2/3 389/2/3 392/2/3
f 394/4/4 395/4/4 398/4/4
f 395/2/4 396/2/4 399/2/4
f 398/4/4 395/4/4 399/4/4
f 399/2/4 396/2/4 400/2/4
f 400/2/4 396/2/4 401/2/4
f 397/4/4 398/4/4 403/4/4
f 403/4/4 398/4/4 404/4/4
f 399/2/4 400/2/4 405/2/4
f 405/2/4 400/2/4 406/2/4
f 402/4/4 403/4/4 408/4/4
f 408/4/4 403/4/4 409/4/4
f 404/2/4 405/2/4 410/2/4
f 410/2/4 405/2/4 411/2/4
f 407/4/4 408/4/4 413/4/4
f 413/4/4 408/4/4 414/4/4
f 409/2/4 410/2/4 415/2/4
f 415/2/4 410/2/4 416/2/4
f 412/4/4 413/4/4 418/4/4
f 418/4/4 413/4/4 419/4/4
f 414/2/4 415/2/4 420/2/4
f 420/2/4 415/2/4 421/2/4
f 417/4/4 418/4/4 423/4/4
f 423/4/4 418/4/4 424/4/4
f 419/2/4 420/2/4 425/2/4
f 425/2/4 420/2/4 426/2/4
f 422/4/4 423/4/4 428/4/4
f 428/4/4 423/4/4 429/4/4
f 424/2/4 425/2/4 430/2/4
f 430/2/4 425/2/4 431/2/4
f 427/4/4 428/4/4 433/4/4
f 433/4/4 428/4/4 434/4/4
f 429/2/4 430/2/4 435/2/4
f 435/2/4 430/2/4 436/2/4
f 432/4/4 433/4/4 437/4/4
f 433/2/4 434/2/4 438/2/4
f 437/4/4 433/4/4 438/4/4
f 434/2/4 435/2/4 438/2/4
f 438/2/4 435/2/4 439/2/4
f 440/4/4 441/4/4 446/4/4
f 441/1/4 442/1/4 447/1/4
f 446/4/4 441/4/4 447/4/4
f 447/1/4 442/1/4 448/1/4
f 442/4/4 443/4/4 449/4/4
f 448/1/4 442/1/4 449/1/4
f 443/2/4 444/2/4 450/2/4
f 449/4/4 443/4/4 450/4/4
f 450/2/4 444/2/4 451/2/4
f 451/2/4 444/2/4 452/2/4
f 445/4/4 446/4/4 454/4/4
f 447/1/4 448/1/4 455/1/4
f 446/1/4 447/1/4 455/1/4
f 454/4/4 446/4/4 455/4/4
f 455/1/4 448/1/4 456/1/4
f 448/4/4 449/4/4 457/4/4
f 456/1/4 448/1/4 457/1/4
f 457/4/4 449/4/4 458/4/4
f 450/2/4 451/2/4 459/2/4
f 459/2/4 451/2/4 460/2/4
f 453/4/4 454/4/4 462/4/4
f 455/1/4 456/1/4 463/1/4
f 454/1/4 455/1/4 463/1/4
f 462/4/4 454/4/4 463/4/4
f 463/1/4 456/1/4 464/1/4
f 456/4/4 457/4/4 465/4/4
f 464/1/4 456/1/4 465/1/4
f 465/4/4 457/4/4 466/4/4
f 458/2/4 459/2/4 467/2/4
f 467/2/4 459/2/4 468/2/4
f 461/4/4 462/4/4 470/4/4
f 463/1/4 464/1/4 471/1/4
f 462/1/4 463/1/4 471/1/4
f 470/4/4 462/4/4 471/4/4
f 471/1/4 464/1/4 472/1/4
f 464/4/4 465/4/4 473/4/4
f 472/1/4 464/1/4 473/1/4
f 473/4/4 465/4/4 474/4/4
f 466/2/4 467/2/4 475/2/4
f 475/2/4 467/2/4 476/2/4
f 469/4/4 470/4/4 478/4/4
f 471/1/4 472/1/4 479/1/4
f 470/1/4 471/1/4 479/1/4
f 478/4/4 470/4/4 479/4/4
f 479/1/4 472/1/4 480/1/4
f 472/4/4 473/4/4 481/4/4
f 480/1/4 472/1/4 481/1/4
f 481/4/4 473/4/4 482/4/4
f 474/2/4 475/2/4 483/2/4
f 483/2/4 475/2/4 484/2/4
f 477/4/4 478/4/4 486/4/4
f 479/1/4 480/1/4 487/1/4
f 478/1/4 479/1/4 487/1/4
f 486/4/4 478/4/4 487/4/4
f 487/1/4 480/1/4 488/1/4
f 480/4/4 481/4/4 489/4/4
f 488/1/4 480/1/4 489/1/4
f 489/4/4 481/4/4 490/4/4
f 482/2/4 483/2/4 491/2/4
f 491/2/4 483/2/4 492/2/4
f 485/4/4 486/4/4 493/4/4
f 487/1/4 488/1/4 494/1/4
f 493/4/4 486/4/4 494/4/4
f 486/1/4 487/1/4 494/1/4
f 494/1/4 488/1/4 495/1/4
f 488/4/4 489/4/4 496/4/4
f 495/1/4 488/1/4 496/1/4
f 496/4/4 489/4/4 497/4/4
f 490/2/4 491/2/4 498/2/4
f 498/2/4 491/2/4 499/2/4
f 494/1/4 495/1/4 500/1/4
f 493/1/4 494/1/4 500/1/4
f 495/4/4 496/4/4 501/4/4
f 500/1/4 495/1/4 501/1/4
f 501/4/4 496/4/4 502/4/4
f 497/2/4 498/2/4 503/2/4
f 503/2/4 498/2/4 504/2/4
f 493/1/4 500/1/4 505/1/4
f 500/4/4 501/4/4 506/4/4
f 505/1/4 500/1/4 506/1/4
f 501/2/4 502/2/4 507/2/4
f 506/4/4 501/4/4 507/4/4
f 502/2/4 503/2/4 507/2/4
f 507/2/4 503/2/4 508/2/4
f 512/4/5 510/4/5 509/4/5
f 513/1/5 511/1/5 510/1/5
f 513/4/5 510/4/5 512/4/5
f 514/1/5 511/1/5 513/1/5
f 515/1/5 511/1/5 514/1/5
f 516/1/5 513/1/5 512/1/5
f 516/1/5 514/1/5 513/1/5
f 517/1/5 514/1/5 516/1/5
f 518/2/5 515/2/5 514/2/5
f 518/1/5 514/1/5 517/1/5
f 519/2/5 515/2/5 518/2/5
f 520/4/5 517/4/5 516/4/5
f 521/1/5 518/1/5 517/1/5
f 521/4/5 517/4/5 520/4/5
f 521/1/5 519/1/5 518/1/5
f 522/1/5 519/1/5 521/1/5
f 525/4/5 524/4/5 523/4/5
f 526/4/5 524/4/5 525/4/5
f 527/1/5 526/1/5 525/1/5
f 528/1/5 526/1/5 527/1/5
f 529/4/5 528/4/5 527/4/5
f 530/4/5 528/4/5 529/4/5
f 533/4/5 532/4/5 531/4/5
f 534/4/5 532/4/5 533/4/5
f 535/1/5 534/1/5 533/1/5
f 536/1/5 534/1/5 535/1/5
f 537/4/5 536/4/5 535/4/5
f 538/4/5 536/4/5 537/4/5
f 541/4/5 540/4/5 539/4/5
f 542/4/5 540/4/5 541/4/5
f 543/1/5 542/1/5 541/1/5
f 544/1/5 542/1/5 543/1/5
f 545/4/5 544/4/5 543/4/5
f 546/4/5 544/4/5 545/4/5
f 551/4/5 548/4/5 547/4/5
f 552/4/5 548/4/5 551/4/5
f 553/2/5 550/2/5 549/2/5
f 554/2/5 550/2/5 553/2/5
f 555/1/5 552/1/5 551/1/5
f 556/1/5 552/1/5 555/1/5
f 559/4/5 556/4/5 555/4/5
f 560/4/5 556/4/5 559/4/5
f 561/2/5 558/2/5 557/2/5
f 562/2/5 558/2/5 561/2/5
f 567/4/5 564/4/5 563/4/5
f 568/4/5 564/4/5 567/4/5
f 569/2/5 566/2/5 565/2/5
f 570/2/5 566/2/5 569/2/5
f 571/1/5 568/1/5 567/1/5
f 572/1/5 568/1/5 571/1/5
f 575/4/5 572/4/5 571/4/5
f 576/4/5 572/4/5 575/4/5
f 577/2/5 574/2/5 573/2/5
f 578/2/5 574/2/5 577/2/5
f 583/4/5 580/4/5 579/4/5
f 584/4/5 580/4/5 583/4/5
f 585/2/5 582/2/5 581/2/5
f 586/2/5 582/2/5 585/2/5
f 587/1/5 584/1/5 583/1/5
f 588/1/5 584/1/5 587/1/5
f 591/4/5 588/4/5 587/4/5
f 592/4/5 588/4/5 591/4/5
f 593/2/5 590/2/5 589/2/5
f 594/2/5 590/2/5 593/2/5
f 597/2/5 596/2/5 595/2/5
f 598/2/5 596/2/5 597/2/5
f 601/2/5 600/2/5 599/2/5
f 602/2/5 600/2/5 601/2/5
f 605/2/5 604/2/5 603/2/5
f 606/2/5 604/2/5 605/2/5
f 609/2/5 608/2/5 607/2/5
f 610/2/5 608/2/5 609/2/5
f 613/2/5 612/2/5 611/2/5
f 614/2/5 612/2/5 613/2/5
f 617/2/5 616/2/5 615/2/5
f 618/2/5 616/2/5 617/2/5
f 621/2/5 620/2/5 619/2/5
f 622/2/5 620/2/5 621/2/5
f 625/2/5 624/2/5 623/2/5
f 626/2/5 624/2/5 625/2/5
f 627/2/6 628/2/6 629/2/6
f 629/2/6 628/2/6 630/2/6
f 631/3/6 632/3/6 633/3/6
f 633/3/6 632/3/6 634/3/6
f 635/4/6 636/4/6 638/4/6
f 638/4/6 636/4/6 639/4/6
f 637/3/6 638/3/6 640/3/6
f 640/3/6 638/3/6 641/3/6
f 641/4/6 642/4/6 643/4/6
f 643/4/6 642/4/6 644/4/6
f 645/4/6 646/4/6 650/4/6
f 650/4/6 646/4/6 651/4/6
f 647/2/6 648/2/6 652/2/6
f 652/2/6 648/2/6 653/2/6
f 649/3/6 650/3/6 654/3/6
f 654/3/6 650/3/6 655/3/6
f 655/4/6 656/4/6 659/4/6
f 659/4/6 656/4/6 660/4/6
f 657/2/6 658/2/6 661/2/6
f 661/2/6 658/2/6 662/2/6
f 663/4/6 664/4/6 668/4/6
f 668/4/6 664/4/6 669/4/6
f 665/2/6 666/2/6 670/2/6
f 670/2/6 666/2/6 671/2/6
f 667/3/6 668/3/6 672/3/6
f 672/3/6 668/3/6 673/3/6
f 673/4/6 674/4/6 677/4/6
f 677/4/6 674/4/6 678/4/6
f 675/2/6 676/2/6 679/2/6
f 679/2/6 676/2/6 680/2/6
f 681/4/6 682/4/6 686/4/6
f 686/4/6 682/4/6 687/4/6
f 683/2/6 684/2/6 688/2/6
f 688/2/6 684/2/6 689/2/6
f 685/3/6 686/3/6 690/3/6
f 690/3/6 686/3/6 691/3/6
f 691/4/6 692/4/6 695/4/6
f 695/4/6 692/4/6 696/4/6
f 693/2/6 694/2/6 697/2/6
f 697/2/6 694/2/6 698/2/6
f 699/4/6 700/4/6 704/4/6
f 704/4/6 700/4/6 705/4/6
f 701/2/6 702/2/6 706/2/6
f 706/2/6 702/2/6 707/2/6
f 703/3/6 704/3/6 708/3/6
f 708/3/6 704/3/6 709/3/6
f 709/4/6 710/4/6 713/4/6
f 713/4/6 710/4/6 714/4/6
f 711/2/6 712/2/6 715/2/6
f 715/2/6 712/2/6 716/2/6
f 717/4/6 718/4/6 722/4/6
f 722/4/6 718/4/6 723/4/6
f 719/2/6 720/2/6 724/2/6
f 724/2/6 720/2/6 725/2/6
f 721/3/6 722/3/6 726/3/6
f 726/3/6 722/3/6 727/3/6
f 727/4/6 728/4/6 731/4/6
f 731/4/6 728/4/6 732/4/6
f 729/2/6 730/2/6 733/2/6
f 733/2/6 730/2/6 734/2/6
f 735/4/6 736/4/6 740/4/6
f 740/4/6 736/4/6 741/4/6
f 737/2/6 738/2/6 742/2/6
f 742/2/6 738/2/6 743/2/6
f 739/3/6 740/3/6 744/3/6
f 744/3/6 740/3/6 745/3/6
f 745/4/6 746/4/6 749/4/6
f 749/4/6 746/4/6 750/4/6
f 747/2/6 748/2/6 751/2/6
f 751/2/6 748/2/6 752/2/6
f 753/2/6 754/2/6 755/2/6
f 755/2/6 754/2/6 756/2/6
f 757/2/6 758/2/6 759/2/6
f 759/2/6 758/2/6 760/2/6
f 761/2/6 762/2/6 763/2/6
f 763/2/6 762/2/6 764/2/6
f 765/2/6 766/2/6 767/2/6
f 767/2/6 766/2/6 768/2/6
f 769/2/6 770/2/6 771/2/6
f 771/2/6 770/2/6 772/2/6
f 773/2/6 774/2/6 775/2/6
f 775/2/6 774/2/6 776/2/6
