# MagicaVoxel @ Ephtracy

# material
mtllib Table02.mtl
usemtl palette

# normals
vn -1 0 0
vn 1 0 0
vn 0 0 1
vn 0 0 -1
vn 0 -1 0
vn 0 1 0

# texcoords
vt 0.884766 0.5
vt 0.888672 0.5

# verts
v -10 0 3
v -10 0 2
v -10 0 -2
v -10 0 -3
v -10 1 3
v -10 1 2
v -10 2 3
v -10 2 2
v -10 7 2
v -10 7 -2
v -10 8 3
v -10 8 -3
v -9 7 5
v -9 7 3
v -9 7 -3
v -9 7 -5
v -9 8 5
v -9 8 3
v -9 8 -3
v -9 8 -5
v -8 7 7
v -8 7 5
v -8 7 -5
v -8 7 -7
v -8 8 7
v -8 8 5
v -8 8 -5
v -8 8 -7
v -7 7 8
v -7 7 7
v -7 7 -7
v -7 7 -8
v -7 8 8
v -7 8 7
v -7 8 -7
v -7 8 -8
v -5 7 9
v -5 7 8
v -5 7 -8
v -5 7 -9
v -5 8 9
v -5 8 8
v -5 8 -8
v -5 8 -9
v -3 0 10
v -3 0 9
v -3 0 -9
v -3 0 -10
v -3 5 -9
v -3 5 -10
v -3 6 -9
v -3 6 -10
v -3 7 9
v -3 7 -9
v -3 8 10
v -3 8 9
v -3 8 -9
v -3 8 -10
v 2 0 10
v 2 0 9
v 2 0 -9
v 2 0 -10
v 2 2 -9
v 2 2 -10
v 2 3 -9
v 2 3 -10
v 2 4 10
v 2 4 9
v 2 5 10
v 2 5 9
v 2 7 10
v 2 7 9
v 2 7 -9
v 2 7 -10
v 9 0 3
v 9 0 2
v 9 0 -2
v 9 0 -3
v 9 1 3
v 9 1 2
v 9 7 3
v 9 7 2
v 9 7 -2
v 9 7 -3
v -9 0 3
v -9 0 2
v -9 0 -2
v -9 0 -3
v -9 1 3
v -9 1 2
v -9 2 3
v -9 2 2
v -9 7 3
v -9 7 2
v -9 7 -2
v -9 7 -3
v -2 0 10
v -2 0 9
v -2 0 -9
v -2 0 -10
v -2 5 -9
v -2 5 -10
v -2 6 -9
v -2 6 -10
v -2 7 10
v -2 7 9
v -2 7 -9
v -2 7 -10
v 3 0 10
v 3 0 9
v 3 0 -9
v 3 0 -10
v 3 2 -9
v 3 2 -10
v 3 3 -9
v 3 3 -10
v 3 4 10
v 3 4 9
v 3 5 10
v 3 5 9
v 3 7 9
v 3 7 -9
v 3 8 10
v 3 8 9
v 3 8 -9
v 3 8 -10
v 5 7 9
v 5 7 8
v 5 7 -8
v 5 7 -9
v 5 8 9
v 5 8 8
v 5 8 -8
v 5 8 -9
v 7 7 8
v 7 7 7
v 7 7 -7
v 7 7 -8
v 7 8 8
v 7 8 7
v 7 8 -7
v 7 8 -8
v 8 7 7
v 8 7 5
v 8 7 -5
v 8 7 -7
v 8 8 7
v 8 8 5
v 8 8 -5
v 8 8 -7
v 9 7 5
v 9 7 3
v 9 7 -3
v 9 7 -5
v 9 8 5
v 9 8 3
v 9 8 -3
v 9 8 -5
v 10 0 3
v 10 0 2
v 10 0 -2
v 10 0 -3
v 10 1 3
v 10 1 2
v 10 7 2
v 10 7 -2
v 10 8 3
v 10 8 -3
v -3 0 10
v -3 8 10
v -2 0 10
v -2 7 10
v 2 0 10
v 2 4 10
v 2 5 10
v 2 7 10
v 3 0 10
v 3 4 10
v 3 5 10
v 3 8 10
v -5 7 9
v -5 8 9
v -3 7 9
v -3 8 9
v 3 7 9
v 3 8 9
v 5 7 9
v 5 8 9
v -7 7 8
v -7 8 8
v -5 7 8
v -5 8 8
v 5 7 8
v 5 8 8
v 7 7 8
v 7 8 8
v -8 7 7
v -8 8 7
v -7 7 7
v -7 8 7
v 7 7 7
v 7 8 7
v 8 7 7
v 8 8 7
v -9 7 5
v -9 8 5
v -8 7 5
v -8 8 5
v 8 7 5
v 8 8 5
v 9 7 5
v 9 8 5
v -10 0 3
v -10 1 3
v -10 2 3
v -10 8 3
v -9 0 3
v -9 1 3
v -9 2 3
v -9 7 3
v -9 8 3
v 9 0 3
v 9 1 3
v 9 7 3
v 9 8 3
v 10 0 3
v 10 1 3
v 10 8 3
v -10 0 -2
v -10 7 -2
v -9 0 -2
v -9 7 -2
v 9 0 -2
v 9 7 -2
v 10 0 -2
v 10 7 -2
v -3 0 -9
v -3 5 -9
v -3 6 -9
v -3 7 -9
v -2 0 -9
v -2 5 -9
v -2 6 -9
v -2 7 -9
v 2 0 -9
v 2 2 -9
v 2 3 -9
v 2 7 -9
v 3 0 -9
v 3 2 -9
v 3 3 -9
v 3 7 -9
v -3 0 9
v -3 7 9
v -2 0 9
v -2 7 9
v 2 0 9
v 2 4 9
v 2 5 9
v 2 7 9
v 3 0 9
v 3 4 9
v 3 5 9
v 3 7 9
v -10 0 2
v -10 1 2
v -10 2 2
v -10 7 2
v -9 0 2
v -9 1 2
v -9 2 2
v -9 7 2
v 9 0 2
v 9 1 2
v 9 7 2
v 10 0 2
v 10 1 2
v 10 7 2
v -10 0 -3
v -10 8 -3
v -9 0 -3
v -9 7 -3
v -9 8 -3
v 9 0 -3
v 9 7 -3
v 9 8 -3
v 10 0 -3
v 10 8 -3
v -9 7 -5
v -9 8 -5
v -8 7 -5
v -8 8 -5
v 8 7 -5
v 8 8 -5
v 9 7 -5
v 9 8 -5
v -8 7 -7
v -8 8 -7
v -7 7 -7
v -7 8 -7
v 7 7 -7
v 7 8 -7
v 8 7 -7
v 8 8 -7
v -7 7 -8
v -7 8 -8
v -5 7 -8
v -5 8 -8
v 5 7 -8
v 5 8 -8
v 7 7 -8
v 7 8 -8
v -5 7 -9
v -5 8 -9
v -3 7 -9
v -3 8 -9
v 3 7 -9
v 3 8 -9
v 5 7 -9
v 5 8 -9
v -3 0 -10
v -3 5 -10
v -3 6 -10
v -3 8 -10
v -2 0 -10
v -2 5 -10
v -2 6 -10
v -2 7 -10
v 2 0 -10
v 2 2 -10
v 2 3 -10
v 2 7 -10
v 3 0 -10
v 3 2 -10
v 3 3 -10
v 3 8 -10
v -3 0 10
v -2 0 10
v 2 0 10
v 3 0 10
v -3 0 9
v -2 0 9
v 2 0 9
v 3 0 9
v -10 0 3
v -9 0 3
v 9 0 3
v 10 0 3
v -10 0 2
v -9 0 2
v 9 0 2
v 10 0 2
v -10 0 -2
v -9 0 -2
v 9 0 -2
v 10 0 -2
v -10 0 -3
v -9 0 -3
v 9 0 -3
v 10 0 -3
v -3 0 -9
v -2 0 -9
v 2 0 -9
v 3 0 -9
v -3 0 -10
v -2 0 -10
v 2 0 -10
v 3 0 -10
v -2 7 10
v 2 7 10
v -5 7 9
v -3 7 9
v -2 7 9
v 2 7 9
v 3 7 9
v 5 7 9
v -7 7 8
v -5 7 8
v 5 7 8
v 7 7 8
v -8 7 7
v -7 7 7
v 2 7 7
v 3 7 7
v 7 7 7
v 8 7 7
v 2 7 6
v 3 7 6
v -9 7 5
v -8 7 5
v 8 7 5
v 9 7 5
v -4 7 4
v -3 7 4
v -9 7 3
v -4 7 3
v -3 7 3
v 4 7 3
v 5 7 3
v 9 7 3
v -10 7 2
v -9 7 2
v -8 7 2
v 4 7 2
v 5 7 2
v 9 7 2
v 10 7 2
v -9 7 1
v -8 7 1
v -6 7 -0
v -5 7 -0
v -6 7 -1
v -5 7 -1
v 6 7 -1
v 7 7 -1
v -10 7 -2
v -9 7 -2
v 1 7 -2
v 2 7 -2
v 6 7 -2
v 7 7 -2
v 9 7 -2
v 10 7 -2
v -9 7 -3
v 1 7 -3
v 2 7 -3
v 9 7 -3
v -9 7 -5
v -8 7 -5
v 8 7 -5
v 9 7 -5
v -4 7 -6
v -3 7 -6
v 4 7 -6
v 5 7 -6
v -8 7 -7
v -7 7 -7
v -4 7 -7
v -3 7 -7
v 4 7 -7
v 5 7 -7
v 7 7 -7
v 8 7 -7
v -7 7 -8
v -5 7 -8
v 5 7 -8
v 7 7 -8
v -5 7 -9
v -3 7 -9
v -2 7 -9
v 2 7 -9
v 3 7 -9
v 5 7 -9
v -2 7 -10
v 2 7 -10
v -3 8 10
v 3 8 10
v -5 8 9
v -3 8 9
v 3 8 9
v 5 8 9
v -7 8 8
v -5 8 8
v 5 8 8
v 7 8 8
v -8 8 7
v -7 8 7
v 2 8 7
v 3 8 7
v 7 8 7
v 8 8 7
v 2 8 6
v 3 8 6
v -9 8 5
v -8 8 5
v 8 8 5
v 9 8 5
v -4 8 4
v -3 8 4
v -10 8 3
v -9 8 3
v -4 8 3
v -3 8 3
v 4 8 3
v 5 8 3
v 9 8 3
v 10 8 3
v -9 8 2
v -8 8 2
v 4 8 2
v 5 8 2
v -9 8 1
v -8 8 1
v -6 8 -0
v -5 8 -0
v -6 8 -1
v -5 8 -1
v 6 8 -1
v 7 8 -1
v 1 8 -2
v 2 8 -2
v 6 8 -2
v 7 8 -2
v -10 8 -3
v -9 8 -3
v 1 8 -3
v 2 8 -3
v 9 8 -3
v 10 8 -3
v -9 8 -5
v -8 8 -5
v 8 8 -5
v 9 8 -5
v -4 8 -6
v -3 8 -6
v 4 8 -6
v 5 8 -6
v -8 8 -7
v -7 8 -7
v -4 8 -7
v -3 8 -7
v 4 8 -7
v 5 8 -7
v 7 8 -7
v 8 8 -7
v -7 8 -8
v -5 8 -8
v 5 8 -8
v 7 8 -8
v -5 8 -9
v -3 8 -9
v 3 8 -9
v 5 8 -9
v -3 8 -10
v 3 8 -10

# faces
f 5/2/1 2/2/1 1/2/1
f 6/2/1 2/2/1 5/2/1
f 7/1/1 6/1/1 5/1/1
f 8/1/1 6/1/1 7/1/1
f 9/2/1 8/2/1 7/2/1
f 10/2/1 4/2/1 3/2/1
f 11/2/1 9/2/1 7/2/1
f 11/2/1 10/2/1 9/2/1
f 12/2/1 4/2/1 10/2/1
f 12/2/1 10/2/1 11/2/1
f 17/2/1 14/2/1 13/2/1
f 18/2/1 14/2/1 17/2/1
f 19/2/1 16/2/1 15/2/1
f 20/2/1 16/2/1 19/2/1
f 25/2/1 22/2/1 21/2/1
f 26/2/1 22/2/1 25/2/1
f 27/2/1 24/2/1 23/2/1
f 28/2/1 24/2/1 27/2/1
f 33/2/1 30/2/1 29/2/1
f 34/2/1 30/2/1 33/2/1
f 35/2/1 32/2/1 31/2/1
f 36/2/1 32/2/1 35/2/1
f 41/2/1 38/2/1 37/2/1
f 42/2/1 38/2/1 41/2/1
f 43/2/1 40/2/1 39/2/1
f 44/2/1 40/2/1 43/2/1
f 49/2/1 48/2/1 47/2/1
f 50/2/1 48/2/1 49/2/1
f 51/1/1 50/1/1 49/1/1
f 52/1/1 50/1/1 51/1/1
f 53/2/1 46/2/1 45/2/1
f 54/2/1 52/2/1 51/2/1
f 55/2/1 53/2/1 45/2/1
f 56/2/1 53/2/1 55/2/1
f 57/2/1 52/2/1 54/2/1
f 58/2/1 52/2/1 57/2/1
f 63/2/1 62/2/1 61/2/1
f 64/2/1 62/2/1 63/2/1
f 65/1/1 64/1/1 63/1/1
f 66/1/1 64/1/1 65/1/1
f 67/2/1 60/2/1 59/2/1
f 68/2/1 60/2/1 67/2/1
f 69/1/1 68/1/1 67/1/1
f 70/1/1 68/1/1 69/1/1
f 71/2/1 70/2/1 69/2/1
f 72/2/1 70/2/1 71/2/1
f 73/2/1 66/2/1 65/2/1
f 74/2/1 66/2/1 73/2/1
f 79/1/1 76/1/1 75/1/1
f 80/1/1 76/1/1 79/1/1
f 81/2/1 80/2/1 79/2/1
f 82/2/1 80/2/1 81/2/1
f 83/2/1 78/2/1 77/2/1
f 84/2/1 78/2/1 83/2/1
f 85/2/2 86/2/2 89/2/2
f 89/2/2 86/2/2 90/2/2
f 89/1/2 90/1/2 91/1/2
f 91/1/2 90/1/2 92/1/2
f 91/2/2 92/2/2 93/2/2
f 93/2/2 92/2/2 94/2/2
f 87/2/2 88/2/2 95/2/2
f 95/2/2 88/2/2 96/2/2
f 99/2/2 100/2/2 101/2/2
f 101/2/2 100/2/2 102/2/2
f 101/1/2 102/1/2 103/1/2
f 103/1/2 102/1/2 104/1/2
f 97/2/2 98/2/2 105/2/2
f 105/2/2 98/2/2 106/2/2
f 103/2/2 104/2/2 107/2/2
f 107/2/2 104/2/2 108/2/2
f 111/2/2 112/2/2 113/2/2
f 113/2/2 112/2/2 114/2/2
f 113/1/2 114/1/2 115/1/2
f 115/1/2 114/1/2 116/1/2
f 109/2/2 110/2/2 117/2/2
f 117/2/2 110/2/2 118/2/2
f 117/1/2 118/1/2 119/1/2
f 119/1/2 118/1/2 120/1/2
f 119/2/2 120/2/2 121/2/2
f 115/2/2 116/2/2 122/2/2
f 119/2/2 121/2/2 123/2/2
f 123/2/2 121/2/2 124/2/2
f 122/2/2 116/2/2 125/2/2
f 125/2/2 116/2/2 126/2/2
f 127/2/2 128/2/2 131/2/2
f 131/2/2 128/2/2 132/2/2
f 129/2/2 130/2/2 133/2/2
f 133/2/2 130/2/2 134/2/2
f 135/2/2 136/2/2 139/2/2
f 139/2/2 136/2/2 140/2/2
f 137/2/2 138/2/2 141/2/2
f 141/2/2 138/2/2 142/2/2
f 143/2/2 144/2/2 147/2/2
f 147/2/2 144/2/2 148/2/2
f 145/2/2 146/2/2 149/2/2
f 149/2/2 146/2/2 150/2/2
f 151/2/2 152/2/2 155/2/2
f 155/2/2 152/2/2 156/2/2
f 153/2/2 154/2/2 157/2/2
f 157/2/2 154/2/2 158/2/2
f 159/1/2 160/1/2 163/1/2
f 163/1/2 160/1/2 164/1/2
f 163/2/2 164/2/2 165/2/2
f 161/2/2 162/2/2 166/2/2
f 163/2/2 165/2/2 167/2/2
f 165/2/2 166/2/2 167/2/2
f 166/2/2 162/2/2 168/2/2
f 167/2/2 166/2/2 168/2/2
f 171/2/3 170/2/3 169/2/3
f 172/2/3 170/2/3 171/2/3
f 176/2/3 170/2/3 172/2/3
f 177/2/3 174/2/3 173/2/3
f 178/1/3 175/1/3 174/1/3
f 178/2/3 174/2/3 177/2/3
f 179/2/3 176/2/3 175/2/3
f 179/1/3 175/1/3 178/1/3
f 180/2/3 170/2/3 176/2/3
f 180/2/3 176/2/3 179/2/3
f 183/2/3 182/2/3 181/2/3
f 184/2/3 182/2/3 183/2/3
f 187/2/3 186/2/3 185/2/3
f 188/2/3 186/2/3 187/2/3
f 191/2/3 190/2/3 189/2/3
f 192/2/3 190/2/3 191/2/3
f 195/2/3 194/2/3 193/2/3
f 196/2/3 194/2/3 195/2/3
f 199/2/3 198/2/3 197/2/3
f 200/2/3 198/2/3 199/2/3
f 203/2/3 202/2/3 201/2/3
f 204/2/3 202/2/3 203/2/3
f 207/2/3 206/2/3 205/2/3
f 208/2/3 206/2/3 207/2/3
f 211/2/3 210/2/3 209/2/3
f 212/2/3 210/2/3 211/2/3
f 217/2/3 214/2/3 213/2/3
f 218/1/3 215/1/3 214/1/3
f 218/2/3 214/2/3 217/2/3
f 219/2/3 216/2/3 215/2/3
f 219/1/3 215/1/3 218/1/3
f 220/2/3 216/2/3 219/2/3
f 221/2/3 216/2/3 220/2/3
f 226/1/3 223/1/3 222/1/3
f 227/2/3 225/2/3 224/2/3
f 227/1/3 223/1/3 226/1/3
f 227/2/3 224/2/3 223/2/3
f 228/2/3 225/2/3 227/2/3
f 231/2/3 230/2/3 229/2/3
f 232/2/3 230/2/3 231/2/3
f 235/2/3 234/2/3 233/2/3
f 236/2/3 234/2/3 235/2/3
f 241/2/3 238/2/3 237/2/3
f 242/1/3 239/1/3 238/1/3
f 242/2/3 238/2/3 241/2/3
f 243/2/3 240/2/3 239/2/3
f 243/1/3 239/1/3 242/1/3
f 244/2/3 240/2/3 243/2/3
f 249/2/3 246/2/3 245/2/3
f 250/1/3 247/1/3 246/1/3
f 250/2/3 246/2/3 249/2/3
f 251/2/3 248/2/3 247/2/3
f 251/1/3 247/1/3 250/1/3
f 252/2/3 248/2/3 251/2/3
f 253/2/4 254/2/4 255/2/4
f 255/2/4 254/2/4 256/2/4
f 257/2/4 258/2/4 261/2/4
f 258/1/4 259/1/4 262/1/4
f 261/2/4 258/2/4 262/2/4
f 259/2/4 260/2/4 263/2/4
f 262/1/4 259/1/4 263/1/4
f 263/2/4 260/2/4 264/2/4
f 265/2/4 266/2/4 269/2/4
f 266/1/4 267/1/4 270/1/4
f 269/2/4 266/2/4 270/2/4
f 267/2/4 268/2/4 271/2/4
f 270/1/4 267/1/4 271/1/4
f 271/2/4 268/2/4 272/2/4
f 273/1/4 274/1/4 276/1/4
f 274/2/4 275/2/4 277/2/4
f 276/1/4 274/1/4 277/1/4
f 277/2/4 275/2/4 278/2/4
f 279/2/4 280/2/4 281/2/4
f 281/2/4 280/2/4 282/2/4
f 282/2/4 280/2/4 283/2/4
f 284/2/4 285/2/4 287/2/4
f 285/2/4 286/2/4 287/2/4
f 287/2/4 286/2/4 288/2/4
f 289/2/4 290/2/4 291/2/4
f 291/2/4 290/2/4 292/2/4
f 293/2/4 294/2/4 295/2/4
f 295/2/4 294/2/4 296/2/4
f 297/2/4 298/2/4 299/2/4
f 299/2/4 298/2/4 300/2/4
f 301/2/4 302/2/4 303/2/4
f 303/2/4 302/2/4 304/2/4
f 305/2/4 306/2/4 307/2/4
f 307/2/4 306/2/4 308/2/4
f 309/2/4 310/2/4 311/2/4
f 311/2/4 310/2/4 312/2/4
f 313/2/4 314/2/4 315/2/4
f 315/2/4 314/2/4 316/2/4
f 317/2/4 318/2/4 319/2/4
f 319/2/4 318/2/4 320/2/4
f 321/2/4 322/2/4 325/2/4
f 322/1/4 323/1/4 326/1/4
f 325/2/4 322/2/4 326/2/4
f 323/2/4 324/2/4 327/2/4
f 326/1/4 323/1/4 327/1/4
f 327/2/4 324/2/4 328/2/4
f 328/2/4 324/2/4 332/2/4
f 329/2/4 330/2/4 333/2/4
f 330/1/4 331/1/4 334/1/4
f 333/2/4 330/2/4 334/2/4
f 331/2/4 332/2/4 335/2/4
f 334/1/4 331/1/4 335/1/4
f 332/2/4 324/2/4 336/2/4
f 335/2/4 332/2/4 336/2/4
f 341/2/5 338/2/5 337/2/5
f 342/2/5 338/2/5 341/2/5
f 343/2/5 340/2/5 339/2/5
f 344/2/5 340/2/5 343/2/5
f 349/2/5 346/2/5 345/2/5
f 350/2/5 346/2/5 349/2/5
f 351/1/5 348/1/5 347/1/5
f 352/1/5 348/1/5 351/1/5
f 357/2/5 354/2/5 353/2/5
f 358/2/5 354/2/5 357/2/5
f 359/2/5 356/2/5 355/2/5
f 360/2/5 356/2/5 359/2/5
f 365/2/5 362/2/5 361/2/5
f 366/2/5 362/2/5 365/2/5
f 367/2/5 364/2/5 363/2/5
f 368/2/5 364/2/5 367/2/5
f 373/2/5 370/2/5 369/2/5
f 374/2/5 370/2/5 373/2/5
f 378/2/5 372/2/5 371/2/5
f 378/2/5 376/2/5 375/2/5
f 378/2/5 375/2/5 374/2/5
f 378/2/5 374/2/5 373/2/5
f 378/2/5 373/2/5 372/2/5
f 379/2/5 376/2/5 378/2/5
f 382/2/5 378/2/5 377/2/5
f 382/2/5 380/2/5 379/2/5
f 382/2/5 379/2/5 378/2/5
f 383/2/5 380/2/5 382/2/5
f 384/2/5 380/2/5 383/2/5
f 385/2/5 380/2/5 384/2/5
f 387/2/5 382/2/5 381/2/5
f 387/2/5 383/2/5 382/2/5
f 387/1/5 384/1/5 383/1/5
f 388/2/5 386/2/5 385/2/5
f 388/1/5 384/1/5 387/1/5
f 388/2/5 385/2/5 384/2/5
f 390/2/5 387/2/5 381/2/5
f 390/2/5 388/2/5 387/2/5
f 391/2/5 386/2/5 388/2/5
f 391/2/5 388/2/5 390/2/5
f 393/2/5 390/2/5 389/2/5
f 393/2/5 392/2/5 391/2/5
f 393/2/5 391/2/5 390/2/5
f 394/2/5 392/2/5 393/2/5
f 395/2/5 393/2/5 389/2/5
f 396/1/5 394/1/5 393/1/5
f 396/2/5 393/2/5 395/2/5
f 397/2/5 392/2/5 394/2/5
f 397/1/5 394/1/5 396/1/5
f 398/2/5 392/2/5 397/2/5
f 399/2/5 392/2/5 398/2/5
f 400/2/5 392/2/5 399/2/5
f 402/2/5 396/2/5 395/2/5
f 402/2/5 397/2/5 396/2/5
f 402/2/5 398/2/5 397/2/5
f 403/2/5 398/2/5 402/2/5
f 404/1/5 399/1/5 398/1/5
f 404/2/5 398/2/5 403/2/5
f 405/2/5 400/2/5 399/2/5
f 405/1/5 399/1/5 404/1/5
f 406/2/5 400/2/5 405/2/5
f 408/1/5 403/1/5 402/1/5
f 408/2/5 402/2/5 401/2/5
f 409/2/5 406/2/5 405/2/5
f 409/1/5 403/1/5 408/1/5
f 409/2/5 404/2/5 403/2/5
f 409/2/5 405/2/5 404/2/5
f 409/2/5 407/2/5 406/2/5
f 410/2/5 409/2/5 408/2/5
f 410/2/5 407/2/5 409/2/5
f 411/2/5 407/2/5 410/2/5
f 412/2/5 410/2/5 408/2/5
f 412/1/5 411/1/5 410/1/5
f 413/2/5 407/2/5 411/2/5
f 413/1/5 411/1/5 412/1/5
f 414/2/5 407/2/5 413/2/5
f 415/2/5 407/2/5 414/2/5
f 416/2/5 408/2/5 401/2/5
f 416/2/5 412/2/5 408/2/5
f 416/2/5 413/2/5 412/2/5
f 416/2/5 414/2/5 413/2/5
f 417/2/5 414/2/5 416/2/5
f 418/2/5 414/2/5 417/2/5
f 419/2/5 414/2/5 418/2/5
f 420/1/5 415/1/5 414/1/5
f 420/2/5 414/2/5 419/2/5
f 421/2/5 407/2/5 415/2/5
f 421/1/5 415/1/5 420/1/5
f 422/2/5 407/2/5 421/2/5
f 423/2/5 407/2/5 422/2/5
f 424/2/5 418/2/5 417/2/5
f 425/1/5 419/1/5 418/1/5
f 425/2/5 418/2/5 424/2/5
f 426/2/5 420/2/5 419/2/5
f 426/1/5 419/1/5 425/1/5
f 426/2/5 422/2/5 421/2/5
f 426/2/5 421/2/5 420/2/5
f 427/2/5 422/2/5 426/2/5
f 428/2/5 425/2/5 424/2/5
f 428/2/5 426/2/5 425/2/5
f 428/2/5 427/2/5 426/2/5
f 429/2/5 427/2/5 428/2/5
f 430/2/5 427/2/5 429/2/5
f 431/2/5 427/2/5 430/2/5
f 432/2/5 430/2/5 429/2/5
f 433/2/5 430/2/5 432/2/5
f 434/2/5 430/2/5 433/2/5
f 435/2/5 430/2/5 434/2/5
f 436/2/5 432/2/5 429/2/5
f 437/2/5 432/2/5 436/2/5
f 438/1/5 433/1/5 432/1/5
f 438/2/5 432/2/5 437/2/5
f 439/2/5 434/2/5 433/2/5
f 439/1/5 433/1/5 438/1/5
f 440/1/5 435/1/5 434/1/5
f 440/2/5 434/2/5 439/2/5
f 441/2/5 430/2/5 435/2/5
f 441/1/5 435/1/5 440/1/5
f 442/2/5 430/2/5 441/2/5
f 443/2/5 430/2/5 442/2/5
f 444/2/5 440/2/5 439/2/5
f 444/2/5 442/2/5 441/2/5
f 444/2/5 441/2/5 440/2/5
f 444/2/5 438/2/5 437/2/5
f 444/2/5 439/2/5 438/2/5
f 445/2/5 442/2/5 444/2/5
f 446/2/5 442/2/5 445/2/5
f 447/2/5 442/2/5 446/2/5
f 448/2/5 446/2/5 445/2/5
f 449/2/5 446/2/5 448/2/5
f 450/2/5 446/2/5 449/2/5
f 451/2/5 446/2/5 450/2/5
f 452/2/5 446/2/5 451/2/5
f 453/2/5 446/2/5 452/2/5
f 454/2/5 451/2/5 450/2/5
f 455/2/5 451/2/5 454/2/5
f 456/2/6 457/2/6 459/2/6
f 459/2/6 457/2/6 460/2/6
f 458/2/6 459/2/6 463/2/6
f 460/2/6 461/2/6 463/2/6
f 459/2/6 460/2/6 463/2/6
f 463/2/6 461/2/6 464/2/6
f 462/2/6 463/2/6 467/2/6
f 464/2/6 465/2/6 467/2/6
f 463/2/6 464/2/6 467/2/6
f 467/2/6 465/2/6 468/2/6
f 468/2/6 465/2/6 469/2/6
f 469/2/6 465/2/6 470/2/6
f 466/2/6 467/2/6 472/2/6
f 467/2/6 468/2/6 472/2/6
f 468/1/6 469/1/6 472/1/6
f 470/2/6 471/2/6 473/2/6
f 472/1/6 469/1/6 473/1/6
f 469/2/6 470/2/6 473/2/6
f 466/2/6 472/2/6 475/2/6
f 472/2/6 473/2/6 475/2/6
f 473/2/6 471/2/6 476/2/6
f 475/2/6 473/2/6 476/2/6
f 474/2/6 475/2/6 478/2/6
f 476/2/6 477/2/6 478/2/6
f 475/2/6 476/2/6 478/2/6
f 478/2/6 477/2/6 479/2/6
f 474/2/6 478/2/6 481/2/6
f 478/1/6 479/1/6 482/1/6
f 481/2/6 478/2/6 482/2/6
f 479/2/6 477/2/6 483/2/6
f 482/1/6 479/1/6 483/1/6
f 483/2/6 477/2/6 484/2/6
f 484/2/6 477/2/6 485/2/6
f 485/2/6 477/2/6 486/2/6
f 481/2/6 482/2/6 488/2/6
f 480/2/6 481/2/6 488/2/6
f 482/2/6 483/2/6 488/2/6
f 483/2/6 484/2/6 488/2/6
f 488/2/6 484/2/6 489/2/6
f 484/1/6 485/1/6 490/1/6
f 489/2/6 484/2/6 490/2/6
f 486/2/6 487/2/6 491/2/6
f 490/1/6 485/1/6 491/1/6
f 485/2/6 486/2/6 491/2/6
f 480/2/6 488/2/6 492/2/6
f 488/1/6 489/1/6 492/1/6
f 489/2/6 490/2/6 493/2/6
f 492/1/6 489/1/6 493/1/6
f 490/2/6 491/2/6 493/2/6
f 492/2/6 493/2/6 494/2/6
f 493/2/6 491/2/6 494/2/6
f 494/2/6 491/2/6 495/2/6
f 492/2/6 494/2/6 496/2/6
f 494/1/6 495/1/6 496/1/6
f 495/2/6 491/2/6 497/2/6
f 496/1/6 495/1/6 497/1/6
f 491/2/6 487/2/6 498/2/6
f 497/2/6 491/2/6 498/2/6
f 498/2/6 487/2/6 499/2/6
f 496/2/6 497/2/6 500/2/6
f 497/2/6 498/2/6 500/2/6
f 500/2/6 498/2/6 501/2/6
f 498/1/6 499/1/6 502/1/6
f 501/2/6 498/2/6 502/2/6
f 499/2/6 487/2/6 503/2/6
f 502/1/6 499/1/6 503/1/6
f 480/2/6 492/2/6 504/2/6
f 492/2/6 496/2/6 504/2/6
f 496/2/6 500/2/6 504/2/6
f 504/2/6 500/2/6 505/2/6
f 500/1/6 501/1/6 506/1/6
f 505/2/6 500/2/6 506/2/6
f 501/2/6 502/2/6 507/2/6
f 506/1/6 501/1/6 507/1/6
f 502/2/6 503/2/6 507/2/6
f 503/2/6 487/2/6 508/2/6
f 507/2/6 503/2/6 508/2/6
f 508/2/6 487/2/6 509/2/6
f 506/2/6 507/2/6 510/2/6
f 505/2/6 506/2/6 510/2/6
f 507/2/6 508/2/6 510/2/6
f 510/2/6 508/2/6 511/2/6
f 511/2/6 508/2/6 512/2/6
f 512/2/6 508/2/6 513/2/6
f 511/2/6 512/2/6 514/2/6
f 514/2/6 512/2/6 515/2/6
f 515/2/6 512/2/6 516/2/6
f 516/2/6 512/2/6 517/2/6
f 511/2/6 514/2/6 518/2/6
f 518/2/6 514/2/6 519/2/6
f 514/1/6 515/1/6 520/1/6
f 519/2/6 514/2/6 520/2/6
f 515/2/6 516/2/6 521/2/6
f 520/1/6 515/1/6 521/1/6
f 516/1/6 517/1/6 522/1/6
f 521/2/6 516/2/6 522/2/6
f 517/2/6 512/2/6 523/2/6
f 522/1/6 517/1/6 523/1/6
f 523/2/6 512/2/6 524/2/6
f 524/2/6 512/2/6 525/2/6
f 521/2/6 522/2/6 526/2/6
f 523/2/6 524/2/6 526/2/6
f 522/2/6 523/2/6 526/2/6
f 519/2/6 520/2/6 526/2/6
f 520/2/6 521/2/6 526/2/6
f 526/2/6 524/2/6 527/2/6
f 527/2/6 524/2/6 528/2/6
f 528/2/6 524/2/6 529/2/6
f 527/2/6 528/2/6 530/2/6
f 530/2/6 528/2/6 531/2/6
f 531/2/6 528/2/6 532/2/6
f 532/2/6 528/2/6 533/2/6
f 531/2/6 532/2/6 534/2/6
f 534/2/6 532/2/6 535/2/6
