# MagicaVoxel @ Ephtracy

# material
mtllib Tent01.mtl
usemtl palette

# normals
vn -1 0 0
vn 1 0 0
vn 0 0 1
vn 0 0 -1
vn 0 -1 0
vn 0 1 0

# texcoords
vt 0.849609 0.5
vt 0.970703 0.5

# verts
v -6.5 0 6
v -6.5 0 5
v -6.5 0 -5
v -6.5 0 -6
v -6.5 1 6
v -6.5 1 5
v -6.5 1 -5
v -6.5 1 -6
v -5.5 1 6
v -5.5 1 5
v -5.5 1 -5
v -5.5 1 -6
v -5.5 3 6
v -5.5 3 5
v -5.5 3 -5
v -5.5 3 -6
v -4.5 3 6
v -4.5 3 5
v -4.5 3 -5
v -4.5 3 -6
v -4.5 5 6
v -4.5 5 5
v -4.5 5 -5
v -4.5 5 -6
v -3.5 5 6
v -3.5 5 5
v -3.5 5 -5
v -3.5 5 -6
v -3.5 7 6
v -3.5 7 5
v -3.5 7 -5
v -3.5 7 -6
v -2.5 7 6
v -2.5 7 5
v -2.5 7 -5
v -2.5 7 -6
v -2.5 9 6
v -2.5 9 5
v -2.5 9 -5
v -2.5 9 -6
v -1.5 9 6
v -1.5 9 5
v -1.5 9 -5
v -1.5 9 -6
v -1.5 11 6
v -1.5 11 5
v -1.5 11 -5
v -1.5 11 -6
v -0.5 11 6
v -0.5 11 5
v -0.5 11 -5
v -0.5 11 -6
v -0.5 12 6
v -0.5 12 -6
v 0.5 8 5
v 0.5 8 -5
v 0.5 10 5
v 0.5 10 -5
v 1.5 6 5
v 1.5 6 -5
v 1.5 8 5
v 1.5 8 -5
v 2.5 4 5
v 2.5 4 -5
v 2.5 6 5
v 2.5 6 -5
v 3.5 2 5
v 3.5 2 -5
v 3.5 4 5
v 3.5 4 -5
v 4.5 1 5
v 4.5 1 -5
v 4.5 2 5
v 4.5 2 -5
v -4.5 1 5
v -4.5 1 -5
v -4.5 2 5
v -4.5 2 -5
v -3.5 2 5
v -3.5 2 -5
v -3.5 4 5
v -3.5 4 -5
v -2.5 4 5
v -2.5 4 -5
v -2.5 6 5
v -2.5 6 -5
v -1.5 6 5
v -1.5 6 -5
v -1.5 8 5
v -1.5 8 -5
v -0.5 8 5
v -0.5 8 -5
v -0.5 10 5
v -0.5 10 -5
v 0.5 11 6
v 0.5 11 5
v 0.5 11 -5
v 0.5 11 -6
v 0.5 12 6
v 0.5 12 -6
v 1.5 9 6
v 1.5 9 5
v 1.5 9 -5
v 1.5 9 -6
v 1.5 11 6
v 1.5 11 5
v 1.5 11 -5
v 1.5 11 -6
v 2.5 7 6
v 2.5 7 5
v 2.5 7 -5
v 2.5 7 -6
v 2.5 9 6
v 2.5 9 5
v 2.5 9 -5
v 2.5 9 -6
v 3.5 5 6
v 3.5 5 5
v 3.5 5 -5
v 3.5 5 -6
v 3.5 7 6
v 3.5 7 5
v 3.5 7 -5
v 3.5 7 -6
v 4.5 3 6
v 4.5 3 5
v 4.5 3 -5
v 4.5 3 -6
v 4.5 5 6
v 4.5 5 5
v 4.5 5 -5
v 4.5 5 -6
v 5.5 1 6
v 5.5 1 5
v 5.5 1 -5
v 5.5 1 -6
v 5.5 3 6
v 5.5 3 5
v 5.5 3 -5
v 5.5 3 -6
v 6.5 0 6
v 6.5 0 5
v 6.5 0 -5
v 6.5 0 -6
v 6.5 1 6
v 6.5 1 5
v 6.5 1 -5
v 6.5 1 -6
v -6.5 0 6
v -6.5 1 6
v -5.5 0 6
v -5.5 1 6
v -5.5 3 6
v -4.5 1 6
v -4.5 3 6
v -4.5 5 6
v -3.5 3 6
v -3.5 5 6
v -3.5 7 6
v -2.5 5 6
v -2.5 7 6
v -2.5 9 6
v -1.5 7 6
v -1.5 9 6
v -1.5 11 6
v -0.5 0 6
v -0.5 9 6
v -0.5 11 6
v -0.5 12 6
v 0.5 0 6
v 0.5 9 6
v 0.5 11 6
v 0.5 12 6
v 1.5 7 6
v 1.5 9 6
v 1.5 11 6
v 2.5 5 6
v 2.5 7 6
v 2.5 9 6
v 3.5 3 6
v 3.5 5 6
v 3.5 7 6
v 4.5 1 6
v 4.5 3 6
v 4.5 5 6
v 5.5 0 6
v 5.5 1 6
v 5.5 3 6
v 6.5 0 6
v 6.5 1 6
v -4.5 1 -5
v -4.5 2 -5
v -3.5 2 -5
v -3.5 4 -5
v -2.5 4 -5
v -2.5 6 -5
v -1.5 6 -5
v -1.5 8 -5
v -0.5 1 -5
v -0.5 8 -5
v -0.5 10 -5
v 0.5 1 -5
v 0.5 8 -5
v 0.5 10 -5
v 1.5 6 -5
v 1.5 8 -5
v 2.5 4 -5
v 2.5 6 -5
v 3.5 2 -5
v 3.5 4 -5
v 4.5 1 -5
v 4.5 2 -5
v -4.5 1 5
v -4.5 2 5
v -3.5 2 5
v -3.5 4 5
v -2.5 4 5
v -2.5 6 5
v -1.5 6 5
v -1.5 8 5
v -0.5 1 5
v -0.5 8 5
v -0.5 10 5
v 0.5 1 5
v 0.5 8 5
v 0.5 10 5
v 1.5 6 5
v 1.5 8 5
v 2.5 4 5
v 2.5 6 5
v 3.5 2 5
v 3.5 4 5
v 4.5 1 5
v 4.5 2 5
v -6.5 0 -6
v -6.5 1 -6
v -5.5 0 -6
v -5.5 1 -6
v -5.5 3 -6
v -4.5 1 -6
v -4.5 3 -6
v -4.5 5 -6
v -3.5 3 -6
v -3.5 5 -6
v -3.5 7 -6
v -2.5 5 -6
v -2.5 7 -6
v -2.5 9 -6
v -1.5 7 -6
v -1.5 9 -6
v -1.5 11 -6
v -0.5 0 -6
v -0.5 9 -6
v -0.5 11 -6
v -0.5 12 -6
v 0.5 0 -6
v 0.5 9 -6
v 0.5 11 -6
v 0.5 12 -6
v 1.5 7 -6
v 1.5 9 -6
v 1.5 11 -6
v 2.5 5 -6
v 2.5 7 -6
v 2.5 9 -6
v 3.5 3 -6
v 3.5 5 -6
v 3.5 7 -6
v 4.5 1 -6
v 4.5 3 -6
v 4.5 5 -6
v 5.5 0 -6
v 5.5 1 -6
v 5.5 3 -6
v 6.5 0 -6
v 6.5 1 -6
v -6.5 0 6
v -5.5 0 6
v -0.5 0 6
v 0.5 0 6
v 5.5 0 6
v 6.5 0 6
v -6.5 0 5
v -5.5 0 5
v -0.5 0 5
v 0.5 0 5
v 5.5 0 5
v 6.5 0 5
v -6.5 0 -5
v -5.5 0 -5
v -0.5 0 -5
v 0.5 0 -5
v 5.5 0 -5
v 6.5 0 -5
v -6.5 0 -6
v -5.5 0 -6
v -0.5 0 -6
v 0.5 0 -6
v 5.5 0 -6
v 6.5 0 -6
v -4.5 2 5
v -3.5 2 5
v 3.5 2 5
v 4.5 2 5
v -4.5 2 -5
v -3.5 2 -5
v 3.5 2 -5
v 4.5 2 -5
v -3.5 4 5
v -2.5 4 5
v 2.5 4 5
v 3.5 4 5
v -3.5 4 -5
v -2.5 4 -5
v 2.5 4 -5
v 3.5 4 -5
v -2.5 6 5
v -1.5 6 5
v 1.5 6 5
v 2.5 6 5
v -2.5 6 -5
v -1.5 6 -5
v 1.5 6 -5
v 2.5 6 -5
v -1.5 8 5
v -0.5 8 5
v 0.5 8 5
v 1.5 8 5
v -1.5 8 -5
v -0.5 8 -5
v 0.5 8 -5
v 1.5 8 -5
v -0.5 10 5
v 0.5 10 5
v -0.5 10 -5
v 0.5 10 -5
v -6.5 1 6
v -5.5 1 6
v 5.5 1 6
v 6.5 1 6
v -6.5 1 5
v -5.5 1 5
v -4.5 1 5
v -0.5 1 5
v 0.5 1 5
v 4.5 1 5
v 5.5 1 5
v 6.5 1 5
v -6.5 1 -5
v -5.5 1 -5
v -4.5 1 -5
v -0.5 1 -5
v 0.5 1 -5
v 4.5 1 -5
v 5.5 1 -5
v 6.5 1 -5
v -6.5 1 -6
v -5.5 1 -6
v 5.5 1 -6
v 6.5 1 -6
v -5.5 3 6
v -4.5 3 6
v 4.5 3 6
v 5.5 3 6
v -5.5 3 5
v -4.5 3 5
v 4.5 3 5
v 5.5 3 5
v -5.5 3 -5
v -4.5 3 -5
v 4.5 3 -5
v 5.5 3 -5
v -5.5 3 -6
v -4.5 3 -6
v 4.5 3 -6
v 5.5 3 -6
v -4.5 5 6
v -3.5 5 6
v 3.5 5 6
v 4.5 5 6
v -4.5 5 5
v -3.5 5 5
v 3.5 5 5
v 4.5 5 5
v -4.5 5 -5
v -3.5 5 -5
v 3.5 5 -5
v 4.5 5 -5
v -4.5 5 -6
v -3.5 5 -6
v 3.5 5 -6
v 4.5 5 -6
v -3.5 7 6
v -2.5 7 6
v 2.5 7 6
v 3.5 7 6
v -3.5 7 5
v -2.5 7 5
v 2.5 7 5
v 3.5 7 5
v -3.5 7 -5
v -2.5 7 -5
v 2.5 7 -5
v 3.5 7 -5
v -3.5 7 -6
v -2.5 7 -6
v 2.5 7 -6
v 3.5 7 -6
v -2.5 9 6
v -1.5 9 6
v 1.5 9 6
v 2.5 9 6
v -2.5 9 5
v -1.5 9 5
v 1.5 9 5
v 2.5 9 5
v -2.5 9 -5
v -1.5 9 -5
v 1.5 9 -5
v 2.5 9 -5
v -2.5 9 -6
v -1.5 9 -6
v 1.5 9 -6
v 2.5 9 -6
v -1.5 11 6
v -0.5 11 6
v 0.5 11 6
v 1.5 11 6
v -1.5 11 5
v -0.5 11 5
v 0.5 11 5
v 1.5 11 5
v -1.5 11 -5
v -0.5 11 -5
v 0.5 11 -5
v 1.5 11 -5
v -1.5 11 -6
v -0.5 11 -6
v 0.5 11 -6
v 1.5 11 -6
v -0.5 12 6
v 0.5 12 6
v -0.5 12 -6
v 0.5 12 -6

# faces
f 5/2/1 2/2/1 1/2/1
f 6/1/1 3/1/1 2/1/1
f 6/2/1 2/2/1 5/2/1
f 7/2/1 4/2/1 3/2/1
f 7/1/1 3/1/1 6/1/1
f 8/2/1 4/2/1 7/2/1
f 13/2/1 10/2/1 9/2/1
f 14/1/1 11/1/1 10/1/1
f 14/2/1 10/2/1 13/2/1
f 15/2/1 12/2/1 11/2/1
f 15/1/1 11/1/1 14/1/1
f 16/2/1 12/2/1 15/2/1
f 21/2/1 18/2/1 17/2/1
f 22/1/1 19/1/1 18/1/1
f 22/2/1 18/2/1 21/2/1
f 23/2/1 20/2/1 19/2/1
f 23/1/1 19/1/1 22/1/1
f 24/2/1 20/2/1 23/2/1
f 29/2/1 26/2/1 25/2/1
f 30/1/1 27/1/1 26/1/1
f 30/2/1 26/2/1 29/2/1
f 31/2/1 28/2/1 27/2/1
f 31/1/1 27/1/1 30/1/1
f 32/2/1 28/2/1 31/2/1
f 37/2/1 34/2/1 33/2/1
f 38/1/1 35/1/1 34/1/1
f 38/2/1 34/2/1 37/2/1
f 39/2/1 36/2/1 35/2/1
f 39/1/1 35/1/1 38/1/1
f 40/2/1 36/2/1 39/2/1
f 45/2/1 42/2/1 41/2/1
f 46/1/1 43/1/1 42/1/1
f 46/2/1 42/2/1 45/2/1
f 47/2/1 44/2/1 43/2/1
f 47/1/1 43/1/1 46/1/1
f 48/2/1 44/2/1 47/2/1
f 53/2/1 50/2/1 49/2/1
f 53/2/1 52/2/1 51/2/1
f 53/2/1 51/2/1 50/2/1
f 54/2/1 52/2/1 53/2/1
f 57/1/1 56/1/1 55/1/1
f 58/1/1 56/1/1 57/1/1
f 61/1/1 60/1/1 59/1/1
f 62/1/1 60/1/1 61/1/1
f 65/1/1 64/1/1 63/1/1
f 66/1/1 64/1/1 65/1/1
f 69/1/1 68/1/1 67/1/1
f 70/1/1 68/1/1 69/1/1
f 73/1/1 72/1/1 71/1/1
f 74/1/1 72/1/1 73/1/1
f 75/1/2 76/1/2 77/1/2
f 77/1/2 76/1/2 78/1/2
f 79/1/2 80/1/2 81/1/2
f 81/1/2 80/1/2 82/1/2
f 83/1/2 84/1/2 85/1/2
f 85/1/2 84/1/2 86/1/2
f 87/1/2 88/1/2 89/1/2
f 89/1/2 88/1/2 90/1/2
f 91/1/2 92/1/2 93/1/2
f 93/1/2 92/1/2 94/1/2
f 95/2/2 96/2/2 99/2/2
f 97/2/2 98/2/2 99/2/2
f 96/2/2 97/2/2 99/2/2
f 99/2/2 98/2/2 100/2/2
f 101/2/2 102/2/2 105/2/2
f 102/1/2 103/1/2 106/1/2
f 105/2/2 102/2/2 106/2/2
f 103/2/2 104/2/2 107/2/2
f 106/1/2 103/1/2 107/1/2
f 107/2/2 104/2/2 108/2/2
f 109/2/2 110/2/2 113/2/2
f 110/1/2 111/1/2 114/1/2
f 113/2/2 110/2/2 114/2/2
f 111/2/2 112/2/2 115/2/2
f 114/1/2 111/1/2 115/1/2
f 115/2/2 112/2/2 116/2/2
f 117/2/2 118/2/2 121/2/2
f 118/1/2 119/1/2 122/1/2
f 121/2/2 118/2/2 122/2/2
f 119/2/2 120/2/2 123/2/2
f 122/1/2 119/1/2 123/1/2
f 123/2/2 120/2/2 124/2/2
f 125/2/2 126/2/2 129/2/2
f 126/1/2 127/1/2 130/1/2
f 129/2/2 126/2/2 130/2/2
f 127/2/2 128/2/2 131/2/2
f 130/1/2 127/1/2 131/1/2
f 131/2/2 128/2/2 132/2/2
f 133/2/2 134/2/2 137/2/2
f 134/1/2 135/1/2 138/1/2
f 137/2/2 134/2/2 138/2/2
f 135/2/2 136/2/2 139/2/2
f 138/1/2 135/1/2 139/1/2
f 139/2/2 136/2/2 140/2/2
f 141/2/2 142/2/2 145/2/2
f 142/1/2 143/1/2 146/1/2
f 145/2/2 142/2/2 146/2/2
f 143/2/2 144/2/2 147/2/2
f 146/1/2 143/1/2 147/1/2
f 147/2/2 144/2/2 148/2/2
f 151/2/3 150/2/3 149/2/3
f 152/2/3 150/2/3 151/2/3
f 154/1/3 152/1/3 151/1/3
f 154/2/3 153/2/3 152/2/3
f 155/2/3 153/2/3 154/2/3
f 157/1/3 155/1/3 154/1/3
f 157/2/3 156/2/3 155/2/3
f 158/2/3 156/2/3 157/2/3
f 160/1/3 158/1/3 157/1/3
f 160/2/3 159/2/3 158/2/3
f 161/2/3 159/2/3 160/2/3
f 163/1/3 161/1/3 160/1/3
f 163/2/3 162/2/3 161/2/3
f 164/2/3 162/2/3 163/2/3
f 166/1/3 154/1/3 151/1/3
f 166/1/3 157/1/3 154/1/3
f 166/1/3 164/1/3 163/1/3
f 166/1/3 163/1/3 160/1/3
f 166/1/3 160/1/3 157/1/3
f 167/2/3 165/2/3 164/2/3
f 167/1/3 164/1/3 166/1/3
f 168/2/3 165/2/3 167/2/3
f 170/2/3 167/2/3 166/2/3
f 170/2/3 169/2/3 168/2/3
f 170/2/3 168/2/3 167/2/3
f 171/2/3 169/2/3 170/2/3
f 172/2/3 169/2/3 171/2/3
f 173/2/3 169/2/3 172/2/3
f 174/1/3 171/1/3 170/1/3
f 175/2/3 172/2/3 171/2/3
f 175/1/3 171/1/3 174/1/3
f 176/2/3 172/2/3 175/2/3
f 177/1/3 174/1/3 170/1/3
f 178/2/3 175/2/3 174/2/3
f 178/1/3 174/1/3 177/1/3
f 179/2/3 175/2/3 178/2/3
f 180/1/3 177/1/3 170/1/3
f 181/2/3 178/2/3 177/2/3
f 181/1/3 177/1/3 180/1/3
f 182/2/3 178/2/3 181/2/3
f 183/1/3 180/1/3 170/1/3
f 184/2/3 181/2/3 180/2/3
f 184/1/3 180/1/3 183/1/3
f 185/2/3 181/2/3 184/2/3
f 186/1/3 183/1/3 170/1/3
f 187/2/3 184/2/3 183/2/3
f 187/1/3 183/1/3 186/1/3
f 188/2/3 184/2/3 187/2/3
f 189/2/3 187/2/3 186/2/3
f 190/2/3 187/2/3 189/2/3
f 193/1/3 192/1/3 191/1/3
f 195/1/3 194/1/3 193/1/3
f 197/1/3 196/1/3 195/1/3
f 199/1/3 193/1/3 191/1/3
f 199/1/3 198/1/3 197/1/3
f 199/1/3 197/1/3 195/1/3
f 199/1/3 195/1/3 193/1/3
f 200/1/3 198/1/3 199/1/3
f 202/2/3 200/2/3 199/2/3
f 202/2/3 201/2/3 200/2/3
f 203/2/3 201/2/3 202/2/3
f 204/2/3 201/2/3 203/2/3
f 205/1/3 203/1/3 202/1/3
f 206/1/3 203/1/3 205/1/3
f 207/1/3 205/1/3 202/1/3
f 208/1/3 205/1/3 207/1/3
f 209/1/3 207/1/3 202/1/3
f 210/1/3 207/1/3 209/1/3
f 211/1/3 209/1/3 202/1/3
f 212/1/3 209/1/3 211/1/3
f 213/1/4 214/1/4 215/1/4
f 215/1/4 216/1/4 217/1/4
f 217/1/4 218/1/4 219/1/4
f 213/1/4 215/1/4 221/1/4
f 219/1/4 220/1/4 221/1/4
f 217/1/4 219/1/4 221/1/4
f 215/1/4 217/1/4 221/1/4
f 221/1/4 220/1/4 222/1/4
f 221/2/4 222/2/4 224/2/4
f 222/2/4 223/2/4 224/2/4
f 224/2/4 223/2/4 225/2/4
f 225/2/4 223/2/4 226/2/4
f 224/1/4 225/1/4 227/1/4
f 227/1/4 225/1/4 228/1/4
f 224/1/4 227/1/4 229/1/4
f 229/1/4 227/1/4 230/1/4
f 224/1/4 229/1/4 231/1/4
f 231/1/4 229/1/4 232/1/4
f 224/1/4 231/1/4 233/1/4
f 233/1/4 231/1/4 234/1/4
f 235/2/4 236/2/4 237/2/4
f 237/2/4 236/2/4 238/2/4
f 237/1/4 238/1/4 240/1/4
f 238/2/4 239/2/4 240/2/4
f 240/2/4 239/2/4 241/2/4
f 240/1/4 241/1/4 243/1/4
f 241/2/4 242/2/4 243/2/4
f 243/2/4 242/2/4 244/2/4
f 243/1/4 244/1/4 246/1/4
f 244/2/4 245/2/4 246/2/4
f 246/2/4 245/2/4 247/2/4
f 246/1/4 247/1/4 249/1/4
f 247/2/4 248/2/4 249/2/4
f 249/2/4 248/2/4 250/2/4
f 237/1/4 240/1/4 252/1/4
f 240/1/4 243/1/4 252/1/4
f 249/1/4 250/1/4 252/1/4
f 246/1/4 249/1/4 252/1/4
f 243/1/4 246/1/4 252/1/4
f 250/2/4 251/2/4 253/2/4
f 252/1/4 250/1/4 253/1/4
f 253/2/4 251/2/4 254/2/4
f 252/2/4 253/2/4 256/2/4
f 254/2/4 255/2/4 256/2/4
f 253/2/4 254/2/4 256/2/4
f 256/2/4 255/2/4 257/2/4
f 257/2/4 255/2/4 258/2/4
f 258/2/4 255/2/4 259/2/4
f 256/1/4 257/1/4 260/1/4
f 257/2/4 258/2/4 261/2/4
f 260/1/4 257/1/4 261/1/4
f 261/2/4 258/2/4 262/2/4
f 256/1/4 260/1/4 263/1/4
f 260/2/4 261/2/4 264/2/4
f 263/1/4 260/1/4 264/1/4
f 264/2/4 261/2/4 265/2/4
f 256/1/4 263/1/4 266/1/4
f 263/2/4 264/2/4 267/2/4
f 266/1/4 263/1/4 267/1/4
f 267/2/4 264/2/4 268/2/4
f 256/1/4 266/1/4 269/1/4
f 266/2/4 267/2/4 270/2/4
f 269/1/4 266/1/4 270/1/4
f 270/2/4 267/2/4 271/2/4
f 256/1/4 269/1/4 272/1/4
f 269/2/4 270/2/4 273/2/4
f 272/1/4 269/1/4 273/1/4
f 273/2/4 270/2/4 274/2/4
f 272/2/4 273/2/4 275/2/4
f 275/2/4 273/2/4 276/2/4
f 283/2/5 278/2/5 277/2/5
f 284/1/5 279/1/5 278/1/5
f 284/2/5 278/2/5 283/2/5
f 285/2/5 280/2/5 279/2/5
f 285/1/5 279/1/5 284/1/5
f 286/1/5 281/1/5 280/1/5
f 286/2/5 280/2/5 285/2/5
f 287/2/5 282/2/5 281/2/5
f 287/1/5 281/1/5 286/1/5
f 288/2/5 282/2/5 287/2/5
f 289/1/5 286/1/5 285/1/5
f 289/1/5 284/1/5 283/1/5
f 289/1/5 288/1/5 287/1/5
f 289/1/5 287/1/5 286/1/5
f 289/1/5 285/1/5 284/1/5
f 290/1/5 288/1/5 289/1/5
f 291/1/5 288/1/5 290/1/5
f 292/1/5 288/1/5 291/1/5
f 293/1/5 288/1/5 292/1/5
f 294/1/5 288/1/5 293/1/5
f 295/2/5 290/2/5 289/2/5
f 296/1/5 291/1/5 290/1/5
f 296/2/5 290/2/5 295/2/5
f 297/2/5 292/2/5 291/2/5
f 297/1/5 291/1/5 296/1/5
f 298/1/5 293/1/5 292/1/5
f 298/2/5 292/2/5 297/2/5
f 299/2/5 294/2/5 293/2/5
f 299/1/5 293/1/5 298/1/5
f 300/2/5 294/2/5 299/2/5
f 305/1/5 302/1/5 301/1/5
f 306/1/5 302/1/5 305/1/5
f 307/1/5 304/1/5 303/1/5
f 308/1/5 304/1/5 307/1/5
f 313/1/5 310/1/5 309/1/5
f 314/1/5 310/1/5 313/1/5
f 315/1/5 312/1/5 311/1/5
f 316/1/5 312/1/5 315/1/5
f 321/1/5 318/1/5 317/1/5
f 322/1/5 318/1/5 321/1/5
f 323/1/5 320/1/5 319/1/5
f 324/1/5 320/1/5 323/1/5
f 329/1/5 326/1/5 325/1/5
f 330/1/5 326/1/5 329/1/5
f 331/1/5 328/1/5 327/1/5
f 332/1/5 328/1/5 331/1/5
f 335/1/5 334/1/5 333/1/5
f 336/1/5 334/1/5 335/1/5
f 337/2/6 338/2/6 341/2/6
f 341/2/6 338/2/6 342/2/6
f 339/2/6 340/2/6 347/2/6
f 347/2/6 340/2/6 348/2/6
f 341/1/6 342/1/6 349/1/6
f 349/1/6 342/1/6 350/1/6
f 345/1/6 346/1/6 351/1/6
f 343/1/6 344/1/6 351/1/6
f 344/1/6 345/1/6 351/1/6
f 351/1/6 346/1/6 352/1/6
f 352/1/6 346/1/6 353/1/6
f 353/1/6 346/1/6 354/1/6
f 347/1/6 348/1/6 355/1/6
f 355/1/6 348/1/6 356/1/6
f 349/2/6 350/2/6 357/2/6
f 357/2/6 350/2/6 358/2/6
f 355/2/6 356/2/6 359/2/6
f 359/2/6 356/2/6 360/2/6
f 361/2/6 362/2/6 365/2/6
f 365/2/6 362/2/6 366/2/6
f 363/2/6 364/2/6 367/2/6
f 367/2/6 364/2/6 368/2/6
f 365/1/6 366/1/6 369/1/6
f 369/1/6 366/1/6 370/1/6
f 367/1/6 368/1/6 371/1/6
f 371/1/6 368/1/6 372/1/6
f 369/2/6 370/2/6 373/2/6
f 373/2/6 370/2/6 374/2/6
f 371/2/6 372/2/6 375/2/6
f 375/2/6 372/2/6 376/2/6
f 377/2/6 378/2/6 381/2/6
f 381/2/6 378/2/6 382/2/6
f 379/2/6 380/2/6 383/2/6
f 383/2/6 380/2/6 384/2/6
f 381/1/6 382/1/6 385/1/6
f 385/1/6 382/1/6 386/1/6
f 383/1/6 384/1/6 387/1/6
f 387/1/6 384/1/6 388/1/6
f 385/2/6 386/2/6 389/2/6
f 389/2/6 386/2/6 390/2/6
f 387/2/6 388/2/6 391/2/6
f 391/2/6 388/2/6 392/2/6
f 393/2/6 394/2/6 397/2/6
f 397/2/6 394/2/6 398/2/6
f 395/2/6 396/2/6 399/2/6
f 399/2/6 396/2/6 400/2/6
f 397/1/6 398/1/6 401/1/6
f 401/1/6 398/1/6 402/1/6
f 399/1/6 400/1/6 403/1/6
f 403/1/6 400/1/6 404/1/6
f 401/2/6 402/2/6 405/2/6
f 405/2/6 402/2/6 406/2/6
f 403/2/6 404/2/6 407/2/6
f 407/2/6 404/2/6 408/2/6
f 409/2/6 410/2/6 413/2/6
f 413/2/6 410/2/6 414/2/6
f 411/2/6 412/2/6 415/2/6
f 415/2/6 412/2/6 416/2/6
f 413/1/6 414/1/6 417/1/6
f 417/1/6 414/1/6 418/1/6
f 415/1/6 416/1/6 419/1/6
f 419/1/6 416/1/6 420/1/6
f 417/2/6 418/2/6 421/2/6
f 421/2/6 418/2/6 422/2/6
f 419/2/6 420/2/6 423/2/6
f 423/2/6 420/2/6 424/2/6
f 425/2/6 426/2/6 429/2/6
f 429/2/6 426/2/6 430/2/6
f 427/2/6 428/2/6 431/2/6
f 431/2/6 428/2/6 432/2/6
f 429/1/6 430/1/6 433/1/6
f 433/1/6 430/1/6 434/1/6
f 431/1/6 432/1/6 435/1/6
f 435/1/6 432/1/6 436/1/6
f 433/2/6 434/2/6 437/2/6
f 437/2/6 434/2/6 438/2/6
f 435/2/6 436/2/6 439/2/6
f 439/2/6 436/2/6 440/2/6
f 441/2/6 442/2/6 443/2/6
f 443/2/6 442/2/6 444/2/6
