# MagicaVoxel @ Ephtracy

# material
mtllib TrafficLight01.mtl
usemtl palette

# normals
vn -1 0 0
vn 1 0 0
vn 0 0 1
vn 0 0 -1
vn 0 -1 0
vn 0 1 0

# texcoords
vt 0.814453 0.5
vt 0.908203 0.5
vt 0.939453 0.5
vt 0.982422 0.5
vt 0.986328 0.5

# verts
v -1 0 0.5
v -1 0 -0.5
v -1 9 0.5
v -1 9 -0.5
v -1 12 0.5
v -1 12 -0.5
v 0 0 0.5
v 0 0 -0.5
v 0 9 0.5
v 0 9 -0.5
v 1 9 0.5
v 1 9 -0.5
v 1 10 0.5
v 1 10 -0.5
v 1 11 0.5
v 1 11 -0.5
v 1 12 0.5
v 1 12 -0.5
v -1 0 0.5
v -1 9 0.5
v -1 12 0.5
v 0 0 0.5
v 0 9 0.5
v 0 10 0.5
v 0 11 0.5
v 0 12 0.5
v 1 9 0.5
v 1 10 0.5
v 1 11 0.5
v 1 12 0.5
v -1 0 -0.5
v -1 9 -0.5
v -1 12 -0.5
v 0 0 -0.5
v 0 9 -0.5
v 0 10 -0.5
v 0 11 -0.5
v 0 12 -0.5
v 1 9 -0.5
v 1 10 -0.5
v 1 11 -0.5
v 1 12 -0.5
v -1 0 0.5
v 0 0 0.5
v -1 0 -0.5
v 0 0 -0.5
v 0 9 0.5
v 1 9 0.5
v 0 9 -0.5
v 1 9 -0.5
v -1 12 0.5
v 0 12 0.5
v 1 12 0.5
v -1 12 -0.5
v 0 12 -0.5
v 1 12 -0.5

# faces
f 3/5/1 2/5/1 1/5/1
f 4/5/1 2/5/1 3/5/1
f 5/4/1 4/4/1 3/4/1
f 6/4/1 4/4/1 5/4/1
f 7/5/2 8/5/2 9/5/2
f 9/5/2 8/5/2 10/5/2
f 11/3/2 12/3/2 13/3/2
f 13/3/2 12/3/2 14/3/2
f 13/2/2 14/2/2 15/2/2
f 15/2/2 14/2/2 16/2/2
f 15/1/2 16/1/2 17/1/2
f 17/1/2 16/1/2 18/1/2
f 22/5/3 20/5/3 19/5/3
f 23/4/3 21/4/3 20/4/3
f 23/5/3 20/5/3 22/5/3
f 24/4/3 21/4/3 23/4/3
f 25/4/3 21/4/3 24/4/3
f 26/4/3 21/4/3 25/4/3
f 27/3/3 24/3/3 23/3/3
f 28/2/3 25/2/3 24/2/3
f 28/3/3 24/3/3 27/3/3
f 29/1/3 26/1/3 25/1/3
f 29/2/3 25/2/3 28/2/3
f 30/1/3 26/1/3 29/1/3
f 31/5/4 32/5/4 34/5/4
f 32/4/4 33/4/4 35/4/4
f 34/5/4 32/5/4 35/5/4
f 35/4/4 33/4/4 36/4/4
f 36/4/4 33/4/4 37/4/4
f 37/4/4 33/4/4 38/4/4
f 35/3/4 36/3/4 39/3/4
f 36/2/4 37/2/4 40/2/4
f 39/3/4 36/3/4 40/3/4
f 37/1/4 38/1/4 41/1/4
f 40/2/4 37/2/4 41/2/4
f 41/1/4 38/1/4 42/1/4
f 45/5/5 44/5/5 43/5/5
f 46/5/5 44/5/5 45/5/5
f 49/3/5 48/3/5 47/3/5
f 50/3/5 48/3/5 49/3/5
f 51/4/6 52/4/6 54/4/6
f 52/1/6 53/1/6 55/1/6
f 54/4/6 52/4/6 55/4/6
f 55/1/6 53/1/6 56/1/6
