# MagicaVoxel @ Ephtracy

# material
mtllib TrashCan01.mtl
usemtl palette

# normals
vn -1 0 0
vn 1 0 0
vn 0 0 1
vn 0 0 -1
vn 0 -1 0
vn 0 1 0

# texcoords
vt 0.884766 0.5
vt 0.943359 0.5
vt 0.947266 0.5
vt 0.970703 0.5

# verts
v -4.5 9 2.5
v -4.5 9 -2.5
v -4.5 10 2.5
v -4.5 10 -2.5
v -3.5 0 1.5
v -3.5 0 -1.5
v -3.5 3 0.5
v -3.5 3 -0.5
v -3.5 4 1.5
v -3.5 4 0.5
v -3.5 4 -0.5
v -3.5 4 -1.5
v -3.5 5 1.5
v -3.5 5 0.5
v -3.5 5 -0.5
v -3.5 5 -1.5
v -3.5 6 0.5
v -3.5 6 -0.5
v -3.5 9 3.5
v -3.5 9 2.5
v -3.5 9 1.5
v -3.5 9 -1.5
v -3.5 9 -2.5
v -3.5 9 -3.5
v -3.5 10 3.5
v -3.5 10 2.5
v -3.5 10 -2.5
v -3.5 10 -3.5
v -2.5 0 2.5
v -2.5 0 1.5
v -2.5 0 -1.5
v -2.5 0 -2.5
v -2.5 4 1.5
v -2.5 4 -1.5
v -2.5 5 1.5
v -2.5 5 -1.5
v -2.5 9 4.5
v -2.5 9 3.5
v -2.5 9 2.5
v -2.5 9 1.5
v -2.5 9 -1.5
v -2.5 9 -2.5
v -2.5 9 -3.5
v -2.5 9 -4.5
v -2.5 10 4.5
v -2.5 10 3.5
v -2.5 10 1.5
v -2.5 10 -1.5
v -2.5 10 -3.5
v -2.5 10 -4.5
v -2.5 11 1.5
v -2.5 11 -1.5
v -1.5 0 3.5
v -1.5 0 2.5
v -1.5 0 -2.5
v -1.5 0 -3.5
v -1.5 4 3.5
v -1.5 4 2.5
v -1.5 4 -2.5
v -1.5 4 -3.5
v -1.5 5 3.5
v -1.5 5 2.5
v -1.5 5 -2.5
v -1.5 5 -3.5
v -1.5 9 3.5
v -1.5 9 2.5
v -1.5 9 -2.5
v -1.5 9 -3.5
v -1.5 10 2.5
v -1.5 10 1.5
v -1.5 10 -1.5
v -1.5 10 -2.5
v -1.5 11 2.5
v -1.5 11 1.5
v -1.5 11 -1.5
v -1.5 11 -2.5
v 1.5 0 3.5
v 1.5 0 2.5
v 1.5 0 -2.5
v 1.5 0 -3.5
v 1.5 4 3.5
v 1.5 4 2.5
v 1.5 4 -2.5
v 1.5 4 -3.5
v 1.5 5 3.5
v 1.5 5 2.5
v 1.5 5 -2.5
v 1.5 5 -3.5
v 1.5 9 3.5
v 1.5 9 2.5
v 1.5 9 -2.5
v 1.5 9 -3.5
v 1.5 10 2.5
v 1.5 10 1.5
v 1.5 10 -1.5
v 1.5 10 -2.5
v 1.5 11 2.5
v 1.5 11 1.5
v 1.5 11 -1.5
v 1.5 11 -2.5
v 2.5 0 2.5
v 2.5 0 1.5
v 2.5 0 -1.5
v 2.5 0 -2.5
v 2.5 4 1.5
v 2.5 4 -1.5
v 2.5 5 1.5
v 2.5 5 -1.5
v 2.5 9 4.5
v 2.5 9 3.5
v 2.5 9 2.5
v 2.5 9 1.5
v 2.5 9 -1.5
v 2.5 9 -2.5
v 2.5 9 -3.5
v 2.5 9 -4.5
v 2.5 10 4.5
v 2.5 10 3.5
v 2.5 10 1.5
v 2.5 10 -1.5
v 2.5 10 -3.5
v 2.5 10 -4.5
v 2.5 11 1.5
v 2.5 11 -1.5
v 3.5 0 1.5
v 3.5 0 -1.5
v 3.5 3 0.5
v 3.5 3 -0.5
v 3.5 4 1.5
v 3.5 4 0.5
v 3.5 4 -0.5
v 3.5 4 -1.5
v 3.5 5 1.5
v 3.5 5 0.5
v 3.5 5 -0.5
v 3.5 5 -1.5
v 3.5 6 0.5
v 3.5 6 -0.5
v 3.5 9 3.5
v 3.5 9 2.5
v 3.5 9 1.5
v 3.5 9 -1.5
v 3.5 9 -2.5
v 3.5 9 -3.5
v 3.5 10 3.5
v 3.5 10 2.5
v 3.5 10 -2.5
v 3.5 10 -3.5
v 4.5 9 2.5
v 4.5 9 -2.5
v 4.5 10 2.5
v 4.5 10 -2.5
v -2.5 9 4.5
v -2.5 10 4.5
v 2.5 9 4.5
v 2.5 10 4.5
v -3.5 9 3.5
v -3.5 10 3.5
v -2.5 9 3.5
v -2.5 10 3.5
v -1.5 0 3.5
v -1.5 4 3.5
v -1.5 5 3.5
v -1.5 9 3.5
v -0.5 3 3.5
v -0.5 4 3.5
v -0.5 5 3.5
v -0.5 6 3.5
v 0.5 3 3.5
v 0.5 4 3.5
v 0.5 5 3.5
v 0.5 6 3.5
v 1.5 0 3.5
v 1.5 4 3.5
v 1.5 5 3.5
v 1.5 9 3.5
v 2.5 9 3.5
v 2.5 10 3.5
v 3.5 9 3.5
v 3.5 10 3.5
v -4.5 9 2.5
v -4.5 10 2.5
v -3.5 9 2.5
v -3.5 10 2.5
v -2.5 0 2.5
v -2.5 9 2.5
v -1.5 0 2.5
v -1.5 4 2.5
v -1.5 5 2.5
v -1.5 9 2.5
v -1.5 10 2.5
v -1.5 11 2.5
v 1.5 0 2.5
v 1.5 4 2.5
v 1.5 5 2.5
v 1.5 9 2.5
v 1.5 10 2.5
v 1.5 11 2.5
v 2.5 0 2.5
v 2.5 9 2.5
v 3.5 9 2.5
v 3.5 10 2.5
v 4.5 9 2.5
v 4.5 10 2.5
v -3.5 0 1.5
v -3.5 4 1.5
v -3.5 5 1.5
v -3.5 9 1.5
v -2.5 0 1.5
v -2.5 4 1.5
v -2.5 5 1.5
v -2.5 9 1.5
v -2.5 10 1.5
v -2.5 11 1.5
v -1.5 10 1.5
v -1.5 11 1.5
v 1.5 10 1.5
v 1.5 11 1.5
v 2.5 0 1.5
v 2.5 4 1.5
v 2.5 5 1.5
v 2.5 9 1.5
v 2.5 10 1.5
v 2.5 11 1.5
v 3.5 0 1.5
v 3.5 4 1.5
v 3.5 5 1.5
v 3.5 9 1.5
v -3.5 0 -1.5
v -3.5 4 -1.5
v -3.5 5 -1.5
v -3.5 9 -1.5
v -2.5 0 -1.5
v -2.5 4 -1.5
v -2.5 5 -1.5
v -2.5 9 -1.5
v -2.5 10 -1.5
v -2.5 11 -1.5
v -1.5 10 -1.5
v -1.5 11 -1.5
v 1.5 10 -1.5
v 1.5 11 -1.5
v 2.5 0 -1.5
v 2.5 4 -1.5
v 2.5 5 -1.5
v 2.5 9 -1.5
v 2.5 10 -1.5
v 2.5 11 -1.5
v 3.5 0 -1.5
v 3.5 4 -1.5
v 3.5 5 -1.5
v 3.5 9 -1.5
v -4.5 9 -2.5
v -4.5 10 -2.5
v -3.5 9 -2.5
v -3.5 10 -2.5
v -2.5 0 -2.5
v -2.5 9 -2.5
v -1.5 0 -2.5
v -1.5 4 -2.5
v -1.5 5 -2.5
v -1.5 9 -2.5
v -1.5 10 -2.5
v -1.5 11 -2.5
v 1.5 0 -2.5
v 1.5 4 -2.5
v 1.5 5 -2.5
v 1.5 9 -2.5
v 1.5 10 -2.5
v 1.5 11 -2.5
v 2.5 0 -2.5
v 2.5 9 -2.5
v 3.5 9 -2.5
v 3.5 10 -2.5
v 4.5 9 -2.5
v 4.5 10 -2.5
v -3.5 9 -3.5
v -3.5 10 -3.5
v -2.5 9 -3.5
v -2.5 10 -3.5
v -1.5 0 -3.5
v -1.5 4 -3.5
v -1.5 5 -3.5
v -1.5 9 -3.5
v -0.5 3 -3.5
v -0.5 4 -3.5
v -0.5 5 -3.5
v -0.5 6 -3.5
v 0.5 3 -3.5
v 0.5 4 -3.5
v 0.5 5 -3.5
v 0.5 6 -3.5
v 1.5 0 -3.5
v 1.5 4 -3.5
v 1.5 5 -3.5
v 1.5 9 -3.5
v 2.5 9 -3.5
v 2.5 10 -3.5
v 3.5 9 -3.5
v 3.5 10 -3.5
v -2.5 9 -4.5
v -2.5 10 -4.5
v 2.5 9 -4.5
v 2.5 10 -4.5
v -1.5 0 3.5
v 1.5 0 3.5
v -2.5 0 2.5
v -1.5 0 2.5
v 1.5 0 2.5
v 2.5 0 2.5
v -3.5 0 1.5
v -2.5 0 1.5
v 2.5 0 1.5
v 3.5 0 1.5
v -3.5 0 -1.5
v -2.5 0 -1.5
v 2.5 0 -1.5
v 3.5 0 -1.5
v -2.5 0 -2.5
v -1.5 0 -2.5
v 1.5 0 -2.5
v 2.5 0 -2.5
v -1.5 0 -3.5
v 1.5 0 -3.5
v -2.5 9 4.5
v 2.5 9 4.5
v -3.5 9 3.5
v -2.5 9 3.5
v -1.5 9 3.5
v 1.5 9 3.5
v 2.5 9 3.5
v 3.5 9 3.5
v -4.5 9 2.5
v -3.5 9 2.5
v -2.5 9 2.5
v -1.5 9 2.5
v 1.5 9 2.5
v 2.5 9 2.5
v 3.5 9 2.5
v 4.5 9 2.5
v -3.5 9 1.5
v -2.5 9 1.5
v 2.5 9 1.5
v 3.5 9 1.5
v -3.5 9 -1.5
v -2.5 9 -1.5
v 2.5 9 -1.5
v 3.5 9 -1.5
v -4.5 9 -2.5
v -3.5 9 -2.5
v -2.5 9 -2.5
v -1.5 9 -2.5
v 1.5 9 -2.5
v 2.5 9 -2.5
v 3.5 9 -2.5
v 4.5 9 -2.5
v -3.5 9 -3.5
v -2.5 9 -3.5
v -1.5 9 -3.5
v 1.5 9 -3.5
v 2.5 9 -3.5
v 3.5 9 -3.5
v -2.5 9 -4.5
v 2.5 9 -4.5
v -2.5 10 4.5
v 2.5 10 4.5
v -3.5 10 3.5
v -2.5 10 3.5
v 2.5 10 3.5
v 3.5 10 3.5
v -4.5 10 2.5
v -3.5 10 2.5
v -1.5 10 2.5
v 1.5 10 2.5
v 3.5 10 2.5
v 4.5 10 2.5
v -2.5 10 1.5
v -1.5 10 1.5
v 1.5 10 1.5
v 2.5 10 1.5
v -2.5 10 -1.5
v -1.5 10 -1.5
v 1.5 10 -1.5
v 2.5 10 -1.5
v -4.5 10 -2.5
v -3.5 10 -2.5
v -1.5 10 -2.5
v 1.5 10 -2.5
v 3.5 10 -2.5
v 4.5 10 -2.5
v -3.5 10 -3.5
v -2.5 10 -3.5
v 2.5 10 -3.5
v 3.5 10 -3.5
v -2.5 10 -4.5
v 2.5 10 -4.5
v -1.5 11 2.5
v 1.5 11 2.5
v -2.5 11 1.5
v -1.5 11 1.5
v 1.5 11 1.5
v 2.5 11 1.5
v -2.5 11 -1.5
v -1.5 11 -1.5
v 1.5 11 -1.5
v 2.5 11 -1.5
v -1.5 11 -2.5
v 1.5 11 -2.5

# faces
f 3/3/1 2/3/1 1/3/1
f 4/3/1 2/3/1 3/3/1
f 7/2/1 6/2/1 5/2/1
f 8/2/1 6/2/1 7/2/1
f 9/2/1 7/2/1 5/2/1
f 10/4/1 8/4/1 7/4/1
f 10/2/1 7/2/1 9/2/1
f 11/2/1 6/2/1 8/2/1
f 11/4/1 8/4/1 10/4/1
f 12/2/1 6/2/1 11/2/1
f 13/4/1 10/4/1 9/4/1
f 14/2/1 11/2/1 10/2/1
f 14/4/1 10/4/1 13/4/1
f 15/4/1 12/4/1 11/4/1
f 15/2/1 11/2/1 14/2/1
f 16/4/1 12/4/1 15/4/1
f 17/2/1 14/2/1 13/2/1
f 17/4/1 15/4/1 14/4/1
f 18/2/1 16/2/1 15/2/1
f 18/4/1 15/4/1 17/4/1
f 21/2/1 17/2/1 13/2/1
f 21/2/1 18/2/1 17/2/1
f 22/2/1 16/2/1 18/2/1
f 22/2/1 18/2/1 21/2/1
f 25/3/1 20/3/1 19/3/1
f 26/3/1 20/3/1 25/3/1
f 27/3/1 24/3/1 23/3/1
f 28/3/1 24/3/1 27/3/1
f 33/2/1 30/2/1 29/2/1
f 34/2/1 32/2/1 31/2/1
f 35/2/1 33/2/1 29/2/1
f 36/2/1 32/2/1 34/2/1
f 39/2/1 35/2/1 29/2/1
f 40/2/1 35/2/1 39/2/1
f 41/2/1 32/2/1 36/2/1
f 42/2/1 32/2/1 41/2/1
f 45/3/1 38/3/1 37/3/1
f 46/3/1 38/3/1 45/3/1
f 49/3/1 44/3/1 43/3/1
f 50/3/1 44/3/1 49/3/1
f 51/2/1 48/2/1 47/2/1
f 52/2/1 48/2/1 51/2/1
f 57/2/1 54/2/1 53/2/1
f 58/2/1 54/2/1 57/2/1
f 59/2/1 56/2/1 55/2/1
f 60/2/1 56/2/1 59/2/1
f 61/4/1 58/4/1 57/4/1
f 62/4/1 58/4/1 61/4/1
f 63/4/1 60/4/1 59/4/1
f 64/4/1 60/4/1 63/4/1
f 65/2/1 62/2/1 61/2/1
f 66/2/1 62/2/1 65/2/1
f 67/2/1 64/2/1 63/2/1
f 68/2/1 64/2/1 67/2/1
f 73/2/1 70/2/1 69/2/1
f 74/2/1 70/2/1 73/2/1
f 75/2/1 72/2/1 71/2/1
f 76/2/1 72/2/1 75/2/1
f 77/2/2 78/2/2 81/2/2
f 81/2/2 78/2/2 82/2/2
f 79/2/2 80/2/2 83/2/2
f 83/2/2 80/2/2 84/2/2
f 81/4/2 82/4/2 85/4/2
f 85/4/2 82/4/2 86/4/2
f 83/4/2 84/4/2 87/4/2
f 87/4/2 84/4/2 88/4/2
f 85/2/2 86/2/2 89/2/2
f 89/2/2 86/2/2 90/2/2
f 87/2/2 88/2/2 91/2/2
f 91/2/2 88/2/2 92/2/2
f 93/2/2 94/2/2 97/2/2
f 97/2/2 94/2/2 98/2/2
f 95/2/2 96/2/2 99/2/2
f 99/2/2 96/2/2 100/2/2
f 101/2/2 102/2/2 105/2/2
f 103/2/2 104/2/2 106/2/2
f 101/2/2 105/2/2 107/2/2
f 106/2/2 104/2/2 108/2/2
f 101/2/2 107/2/2 111/2/2
f 111/2/2 107/2/2 112/2/2
f 108/2/2 104/2/2 113/2/2
f 113/2/2 104/2/2 114/2/2
f 109/3/2 110/3/2 117/3/2
f 117/3/2 110/3/2 118/3/2
f 115/3/2 116/3/2 121/3/2
f 121/3/2 116/3/2 122/3/2
f 119/2/2 120/2/2 123/2/2
f 123/2/2 120/2/2 124/2/2
f 125/2/2 126/2/2 127/2/2
f 127/2/2 126/2/2 128/2/2
f 125/2/2 127/2/2 129/2/2
f 127/4/2 128/4/2 130/4/2
f 129/2/2 127/2/2 130/2/2
f 128/2/2 126/2/2 131/2/2
f 130/4/2 128/4/2 131/4/2
f 131/2/2 126/2/2 132/2/2
f 129/4/2 130/4/2 133/4/2
f 130/2/2 131/2/2 134/2/2
f 133/4/2 130/4/2 134/4/2
f 131/4/2 132/4/2 135/4/2
f 134/2/2 131/2/2 135/2/2
f 135/4/2 132/4/2 136/4/2
f 133/2/2 134/2/2 137/2/2
f 134/4/2 135/4/2 137/4/2
f 135/2/2 136/2/2 138/2/2
f 137/4/2 135/4/2 138/4/2
f 133/2/2 137/2/2 141/2/2
f 137/2/2 138/2/2 141/2/2
f 138/2/2 136/2/2 142/2/2
f 141/2/2 138/2/2 142/2/2
f 139/3/2 140/3/2 145/3/2
f 145/3/2 140/3/2 146/3/2
f 143/3/2 144/3/2 147/3/2
f 147/3/2 144/3/2 148/3/2
f 149/3/2 150/3/2 151/3/2
f 151/3/2 150/3/2 152/3/2
f 155/3/3 154/3/3 153/3/3
f 156/3/3 154/3/3 155/3/3
f 159/3/3 158/3/3 157/3/3
f 160/3/3 158/3/3 159/3/3
f 165/2/3 162/2/3 161/2/3
f 166/4/3 163/4/3 162/4/3
f 166/2/3 162/2/3 165/2/3
f 167/2/3 164/2/3 163/2/3
f 167/4/3 163/4/3 166/4/3
f 168/2/3 164/2/3 167/2/3
f 169/4/3 166/4/3 165/4/3
f 169/2/3 165/2/3 161/2/3
f 170/2/3 167/2/3 166/2/3
f 170/4/3 166/4/3 169/4/3
f 171/4/3 168/4/3 167/4/3
f 171/2/3 167/2/3 170/2/3
f 172/2/3 164/2/3 168/2/3
f 172/4/3 168/4/3 171/4/3
f 173/2/3 170/2/3 169/2/3
f 173/2/3 169/2/3 161/2/3
f 174/4/3 171/4/3 170/4/3
f 174/2/3 170/2/3 173/2/3
f 175/2/3 172/2/3 171/2/3
f 175/4/3 171/4/3 174/4/3
f 176/2/3 164/2/3 172/2/3
f 176/2/3 172/2/3 175/2/3
f 179/3/3 178/3/3 177/3/3
f 180/3/3 178/3/3 179/3/3
f 183/3/3 182/3/3 181/3/3
f 184/3/3 182/3/3 183/3/3
f 187/2/3 186/2/3 185/2/3
f 188/2/3 186/2/3 187/2/3
f 189/2/3 186/2/3 188/2/3
f 190/2/3 186/2/3 189/2/3
f 197/2/3 192/2/3 191/2/3
f 198/2/3 192/2/3 197/2/3
f 199/2/3 196/2/3 195/2/3
f 199/2/3 194/2/3 193/2/3
f 199/2/3 195/2/3 194/2/3
f 200/2/3 196/2/3 199/2/3
f 203/3/3 202/3/3 201/3/3
f 204/3/3 202/3/3 203/3/3
f 209/2/3 206/2/3 205/2/3
f 210/4/3 207/4/3 206/4/3
f 210/2/3 206/2/3 209/2/3
f 211/2/3 208/2/3 207/2/3
f 211/4/3 207/4/3 210/4/3
f 212/2/3 208/2/3 211/2/3
f 215/2/3 214/2/3 213/2/3
f 216/2/3 214/2/3 215/2/3
f 223/2/3 218/2/3 217/2/3
f 224/2/3 218/2/3 223/2/3
f 225/2/3 220/2/3 219/2/3
f 226/4/3 221/4/3 220/4/3
f 226/2/3 220/2/3 225/2/3
f 227/2/3 222/2/3 221/2/3
f 227/4/3 221/4/3 226/4/3
f 228/2/3 222/2/3 227/2/3
f 229/2/4 230/2/4 233/2/4
f 230/4/4 231/4/4 234/4/4
f 233/2/4 230/2/4 234/2/4
f 231/2/4 232/2/4 235/2/4
f 234/4/4 231/4/4 235/4/4
f 235/2/4 232/2/4 236/2/4
f 237/2/4 238/2/4 239/2/4
f 239/2/4 238/2/4 240/2/4
f 241/2/4 242/2/4 247/2/4
f 247/2/4 242/2/4 248/2/4
f 243/2/4 244/2/4 249/2/4
f 244/4/4 245/4/4 250/4/4
f 249/2/4 244/2/4 250/2/4
f 245/2/4 246/2/4 251/2/4
f 250/4/4 245/4/4 251/4/4
f 251/2/4 246/2/4 252/2/4
f 253/3/4 254/3/4 255/3/4
f 255/3/4 254/3/4 256/3/4
f 257/2/4 258/2/4 259/2/4
f 259/2/4 258/2/4 260/2/4
f 260/2/4 258/2/4 261/2/4
f 261/2/4 258/2/4 262/2/4
f 263/2/4 264/2/4 269/2/4
f 269/2/4 264/2/4 270/2/4
f 267/2/4 268/2/4 271/2/4
f 265/2/4 266/2/4 271/2/4
f 266/2/4 267/2/4 271/2/4
f 271/2/4 268/2/4 272/2/4
f 273/3/4 274/3/4 275/3/4
f 275/3/4 274/3/4 276/3/4
f 277/3/4 278/3/4 279/3/4
f 279/3/4 278/3/4 280/3/4
f 281/2/4 282/2/4 285/2/4
f 282/4/4 283/4/4 286/4/4
f 285/2/4 282/2/4 286/2/4
f 283/2/4 284/2/4 287/2/4
f 286/4/4 283/4/4 287/4/4
f 287/2/4 284/2/4 288/2/4
f 285/4/4 286/4/4 289/4/4
f 281/2/4 285/2/4 289/2/4
f 286/2/4 287/2/4 290/2/4
f 289/4/4 286/4/4 290/4/4
f 287/4/4 288/4/4 291/4/4
f 290/2/4 287/2/4 291/2/4
f 288/2/4 284/2/4 292/2/4
f 291/4/4 288/4/4 292/4/4
f 289/2/4 290/2/4 293/2/4
f 281/2/4 289/2/4 293/2/4
f 290/4/4 291/4/4 294/4/4
f 293/2/4 290/2/4 294/2/4
f 291/2/4 292/2/4 295/2/4
f 294/4/4 291/4/4 295/4/4
f 292/2/4 284/2/4 296/2/4
f 295/2/4 292/2/4 296/2/4
f 297/3/4 298/3/4 299/3/4
f 299/3/4 298/3/4 300/3/4
f 301/3/4 302/3/4 303/3/4
f 303/3/4 302/3/4 304/3/4
f 308/2/5 306/2/5 305/2/5
f 309/2/5 306/2/5 308/2/5
f 312/2/5 308/2/5 307/2/5
f 312/2/5 310/2/5 309/2/5
f 312/2/5 309/2/5 308/2/5
f 313/2/5 310/2/5 312/2/5
f 315/2/5 312/2/5 311/2/5
f 315/2/5 314/2/5 313/2/5
f 315/2/5 313/2/5 312/2/5
f 316/2/5 314/2/5 315/2/5
f 317/2/5 314/2/5 316/2/5
f 318/2/5 314/2/5 317/2/5
f 319/2/5 317/2/5 316/2/5
f 320/2/5 317/2/5 319/2/5
f 321/2/5 317/2/5 320/2/5
f 322/2/5 317/2/5 321/2/5
f 323/2/5 321/2/5 320/2/5
f 324/2/5 321/2/5 323/2/5
f 328/3/5 326/3/5 325/3/5
f 329/3/5 326/3/5 328/3/5
f 330/3/5 326/3/5 329/3/5
f 331/3/5 326/3/5 330/3/5
f 334/3/5 328/3/5 327/3/5
f 334/3/5 329/3/5 328/3/5
f 335/3/5 329/3/5 334/3/5
f 336/3/5 329/3/5 335/3/5
f 337/3/5 331/3/5 330/3/5
f 337/3/5 332/3/5 331/3/5
f 338/3/5 332/3/5 337/3/5
f 339/3/5 332/3/5 338/3/5
f 341/3/5 335/3/5 334/3/5
f 341/3/5 334/3/5 333/3/5
f 342/3/5 335/3/5 341/3/5
f 343/3/5 340/3/5 339/3/5
f 343/3/5 339/3/5 338/3/5
f 344/3/5 340/3/5 343/3/5
f 345/3/5 341/3/5 333/3/5
f 348/3/5 340/3/5 344/3/5
f 349/3/5 346/3/5 345/3/5
f 349/3/5 345/3/5 333/3/5
f 350/3/5 346/3/5 349/3/5
f 351/3/5 346/3/5 350/3/5
f 354/3/5 348/3/5 347/3/5
f 355/3/5 340/3/5 348/3/5
f 355/3/5 348/3/5 354/3/5
f 356/3/5 340/3/5 355/3/5
f 357/3/5 352/3/5 351/3/5
f 357/3/5 351/3/5 350/3/5
f 358/3/5 352/3/5 357/3/5
f 359/3/5 352/3/5 358/3/5
f 360/3/5 354/3/5 353/3/5
f 360/3/5 355/3/5 354/3/5
f 361/3/5 355/3/5 360/3/5
f 362/3/5 355/3/5 361/3/5
f 363/3/5 359/3/5 358/3/5
f 363/3/5 361/3/5 360/3/5
f 363/3/5 360/3/5 359/3/5
f 364/3/5 361/3/5 363/3/5
f 365/3/6 366/3/6 368/3/6
f 368/3/6 366/3/6 369/3/6
f 367/3/6 368/3/6 372/3/6
f 369/3/6 370/3/6 372/3/6
f 368/3/6 369/3/6 372/3/6
f 372/3/6 370/3/6 373/3/6
f 373/3/6 370/3/6 374/3/6
f 374/3/6 370/3/6 375/3/6
f 371/3/6 372/3/6 377/3/6
f 372/3/6 373/3/6 377/3/6
f 377/3/6 373/3/6 378/3/6
f 375/3/6 376/3/6 379/3/6
f 374/3/6 375/3/6 379/3/6
f 379/3/6 376/3/6 380/3/6
f 371/3/6 377/3/6 381/3/6
f 380/3/6 376/3/6 384/3/6
f 381/3/6 382/3/6 385/3/6
f 371/3/6 381/3/6 385/3/6
f 385/3/6 382/3/6 386/3/6
f 386/3/6 382/3/6 387/3/6
f 383/3/6 384/3/6 388/3/6
f 384/3/6 376/3/6 389/3/6
f 388/3/6 384/3/6 389/3/6
f 389/3/6 376/3/6 390/3/6
f 386/3/6 387/3/6 391/3/6
f 387/3/6 388/3/6 391/3/6
f 388/3/6 389/3/6 391/3/6
f 391/3/6 389/3/6 392/3/6
f 392/3/6 389/3/6 393/3/6
f 393/3/6 389/3/6 394/3/6
f 392/3/6 393/3/6 395/3/6
f 395/3/6 393/3/6 396/3/6
f 397/2/6 398/2/6 400/2/6
f 400/2/6 398/2/6 401/2/6
f 399/2/6 400/2/6 403/2/6
f 401/2/6 402/2/6 403/2/6
f 400/2/6 401/2/6 403/2/6
f 403/2/6 402/2/6 404/2/6
f 404/2/6 402/2/6 405/2/6
f 405/2/6 402/2/6 406/2/6
f 404/2/6 405/2/6 407/2/6
f 407/2/6 405/2/6 408/2/6
