# MagicaVoxel @ Ephtracy

# material
mtllib Rock04.mtl
usemtl palette

# normals
vn -1 0 0
vn 1 0 0
vn 0 0 1
vn 0 0 -1
vn 0 -1 0
vn 0 1 0

# texcoords
vt 0.970703 0.5
vt 0.990234 0.5

# verts
v -5 0 3
v -5 0 -3
v -5 4 3
v -5 4 -3
v -4 0 4
v -4 0 3
v -4 0 -3
v -4 0 -4
v -4 4 3
v -4 4 -3
v -4 5 4
v -4 5 -4
v -3 0 5
v -3 0 4
v -3 0 -4
v -3 0 -5
v -3 4 5
v -3 4 4
v -3 4 -4
v -3 4 -5
v -3 5 3
v -3 5 -3
v -3 6 3
v -3 6 -3
v 3 0 5
v 3 0 4
v 3 0 -4
v 3 0 -5
v 3 4 5
v 3 4 4
v 3 4 -4
v 3 4 -5
v 3 5 3
v 3 5 -3
v 3 6 3
v 3 6 -3
v 4 0 4
v 4 0 3
v 4 0 -3
v 4 0 -4
v 4 4 3
v 4 4 -3
v 4 5 4
v 4 5 -4
v 5 0 3
v 5 0 -3
v 5 4 3
v 5 4 -3
v -3 0 5
v -3 4 5
v 3 0 5
v 3 4 5
v -4 0 4
v -4 5 4
v -3 0 4
v -3 4 4
v 3 0 4
v 3 4 4
v 4 0 4
v 4 5 4
v -5 0 3
v -5 4 3
v -4 0 3
v -4 4 3
v -3 5 3
v -3 6 3
v 3 5 3
v 3 6 3
v 4 0 3
v 4 4 3
v 5 0 3
v 5 4 3
v -5 0 -3
v -5 4 -3
v -4 0 -3
v -4 4 -3
v -3 5 -3
v -3 6 -3
v 3 5 -3
v 3 6 -3
v 4 0 -3
v 4 4 -3
v 5 0 -3
v 5 4 -3
v -4 0 -4
v -4 5 -4
v -3 0 -4
v -3 4 -4
v 3 0 -4
v 3 4 -4
v 4 0 -4
v 4 5 -4
v -3 0 -5
v -3 4 -5
v 3 0 -5
v 3 4 -5
v -3 0 5
v 3 0 5
v -4 0 4
v -3 0 4
v 3 0 4
v 4 0 4
v -5 0 3
v -4 0 3
v -3 0 3
v 3 0 3
v 4 0 3
v 5 0 3
v -5 0 -3
v -4 0 -3
v -3 0 -3
v 3 0 -3
v 4 0 -3
v 5 0 -3
v -4 0 -4
v -3 0 -4
v 3 0 -4
v 4 0 -4
v -3 0 -5
v 3 0 -5
v -3 4 5
v 3 4 5
v -3 4 4
v 3 4 4
v -5 4 3
v -4 4 3
v 4 4 3
v 5 4 3
v -5 4 -3
v -4 4 -3
v 4 4 -3
v 5 4 -3
v -3 4 -4
v 3 4 -4
v -3 4 -5
v 3 4 -5
v -4 5 4
v 4 5 4
v -3 5 3
v 3 5 3
v -3 5 -3
v 3 5 -3
v -4 5 -4
v 4 5 -4
v -3 6 3
v 3 6 3
v -3 6 -3
v 3 6 -3

# faces
f 3/2/1 2/2/1 1/2/1
f 4/2/1 2/2/1 3/2/1
f 9/2/1 6/2/1 5/2/1
f 10/2/1 8/2/1 7/2/1
f 11/2/1 9/2/1 5/2/1
f 11/2/1 10/2/1 9/2/1
f 12/2/1 8/2/1 10/2/1
f 12/2/1 10/2/1 11/2/1
f 17/2/1 14/2/1 13/2/1
f 18/2/1 14/2/1 17/2/1
f 19/2/1 16/2/1 15/2/1
f 20/2/1 16/2/1 19/2/1
f 23/1/1 22/1/1 21/1/1
f 24/1/1 22/1/1 23/1/1
f 25/2/2 26/2/2 29/2/2
f 29/2/2 26/2/2 30/2/2
f 27/2/2 28/2/2 31/2/2
f 31/2/2 28/2/2 32/2/2
f 33/1/2 34/1/2 35/1/2
f 35/1/2 34/1/2 36/1/2
f 37/2/2 38/2/2 41/2/2
f 39/2/2 40/2/2 42/2/2
f 37/2/2 41/2/2 43/2/2
f 41/2/2 42/2/2 43/2/2
f 42/2/2 40/2/2 44/2/2
f 43/2/2 42/2/2 44/2/2
f 45/2/2 46/2/2 47/2/2
f 47/2/2 46/2/2 48/2/2
f 51/2/3 50/2/3 49/2/3
f 52/2/3 50/2/3 51/2/3
f 55/2/3 54/2/3 53/2/3
f 56/2/3 54/2/3 55/2/3
f 58/2/3 54/2/3 56/2/3
f 59/2/3 58/2/3 57/2/3
f 60/2/3 54/2/3 58/2/3
f 60/2/3 58/2/3 59/2/3
f 63/2/3 62/2/3 61/2/3
f 64/2/3 62/2/3 63/2/3
f 67/1/3 66/1/3 65/1/3
f 68/1/3 66/1/3 67/1/3
f 71/2/3 70/2/3 69/2/3
f 72/2/3 70/2/3 71/2/3
f 73/2/4 74/2/4 75/2/4
f 75/2/4 74/2/4 76/2/4
f 77/1/4 78/1/4 79/1/4
f 79/1/4 78/1/4 80/1/4
f 81/2/4 82/2/4 83/2/4
f 83/2/4 82/2/4 84/2/4
f 85/2/4 86/2/4 87/2/4
f 87/2/4 86/2/4 88/2/4
f 88/2/4 86/2/4 90/2/4
f 89/2/4 90/2/4 91/2/4
f 90/2/4 86/2/4 92/2/4
f 91/2/4 90/2/4 92/2/4
f 93/2/4 94/2/4 95/2/4
f 95/2/4 94/2/4 96/2/4
f 100/2/5 98/2/5 97/2/5
f 101/2/5 98/2/5 100/2/5
f 104/2/5 100/2/5 99/2/5
f 104/2/5 102/2/5 101/2/5
f 104/2/5 101/2/5 100/2/5
f 105/2/5 102/2/5 104/2/5
f 106/2/5 102/2/5 105/2/5
f 107/2/5 102/2/5 106/2/5
f 109/2/5 104/2/5 103/2/5
f 109/2/5 105/2/5 104/2/5
f 110/2/5 105/2/5 109/2/5
f 111/1/5 106/1/5 105/1/5
f 111/2/5 105/2/5 110/2/5
f 112/2/5 108/2/5 107/2/5
f 112/1/5 106/1/5 111/1/5
f 112/2/5 107/2/5 106/2/5
f 113/2/5 108/2/5 112/2/5
f 114/2/5 108/2/5 113/2/5
f 115/2/5 111/2/5 110/2/5
f 115/2/5 113/2/5 112/2/5
f 115/2/5 112/2/5 111/2/5
f 116/2/5 113/2/5 115/2/5
f 117/2/5 113/2/5 116/2/5
f 118/2/5 113/2/5 117/2/5
f 119/2/5 117/2/5 116/2/5
f 120/2/5 117/2/5 119/2/5
f 121/2/6 122/2/6 123/2/6
f 123/2/6 122/2/6 124/2/6
f 125/2/6 126/2/6 129/2/6
f 129/2/6 126/2/6 130/2/6
f 127/2/6 128/2/6 131/2/6
f 131/2/6 128/2/6 132/2/6
f 133/2/6 134/2/6 135/2/6
f 135/2/6 134/2/6 136/2/6
f 137/2/6 138/2/6 139/2/6
f 139/2/6 138/2/6 140/2/6
f 137/2/6 139/2/6 141/2/6
f 140/2/6 138/2/6 142/2/6
f 137/2/6 141/2/6 143/2/6
f 141/2/6 142/2/6 143/2/6
f 142/2/6 138/2/6 144/2/6
f 143/2/6 142/2/6 144/2/6
f 145/1/6 146/1/6 147/1/6
f 147/1/6 146/1/6 148/1/6
