# MagicaVoxel @ Ephtracy

# material
mtllib Rock08.mtl
usemtl palette

# normals
vn -1 0 0
vn 1 0 0
vn 0 0 1
vn 0 0 -1
vn 0 -1 0
vn 0 1 0

# texcoords
vt 0.970703 0.5
vt 0.990234 0.5

# verts
v -7 0 4
v -7 0 -5
v -7 1 4
v -7 1 3
v -7 2 3
v -7 2 1
v -7 3 -0
v -7 3 -1
v -7 4 1
v -7 4 -0
v -7 4 -1
v -7 4 -5
v -6 0 -5
v -6 0 -8
v -6 2 2
v -6 2 1
v -6 2 -7
v -6 2 -8
v -6 3 2
v -6 3 1
v -6 3 -0
v -6 3 -1
v -6 3 -6
v -6 3 -7
v -6 4 -0
v -6 4 -1
v -6 4 -5
v -6 5 -0
v -6 5 -2
v -6 5 -4
v -6 5 -6
v -6 6 -2
v -6 6 -4
v -5 1 4
v -5 1 3
v -5 2 4
v -5 2 3
v -5 3 -6
v -5 3 -7
v -5 4 1
v -5 4 -0
v -5 5 1
v -5 5 -0
v -5 5 -2
v -5 5 -4
v -5 5 -6
v -5 5 -7
v -5 6 -0
v -5 6 -2
v -5 6 -4
v -5 6 -6
v -4 2 4
v -4 2 2
v -4 2 -7
v -4 2 -8
v -4 3 4
v -4 3 2
v -4 3 1
v -4 4 -7
v -4 4 -8
v -4 5 2
v -4 5 1
v -4 6 -1
v -4 6 -5
v -4 7 -1
v -4 7 -5
v -3 3 5
v -3 3 4
v -3 3 2
v -3 4 5
v -3 4 3
v -3 5 2
v -3 5 -0
v -3 5 -6
v -3 5 -7
v -3 6 -0
v -3 6 -6
v -3 6 -7
v -3 8 5
v -3 8 3
v -3 8 2
v -3 8 -0
v -3 9 5
v -3 9 2
v -2 4 4
v -2 4 3
v -2 6 5
v -2 6 4
v -2 7 -0
v -2 7 -1
v -2 8 5
v -2 8 3
v -2 8 2
v -2 8 -0
v -2 9 2
v -2 9 1
v -2 9 -1
v -2 10 2
v -2 10 1
v -1 4 5
v -1 4 4
v -1 6 5
v -1 6 4
v -1 6 -0
v -1 6 -1
v -1 7 -0
v -1 7 -1
v -1 7 -2
v -1 8 -1
v -1 8 -2
v 0 0 4
v 0 0 3
v 0 2 4
v 0 2 3
v 0 3 7
v 0 3 5
v 0 5 7
v 0 5 6
v 0 6 5
v 0 6 4
v 0 7 6
v 0 7 4
v 1 0 5
v 1 0 4
v 1 2 7
v 1 2 5
v 1 3 7
v 1 3 4
v 1 7 6
v 1 7 4
v 1 8 6
v 1 8 5
v 1 8 4
v 1 9 2
v 1 9 1
v 1 10 2
v 1 10 1
v 2 0 6
v 2 0 5
v 2 1 7
v 2 1 6
v 2 2 8
v 2 2 7
v 2 2 5
v 2 3 8
v 2 3 7
v 2 8 5
v 2 8 4
v 2 9 5
v 2 9 4
v 3 0 7
v 3 0 6
v 3 1 7
v 3 1 6
v 6 2 7
v 6 2 6
v 6 3 7
v 6 3 6
v -3 0 4
v -3 0 3
v -3 2 4
v -3 2 3
v -2 3 -4
v -2 3 -7
v -2 4 -7
v -2 6 -4
v -2 6 -5
v -2 6 -7
v -1 2 -3
v -1 2 -8
v -1 3 -4
v -1 3 -7
v -1 4 -7
v -1 4 -8
v -1 6 5
v -1 6 4
v -1 6 -4
v -1 6 -5
v -1 7 -3
v -1 7 -5
v -1 8 5
v -1 8 4
v -1 9 2
v -1 9 1
v -1 10 2
v -1 10 1
v 0 0 -7
v 0 0 -8
v 0 1 -4
v 0 1 -7
v 0 2 -4
v 0 2 -8
v 0 3 -2
v 0 3 -3
v 0 7 -2
v 0 7 -3
v 1 0 -6
v 1 0 -7
v 1 1 -6
v 1 1 -7
v 1 2 -0
v 1 2 -3
v 1 3 -1
v 1 3 -2
v 1 3 -3
v 1 4 7
v 1 4 6
v 1 5 7
v 1 5 6
v 1 5 -0
v 1 5 -1
v 1 5 -2
v 1 8 5
v 1 8 4
v 1 9 5
v 1 9 4
v 2 0 -3
v 2 0 -6
v 2 1 1
v 2 1 -3
v 2 1 -4
v 2 1 -6
v 2 2 -0
v 2 2 -4
v 2 3 7
v 2 3 5
v 2 4 7
v 2 4 6
v 2 5 -0
v 2 5 -1
v 2 5 -2
v 2 6 1
v 2 6 -1
v 2 6 -2
v 2 7 3
v 2 7 -0
v 2 8 6
v 2 8 5
v 2 8 3
v 2 8 -0
v 2 9 3
v 2 9 2
v 2 9 1
v 2 9 -0
v 2 10 2
v 2 10 1
v 3 0 -0
v 3 0 -3
v 3 1 -0
v 3 1 -3
v 3 2 8
v 3 2 7
v 3 2 6
v 3 2 2
v 3 2 1
v 3 3 8
v 3 3 6
v 3 3 5
v 3 3 2
v 3 5 2
v 3 5 1
v 3 6 2
v 3 6 1
v 3 6 -1
v 3 6 -2
v 3 7 5
v 3 7 4
v 3 7 3
v 3 7 -0
v 3 8 4
v 3 8 3
v 3 8 -0
v 3 8 -1
v 3 8 -2
v 3 9 4
v 3 9 3
v 3 9 -0
v 3 9 -1
v 4 2 6
v 4 2 2
v 4 3 6
v 4 3 2
v 4 5 2
v 4 5 1
v 4 6 2
v 4 6 1
v 4 7 5
v 4 7 4
v 4 8 5
v 4 8 4
v 4 9 5
v 4 9 4
v 5 0 7
v 5 0 6
v 5 1 7
v 5 1 6
v 5 1 5
v 5 1 2
v 5 2 5
v 5 2 2
v 7 0 6
v 7 0 -0
v 7 1 7
v 7 1 6
v 7 1 5
v 7 1 2
v 7 1 1
v 7 1 -0
v 7 2 6
v 7 2 5
v 7 2 2
v 7 2 1
v 7 3 7
v 7 3 6
v 2 2 8
v 2 3 8
v 3 2 8
v 3 3 8
v 0 3 7
v 0 5 7
v 1 2 7
v 1 3 7
v 1 4 7
v 1 5 7
v 2 1 7
v 2 2 7
v 2 3 7
v 2 4 7
v 3 0 7
v 3 1 7
v 3 2 7
v 5 0 7
v 5 1 7
v 6 2 7
v 6 3 7
v 7 1 7
v 7 3 7
v 0 5 6
v 0 7 6
v 1 4 6
v 1 5 6
v 1 7 6
v 1 8 6
v 2 0 6
v 2 1 6
v 2 4 6
v 2 8 6
v 3 0 6
v 3 1 6
v 3 2 6
v 3 3 6
v 4 2 6
v 4 3 6
v 5 0 6
v 5 1 6
v 7 0 6
v 7 1 6
v -3 3 5
v -3 4 5
v -3 8 5
v -3 9 5
v -2 6 5
v -2 8 5
v -1 4 5
v -1 6 5
v -1 8 5
v 0 3 5
v 0 6 5
v 1 0 5
v 1 2 5
v 1 8 5
v 1 9 5
v 2 0 5
v 2 2 5
v 2 3 5
v 2 8 5
v 2 9 5
v 3 3 5
v 3 7 5
v 4 7 5
v 4 8 5
v 4 9 5
v -7 0 4
v -7 1 4
v -5 1 4
v -5 2 4
v -4 2 4
v -4 3 4
v -3 0 4
v -3 2 4
v -3 3 4
v -2 4 4
v -2 6 4
v -1 4 4
v -1 6 4
v -1 8 4
v 0 0 4
v 0 2 4
v 0 6 4
v 0 7 4
v 1 0 4
v 1 3 4
v 1 7 4
v 1 8 4
v 1 9 4
v 2 8 4
v 2 9 4
v -7 1 3
v -7 2 3
v -5 1 3
v -5 2 3
v -3 0 3
v -3 2 3
v -3 4 3
v -3 8 3
v -2 4 3
v -2 8 3
v 0 0 3
v 0 2 3
v -6 2 2
v -6 3 2
v -4 2 2
v -4 3 2
v -4 5 2
v -3 3 2
v -3 5 2
v -2 9 2
v -2 10 2
v -1 9 2
v -1 10 2
v 1 9 2
v 1 10 2
v 2 9 2
v 2 10 2
v 3 5 2
v 3 6 2
v 4 5 2
v 4 6 2
v 5 1 2
v 5 2 2
v 7 1 2
v 7 2 2
v -7 2 1
v -7 4 1
v -6 2 1
v -6 3 1
v -5 4 1
v -5 5 1
v -4 3 1
v -4 5 1
v -6 4 -0
v -6 5 -0
v -5 4 -0
v -5 5 -0
v -5 6 -0
v -3 5 -0
v -3 6 -0
v 2 7 -0
v 2 8 -0
v 2 9 -0
v 3 7 -0
v 3 8 -0
v 3 9 -0
v -7 3 -1
v -7 4 -1
v -6 3 -1
v -6 4 -1
v -4 6 -1
v -4 7 -1
v -2 7 -1
v -1 6 -1
v -1 7 -1
v -6 5 -2
v -6 6 -2
v -5 5 -2
v -5 6 -2
v -2 3 -7
v -2 4 -7
v -1 3 -7
v -1 4 -7
v 6 2 6
v 6 3 6
v 7 2 6
v 7 3 6
v 5 1 5
v 5 2 5
v 7 1 5
v 7 2 5
v 3 7 4
v 3 8 4
v 3 9 4
v 4 7 4
v 4 8 4
v 4 9 4
v 2 7 3
v 2 8 3
v 2 9 3
v 3 7 3
v 3 8 3
v 3 9 3
v -3 8 2
v -3 9 2
v -2 8 2
v -2 9 2
v 3 2 2
v 3 3 2
v 4 2 2
v 4 3 2
v -2 9 1
v -2 10 1
v -1 9 1
v -1 10 1
v 1 9 1
v 1 10 1
v 2 1 1
v 2 6 1
v 2 9 1
v 2 10 1
v 3 2 1
v 3 5 1
v 3 6 1
v 4 5 1
v 4 6 1
v 7 1 1
v 7 2 1
v -7 3 -0
v -7 4 -0
v -6 3 -0
v -6 4 -0
v -3 6 -0
v -3 8 -0
v -2 7 -0
v -2 8 -0
v -1 6 -0
v -1 7 -0
v 1 2 -0
v 1 5 -0
v 2 2 -0
v 2 5 -0
v 3 0 -0
v 3 1 -0
v 7 0 -0
v 7 1 -0
v -2 7 -1
v -2 9 -1
v -1 7 -1
v -1 8 -1
v 3 8 -1
v 3 9 -1
v -1 7 -2
v -1 8 -2
v 0 3 -2
v 0 7 -2
v 1 3 -2
v 1 5 -2
v 2 5 -2
v 2 6 -2
v 3 6 -2
v 3 8 -2
v -1 2 -3
v -1 7 -3
v 0 3 -3
v 0 7 -3
v 1 2 -3
v 1 3 -3
v 2 0 -3
v 2 1 -3
v 3 0 -3
v 3 1 -3
v -6 5 -4
v -6 6 -4
v -5 5 -4
v -5 6 -4
v -2 3 -4
v -2 6 -4
v -1 3 -4
v -1 6 -4
v 0 1 -4
v 0 2 -4
v 2 1 -4
v 2 2 -4
v -7 0 -5
v -7 4 -5
v -6 0 -5
v -6 4 -5
v -4 6 -5
v -4 7 -5
v -2 6 -5
v -1 6 -5
v -1 7 -5
v -6 3 -6
v -6 5 -6
v -5 3 -6
v -5 5 -6
v -5 6 -6
v -3 5 -6
v -3 6 -6
v 1 0 -6
v 1 1 -6
v 2 0 -6
v 2 1 -6
v -6 2 -7
v -6 3 -7
v -5 3 -7
v -5 5 -7
v -4 2 -7
v -4 4 -7
v -3 5 -7
v -3 6 -7
v -2 4 -7
v -2 6 -7
v 0 0 -7
v 0 1 -7
v 1 0 -7
v 1 1 -7
v -6 0 -8
v -6 2 -8
v -4 2 -8
v -4 4 -8
v -1 2 -8
v -1 4 -8
v 0 0 -8
v 0 2 -8
v 3 0 7
v 5 0 7
v 2 0 6
v 3 0 6
v 5 0 6
v 7 0 6
v 1 0 5
v 2 0 5
v -7 0 4
v -3 0 4
v 0 0 4
v 1 0 4
v -3 0 3
v 0 0 3
v 3 0 -0
v 7 0 -0
v 2 0 -3
v 3 0 -3
v -7 0 -5
v -6 0 -5
v 1 0 -6
v 2 0 -6
v 0 0 -7
v 1 0 -7
v -6 0 -8
v 0 0 -8
v 2 1 7
v 3 1 7
v 5 1 7
v 7 1 7
v 2 1 6
v 3 1 6
v 5 1 6
v 7 1 6
v 2 2 8
v 3 2 8
v 1 2 7
v 2 2 7
v 3 2 7
v 1 2 5
v 2 2 5
v -3 2 4
v 0 2 4
v -3 2 3
v 0 2 3
v 0 3 7
v 1 3 7
v -3 3 5
v 0 3 5
v -3 3 4
v 1 3 4
v 3 5 2
v 4 5 2
v 3 5 1
v 4 5 1
v 1 5 -0
v 2 5 -0
v 1 5 -1
v 2 5 -1
v 1 5 -2
v 2 5 -2
v -2 6 5
v -1 6 5
v -2 6 4
v -1 6 4
v 2 6 1
v 3 6 1
v 2 6 -1
v 3 6 -1
v 2 6 -2
v 3 6 -2
v -2 6 -4
v -1 6 -4
v -2 6 -5
v -1 6 -5
v 3 7 5
v 4 7 5
v 3 7 4
v 4 7 4
v -2 7 -0
v -1 7 -0
v -2 7 -1
v -1 7 -1
v -3 8 5
v -2 8 5
v -1 8 5
v 1 8 5
v -1 8 4
v 1 8 4
v -3 8 3
v -2 8 3
v 5 1 5
v 7 1 5
v -7 1 4
v -5 1 4
v -7 1 3
v -5 1 3
v 5 1 2
v 7 1 2
v 2 1 1
v 7 1 1
v 3 1 -0
v 7 1 -0
v 2 1 -3
v 3 1 -3
v 0 1 -4
v 2 1 -4
v 1 1 -6
v 2 1 -6
v 0 1 -7
v 1 1 -7
v 3 2 7
v 6 2 7
v 3 2 6
v 4 2 6
v 6 2 6
v 7 2 6
v 5 2 5
v 7 2 5
v -5 2 4
v -4 2 4
v -7 2 3
v -5 2 3
v -6 2 2
v -4 2 2
v 3 2 2
v 4 2 2
v 5 2 2
v 7 2 2
v -7 2 1
v -6 2 1
v 3 2 1
v 7 2 1
v 1 2 -0
v 2 2 -0
v -1 2 -3
v 1 2 -3
v 0 2 -4
v 2 2 -4
v -6 2 -7
v -4 2 -7
v -6 2 -8
v -4 2 -8
v -1 2 -8
v 0 2 -8
v 2 3 8
v 3 3 8
v 2 3 7
v 6 3 7
v 7 3 7
v 3 3 6
v 4 3 6
v 6 3 6
v 7 3 6
v 2 3 5
v 3 3 5
v -4 3 4
v -3 3 4
v -6 3 2
v -4 3 2
v -3 3 2
v 3 3 2
v 4 3 2
v -6 3 1
v -4 3 1
v -7 3 -0
v -6 3 -0
v -7 3 -1
v -6 3 -1
v 0 3 -2
v 1 3 -2
v 0 3 -3
v 1 3 -3
v -2 3 -4
v -1 3 -4
v -6 3 -6
v -5 3 -6
v -6 3 -7
v -5 3 -7
v -2 3 -7
v -1 3 -7
v 1 4 7
v 2 4 7
v 1 4 6
v 2 4 6
v -3 4 5
v -1 4 5
v -2 4 4
v -1 4 4
v -3 4 3
v -2 4 3
v -7 4 1
v -5 4 1
v -7 4 -0
v -6 4 -0
v -5 4 -0
v -7 4 -1
v -6 4 -1
v -7 4 -5
v -6 4 -5
v -4 4 -7
v -2 4 -7
v -1 4 -7
v -4 4 -8
v -1 4 -8
v 0 5 7
v 1 5 7
v 0 5 6
v 1 5 6
v -4 5 2
v -3 5 2
v -5 5 1
v -4 5 1
v -6 5 -0
v -5 5 -0
v -3 5 -0
v -6 5 -2
v -5 5 -2
v -6 5 -4
v -5 5 -4
v -6 5 -6
v -5 5 -6
v -3 5 -6
v -5 5 -7
v -3 5 -7
v -1 6 5
v 0 6 5
v -1 6 4
v 0 6 4
v 3 6 2
v 4 6 2
v 3 6 1
v 4 6 1
v -5 6 -0
v -3 6 -0
v -1 6 -0
v -4 6 -1
v -1 6 -1
v -6 6 -2
v -5 6 -2
v -6 6 -4
v -5 6 -4
v -4 6 -5
v -2 6 -5
v -5 6 -6
v -3 6 -6
v -3 6 -7
v -2 6 -7
v 0 7 6
v 1 7 6
v 0 7 4
v 1 7 4
v 2 7 3
v 3 7 3
v 2 7 -0
v 3 7 -0
v -4 7 -1
v -2 7 -1
v -1 7 -1
v -1 7 -2
v 0 7 -2
v -1 7 -3
v 0 7 -3
v -4 7 -5
v -1 7 -5
v 1 8 6
v 2 8 6
v 1 8 5
v 2 8 5
v 1 8 4
v 2 8 4
v -3 8 2
v -2 8 2
v -3 8 -0
v -2 8 -0
v -1 8 -1
v 3 8 -1
v -1 8 -2
v 3 8 -2
v -3 9 5
v 1 9 5
v 2 9 5
v 4 9 5
v 1 9 4
v 2 9 4
v 3 9 4
v 4 9 4
v 2 9 3
v 3 9 3
v -3 9 2
v -2 9 2
v -1 9 2
v 1 9 2
v 2 9 2
v -2 9 1
v -1 9 1
v 1 9 1
v 2 9 1
v 2 9 -0
v 3 9 -0
v -2 9 -1
v 3 9 -1
v -2 10 2
v -1 10 2
v 1 10 2
v 2 10 2
v -2 10 1
v -1 10 1
v 1 10 1
v 2 10 1

# faces
f 3/2/1 2/2/1 1/2/1
f 4/2/1 2/2/1 3/2/1
f 5/2/1 2/2/1 4/2/1
f 6/2/1 2/2/1 5/2/1
f 7/2/1 2/2/1 6/2/1
f 8/2/1 2/2/1 7/2/1
f 9/2/1 7/2/1 6/2/1
f 10/2/1 7/2/1 9/2/1
f 11/2/1 2/2/1 8/2/1
f 12/2/1 2/2/1 11/2/1
f 17/2/1 14/2/1 13/2/1
f 18/2/1 14/2/1 17/2/1
f 19/2/1 16/2/1 15/2/1
f 20/2/1 16/2/1 19/2/1
f 23/2/1 17/2/1 13/2/1
f 24/2/1 17/2/1 23/2/1
f 25/2/1 22/2/1 21/2/1
f 26/2/1 22/2/1 25/2/1
f 27/2/1 23/2/1 13/2/1
f 28/2/1 26/2/1 25/2/1
f 28/2/1 27/2/1 26/2/1
f 29/2/1 27/2/1 28/2/1
f 30/2/1 27/2/1 29/2/1
f 31/2/1 23/2/1 27/2/1
f 31/2/1 27/2/1 30/2/1
f 32/2/1 30/2/1 29/2/1
f 33/2/1 30/2/1 32/2/1
f 36/2/1 35/2/1 34/2/1
f 37/2/1 35/2/1 36/2/1
f 42/2/1 41/2/1 40/2/1
f 43/2/1 41/2/1 42/2/1
f 46/2/1 39/2/1 38/2/1
f 47/2/1 39/2/1 46/2/1
f 48/2/1 44/2/1 43/2/1
f 49/2/1 44/2/1 48/2/1
f 50/2/1 46/2/1 45/2/1
f 51/2/1 46/2/1 50/2/1
f 56/2/1 53/2/1 52/2/1
f 57/2/1 53/2/1 56/2/1
f 59/2/1 55/2/1 54/2/1
f 60/2/1 55/2/1 59/2/1
f 61/2/1 58/2/1 57/2/1
f 62/2/1 58/2/1 61/2/1
f 65/2/1 64/2/1 63/2/1
f 66/2/1 64/2/1 65/2/1
f 70/2/1 68/2/1 67/2/1
f 70/2/1 69/2/1 68/2/1
f 71/2/1 69/2/1 70/2/1
f 72/2/1 69/2/1 71/2/1
f 76/2/1 73/2/1 72/2/1
f 77/2/1 75/2/1 74/2/1
f 78/2/1 75/2/1 77/2/1
f 80/2/1 72/2/1 71/2/1
f 80/2/1 76/2/1 72/2/1
f 81/2/1 76/2/1 80/2/1
f 82/2/1 76/2/1 81/2/1
f 83/1/1 80/1/1 79/1/1
f 83/1/1 81/1/1 80/1/1
f 84/1/1 81/1/1 83/1/1
f 88/2/1 86/2/1 85/2/1
f 91/2/1 88/2/1 87/2/1
f 92/2/1 86/2/1 88/2/1
f 92/2/1 88/2/1 91/2/1
f 94/1/1 90/1/1 89/1/1
f 95/1/1 94/1/1 93/1/1
f 96/1/1 94/1/1 95/1/1
f 97/1/1 90/1/1 94/1/1
f 97/1/1 94/1/1 96/1/1
f 98/1/1 96/1/1 95/1/1
f 99/1/1 96/1/1 98/1/1
f 102/2/1 101/2/1 100/2/1
f 103/2/1 101/2/1 102/2/1
f 106/2/1 105/2/1 104/2/1
f 107/2/1 105/2/1 106/2/1
f 109/1/1 108/1/1 107/1/1
f 110/1/1 108/1/1 109/1/1
f 113/2/1 112/2/1 111/2/1
f 114/2/1 112/2/1 113/2/1
f 117/2/1 116/2/1 115/2/1
f 118/2/1 116/2/1 117/2/1
f 119/2/1 116/2/1 118/2/1
f 121/2/1 119/2/1 118/2/1
f 121/2/1 120/2/1 119/2/1
f 122/2/1 120/2/1 121/2/1
f 126/2/1 124/2/1 123/2/1
f 127/2/1 126/2/1 125/2/1
f 128/2/1 124/2/1 126/2/1
f 128/2/1 126/2/1 127/2/1
f 131/2/1 130/2/1 129/2/1
f 132/2/1 130/2/1 131/2/1
f 133/2/1 130/2/1 132/2/1
f 136/1/1 135/1/1 134/1/1
f 137/1/1 135/1/1 136/1/1
f 141/2/1 139/2/1 138/2/1
f 143/2/1 141/2/1 140/2/1
f 144/2/1 139/2/1 141/2/1
f 144/2/1 141/2/1 143/2/1
f 145/2/1 143/2/1 142/2/1
f 146/2/1 143/2/1 145/2/1
f 149/1/1 148/1/1 147/1/1
f 150/1/1 148/1/1 149/1/1
f 153/2/1 152/2/1 151/2/1
f 154/2/1 152/2/1 153/2/1
f 157/2/1 156/2/1 155/2/1
f 158/2/1 156/2/1 157/2/1
f 159/2/2 160/2/2 161/2/2
f 161/2/2 160/2/2 162/2/2
f 163/2/2 164/2/2 165/2/2
f 163/2/2 165/2/2 166/2/2
f 166/2/2 165/2/2 167/2/2
f 167/2/2 165/2/2 168/2/2
f 169/2/2 170/2/2 171/2/2
f 171/2/2 170/2/2 172/2/2
f 172/2/2 170/2/2 173/2/2
f 173/2/2 170/2/2 174/2/2
f 169/2/2 171/2/2 177/2/2
f 169/2/2 177/2/2 179/2/2
f 177/2/2 178/2/2 179/2/2
f 179/2/2 178/2/2 180/2/2
f 175/2/2 176/2/2 181/2/2
f 181/2/2 176/2/2 182/2/2
f 183/1/2 184/1/2 185/1/2
f 185/1/2 184/1/2 186/1/2
f 187/2/2 188/2/2 190/2/2
f 189/2/2 190/2/2 191/2/2
f 190/2/2 188/2/2 192/2/2
f 191/2/2 190/2/2 192/2/2
f 193/2/2 194/2/2 195/2/2
f 195/2/2 194/2/2 196/2/2
f 197/2/2 198/2/2 199/2/2
f 199/2/2 198/2/2 200/2/2
f 201/2/2 202/2/2 203/2/2
f 203/2/2 202/2/2 204/2/2
f 204/2/2 202/2/2 205/2/2
f 206/2/2 207/2/2 208/2/2
f 208/2/2 207/2/2 209/2/2
f 201/2/2 203/2/2 210/2/2
f 203/1/2 204/1/2 211/1/2
f 210/2/2 203/2/2 211/2/2
f 211/1/2 204/1/2 212/1/2
f 213/1/2 214/1/2 215/1/2
f 215/1/2 214/1/2 216/1/2
f 217/2/2 218/2/2 220/2/2
f 220/2/2 218/2/2 221/2/2
f 221/2/2 218/2/2 222/2/2
f 219/2/2 220/2/2 223/2/2
f 220/2/2 221/2/2 223/2/2
f 223/2/2 221/2/2 224/2/2
f 225/2/2 226/2/2 227/2/2
f 227/2/2 226/2/2 228/2/2
f 219/2/2 223/2/2 229/2/2
f 219/2/2 229/2/2 232/2/2
f 229/2/2 230/2/2 232/2/2
f 230/1/2 231/1/2 233/1/2
f 232/2/2 230/2/2 233/2/2
f 233/1/2 231/1/2 234/1/2
f 228/2/2 226/2/2 237/2/2
f 237/2/2 226/2/2 238/2/2
f 235/1/2 236/1/2 239/1/2
f 239/1/2 236/1/2 240/1/2
f 239/1/2 240/1/2 241/1/2
f 241/1/2 240/1/2 242/1/2
f 242/1/2 240/1/2 243/1/2
f 243/1/2 240/1/2 244/1/2
f 242/1/2 243/1/2 245/1/2
f 245/1/2 243/1/2 246/1/2
f 247/2/2 248/2/2 249/2/2
f 249/2/2 248/2/2 250/2/2
f 251/2/2 252/2/2 256/2/2
f 252/2/2 253/2/2 256/2/2
f 256/2/2 253/2/2 257/2/2
f 254/2/2 255/2/2 259/2/2
f 258/2/2 259/2/2 260/2/2
f 259/2/2 255/2/2 260/2/2
f 260/2/2 255/2/2 261/2/2
f 258/2/2 260/2/2 262/2/2
f 262/2/2 263/2/2 266/2/2
f 258/2/2 262/2/2 266/2/2
f 263/2/2 264/2/2 266/2/2
f 266/2/2 264/2/2 267/2/2
f 267/2/2 264/2/2 268/2/2
f 268/2/2 264/2/2 269/2/2
f 267/2/2 268/2/2 270/2/2
f 270/2/2 268/2/2 271/2/2
f 269/2/2 264/2/2 272/2/2
f 264/1/2 265/1/2 273/1/2
f 272/2/2 264/2/2 273/2/2
f 273/1/2 265/1/2 274/1/2
f 270/1/2 271/1/2 275/1/2
f 275/1/2 271/1/2 276/1/2
f 272/1/2 273/1/2 277/1/2
f 277/1/2 273/1/2 278/1/2
f 279/2/2 280/2/2 281/2/2
f 281/2/2 280/2/2 282/2/2
f 283/2/2 284/2/2 285/2/2
f 285/2/2 284/2/2 286/2/2
f 287/2/2 288/2/2 289/2/2
f 289/2/2 288/2/2 290/2/2
f 289/1/2 290/1/2 291/1/2
f 291/1/2 290/1/2 292/1/2
f 293/2/2 294/2/2 295/2/2
f 295/2/2 294/2/2 296/2/2
f 297/2/2 298/2/2 299/2/2
f 299/2/2 298/2/2 300/2/2
f 301/2/2 302/2/2 304/2/2
f 304/2/2 302/2/2 305/2/2
f 305/2/2 302/2/2 306/2/2
f 306/2/2 302/2/2 307/2/2
f 307/2/2 302/2/2 308/2/2
f 303/2/2 304/2/2 309/2/2
f 304/2/2 305/2/2 309/2/2
f 309/2/2 305/2/2 310/2/2
f 306/2/2 307/2/2 311/2/2
f 311/2/2 307/2/2 312/2/2
f 303/2/2 309/2/2 313/2/2
f 313/2/2 309/2/2 314/2/2
f 317/2/3 316/2/3 315/2/3
f 318/2/3 316/2/3 317/2/3
f 322/2/3 320/2/3 319/2/3
f 323/2/3 320/2/3 322/2/3
f 324/2/3 320/2/3 323/2/3
f 326/2/3 322/2/3 321/2/3
f 326/2/3 323/2/3 322/2/3
f 327/2/3 323/2/3 326/2/3
f 328/2/3 323/2/3 327/2/3
f 330/2/3 326/2/3 325/2/3
f 331/2/3 326/2/3 330/2/3
f 332/2/3 330/2/3 329/2/3
f 332/2/3 331/2/3 330/2/3
f 333/2/3 331/2/3 332/2/3
f 334/2/3 331/2/3 333/2/3
f 336/2/3 334/2/3 333/2/3
f 336/2/3 335/2/3 334/2/3
f 337/2/3 335/2/3 336/2/3
f 341/2/3 339/2/3 338/2/3
f 342/2/3 339/2/3 341/2/3
f 346/2/3 341/2/3 340/2/3
f 346/2/3 342/2/3 341/2/3
f 346/2/3 343/2/3 342/2/3
f 347/2/3 343/2/3 346/2/3
f 348/2/3 345/2/3 344/2/3
f 349/2/3 345/2/3 348/2/3
f 352/2/3 351/2/3 350/2/3
f 353/2/3 351/2/3 352/2/3
f 356/2/3 355/2/3 354/2/3
f 357/2/3 355/2/3 356/2/3
f 363/1/3 361/1/3 360/1/3
f 364/2/3 359/2/3 358/2/3
f 365/2/3 363/2/3 362/2/3
f 366/1/3 361/1/3 363/1/3
f 366/2/3 363/2/3 365/2/3
f 367/2/3 364/2/3 358/2/3
f 367/2/3 365/2/3 364/2/3
f 368/2/3 365/2/3 367/2/3
f 371/1/3 361/1/3 366/1/3
f 372/1/3 361/1/3 371/1/3
f 373/2/3 370/2/3 369/2/3
f 374/2/3 370/2/3 373/2/3
f 378/2/3 376/2/3 375/2/3
f 379/2/3 376/2/3 378/2/3
f 380/2/3 376/2/3 379/2/3
f 381/1/3 377/1/3 376/1/3
f 381/2/3 376/2/3 380/2/3
f 382/1/3 377/1/3 381/1/3
f 385/2/3 384/2/3 383/2/3
f 387/2/3 386/2/3 385/2/3
f 389/2/3 385/2/3 383/2/3
f 389/2/3 388/2/3 387/2/3
f 389/2/3 387/2/3 385/2/3
f 390/2/3 388/2/3 389/2/3
f 391/2/3 388/2/3 390/2/3
f 394/2/3 393/2/3 392/2/3
f 395/2/3 393/2/3 394/2/3
f 398/2/3 391/2/3 390/2/3
f 399/2/3 396/2/3 395/2/3
f 400/2/3 396/2/3 399/2/3
f 401/2/3 398/2/3 397/2/3
f 402/2/3 391/2/3 398/2/3
f 402/2/3 398/2/3 401/2/3
f 403/2/3 396/2/3 400/2/3
f 404/2/3 396/2/3 403/2/3
f 406/1/3 405/1/3 404/1/3
f 407/1/3 405/1/3 406/1/3
f 410/2/3 409/2/3 408/2/3
f 411/2/3 409/2/3 410/2/3
f 416/2/3 415/2/3 414/2/3
f 417/2/3 415/2/3 416/2/3
f 418/2/3 413/2/3 412/2/3
f 419/2/3 413/2/3 418/2/3
f 422/2/3 421/2/3 420/2/3
f 423/2/3 421/2/3 422/2/3
f 425/2/3 424/2/3 423/2/3
f 426/2/3 424/2/3 425/2/3
f 429/1/3 428/1/3 427/1/3
f 430/1/3 428/1/3 429/1/3
f 433/1/3 432/1/3 431/1/3
f 434/1/3 432/1/3 433/1/3
f 437/2/3 436/2/3 435/2/3
f 438/2/3 436/2/3 437/2/3
f 441/2/3 440/2/3 439/2/3
f 442/2/3 440/2/3 441/2/3
f 445/2/3 444/2/3 443/2/3
f 446/2/3 444/2/3 445/2/3
f 447/2/3 444/2/3 446/2/3
f 449/2/3 447/2/3 446/2/3
f 449/2/3 448/2/3 447/2/3
f 450/2/3 448/2/3 449/2/3
f 453/2/3 452/2/3 451/2/3
f 454/2/3 452/2/3 453/2/3
f 456/2/3 455/2/3 454/2/3
f 457/2/3 455/2/3 456/2/3
f 461/2/3 459/2/3 458/2/3
f 462/1/3 460/1/3 459/1/3
f 462/2/3 459/2/3 461/2/3
f 463/1/3 460/1/3 462/1/3
f 466/2/3 465/2/3 464/2/3
f 467/2/3 465/2/3 466/2/3
f 470/2/3 469/2/3 468/2/3
f 471/2/3 470/2/3 468/2/3
f 472/2/3 470/2/3 471/2/3
f 475/2/3 474/2/3 473/2/3
f 476/2/3 474/2/3 475/2/3
f 479/2/3 478/2/3 477/2/3
f 480/2/3 478/2/3 479/2/3
f 481/2/4 482/2/4 483/2/4
f 483/2/4 482/2/4 484/2/4
f 485/2/4 486/2/4 487/2/4
f 487/2/4 486/2/4 488/2/4
f 489/2/4 490/2/4 492/2/4
f 490/1/4 491/1/4 493/1/4
f 492/2/4 490/2/4 493/2/4
f 493/1/4 491/1/4 494/1/4
f 495/2/4 496/2/4 498/2/4
f 496/1/4 497/1/4 499/1/4
f 498/2/4 496/2/4 499/2/4
f 499/1/4 497/1/4 500/1/4
f 501/1/4 502/1/4 503/1/4
f 503/1/4 502/1/4 504/1/4
f 505/2/4 506/2/4 507/2/4
f 507/2/4 506/2/4 508/2/4
f 509/1/4 510/1/4 511/1/4
f 511/1/4 510/1/4 512/1/4
f 513/1/4 514/1/4 517/1/4
f 517/1/4 514/1/4 518/1/4
f 515/2/4 516/2/4 519/2/4
f 519/2/4 516/2/4 520/2/4
f 520/2/4 516/2/4 521/2/4
f 520/2/4 521/2/4 522/2/4
f 522/2/4 521/2/4 523/2/4
f 515/2/4 519/2/4 524/2/4
f 524/2/4 519/2/4 525/2/4
f 526/2/4 527/2/4 528/2/4
f 528/2/4 527/2/4 529/2/4
f 530/2/4 531/2/4 532/2/4
f 532/2/4 531/2/4 533/2/4
f 530/2/4 532/2/4 534/2/4
f 534/2/4 532/2/4 535/2/4
f 536/2/4 537/2/4 538/2/4
f 538/2/4 537/2/4 539/2/4
f 540/2/4 541/2/4 542/2/4
f 542/2/4 541/2/4 543/2/4
f 544/1/4 545/1/4 546/1/4
f 546/1/4 545/1/4 547/1/4
f 547/1/4 545/1/4 548/1/4
f 548/1/4 545/1/4 549/1/4
f 550/1/4 551/1/4 553/1/4
f 552/1/4 553/1/4 554/1/4
f 554/1/4 553/1/4 555/1/4
f 555/1/4 553/1/4 556/1/4
f 556/1/4 553/1/4 557/1/4
f 557/1/4 553/1/4 558/1/4
f 553/1/4 551/1/4 559/1/4
f 558/1/4 553/1/4 559/1/4
f 560/2/4 561/2/4 562/2/4
f 562/2/4 561/2/4 563/2/4
f 560/2/4 562/2/4 564/2/4
f 564/2/4 562/2/4 565/2/4
f 566/2/4 567/2/4 568/2/4
f 568/2/4 567/2/4 569/2/4
f 570/2/4 571/2/4 572/2/4
f 572/2/4 571/2/4 573/2/4
f 574/2/4 575/2/4 576/2/4
f 576/2/4 575/2/4 577/2/4
f 578/2/4 579/2/4 580/2/4
f 580/2/4 579/2/4 581/2/4
f 582/2/4 583/2/4 584/2/4
f 584/2/4 583/2/4 585/2/4
f 586/2/4 587/2/4 588/2/4
f 588/2/4 587/2/4 589/2/4
f 589/2/4 587/2/4 590/2/4
f 591/2/4 592/2/4 593/2/4
f 593/2/4 592/2/4 594/2/4
f 594/2/4 595/2/4 596/2/4
f 596/2/4 595/2/4 597/2/4
f 598/2/4 599/2/4 600/2/4
f 600/2/4 599/2/4 601/2/4
f 602/2/4 603/2/4 604/2/4
f 602/2/4 604/2/4 606/2/4
f 604/2/4 605/2/4 606/2/4
f 606/2/4 605/2/4 607/2/4
f 607/2/4 605/2/4 608/2/4
f 607/2/4 608/2/4 610/2/4
f 608/2/4 609/2/4 610/2/4
f 610/2/4 609/2/4 611/2/4
f 612/2/4 613/2/4 614/2/4
f 614/2/4 613/2/4 615/2/4
f 616/2/4 617/2/4 618/2/4
f 616/2/4 618/2/4 620/2/4
f 618/2/4 619/2/4 620/2/4
f 620/2/4 619/2/4 621/2/4
f 616/2/4 620/2/4 622/2/4
f 622/2/4 620/2/4 623/2/4
f 627/2/5 625/2/5 624/2/5
f 628/2/5 625/2/5 627/2/5
f 631/2/5 627/2/5 626/2/5
f 631/2/5 629/2/5 628/2/5
f 631/2/5 628/2/5 627/2/5
f 635/2/5 631/2/5 630/2/5
f 636/2/5 633/2/5 632/2/5
f 637/2/5 635/2/5 634/2/5
f 638/2/5 629/2/5 631/2/5
f 638/2/5 637/2/5 636/2/5
f 638/2/5 635/2/5 637/2/5
f 638/2/5 631/2/5 635/2/5
f 639/2/5 629/2/5 638/2/5
f 640/2/5 638/2/5 636/2/5
f 641/2/5 638/2/5 640/2/5
f 642/2/5 636/2/5 632/2/5
f 642/2/5 640/2/5 636/2/5
f 643/2/5 640/2/5 642/2/5
f 644/2/5 640/2/5 643/2/5
f 645/2/5 640/2/5 644/2/5
f 646/2/5 644/2/5 643/2/5
f 647/2/5 644/2/5 646/2/5
f 648/2/5 646/2/5 643/2/5
f 649/2/5 646/2/5 648/2/5
f 654/2/5 651/2/5 650/2/5
f 655/2/5 651/2/5 654/2/5
f 656/2/5 653/2/5 652/2/5
f 657/2/5 653/2/5 656/2/5
f 661/2/5 659/2/5 658/2/5
f 662/2/5 659/2/5 661/2/5
f 663/2/5 661/2/5 660/2/5
f 664/2/5 661/2/5 663/2/5
f 667/2/5 666/2/5 665/2/5
f 668/2/5 666/2/5 667/2/5
f 672/2/5 670/2/5 669/2/5
f 673/2/5 672/2/5 671/2/5
f 674/2/5 670/2/5 672/2/5
f 674/2/5 672/2/5 673/2/5
f 677/2/5 676/2/5 675/2/5
f 678/2/5 676/2/5 677/2/5
f 681/2/5 680/2/5 679/2/5
f 682/2/5 680/2/5 681/2/5
f 683/1/5 682/1/5 681/1/5
f 684/1/5 682/1/5 683/1/5
f 687/2/5 686/2/5 685/2/5
f 688/2/5 686/2/5 687/2/5
f 691/2/5 690/2/5 689/2/5
f 692/2/5 690/2/5 691/2/5
f 693/1/5 692/1/5 691/1/5
f 694/1/5 692/1/5 693/1/5
f 697/2/5 696/2/5 695/2/5
f 698/2/5 696/2/5 697/2/5
f 701/2/5 700/2/5 699/2/5
f 702/2/5 700/2/5 701/2/5
f 705/1/5 704/1/5 703/1/5
f 706/1/5 704/1/5 705/1/5
f 711/1/5 710/1/5 709/1/5
f 712/1/5 710/1/5 711/1/5
f 713/1/5 708/1/5 707/1/5
f 714/1/5 708/1/5 713/1/5
f 717/2/6 718/2/6 719/2/6
f 719/2/6 718/2/6 720/2/6
f 715/2/6 716/2/6 721/2/6
f 721/2/6 716/2/6 722/2/6
f 723/2/6 724/2/6 725/2/6
f 725/2/6 724/2/6 726/2/6
f 723/2/6 725/2/6 727/2/6
f 727/2/6 725/2/6 728/2/6
f 729/2/6 730/2/6 731/2/6
f 731/2/6 730/2/6 732/2/6
f 729/2/6 731/2/6 733/2/6
f 733/2/6 731/2/6 734/2/6
f 735/2/6 736/2/6 737/2/6
f 737/2/6 736/2/6 738/2/6
f 738/2/6 736/2/6 739/2/6
f 739/2/6 740/2/6 741/2/6
f 738/2/6 739/2/6 741/2/6
f 741/2/6 740/2/6 742/2/6
f 743/2/6 744/2/6 746/2/6
f 745/2/6 746/2/6 747/2/6
f 746/2/6 744/2/6 748/2/6
f 747/2/6 746/2/6 748/2/6
f 738/2/6 741/2/6 750/2/6
f 750/2/6 741/2/6 751/2/6
f 745/2/6 747/2/6 753/2/6
f 753/2/6 747/2/6 754/2/6
f 751/2/6 752/2/6 755/2/6
f 750/2/6 751/2/6 755/2/6
f 749/2/6 750/2/6 755/2/6
f 755/2/6 752/2/6 756/2/6
f 757/2/6 758/2/6 760/2/6
f 759/2/6 760/2/6 761/2/6
f 760/2/6 758/2/6 762/2/6
f 761/2/6 760/2/6 762/2/6
f 763/2/6 764/2/6 765/2/6
f 765/2/6 764/2/6 766/2/6
f 759/2/6 761/2/6 767/2/6
f 767/2/6 761/2/6 768/2/6
f 769/2/6 770/2/6 771/2/6
f 771/2/6 770/2/6 774/2/6
f 772/2/6 773/2/6 776/2/6
f 776/2/6 773/2/6 777/2/6
f 774/2/6 775/2/6 778/2/6
f 771/2/6 774/2/6 778/2/6
f 778/2/6 775/2/6 779/2/6
f 780/2/6 781/2/6 783/2/6
f 783/2/6 781/2/6 784/2/6
f 779/2/6 775/2/6 785/2/6
f 785/2/6 775/2/6 786/2/6
f 782/2/6 783/2/6 787/2/6
f 787/2/6 783/2/6 788/2/6
f 789/2/6 790/2/6 791/2/6
f 791/2/6 790/2/6 792/2/6
f 793/2/6 794/2/6 795/2/6
f 795/2/6 794/2/6 796/2/6
f 799/2/6 800/2/6 801/2/6
f 801/2/6 800/2/6 802/2/6
f 797/2/6 798/2/6 803/2/6
f 803/2/6 798/2/6 804/2/6
f 805/2/6 806/2/6 807/2/6
f 807/2/6 806/2/6 808/2/6
f 809/2/6 810/2/6 811/2/6
f 811/2/6 810/2/6 812/2/6
f 809/2/6 811/2/6 813/2/6
f 813/2/6 811/2/6 814/2/6
f 815/2/6 816/2/6 817/2/6
f 817/2/6 816/2/6 818/2/6
f 818/2/6 816/2/6 819/2/6
f 820/2/6 821/2/6 822/2/6
f 822/2/6 821/2/6 823/2/6
f 824/2/6 825/2/6 827/2/6
f 825/2/6 826/2/6 827/2/6
f 827/2/6 826/2/6 828/2/6
f 829/2/6 830/2/6 831/2/6
f 831/2/6 830/2/6 832/2/6
f 833/2/6 834/2/6 836/2/6
f 835/2/6 836/2/6 838/2/6
f 836/2/6 834/2/6 839/2/6
f 838/2/6 836/2/6 839/2/6
f 837/2/6 838/2/6 840/2/6
f 840/2/6 838/2/6 841/2/6
f 842/2/6 843/2/6 844/2/6
f 844/2/6 843/2/6 845/2/6
f 845/2/6 846/2/6 847/2/6
f 847/2/6 846/2/6 848/2/6
f 849/2/6 850/2/6 851/2/6
f 851/2/6 850/2/6 852/2/6
f 853/2/6 854/2/6 855/2/6
f 855/2/6 854/2/6 856/2/6
f 857/2/6 858/2/6 860/2/6
f 858/2/6 859/2/6 860/2/6
f 860/2/6 859/2/6 861/2/6
f 857/2/6 860/2/6 863/2/6
f 862/2/6 863/2/6 864/2/6
f 863/2/6 860/2/6 865/2/6
f 864/2/6 863/2/6 865/2/6
f 865/2/6 860/2/6 866/2/6
f 865/2/6 866/2/6 868/2/6
f 866/2/6 867/2/6 868/2/6
f 868/2/6 867/2/6 869/2/6
f 869/2/6 867/2/6 870/2/6
f 870/2/6 867/2/6 871/2/6
f 872/2/6 873/2/6 874/2/6
f 874/2/6 873/2/6 875/2/6
f 876/2/6 877/2/6 878/2/6
f 878/2/6 877/2/6 879/2/6
f 880/2/6 881/2/6 883/2/6
f 881/2/6 882/2/6 883/2/6
f 880/2/6 883/2/6 885/2/6
f 883/2/6 884/2/6 885/2/6
f 885/2/6 884/2/6 886/2/6
f 880/2/6 885/2/6 887/2/6
f 887/2/6 885/2/6 888/2/6
f 889/2/6 890/2/6 891/2/6
f 891/2/6 890/2/6 892/2/6
f 891/2/6 892/2/6 893/2/6
f 893/2/6 892/2/6 894/2/6
f 895/2/6 896/2/6 897/2/6
f 897/2/6 896/2/6 898/2/6
f 899/1/6 900/1/6 901/1/6
f 901/1/6 900/1/6 902/1/6
f 903/1/6 904/1/6 907/1/6
f 905/1/6 906/1/6 908/1/6
f 908/1/6 906/1/6 909/1/6
f 909/1/6 906/1/6 910/1/6
f 907/1/6 908/1/6 911/1/6
f 908/1/6 909/1/6 911/1/6
f 911/1/6 909/1/6 912/1/6
f 903/1/6 907/1/6 913/1/6
f 907/1/6 911/1/6 913/1/6
f 913/1/6 911/1/6 914/1/6
f 914/1/6 911/1/6 915/1/6
f 915/1/6 911/1/6 916/1/6
f 916/1/6 911/1/6 917/1/6
f 915/1/6 916/1/6 919/1/6
f 919/1/6 916/1/6 920/1/6
f 918/1/6 919/1/6 922/1/6
f 920/1/6 921/1/6 922/1/6
f 919/1/6 920/1/6 922/1/6
f 918/1/6 922/1/6 924/1/6
f 922/1/6 923/1/6 924/1/6
f 924/1/6 923/1/6 925/1/6
f 926/1/6 927/1/6 930/1/6
f 930/1/6 927/1/6 931/1/6
f 928/1/6 929/1/6 932/1/6
f 932/1/6 929/1/6 933/1/6
