# MagicaVoxel @ Ephtracy

# material
mtllib Rock05.mtl
usemtl palette

# normals
vn -1 0 0
vn 1 0 0
vn 0 0 1
vn 0 0 -1
vn 0 -1 0
vn 0 1 0

# texcoords
vt 0.970703 0.5
vt 0.990234 0.5

# verts
v -7.5 0 3
v -7.5 0 -3
v -7.5 1 3
v -7.5 1 -3
v -6.5 1 2
v -6.5 1 -2
v -6.5 2 2
v -6.5 2 -2
v -6.5 3 2
v -6.5 3 -2
v 0.5 2 2
v 0.5 2 -2
v 0.5 3 2
v 0.5 3 -2
v 6.5 1 2
v 6.5 1 -2
v 6.5 2 2
v 6.5 2 -2
v 7.5 0 3
v 7.5 0 -3
v 7.5 1 3
v 7.5 1 -3
v -7.5 0 3
v -7.5 1 3
v 7.5 0 3
v 7.5 1 3
v -6.5 1 2
v -6.5 2 2
v -6.5 3 2
v 0.5 2 2
v 0.5 3 2
v 6.5 1 2
v 6.5 2 2
v -6.5 1 -2
v -6.5 2 -2
v -6.5 3 -2
v 0.5 2 -2
v 0.5 3 -2
v 6.5 1 -2
v 6.5 2 -2
v -7.5 0 -3
v -7.5 1 -3
v 7.5 0 -3
v 7.5 1 -3
v -7.5 0 3
v 7.5 0 3
v -7.5 0 -3
v 7.5 0 -3
v -7.5 1 3
v 7.5 1 3
v -6.5 1 2
v 6.5 1 2
v -6.5 1 -2
v 6.5 1 -2
v -7.5 1 -3
v 7.5 1 -3
v 0.5 2 2
v 6.5 2 2
v 0.5 2 -2
v 6.5 2 -2
v -6.5 3 2
v 0.5 3 2
v -6.5 3 -2
v 0.5 3 -2

# faces
f 3/2/1 2/2/1 1/2/1
f 4/2/1 2/2/1 3/2/1
f 7/2/1 6/2/1 5/2/1
f 8/2/1 6/2/1 7/2/1
f 9/1/1 8/1/1 7/1/1
f 10/1/1 8/1/1 9/1/1
f 11/1/2 12/1/2 13/1/2
f 13/1/2 12/1/2 14/1/2
f 15/2/2 16/2/2 17/2/2
f 17/2/2 16/2/2 18/2/2
f 19/2/2 20/2/2 21/2/2
f 21/2/2 20/2/2 22/2/2
f 25/2/3 24/2/3 23/2/3
f 26/2/3 24/2/3 25/2/3
f 30/2/3 28/2/3 27/2/3
f 30/1/3 29/1/3 28/1/3
f 31/1/3 29/1/3 30/1/3
f 32/2/3 30/2/3 27/2/3
f 33/2/3 30/2/3 32/2/3
f 34/2/4 35/2/4 37/2/4
f 35/1/4 36/1/4 37/1/4
f 37/1/4 36/1/4 38/1/4
f 34/2/4 37/2/4 39/2/4
f 39/2/4 37/2/4 40/2/4
f 41/2/4 42/2/4 43/2/4
f 43/2/4 42/2/4 44/2/4
f 47/2/5 46/2/5 45/2/5
f 48/2/5 46/2/5 47/2/5
f 49/2/6 50/2/6 51/2/6
f 51/2/6 50/2/6 52/2/6
f 49/2/6 51/2/6 53/2/6
f 52/2/6 50/2/6 54/2/6
f 49/2/6 53/2/6 55/2/6
f 53/2/6 54/2/6 55/2/6
f 54/2/6 50/2/6 56/2/6
f 55/2/6 54/2/6 56/2/6
f 57/2/6 58/2/6 59/2/6
f 59/2/6 58/2/6 60/2/6
f 61/1/6 62/1/6 63/1/6
f 63/1/6 62/1/6 64/1/6
