# MagicaVoxel @ Ephtracy

# material
mtllib VolleyballCourt.mtl
usemtl palette

# normals
vn -1 0 0
vn 1 0 0
vn 0 0 1
vn 0 0 -1
vn 0 -1 0
vn 0 1 0

# texcoords
vt 0.794922 0.5
vt 0.853516 0.5
vt 0.970703 0.5

# verts
v -16.5 0 10.5
v -16.5 0 -10.5
v -16.5 1 10.5
v -16.5 1 -10.5
v -0.5 1 5.5
v -0.5 1 4.5
v -0.5 1 -4.5
v -0.5 1 -5.5
v -0.5 2 4.5
v -0.5 2 -4.5
v -0.5 3 4.5
v -0.5 3 3.5
v -0.5 3 2.5
v -0.5 3 1.5
v -0.5 3 0.5
v -0.5 3 -0.5
v -0.5 3 -1.5
v -0.5 3 -2.5
v -0.5 3 -3.5
v -0.5 3 -4.5
v -0.5 4 4.5
v -0.5 4 3.5
v -0.5 4 2.5
v -0.5 4 1.5
v -0.5 4 0.5
v -0.5 4 -0.5
v -0.5 4 -1.5
v -0.5 4 -2.5
v -0.5 4 -3.5
v -0.5 4 -4.5
v -0.5 5 5.5
v -0.5 5 -5.5
v 0.5 1 5.5
v 0.5 1 4.5
v 0.5 1 -4.5
v 0.5 1 -5.5
v 0.5 2 4.5
v 0.5 2 -4.5
v 0.5 3 4.5
v 0.5 3 3.5
v 0.5 3 2.5
v 0.5 3 1.5
v 0.5 3 0.5
v 0.5 3 -0.5
v 0.5 3 -1.5
v 0.5 3 -2.5
v 0.5 3 -3.5
v 0.5 3 -4.5
v 0.5 4 4.5
v 0.5 4 3.5
v 0.5 4 2.5
v 0.5 4 1.5
v 0.5 4 0.5
v 0.5 4 -0.5
v 0.5 4 -1.5
v 0.5 4 -2.5
v 0.5 4 -3.5
v 0.5 4 -4.5
v 0.5 5 5.5
v 0.5 5 -5.5
v 16.5 0 10.5
v 16.5 0 -10.5
v 16.5 1 10.5
v 16.5 1 -10.5
v -16.5 0 10.5
v -16.5 1 10.5
v 16.5 0 10.5
v 16.5 1 10.5
v -0.5 1 5.5
v -0.5 5 5.5
v 0.5 1 5.5
v 0.5 5 5.5
v -0.5 3 3.5
v -0.5 4 3.5
v 0.5 3 3.5
v 0.5 4 3.5
v -0.5 3 1.5
v -0.5 4 1.5
v 0.5 3 1.5
v 0.5 4 1.5
v -0.5 3 -0.5
v -0.5 4 -0.5
v 0.5 3 -0.5
v 0.5 4 -0.5
v -0.5 3 -2.5
v -0.5 4 -2.5
v 0.5 3 -2.5
v 0.5 4 -2.5
v -0.5 1 -4.5
v -0.5 2 -4.5
v -0.5 3 -4.5
v -0.5 4 -4.5
v 0.5 1 -4.5
v 0.5 2 -4.5
v 0.5 3 -4.5
v 0.5 4 -4.5
v -0.5 1 4.5
v -0.5 2 4.5
v -0.5 3 4.5
v -0.5 4 4.5
v 0.5 1 4.5
v 0.5 2 4.5
v 0.5 3 4.5
v 0.5 4 4.5
v -0.5 3 2.5
v -0.5 4 2.5
v 0.5 3 2.5
v 0.5 4 2.5
v -0.5 3 0.5
v -0.5 4 0.5
v 0.5 3 0.5
v 0.5 4 0.5
v -0.5 3 -1.5
v -0.5 4 -1.5
v 0.5 3 -1.5
v 0.5 4 -1.5
v -0.5 3 -3.5
v -0.5 4 -3.5
v 0.5 3 -3.5
v 0.5 4 -3.5
v -0.5 1 -5.5
v -0.5 5 -5.5
v 0.5 1 -5.5
v 0.5 5 -5.5
v -16.5 0 -10.5
v -16.5 1 -10.5
v 16.5 0 -10.5
v 16.5 1 -10.5
v -16.5 0 10.5
v 16.5 0 10.5
v -11.5 0 5.5
v 11.5 0 5.5
v -10.5 0 4.5
v -4.5 0 4.5
v -3.5 0 4.5
v -0.5 0 4.5
v 0.5 0 4.5
v 3.5 0 4.5
v 4.5 0 4.5
v 10.5 0 4.5
v -10.5 0 -4.5
v -4.5 0 -4.5
v -3.5 0 -4.5
v -0.5 0 -4.5
v 0.5 0 -4.5
v 3.5 0 -4.5
v 4.5 0 -4.5
v 10.5 0 -4.5
v -11.5 0 -5.5
v 11.5 0 -5.5
v -16.5 0 -10.5
v 16.5 0 -10.5
v -0.5 2 4.5
v 0.5 2 4.5
v -0.5 2 -4.5
v 0.5 2 -4.5
v -0.5 4 4.5
v 0.5 4 4.5
v -0.5 4 3.5
v 0.5 4 3.5
v -0.5 4 2.5
v 0.5 4 2.5
v -0.5 4 1.5
v 0.5 4 1.5
v -0.5 4 0.5
v 0.5 4 0.5
v -0.5 4 -0.5
v 0.5 4 -0.5
v -0.5 4 -1.5
v 0.5 4 -1.5
v -0.5 4 -2.5
v 0.5 4 -2.5
v -0.5 4 -3.5
v 0.5 4 -3.5
v -0.5 4 -4.5
v 0.5 4 -4.5
v -16.5 1 10.5
v 16.5 1 10.5
v -11.5 1 5.5
v -0.5 1 5.5
v 0.5 1 5.5
v 11.5 1 5.5
v -10.5 1 4.5
v -4.5 1 4.5
v -3.5 1 4.5
v -0.5 1 4.5
v 0.5 1 4.5
v 3.5 1 4.5
v 4.5 1 4.5
v 10.5 1 4.5
v -10.5 1 -4.5
v -4.5 1 -4.5
v -3.5 1 -4.5
v -0.5 1 -4.5
v 0.5 1 -4.5
v 3.5 1 -4.5
v 4.5 1 -4.5
v 10.5 1 -4.5
v -11.5 1 -5.5
v -0.5 1 -5.5
v 0.5 1 -5.5
v 11.5 1 -5.5
v -16.5 1 -10.5
v 16.5 1 -10.5
v -0.5 3 4.5
v 0.5 3 4.5
v -0.5 3 3.5
v 0.5 3 3.5
v -0.5 3 2.5
v 0.5 3 2.5
v -0.5 3 1.5
v 0.5 3 1.5
v -0.5 3 0.5
v 0.5 3 0.5
v -0.5 3 -0.5
v 0.5 3 -0.5
v -0.5 3 -1.5
v 0.5 3 -1.5
v -0.5 3 -2.5
v 0.5 3 -2.5
v -0.5 3 -3.5
v 0.5 3 -3.5
v -0.5 3 -4.5
v 0.5 3 -4.5
v -0.5 5 5.5
v 0.5 5 5.5
v -0.5 5 -5.5
v 0.5 5 -5.5

# faces
f 3/2/1 2/2/1 1/2/1
f 4/2/1 2/2/1 3/2/1
f 9/3/1 6/3/1 5/3/1
f 10/3/1 8/3/1 7/3/1
f 11/3/1 9/3/1 5/3/1
f 11/3/1 10/3/1 9/3/1
f 12/3/1 10/3/1 11/3/1
f 13/3/1 10/3/1 12/3/1
f 14/3/1 10/3/1 13/3/1
f 15/3/1 10/3/1 14/3/1
f 16/3/1 10/3/1 15/3/1
f 17/3/1 10/3/1 16/3/1
f 18/3/1 10/3/1 17/3/1
f 19/3/1 10/3/1 18/3/1
f 20/3/1 8/3/1 10/3/1
f 20/3/1 10/3/1 19/3/1
f 21/3/1 11/3/1 5/3/1
f 22/3/1 13/3/1 12/3/1
f 23/3/1 13/3/1 22/3/1
f 24/3/1 15/3/1 14/3/1
f 25/3/1 15/3/1 24/3/1
f 26/3/1 17/3/1 16/3/1
f 27/3/1 17/3/1 26/3/1
f 28/3/1 19/3/1 18/3/1
f 29/3/1 19/3/1 28/3/1
f 30/3/1 8/3/1 20/3/1
f 31/3/1 27/3/1 26/3/1
f 31/3/1 30/3/1 29/3/1
f 31/3/1 29/3/1 28/3/1
f 31/3/1 25/3/1 24/3/1
f 31/3/1 28/3/1 27/3/1
f 31/3/1 21/3/1 5/3/1
f 31/3/1 26/3/1 25/3/1
f 31/3/1 23/3/1 22/3/1
f 31/3/1 24/3/1 23/3/1
f 31/3/1 22/3/1 21/3/1
f 32/3/1 8/3/1 30/3/1
f 32/3/1 30/3/1 31/3/1
f 33/3/2 34/3/2 37/3/2
f 35/3/2 36/3/2 38/3/2
f 33/3/2 37/3/2 39/3/2
f 37/3/2 38/3/2 39/3/2
f 39/3/2 38/3/2 40/3/2
f 40/3/2 38/3/2 41/3/2
f 41/3/2 38/3/2 42/3/2
f 42/3/2 38/3/2 43/3/2
f 43/3/2 38/3/2 44/3/2
f 44/3/2 38/3/2 45/3/2
f 45/3/2 38/3/2 46/3/2
f 46/3/2 38/3/2 47/3/2
f 38/3/2 36/3/2 48/3/2
f 47/3/2 38/3/2 48/3/2
f 33/3/2 39/3/2 49/3/2
f 40/3/2 41/3/2 50/3/2
f 50/3/2 41/3/2 51/3/2
f 42/3/2 43/3/2 52/3/2
f 52/3/2 43/3/2 53/3/2
f 44/3/2 45/3/2 54/3/2
f 54/3/2 45/3/2 55/3/2
f 46/3/2 47/3/2 56/3/2
f 56/3/2 47/3/2 57/3/2
f 48/3/2 36/3/2 58/3/2
f 54/3/2 55/3/2 59/3/2
f 57/3/2 58/3/2 59/3/2
f 56/3/2 57/3/2 59/3/2
f 52/3/2 53/3/2 59/3/2
f 55/3/2 56/3/2 59/3/2
f 33/3/2 49/3/2 59/3/2
f 53/3/2 54/3/2 59/3/2
f 50/3/2 51/3/2 59/3/2
f 51/3/2 52/3/2 59/3/2
f 49/3/2 50/3/2 59/3/2
f 58/3/2 36/3/2 60/3/2
f 59/3/2 58/3/2 60/3/2
f 61/2/2 62/2/2 63/2/2
f 63/2/2 62/2/2 64/2/2
f 67/2/3 66/2/3 65/2/3
f 68/2/3 66/2/3 67/2/3
f 71/3/3 70/3/3 69/3/3
f 72/3/3 70/3/3 71/3/3
f 75/3/3 74/3/3 73/3/3
f 76/3/3 74/3/3 75/3/3
f 79/3/3 78/3/3 77/3/3
f 80/3/3 78/3/3 79/3/3
f 83/3/3 82/3/3 81/3/3
f 84/3/3 82/3/3 83/3/3
f 87/3/3 86/3/3 85/3/3
f 88/3/3 86/3/3 87/3/3
f 93/3/3 90/3/3 89/3/3
f 94/3/3 90/3/3 93/3/3
f 95/3/3 92/3/3 91/3/3
f 96/3/3 92/3/3 95/3/3
f 97/3/4 98/3/4 101/3/4
f 101/3/4 98/3/4 102/3/4
f 99/3/4 100/3/4 103/3/4
f 103/3/4 100/3/4 104/3/4
f 105/3/4 106/3/4 107/3/4
f 107/3/4 106/3/4 108/3/4
f 109/3/4 110/3/4 111/3/4
f 111/3/4 110/3/4 112/3/4
f 113/3/4 114/3/4 115/3/4
f 115/3/4 114/3/4 116/3/4
f 117/3/4 118/3/4 119/3/4
f 119/3/4 118/3/4 120/3/4
f 121/3/4 122/3/4 123/3/4
f 123/3/4 122/3/4 124/3/4
f 125/2/4 126/2/4 127/2/4
f 127/2/4 126/2/4 128/2/4
f 131/2/5 130/2/5 129/2/5
f 132/2/5 130/2/5 131/2/5
f 133/3/5 132/3/5 131/3/5
f 134/3/5 132/3/5 133/3/5
f 135/3/5 132/3/5 134/3/5
f 136/3/5 132/3/5 135/3/5
f 137/3/5 132/3/5 136/3/5
f 138/3/5 132/3/5 137/3/5
f 139/3/5 132/3/5 138/3/5
f 140/3/5 132/3/5 139/3/5
f 141/3/5 133/3/5 131/3/5
f 141/1/5 134/1/5 133/1/5
f 142/3/5 135/3/5 134/3/5
f 142/1/5 134/1/5 141/1/5
f 143/1/5 136/1/5 135/1/5
f 143/3/5 135/3/5 142/3/5
f 144/3/5 137/3/5 136/3/5
f 144/1/5 136/1/5 143/1/5
f 145/1/5 138/1/5 137/1/5
f 145/3/5 137/3/5 144/3/5
f 146/3/5 139/3/5 138/3/5
f 146/1/5 138/1/5 145/1/5
f 147/1/5 140/1/5 139/1/5
f 147/3/5 139/3/5 146/3/5
f 148/3/5 132/3/5 140/3/5
f 148/1/5 140/1/5 147/1/5
f 149/2/5 131/2/5 129/2/5
f 149/3/5 147/3/5 146/3/5
f 149/3/5 148/3/5 147/3/5
f 149/3/5 145/3/5 144/3/5
f 149/3/5 144/3/5 143/3/5
f 149/3/5 143/3/5 142/3/5
f 149/3/5 142/3/5 141/3/5
f 149/3/5 141/3/5 131/3/5
f 149/3/5 146/3/5 145/3/5
f 150/3/5 132/3/5 148/3/5
f 150/3/5 148/3/5 149/3/5
f 150/2/5 130/2/5 132/2/5
f 151/2/5 149/2/5 129/2/5
f 151/2/5 150/2/5 149/2/5
f 152/2/5 130/2/5 150/2/5
f 152/2/5 150/2/5 151/2/5
f 155/3/5 154/3/5 153/3/5
f 156/3/5 154/3/5 155/3/5
f 159/3/5 158/3/5 157/3/5
f 160/3/5 158/3/5 159/3/5
f 163/3/5 162/3/5 161/3/5
f 164/3/5 162/3/5 163/3/5
f 167/3/5 166/3/5 165/3/5
f 168/3/5 166/3/5 167/3/5
f 171/3/5 170/3/5 169/3/5
f 172/3/5 170/3/5 171/3/5
f 175/3/5 174/3/5 173/3/5
f 176/3/5 174/3/5 175/3/5
f 177/2/6 178/2/6 179/2/6
f 179/2/6 178/2/6 180/2/6
f 180/2/6 178/2/6 181/2/6
f 181/2/6 178/2/6 182/2/6
f 179/3/6 180/3/6 183/3/6
f 183/3/6 180/3/6 184/3/6
f 184/3/6 180/3/6 185/3/6
f 185/3/6 180/3/6 186/3/6
f 181/3/6 182/3/6 187/3/6
f 187/3/6 182/3/6 188/3/6
f 188/3/6 182/3/6 189/3/6
f 189/3/6 182/3/6 190/3/6
f 179/3/6 183/3/6 191/3/6
f 183/1/6 184/1/6 191/1/6
f 184/3/6 185/3/6 192/3/6
f 191/1/6 184/1/6 192/1/6
f 185/1/6 186/1/6 193/1/6
f 192/3/6 185/3/6 193/3/6
f 186/3/6 187/3/6 194/3/6
f 193/1/6 186/1/6 194/1/6
f 187/1/6 188/1/6 195/1/6
f 194/3/6 187/3/6 195/3/6
f 188/3/6 189/3/6 196/3/6
f 195/1/6 188/1/6 196/1/6
f 189/1/6 190/1/6 197/1/6
f 196/3/6 189/3/6 197/3/6
f 190/3/6 182/3/6 198/3/6
f 197/1/6 190/1/6 198/1/6
f 177/2/6 179/2/6 199/2/6
f 191/3/6 192/3/6 199/3/6
f 179/3/6 191/3/6 199/3/6
f 193/3/6 194/3/6 199/3/6
f 192/3/6 193/3/6 199/3/6
f 199/3/6 194/3/6 200/3/6
f 197/3/6 198/3/6 201/3/6
f 196/3/6 197/3/6 201/3/6
f 195/3/6 196/3/6 201/3/6
f 198/3/6 182/3/6 202/3/6
f 182/2/6 178/2/6 202/2/6
f 201/3/6 198/3/6 202/3/6
f 200/2/6 201/2/6 203/2/6
f 199/2/6 200/2/6 203/2/6
f 201/2/6 202/2/6 203/2/6
f 177/2/6 199/2/6 203/2/6
f 202/2/6 178/2/6 204/2/6
f 203/2/6 202/2/6 204/2/6
f 205/3/6 206/3/6 207/3/6
f 207/3/6 206/3/6 208/3/6
f 209/3/6 210/3/6 211/3/6
f 211/3/6 210/3/6 212/3/6
f 213/3/6 214/3/6 215/3/6
f 215/3/6 214/3/6 216/3/6
f 217/3/6 218/3/6 219/3/6
f 219/3/6 218/3/6 220/3/6
f 221/3/6 222/3/6 223/3/6
f 223/3/6 222/3/6 224/3/6
f 225/3/6 226/3/6 227/3/6
f 227/3/6 226/3/6 228/3/6
