# MagicaVoxel @ Ephtracy

# material
mtllib Bush02.mtl
usemtl palette

# normals
vn -1 0 0
vn 1 0 0
vn 0 0 1
vn 0 0 -1
vn 0 -1 0
vn 0 1 0

# texcoords
vt 0.888672 0.5
vt 0.939453 0.5
vt 0.943359 0.5
vt 0.947266 0.5
vt 0.951172 0.5

# verts
v -4 3 1
v -4 3 -0
v -4 3 -1
v -4 4 2
v -4 4 1
v -4 4 -1
v -4 4 -2
v -4 6 2
v -4 6 1
v -4 6 -1
v -4 6 -2
v -4 7 1
v -4 7 -0
v -4 7 -1
v -3 2 2
v -3 2 -0
v -3 2 -2
v -3 3 3
v -3 3 2
v -3 3 1
v -3 3 -0
v -3 3 -1
v -3 3 -2
v -3 3 -3
v -3 4 2
v -3 4 1
v -3 4 -1
v -3 4 -2
v -3 6 2
v -3 6 1
v -3 6 -1
v -3 6 -2
v -3 7 3
v -3 7 2
v -3 7 1
v -3 7 -0
v -3 7 -1
v -3 7 -2
v -3 7 -3
v -3 8 2
v -3 8 -0
v -3 8 -2
v -2 1 1
v -2 1 -0
v -2 1 -1
v -2 2 3
v -2 2 2
v -2 2 1
v -2 2 -0
v -2 2 -1
v -2 2 -2
v -2 2 -3
v -2 3 3
v -2 3 2
v -2 3 -2
v -2 3 -3
v -2 4 4
v -2 4 3
v -2 4 -3
v -2 4 -4
v -2 6 4
v -2 6 3
v -2 6 -3
v -2 6 -4
v -2 7 3
v -2 7 2
v -2 7 -2
v -2 7 -3
v -2 8 3
v -2 8 2
v -2 8 1
v -2 8 -0
v -2 8 -1
v -2 8 -2
v -2 8 -3
v -2 9 1
v -2 9 -0
v -2 9 -1
v -1 0 1
v -1 0 -1
v -1 1 2
v -1 1 1
v -1 1 -0
v -1 1 -1
v -1 1 -2
v -1 2 2
v -1 2 1
v -1 2 -1
v -1 2 -2
v -1 3 4
v -1 3 3
v -1 3 -3
v -1 3 -4
v -1 4 4
v -1 4 3
v -1 4 -3
v -1 4 -4
v -1 6 4
v -1 6 3
v -1 6 -3
v -1 6 -4
v -1 7 4
v -1 7 3
v -1 7 -3
v -1 7 -4
v -1 8 2
v -1 8 1
v -1 8 -1
v -1 8 -2
v -1 9 2
v -1 9 1
v -1 9 -1
v -1 9 -2
v 1 0 1
v 1 0 -1
v 1 1 2
v 1 1 1
v 1 1 -0
v 1 1 -1
v 1 1 -2
v 1 2 2
v 1 2 1
v 1 2 -1
v 1 2 -2
v 1 3 4
v 1 3 3
v 1 3 -3
v 1 3 -4
v 1 4 4
v 1 4 3
v 1 4 -3
v 1 4 -4
v 1 6 4
v 1 6 3
v 1 6 -3
v 1 6 -4
v 1 7 4
v 1 7 3
v 1 7 -3
v 1 7 -4
v 1 8 2
v 1 8 1
v 1 8 -1
v 1 8 -2
v 1 9 2
v 1 9 1
v 1 9 -1
v 1 9 -2
v 2 1 1
v 2 1 -0
v 2 1 -1
v 2 2 3
v 2 2 2
v 2 2 1
v 2 2 -0
v 2 2 -1
v 2 2 -2
v 2 2 -3
v 2 3 3
v 2 3 2
v 2 3 -2
v 2 3 -3
v 2 4 4
v 2 4 3
v 2 4 -3
v 2 4 -4
v 2 6 4
v 2 6 3
v 2 6 -3
v 2 6 -4
v 2 7 3
v 2 7 2
v 2 7 -2
v 2 7 -3
v 2 8 3
v 2 8 2
v 2 8 1
v 2 8 -0
v 2 8 -1
v 2 8 -2
v 2 8 -3
v 2 9 1
v 2 9 -0
v 2 9 -1
v 3 2 2
v 3 2 -0
v 3 2 -2
v 3 3 3
v 3 3 2
v 3 3 1
v 3 3 -0
v 3 3 -1
v 3 3 -2
v 3 3 -3
v 3 4 2
v 3 4 1
v 3 4 -1
v 3 4 -2
v 3 6 2
v 3 6 1
v 3 6 -1
v 3 6 -2
v 3 7 3
v 3 7 2
v 3 7 1
v 3 7 -0
v 3 7 -1
v 3 7 -2
v 3 7 -3
v 3 8 2
v 3 8 -0
v 3 8 -2
v 4 3 1
v 4 3 -0
v 4 3 -1
v 4 4 2
v 4 4 1
v 4 4 -1
v 4 4 -2
v 4 6 2
v 4 6 1
v 4 6 -1
v 4 6 -2
v 4 7 1
v 4 7 -0
v 4 7 -1
v -2 4 4
v -2 6 4
v -1 3 4
v -1 4 4
v -1 6 4
v -1 7 4
v 0 3 4
v 0 7 4
v 1 3 4
v 1 4 4
v 1 6 4
v 1 7 4
v 2 4 4
v 2 6 4
v -3 3 3
v -3 7 3
v -2 2 3
v -2 3 3
v -2 4 3
v -2 6 3
v -2 7 3
v -2 8 3
v -1 3 3
v -1 4 3
v -1 6 3
v -1 7 3
v 0 2 3
v 0 3 3
v 0 7 3
v 0 8 3
v 1 3 3
v 1 4 3
v 1 6 3
v 1 7 3
v 2 2 3
v 2 3 3
v 2 4 3
v 2 6 3
v 2 7 3
v 2 8 3
v 3 3 3
v 3 7 3
v -4 4 2
v -4 6 2
v -3 2 2
v -3 3 2
v -3 4 2
v -3 6 2
v -3 7 2
v -3 8 2
v -2 2 2
v -2 3 2
v -2 7 2
v -2 8 2
v -1 1 2
v -1 2 2
v -1 8 2
v -1 9 2
v 0 1 2
v 0 2 2
v 0 8 2
v 0 9 2
v 1 1 2
v 1 2 2
v 1 8 2
v 1 9 2
v 2 2 2
v 2 3 2
v 2 7 2
v 2 8 2
v 3 2 2
v 3 3 2
v 3 4 2
v 3 6 2
v 3 7 2
v 3 8 2
v 4 4 2
v 4 6 2
v -4 3 1
v -4 4 1
v -4 6 1
v -4 7 1
v -3 3 1
v -3 4 1
v -3 6 1
v -3 7 1
v -2 1 1
v -2 2 1
v -2 8 1
v -2 9 1
v -1 0 1
v -1 1 1
v -1 2 1
v -1 8 1
v -1 9 1
v 0 1 1
v 1 0 1
v 1 1 1
v 1 2 1
v 1 8 1
v 1 9 1
v 2 1 1
v 2 2 1
v 2 8 1
v 2 9 1
v 3 3 1
v 3 4 1
v 3 6 1
v 3 7 1
v 4 3 1
v 4 4 1
v 4 6 1
v 4 7 1
v -4 3 -1
v -4 4 -1
v -4 6 -1
v -4 7 -1
v -3 3 -1
v -3 4 -1
v -3 6 -1
v -3 7 -1
v -2 1 -1
v -2 2 -1
v -2 8 -1
v -2 9 -1
v -1 0 -1
v -1 1 -1
v -1 2 -1
v -1 8 -1
v -1 9 -1
v 0 1 -1
v 1 0 -1
v 1 1 -1
v 1 2 -1
v 1 8 -1
v 1 9 -1
v 2 1 -1
v 2 2 -1
v 2 8 -1
v 2 9 -1
v 3 3 -1
v 3 4 -1
v 3 6 -1
v 3 7 -1
v 4 3 -1
v 4 4 -1
v 4 6 -1
v 4 7 -1
v -4 4 -2
v -4 6 -2
v -3 2 -2
v -3 3 -2
v -3 4 -2
v -3 6 -2
v -3 7 -2
v -3 8 -2
v -2 2 -2
v -2 3 -2
v -2 7 -2
v -2 8 -2
v -1 1 -2
v -1 2 -2
v -1 8 -2
v -1 9 -2
v 0 1 -2
v 0 2 -2
v 0 8 -2
v 0 9 -2
v 1 1 -2
v 1 2 -2
v 1 8 -2
v 1 9 -2
v 2 2 -2
v 2 3 -2
v 2 7 -2
v 2 8 -2
v 3 2 -2
v 3 3 -2
v 3 4 -2
v 3 6 -2
v 3 7 -2
v 3 8 -2
v 4 4 -2
v 4 6 -2
v -3 3 -3
v -3 7 -3
v -2 2 -3
v -2 3 -3
v -2 4 -3
v -2 6 -3
v -2 7 -3
v -2 8 -3
v -1 3 -3
v -1 4 -3
v -1 6 -3
v -1 7 -3
v 0 2 -3
v 0 3 -3
v 0 7 -3
v 0 8 -3
v 1 3 -3
v 1 4 -3
v 1 6 -3
v 1 7 -3
v 2 2 -3
v 2 3 -3
v 2 4 -3
v 2 6 -3
v 2 7 -3
v 2 8 -3
v 3 3 -3
v 3 7 -3
v -2 4 -4
v -2 6 -4
v -1 3 -4
v -1 4 -4
v -1 6 -4
v -1 7 -4
v 0 3 -4
v 0 7 -4
v 1 3 -4
v 1 4 -4
v 1 6 -4
v 1 7 -4
v 2 4 -4
v 2 6 -4
v -1 0 1
v 1 0 1
v -1 0 -1
v 1 0 -1
v -1 1 2
v 0 1 2
v 1 1 2
v -2 1 1
v -1 1 1
v 0 1 1
v 1 1 1
v 2 1 1
v -2 1 -0
v -1 1 -0
v 1 1 -0
v 2 1 -0
v -2 1 -1
v -1 1 -1
v 0 1 -1
v 1 1 -1
v 2 1 -1
v -1 1 -2
v 0 1 -2
v 1 1 -2
v -2 2 3
v 0 2 3
v 2 2 3
v -3 2 2
v -2 2 2
v -1 2 2
v 0 2 2
v 1 2 2
v 2 2 2
v 3 2 2
v -2 2 1
v -1 2 1
v 1 2 1
v 2 2 1
v -3 2 -0
v -2 2 -0
v 2 2 -0
v 3 2 -0
v -2 2 -1
v -1 2 -1
v 1 2 -1
v 2 2 -1
v -3 2 -2
v -2 2 -2
v -1 2 -2
v 0 2 -2
v 1 2 -2
v 2 2 -2
v 3 2 -2
v -2 2 -3
v 0 2 -3
v 2 2 -3
v -1 3 4
v 0 3 4
v 1 3 4
v -3 3 3
v -2 3 3
v -1 3 3
v 0 3 3
v 1 3 3
v 2 3 3
v 3 3 3
v -3 3 2
v -2 3 2
v 2 3 2
v 3 3 2
v -4 3 1
v -3 3 1
v 3 3 1
v 4 3 1
v -4 3 -0
v -3 3 -0
v 3 3 -0
v 4 3 -0
v -4 3 -1
v -3 3 -1
v 3 3 -1
v 4 3 -1
v -3 3 -2
v -2 3 -2
v 2 3 -2
v 3 3 -2
v -3 3 -3
v -2 3 -3
v -1 3 -3
v 0 3 -3
v 1 3 -3
v 2 3 -3
v 3 3 -3
v -1 3 -4
v 0 3 -4
v 1 3 -4
v -2 4 4
v -1 4 4
v 1 4 4
v 2 4 4
v -2 4 3
v -1 4 3
v 1 4 3
v 2 4 3
v -4 4 2
v -3 4 2
v 3 4 2
v 4 4 2
v -4 4 1
v -3 4 1
v 3 4 1
v 4 4 1
v -4 4 -1
v -3 4 -1
v 3 4 -1
v 4 4 -1
v -4 4 -2
v -3 4 -2
v 3 4 -2
v 4 4 -2
v -2 4 -3
v -1 4 -3
v 1 4 -3
v 2 4 -3
v -2 4 -4
v -1 4 -4
v 1 4 -4
v 2 4 -4
v -2 6 4
v -1 6 4
v 1 6 4
v 2 6 4
v -2 6 3
v -1 6 3
v 1 6 3
v 2 6 3
v -4 6 2
v -3 6 2
v 3 6 2
v 4 6 2
v -4 6 1
v -3 6 1
v 3 6 1
v 4 6 1
v -4 6 -1
v -3 6 -1
v 3 6 -1
v 4 6 -1
v -4 6 -2
v -3 6 -2
v 3 6 -2
v 4 6 -2
v -2 6 -3
v -1 6 -3
v 1 6 -3
v 2 6 -3
v -2 6 -4
v -1 6 -4
v 1 6 -4
v 2 6 -4
v -1 7 4
v 0 7 4
v 1 7 4
v -3 7 3
v -2 7 3
v -1 7 3
v 0 7 3
v 1 7 3
v 2 7 3
v 3 7 3
v -3 7 2
v -2 7 2
v 2 7 2
v 3 7 2
v -4 7 1
v -3 7 1
v 3 7 1
v 4 7 1
v -4 7 -0
v -3 7 -0
v 3 7 -0
v 4 7 -0
v -4 7 -1
v -3 7 -1
v 3 7 -1
v 4 7 -1
v -3 7 -2
v -2 7 -2
v 2 7 -2
v 3 7 -2
v -3 7 -3
v -2 7 -3
v -1 7 -3
v 0 7 -3
v 1 7 -3
v 2 7 -3
v 3 7 -3
v -1 7 -4
v 0 7 -4
v 1 7 -4
v -2 8 3
v 0 8 3
v 2 8 3
v -3 8 2
v -2 8 2
v -1 8 2
v 0 8 2
v 1 8 2
v 2 8 2
v 3 8 2
v -2 8 1
v -1 8 1
v 1 8 1
v 2 8 1
v -3 8 -0
v -2 8 -0
v 2 8 -0
v 3 8 -0
v -2 8 -1
v -1 8 -1
v 1 8 -1
v 2 8 -1
v -3 8 -2
v -2 8 -2
v -1 8 -2
v 0 8 -2
v 1 8 -2
v 2 8 -2
v 3 8 -2
v -2 8 -3
v 0 8 -3
v 2 8 -3
v -1 9 2
v 0 9 2
v 1 9 2
v -2 9 1
v -1 9 1
v 1 9 1
v 2 9 1
v -2 9 -0
v 0 9 -0
v 2 9 -0
v -2 9 -1
v -1 9 -1
v 1 9 -1
v 2 9 -1
v -1 9 -2
v 0 9 -2
v 1 9 -2

# faces
f 5/2/1 2/2/1 1/2/1
f 6/3/1 3/3/1 2/3/1
f 8/2/1 5/2/1 4/2/1
f 9/2/1 2/2/1 5/2/1
f 9/2/1 5/2/1 8/2/1
f 10/3/1 7/3/1 6/3/1
f 10/3/1 6/3/1 2/3/1
f 11/3/1 7/3/1 10/3/1
f 12/2/1 2/2/1 9/2/1
f 13/3/1 10/3/1 2/3/1
f 13/2/1 2/2/1 12/2/1
f 14/3/1 10/3/1 13/3/1
f 19/2/1 16/2/1 15/2/1
f 20/2/1 16/2/1 19/2/1
f 21/3/1 17/3/1 16/3/1
f 21/2/1 16/2/1 20/2/1
f 22/3/1 17/3/1 21/3/1
f 23/3/1 17/3/1 22/3/1
f 25/2/1 20/2/1 19/2/1
f 25/2/1 19/2/1 18/2/1
f 26/2/1 20/2/1 25/2/1
f 27/3/1 24/3/1 23/3/1
f 27/3/1 23/3/1 22/3/1
f 28/3/1 24/3/1 27/3/1
f 29/2/1 25/2/1 18/2/1
f 32/3/1 24/3/1 28/3/1
f 33/2/1 30/2/1 29/2/1
f 33/2/1 29/2/1 18/2/1
f 34/2/1 30/2/1 33/2/1
f 35/2/1 30/2/1 34/2/1
f 37/3/1 32/3/1 31/3/1
f 38/3/1 24/3/1 32/3/1
f 38/3/1 32/3/1 37/3/1
f 39/3/1 24/3/1 38/3/1
f 40/2/1 36/2/1 35/2/1
f 40/2/1 35/2/1 34/2/1
f 41/3/1 37/3/1 36/3/1
f 41/2/1 36/2/1 40/2/1
f 41/3/1 38/3/1 37/3/1
f 42/3/1 38/3/1 41/3/1
f 48/2/1 44/2/1 43/2/1
f 49/3/1 45/3/1 44/3/1
f 49/2/1 44/2/1 48/2/1
f 50/3/1 45/3/1 49/3/1
f 53/2/1 47/2/1 46/2/1
f 54/2/1 47/2/1 53/2/1
f 55/3/1 52/3/1 51/3/1
f 56/3/1 52/3/1 55/3/1
f 61/2/1 58/2/1 57/2/1
f 62/2/1 58/2/1 61/2/1
f 63/3/1 60/3/1 59/3/1
f 64/3/1 60/3/1 63/3/1
f 69/2/1 66/2/1 65/2/1
f 70/2/1 66/2/1 69/2/1
f 74/3/1 68/3/1 67/3/1
f 75/3/1 68/3/1 74/3/1
f 76/2/1 72/2/1 71/2/1
f 77/3/1 73/3/1 72/3/1
f 77/2/1 72/2/1 76/2/1
f 78/3/1 73/3/1 77/3/1
f 82/1/1 80/1/1 79/1/1
f 83/1/1 80/1/1 82/1/1
f 84/1/1 80/1/1 83/1/1
f 86/2/1 82/2/1 81/2/1
f 87/2/1 82/2/1 86/2/1
f 88/3/1 85/3/1 84/3/1
f 89/3/1 85/3/1 88/3/1
f 94/2/1 91/2/1 90/2/1
f 95/2/1 91/2/1 94/2/1
f 96/3/1 93/3/1 92/3/1
f 97/3/1 93/3/1 96/3/1
f 102/2/1 99/2/1 98/2/1
f 103/2/1 99/2/1 102/2/1
f 104/3/1 101/3/1 100/3/1
f 105/3/1 101/3/1 104/3/1
f 110/2/1 107/2/1 106/2/1
f 111/2/1 107/2/1 110/2/1
f 112/3/1 109/3/1 108/3/1
f 113/3/1 109/3/1 112/3/1
f 114/1/2 115/1/2 117/1/2
f 117/1/2 115/1/2 118/1/2
f 118/1/2 115/1/2 119/1/2
f 116/5/2 117/5/2 121/5/2
f 121/5/2 117/5/2 122/5/2
f 119/4/2 120/4/2 123/4/2
f 123/4/2 120/4/2 124/4/2
f 125/5/2 126/5/2 129/5/2
f 129/5/2 126/5/2 130/5/2
f 127/4/2 128/4/2 131/4/2
f 131/4/2 128/4/2 132/4/2
f 133/5/2 134/5/2 137/5/2
f 137/5/2 134/5/2 138/5/2
f 135/4/2 136/4/2 139/4/2
f 139/4/2 136/4/2 140/4/2
f 141/5/2 142/5/2 145/5/2
f 145/5/2 142/5/2 146/5/2
f 143/4/2 144/4/2 147/4/2
f 147/4/2 144/4/2 148/4/2
f 149/5/2 150/5/2 154/5/2
f 150/4/2 151/4/2 155/4/2
f 154/5/2 150/5/2 155/5/2
f 155/4/2 151/4/2 156/4/2
f 152/5/2 153/5/2 159/5/2
f 159/5/2 153/5/2 160/5/2
f 157/4/2 158/4/2 161/4/2
f 161/4/2 158/4/2 162/4/2
f 163/5/2 164/5/2 167/5/2
f 167/5/2 164/5/2 168/5/2
f 165/4/2 166/4/2 169/4/2
f 169/4/2 166/4/2 170/4/2
f 171/5/2 172/5/2 175/5/2
f 175/5/2 172/5/2 176/5/2
f 173/4/2 174/4/2 180/4/2
f 180/4/2 174/4/2 181/4/2
f 177/5/2 178/5/2 182/5/2
f 178/4/2 179/4/2 183/4/2
f 182/5/2 178/5/2 183/5/2
f 183/4/2 179/4/2 184/4/2
f 185/5/2 186/5/2 189/5/2
f 189/5/2 186/5/2 190/5/2
f 186/4/2 187/4/2 191/4/2
f 190/5/2 186/5/2 191/5/2
f 191/4/2 187/4/2 192/4/2
f 192/4/2 187/4/2 193/4/2
f 189/5/2 190/5/2 195/5/2
f 188/5/2 189/5/2 195/5/2
f 195/5/2 190/5/2 196/5/2
f 193/4/2 194/4/2 197/4/2
f 192/4/2 193/4/2 197/4/2
f 197/4/2 194/4/2 198/4/2
f 188/5/2 195/5/2 199/5/2
f 198/4/2 194/4/2 202/4/2
f 199/5/2 200/5/2 203/5/2
f 188/5/2 199/5/2 203/5/2
f 203/5/2 200/5/2 204/5/2
f 204/5/2 200/5/2 205/5/2
f 201/4/2 202/4/2 207/4/2
f 202/4/2 194/4/2 208/4/2
f 207/4/2 202/4/2 208/4/2
f 208/4/2 194/4/2 209/4/2
f 205/5/2 206/5/2 210/5/2
f 204/5/2 205/5/2 210/5/2
f 206/4/2 207/4/2 211/4/2
f 210/5/2 206/5/2 211/5/2
f 207/4/2 208/4/2 211/4/2
f 211/4/2 208/4/2 212/4/2
f 213/5/2 214/5/2 217/5/2
f 214/4/2 215/4/2 218/4/2
f 216/5/2 217/5/2 220/5/2
f 217/5/2 214/5/2 221/5/2
f 220/5/2 217/5/2 221/5/2
f 218/4/2 219/4/2 222/4/2
f 214/4/2 218/4/2 222/4/2
f 222/4/2 219/4/2 223/4/2
f 221/5/2 214/5/2 224/5/2
f 214/4/2 222/4/2 225/4/2
f 224/5/2 214/5/2 225/5/2
f 225/4/2 222/4/2 226/4/2
f 230/2/3 228/2/3 227/2/3
f 231/2/3 228/2/3 230/2/3
f 233/2/3 230/2/3 229/2/3
f 233/2/3 232/2/3 231/2/3
f 233/2/3 231/2/3 230/2/3
f 234/2/3 232/2/3 233/2/3
f 235/5/3 234/5/3 233/5/3
f 236/5/3 234/5/3 235/5/3
f 237/5/3 234/5/3 236/5/3
f 238/5/3 234/5/3 237/5/3
f 239/5/3 237/5/3 236/5/3
f 240/5/3 237/5/3 239/5/3
f 244/2/3 242/2/3 241/2/3
f 245/2/3 242/2/3 244/2/3
f 246/2/3 242/2/3 245/2/3
f 247/2/3 242/2/3 246/2/3
f 249/2/3 244/2/3 243/2/3
f 249/2/3 245/2/3 244/2/3
f 250/2/3 245/2/3 249/2/3
f 251/2/3 248/2/3 247/2/3
f 251/2/3 247/2/3 246/2/3
f 252/2/3 248/2/3 251/2/3
f 253/2/3 249/2/3 243/2/3
f 254/2/3 249/2/3 253/2/3
f 255/2/3 248/2/3 252/2/3
f 256/2/3 248/2/3 255/2/3
f 257/5/3 254/5/3 253/5/3
f 260/5/3 256/5/3 255/5/3
f 261/5/3 258/5/3 257/5/3
f 261/5/3 257/5/3 253/5/3
f 262/5/3 258/5/3 261/5/3
f 263/5/3 258/5/3 262/5/3
f 264/5/3 260/5/3 259/5/3
f 265/5/3 256/5/3 260/5/3
f 265/5/3 260/5/3 264/5/3
f 266/5/3 256/5/3 265/5/3
f 267/5/3 263/5/3 262/5/3
f 267/5/3 264/5/3 263/5/3
f 267/5/3 265/5/3 264/5/3
f 268/5/3 265/5/3 267/5/3
f 273/2/3 270/2/3 269/2/3
f 274/2/3 270/2/3 273/2/3
f 277/2/3 272/2/3 271/2/3
f 278/2/3 272/2/3 277/2/3
f 279/2/3 276/2/3 275/2/3
f 280/2/3 276/2/3 279/2/3
f 285/2/3 282/2/3 281/2/3
f 286/2/3 282/2/3 285/2/3
f 287/2/3 284/2/3 283/2/3
f 288/2/3 284/2/3 287/2/3
f 289/5/3 286/5/3 285/5/3
f 290/5/3 286/5/3 289/5/3
f 291/5/3 288/5/3 287/5/3
f 292/5/3 288/5/3 291/5/3
f 297/5/3 294/5/3 293/5/3
f 298/5/3 294/5/3 297/5/3
f 301/5/3 296/5/3 295/5/3
f 302/5/3 296/5/3 301/5/3
f 303/5/3 300/5/3 299/5/3
f 304/5/3 300/5/3 303/5/3
f 309/2/3 306/2/3 305/2/3
f 310/2/3 306/2/3 309/2/3
f 311/2/3 308/2/3 307/2/3
f 312/2/3 308/2/3 311/2/3
f 318/2/3 314/2/3 313/2/3
f 319/2/3 314/2/3 318/2/3
f 320/2/3 316/2/3 315/2/3
f 321/2/3 316/2/3 320/2/3
f 322/1/3 318/1/3 317/1/3
f 323/1/3 322/1/3 317/1/3
f 324/1/3 322/1/3 323/1/3
f 328/5/3 325/5/3 324/5/3
f 329/5/3 325/5/3 328/5/3
f 330/5/3 327/5/3 326/5/3
f 331/5/3 327/5/3 330/5/3
f 336/5/3 333/5/3 332/5/3
f 337/5/3 333/5/3 336/5/3
f 338/5/3 335/5/3 334/5/3
f 339/5/3 335/5/3 338/5/3
f 340/3/4 341/3/4 344/3/4
f 344/3/4 341/3/4 345/3/4
f 342/3/4 343/3/4 346/3/4
f 346/3/4 343/3/4 347/3/4
f 348/3/4 349/3/4 353/3/4
f 353/3/4 349/3/4 354/3/4
f 350/3/4 351/3/4 355/3/4
f 355/3/4 351/3/4 356/3/4
f 352/1/4 353/1/4 357/1/4
f 352/1/4 357/1/4 358/1/4
f 358/1/4 357/1/4 359/1/4
f 359/4/4 360/4/4 363/4/4
f 363/4/4 360/4/4 364/4/4
f 361/4/4 362/4/4 365/4/4
f 365/4/4 362/4/4 366/4/4
f 367/4/4 368/4/4 371/4/4
f 371/4/4 368/4/4 372/4/4
f 369/4/4 370/4/4 373/4/4
f 373/4/4 370/4/4 374/4/4
f 375/3/4 376/3/4 379/3/4
f 379/3/4 376/3/4 380/3/4
f 377/3/4 378/3/4 383/3/4
f 383/3/4 378/3/4 384/3/4
f 381/3/4 382/3/4 385/3/4
f 385/3/4 382/3/4 386/3/4
f 387/3/4 388/3/4 391/3/4
f 391/3/4 388/3/4 392/3/4
f 389/3/4 390/3/4 393/3/4
f 393/3/4 390/3/4 394/3/4
f 391/4/4 392/4/4 395/4/4
f 395/4/4 392/4/4 396/4/4
f 393/4/4 394/4/4 397/4/4
f 397/4/4 394/4/4 398/4/4
f 399/4/4 400/4/4 403/4/4
f 403/4/4 400/4/4 404/4/4
f 401/4/4 402/4/4 407/4/4
f 407/4/4 402/4/4 408/4/4
f 405/4/4 406/4/4 409/4/4
f 409/4/4 406/4/4 410/4/4
f 411/3/4 412/3/4 414/3/4
f 414/3/4 412/3/4 415/3/4
f 415/3/4 412/3/4 416/3/4
f 416/3/4 412/3/4 417/3/4
f 413/3/4 414/3/4 419/3/4
f 414/3/4 415/3/4 419/3/4
f 419/3/4 415/3/4 420/3/4
f 417/3/4 418/3/4 421/3/4
f 416/3/4 417/3/4 421/3/4
f 421/3/4 418/3/4 422/3/4
f 413/3/4 419/3/4 423/3/4
f 423/3/4 419/3/4 424/3/4
f 422/3/4 418/3/4 425/3/4
f 425/3/4 418/3/4 426/3/4
f 423/4/4 424/4/4 427/4/4
f 425/4/4 426/4/4 430/4/4
f 427/4/4 428/4/4 431/4/4
f 423/4/4 427/4/4 431/4/4
f 431/4/4 428/4/4 432/4/4
f 432/4/4 428/4/4 433/4/4
f 429/4/4 430/4/4 434/4/4
f 430/4/4 426/4/4 435/4/4
f 434/4/4 430/4/4 435/4/4
f 435/4/4 426/4/4 436/4/4
f 432/4/4 433/4/4 437/4/4
f 433/4/4 434/4/4 437/4/4
f 434/4/4 435/4/4 437/4/4
f 437/4/4 435/4/4 438/4/4
f 439/3/4 440/3/4 442/3/4
f 442/3/4 440/3/4 443/3/4
f 441/3/4 442/3/4 445/3/4
f 443/3/4 444/3/4 445/3/4
f 442/3/4 443/3/4 445/3/4
f 445/3/4 444/3/4 446/3/4
f 445/4/4 446/4/4 447/4/4
f 447/4/4 446/4/4 448/4/4
f 448/4/4 446/4/4 449/4/4
f 449/4/4 446/4/4 450/4/4
f 448/4/4 449/4/4 451/4/4
f 451/4/4 449/4/4 452/4/4
f 455/1/5 454/1/5 453/1/5
f 456/1/5 454/1/5 455/1/5
f 461/2/5 458/2/5 457/2/5
f 462/5/5 459/5/5 458/5/5
f 462/2/5 458/2/5 461/2/5
f 463/5/5 459/5/5 462/5/5
f 465/2/5 461/2/5 460/2/5
f 466/2/5 461/2/5 465/2/5
f 467/5/5 464/5/5 463/5/5
f 468/5/5 464/5/5 467/5/5
f 469/3/5 466/3/5 465/3/5
f 470/3/5 466/3/5 469/3/5
f 472/4/5 468/4/5 467/4/5
f 473/4/5 468/4/5 472/4/5
f 474/3/5 471/3/5 470/3/5
f 475/4/5 472/4/5 471/4/5
f 475/3/5 471/3/5 474/3/5
f 476/4/5 472/4/5 475/4/5
f 481/2/5 478/2/5 477/2/5
f 482/2/5 478/2/5 481/2/5
f 483/5/5 479/5/5 478/5/5
f 483/2/5 478/2/5 482/2/5
f 484/5/5 479/5/5 483/5/5
f 485/5/5 479/5/5 484/5/5
f 487/2/5 482/2/5 481/2/5
f 487/2/5 481/2/5 480/2/5
f 488/2/5 482/2/5 487/2/5
f 489/5/5 486/5/5 485/5/5
f 489/5/5 485/5/5 484/5/5
f 490/5/5 486/5/5 489/5/5
f 491/2/5 487/2/5 480/2/5
f 492/2/5 487/2/5 491/2/5
f 493/5/5 486/5/5 490/5/5
f 494/5/5 486/5/5 493/5/5
f 495/3/5 492/3/5 491/3/5
f 498/4/5 494/4/5 493/4/5
f 499/3/5 496/3/5 495/3/5
f 499/3/5 495/3/5 491/3/5
f 500/3/5 496/3/5 499/3/5
f 501/3/5 496/3/5 500/3/5
f 503/4/5 498/4/5 497/4/5
f 504/4/5 494/4/5 498/4/5
f 504/4/5 498/4/5 503/4/5
f 505/4/5 494/4/5 504/4/5
f 506/3/5 502/3/5 501/3/5
f 506/3/5 501/3/5 500/3/5
f 507/4/5 503/4/5 502/4/5
f 507/3/5 502/3/5 506/3/5
f 507/4/5 504/4/5 503/4/5
f 508/4/5 504/4/5 507/4/5
f 514/2/5 510/2/5 509/2/5
f 515/5/5 511/5/5 510/5/5
f 515/2/5 510/2/5 514/2/5
f 516/5/5 511/5/5 515/5/5
f 519/2/5 513/2/5 512/2/5
f 520/2/5 513/2/5 519/2/5
f 521/5/5 518/5/5 517/5/5
f 522/5/5 518/5/5 521/5/5
f 527/2/5 524/2/5 523/2/5
f 528/2/5 524/2/5 527/2/5
f 529/5/5 526/5/5 525/5/5
f 530/5/5 526/5/5 529/5/5
f 531/3/5 528/3/5 527/3/5
f 532/3/5 528/3/5 531/3/5
f 533/4/5 530/4/5 529/4/5
f 534/4/5 530/4/5 533/4/5
f 539/3/5 536/3/5 535/3/5
f 540/3/5 536/3/5 539/3/5
f 544/4/5 538/4/5 537/4/5
f 545/4/5 538/4/5 544/4/5
f 546/3/5 542/3/5 541/3/5
f 547/4/5 543/4/5 542/4/5
f 547/3/5 542/3/5 546/3/5
f 548/4/5 543/4/5 547/4/5
f 553/2/5 550/2/5 549/2/5
f 554/2/5 550/2/5 553/2/5
f 555/5/5 552/5/5 551/5/5
f 556/5/5 552/5/5 555/5/5
f 561/2/5 558/2/5 557/2/5
f 562/2/5 558/2/5 561/2/5
f 563/5/5 560/5/5 559/5/5
f 564/5/5 560/5/5 563/5/5
f 569/3/5 566/3/5 565/3/5
f 570/3/5 566/3/5 569/3/5
f 571/4/5 568/4/5 567/4/5
f 572/4/5 568/4/5 571/4/5
f 577/3/5 574/3/5 573/3/5
f 578/3/5 574/3/5 577/3/5
f 579/4/5 576/4/5 575/4/5
f 580/4/5 576/4/5 579/4/5
f 581/2/6 582/2/6 585/2/6
f 585/2/6 582/2/6 586/2/6
f 583/5/6 584/5/6 587/5/6
f 587/5/6 584/5/6 588/5/6
f 589/2/6 590/2/6 593/2/6
f 593/2/6 590/2/6 594/2/6
f 591/5/6 592/5/6 595/5/6
f 595/5/6 592/5/6 596/5/6
f 597/3/6 598/3/6 601/3/6
f 601/3/6 598/3/6 602/3/6
f 599/4/6 600/4/6 603/4/6
f 603/4/6 600/4/6 604/4/6
f 605/3/6 606/3/6 609/3/6
f 609/3/6 606/3/6 610/3/6
f 607/4/6 608/4/6 611/4/6
f 611/4/6 608/4/6 612/4/6
f 613/2/6 614/2/6 618/2/6
f 614/5/6 615/5/6 619/5/6
f 618/2/6 614/2/6 619/2/6
f 619/5/6 615/5/6 620/5/6
f 616/2/6 617/2/6 623/2/6
f 623/2/6 617/2/6 624/2/6
f 621/5/6 622/5/6 625/5/6
f 625/5/6 622/5/6 626/5/6
f 627/2/6 628/2/6 631/2/6
f 631/2/6 628/2/6 632/2/6
f 629/5/6 630/5/6 633/5/6
f 633/5/6 630/5/6 634/5/6
f 631/3/6 632/3/6 635/3/6
f 635/3/6 632/3/6 636/3/6
f 633/4/6 634/4/6 637/4/6
f 637/4/6 634/4/6 638/4/6
f 639/3/6 640/3/6 643/3/6
f 643/3/6 640/3/6 644/3/6
f 641/4/6 642/4/6 648/4/6
f 648/4/6 642/4/6 649/4/6
f 645/3/6 646/3/6 650/3/6
f 646/4/6 647/4/6 651/4/6
f 650/3/6 646/3/6 651/3/6
f 651/4/6 647/4/6 652/4/6
f 653/2/6 654/2/6 657/2/6
f 657/2/6 654/2/6 658/2/6
f 654/5/6 655/5/6 659/5/6
f 658/2/6 654/2/6 659/2/6
f 659/5/6 655/5/6 660/5/6
f 660/5/6 655/5/6 661/5/6
f 657/2/6 658/2/6 663/2/6
f 656/2/6 657/2/6 663/2/6
f 663/2/6 658/2/6 664/2/6
f 661/5/6 662/5/6 665/5/6
f 660/5/6 661/5/6 665/5/6
f 665/5/6 662/5/6 666/5/6
f 656/2/6 663/2/6 667/2/6
f 667/2/6 663/2/6 668/2/6
f 666/5/6 662/5/6 669/5/6
f 669/5/6 662/5/6 670/5/6
f 667/3/6 668/3/6 671/3/6
f 669/4/6 670/4/6 674/4/6
f 671/3/6 672/3/6 675/3/6
f 667/3/6 671/3/6 675/3/6
f 675/3/6 672/3/6 676/3/6
f 676/3/6 672/3/6 677/3/6
f 673/4/6 674/4/6 679/4/6
f 674/4/6 670/4/6 680/4/6
f 679/4/6 674/4/6 680/4/6
f 680/4/6 670/4/6 681/4/6
f 677/3/6 678/3/6 682/3/6
f 676/3/6 677/3/6 682/3/6
f 678/4/6 679/4/6 683/4/6
f 682/3/6 678/3/6 683/3/6
f 679/4/6 680/4/6 683/4/6
f 683/4/6 680/4/6 684/4/6
f 685/2/6 686/2/6 689/2/6
f 686/5/6 687/5/6 690/5/6
f 688/2/6 689/2/6 692/2/6
f 690/5/6 691/5/6 693/5/6
f 692/2/6 689/2/6 693/2/6
f 689/2/6 686/2/6 693/2/6
f 686/5/6 690/5/6 693/5/6
f 693/5/6 691/5/6 694/5/6
f 692/3/6 693/3/6 695/3/6
f 695/3/6 693/3/6 696/3/6
f 693/4/6 694/4/6 697/4/6
f 697/4/6 694/4/6 698/4/6
f 696/3/6 693/3/6 699/3/6
f 693/4/6 697/4/6 700/4/6
f 699/3/6 693/3/6 700/3/6
f 700/4/6 697/4/6 701/4/6
