# MagicaVoxel @ Ephtracy

# material
mtllib Garden02C.mtl
usemtl palette

# normals
vn -1 0 0
vn 1 0 0
vn 0 0 1
vn 0 0 -1
vn 0 -1 0
vn 0 1 0

# texcoords
vt 0.755859 0.5
vt 0.759766 0.5
vt 0.763672 0.5
vt 0.767578 0.5
vt 0.990234 0.5

# verts
v -5 0 8
v -5 0 -8
v -5 1 8
v -5 1 2
v -5 1 -8
v -5 4 8
v -5 4 2
v -5 4 -8
v 5 0 8
v 5 0 -8
v 5 1 8
v 5 1 4
v 5 1 -8
v 5 4 8
v 5 4 4
v 5 4 -8
v -5 0 8
v -5 1 8
v -5 4 8
v 1 1 8
v 1 4 8
v 5 0 8
v 5 1 8
v 5 4 8
v -5 0 -8
v -5 1 -8
v -5 4 -8
v 1 1 -8
v 1 4 -8
v 5 0 -8
v 5 1 -8
v 5 4 -8
v -5 0 8
v 5 0 8
v -5 0 -8
v 5 0 -8
v -5 4 8
v 1 4 8
v 5 4 8
v 1 4 4
v 5 4 4
v -5 4 2
v 1 4 2
v -5 4 -8
v 1 4 -8
v 5 4 -8

# faces
f 3/5/1 2/5/1 1/5/1
f 4/5/1 2/5/1 3/5/1
f 5/5/1 2/5/1 4/5/1
f 6/2/1 4/2/1 3/2/1
f 7/4/1 5/4/1 4/4/1
f 7/2/1 4/2/1 6/2/1
f 8/4/1 5/4/1 7/4/1
f 9/5/2 10/5/2 11/5/2
f 11/5/2 10/5/2 12/5/2
f 12/5/2 10/5/2 13/5/2
f 11/1/2 12/1/2 14/1/2
f 12/3/2 13/3/2 15/3/2
f 14/1/2 12/1/2 15/1/2
f 15/3/2 13/3/2 16/3/2
f 20/5/3 18/5/3 17/5/3
f 20/2/3 19/2/3 18/2/3
f 21/2/3 19/2/3 20/2/3
f 22/5/3 20/5/3 17/5/3
f 23/1/3 21/1/3 20/1/3
f 23/5/3 20/5/3 22/5/3
f 24/1/3 21/1/3 23/1/3
f 25/5/4 26/5/4 28/5/4
f 26/4/4 27/4/4 28/4/4
f 28/4/4 27/4/4 29/4/4
f 25/5/4 28/5/4 30/5/4
f 28/3/4 29/3/4 31/3/4
f 30/5/4 28/5/4 31/5/4
f 31/3/4 29/3/4 32/3/4
f 35/5/5 34/5/5 33/5/5
f 36/5/5 34/5/5 35/5/5
f 37/2/6 38/2/6 40/2/6
f 38/1/6 39/1/6 40/1/6
f 40/1/6 39/1/6 41/1/6
f 37/2/6 40/2/6 42/2/6
f 40/3/6 41/3/6 43/3/6
f 42/2/6 40/2/6 43/2/6
f 42/4/6 43/4/6 44/4/6
f 43/3/6 41/3/6 45/3/6
f 44/4/6 43/4/6 45/4/6
f 45/3/6 41/3/6 46/3/6
