# MagicaVoxel @ Ephtracy

# material
mtllib Garden05A.mtl
usemtl palette

# normals
vn -1 0 0
vn 1 0 0
vn 0 0 1
vn 0 0 -1
vn 0 -1 0
vn 0 1 0

# texcoords
vt 0.787109 0.5
vt 0.791016 0.5
vt 0.794922 0.5
vt 0.798828 0.5
vt 0.990234 0.5

# verts
v -5 0 8
v -5 0 -8
v -5 1 8
v -5 1 -0
v -5 1 -8
v -5 2 8
v -5 2 -0
v -5 2 -8
v -4 2 6
v -4 2 5
v -4 2 4
v -4 2 3
v -4 2 -1
v -4 2 -2
v -4 2 -6
v -4 2 -7
v -4 3 6
v -4 3 5
v -4 3 4
v -4 3 3
v -4 3 -1
v -4 3 -2
v -4 3 -6
v -4 3 -7
v -2 2 7
v -2 2 6
v -2 2 2
v -2 2 1
v -2 2 -4
v -2 2 -5
v -2 3 7
v -2 3 6
v -2 3 2
v -2 3 1
v -2 3 -4
v -2 3 -5
v -1 2 -1
v -1 2 -2
v -1 3 -1
v -1 3 -2
v 1 2 3
v 1 2 2
v 1 3 3
v 1 3 2
v 2 2 7
v 2 2 6
v 2 2 4
v 2 2 3
v 2 2 -1
v 2 2 -2
v 2 2 -6
v 2 2 -7
v 2 3 7
v 2 3 6
v 2 3 4
v 2 3 3
v 2 3 -1
v 2 3 -2
v 2 3 -6
v 2 3 -7
v 3 2 1
v 3 2 -0
v 3 3 1
v 3 3 -0
v 4 2 5
v 4 2 4
v 4 2 -4
v 4 2 -5
v 4 3 5
v 4 3 4
v 4 3 -4
v 4 3 -5
v -3 2 6
v -3 2 5
v -3 2 4
v -3 2 3
v -3 2 -1
v -3 2 -2
v -3 2 -6
v -3 2 -7
v -3 3 6
v -3 3 5
v -3 3 4
v -3 3 3
v -3 3 -1
v -3 3 -2
v -3 3 -6
v -3 3 -7
v -1 2 7
v -1 2 6
v -1 2 2
v -1 2 1
v -1 2 -4
v -1 2 -5
v -1 3 7
v -1 3 6
v -1 3 2
v -1 3 1
v -1 3 -4
v -1 3 -5
v 0 2 -1
v 0 2 -2
v 0 3 -1
v 0 3 -2
v 2 2 3
v 2 2 2
v 2 3 3
v 2 3 2
v 3 2 7
v 3 2 6
v 3 2 4
v 3 2 3
v 3 2 -1
v 3 2 -2
v 3 2 -6
v 3 2 -7
v 3 3 7
v 3 3 6
v 3 3 4
v 3 3 3
v 3 3 -1
v 3 3 -2
v 3 3 -6
v 3 3 -7
v 4 2 1
v 4 2 -0
v 4 3 1
v 4 3 -0
v 5 0 8
v 5 0 -8
v 5 1 8
v 5 1 2
v 5 1 -8
v 5 2 8
v 5 2 5
v 5 2 4
v 5 2 2
v 5 2 -4
v 5 2 -5
v 5 2 -8
v 5 3 5
v 5 3 4
v 5 3 -4
v 5 3 -5
v -5 0 8
v -5 1 8
v -5 2 8
v 1 1 8
v 1 2 8
v 5 0 8
v 5 1 8
v 5 2 8
v -2 2 7
v -2 3 7
v -1 2 7
v -1 3 7
v 2 2 7
v 2 3 7
v 3 2 7
v 3 3 7
v -4 2 6
v -4 3 6
v -3 2 6
v -3 3 6
v 4 2 5
v 4 3 5
v 5 2 5
v 5 3 5
v -4 2 4
v -4 3 4
v -3 2 4
v -3 3 4
v 2 2 4
v 2 3 4
v 3 2 4
v 3 3 4
v 1 2 3
v 1 3 3
v 2 2 3
v 2 3 3
v -2 2 2
v -2 3 2
v -1 2 2
v -1 3 2
v 3 2 1
v 3 3 1
v 4 2 1
v 4 3 1
v -4 2 -1
v -4 3 -1
v -3 2 -1
v -3 3 -1
v -1 2 -1
v -1 3 -1
v 0 2 -1
v 0 3 -1
v 2 2 -1
v 2 3 -1
v 3 2 -1
v 3 3 -1
v -2 2 -4
v -2 3 -4
v -1 2 -4
v -1 3 -4
v 4 2 -4
v 4 3 -4
v 5 2 -4
v 5 3 -4
v -4 2 -6
v -4 3 -6
v -3 2 -6
v -3 3 -6
v 2 2 -6
v 2 3 -6
v 3 2 -6
v 3 3 -6
v -2 2 6
v -2 3 6
v -1 2 6
v -1 3 6
v 2 2 6
v 2 3 6
v 3 2 6
v 3 3 6
v -4 2 5
v -4 3 5
v -3 2 5
v -3 3 5
v 4 2 4
v 4 3 4
v 5 2 4
v 5 3 4
v -4 2 3
v -4 3 3
v -3 2 3
v -3 3 3
v 2 2 3
v 2 3 3
v 3 2 3
v 3 3 3
v 1 2 2
v 1 3 2
v 2 2 2
v 2 3 2
v -2 2 1
v -2 3 1
v -1 2 1
v -1 3 1
v 3 2 -0
v 3 3 -0
v 4 2 -0
v 4 3 -0
v -4 2 -2
v -4 3 -2
v -3 2 -2
v -3 3 -2
v -1 2 -2
v -1 3 -2
v 0 2 -2
v 0 3 -2
v 2 2 -2
v 2 3 -2
v 3 2 -2
v 3 3 -2
v -2 2 -5
v -2 3 -5
v -1 2 -5
v -1 3 -5
v 4 2 -5
v 4 3 -5
v 5 2 -5
v 5 3 -5
v -4 2 -7
v -4 3 -7
v -3 2 -7
v -3 3 -7
v 2 2 -7
v 2 3 -7
v 3 2 -7
v 3 3 -7
v -5 0 -8
v -5 1 -8
v -5 2 -8
v 1 1 -8
v 1 2 -8
v 5 0 -8
v 5 1 -8
v 5 2 -8
v -5 0 8
v 5 0 8
v -5 0 -8
v 5 0 -8
v -5 2 8
v 1 2 8
v 5 2 8
v -2 2 7
v -1 2 7
v 2 2 7
v 3 2 7
v -4 2 6
v -3 2 6
v -2 2 6
v -1 2 6
v 2 2 6
v 3 2 6
v -4 2 5
v -3 2 5
v 4 2 5
v 5 2 5
v -4 2 4
v -3 2 4
v 2 2 4
v 3 2 4
v 4 2 4
v 5 2 4
v -4 2 3
v -3 2 3
v 1 2 3
v 2 2 3
v 3 2 3
v -2 2 2
v -1 2 2
v 1 2 2
v 2 2 2
v 5 2 2
v -2 2 1
v -1 2 1
v 3 2 1
v 4 2 1
v -5 2 -0
v 1 2 -0
v 3 2 -0
v 4 2 -0
v -4 2 -1
v -3 2 -1
v -1 2 -1
v 0 2 -1
v 2 2 -1
v 3 2 -1
v -4 2 -2
v -3 2 -2
v -1 2 -2
v 0 2 -2
v 2 2 -2
v 3 2 -2
v -2 2 -4
v -1 2 -4
v 4 2 -4
v 5 2 -4
v -2 2 -5
v -1 2 -5
v 4 2 -5
v 5 2 -5
v -4 2 -6
v -3 2 -6
v 2 2 -6
v 3 2 -6
v -4 2 -7
v -3 2 -7
v 2 2 -7
v 3 2 -7
v -5 2 -8
v 1 2 -8
v 5 2 -8
v -2 3 7
v -1 3 7
v 2 3 7
v 3 3 7
v -4 3 6
v -3 3 6
v -2 3 6
v -1 3 6
v 2 3 6
v 3 3 6
v -4 3 5
v -3 3 5
v 4 3 5
v 5 3 5
v -4 3 4
v -3 3 4
v 2 3 4
v 3 3 4
v 4 3 4
v 5 3 4
v -4 3 3
v -3 3 3
v 1 3 3
v 2 3 3
v 3 3 3
v -2 3 2
v -1 3 2
v 1 3 2
v 2 3 2
v -2 3 1
v -1 3 1
v 3 3 1
v 4 3 1
v 3 3 -0
v 4 3 -0
v -4 3 -1
v -3 3 -1
v -1 3 -1
v 0 3 -1
v 2 3 -1
v 3 3 -1
v -4 3 -2
v -3 3 -2
v -1 3 -2
v 0 3 -2
v 2 3 -2
v 3 3 -2
v -2 3 -4
v -1 3 -4
v 4 3 -4
v 5 3 -4
v -2 3 -5
v -1 3 -5
v 4 3 -5
v 5 3 -5
v -4 3 -6
v -3 3 -6
v 2 3 -6
v 3 3 -6
v -4 3 -7
v -3 3 -7
v 2 3 -7
v 3 3 -7

# faces
f 3/5/1 2/5/1 1/5/1
f 4/5/1 2/5/1 3/5/1
f 5/5/1 2/5/1 4/5/1
f 6/1/1 4/1/1 3/1/1
f 7/3/1 5/3/1 4/3/1
f 7/1/1 4/1/1 6/1/1
f 8/3/1 5/3/1 7/3/1
f 17/1/1 10/1/1 9/1/1
f 18/1/1 10/1/1 17/1/1
f 19/3/1 12/3/1 11/3/1
f 20/3/1 12/3/1 19/3/1
f 21/1/1 14/1/1 13/1/1
f 22/1/1 14/1/1 21/1/1
f 23/2/1 16/2/1 15/2/1
f 24/2/1 16/2/1 23/2/1
f 31/4/1 26/4/1 25/4/1
f 32/4/1 26/4/1 31/4/1
f 33/2/1 28/2/1 27/2/1
f 34/2/1 28/2/1 33/2/1
f 35/3/1 30/3/1 29/3/1
f 36/3/1 30/3/1 35/3/1
f 39/4/1 38/4/1 37/4/1
f 40/4/1 38/4/1 39/4/1
f 43/1/1 42/1/1 41/1/1
f 44/1/1 42/1/1 43/1/1
f 53/3/1 46/3/1 45/3/1
f 54/3/1 46/3/1 53/3/1
f 55/4/1 48/4/1 47/4/1
f 56/4/1 48/4/1 55/4/1
f 57/3/1 50/3/1 49/3/1
f 58/3/1 50/3/1 57/3/1
f 59/4/1 52/4/1 51/4/1
f 60/4/1 52/4/1 59/4/1
f 63/2/1 62/2/1 61/2/1
f 64/2/1 62/2/1 63/2/1
f 69/2/1 66/2/1 65/2/1
f 70/2/1 66/2/1 69/2/1
f 71/1/1 68/1/1 67/1/1
f 72/1/1 68/1/1 71/1/1
f 73/1/2 74/1/2 81/1/2
f 81/1/2 74/1/2 82/1/2
f 75/3/2 76/3/2 83/3/2
f 83/3/2 76/3/2 84/3/2
f 77/1/2 78/1/2 85/1/2
f 85/1/2 78/1/2 86/1/2
f 79/2/2 80/2/2 87/2/2
f 87/2/2 80/2/2 88/2/2
f 89/4/2 90/4/2 95/4/2
f 95/4/2 90/4/2 96/4/2
f 91/2/2 92/2/2 97/2/2
f 97/2/2 92/2/2 98/2/2
f 93/3/2 94/3/2 99/3/2
f 99/3/2 94/3/2 100/3/2
f 101/4/2 102/4/2 103/4/2
f 103/4/2 102/4/2 104/4/2
f 105/1/2 106/1/2 107/1/2
f 107/1/2 106/1/2 108/1/2
f 109/3/2 110/3/2 117/3/2
f 117/3/2 110/3/2 118/3/2
f 111/4/2 112/4/2 119/4/2
f 119/4/2 112/4/2 120/4/2
f 113/3/2 114/3/2 121/3/2
f 121/3/2 114/3/2 122/3/2
f 115/4/2 116/4/2 123/4/2
f 123/4/2 116/4/2 124/4/2
f 125/2/2 126/2/2 127/2/2
f 127/2/2 126/2/2 128/2/2
f 129/5/2 130/5/2 131/5/2
f 131/5/2 130/5/2 132/5/2
f 132/5/2 130/5/2 133/5/2
f 131/2/2 132/2/2 134/2/2
f 134/2/2 132/2/2 135/2/2
f 135/2/2 132/2/2 136/2/2
f 132/4/2 133/4/2 137/4/2
f 136/2/2 132/2/2 137/2/2
f 137/4/2 133/4/2 138/4/2
f 138/4/2 133/4/2 139/4/2
f 139/4/2 133/4/2 140/4/2
f 135/2/2 136/2/2 141/2/2
f 141/2/2 136/2/2 142/2/2
f 138/1/2 139/1/2 143/1/2
f 143/1/2 139/1/2 144/1/2
f 148/5/3 146/5/3 145/5/3
f 148/1/3 147/1/3 146/1/3
f 149/1/3 147/1/3 148/1/3
f 150/5/3 148/5/3 145/5/3
f 151/2/3 149/2/3 148/2/3
f 151/5/3 148/5/3 150/5/3
f 152/2/3 149/2/3 151/2/3
f 155/4/3 154/4/3 153/4/3
f 156/4/3 154/4/3 155/4/3
f 159/3/3 158/3/3 157/3/3
f 160/3/3 158/3/3 159/3/3
f 163/1/3 162/1/3 161/1/3
f 164/1/3 162/1/3 163/1/3
f 167/2/3 166/2/3 165/2/3
f 168/2/3 166/2/3 167/2/3
f 171/3/3 170/3/3 169/3/3
f 172/3/3 170/3/3 171/3/3
f 175/4/3 174/4/3 173/4/3
f 176/4/3 174/4/3 175/4/3
f 179/1/3 178/1/3 177/1/3
f 180/1/3 178/1/3 179/1/3
f 183/2/3 182/2/3 181/2/3
f 184/2/3 182/2/3 183/2/3
f 187/2/3 186/2/3 185/2/3
f 188/2/3 186/2/3 187/2/3
f 191/1/3 190/1/3 189/1/3
f 192/1/3 190/1/3 191/1/3
f 195/4/3 194/4/3 193/4/3
f 196/4/3 194/4/3 195/4/3
f 199/3/3 198/3/3 197/3/3
f 200/3/3 198/3/3 199/3/3
f 203/3/3 202/3/3 201/3/3
f 204/3/3 202/3/3 203/3/3
f 207/1/3 206/1/3 205/1/3
f 208/1/3 206/1/3 207/1/3
f 211/2/3 210/2/3 209/2/3
f 212/2/3 210/2/3 211/2/3
f 215/4/3 214/4/3 213/4/3
f 216/4/3 214/4/3 215/4/3
f 217/4/4 218/4/4 219/4/4
f 219/4/4 218/4/4 220/4/4
f 221/3/4 222/3/4 223/3/4
f 223/3/4 222/3/4 224/3/4
f 225/1/4 226/1/4 227/1/4
f 227/1/4 226/1/4 228/1/4
f 229/2/4 230/2/4 231/2/4
f 231/2/4 230/2/4 232/2/4
f 233/3/4 234/3/4 235/3/4
f 235/3/4 234/3/4 236/3/4
f 237/4/4 238/4/4 239/4/4
f 239/4/4 238/4/4 240/4/4
f 241/1/4 242/1/4 243/1/4
f 243/1/4 242/1/4 244/1/4
f 245/2/4 246/2/4 247/2/4
f 247/2/4 246/2/4 248/2/4
f 249/2/4 250/2/4 251/2/4
f 251/2/4 250/2/4 252/2/4
f 253/1/4 254/1/4 255/1/4
f 255/1/4 254/1/4 256/1/4
f 257/4/4 258/4/4 259/4/4
f 259/4/4 258/4/4 260/4/4
f 261/3/4 262/3/4 263/3/4
f 263/3/4 262/3/4 264/3/4
f 265/3/4 266/3/4 267/3/4
f 267/3/4 266/3/4 268/3/4
f 269/1/4 270/1/4 271/1/4
f 271/1/4 270/1/4 272/1/4
f 273/2/4 274/2/4 275/2/4
f 275/2/4 274/2/4 276/2/4
f 277/4/4 278/4/4 279/4/4
f 279/4/4 278/4/4 280/4/4
f 281/5/4 282/5/4 284/5/4
f 282/3/4 283/3/4 284/3/4
f 284/3/4 283/3/4 285/3/4
f 281/5/4 284/5/4 286/5/4
f 284/4/4 285/4/4 287/4/4
f 286/5/4 284/5/4 287/5/4
f 287/4/4 285/4/4 288/4/4
f 291/5/5 290/5/5 289/5/5
f 292/5/5 290/5/5 291/5/5
f 293/1/6 294/1/6 296/1/6
f 296/1/6 294/1/6 297/1/6
f 294/2/6 295/2/6 298/2/6
f 298/2/6 295/2/6 299/2/6
f 293/1/6 296/1/6 300/1/6
f 300/1/6 296/1/6 301/1/6
f 301/1/6 296/1/6 302/1/6
f 297/1/6 294/1/6 303/1/6
f 294/2/6 298/2/6 304/2/6
f 299/2/6 295/2/6 305/2/6
f 293/1/6 300/1/6 306/1/6
f 301/1/6 302/1/6 307/1/6
f 302/1/6 303/1/6 307/1/6
f 304/2/6 305/2/6 308/2/6
f 305/2/6 295/2/6 308/2/6
f 308/2/6 295/2/6 309/2/6
f 293/1/6 306/1/6 310/1/6
f 306/1/6 307/1/6 310/1/6
f 307/1/6 303/1/6 311/1/6
f 310/1/6 307/1/6 311/1/6
f 294/2/6 304/2/6 312/2/6
f 304/2/6 308/2/6 312/2/6
f 312/2/6 308/2/6 313/2/6
f 313/2/6 308/2/6 314/2/6
f 293/1/6 310/1/6 316/1/6
f 311/1/6 303/1/6 317/1/6
f 303/1/6 294/1/6 318/1/6
f 294/2/6 312/2/6 318/2/6
f 317/1/6 303/1/6 318/1/6
f 318/2/6 312/2/6 319/2/6
f 314/2/6 315/2/6 320/2/6
f 313/2/6 314/2/6 320/2/6
f 317/1/6 318/1/6 321/1/6
f 316/1/6 317/1/6 321/1/6
f 321/1/6 318/1/6 322/1/6
f 322/1/6 318/1/6 323/1/6
f 319/2/6 320/2/6 324/2/6
f 320/2/6 315/2/6 325/2/6
f 324/2/6 320/2/6 325/2/6
f 316/1/6 321/1/6 326/1/6
f 322/1/6 323/1/6 327/1/6
f 323/4/6 324/4/6 328/4/6
f 324/4/6 325/4/6 328/4/6
f 328/4/6 325/4/6 329/4/6
f 293/1/6 316/1/6 330/1/6
f 316/1/6 326/1/6 330/1/6
f 326/1/6 327/1/6 330/1/6
f 323/4/6 328/4/6 331/4/6
f 330/1/6 327/1/6 331/1/6
f 327/1/6 323/1/6 331/1/6
f 331/4/6 328/4/6 332/4/6
f 329/4/6 325/4/6 333/4/6
f 330/3/6 331/3/6 334/3/6
f 334/3/6 331/3/6 335/3/6
f 335/3/6 331/3/6 336/3/6
f 336/3/6 331/3/6 337/3/6
f 331/4/6 332/4/6 338/4/6
f 332/4/6 333/4/6 338/4/6
f 338/4/6 333/4/6 339/4/6
f 330/3/6 334/3/6 340/3/6
f 335/3/6 336/3/6 341/3/6
f 341/3/6 336/3/6 342/3/6
f 337/3/6 331/3/6 343/3/6
f 331/4/6 338/4/6 344/4/6
f 339/4/6 333/4/6 345/4/6
f 341/3/6 342/3/6 346/3/6
f 342/3/6 343/3/6 346/3/6
f 340/3/6 341/3/6 346/3/6
f 346/3/6 343/3/6 347/3/6
f 344/4/6 345/4/6 348/4/6
f 333/4/6 325/4/6 348/4/6
f 345/4/6 333/4/6 348/4/6
f 348/4/6 325/4/6 349/4/6
f 340/3/6 346/3/6 350/3/6
f 347/3/6 343/3/6 351/3/6
f 344/4/6 348/4/6 352/4/6
f 340/3/6 350/3/6 354/3/6
f 350/3/6 351/3/6 354/3/6
f 330/3/6 340/3/6 354/3/6
f 354/3/6 351/3/6 355/3/6
f 352/4/6 353/4/6 356/4/6
f 331/4/6 344/4/6 356/4/6
f 344/4/6 352/4/6 356/4/6
f 356/4/6 353/4/6 357/4/6
f 330/3/6 354/3/6 358/3/6
f 355/3/6 351/3/6 359/3/6
f 331/4/6 356/4/6 360/4/6
f 357/4/6 353/4/6 361/4/6
f 330/3/6 358/3/6 362/3/6
f 358/3/6 359/3/6 362/3/6
f 360/4/6 361/4/6 363/4/6
f 362/3/6 359/3/6 363/3/6
f 331/4/6 360/4/6 363/4/6
f 351/3/6 343/3/6 363/3/6
f 359/3/6 351/3/6 363/3/6
f 343/3/6 331/3/6 363/3/6
f 361/4/6 353/4/6 364/4/6
f 363/4/6 361/4/6 364/4/6
f 365/4/6 366/4/6 371/4/6
f 371/4/6 366/4/6 372/4/6
f 367/3/6 368/3/6 373/3/6
f 373/3/6 368/3/6 374/3/6
f 369/1/6 370/1/6 375/1/6
f 375/1/6 370/1/6 376/1/6
f 377/2/6 378/2/6 383/2/6
f 383/2/6 378/2/6 384/2/6
f 379/3/6 380/3/6 385/3/6
f 385/3/6 380/3/6 386/3/6
f 381/4/6 382/4/6 388/4/6
f 388/4/6 382/4/6 389/4/6
f 387/1/6 388/1/6 392/1/6
f 392/1/6 388/1/6 393/1/6
f 390/2/6 391/2/6 394/2/6
f 394/2/6 391/2/6 395/2/6
f 396/2/6 397/2/6 398/2/6
f 398/2/6 397/2/6 399/2/6
f 400/1/6 401/1/6 406/1/6
f 406/1/6 401/1/6 407/1/6
f 402/4/6 403/4/6 408/4/6
f 408/4/6 403/4/6 409/4/6
f 404/3/6 405/3/6 410/3/6
f 410/3/6 405/3/6 411/3/6
f 412/3/6 413/3/6 416/3/6
f 416/3/6 413/3/6 417/3/6
f 414/1/6 415/1/6 418/1/6
f 418/1/6 415/1/6 419/1/6
f 420/2/6 421/2/6 424/2/6
f 424/2/6 421/2/6 425/2/6
f 422/4/6 423/4/6 426/4/6
f 426/4/6 423/4/6 427/4/6
