# MagicaVoxel @ Ephtracy

# material
mtllib Garden03A.mtl
usemtl palette

# normals
vn -1 0 0
vn 1 0 0
vn 0 0 1
vn 0 0 -1
vn 0 -1 0
vn 0 1 0

# texcoords
vt 0.845703 0.5
vt 0.849609 0.5
vt 0.853516 0.5
vt 0.990234 0.5

# verts
v -5 0 8
v -5 0 -8
v -5 1 8
v -5 1 3
v -5 1 -8
v -5 2 8
v -5 2 3
v -5 2 -3
v -5 2 -4
v -5 2 -8
v -5 3 -3
v -5 3 -4
v -3 2 7
v -3 2 6
v -3 2 4
v -3 2 3
v -3 2 -0
v -3 2 -1
v -3 3 7
v -3 3 6
v -3 3 4
v -3 3 3
v -3 3 -0
v -3 3 -1
v -2 2 -6
v -2 2 -7
v -2 3 -6
v -2 3 -7
v -1 2 5
v -1 2 4
v -1 3 5
v -1 3 4
v 2 2 4
v 2 2 3
v 2 2 -3
v 2 2 -4
v 2 3 4
v 2 3 3
v 2 3 -3
v 2 3 -4
v 4 2 1
v 4 2 -0
v 4 3 1
v 4 3 -0
v -4 2 -3
v -4 2 -4
v -4 3 -3
v -4 3 -4
v -2 2 7
v -2 2 6
v -2 2 4
v -2 2 3
v -2 2 -0
v -2 2 -1
v -2 3 7
v -2 3 6
v -2 3 4
v -2 3 3
v -2 3 -0
v -2 3 -1
v -1 2 -6
v -1 2 -7
v -1 3 -6
v -1 3 -7
v 0 2 5
v 0 2 4
v 0 3 5
v 0 3 4
v 3 2 4
v 3 2 3
v 3 2 -3
v 3 2 -4
v 3 3 4
v 3 3 3
v 3 3 -3
v 3 3 -4
v 5 0 8
v 5 0 -8
v 5 1 8
v 5 1 -8
v 5 2 8
v 5 2 1
v 5 2 -0
v 5 2 -8
v 5 3 1
v 5 3 -0
v -5 0 8
v -5 1 8
v -5 2 8
v 0 1 8
v 0 2 8
v 5 0 8
v 5 1 8
v 5 2 8
v -3 2 7
v -3 3 7
v -2 2 7
v -2 3 7
v -1 2 5
v -1 3 5
v 0 2 5
v 0 3 5
v -3 2 4
v -3 3 4
v -2 2 4
v -2 3 4
v 2 2 4
v 2 3 4
v 3 2 4
v 3 3 4
v 4 2 1
v 4 3 1
v 5 2 1
v 5 3 1
v -3 2 -0
v -3 3 -0
v -2 2 -0
v -2 3 -0
v -5 2 -3
v -5 3 -3
v -4 2 -3
v -4 3 -3
v 2 2 -3
v 2 3 -3
v 3 2 -3
v 3 3 -3
v -2 2 -6
v -2 3 -6
v -1 2 -6
v -1 3 -6
v -3 2 6
v -3 3 6
v -2 2 6
v -2 3 6
v -1 2 4
v -1 3 4
v 0 2 4
v 0 3 4
v -3 2 3
v -3 3 3
v -2 2 3
v -2 3 3
v 2 2 3
v 2 3 3
v 3 2 3
v 3 3 3
v 4 2 -0
v 4 3 -0
v 5 2 -0
v 5 3 -0
v -3 2 -1
v -3 3 -1
v -2 2 -1
v -2 3 -1
v -5 2 -4
v -5 3 -4
v -4 2 -4
v -4 3 -4
v 2 2 -4
v 2 3 -4
v 3 2 -4
v 3 3 -4
v -2 2 -7
v -2 3 -7
v -1 2 -7
v -1 3 -7
v -5 0 -8
v -5 1 -8
v -5 2 -8
v 0 1 -8
v 0 2 -8
v 5 0 -8
v 5 1 -8
v 5 2 -8
v -5 0 8
v 5 0 8
v -5 0 -8
v 5 0 -8
v -5 2 8
v 0 2 8
v 5 2 8
v -3 2 7
v -2 2 7
v -3 2 6
v -2 2 6
v -1 2 5
v 0 2 5
v -3 2 4
v -2 2 4
v -1 2 4
v 0 2 4
v 2 2 4
v 3 2 4
v -5 2 3
v -3 2 3
v -2 2 3
v 0 2 3
v 2 2 3
v 3 2 3
v 4 2 1
v 5 2 1
v -3 2 -0
v -2 2 -0
v 4 2 -0
v 5 2 -0
v -3 2 -1
v -2 2 -1
v -5 2 -3
v -4 2 -3
v 2 2 -3
v 3 2 -3
v -5 2 -4
v -4 2 -4
v 2 2 -4
v 3 2 -4
v -2 2 -6
v -1 2 -6
v -2 2 -7
v -1 2 -7
v -5 2 -8
v 0 2 -8
v 5 2 -8
v -3 3 7
v -2 3 7
v -3 3 6
v -2 3 6
v -1 3 5
v 0 3 5
v -3 3 4
v -2 3 4
v -1 3 4
v 0 3 4
v 2 3 4
v 3 3 4
v -3 3 3
v -2 3 3
v 2 3 3
v 3 3 3
v 4 3 1
v 5 3 1
v -3 3 -0
v -2 3 -0
v 4 3 -0
v 5 3 -0
v -3 3 -1
v -2 3 -1
v -5 3 -3
v -4 3 -3
v 2 3 -3
v 3 3 -3
v -5 3 -4
v -4 3 -4
v 2 3 -4
v 3 3 -4
v -2 3 -6
v -1 3 -6
v -2 3 -7
v -1 3 -7

# faces
f 3/4/1 2/4/1 1/4/1
f 4/4/1 2/4/1 3/4/1
f 5/4/1 2/4/1 4/4/1
f 6/3/1 4/3/1 3/3/1
f 7/2/1 5/2/1 4/2/1
f 7/3/1 4/3/1 6/3/1
f 8/2/1 5/2/1 7/2/1
f 9/2/1 5/2/1 8/2/1
f 10/2/1 5/2/1 9/2/1
f 11/3/1 9/3/1 8/3/1
f 12/3/1 9/3/1 11/3/1
f 19/2/1 14/2/1 13/2/1
f 20/2/1 14/2/1 19/2/1
f 21/3/1 16/3/1 15/3/1
f 22/3/1 16/3/1 21/3/1
f 23/2/1 18/2/1 17/2/1
f 24/2/1 18/2/1 23/2/1
f 27/1/1 26/1/1 25/1/1
f 28/1/1 26/1/1 27/1/1
f 31/1/1 30/1/1 29/1/1
f 32/1/1 30/1/1 31/1/1
f 37/2/1 34/2/1 33/2/1
f 38/2/1 34/2/1 37/2/1
f 39/1/1 36/1/1 35/1/1
f 40/1/1 36/1/1 39/1/1
f 43/3/1 42/3/1 41/3/1
f 44/3/1 42/3/1 43/3/1
f 45/3/2 46/3/2 47/3/2
f 47/3/2 46/3/2 48/3/2
f 49/2/2 50/2/2 55/2/2
f 55/2/2 50/2/2 56/2/2
f 51/3/2 52/3/2 57/3/2
f 57/3/2 52/3/2 58/3/2
f 53/2/2 54/2/2 59/2/2
f 59/2/2 54/2/2 60/2/2
f 61/1/2 62/1/2 63/1/2
f 63/1/2 62/1/2 64/1/2
f 65/1/2 66/1/2 67/1/2
f 67/1/2 66/1/2 68/1/2
f 69/2/2 70/2/2 73/2/2
f 73/2/2 70/2/2 74/2/2
f 71/1/2 72/1/2 75/1/2
f 75/1/2 72/1/2 76/1/2
f 77/4/2 78/4/2 79/4/2
f 79/4/2 78/4/2 80/4/2
f 79/1/2 80/1/2 81/1/2
f 81/1/2 80/1/2 82/1/2
f 82/1/2 80/1/2 83/1/2
f 83/1/2 80/1/2 84/1/2
f 82/3/2 83/3/2 85/3/2
f 85/3/2 83/3/2 86/3/2
f 90/4/3 88/4/3 87/4/3
f 90/3/3 89/3/3 88/3/3
f 91/3/3 89/3/3 90/3/3
f 92/4/3 90/4/3 87/4/3
f 93/1/3 91/1/3 90/1/3
f 93/4/3 90/4/3 92/4/3
f 94/1/3 91/1/3 93/1/3
f 97/2/3 96/2/3 95/2/3
f 98/2/3 96/2/3 97/2/3
f 101/1/3 100/1/3 99/1/3
f 102/1/3 100/1/3 101/1/3
f 105/3/3 104/3/3 103/3/3
f 106/3/3 104/3/3 105/3/3
f 109/2/3 108/2/3 107/2/3
f 110/2/3 108/2/3 109/2/3
f 113/3/3 112/3/3 111/3/3
f 114/3/3 112/3/3 113/3/3
f 117/2/3 116/2/3 115/2/3
f 118/2/3 116/2/3 117/2/3
f 121/3/3 120/3/3 119/3/3
f 122/3/3 120/3/3 121/3/3
f 125/1/3 124/1/3 123/1/3
f 126/1/3 124/1/3 125/1/3
f 129/1/3 128/1/3 127/1/3
f 130/1/3 128/1/3 129/1/3
f 131/2/4 132/2/4 133/2/4
f 133/2/4 132/2/4 134/2/4
f 135/1/4 136/1/4 137/1/4
f 137/1/4 136/1/4 138/1/4
f 139/3/4 140/3/4 141/3/4
f 141/3/4 140/3/4 142/3/4
f 143/2/4 144/2/4 145/2/4
f 145/2/4 144/2/4 146/2/4
f 147/3/4 148/3/4 149/3/4
f 149/3/4 148/3/4 150/3/4
f 151/2/4 152/2/4 153/2/4
f 153/2/4 152/2/4 154/2/4
f 155/3/4 156/3/4 157/3/4
f 157/3/4 156/3/4 158/3/4
f 159/1/4 160/1/4 161/1/4
f 161/1/4 160/1/4 162/1/4
f 163/1/4 164/1/4 165/1/4
f 165/1/4 164/1/4 166/1/4
f 167/4/4 168/4/4 170/4/4
f 168/2/4 169/2/4 170/2/4
f 170/2/4 169/2/4 171/2/4
f 167/4/4 170/4/4 172/4/4
f 170/1/4 171/1/4 173/1/4
f 172/4/4 170/4/4 173/4/4
f 173/1/4 171/1/4 174/1/4
f 177/4/5 176/4/5 175/4/5
f 178/4/5 176/4/5 177/4/5
f 179/3/6 180/3/6 182/3/6
f 182/3/6 180/3/6 183/3/6
f 179/3/6 182/3/6 184/3/6
f 183/3/6 180/3/6 185/3/6
f 185/3/6 180/3/6 186/3/6
f 184/3/6 185/3/6 186/3/6
f 180/1/6 181/1/6 187/1/6
f 186/3/6 180/3/6 187/3/6
f 184/3/6 186/3/6 188/3/6
f 179/3/6 184/3/6 188/3/6
f 188/3/6 186/3/6 189/3/6
f 189/3/6 186/3/6 190/3/6
f 187/1/6 181/1/6 191/1/6
f 191/1/6 181/1/6 192/1/6
f 192/1/6 181/1/6 193/1/6
f 179/3/6 188/3/6 194/3/6
f 194/3/6 188/3/6 195/3/6
f 189/3/6 190/3/6 196/3/6
f 190/3/6 191/3/6 196/3/6
f 191/1/6 192/1/6 197/1/6
f 196/3/6 191/3/6 197/3/6
f 197/1/6 192/1/6 198/1/6
f 193/1/6 181/1/6 199/1/6
f 197/1/6 198/1/6 200/1/6
f 198/1/6 199/1/6 200/1/6
f 199/1/6 181/1/6 200/1/6
f 200/1/6 181/1/6 201/1/6
f 194/2/6 195/2/6 202/2/6
f 195/2/6 196/2/6 202/2/6
f 196/2/6 197/2/6 202/2/6
f 202/2/6 197/2/6 203/2/6
f 197/1/6 200/1/6 204/1/6
f 194/2/6 202/2/6 206/2/6
f 203/2/6 197/2/6 207/2/6
f 194/2/6 206/2/6 208/2/6
f 206/2/6 207/2/6 208/2/6
f 208/2/6 207/2/6 209/2/6
f 204/1/6 205/1/6 210/1/6
f 197/1/6 204/1/6 210/1/6
f 210/1/6 205/1/6 211/1/6
f 209/2/6 207/2/6 213/2/6
f 197/1/6 210/1/6 214/1/6
f 211/1/6 205/1/6 215/1/6
f 207/2/6 197/2/6 216/2/6
f 212/2/6 213/2/6 216/2/6
f 213/2/6 207/2/6 216/2/6
f 216/2/6 197/2/6 217/2/6
f 212/2/6 216/2/6 218/2/6
f 217/2/6 197/2/6 219/2/6
f 212/2/6 218/2/6 220/2/6
f 218/2/6 219/2/6 220/2/6
f 214/1/6 215/1/6 221/1/6
f 220/2/6 219/2/6 221/2/6
f 197/1/6 214/1/6 221/1/6
f 219/2/6 197/2/6 221/2/6
f 215/1/6 205/1/6 222/1/6
f 221/1/6 215/1/6 222/1/6
f 223/2/6 224/2/6 225/2/6
f 225/2/6 224/2/6 226/2/6
f 227/1/6 228/1/6 231/1/6
f 231/1/6 228/1/6 232/1/6
f 229/3/6 230/3/6 235/3/6
f 235/3/6 230/3/6 236/3/6
f 233/2/6 234/2/6 237/2/6
f 237/2/6 234/2/6 238/2/6
f 239/3/6 240/3/6 243/3/6
f 243/3/6 240/3/6 244/3/6
f 241/2/6 242/2/6 245/2/6
f 245/2/6 242/2/6 246/2/6
f 247/3/6 248/3/6 251/3/6
f 251/3/6 248/3/6 252/3/6
f 249/1/6 250/1/6 253/1/6
f 253/1/6 250/1/6 254/1/6
f 255/1/6 256/1/6 257/1/6
f 257/1/6 256/1/6 258/1/6
