# MagicaVoxel @ Ephtracy

# material
mtllib Garden01.mtl
usemtl palette

# normals
vn -1 0 0
vn 1 0 0
vn 0 0 1
vn 0 0 -1
vn 0 -1 0
vn 0 1 0

# texcoords
vt 0.759766 0.5
vt 0.763672 0.5
vt 0.767578 0.5
vt 0.939453 0.5
vt 0.947266 0.5
vt 0.951172 0.5
vt 0.990234 0.5

# verts
v -5 0 8
v -5 0 -8
v -5 1 8
v -5 1 -2
v -5 1 -8
v -5 2 8
v -5 2 7
v -5 2 -2
v -5 2 -7
v -5 2 -8
v -5 3 8
v -5 3 7
v -5 3 -7
v -5 3 -8
v -4 2 4
v -4 2 3
v -4 2 -2
v -4 2 -3
v -4 3 4
v -4 3 3
v -4 3 -2
v -4 3 -3
v -3 2 3
v -3 2 2
v -3 3 3
v -3 3 2
v -2 2 7
v -2 2 6
v -2 2 -5
v -2 2 -6
v -2 3 7
v -2 3 6
v -2 3 -5
v -2 3 -6
v -1 2 8
v -1 2 7
v -1 2 2
v -1 2 1
v -1 2 -0
v -1 2 -1
v -1 3 8
v -1 3 7
v -1 3 2
v -1 3 1
v -1 3 -0
v -1 3 -1
v 0 2 -7
v 0 2 -8
v 0 3 -7
v 0 3 -8
v 1 2 4
v 1 2 3
v 1 2 -1
v 1 2 -2
v 1 3 4
v 1 3 3
v 1 3 -1
v 1 3 -2
v 2 2 7
v 2 2 6
v 2 2 -3
v 2 2 -4
v 2 3 7
v 2 3 6
v 2 3 -3
v 2 3 -4
v 3 2 1
v 3 2 -0
v 3 2 -6
v 3 2 -7
v 3 3 1
v 3 3 -0
v 3 3 -6
v 3 3 -7
v 4 2 8
v 4 2 7
v 4 2 5
v 4 2 4
v 4 2 3
v 4 2 2
v 4 2 -2
v 4 2 -3
v 4 3 8
v 4 3 7
v 4 3 5
v 4 3 4
v 4 3 3
v 4 3 2
v 4 3 -2
v 4 3 -3
v -4 2 8
v -4 2 7
v -4 2 -7
v -4 2 -8
v -4 3 8
v -4 3 7
v -4 3 -7
v -4 3 -8
v -3 2 4
v -3 2 3
v -3 2 -2
v -3 2 -3
v -3 3 4
v -3 3 3
v -3 3 -2
v -3 3 -3
v -2 2 3
v -2 2 2
v -2 3 3
v -2 3 2
v -1 2 7
v -1 2 6
v -1 2 -5
v -1 2 -6
v -1 3 7
v -1 3 6
v -1 3 -5
v -1 3 -6
v 0 2 8
v 0 2 7
v 0 2 2
v 0 2 1
v 0 2 -0
v 0 2 -1
v 0 3 8
v 0 3 7
v 0 3 2
v 0 3 1
v 0 3 -0
v 0 3 -1
v 1 2 -7
v 1 2 -8
v 1 3 -7
v 1 3 -8
v 2 2 4
v 2 2 3
v 2 2 -1
v 2 2 -2
v 2 3 4
v 2 3 3
v 2 3 -1
v 2 3 -2
v 3 2 7
v 3 2 6
v 3 2 -3
v 3 2 -4
v 3 3 7
v 3 3 6
v 3 3 -3
v 3 3 -4
v 4 2 1
v 4 2 -0
v 4 2 -6
v 4 2 -7
v 4 3 1
v 4 3 -0
v 4 3 -6
v 4 3 -7
v 5 0 8
v 5 0 -8
v 5 1 8
v 5 1 -8
v 5 2 8
v 5 2 7
v 5 2 5
v 5 2 4
v 5 2 3
v 5 2 2
v 5 2 -2
v 5 2 -3
v 5 2 -8
v 5 3 8
v 5 3 7
v 5 3 5
v 5 3 4
v 5 3 3
v 5 3 2
v 5 3 -2
v 5 3 -3
v -5 0 8
v -5 1 8
v -5 2 8
v -5 3 8
v -4 2 8
v -4 3 8
v -1 2 8
v -1 3 8
v 0 2 8
v 0 3 8
v 1 1 8
v 1 2 8
v 4 2 8
v 4 3 8
v 5 0 8
v 5 1 8
v 5 2 8
v 5 3 8
v -2 2 7
v -2 3 7
v -1 2 7
v -1 3 7
v 2 2 7
v 2 3 7
v 3 2 7
v 3 3 7
v 4 2 5
v 4 3 5
v 5 2 5
v 5 3 5
v -4 2 4
v -4 3 4
v -3 2 4
v -3 3 4
v 1 2 4
v 1 3 4
v 2 2 4
v 2 3 4
v -3 2 3
v -3 3 3
v -2 2 3
v -2 3 3
v 4 2 3
v 4 3 3
v 5 2 3
v 5 3 3
v -1 2 2
v -1 3 2
v 0 2 2
v 0 3 2
v 3 2 1
v 3 3 1
v 4 2 1
v 4 3 1
v -1 2 -0
v -1 3 -0
v 0 2 -0
v 0 3 -0
v 1 2 -1
v 1 3 -1
v 2 2 -1
v 2 3 -1
v -4 2 -2
v -4 3 -2
v -3 2 -2
v -3 3 -2
v 4 2 -2
v 4 3 -2
v 5 2 -2
v 5 3 -2
v 2 2 -3
v 2 3 -3
v 3 2 -3
v 3 3 -3
v -2 2 -5
v -2 3 -5
v -1 2 -5
v -1 3 -5
v 3 2 -6
v 3 3 -6
v 4 2 -6
v 4 3 -6
v -5 2 -7
v -5 3 -7
v -4 2 -7
v -4 3 -7
v 0 2 -7
v 0 3 -7
v 1 2 -7
v 1 3 -7
v -5 2 7
v -5 3 7
v -4 2 7
v -4 3 7
v -1 2 7
v -1 3 7
v 0 2 7
v 0 3 7
v 4 2 7
v 4 3 7
v 5 2 7
v 5 3 7
v -2 2 6
v -2 3 6
v -1 2 6
v -1 3 6
v 2 2 6
v 2 3 6
v 3 2 6
v 3 3 6
v 4 2 4
v 4 3 4
v 5 2 4
v 5 3 4
v -4 2 3
v -4 3 3
v -3 2 3
v -3 3 3
v 1 2 3
v 1 3 3
v 2 2 3
v 2 3 3
v -3 2 2
v -3 3 2
v -2 2 2
v -2 3 2
v 4 2 2
v 4 3 2
v 5 2 2
v 5 3 2
v -1 2 1
v -1 3 1
v 0 2 1
v 0 3 1
v 3 2 -0
v 3 3 -0
v 4 2 -0
v 4 3 -0
v -1 2 -1
v -1 3 -1
v 0 2 -1
v 0 3 -1
v 1 2 -2
v 1 3 -2
v 2 2 -2
v 2 3 -2
v -4 2 -3
v -4 3 -3
v -3 2 -3
v -3 3 -3
v 4 2 -3
v 4 3 -3
v 5 2 -3
v 5 3 -3
v 2 2 -4
v 2 3 -4
v 3 2 -4
v 3 3 -4
v -2 2 -6
v -2 3 -6
v -1 2 -6
v -1 3 -6
v 3 2 -7
v 3 3 -7
v 4 2 -7
v 4 3 -7
v -5 0 -8
v -5 1 -8
v -5 2 -8
v -5 3 -8
v -4 2 -8
v -4 3 -8
v 0 2 -8
v 0 3 -8
v 1 1 -8
v 1 2 -8
v 1 3 -8
v 5 0 -8
v 5 1 -8
v 5 2 -8
v -5 0 8
v 5 0 8
v -5 0 -8
v 5 0 -8
v -4 2 8
v -1 2 8
v 0 2 8
v 1 2 8
v 4 2 8
v -5 2 7
v -4 2 7
v -2 2 7
v -1 2 7
v 0 2 7
v 2 2 7
v 3 2 7
v 4 2 7
v 5 2 7
v -2 2 6
v -1 2 6
v 2 2 6
v 3 2 6
v 4 2 5
v 5 2 5
v -4 2 4
v -3 2 4
v 1 2 4
v 2 2 4
v 4 2 4
v 5 2 4
v -4 2 3
v -3 2 3
v -2 2 3
v 1 2 3
v 2 2 3
v 4 2 3
v 5 2 3
v -3 2 2
v -2 2 2
v -1 2 2
v 0 2 2
v 4 2 2
v 5 2 2
v -1 2 1
v 0 2 1
v 3 2 1
v 4 2 1
v -1 2 -0
v 0 2 -0
v 3 2 -0
v 4 2 -0
v -1 2 -1
v 0 2 -1
v 1 2 -1
v 2 2 -1
v -5 2 -2
v -4 2 -2
v -3 2 -2
v 1 2 -2
v 2 2 -2
v 4 2 -2
v 5 2 -2
v -4 2 -3
v -3 2 -3
v 2 2 -3
v 3 2 -3
v 4 2 -3
v 5 2 -3
v 2 2 -4
v 3 2 -4
v -2 2 -5
v -1 2 -5
v -2 2 -6
v -1 2 -6
v 3 2 -6
v 4 2 -6
v -5 2 -7
v -4 2 -7
v 0 2 -7
v 1 2 -7
v 3 2 -7
v 4 2 -7
v -4 2 -8
v 0 2 -8
v 1 2 -8
v 5 2 -8
v -5 3 8
v -4 3 8
v -1 3 8
v 0 3 8
v 4 3 8
v 5 3 8
v -5 3 7
v -4 3 7
v -2 3 7
v -1 3 7
v 0 3 7
v 2 3 7
v 3 3 7
v 4 3 7
v 5 3 7
v -2 3 6
v -1 3 6
v 2 3 6
v 3 3 6
v 4 3 5
v 5 3 5
v -4 3 4
v -3 3 4
v 1 3 4
v 2 3 4
v 4 3 4
v 5 3 4
v -4 3 3
v -3 3 3
v -2 3 3
v 1 3 3
v 2 3 3
v 4 3 3
v 5 3 3
v -3 3 2
v -2 3 2
v -1 3 2
v 0 3 2
v 4 3 2
v 5 3 2
v -1 3 1
v 0 3 1
v 3 3 1
v 4 3 1
v -1 3 -0
v 0 3 -0
v 3 3 -0
v 4 3 -0
v -1 3 -1
v 0 3 -1
v 1 3 -1
v 2 3 -1
v -4 3 -2
v -3 3 -2
v 1 3 -2
v 2 3 -2
v 4 3 -2
v 5 3 -2
v -4 3 -3
v -3 3 -3
v 2 3 -3
v 3 3 -3
v 4 3 -3
v 5 3 -3
v 2 3 -4
v 3 3 -4
v -2 3 -5
v -1 3 -5
v -2 3 -6
v -1 3 -6
v 3 3 -6
v 4 3 -6
v -5 3 -7
v -4 3 -7
v 0 3 -7
v 1 3 -7
v 3 3 -7
v 4 3 -7
v -5 3 -8
v -4 3 -8
v 0 3 -8
v 1 3 -8

# faces
f 3/7/1 2/7/1 1/7/1
f 4/7/1 2/7/1 3/7/1
f 5/7/1 2/7/1 4/7/1
f 6/4/1 4/4/1 3/4/1
f 7/4/1 4/4/1 6/4/1
f 8/6/1 5/6/1 4/6/1
f 8/4/1 4/4/1 7/4/1
f 9/6/1 5/6/1 8/6/1
f 10/6/1 5/6/1 9/6/1
f 11/2/1 7/2/1 6/2/1
f 12/2/1 7/2/1 11/2/1
f 13/1/1 10/1/1 9/1/1
f 14/1/1 10/1/1 13/1/1
f 19/6/1 16/6/1 15/6/1
f 20/6/1 16/6/1 19/6/1
f 21/3/1 18/3/1 17/3/1
f 22/3/1 18/3/1 21/3/1
f 25/1/1 24/1/1 23/1/1
f 26/1/1 24/1/1 25/1/1
f 31/6/1 28/6/1 27/6/1
f 32/6/1 28/6/1 31/6/1
f 33/6/1 30/6/1 29/6/1
f 34/6/1 30/6/1 33/6/1
f 41/1/1 36/1/1 35/1/1
f 42/1/1 36/1/1 41/1/1
f 43/2/1 38/2/1 37/2/1
f 44/2/1 38/2/1 43/2/1
f 45/3/1 40/3/1 39/3/1
f 46/3/1 40/3/1 45/3/1
f 49/2/1 48/2/1 47/2/1
f 50/2/1 48/2/1 49/2/1
f 55/3/1 52/3/1 51/3/1
f 56/3/1 52/3/1 55/3/1
f 57/1/1 54/1/1 53/1/1
f 58/1/1 54/1/1 57/1/1
f 63/6/1 60/6/1 59/6/1
f 64/6/1 60/6/1 63/6/1
f 65/6/1 62/6/1 61/6/1
f 66/6/1 62/6/1 65/6/1
f 71/6/1 68/6/1 67/6/1
f 72/6/1 68/6/1 71/6/1
f 73/3/1 70/3/1 69/3/1
f 74/3/1 70/3/1 73/3/1
f 83/1/1 76/1/1 75/1/1
f 84/1/1 76/1/1 83/1/1
f 85/3/1 78/3/1 77/3/1
f 86/3/1 78/3/1 85/3/1
f 87/2/1 80/2/1 79/2/1
f 88/2/1 80/2/1 87/2/1
f 89/1/1 82/1/1 81/1/1
f 90/1/1 82/1/1 89/1/1
f 91/2/2 92/2/2 95/2/2
f 95/2/2 92/2/2 96/2/2
f 93/1/2 94/1/2 97/1/2
f 97/1/2 94/1/2 98/1/2
f 99/6/2 100/6/2 103/6/2
f 103/6/2 100/6/2 104/6/2
f 101/3/2 102/3/2 105/3/2
f 105/3/2 102/3/2 106/3/2
f 107/1/2 108/1/2 109/1/2
f 109/1/2 108/1/2 110/1/2
f 111/6/2 112/6/2 115/6/2
f 115/6/2 112/6/2 116/6/2
f 113/6/2 114/6/2 117/6/2
f 117/6/2 114/6/2 118/6/2
f 119/1/2 120/1/2 125/1/2
f 125/1/2 120/1/2 126/1/2
f 121/2/2 122/2/2 127/2/2
f 127/2/2 122/2/2 128/2/2
f 123/3/2 124/3/2 129/3/2
f 129/3/2 124/3/2 130/3/2
f 131/2/2 132/2/2 133/2/2
f 133/2/2 132/2/2 134/2/2
f 135/3/2 136/3/2 139/3/2
f 139/3/2 136/3/2 140/3/2
f 137/1/2 138/1/2 141/1/2
f 141/1/2 138/1/2 142/1/2
f 143/6/2 144/6/2 147/6/2
f 147/6/2 144/6/2 148/6/2
f 145/6/2 146/6/2 149/6/2
f 149/6/2 146/6/2 150/6/2
f 151/6/2 152/6/2 155/6/2
f 155/6/2 152/6/2 156/6/2
f 153/3/2 154/3/2 157/3/2
f 157/3/2 154/3/2 158/3/2
f 159/7/2 160/7/2 161/7/2
f 161/7/2 160/7/2 162/7/2
f 161/5/2 162/5/2 163/5/2
f 163/5/2 162/5/2 164/5/2
f 164/5/2 162/5/2 165/5/2
f 165/5/2 162/5/2 166/5/2
f 166/5/2 162/5/2 167/5/2
f 167/5/2 162/5/2 168/5/2
f 168/5/2 162/5/2 169/5/2
f 169/5/2 162/5/2 170/5/2
f 170/5/2 162/5/2 171/5/2
f 163/1/2 164/1/2 172/1/2
f 172/1/2 164/1/2 173/1/2
f 165/3/2 166/3/2 174/3/2
f 174/3/2 166/3/2 175/3/2
f 167/2/2 168/2/2 176/2/2
f 176/2/2 168/2/2 177/2/2
f 169/1/2 170/1/2 178/1/2
f 178/1/2 170/1/2 179/1/2
f 184/4/3 182/4/3 181/4/3
f 184/2/3 183/2/3 182/2/3
f 185/2/3 183/2/3 184/2/3
f 186/4/3 184/4/3 181/4/3
f 188/4/3 186/4/3 181/4/3
f 188/1/3 187/1/3 186/1/3
f 189/1/3 187/1/3 188/1/3
f 190/7/3 181/7/3 180/7/3
f 190/4/3 188/4/3 181/4/3
f 191/4/3 188/4/3 190/4/3
f 192/5/3 191/5/3 190/5/3
f 194/7/3 190/7/3 180/7/3
f 195/5/3 192/5/3 190/5/3
f 195/7/3 190/7/3 194/7/3
f 196/1/3 193/1/3 192/1/3
f 196/5/3 192/5/3 195/5/3
f 197/1/3 193/1/3 196/1/3
f 200/6/3 199/6/3 198/6/3
f 201/6/3 199/6/3 200/6/3
f 204/6/3 203/6/3 202/6/3
f 205/6/3 203/6/3 204/6/3
f 208/3/3 207/3/3 206/3/3
f 209/3/3 207/3/3 208/3/3
f 212/6/3 211/6/3 210/6/3
f 213/6/3 211/6/3 212/6/3
f 216/3/3 215/3/3 214/3/3
f 217/3/3 215/3/3 216/3/3
f 220/1/3 219/1/3 218/1/3
f 221/1/3 219/1/3 220/1/3
f 224/2/3 223/2/3 222/2/3
f 225/2/3 223/2/3 224/2/3
f 228/2/3 227/2/3 226/2/3
f 229/2/3 227/2/3 228/2/3
f 232/6/3 231/6/3 230/6/3
f 233/6/3 231/6/3 232/6/3
f 236/3/3 235/3/3 234/3/3
f 237/3/3 235/3/3 236/3/3
f 240/1/3 239/1/3 238/1/3
f 241/1/3 239/1/3 240/1/3
f 244/3/3 243/3/3 242/3/3
f 245/3/3 243/3/3 244/3/3
f 248/1/3 247/1/3 246/1/3
f 249/1/3 247/1/3 248/1/3
f 252/6/3 251/6/3 250/6/3
f 253/6/3 251/6/3 252/6/3
f 256/6/3 255/6/3 254/6/3
f 257/6/3 255/6/3 256/6/3
f 260/3/3 259/3/3 258/3/3
f 261/3/3 259/3/3 260/3/3
f 264/1/3 263/1/3 262/1/3
f 265/1/3 263/1/3 264/1/3
f 268/2/3 267/2/3 266/2/3
f 269/2/3 267/2/3 268/2/3
f 270/2/4 271/2/4 272/2/4
f 272/2/4 271/2/4 273/2/4
f 274/1/4 275/1/4 276/1/4
f 276/1/4 275/1/4 277/1/4
f 278/1/4 279/1/4 280/1/4
f 280/1/4 279/1/4 281/1/4
f 282/6/4 283/6/4 284/6/4
f 284/6/4 283/6/4 285/6/4
f 286/6/4 287/6/4 288/6/4
f 288/6/4 287/6/4 289/6/4
f 290/3/4 291/3/4 292/3/4
f 292/3/4 291/3/4 293/3/4
f 294/6/4 295/6/4 296/6/4
f 296/6/4 295/6/4 297/6/4
f 298/3/4 299/3/4 300/3/4
f 300/3/4 299/3/4 301/3/4
f 302/1/4 303/1/4 304/1/4
f 304/1/4 303/1/4 305/1/4
f 306/2/4 307/2/4 308/2/4
f 308/2/4 307/2/4 309/2/4
f 310/2/4 311/2/4 312/2/4
f 312/2/4 311/2/4 313/2/4
f 314/6/4 315/6/4 316/6/4
f 316/6/4 315/6/4 317/6/4
f 318/3/4 319/3/4 320/3/4
f 320/3/4 319/3/4 321/3/4
f 322/1/4 323/1/4 324/1/4
f 324/1/4 323/1/4 325/1/4
f 326/3/4 327/3/4 328/3/4
f 328/3/4 327/3/4 329/3/4
f 330/1/4 331/1/4 332/1/4
f 332/1/4 331/1/4 333/1/4
f 334/6/4 335/6/4 336/6/4
f 336/6/4 335/6/4 337/6/4
f 338/6/4 339/6/4 340/6/4
f 340/6/4 339/6/4 341/6/4
f 342/3/4 343/3/4 344/3/4
f 344/3/4 343/3/4 345/3/4
f 347/6/4 348/6/4 350/6/4
f 348/1/4 349/1/4 350/1/4
f 350/1/4 349/1/4 351/1/4
f 347/6/4 350/6/4 352/6/4
f 346/7/4 347/7/4 354/7/4
f 347/6/4 352/6/4 354/6/4
f 352/2/4 353/2/4 355/2/4
f 354/6/4 352/6/4 355/6/4
f 355/2/4 353/2/4 356/2/4
f 346/7/4 354/7/4 357/7/4
f 354/5/4 355/5/4 358/5/4
f 357/7/4 354/7/4 358/7/4
f 358/5/4 355/5/4 359/5/4
f 362/7/5 361/7/5 360/7/5
f 363/7/5 361/7/5 362/7/5
f 364/4/6 365/4/6 370/4/6
f 370/4/6 365/4/6 371/4/6
f 371/4/6 365/4/6 372/4/6
f 366/4/6 367/4/6 373/4/6
f 367/5/6 368/5/6 374/5/6
f 374/5/6 368/5/6 375/5/6
f 375/5/6 368/5/6 376/5/6
f 369/4/6 370/4/6 378/4/6
f 370/4/6 371/4/6 378/4/6
f 372/4/6 373/4/6 379/4/6
f 367/5/6 374/5/6 380/5/6
f 376/5/6 377/5/6 381/5/6
f 375/5/6 376/5/6 381/5/6
f 381/5/6 377/5/6 382/5/6
f 380/5/6 381/5/6 382/5/6
f 382/5/6 377/5/6 383/5/6
f 369/4/6 378/4/6 384/4/6
f 378/4/6 379/4/6 384/4/6
f 384/4/6 379/4/6 385/4/6
f 367/5/6 380/5/6 386/5/6
f 385/4/6 379/4/6 386/4/6
f 379/4/6 373/4/6 386/4/6
f 380/5/6 382/5/6 386/5/6
f 373/4/6 367/4/6 386/4/6
f 386/5/6 382/5/6 387/5/6
f 387/5/6 382/5/6 388/5/6
f 369/4/6 384/4/6 390/4/6
f 385/4/6 386/4/6 391/4/6
f 391/4/6 386/4/6 392/4/6
f 392/4/6 386/4/6 393/4/6
f 388/5/6 389/5/6 394/5/6
f 387/5/6 388/5/6 394/5/6
f 394/5/6 389/5/6 395/5/6
f 395/5/6 389/5/6 396/5/6
f 390/4/6 391/4/6 397/4/6
f 392/4/6 393/4/6 398/4/6
f 398/4/6 393/4/6 399/4/6
f 399/4/6 393/4/6 400/4/6
f 394/5/6 395/5/6 401/5/6
f 393/5/6 394/5/6 401/5/6
f 397/4/6 398/4/6 403/4/6
f 398/4/6 399/4/6 403/4/6
f 400/4/6 393/4/6 404/4/6
f 401/5/6 402/5/6 405/5/6
f 393/5/6 401/5/6 405/5/6
f 405/5/6 402/5/6 406/5/6
f 397/4/6 403/4/6 407/4/6
f 403/4/6 404/4/6 407/4/6
f 404/4/6 393/4/6 408/4/6
f 407/4/6 404/4/6 408/4/6
f 393/5/6 405/5/6 409/5/6
f 406/5/6 402/5/6 410/5/6
f 397/4/6 407/4/6 411/4/6
f 408/4/6 393/4/6 412/4/6
f 393/5/6 409/5/6 413/5/6
f 409/5/6 410/5/6 413/5/6
f 412/4/6 393/4/6 413/4/6
f 413/5/6 410/5/6 414/5/6
f 390/4/6 397/4/6 415/4/6
f 369/4/6 390/4/6 415/4/6
f 412/4/6 413/4/6 415/4/6
f 411/4/6 412/4/6 415/4/6
f 397/4/6 411/4/6 415/4/6
f 415/4/6 413/4/6 416/4/6
f 416/4/6 413/4/6 417/4/6
f 417/4/6 413/4/6 418/4/6
f 414/5/6 410/5/6 419/5/6
f 410/5/6 402/5/6 420/5/6
f 419/5/6 410/5/6 420/5/6
f 420/5/6 402/5/6 421/5/6
f 415/6/6 416/6/6 422/6/6
f 417/6/6 418/6/6 423/6/6
f 418/5/6 419/5/6 424/5/6
f 419/5/6 420/5/6 424/5/6
f 424/5/6 420/5/6 425/5/6
f 425/5/6 420/5/6 426/5/6
f 418/5/6 424/5/6 428/5/6
f 426/5/6 427/5/6 429/5/6
f 425/5/6 426/5/6 429/5/6
f 422/6/6 423/6/6 430/6/6
f 423/6/6 418/6/6 430/6/6
f 430/6/6 418/6/6 431/6/6
f 422/6/6 430/6/6 432/6/6
f 431/6/6 418/6/6 433/6/6
f 428/5/6 429/5/6 434/5/6
f 429/5/6 427/5/6 434/5/6
f 434/5/6 427/5/6 435/5/6
f 415/6/6 422/6/6 436/6/6
f 432/6/6 433/6/6 436/6/6
f 422/6/6 432/6/6 436/6/6
f 436/6/6 433/6/6 437/6/6
f 433/6/6 418/6/6 438/6/6
f 437/6/6 433/6/6 438/6/6
f 428/5/6 434/5/6 439/5/6
f 438/6/6 418/6/6 439/6/6
f 418/5/6 428/5/6 439/5/6
f 439/5/6 434/5/6 440/5/6
f 435/5/6 427/5/6 441/5/6
f 437/6/6 438/6/6 442/6/6
f 442/6/6 438/6/6 443/6/6
f 439/5/6 440/5/6 444/5/6
f 440/5/6 441/5/6 444/5/6
f 441/5/6 427/5/6 445/5/6
f 444/5/6 441/5/6 445/5/6
f 446/2/6 447/2/6 452/2/6
f 452/2/6 447/2/6 453/2/6
f 448/1/6 449/1/6 455/1/6
f 455/1/6 449/1/6 456/1/6
f 450/1/6 451/1/6 459/1/6
f 459/1/6 451/1/6 460/1/6
f 454/6/6 455/6/6 461/6/6
f 461/6/6 455/6/6 462/6/6
f 457/6/6 458/6/6 463/6/6
f 463/6/6 458/6/6 464/6/6
f 465/3/6 466/3/6 471/3/6
f 471/3/6 466/3/6 472/3/6
f 467/6/6 468/6/6 473/6/6
f 473/6/6 468/6/6 474/6/6
f 469/3/6 470/3/6 476/3/6
f 476/3/6 470/3/6 477/3/6
f 474/1/6 475/1/6 480/1/6
f 480/1/6 475/1/6 481/1/6
f 478/2/6 479/2/6 484/2/6
f 484/2/6 479/2/6 485/2/6
f 482/2/6 483/2/6 486/2/6
f 486/2/6 483/2/6 487/2/6
f 488/6/6 489/6/6 492/6/6
f 492/6/6 489/6/6 493/6/6
f 490/3/6 491/3/6 494/3/6
f 494/3/6 491/3/6 495/3/6
f 496/1/6 497/1/6 500/1/6
f 500/1/6 497/1/6 501/1/6
f 498/3/6 499/3/6 504/3/6
f 504/3/6 499/3/6 505/3/6
f 502/1/6 503/1/6 508/1/6
f 508/1/6 503/1/6 509/1/6
f 506/6/6 507/6/6 510/6/6
f 510/6/6 507/6/6 511/6/6
f 512/6/6 513/6/6 514/6/6
f 514/6/6 513/6/6 515/6/6
f 516/3/6 517/3/6 522/3/6
f 522/3/6 517/3/6 523/3/6
f 518/1/6 519/1/6 524/1/6
f 524/1/6 519/1/6 525/1/6
f 520/2/6 521/2/6 526/2/6
f 526/2/6 521/2/6 527/2/6
