# MagicaVoxel @ Ephtracy

# material
mtllib Garden04A.mtl
usemtl palette

# normals
vn -1 0 0
vn 1 0 0
vn 0 0 1
vn 0 0 -1
vn 0 -1 0
vn 0 1 0

# texcoords
vt 0.939453 0.5
vt 0.943359 0.5
vt 0.947266 0.5
vt 0.951172 0.5
vt 0.990234 0.5

# verts
v -5 0 8
v -5 0 -8
v -5 1 8
v -5 1 -8
v -5 2 8
v -5 2 7
v -5 2 5
v -5 2 3
v -5 2 1
v -5 2 -5
v -5 2 -7
v -5 2 -8
v -5 3 7
v -5 3 5
v -5 3 3
v -5 3 1
v -5 3 -5
v -5 3 -7
v -4 2 8
v -4 2 7
v -4 2 5
v -4 2 4
v -4 2 3
v -4 2 1
v -4 2 -0
v -4 2 -4
v -4 2 -5
v -4 2 -7
v -4 2 -8
v -4 3 8
v -4 3 7
v -4 3 5
v -4 3 4
v -4 3 3
v -4 3 1
v -4 3 -0
v -4 3 -4
v -4 3 -5
v -4 3 -7
v -4 3 -8
v -4 4 7
v -4 4 5
v -4 4 3
v -4 4 1
v -4 4 -5
v -4 4 -7
v -3 2 -1
v -3 2 -3
v -3 3 -1
v -3 3 -3
v -2 2 -0
v -2 2 -1
v -2 2 -3
v -2 2 -4
v -2 3 -0
v -2 3 -1
v -2 3 -3
v -2 3 -4
v -2 4 -1
v -2 4 -3
v -1 2 4
v -1 2 3
v -1 3 4
v -1 3 3
v 0 2 5
v 0 2 4
v 0 2 2
v 0 2 1
v 0 2 -4
v 0 2 -5
v 0 2 -7
v 0 2 -8
v 0 3 5
v 0 3 4
v 0 3 2
v 0 3 1
v 0 3 -4
v 0 3 -5
v 0 3 -7
v 0 3 -8
v 0 4 4
v 0 4 2
v 0 4 -5
v 0 4 -7
v 1 2 7
v 1 2 5
v 1 2 -0
v 1 2 -1
v 1 3 7
v 1 3 5
v 1 3 -0
v 1 3 -1
v 2 2 8
v 2 2 7
v 2 2 1
v 2 2 -0
v 2 2 -2
v 2 2 -3
v 2 3 8
v 2 3 7
v 2 3 5
v 2 3 1
v 2 3 -0
v 2 3 -2
v 2 3 -3
v 2 4 7
v 2 4 5
v 2 4 -0
v 2 4 -2
v -2 2 8
v -2 2 7
v -2 2 5
v -2 2 4
v -2 2 3
v -2 2 1
v -2 2 -0
v -2 2 -4
v -2 2 -5
v -2 2 -7
v -2 2 -8
v -2 3 8
v -2 3 7
v -2 3 5
v -2 3 4
v -2 3 3
v -2 3 1
v -2 3 -0
v -2 3 -4
v -2 3 -5
v -2 3 -7
v -2 3 -8
v -2 4 7
v -2 4 5
v -2 4 3
v -2 4 1
v -2 4 -5
v -2 4 -7
v -1 2 7
v -1 2 5
v -1 2 2
v -1 2 1
v -1 3 7
v -1 3 5
v -1 3 2
v -1 3 1
v 0 2 -0
v 0 2 -1
v 0 2 -3
v 0 2 -4
v 0 3 -0
v 0 3 -1
v 0 3 -3
v 0 3 -4
v 0 4 -1
v 0 4 -3
v 1 2 -2
v 1 2 -3
v 1 3 -2
v 1 3 -3
v 2 2 2
v 2 2 1
v 2 3 4
v 2 3 2
v 2 3 1
v 2 4 4
v 2 4 2
v 3 2 4
v 3 2 2
v 3 3 4
v 3 3 2
v 4 2 8
v 4 2 7
v 4 2 5
v 4 2 4
v 4 2 1
v 4 2 -0
v 4 2 -2
v 4 2 -3
v 4 2 -4
v 4 2 -5
v 4 2 -7
v 4 2 -8
v 4 3 8
v 4 3 7
v 4 3 5
v 4 3 4
v 4 3 1
v 4 3 -0
v 4 3 -2
v 4 3 -3
v 4 3 -4
v 4 3 -5
v 4 3 -7
v 4 3 -8
v 4 4 7
v 4 4 5
v 4 4 -0
v 4 4 -2
v 4 4 -5
v 4 4 -7
v 5 0 8
v 5 0 -8
v 5 1 8
v 5 1 -8
v 5 2 8
v 5 2 7
v 5 2 5
v 5 2 -0
v 5 2 -2
v 5 2 -5
v 5 2 -7
v 5 2 -8
v 5 3 7
v 5 3 5
v 5 3 -0
v 5 3 -2
v 5 3 -5
v 5 3 -7
v -5 0 8
v -5 1 8
v -5 2 8
v -4 2 8
v -4 3 8
v -2 2 8
v -2 3 8
v 2 2 8
v 2 3 8
v 4 2 8
v 4 3 8
v 5 0 8
v 5 1 8
v 5 2 8
v -5 2 7
v -5 3 7
v -4 2 7
v -4 3 7
v -4 4 7
v -2 2 7
v -2 3 7
v -2 4 7
v -1 2 7
v -1 3 7
v 1 2 7
v 1 3 7
v 2 2 7
v 2 3 7
v 2 4 7
v 4 2 7
v 4 3 7
v 4 4 7
v 5 2 7
v 5 3 7
v 0 2 5
v 0 3 5
v 1 2 5
v 1 3 5
v -1 2 4
v -1 3 4
v 0 2 4
v 0 3 4
v 0 4 4
v 2 3 4
v 2 4 4
v -5 2 3
v -5 3 3
v -4 2 3
v -4 3 3
v -4 4 3
v -2 2 3
v -2 3 3
v -2 4 3
v -1 2 3
v -1 3 3
v 2 2 1
v 2 3 1
v 4 2 1
v 4 3 1
v -2 2 -0
v -2 3 -0
v 0 2 -0
v 0 3 -0
v 1 2 -0
v 1 3 -0
v 2 2 -0
v 2 3 -0
v 2 4 -0
v 4 2 -0
v 4 3 -0
v 4 4 -0
v 5 2 -0
v 5 3 -0
v -3 2 -1
v -3 3 -1
v -2 2 -1
v -2 3 -1
v -2 4 -1
v 0 2 -1
v 0 3 -1
v 0 4 -1
v 1 2 -1
v 1 3 -1
v -4 2 -4
v -4 3 -4
v -2 2 -4
v -2 3 -4
v 0 2 -4
v 0 3 -4
v 2 2 -4
v 2 3 -4
v 4 2 -4
v 4 3 -4
v -5 2 -5
v -5 3 -5
v -4 2 -5
v -4 3 -5
v -4 4 -5
v -2 2 -5
v -2 3 -5
v -2 4 -5
v -1 2 -5
v -1 3 -5
v 0 2 -5
v 0 3 -5
v 0 4 -5
v 2 3 -5
v 2 4 -5
v 4 2 -5
v 4 3 -5
v 4 4 -5
v 5 2 -5
v 5 3 -5
v -5 2 5
v -5 3 5
v -4 2 5
v -4 3 5
v -4 4 5
v -2 2 5
v -2 3 5
v -2 4 5
v -1 2 5
v -1 3 5
v 2 3 5
v 2 4 5
v 4 2 5
v 4 3 5
v 4 4 5
v 5 2 5
v 5 3 5
v 3 2 4
v 3 3 4
v 4 2 4
v 4 3 4
v -1 2 2
v -1 3 2
v 0 2 2
v 0 3 2
v 0 4 2
v 2 2 2
v 2 3 2
v 2 4 2
v 3 2 2
v 3 3 2
v -5 2 1
v -5 3 1
v -4 2 1
v -4 3 1
v -4 4 1
v -2 2 1
v -2 3 1
v -2 4 1
v -1 2 1
v -1 3 1
v 0 2 1
v 0 3 1
v 2 2 1
v 2 3 1
v -4 2 -0
v -4 3 -0
v -2 2 -0
v -2 3 -0
v 1 2 -2
v 1 3 -2
v 2 2 -2
v 2 3 -2
v 2 4 -2
v 4 2 -2
v 4 3 -2
v 4 4 -2
v 5 2 -2
v 5 3 -2
v -3 2 -3
v -3 3 -3
v -2 2 -3
v -2 3 -3
v -2 4 -3
v 0 2 -3
v 0 3 -3
v 0 4 -3
v 1 2 -3
v 1 3 -3
v 2 2 -3
v 2 3 -3
v 4 2 -3
v 4 3 -3
v -2 2 -4
v -2 3 -4
v 0 2 -4
v 0 3 -4
v -5 2 -7
v -5 3 -7
v -4 2 -7
v -4 3 -7
v -4 4 -7
v -2 2 -7
v -2 3 -7
v -2 4 -7
v -1 2 -7
v -1 3 -7
v 0 2 -7
v 0 3 -7
v 0 4 -7
v 2 3 -7
v 2 4 -7
v 4 2 -7
v 4 3 -7
v 4 4 -7
v 5 2 -7
v 5 3 -7
v -5 0 -8
v -5 1 -8
v -5 2 -8
v -4 2 -8
v -4 3 -8
v -2 2 -8
v -2 3 -8
v 0 2 -8
v 0 3 -8
v 2 2 -8
v 2 3 -8
v 4 2 -8
v 4 3 -8
v 5 0 -8
v 5 1 -8
v 5 2 -8
v -5 0 8
v 5 0 8
v -5 0 -8
v 5 0 -8
v -5 2 8
v -4 2 8
v -2 2 8
v 2 2 8
v 4 2 8
v 5 2 8
v -5 2 7
v -4 2 7
v -2 2 7
v -1 2 7
v 1 2 7
v 2 2 7
v 4 2 7
v 5 2 7
v -5 2 5
v -4 2 5
v -2 2 5
v -1 2 5
v 0 2 5
v 1 2 5
v 4 2 5
v 5 2 5
v -4 2 4
v -2 2 4
v -1 2 4
v 0 2 4
v 3 2 4
v 4 2 4
v -5 2 3
v -4 2 3
v -2 2 3
v -1 2 3
v -1 2 2
v 0 2 2
v 2 2 2
v 3 2 2
v -5 2 1
v -4 2 1
v -2 2 1
v -1 2 1
v 0 2 1
v 2 2 1
v 4 2 1
v -4 2 -0
v -2 2 -0
v 0 2 -0
v 1 2 -0
v 2 2 -0
v 4 2 -0
v 5 2 -0
v -3 2 -1
v -2 2 -1
v 0 2 -1
v 1 2 -1
v 1 2 -2
v 2 2 -2
v 4 2 -2
v 5 2 -2
v -3 2 -3
v -2 2 -3
v 0 2 -3
v 1 2 -3
v 2 2 -3
v 4 2 -3
v -4 2 -4
v -2 2 -4
v 0 2 -4
v 2 2 -4
v 4 2 -4
v -5 2 -5
v -4 2 -5
v -2 2 -5
v -1 2 -5
v 0 2 -5
v 4 2 -5
v 5 2 -5
v -5 2 -7
v -4 2 -7
v -2 2 -7
v -1 2 -7
v 0 2 -7
v 4 2 -7
v 5 2 -7
v -5 2 -8
v -4 2 -8
v -2 2 -8
v 0 2 -8
v 4 2 -8
v 5 2 -8
v -4 3 8
v -2 3 8
v 2 3 8
v 4 3 8
v -5 3 7
v -4 3 7
v -2 3 7
v -1 3 7
v 1 3 7
v 2 3 7
v 4 3 7
v 5 3 7
v -5 3 5
v -4 3 5
v -2 3 5
v -1 3 5
v 0 3 5
v 1 3 5
v 2 3 5
v 4 3 5
v 5 3 5
v -4 3 4
v -2 3 4
v -1 3 4
v 0 3 4
v 2 3 4
v 3 3 4
v 4 3 4
v -5 3 3
v -4 3 3
v -2 3 3
v -1 3 3
v -1 3 2
v 0 3 2
v 2 3 2
v 3 3 2
v -5 3 1
v -4 3 1
v -2 3 1
v -1 3 1
v 0 3 1
v 2 3 1
v 4 3 1
v -4 3 -0
v -2 3 -0
v 0 3 -0
v 1 3 -0
v 2 3 -0
v 4 3 -0
v 5 3 -0
v -3 3 -1
v -2 3 -1
v 0 3 -1
v 1 3 -1
v 1 3 -2
v 2 3 -2
v 4 3 -2
v 5 3 -2
v -3 3 -3
v -2 3 -3
v 0 3 -3
v 1 3 -3
v 2 3 -3
v 4 3 -3
v -4 3 -4
v -2 3 -4
v 0 3 -4
v 2 3 -4
v 4 3 -4
v -5 3 -5
v -4 3 -5
v -2 3 -5
v -1 3 -5
v 0 3 -5
v 2 3 -5
v 4 3 -5
v 5 3 -5
v -5 3 -7
v -4 3 -7
v -2 3 -7
v -1 3 -7
v 0 3 -7
v 2 3 -7
v 4 3 -7
v 5 3 -7
v -4 3 -8
v -2 3 -8
v 0 3 -8
v 2 3 -8
v 4 3 -8
v -4 4 7
v -2 4 7
v 2 4 7
v 4 4 7
v -4 4 5
v -2 4 5
v 2 4 5
v 4 4 5
v 0 4 4
v 2 4 4
v -4 4 3
v -2 4 3
v 0 4 2
v 2 4 2
v -4 4 1
v -2 4 1
v 2 4 -0
v 4 4 -0
v -2 4 -1
v 0 4 -1
v 2 4 -2
v 4 4 -2
v -2 4 -3
v 0 4 -3
v -4 4 -5
v -2 4 -5
v 0 4 -5
v 2 4 -5
v 4 4 -5
v -4 4 -7
v -2 4 -7
v 0 4 -7
v 2 4 -7
v 4 4 -7

# faces
f 3/5/1 2/5/1 1/5/1
f 4/5/1 2/5/1 3/5/1
f 5/1/1 4/1/1 3/1/1
f 6/1/1 4/1/1 5/1/1
f 7/1/1 4/1/1 6/1/1
f 8/1/1 4/1/1 7/1/1
f 9/1/1 4/1/1 8/1/1
f 10/1/1 4/1/1 9/1/1
f 11/1/1 4/1/1 10/1/1
f 12/1/1 4/1/1 11/1/1
f 13/3/1 7/3/1 6/3/1
f 14/3/1 7/3/1 13/3/1
f 15/4/1 9/4/1 8/4/1
f 16/4/1 9/4/1 15/4/1
f 17/2/1 11/2/1 10/2/1
f 18/2/1 11/2/1 17/2/1
f 30/3/1 20/3/1 19/3/1
f 31/3/1 20/3/1 30/3/1
f 32/3/1 22/3/1 21/3/1
f 33/4/1 23/4/1 22/4/1
f 33/3/1 22/3/1 32/3/1
f 34/4/1 23/4/1 33/4/1
f 35/4/1 25/4/1 24/4/1
f 36/4/1 25/4/1 35/4/1
f 37/2/1 27/2/1 26/2/1
f 38/2/1 27/2/1 37/2/1
f 39/2/1 29/2/1 28/2/1
f 40/2/1 29/2/1 39/2/1
f 41/3/1 32/3/1 31/3/1
f 42/3/1 32/3/1 41/3/1
f 43/4/1 35/4/1 34/4/1
f 44/4/1 35/4/1 43/4/1
f 45/2/1 39/2/1 38/2/1
f 46/2/1 39/2/1 45/2/1
f 49/4/1 48/4/1 47/4/1
f 50/4/1 48/4/1 49/4/1
f 55/4/1 52/4/1 51/4/1
f 56/4/1 52/4/1 55/4/1
f 57/4/1 54/4/1 53/4/1
f 58/4/1 54/4/1 57/4/1
f 59/4/1 57/4/1 56/4/1
f 60/4/1 57/4/1 59/4/1
f 63/2/1 62/2/1 61/2/1
f 64/2/1 62/2/1 63/2/1
f 73/2/1 66/2/1 65/2/1
f 74/2/1 66/2/1 73/2/1
f 75/2/1 68/2/1 67/2/1
f 76/2/1 68/2/1 75/2/1
f 77/3/1 70/3/1 69/3/1
f 78/3/1 70/3/1 77/3/1
f 79/3/1 72/3/1 71/3/1
f 80/3/1 72/3/1 79/3/1
f 81/2/1 75/2/1 74/2/1
f 82/2/1 75/2/1 81/2/1
f 83/3/1 79/3/1 78/3/1
f 84/3/1 79/3/1 83/3/1
f 89/2/1 86/2/1 85/2/1
f 90/2/1 86/2/1 89/2/1
f 91/4/1 88/4/1 87/4/1
f 92/4/1 88/4/1 91/4/1
f 99/2/1 94/2/1 93/2/1
f 100/2/1 94/2/1 99/2/1
f 102/4/1 96/4/1 95/4/1
f 103/4/1 96/4/1 102/4/1
f 104/4/1 98/4/1 97/4/1
f 105/4/1 98/4/1 104/4/1
f 106/2/1 101/2/1 100/2/1
f 107/2/1 101/2/1 106/2/1
f 108/4/1 104/4/1 103/4/1
f 109/4/1 104/4/1 108/4/1
f 110/3/2 111/3/2 121/3/2
f 121/3/2 111/3/2 122/3/2
f 112/3/2 113/3/2 123/3/2
f 113/4/2 114/4/2 124/4/2
f 123/3/2 113/3/2 124/3/2
f 124/4/2 114/4/2 125/4/2
f 115/4/2 116/4/2 126/4/2
f 126/4/2 116/4/2 127/4/2
f 117/2/2 118/2/2 128/2/2
f 128/2/2 118/2/2 129/2/2
f 119/2/2 120/2/2 130/2/2
f 130/2/2 120/2/2 131/2/2
f 122/3/2 123/3/2 132/3/2
f 132/3/2 123/3/2 133/3/2
f 125/4/2 126/4/2 134/4/2
f 134/4/2 126/4/2 135/4/2
f 129/2/2 130/2/2 136/2/2
f 136/2/2 130/2/2 137/2/2
f 138/3/2 139/3/2 142/3/2
f 142/3/2 139/3/2 143/3/2
f 140/4/2 141/4/2 144/4/2
f 144/4/2 141/4/2 145/4/2
f 146/4/2 147/4/2 150/4/2
f 150/4/2 147/4/2 151/4/2
f 148/4/2 149/4/2 152/4/2
f 152/4/2 149/4/2 153/4/2
f 151/4/2 152/4/2 154/4/2
f 154/4/2 152/4/2 155/4/2
f 156/4/2 157/4/2 158/4/2
f 158/4/2 157/4/2 159/4/2
f 160/2/2 161/2/2 163/2/2
f 163/2/2 161/2/2 164/2/2
f 162/2/2 163/2/2 165/2/2
f 165/2/2 163/2/2 166/2/2
f 167/2/2 168/2/2 169/2/2
f 169/2/2 168/2/2 170/2/2
f 171/2/2 172/2/2 183/2/2
f 183/2/2 172/2/2 184/2/2
f 173/2/2 174/2/2 185/2/2
f 185/2/2 174/2/2 186/2/2
f 175/4/2 176/4/2 187/4/2
f 187/4/2 176/4/2 188/4/2
f 177/4/2 178/4/2 189/4/2
f 189/4/2 178/4/2 190/4/2
f 179/4/2 180/4/2 191/4/2
f 191/4/2 180/4/2 192/4/2
f 181/4/2 182/4/2 193/4/2
f 193/4/2 182/4/2 194/4/2
f 184/2/2 185/2/2 195/2/2
f 195/2/2 185/2/2 196/2/2
f 188/4/2 189/4/2 197/4/2
f 197/4/2 189/4/2 198/4/2
f 192/4/2 193/4/2 199/4/2
f 199/4/2 193/4/2 200/4/2
f 201/5/2 202/5/2 203/5/2
f 203/5/2 202/5/2 204/5/2
f 203/1/2 204/1/2 205/1/2
f 205/1/2 204/1/2 206/1/2
f 206/1/2 204/1/2 207/1/2
f 207/1/2 204/1/2 208/1/2
f 208/1/2 204/1/2 209/1/2
f 209/1/2 204/1/2 210/1/2
f 210/1/2 204/1/2 211/1/2
f 211/1/2 204/1/2 212/1/2
f 206/2/2 207/2/2 213/2/2
f 213/2/2 207/2/2 214/2/2
f 208/4/2 209/4/2 215/4/2
f 215/4/2 209/4/2 216/4/2
f 210/4/2 211/4/2 217/4/2
f 217/4/2 211/4/2 218/4/2
f 222/1/3 221/1/3 220/1/3
f 224/1/3 222/1/3 220/1/3
f 224/3/3 223/3/3 222/3/3
f 225/3/3 223/3/3 224/3/3
f 226/1/3 224/1/3 220/1/3
f 228/1/3 226/1/3 220/1/3
f 228/2/3 227/2/3 226/2/3
f 229/2/3 227/2/3 228/2/3
f 230/5/3 220/5/3 219/5/3
f 231/1/3 228/1/3 220/1/3
f 231/5/3 220/5/3 230/5/3
f 232/1/3 228/1/3 231/1/3
f 235/3/3 234/3/3 233/3/3
f 236/3/3 234/3/3 235/3/3
f 239/3/3 237/3/3 236/3/3
f 240/3/3 237/3/3 239/3/3
f 241/3/3 239/3/3 238/3/3
f 242/3/3 239/3/3 241/3/3
f 245/2/3 244/2/3 243/2/3
f 246/2/3 244/2/3 245/2/3
f 249/2/3 247/2/3 246/2/3
f 250/2/3 247/2/3 249/2/3
f 251/2/3 249/2/3 248/2/3
f 252/2/3 249/2/3 251/2/3
f 255/2/3 254/2/3 253/2/3
f 256/2/3 254/2/3 255/2/3
f 259/2/3 258/2/3 257/2/3
f 260/2/3 258/2/3 259/2/3
f 262/2/3 261/2/3 260/2/3
f 263/2/3 261/2/3 262/2/3
f 266/4/3 265/4/3 264/4/3
f 267/4/3 265/4/3 266/4/3
f 270/4/3 268/4/3 267/4/3
f 271/4/3 268/4/3 270/4/3
f 272/4/3 270/4/3 269/4/3
f 273/4/3 270/4/3 272/4/3
f 276/4/3 275/4/3 274/4/3
f 277/4/3 275/4/3 276/4/3
f 280/4/3 279/4/3 278/4/3
f 281/4/3 279/4/3 280/4/3
f 284/4/3 283/4/3 282/4/3
f 285/4/3 283/4/3 284/4/3
f 288/4/3 286/4/3 285/4/3
f 289/4/3 286/4/3 288/4/3
f 290/4/3 288/4/3 287/4/3
f 291/4/3 288/4/3 290/4/3
f 294/4/3 293/4/3 292/4/3
f 295/4/3 293/4/3 294/4/3
f 298/4/3 296/4/3 295/4/3
f 299/4/3 296/4/3 298/4/3
f 300/4/3 298/4/3 297/4/3
f 301/4/3 298/4/3 300/4/3
f 304/2/3 303/2/3 302/2/3
f 305/2/3 303/2/3 304/2/3
f 308/3/3 307/3/3 306/3/3
f 309/3/3 307/3/3 308/3/3
f 310/4/3 309/4/3 308/4/3
f 311/4/3 309/4/3 310/4/3
f 314/2/3 313/2/3 312/2/3
f 315/2/3 313/2/3 314/2/3
f 318/2/3 316/2/3 315/2/3
f 319/2/3 316/2/3 318/2/3
f 320/2/3 318/2/3 317/2/3
f 321/2/3 318/2/3 320/2/3
f 322/3/3 321/3/3 320/3/3
f 323/3/3 321/3/3 322/3/3
f 325/3/3 324/3/3 323/3/3
f 326/3/3 324/3/3 325/3/3
f 328/4/3 326/4/3 325/4/3
f 329/4/3 326/4/3 328/4/3
f 330/4/3 328/4/3 327/4/3
f 331/4/3 328/4/3 330/4/3
f 332/3/4 333/3/4 334/3/4
f 334/3/4 333/3/4 335/3/4
f 335/3/4 336/3/4 338/3/4
f 338/3/4 336/3/4 339/3/4
f 337/3/4 338/3/4 340/3/4
f 340/3/4 338/3/4 341/3/4
f 342/2/4 343/2/4 345/2/4
f 345/2/4 343/2/4 346/2/4
f 344/2/4 345/2/4 347/2/4
f 347/2/4 345/2/4 348/2/4
f 349/2/4 350/2/4 351/2/4
f 351/2/4 350/2/4 352/2/4
f 353/2/4 354/2/4 355/2/4
f 355/2/4 354/2/4 356/2/4
f 356/2/4 357/2/4 359/2/4
f 359/2/4 357/2/4 360/2/4
f 358/2/4 359/2/4 361/2/4
f 361/2/4 359/2/4 362/2/4
f 363/4/4 364/4/4 365/4/4
f 365/4/4 364/4/4 366/4/4
f 366/4/4 367/4/4 369/4/4
f 369/4/4 367/4/4 370/4/4
f 368/4/4 369/4/4 371/4/4
f 371/4/4 369/4/4 372/4/4
f 373/2/4 374/2/4 375/2/4
f 375/2/4 374/2/4 376/2/4
f 377/4/4 378/4/4 379/4/4
f 379/4/4 378/4/4 380/4/4
f 381/4/4 382/4/4 383/4/4
f 383/4/4 382/4/4 384/4/4
f 384/4/4 385/4/4 387/4/4
f 387/4/4 385/4/4 388/4/4
f 386/4/4 387/4/4 389/4/4
f 389/4/4 387/4/4 390/4/4
f 391/4/4 392/4/4 393/4/4
f 393/4/4 392/4/4 394/4/4
f 394/4/4 395/4/4 397/4/4
f 397/4/4 395/4/4 398/4/4
f 396/4/4 397/4/4 399/4/4
f 399/4/4 397/4/4 400/4/4
f 401/4/4 402/4/4 403/4/4
f 403/4/4 402/4/4 404/4/4
f 405/4/4 406/4/4 407/4/4
f 407/4/4 406/4/4 408/4/4
f 409/2/4 410/2/4 411/2/4
f 411/2/4 410/2/4 412/2/4
f 412/2/4 413/2/4 415/2/4
f 415/2/4 413/2/4 416/2/4
f 414/2/4 415/2/4 417/2/4
f 417/2/4 415/2/4 418/2/4
f 417/3/4 418/3/4 419/3/4
f 419/3/4 418/3/4 420/3/4
f 420/3/4 421/3/4 422/3/4
f 422/3/4 421/3/4 423/3/4
f 422/4/4 423/4/4 425/4/4
f 425/4/4 423/4/4 426/4/4
f 424/4/4 425/4/4 427/4/4
f 427/4/4 425/4/4 428/4/4
f 430/1/4 431/1/4 432/1/4
f 430/1/4 432/1/4 434/1/4
f 432/2/4 433/2/4 434/2/4
f 434/2/4 433/2/4 435/2/4
f 430/1/4 434/1/4 436/1/4
f 430/1/4 436/1/4 438/1/4
f 436/3/4 437/3/4 438/3/4
f 438/3/4 437/3/4 439/3/4
f 430/1/4 438/1/4 440/1/4
f 438/4/4 439/4/4 440/4/4
f 440/4/4 439/4/4 441/4/4
f 429/5/4 430/5/4 442/5/4
f 430/1/4 440/1/4 443/1/4
f 442/5/4 430/5/4 443/5/4
f 443/1/4 440/1/4 444/1/4
f 447/5/5 446/5/5 445/5/5
f 448/5/5 446/5/5 447/5/5
f 449/1/6 450/1/6 455/1/6
f 455/1/6 450/1/6 456/1/6
f 451/1/6 452/1/6 457/1/6
f 457/1/6 452/1/6 458/1/6
f 458/1/6 452/1/6 459/1/6
f 459/1/6 452/1/6 460/1/6
f 453/1/6 454/1/6 461/1/6
f 461/1/6 454/1/6 462/1/6
f 458/1/6 459/1/6 466/1/6
f 466/1/6 459/1/6 467/1/6
f 467/1/6 459/1/6 468/1/6
f 463/1/6 464/1/6 471/1/6
f 465/1/6 466/1/6 472/1/6
f 466/1/6 467/1/6 472/1/6
f 472/1/6 467/1/6 473/1/6
f 473/1/6 467/1/6 474/1/6
f 469/1/6 470/1/6 476/1/6
f 463/1/6 471/1/6 477/1/6
f 477/1/6 471/1/6 478/1/6
f 472/1/6 473/1/6 479/1/6
f 479/1/6 473/1/6 480/1/6
f 475/1/6 476/1/6 484/1/6
f 481/1/6 482/1/6 488/1/6
f 488/1/6 482/1/6 489/1/6
f 483/1/6 484/1/6 490/1/6
f 476/1/6 470/1/6 491/1/6
f 484/1/6 476/1/6 491/1/6
f 490/1/6 484/1/6 491/1/6
f 485/1/6 486/1/6 492/1/6
f 489/1/6 490/1/6 493/1/6
f 488/1/6 489/1/6 493/1/6
f 487/1/6 488/1/6 493/1/6
f 493/1/6 490/1/6 494/1/6
f 494/1/6 490/1/6 495/1/6
f 495/1/6 490/1/6 496/1/6
f 491/1/6 470/1/6 497/1/6
f 497/1/6 470/1/6 498/1/6
f 492/1/6 493/1/6 499/1/6
f 499/1/6 493/1/6 500/1/6
f 494/1/6 495/1/6 501/1/6
f 501/1/6 495/1/6 502/1/6
f 492/1/6 499/1/6 507/1/6
f 503/1/6 504/1/6 510/1/6
f 510/1/6 504/1/6 511/1/6
f 505/1/6 506/1/6 512/1/6
f 485/1/6 492/1/6 513/1/6
f 507/1/6 508/1/6 513/1/6
f 492/1/6 507/1/6 513/1/6
f 513/1/6 508/1/6 514/1/6
f 511/1/6 512/1/6 515/1/6
f 510/1/6 511/1/6 515/1/6
f 509/1/6 510/1/6 515/1/6
f 515/1/6 512/1/6 516/1/6
f 512/1/6 506/1/6 517/1/6
f 516/1/6 512/1/6 517/1/6
f 485/1/6 513/1/6 518/1/6
f 518/1/6 513/1/6 519/1/6
f 514/1/6 515/1/6 520/1/6
f 520/1/6 515/1/6 521/1/6
f 521/1/6 515/1/6 522/1/6
f 517/1/6 506/1/6 523/1/6
f 523/1/6 506/1/6 524/1/6
f 525/1/6 526/1/6 532/1/6
f 532/1/6 526/1/6 533/1/6
f 527/1/6 528/1/6 534/1/6
f 528/1/6 529/1/6 534/1/6
f 534/1/6 529/1/6 535/1/6
f 530/1/6 531/1/6 536/1/6
f 536/1/6 531/1/6 537/1/6
f 538/3/6 539/3/6 543/3/6
f 543/3/6 539/3/6 544/3/6
f 540/2/6 541/2/6 547/2/6
f 547/2/6 541/2/6 548/2/6
f 542/3/6 543/3/6 550/3/6
f 550/3/6 543/3/6 551/3/6
f 544/3/6 545/3/6 552/3/6
f 552/3/6 545/3/6 553/3/6
f 546/2/6 547/2/6 555/2/6
f 555/2/6 547/2/6 556/2/6
f 548/2/6 549/2/6 557/2/6
f 557/2/6 549/2/6 558/2/6
f 551/3/6 552/3/6 559/3/6
f 559/3/6 552/3/6 560/3/6
f 555/2/6 556/2/6 562/2/6
f 556/2/6 557/2/6 562/2/6
f 554/2/6 555/2/6 562/2/6
f 562/2/6 557/2/6 563/2/6
f 563/2/6 557/2/6 564/2/6
f 564/2/6 557/2/6 565/2/6
f 559/4/6 560/4/6 567/4/6
f 567/4/6 560/4/6 568/4/6
f 561/2/6 562/2/6 569/2/6
f 568/4/6 569/4/6 570/4/6
f 569/2/6 562/2/6 570/2/6
f 570/2/6 562/2/6 571/2/6
f 563/2/6 564/2/6 572/2/6
f 572/2/6 564/2/6 573/2/6
f 566/4/6 567/4/6 574/4/6
f 574/4/6 567/4/6 575/4/6
f 568/4/6 570/4/6 576/4/6
f 576/4/6 570/4/6 577/4/6
f 571/2/6 572/2/6 578/2/6
f 578/2/6 572/2/6 579/2/6
f 575/4/6 576/4/6 581/4/6
f 581/4/6 576/4/6 582/4/6
f 579/4/6 580/4/6 585/4/6
f 585/4/6 580/4/6 586/4/6
f 582/4/6 583/4/6 589/4/6
f 589/4/6 583/4/6 590/4/6
f 584/4/6 585/4/6 591/4/6
f 590/4/6 591/4/6 592/4/6
f 591/4/6 585/4/6 592/4/6
f 592/4/6 585/4/6 593/4/6
f 586/4/6 587/4/6 594/4/6
f 594/4/6 587/4/6 595/4/6
f 588/4/6 589/4/6 596/4/6
f 596/4/6 589/4/6 597/4/6
f 590/4/6 592/4/6 598/4/6
f 598/4/6 592/4/6 599/4/6
f 593/4/6 594/4/6 600/4/6
f 600/4/6 594/4/6 601/4/6
f 597/4/6 598/4/6 603/4/6
f 603/4/6 598/4/6 604/4/6
f 602/2/6 603/2/6 608/2/6
f 608/2/6 603/2/6 609/2/6
f 604/3/6 605/3/6 611/3/6
f 605/4/6 606/4/6 612/4/6
f 611/3/6 605/3/6 612/3/6
f 612/4/6 606/4/6 613/4/6
f 607/2/6 608/2/6 615/2/6
f 615/2/6 608/2/6 616/2/6
f 609/2/6 610/2/6 617/2/6
f 610/3/6 611/3/6 618/3/6
f 617/2/6 610/2/6 618/2/6
f 618/3/6 611/3/6 619/3/6
f 613/4/6 614/4/6 621/4/6
f 621/4/6 614/4/6 622/4/6
f 616/2/6 617/2/6 623/2/6
f 623/2/6 617/2/6 624/2/6
f 619/3/6 620/3/6 625/3/6
f 620/4/6 621/4/6 626/4/6
f 625/3/6 620/3/6 626/3/6
f 626/4/6 621/4/6 627/4/6
f 628/3/6 629/3/6 632/3/6
f 632/3/6 629/3/6 633/3/6
f 630/2/6 631/2/6 634/2/6
f 634/2/6 631/2/6 635/2/6
f 636/2/6 637/2/6 640/2/6
f 640/2/6 637/2/6 641/2/6
f 638/4/6 639/4/6 642/4/6
f 642/4/6 639/4/6 643/4/6
f 644/4/6 645/4/6 648/4/6
f 648/4/6 645/4/6 649/4/6
f 646/4/6 647/4/6 650/4/6
f 650/4/6 647/4/6 651/4/6
f 652/2/6 653/2/6 657/2/6
f 657/2/6 653/2/6 658/2/6
f 654/3/6 655/3/6 659/3/6
f 655/4/6 656/4/6 660/4/6
f 659/3/6 655/3/6 660/3/6
f 660/4/6 656/4/6 661/4/6
